<svg xmlns="http://www.w3.org/2000/svg" viewBox="-1248 2436.5 61.8 37.5" enable-background="new -1248 2436.5 61.8 37.5"><style type="text/css">.st0{fill:#FFFFFF;}</style><path class="st0" d="M-1217.1 2465.6l-12.2-7v-14l12.2-7 12.2 7v14l-12.2 7zm-10.9-7.8l10.8 6.3 10.8-6.3v-12.5l-10.8-6.3-10.8 6.3v12.5zm10.9 3.2l-8.2-4.7v-9.5l8.2-4.7 8.2 4.7v9.5l-8.2 4.7zm-6.9-5.5l6.9 4 6.9-4v-7.9l-6.9-4-6.9 4v7.9zm6.9-7.5h-.3c.2.3.3.7.3 1.1 0 1.3-1 2.3-2.3 2.3-.4 0-.8-.1-1.2-.3v.4c0 2 1.6 3.6 3.6 3.6s3.6-1.6 3.6-3.6c-.2-1.9-1.8-3.5-3.7-3.5z"/></svg>