<?xml version="1.0" encoding="utf-8"?>
<!-- Generator: Adobe Illustrator 19.2.1, SVG Export Plug-In . SVG Version: 6.00 Build 0)  -->
<svg version="1.1" id="Layer_1" xmlns="http://www.w3.org/2000/svg" xmlns:xlink="http://www.w3.org/1999/xlink" x="0px" y="0px"
	 viewBox="0 0 61.8 37.5" style="enable-background:new 0 0 61.8 37.5;" xml:space="preserve">
<style type="text/css">
	.st0{fill:#FFFFFF;}
</style>
<g>
	<path class="st0" d="M30.9,3.5c3.8,0,4.2,0,5.7,0.1c1.4,0.1,2.1,0.3,2.6,0.5c0.7,0.3,1.1,0.6,1.6,1.1c0.5,0.5,0.8,1,1.1,1.6
		C42,7.3,42.2,8,42.3,9.4c0.1,1.5,0.1,1.9,0.1,5.7s0,4.2-0.1,5.7c-0.1,1.4-0.3,2.1-0.5,2.6c-0.3,0.7-0.6,1.1-1.1,1.6
		c-0.5,0.5-1,0.8-1.6,1.1c-0.5,0.2-1.2,0.4-2.6,0.5c-1.5,0.1-1.9,0.1-5.7,0.1s-4.2,0-5.7-0.1c-1.4-0.1-2.1-0.3-2.6-0.5
		c-0.7-0.3-1.1-0.6-1.6-1.1c-0.5-0.5-0.8-1-1.1-1.6c-0.2-0.5-0.4-1.2-0.5-2.6c-0.1-1.5-0.1-1.9-0.1-5.7s0-4.2,0.1-5.7
		c0.1-1.4,0.3-2.1,0.5-2.6c0.3-0.7,0.6-1.1,1.1-1.6c0.5-0.5,1-0.8,1.6-1.1c0.5-0.2,1.2-0.4,2.6-0.5C26.7,3.5,27.1,3.5,30.9,3.5
		 M30.9,1c-3.8,0-4.3,0-5.8,0.1c-1.5,0.1-2.5,0.3-3.4,0.7c-0.9,0.4-1.7,0.8-2.5,1.6c-0.8,0.8-1.3,1.6-1.6,2.5
		c-0.3,0.9-0.6,1.9-0.7,3.4c-0.1,1.5-0.1,2-0.1,5.8c0,3.8,0,4.3,0.1,5.8c0.1,1.5,0.3,2.5,0.7,3.4c0.4,0.9,0.8,1.7,1.6,2.5
		c0.8,0.8,1.6,1.3,2.5,1.6c0.9,0.3,1.9,0.6,3.4,0.7c1.5,0.1,2,0.1,5.8,0.1s4.3,0,5.8-0.1c1.5-0.1,2.5-0.3,3.4-0.7
		c0.9-0.4,1.7-0.8,2.5-1.6c0.8-0.8,1.3-1.6,1.6-2.5c0.3-0.9,0.6-1.9,0.7-3.4c0.1-1.5,0.1-2,0.1-5.8s0-4.3-0.1-5.8
		c-0.1-1.5-0.3-2.5-0.7-3.4c-0.4-0.9-0.8-1.7-1.6-2.5c-0.8-0.8-1.6-1.3-2.5-1.6c-0.9-0.3-1.9-0.6-3.4-0.7C35.2,1,34.7,1,30.9,1
		L30.9,1z"/>
	<path class="st0" d="M30.9,7.8c-4,0-7.2,3.2-7.2,7.2s3.2,7.2,7.2,7.2s7.2-3.2,7.2-7.2S34.9,7.8,30.9,7.8z M30.9,19.7
		c-2.6,0-4.7-2.1-4.7-4.7c0-2.6,2.1-4.7,4.7-4.7s4.7,2.1,4.7,4.7C35.6,17.6,33.5,19.7,30.9,19.7z"/>
	<circle class="st0" cx="38.4" cy="7.6" r="1.7"/>
</g>
</svg>
