<?xml version="1.0" encoding="utf-8"?>
<!-- Generator: Adobe Illustrator 16.0.4, SVG Export Plug-In . SVG Version: 6.00 Build 0)  -->
<!DOCTYPE svg PUBLIC "-//W3C//DTD SVG 1.1//EN" "http://www.w3.org/Graphics/SVG/1.1/DTD/svg11.dtd">
<svg version="1.1" id="Layer_1" xmlns="http://www.w3.org/2000/svg" xmlns:xlink="http://www.w3.org/1999/xlink" x="0px" y="0px"
	 width="200px" height="210px" viewBox="0 0 200 210" enable-background="new 0 0 200 210" xml:space="preserve">
<path fill="#ACCDE1" d="M-28.167-6.5h255.333v219.333H-28.167V-6.5z"/>
<path fill="#8FB6CF" d="M-14.164,227.072c8.153-12.4,19.404-23.016,33.379-30.565c19.4-10.487,40.285-11.882,60.991-9.575
	c0,0,85.562,10.705,122.571-43.576l1.056-147.854H-6.834L-14.164,227.072L-14.164,227.072z"/>
<path fill="#96BFD7" d="M202.203,120.936c0,0-15.201,37.067-57.832,20.653c0,0-89.502-43.374-145.268,17.211L-6.833-4.5h208.667
	L202.203,120.936z"/>
<path fill="#BBDAEB" d="M-20.916-5.914c0,46.881,38.008,84.889,84.893,84.889c20.202,0.004,38.75-7.055,53.324-18.838
	c0,0,57.18-50.484,128.006-54.002L246.5-10.5L-20.916-5.914L-20.916-5.914z"/>
<path fill="#5E5D5E" d="M58.037,85.335h77.842v52.44H58.037V85.335L58.037,85.335z"/>
<path fill="#FFFFFF" d="M64.183,92.3h65.959v39.2H64.183V92.3z M77.293,79.188h65.959v39.201H77.293V79.188z"/>
<path fill="#5E5D5E" d="M67.25,82.536H51.011v-3.414H67.25l3.897,0.002v-3.485H51.011v-3.414h97.977v52.44H71.147V83.406
	l-0.022-0.87H67.25z"/>
<path fill="#FFFFFF" d="M77.497,79.189h65.96v39.202h-65.96V79.189z"/>
<path fill="#EF836E" d="M100.545,95.167h19.766v3.622h-19.766V95.167z M100.545,101.895h19.766v3.621h-19.766V101.895z
	 M136.838,93.828h-9.793v-7.387h9.793V93.828z"/>
<path fill="#333333" d="M-98.333-100.083"/>
</svg>
