<svg xmlns="http://www.w3.org/2000/svg" width="61.75" height="37.5" viewBox="0 0 61.75 37.5"><g fill="#fff"><path d="M30.876 36.374c9.835 0 17.834-7.907 17.834-17.625.002-9.717-7.999-17.624-17.834-17.624s-17.836 7.907-17.836 17.625 8.001 17.624 17.836 17.624zm0-33.393c8.799 0 15.957 7.074 15.957 15.769s-7.158 15.768-15.957 15.768c-8.8 0-15.958-7.073-15.958-15.768s7.158-15.769 15.958-15.769zM30.876 32.199c7.505 0 13.611-6.033 13.611-13.45s-6.106-13.449-13.611-13.449c-7.506 0-13.611 6.033-13.611 13.449 0 7.417 6.105 13.45 13.611 13.45zm0-25.043c6.47 0 11.732 5.202 11.732 11.594 0 6.393-5.263 11.594-11.732 11.594s-11.734-5.201-11.734-11.594 5.264-11.594 11.734-11.594z"/></g></svg>