<?xml version="1.0" encoding="utf-8"?>
<!-- Generator: Adobe Illustrator 16.0.4, SVG Export Plug-In . SVG Version: 6.00 Build 0)  -->
<!DOCTYPE svg PUBLIC "-//W3C//DTD SVG 1.1//EN" "http://www.w3.org/Graphics/SVG/1.1/DTD/svg11.dtd">
<svg version="1.1" id="Layer_1" xmlns="http://www.w3.org/2000/svg" xmlns:xlink="http://www.w3.org/1999/xlink" x="0px" y="0px"
	 width="740px" height="124.25px" viewBox="0 0 740 124.25" enable-background="new 0 0 740 124.25" xml:space="preserve">
<circle fill="#FFFFFF" cx="246.385" cy="38.269" r="1.45"/>
<circle fill="#FFFFFF" cx="240.151" cy="36.817" r="1.45"/>
<g>
	<circle fill="#00857F" cx="370" cy="62.125" r="61.228"/>
	<path fill="#FFFFFF" d="M335.781,91.543c-11.799,0-18.309-7.818-19.041-15.791h7.162c0.652,4.64,4.557,9.197,11.879,9.197
		c7.488,0,12.532-5.37,12.532-12.781c0-7.4-4.8-12.692-11.881-12.692c-4.557,0-8.95,2.602-11.555,6.432l-6.104-2.364l3.744-29.46
		h29.294v6.592h-23.19l-2.114,15.706c2.684-2.035,6.51-3.417,10.577-3.417c10.662,0,18.065,8.056,18.065,19.203
		C355.149,84.135,346.198,91.543,335.781,91.543L335.781,91.543z M358.81,45.483v-5.372c4.8-0.162,8.463-1.791,8.869-6.021h6.348
		v56.475h-6.915V45.483H358.81z M402.59,91.543c-10.172,0-16.195-6.106-17.742-13.59h7.082c1.059,3.659,4.395,7.08,10.746,7.08
		c10.328,0,13.26-10.826,13.916-19.942c-2.275,4.071-8.227,6.92-13.676,6.92c-11.148,0-19.205-8.221-19.205-19.611
		c0-11.556,8.141-19.692,19.125-19.692c6.996,0,12.691,3.335,16.189,9.031c3.094,5.046,4.234,10.661,4.234,18.636
		C423.26,79.905,416.178,91.543,402.59,91.543L402.59,91.543z M402.916,39.052c-7.324,0-12.289,5.373-12.289,13.348
		c0,7.73,4.719,13.345,12.289,13.345c7.568,0,12.531-5.615,12.531-13.345C415.447,44.832,410.318,39.052,402.916,39.052z"/>
</g>
</svg>
