<svg xmlns="http://www.w3.org/2000/svg" width="740" height="506" viewBox="0 0 740 506"><path d="M369.955 502.58l-216.133-124.79v-249.592l216.133-124.778 216.223 124.778v249.592l-216.223 124.79zm-192.503-138.41l192.503 111.144 192.584-111.144v-222.314l-192.584-111.158-192.503 111.158v222.314zm192.479 57.333l-145.864-84.266v-168.488l145.864-84.251 145.991 84.251v168.541l-145.991 84.213zm-122.234-97.884l122.234 70.617 122.349-70.617v-141.236l-122.349-70.631-122.234 70.631v141.236zm122.208-133.605l-5.475.553c3.173 5.847 5.126 12.452 5.126 19.582 0 22.884-18.554 41.438-41.45 41.438-7.709 0-14.815-2.234-20.97-5.859l-.784 7.89c0 35.103 28.474 63.576 63.578 63.576 35.103 0 63.575-28.474 63.575-63.576-.023-35.131-28.472-63.604-63.6-63.604z"/></svg>