<?xml version="1.0" encoding="utf-8"?>
<!-- Generator: Adobe Illustrator 16.0.4, SVG Export Plug-In . SVG Version: 6.00 Build 0)  -->
<!DOCTYPE svg PUBLIC "-//W3C//DTD SVG 1.1//EN" "http://www.w3.org/Graphics/SVG/1.1/DTD/svg11.dtd">
<svg version="1.1" id="Amperbranch" xmlns="http://www.w3.org/2000/svg" xmlns:xlink="http://www.w3.org/1999/xlink" x="0px"
	 y="0px" width="200px" height="210px" viewBox="0 0 200 210" enable-background="new 0 0 200 210" xml:space="preserve">
<rect x="-47.25" y="-36" fill="#3398DB" width="294.5" height="282"/>
<path fill="#EE912D" d="M100.399,139.119C121.076,98.341,81.567,71.18,81.567,71.18S61.68,114.807,100.399,139.119z"/>
<path fill="#EE912D" d="M100.357,139.131c-2.482-45.653-50.28-49.421-50.28-49.421S54.667,137.434,100.357,139.131z"/>
<path fill="#EE912D" d="M100.45,139.105c-21.375-40.417,17.663-68.253,17.663-68.253S138.746,114.129,100.45,139.105z"/>
<path fill="#EE912D" d="M100.5,139.148c1.699-45.69,49.422-50.28,49.422-50.28S146.154,136.664,100.5,139.148z"/>
<path fill="#FFCC32" d="M76.495,98.56c0.451,13.429,5.7,29.127,23.904,40.56l-0.042,0.012
	C99.19,117.674,88.014,105.469,76.495,98.56z"/>
<path fill="#FFCC32" d="M100.021,92.038c6.525,11.744,10.109,27.907,0.386,47.077l0.043-0.012
	C90.404,120.109,93.703,103.892,100.021,92.038z"/>
<path fill="#FFCC32" d="M123.783,98.166c-0.254,13.434-5.27,29.209-23.302,40.907l0.041,0.012
	C101.371,117.613,112.365,105.245,123.783,98.166z"/>
<path fill="#FFFFFF" d="M100.357,139.131c-0.501-9.223-2.853-16.736-6.284-22.854l0,0c0.205,6.955,2.028,14.537,6.271,22.625"/>
<path fill="#FFFFFF" d="M100.308,139.096c4.211-8.221,5.965-15.895,6.083-22.908h-0.002c-3.324,6.111-5.568,13.58-5.978,22.705"/>
</svg>
