<svg xmlns="http://www.w3.org/2000/svg" width="200" height="210" viewBox="0 0 200 210"><path d="M-52.5-36.5h301v273h-301z"/><ellipse transform="matrix(.459 .889 -.889 .459 126.965 -5.103)" fill="#fff" cx="67.671" cy="101.66" rx="15.668" ry="11.852"/><path fill="#fff" d="M78.191 96.405c3.442 8.428 1.502 17.189-4.333 19.57s-13.356-2.52-16.797-10.946c-3.442-8.426-1.502-17.19 4.333-19.571 5.835-2.379 13.356 2.521 16.797 10.947z"/><ellipse transform="matrix(.591 .807 -.807 .591 130.966 -36.594)" fill="#fff" cx="101.543" cy="110.758" rx="17.725" ry="13.408"/><ellipse transform="matrix(.459 .889 -.889 .459 126.972 -5.095)" cx="67.668" cy="101.67" rx="10.913" ry="8.256"/><path fill="#fff" d="M78.44 104.546s4.302-3.027 8.763 3.665l2.708-7.329s-5.417-3.824-12.587-3.346l1.116 7.01zM53.266 98.014s22.625-7.17 32.344-9.719c9.719-2.549 17.527 2.23 17.527 2.23s4.778 3.346 5.098.478c.318-2.868 0-4.461-6.213-6.851-6.212-2.39-17.368-.956-24.538.637-7.17 1.593-26.29 7.17-26.29 7.17s-.955 7.489 2.072 6.055zM114.449 108.85l4.143 1.752s1.434.797 5.1-.957c3.664-1.752 24.694-12.268 24.854-14.336.159-2.071 1.115 6.692-.638 7.807-1.754 1.116-23.264 12.904-23.264 12.904s-3.029 2.285-9.562 1.912c-5.572-.321-.633-9.082-.633-9.082zM51.354 97.11s.319 1.806 4.674 2.762l.425-4.355-5.099 1.593z"/><ellipse transform="matrix(.591 .807 -.807 .591 130.968 -36.593)" cx="101.543" cy="110.76" rx="12.347" ry="9.339"/><circle fill="#3A4F64" cx="118.751" cy="115.062" r=".531"/><circle fill="#3A4F64" cx="116.468" cy="114.531" r=".531"/><circle fill="#3A4F64" cx="54.727" cy="96.263" r=".531"/><circle fill="#3A4F64" cx="52.443" cy="95.731" r=".531"/></svg>