<?xml version="1.0" encoding="utf-8"?>
<!-- Generator: Adobe Illustrator 16.0.4, SVG Export Plug-In . SVG Version: 6.00 Build 0)  -->
<!DOCTYPE svg PUBLIC "-//W3C//DTD SVG 1.1//EN" "http://www.w3.org/Graphics/SVG/1.1/DTD/svg11.dtd">
<svg version="1.1" id="Amperbranch" xmlns="http://www.w3.org/2000/svg" xmlns:xlink="http://www.w3.org/1999/xlink" x="0px"
	 y="0px" width="200px" height="210px" viewBox="0 0 200 210" enable-background="new 0 0 200 210" xml:space="preserve">
<rect x="-52.5" y="-36.5" width="301" height="273"/>
<ellipse transform="matrix(0.4587 0.8886 -0.8886 0.4587 126.9647 -5.1031)" fill="#FFFFFF" cx="67.671" cy="101.66" rx="15.668" ry="11.852"/>
<path fill="#FFFFFF" d="M78.191,96.405c3.442,8.428,1.502,17.189-4.333,19.57s-13.356-2.52-16.797-10.946
	c-3.442-8.426-1.502-17.19,4.333-19.571C67.229,83.079,74.75,87.979,78.191,96.405z"/>
<ellipse transform="matrix(0.5905 0.807 -0.807 0.5905 130.9658 -36.5941)" fill="#FFFFFF" cx="101.543" cy="110.758" rx="17.725" ry="13.408"/>
<ellipse transform="matrix(0.4587 0.8886 -0.8886 0.4587 126.9723 -5.0949)" cx="67.668" cy="101.67" rx="10.913" ry="8.256"/>
<path fill="#FFFFFF" d="M78.44,104.546c0,0,4.302-3.027,8.763,3.665l2.708-7.329c0,0-5.417-3.824-12.587-3.346L78.44,104.546z"/>
<path fill="#FFFFFF" d="M53.266,98.014c0,0,22.625-7.17,32.344-9.719c9.719-2.549,17.527,2.23,17.527,2.23s4.778,3.346,5.098,0.478
	c0.318-2.868,0-4.461-6.213-6.851c-6.212-2.39-17.368-0.956-24.538,0.637c-7.17,1.593-26.29,7.17-26.29,7.17
	S50.239,99.448,53.266,98.014z"/>
<path fill="#FFFFFF" d="M114.449,108.85l4.143,1.752c0,0,1.434,0.797,5.1-0.957c3.664-1.752,24.694-12.268,24.854-14.336
	c0.159-2.071,1.115,6.692-0.638,7.807c-1.754,1.116-23.264,12.904-23.264,12.904s-3.029,2.285-9.562,1.912
	C109.51,117.611,114.449,108.85,114.449,108.85z"/>
<path fill="#FFFFFF" d="M51.354,97.11c0,0,0.319,1.806,4.674,2.762s0.425-4.355,0.425-4.355L51.354,97.11z"/>
<g>
	<ellipse transform="matrix(0.5905 0.807 -0.807 0.5905 130.9684 -36.593)" cx="101.543" cy="110.76" rx="12.347" ry="9.339"/>
	<circle fill="#3A4F64" cx="118.751" cy="115.062" r="0.531"/>
	<circle fill="#3A4F64" cx="116.468" cy="114.531" r="0.531"/>
	<circle fill="#3A4F64" cx="54.727" cy="96.263" r="0.531"/>
	<circle fill="#3A4F64" cx="52.443" cy="95.731" r="0.531"/>
</g>
</svg>
