<svg xmlns="http://www.w3.org/2000/svg" width="200" height="210" viewBox="0 0 200 210"><path fill="#D1B846" stroke="#000" stroke-miterlimit="10" d="M-32.5-29.5h277v273h-277v-273z"/><path fill="#fff" d="M151.935 90.027l.086-.519c.035-1.314.455-2.611-.427-3.892-.455-.663-.474-1.638-.737-2.45l-.554-.841-2.479-2.555-.979-.859-5.288-2.491c-.265-.241-.991.023-1.504.081l-1.292.15c-.98-.093-1.948-.392-2.917-.392-1.246.005-2.601-.134-3.656.68-.772.605-1.492 1.078-2.523.98l-.715.508-1.345 1.222c-.421.392-1.037.727-1.221 1.223-.717 2.011-1.863 3.764-2.071 6.089-.288 3.4 1.396 5.488 3.569 7.414 1.88 1.659 4.324 1.683 6.734 1.567l.473-.208 1.937-1.164c1.441-.796 2.266-2.076 2.11-3.633-.081-.783-.836-1.885-1.539-2.115-.917-.294-2.214-.161-3.084.294-.958.508-1.753.266-2.572.058-1.349-.352-1.603-1.079-1.793-2.398-.121-.969-.254-1.719.64-2.329l.012-.489c-.034-.964-.058-1.973.882-2.521.825-.479 1.741-1.009 2.658-1.096 2.49-.219 4.929.023 7.098 1.563 1.631 1.157 3.026 2.468 3.684 4.427.669 2.019 1.152 4.002.611 6.197-.889 3.634-3.771 5.737-6.101 8.246-.829.887-1.972 1.499-3.021 2.161-2.179 1.355-4.439 2.451-6.953 3.074-2.398.593-4.705 1.538-7.241 1.659-1.811.094-3.35 1.234-5.235 1.43-2.26.231-4.456 1.091-6.682 1.661-2.9.743-5.806 1.424-8.688 2.242-2.538.732-5.057 1.574-7.559 2.438-.917.312-1.851.71-2.623 1.258-1.598 1.142-3.102 2.416-4.625 3.654l-1.268 1.327c-1.292 1.557-2.156 3.321-2.975 5.188-.657 1.487-.484 2.825-.496 4.278-.006 1.349-.15 2.641 1.158 3.527-.242 1.143.531 1.868 1.159 2.625.923 1.112 1.73 2.392 3.459 2.334l.75.242c2.397 1.211 4.929 1.292 7.431.57 1.09-.316 2.209-.957 3.016-1.77.588-.57.853-1.608.939-2.479.063-.646-.34-1.372-.628-2.03-.692-1.517-2.779-2.133-4.25-1.395-1.233.616-2.502 1.176-3.799 1.66-1.764.669-3.575-.495-3.892-2.364-.364-2.149.524-3.942 1.551-5.708l.587-.547c4.659-2.773 9.715-4.491 14.991-5.61l.617.168.098.341.663-.278c.969-.322 1.988-.415 2.992-.352 1.719-.985 3.574-1.446 5.569-1.285.524.04 1.188.207 1.558 1.038.529 1.238.928 2.449 1.278 3.759.475 1.787.549 3.437.266 5.2-.61 3.759-2.161 7.184-4.046 10.39-1.119 1.913-2.953 3.47-4.648 4.998-2.64 2.369-5.604 4.376-8.976 5.488-4.318 1.431-8.822 1.961-13.359 1.574-1.972-.149-3.932-.749-5.857-1.269-1.148-.316-2.238-.853-3.361-1.268-2.843-1.049-5.599-2.307-7.79-4.446-1.517-1.47-2.802-3.176-4.162-4.813-2.665-3.193-3.956-6.964-4.561-11.012-.306-2.029-.591-4.059-.781-6.105-.093-1.032-.11-2.139.138-3.13.349-1.361.896-2.699 1.525-3.968 1.452-2.951 3.026-5.846 4.531-8.774.502-.992.743-2.175 1.441-2.987 1.845-2.179 3.712-4.393 5.881-6.237 3.286-2.791 7.259-4.446 11.265-5.997.848-.334 1.591-.115 2.191.542l1.049 1.228c1.257.987 2.19 2.417 3.955 2.699.691.109 1.36.398 2.029.641.772.3 1.54.904 2.306.911 2.999.011 5.951-.174 7.922-3.011.577-.818.577-1.21-.322-1.758-.381-.231-.842-.623-.922-1.004-.208-1.055-1.085-1.493-1.806-1.759-1.735-.651-3.569-1.359-5.379-1.435-2.231-.087-4.116-1.465-6.341-1.331-.243.011-.606-.266-.738-.497-.704-1.297-1.389-2.594-1.984-3.943-.16-.357-.034-.865.07-1.28l.594-.242c.928.612 1.966.738 3.017.877 2.189.3 4.15 1.557 6.445 1.486 1.211-.034 2.507.128 3.632.549 2.513.917 4.97.363 7.438 0 .991-.145 1.96-.894 2.894-.825 1.223.098 2.105-.697 2.595-1.233 1.7-1.845 3.136-3.943 4.531-6.048 1.615-2.456 1.983-5.252 1.776-8.129-.069-.969-.185-1.943-.415-2.883-.415-1.669-.853-3.359-2.11-4.664-1.338-1.381-2.629-2.802-4.035-4.114l-2.676-1.932c-1.032-.818-2.023-1.687-3.466-1.663l-.755-.195c-2.352-.83-4.698-1.689-7.276-1.415-1.239.123-2.502.045-3.719.281-.894.17-1.724.678-2.577 1.063-.923.412-1.885.772-2.733 1.327-2.491 1.625-4.957 3.332-7.414 5.019l-.64.681-1.977 3.183c-1.833 2.954-2.999 6.148-3.593 9.566-.121.67-.432 1.251.213 1.857.168.155.127.726-.034.968l-.876.156-4.283-.265c-2.531-.076-5.108-.363-7.599-.058-2.578.311-5.167.731-7.599 1.856-2.946 1.366-5.85 2.651-7.622 5.627-1.274 2.149-1.629 3.874-.142 5.834.292.381.804.675 1.266.819 2.592.807 4.373-.749 6.002-2.336l2.326-3.233c1.402-1.413 2.904-2.791 4.57-3.863 2.278-1.453 4.78-2.191 7.396-.634l.871.242c1.782-.641 3.569-.531 5.403-.266.524.08.726.172.836.749.144.808.524 1.557.813 2.335l.911 2.398.53.697c.738.381 1.35.935 1.125 1.766-.249.864-.859 1.44-1.897 1.659-1.879.398-3.851.772-5.558 1.615-1.425.708-2.646 1.81-4.22 2.416-1.176.449-2.18 1.377-3.263 2.081-.623.409-1.373.686-1.892 1.193-1.176 1.119-2.225 2.358-3.355 3.512l-1.583 1.354c-.963.93-1.808 1.984-2.857 2.798-1.036.795-1.796 1.717-2.347 2.871-.459.956-.896 1.942-1.505 2.79-1.415 1.982-2.19 4.255-2.891 6.521-.473 1.533-.089 3.292-1.222 4.676l-.043.657-.086 6.492c0 1.106-.023 2.219.1 3.321.2 1.81.502 3.608.756 5.407l-.032.128.732 2.934c.274 1.303 1.595 2.174 1.497 3.627l.176.317 1.7 2.323c.525.853.778 1.908 1.447 2.616 1.049 1.13 2.272 2.145 3.546 3.011 1.812 1.257 3.909 1.995 5.748 3.32 2.768 1.994 6.019 3.17 9.254 4.26.668.219 1.453.121 2.179.174 1.199.086 2.468-.063 3.569.311 1.851.617 3.54.058 5.297-.242 1.153-.189 2.347-.294 3.523-.287l6.324.179 1.817-.364c2.346.398 4.087-1.146 6.083-1.838 1.066-.364 1.88-1.419 2.876-2.065l4.786-2.883c1.453-.887 2.791-2.074 4.341-2.721 1.909-.783 2.41-2.964 4.192-3.771l.092-.248 1.142-1.557.935-1.101 2.768-4.053c1.337-1.921 2.329-3.997 3.188-6.165l.185-2.328c.986-1.903.294-3.984.468-5.979l-.14-.374-1.269-4.295c-.126-.473-.068-.964-.818-.905-.225.012-.64-.393-.675-.64-.034-.255.242-.641.485-.825l.997-.341 8.659-2.484.692-.392c1.303-.854 2.548-1.793 3.902-2.542 2.439-1.355 4.746-2.854 6.683-4.885.854-.899 1.914-1.636 2.605-2.64.946-1.379 1.604-2.952 2.457-4.417.668-1.159 1.787-1.995 1.453-3.725-.29-1.561 1.365-3.261.242-5.044zm-62.96-18.944c1.153-1.228 2.468-2.306 3.701-3.459l.462-.484c1.055-2.272 3.107-2.053 5.12-2.341 1.971-.276 3.817-.15 5.707.219 2.215.433 4.584.554 5.835 2.883.83 1.534 1.482 3.292 1.136 4.93-.235 1.084-1.538 1.972-2.427 2.876-1.233 1.246-2.946 1.372-4.531 1.753l-6.942 1.551-7.397-1.493c-.859-.184-1.723-.443-2.555-.749l-.419-.738c.038-1.984 1.031-3.576 2.31-4.948z"/></svg>