<?xml version="1.0" encoding="utf-8"?>
<!-- Generator: Adobe Illustrator 16.0.4, SVG Export Plug-In . SVG Version: 6.00 Build 0)  -->
<!DOCTYPE svg PUBLIC "-//W3C//DTD SVG 1.1//EN" "http://www.w3.org/Graphics/SVG/1.1/DTD/svg11.dtd">
<svg version="1.1" id="Amperbranch" xmlns="http://www.w3.org/2000/svg" xmlns:xlink="http://www.w3.org/1999/xlink" x="0px"
	 y="0px" width="200px" height="210px" viewBox="0 0 200 210" enable-background="new 0 0 200 210" xml:space="preserve">
<rect x="-47" y="-53" fill="#F36D3D" width="294" height="316"/>
<g>
	<path fill="#FFFFFF" d="M117.955,78.256l-0.174-0.454c-0.584-1.528-1.029-2.771-1.367-3.803c-0.336-1.036-0.707-2.304-1.125-3.871
		l-0.133-0.475l-0.432,0.216c-3.979,1.93-8.893,4.16-11.822,5.48c0.301-2.809,0.93-8.433,1.559-12.942l0.061-0.479l-0.479,0.026
		c-1.609,0.079-2.908,0.122-3.976,0.122h-0.066h-0.06c-1.068,0-2.371-0.043-3.973-0.122l-0.488-0.026l0.068,0.479
		c0.611,4.405,1.212,9.752,1.554,12.942c-2.932-1.318-7.834-3.549-11.822-5.48l-0.436-0.215l-0.127,0.472
		c-0.425,1.582-0.797,2.854-1.132,3.878c-0.328,1.032-0.777,2.271-1.365,3.799l-0.17,0.454l0.477,0.084
		c4.362,0.778,9.642,1.858,12.789,2.521c-2.169,2.388-5.812,6.378-8.863,9.55l-0.339,0.35l0.405,0.264
		c1.374,0.896,2.47,1.639,3.34,2.277c0.868,0.627,1.911,1.437,3.192,2.467l0.376,0.307l0.227-0.43
		c2.095-3.906,4.75-8.596,6.348-11.379c1.599,2.783,4.257,7.472,6.349,11.379l0.229,0.43l0.379-0.307
		c1.271-1.025,2.314-1.833,3.191-2.467c0.877-0.64,1.969-1.386,3.334-2.277l0.408-0.264l-0.342-0.35
		c-3.029-3.157-6.686-7.156-8.857-9.55c3.15-0.662,8.436-1.745,12.783-2.521L117.955,78.256z"/>
	<g>
		<path fill="#FFFFFF" d="M148.668,130.242l-0.172-0.456c-0.582-1.523-1.033-2.768-1.363-3.797
			c-0.336-1.036-0.705-2.305-1.127-3.875l-0.129-0.471l-0.439,0.209c-3.971,1.929-8.881,4.164-11.82,5.479
			c0.307-2.808,0.939-8.431,1.561-12.938l0.068-0.482l-0.492,0.021c-1.604,0.084-2.902,0.123-3.977,0.123h-0.057h-0.062
			c-1.066,0-2.365-0.039-3.971-0.123l-0.486-0.021l0.064,0.482c0.605,4.4,1.211,9.748,1.557,12.938
			c-2.934-1.315-7.84-3.552-11.824-5.479l-0.436-0.209l-0.125,0.471c-0.432,1.582-0.795,2.851-1.133,3.875
			c-0.338,1.029-0.779,2.271-1.363,3.797l-0.172,0.456l0.477,0.088c4.361,0.776,9.643,1.86,12.789,2.517
			c-2.166,2.393-5.812,6.381-8.865,9.553l-0.334,0.351l0.408,0.271c1.371,0.896,2.459,1.636,3.332,2.271
			c0.869,0.628,1.912,1.438,3.191,2.475l0.381,0.303l0.229-0.428c2.09-3.91,4.744-8.599,6.346-11.385
			c1.598,2.786,4.254,7.475,6.348,11.385l0.229,0.428l0.375-0.303c1.277-1.031,2.322-1.84,3.197-2.475
			c0.881-0.643,1.969-1.383,3.332-2.271l0.41-0.271l-0.34-0.351c-3.035-3.154-6.689-7.151-8.857-9.553
			c3.148-0.656,8.438-1.74,12.777-2.517L148.668,130.242z"/>
		<path fill="#FFFFFF" d="M87.237,130.242l-0.173-0.456c-0.586-1.523-1.031-2.768-1.363-3.797c-0.341-1.036-0.712-2.305-1.134-3.875
			l-0.122-0.471l-0.442,0.209c-3.968,1.929-8.885,4.164-11.822,5.479c0.307-2.808,0.934-8.431,1.558-12.938l0.066-0.482
			l-0.482,0.021c-1.605,0.084-2.907,0.123-3.977,0.123h-0.06h-0.062c-1.066,0-2.367-0.039-3.975-0.123l-0.484-0.021l0.067,0.482
			c0.612,4.4,1.21,9.748,1.557,12.938c-2.931-1.315-7.835-3.548-11.824-5.479l-0.439-0.209l-0.124,0.471
			c-0.422,1.582-0.792,2.851-1.132,3.875c-0.333,1.029-0.778,2.271-1.36,3.797l-0.179,0.456l0.481,0.088
			c4.36,0.776,9.638,1.86,12.787,2.517c-2.17,2.393-5.815,6.379-8.864,9.551l-0.335,0.35l0.403,0.271
			c1.375,0.895,2.466,1.635,3.337,2.271c0.87,0.629,1.912,1.438,3.192,2.474l0.38,0.305l0.23-0.428
			c2.089-3.91,4.748-8.597,6.344-11.384c1.597,2.787,4.251,7.474,6.346,11.384l0.232,0.433l0.373-0.31
			c1.273-1.029,2.32-1.838,3.194-2.474c0.875-0.64,1.971-1.381,3.334-2.271l0.407-0.271l-0.335-0.35
			c-3.037-3.155-6.69-7.15-8.865-9.553c3.15-0.656,8.437-1.74,12.783-2.517L87.237,130.242z"/>
	</g>
</g>
</svg>
