<svg xmlns="http://www.w3.org/2000/svg" width="200" height="210" viewBox="0 0 200 210"><path fill="#D1B846" stroke="#000" stroke-miterlimit="10" d="M-32.5-29.5h277v273h-277z"/><g fill="#fff"><path d="M162.497 101.811c-.079-.349-.321-.587-.62-.719-.298-.131-.648-.078-.947.009-.318.093-.617.302-.83.566-.199.25-.351.544-.502.83-.074.141-.13.305-.146.463-.034.356-.04.715-.052 1.073l.021.179c.079.2.062.42.188.619.101.159.246.372.076.595l.019.062c-.028.11-.028.256-.101.325-.256.244-.533.469-.809.689-.197.162-.229.152-.415-.021-.104-.098-.196-.228-.321-.287-.67-.317-1.357-.533-2.106-.286l-.091.005c-.354-.064-.608.238-.939.256-.473.409-.92.841-1.255 1.375l-.026.172-.008.154c-.119.203-.154.408-.148.648.011.393-.129.793.148 1.153.111.146.028.233-.125.279-.297.086-.587.215-.89.255-.394.052-.798.037-1.13-.245l-.096-.138-.057-.629c-.027-.269.123-.481.232-.699.148-.294.31-.592.521-.84.27-.316.555-.618.926-.844.408-.248.603-.701.838-1.102.084-.141.123-.306.192-.457.261-.571.261-1.152 0-1.711-.133-.285-.31-.559-.599-.746-.288-.189-.289-.386-.098-.662.187-.268.398-.539.5-.842.116-.352.275-.694.297-1.084.019-.348-.065-.613-.338-.818-.235-.177-.496-.3-.793-.183-.158.064-.304.176-.441.282-.262.2-.444.463-.586.757l-.037.105c.058.22-.006.413-.11.604l.002.159.04.167c.008.229-.021.462.021.684.025.15-.004.239-.103.336l-.519.537c-.131.13-.249.314-.408.365-.284.089-.523.258-.793.366-.271.107-.299.097-.275-.169.023-.257.055-.517.121-.766.049-.185.129-.353-.008-.533l-.02-.13c.019-.346-.012-.681-.217-.977l-.026-.061c.028-.234-.148-.38-.24-.562-.036-.072-.073-.177-.134-.197-.288-.098-.581-.194-.881-.247-.209-.036-.437-.024-.647.009-.261.041-.578.004-.685.358l-.06.066c-.192.122-.348.275-.483.459-.166.224-.424.313-.668.438-.418.215-.789.525-1.18.795l-.043.053c-.164.213-.305.451-.498.633-.289.272-.371.66-.607.963-.2.257-.301.578-.393.894-.1.345-.229.682-.311 1.032-.085.358-.1.735-.197 1.09-.066.245-.066.464 0 .699.023.077.016.168 0 .249-.01.054-.039.125-.082.15-.16.098-.322.201-.499.262-.312.105-.629.199-.948.273-.567.127-.672-.104-.678-.55-.003-.387.118-.782.229-1.159.076-.254.242-.479.353-.726l.159-.477c.049-.144.105-.28.184-.417.217-.382.354-.809.543-1.208.129-.27.289-.526.444-.781.22-.358.448-.71.674-1.064.246-.386.487-.775.738-1.158l.576-.846c.14-.216.271-.437.396-.663.127-.23.26-.421.551-.208h.043c.277 0 .564.047.83-.008.41-.085.791.058 1.186.074.54.022 1.074.162 1.617.202.361.026.709.084 1.062.155.168.034.362-.005.535-.049.147-.036.151-.112.021-.191-.219-.133-.472-.176-.715-.231-.246-.055-.492-.083-.73-.202-.137-.067-.292-.159-.46-.17-.407-.025-.802-.096-1.183-.26-.197-.084-.434-.096-.652-.11-.403-.027-.764-.264-1.184-.219-.156.017-.199-.083-.111-.224l.508-.779.087-.157.216-.445c.066-.143.182-.284.188-.431.012-.21.106-.37.218-.513.251-.321.47-.644.463-1.071l-.021-.12-.219-.314-.14-.094c-.284-.042-.572-.056-.853-.114-.156-.033-.248.034-.336.124-.146.152-.304.3-.414.476-.363.581-.709 1.174-1.062 1.763l-.206.379c-.124.242-.26.48-.365.731-.078.19-.253.402-.378.366-.394-.115-.805-.069-1.204-.191-.382-.117-.806-.079-1.188-.242l-.129.021-.123.022c-.271-.06-.541-.142-.825-.075l-.134-.014-.705-.137c-.118-.021-.254.008-.352-.042-.172-.089-.33-.112-.527-.113-.375 0-.754-.081-1.131-.135l-.205-.073-1.079-.042c-.38-.027-.759-.078-1.14-.117l-.152.007-1.092.225-.11-.013c-.117.033-.285.041-.334.121-.093.146-.134.335-.156.51-.014.093.038.208.089.297l.208.242c.062.17.204.244.335.258.471.052.942.074 1.415.101l1.905.092c.495.026.992.053 1.486.091l.604.091c.463.025.926.03 1.389.046l.969.042.154.029c.199.068.398.102.614.079.245-.025.494-.013.743-.011.132 0 .186.054.105.187l-.26.465-.299.557-.413.73-.011.02c-.234.479-.426.982-.777 1.397-.106.128-.207.271-.277.421l-.569 1.285c-.156.339-.388.637-.494 1.003-.083.28-.217.545-.337.812-.07.16-.127.338-.243.457-.391.396-.795.781-1.215 1.146-.202.176-.444.312-.687.435-.236.121-.422-.012-.41-.281.008-.17.053-.34.087-.508.058-.264.116-.525.188-.787.057-.225.133-.443.203-.667l.042-.106.349-.876c.107-.265.211-.534.339-.79.149-.304.315-.6.491-.89.151-.25.287-.534.504-.716.226-.191.447-.368.609-.621.152-.237.163-.737-.031-.936-.142-.144-.308-.269-.479-.375-.126-.079-.285-.205-.418.01l-.042.016c-.199.008-.271.157-.355.305l-.25.348c-.078.113-.134.095-.197-.016-.168-.294-.422-.512-.684-.714l-.385-.204c-.152-.129-.348-.117-.509-.13-.378-.031-.765 0-1.144.036-.207.02-.427.068-.606.165-.283.153-.528.373-.806.538-.429.252-.799.571-1.135.931l-.091.124c-.312.082-.409.356-.545.597l-.185.35-.055.24c-.064.111-.131.201-.101.352.024.117-.026.253-.058.377l-.269 1.023.021.243.01.258c-.145.468.062.891.187 1.315.05.164.035.232-.098.305-.595.312-1.208.559-1.896.564-.277.004-.438-.13-.433-.404.011-.533.199-1.027.378-1.518.114-.315.262-.619.409-.919.185-.371.385-.733.579-1.1.121-.228.316-.447.34-.684.029-.311.199-.583.145-.928-.051-.31.064-.629-.09-.962-.098-.211-.137-.429-.373-.535l-.08-.08c-.287-.27-.584-.517-.979-.632-.341-.098-.324-.119-.334-.476-.009-.279.01-.544.172-.784l.003-.164c0-.152-.045-.324.012-.453.055-.125.061-.224.019-.337-.068-.181-.052-.404-.259-.523-.041-.024-.062-.104-.07-.16-.043-.283-.18-.442-.484-.474-.449-.046-1.084.106-1.353.558-.115.194-.156.384-.183.608-.037.324-.078.636-.062.968.012.273.162.463.271.663.109.205.256.331.194.62l-.239 1.542c-.062.306-.318.542-.285.883.01.095-.11.195-.141.303-.096.33-.162.667-.354.964l-.051.126-.457.901c-.09.176-.272.3-.283.526-.004.068-.06.14-.105.199-.289.369-.574.739-.878 1.096-.124.146-.278.332-.44.359-.162.025-.322.09-.489.088l-.123-.062c-.089-.389-.138-.786-.07-1.177.077-.45.199-.894.308-1.339l.16-.607.148-.374c.117-.451.197-.913.337-1.355.106-.339.282-.656.431-.982l.293-.63c.088-.183.082-.357-.024-.531l-.052-.125c-.002-.126-.029-.21-.176-.236l-.308-.119c-.394-.059-.696.134-.927.412-.135.163-.236.392-.252.599-.008.124-.025.216-.082.323-.067.131-.108.276-.158.417l-.337.966c-.046.127-.107.252-.126.384-.038.25-.034.501-.156.738-.143.273-.18.592-.365.85l-.013.154-.022.2c-.199.404-.383.822-.625 1.202-.238.375-.533.714-.816 1.059-.129.155-.389.185-.542.08-.134-.093-.265-.195-.38-.31-.057-.055-.106-.137-.119-.211-.031-.219-.061-.438-.061-.658.004-.379.002-.764.058-1.138.062-.423.173-.841.286-1.254l.271-.756c.059-.216.162-.394.286-.579.14-.211.208-.468.317-.7.09-.19.179-.385.299-.554.217-.304.055-.607.031-.911l-.062-.062c-.292-.219-.946-.203-1.204.053-.158.155-.365.255-.434.512-.057.208-.234.38-.256.615l-.043.127c-.147.169-.192.369-.236.584-.083.386-.201.763-.309 1.144l-.086.208-.108.273c-.068.347-.13.695-.19 1.043l-.089.579-.075.414.029.378c.014.232-.012.465.112.686.09.157.136.34.198.51.09.255.213.481.47.606.171.087.375.136.514.259.188.166.422.116.597.112.256-.007.506-.183.758-.282.322-.127.541-.373.744-.637l.52-.681.029.118c-.023.621.182 1.129.67 1.537.209.174.455.168.666.181.215.013.445-.151.658-.263.188-.102.365-.229.535-.357.16-.124.307-.264.457-.396.207-.186.439-.348.608-.56.302-.38.567-.788.842-1.188.091-.13.185-.265.235-.412.195-.583.551-1.075.859-1.597l-.121-.081.002-.044c.299.005.299-.255.338-.417.078-.34.291-.596.459-.88.106-.178.222-.355.295-.548.086-.222.13-.458.189-.69.043-.166.154-.167.284-.126l.14.068c.312.062.518.29.53.601.015.301-.034.586-.178.857l-.528 1.057c-.172.323-.376.628-.537.957-.156.323-.272.666-.412.997l-.526 1.22-.017.063c.026.337-.096.677.017 1.013l-.011.133c-.021.105-.07.209.095.263.053.019.103.116.116.187.078.383.346.59.666.741.092.044.203.042.307.06.292.047.585.136.876.129.448-.01.86-.203 1.222-.455.346-.24.649-.543.969-.821.068-.06.125-.091.216-.024.178.133.364.256.551.377l.151.027.176.021c.232.092.455.205.723.141.068-.018.155.042.234.066l.189.056c.396 0 .742-.155 1.074-.353l.129-.059.055.162.033.625.088.128c.238.255.532.435.869.497.249.046.497.077.773-.018.287-.096.544-.202.787-.389.318-.24.654-.455.854-.82l.145-.229.158-.104.072.176-.016.375c.009.271.018.553.223.764.197.203.335.477.633.574.096.031.2.062.28.122.203.151.44.155.671.181.549.059 1.01-.187 1.449-.471l.544-.404c.054-.035.19-.05.205-.025.134.229.319.392.524.556.313.251.652.408 1.051.444h.365c.389.002.783.055 1.137-.178l1.154-.757c.125-.082.261-.157.361-.263.148-.157.272-.337.403-.51.085-.113.144-.248.241-.346.354-.354.552-.803.771-1.23.088-.174.014-.415.176-.593l.105-.286.34-.546.018-.062c-.037-.143.062-.159.162-.187.52-.141 1.039-.276 1.553-.437.154-.049.287-.172.424-.271l.347-.29.211-.188.197-.133.106.162.063.14c.062.158.174.319.168.474-.01.204-.087.418-.185.601-.147.275-.332.53-.514.786l-.306.332c-.087.104-.171.201-.281.292-.243.194-.442.442-.671.659-.389.375-.492.893-.634 1.371-.095.315-.029.685-.021 1.027.004.143.032.284.071.42.022.084.082.158.132.231l.09.088c.151.442.479.714.883.897.135.062.285.094.432.109.109.014.251-.173.318.062.191.021.389.074.576.057.256-.023.508-.098.76-.161l.295-.136c.121-.049.258-.143.365-.12.123.026.223.16.332.249l.686.552.089.009c.158.067.349.105.463.219.169.173.39.197.563.174.308-.043.559.107.838.136.215.021.433.035.648.028.287-.012.588.074.863-.079.354.114.592-.127.822-.31.255-.203.453-.475.762-.621.069-.031.127-.107.172-.176.107-.166.221-.332.299-.51.192-.439.371-.883.549-1.328l.025-.24.047-.703.057-.325c.016-.2.027-.403.016-.604-.016-.229.033-.471-.111-.683-.162-.242-.106-.524-.123-.793-.006-.083.037-.179.082-.254l.463-.719c.117-.184.197-.41.356-.545.271-.232.386-.552.562-.839l.117-.286c.12-.307.018-.607-.049-.909zm-25.942-.006c-.068.168-.012.388-.003.584.013.266-.058.5-.218.72-.111.156-.184.342-.27.516l-.358.704-.539.99c-.081.159-.131.333-.196.501-.223.565-.463.56-.914.513-.197-.019-.406-.052-.58-.14-.154-.078-.289-.226-.386-.373-.14-.219-.3-.439-.243-.737-.068-.462-.027-.938.096-1.386.127-.467.299-.934.625-1.317.123-.146.199-.344.416-.39l.021-.014c.095-.336.408-.47.642-.676.221-.193.473-.323.776-.335.265-.01.521-.033.78.047.177.053.29.153.32.313.028.154.105.293.031.48zm12.004 2.832l-.231.577c-.177.386-.354.772-.546 1.149-.129.246-.239.529-.438.703l-.573.582c-.094.084-.166.211-.275.252-.253.099-.521.156-.71.209-.407-.061-.729-.072-1.011-.269-.145-.102-.234-.219-.256-.403-.029-.273-.068-.549-.14-.813-.081-.295-.015-.567.056-.845.082-.318.159-.641.269-.951.065-.189.178-.365.286-.535.242-.385.482-.775.754-1.142.158-.216.371-.394.566-.582.077-.076.151-.082.195.054.109.336.309.625.507.914.123.176.255.345.39.512l.135.066c.322.021.627.114.925.238.138.058.168.139.097.284zm.032-1.055c-.165-.046-.327-.117-.481-.191l-.063-.134-.166-.471c-.045-.111.031-.521.123-.597l.104-.032c.265-.015.699.369.672.622l.003.65c.003.148-.09.182-.192.153zm6.789 5.219l-.073-.311c.037-.543.178-1.001.479-1.385.213-.271.534-.455.87-.439.285.016.615.012.861.218.11.093.195.229.262.362.021.045-.031.168-.086.202-.414.269-.836.524-1.256.784l-.649.412-.019.015-.389.142zm4.708-.929c-.043.37-.206.687-.37 1.017l-.231.604c-.146.302-.286.602-.637.729-.084.031-.158.11-.219.184-.219.272-.55.307-.842.322-.223.015-.51.043-.699-.179l-.072-.049c-.334.03-.479-.265-.692-.425-.109-.082-.134-.105-.214-.006l-.055.031-.244-.514c-.051-.107-.047-.197.084-.263.494-.244.94-.562 1.392-.875l.267-.091-.078.221c-.164.152-.045.298.043.39.074.079.178.179.349.132.503-.133.771-.408.842-.937.026-.21.011-.427.06-.629.031-.134.14-.255.229-.37l.315-.354c.09-.115.416-.27.541-.23l.068.1c.01.135.03.273.004.404-.035.171-.013.316.098.445.086.107.077.218.061.343zm1.654-5.062l-.344.625-.127.273-.26.351-.08-.062c.127-.353.234-.713.391-1.053.055-.119.214-.21.344-.267.105-.045.124.047.076.133zM85.295 103.435c-.102-.203-.291-.378-.206-.646l-.066-.164c-.087-.168-.197-.327-.26-.504-.107-.299-.195-.601-.429-.839-.048-.05-.076-.164-.055-.229.097-.3.211-.594.327-.888.094-.243.248-.475.287-.727.056-.354.015-.72-.143-1.056l-.111-.14c-.169-.092-.338-.193-.521-.248-.459-.137-.864.02-1.239.283l-.023.078c-.036.211-.026.435-.199.604l-.031.149c-.007.248-.024.495-.013.742.006.123.062.245.104.365l.297.807c.076.219.04.473.229.657.04.039.049.15.024.208-.088.202-.186.399-.3.586-.07.115-.167.168-.29.02-.052-.063-.172-.082-.265-.097l-.431-.044c-.441-.062-.879-.008-1.229.254-.427.319-.896.614-1.091 1.167-.106.303-.213.619-.391.881-.204.3.027.669-.212.944l.014.041c.023.327.052.654.066.981l-.055.262c-.008.068-.014.147.013.209l.219.408c.089.202.044.252-.136.387-.37.277-.829.267-1.239.412l-.223.043c-.191.017-.292-.049-.319-.235l-.047-.631c-.05-.504.138-.959.305-1.412.085-.231.225-.441.331-.668l.311-.702.102-.177c.166-.375.319-.757.497-1.126.128-.265.229-.526.199-.826l-.058-.745c-.017-.204-.271-.495-.467-.517-.333-.036-.651-.184-1.001-.096-.131.033-.239-.036-.198-.212l.17-.814c.04-.202.088-.404.102-.609.009-.147-.028-.299-.059-.446-.057-.281-.163-.533-.443-.668-.136-.065-.276-.123-.402-.202-.165-.104-.354-.115-.487.031-.167.184-.375.369-.443.592-.06.198-.042.421-.173.608l.027.084-.004.179c-.201.684.111 1.229.499 1.733.107.139.083.195.004.298l-.436.58c-.288.399-.637.742-.998 1.072-.132.121-.221.074-.224-.108-.006-.381-.042-.767.129-1.13l-.001-.061c-.201-.014-.046-.135-.064-.204l-.101-.318c-.036-.09-.125-.173-.125-.26-.002-.356-.289-.566-.436-.845-.086-.163-.324-.251-.5-.363l-.322-.166c-.306-.253-.623-.409-1.048-.378-.371.026-.628.219-.905.415-.25.178-.319.478-.426.721-.14.323-.372.563-.572.823-.261.339-.484.698-.644 1.081-.163.39-.229.82-.333 1.235-.069.276-.141.553-.192.833-.054.295-.088.595-.126.894-.051.412-.098.827-.142 1.242l.027.146c.153.174.105.378.105.576 0 .082 0 .178.037.244.152.268.316.527.479.789.085.135.024.204-.097.268-.091.048-.181.104-.255.176-.093.089-.15.227-.254.295-.287.193-.587.369-.887.542-.185.108-.429.062-.493-.117-.079-.223-.141-.459-.159-.692-.019-.254.016-.512.037-.769.029-.344.041-.692.11-1.03.126-.621.287-1.235.438-1.85l.458-1.814.21-.901.339-1.245.107-.395c.147-.394.335-.772.394-1.198.01-.075.099-.165.174-.2.111-.053.243-.064.365-.093l1.159-.274c.263-.064.521-.165.788-.193.596-.063 1.18-.172 1.742-.371.534-.19 1.077-.326 1.632-.427.421-.077.853-.132 1.252-.275.355-.127.717-.187 1.082-.229.251-.029.406-.187.558-.347.065-.07.064-.205.092-.31-.099-.019-.203-.067-.294-.051l-.905.195c-.409.076-.821.135-1.232.201-.318.051-.639.088-.954.157-.301.065-.59.187-.892.241l-2.294.374c-.526.092-1.047.213-1.571.315l-.312.014.099-.281.047-.196.472-1.598.118-.434c.051-.174.157-.348.148-.517-.014-.287-.097-.57-.157-.854l-.087-.07c-.203-.153-.428-.14-.669-.129-.183.009-.326.043-.438.184-.102.127-.226.245-.299.386-.118.228-.054.533-.296.712l-.011.043c.052.215-.015.396-.148.565l-.033.153c-.082.374-.128.759-.258 1.115-.106.295-.159.593-.202.896-.032.224-.147.347-.375.378-.335.047-.673.092-1.006.157l-1.917.393-1.928.35c-.533.099-1.067.2-1.597.312-.117.024-.263.068-.327.155-.192.26-.187.568-.126.875l.041.151c-.026.27.209.336.354.476.135.128.279.014.417.031.342.044.648-.11.967-.188.333-.081.657-.223.995-.26.561-.062 1.093-.22 1.627-.374l.713-.275c.383-.114.773-.205 1.163-.299l.332-.037c-.026.105-.035.219-.083.313-.127.259-.236.51-.229.815.004.179-.128.36-.198.541l-.056.161c.014.339-.143.634-.229.948-.096.35-.309.672-.259 1.06.008.06-.024.135-.06.189-.136.208-.203.428-.196.681.004.164-.014.336-.059.494-.106.377-.211.751-.161 1.149l.008.157c-.106.294-.105.593-.121.902-.033.608-.236 1.178-.707 1.608-.201.185-.402.369-.615.539-.146.117-.282.072-.305-.092-.031-.223-.066-.449-.048-.673.019-.235.107-.466.145-.703l-.001-.401.203-.994c.105-.57.407-1.103.348-1.708l.012-.043c.123-.472.258-.941.36-1.418.078-.361.172-.714.303-1.057.065-.169.022-.281-.145-.365l-.262-.138c-.201-.161-.46-.183-.632-.003-.126.132-.228.296-.313.459-.066.129-.109.19-.272.12-.229-.098-.476-.155-.715-.228l-.089-.005c-.192.044-.382.123-.576.132-.425.022-.791.22-1.128.425-.311.188-.545.501-.81.762l-.042.103-.121.263c-.151.204-.333.386-.468.597-.161.25-.337.498-.358.816-.029.428-.389.777-.296 1.236l-.034.084c-.055.178-.168.348-.057.547l.002.156.043.77.078.24c-.075.271-.151.549-.277.799-.132.26-.314.496-.491.729-.152.198-.301.416-.498.563-.369.273-.758.529-1.166.744-.262.137-.568.244-.859.254-.368.015-.632-.245-.846-.537-.232-.317-.212-.691-.24-1.051-.032-.407.093-.558.501-.688l.183-.077c.285-.231.557-.483.85-.706.136-.103.336-.126.457-.24.384-.364.857-.629 1.165-1.078.149-.217.367-.394.487-.621.255-.49.517-.979.636-1.534.096-.438-.087-.949-.487-1.138-.34-.161-.696-.274-1.081-.25-.532.035-1.067.058-1.542.346-.128.078-.257.162-.397.207-.187.06-.301.19-.418.331l-.222.217-.253.298-.081.104c-.328.213-.415.588-.51.904-.097.319-.24.629-.303.963l-.258 1.021c-.04.194-.028.401-.035.603l-.003.348-.105.547c-.029.281-.038.564-.048.847-.008.247.039.479.178.688.099.145.063.266-.033.395-.355.477-.848.764-1.372 1.01-.11.051-.2.051-.272-.064-.06-.098-.155-.178-.19-.28-.096-.284-.251-.562-.129-.881l.1-.358.109-.49c.216-.502.446-1.008.864-1.394.059-.054.125-.175.103-.229-.034-.082-.009-.084.043-.129.273-.228.456-.518.559-.858l.225-.748c.036-.13.119-.286.077-.39-.1-.242-.213-.52-.407-.676-.259-.207-.485-.404-.538-.74-.023-.14-.032-.296.003-.432l.218-.542c.08-.291.128-.589.189-.883.024-.117.09-.246.063-.349-.072-.268-.181-.527-.285-.786-.067-.169-.236-.254-.422-.223-.134.022-.272.042-.397.092-.134.053-.289.113-.375.219-.288.358-.512.757-.627 1.209-.117.456-.148.907.052 1.354.046.104.109.242.076.33-.124.325-.266.646-.439.946-.183.318-.386.631-.624.91-.296.351-.601.707-.965.979-.42.31-.908.529-1.365.791l-.083.092.071.104.169.054c.295-.082.602-.145.876-.272.353-.166.687-.379 1.016-.593.202-.129.385-.291.57-.443.232-.191.474-.38.684-.596.289-.299.552-.62.827-.932l.061-.039c.088.123.145.238.072.398l-.212.57-.591 1.219c-.213.458-.426.918-.613 1.388-.116.292-.218.599-.267.907-.064.412-.093.82.039 1.25.134.436.474.705.674 1.076l.078.048c.377.123.734.379 1.162.159.273-.143.593-.225.815-.42.258-.229.571-.424.713-.772.044-.11.158-.173.267-.039.07.089.12.205.209.263.268.17.546.328.83.473.29.146.615.15.931.16.191.006.386-.049.575-.094.196-.049.393-.106.578-.188.162-.068.324-.158.458-.271.138-.114.24-.272.364-.404.321-.348.626-.708.875-1.109.086-.14.146-.297.205-.449l.116-.383.155-.148.117.15c.13.191.25.391.538.344l.187.051c.46.22.915.404 1.455.289.421-.092.79-.235 1.069-.571l.113-.11.136.018.335.396c.057.058.154.101.235.107.438.041.82-.142 1.195-.331l.128-.152.112-.138.567-.695.163-.175.15.193c.085.193.133.408.32.543l.287.203c.262.223.548.307.899.269l.457-.115c.309-.006.541-.143.763-.329l.483-.378.552-.538c.035-.033.132-.049.172-.021l.579.379c.144.083.314.188.463.177.377-.03.756-.093 1.122-.192.215-.059.457-.095.615-.304.205-.271.434-.522.652-.784l.064-.092c.192-.373.389-.744.571-1.124.095-.194.232-.405.229-.606-.007-.437.286-.812.204-1.25l.004-.022c.129-.273.169-.562.183-.862.01-.213.105-.381.33-.469.243-.094.476-.217.705-.34.088-.047.163-.125.229-.201.213-.245.408-.506.635-.737.138-.14.24-.282.29-.472.106-.4.292-.487.67-.325l.123.06c.11.046.143.123.104.236-.107.314-.204.632-.319.942-.078.21-.175.415-.275.616-.112.225-.235.445-.357.666l-.369.645-.081.259c-.092.325-.15.663-.282.973-.139.325-.101.632-.037.951.033.169.092.339.09.51-.007.592.358.992.699 1.408l.021.009c.331.133.684.205 1.027.136.308-.062.602-.207.893-.338.184-.082.367-.186.518-.316.169-.146.302-.334.45-.506.075-.086.149-.117.251-.031.137.117.274.24.428.33.209.125.426.289.655.315.518.063 1.041.162 1.568.062l.112-.019c.762.005 1.371-.295 1.843-.896l.505-.508c.13-.153.243-.324.332-.504.075-.15.106-.324.157-.484l.074-.258.089-1.042c.065-.635.022-1.238-.263-1.806zm-30.267 5.465l.126-.545c.095-.354.167-.72.308-1.056.125-.302.356-.561.49-.86.163-.364.426-.646.705-.899.192-.175.444-.308.733-.298l.173-.024c.126-.052.191.01.25.108l.205.302c.086.118.078.341.005.472l-.137.353c-.271.604-.684 1.096-1.183 1.53-.469.41-.988.74-1.511 1.072l-.181.053.017-.208zm8.498-4.253c-.076.438-.173.873-.276 1.303l-.194.575c-.054.22-.076.445-.118.668-.024.125-.047.254-.095.369-.136.336-.138.687-.137 1.037l-.003.113c-.154.344-.266.707-.544.982-.259.261-.595.298-.923.312-.263.014-.396-.234-.518-.42-.153-.229-.25-.49-.263-.785-.008-.216-.103-.429-.157-.643l-.02-.143.097-.598c.077-.523.33-.995.469-1.494.173-.613.546-1.072.948-1.504.201-.216.462-.435.799-.509.235-.052.493-.026.624.099.155.156.358.368.311.638zm10.226.014c-.111.327-.235.65-.329.983-.107.383-.167.781-.289 1.157-.162.505-.448.941-.825 1.317-.141.139-.277.283-.429.408l-.267.146c-.276-.031-.492-.074-.64-.264l-.421-.575-.123-.127-.031-.071c-.006-.109.032-.242-.017-.32-.175-.283-.114-.571-.067-.862l.218-1.366c.074-.486.2-.958.401-1.406.079-.179.117-.179.243-.035.381.439.844.687 1.444.676.326-.006.653.048.981.074.17.015.211.087.151.265zm.264-2.03c-.032.302-.168.584-.146.901.011.18-.15.291-.334.286-.291-.008-.581-.003-.87-.03-.11-.01-.234-.071-.319-.145-.359-.311-.493-.712-.452-1.181.007-.078.044-.151.098-.213.021-.323.154-.643.41-.921.094-.102.22-.164.352-.19l-.047-.055.065-.055c.187.037.414-.168.566.109.04.072.161.111.252.138.231.068.306.22.266.493.035.138.052.334.133.498.067.132.039.246.026.365zm10.029-3.679l.166-.133.108.159c.107.209.103.414-.008.626l-.185.457-.121.011-.133-.627.173-.493zm-3.489 7.403l-.225.185-.094-.285c-.158-.448.019-.862.153-1.271.06-.183.211-.341.337-.497.114-.141.253-.26.379-.392.134-.141.276-.261.491-.239l.335.054c.1.022.141.08.076.18l-.365.566-.137.151c-.16.106-.227.247-.287.434-.077.236-.256.44-.39.659l-.189.324-.084.131zm3.596-.653c-.052.088-.121.155-.043.264l-.024.124c-.159.264-.297.545-.491.781-.166.199-.396.346-.597.518l-.201.176-.514.252-.018-.075c-.436.169-.787-.122-1.177-.197-.105-.021-.204-.127-.285-.215-.209-.222-.204-.228.001-.438l.042-.054c.261-.729.808-1.295 1.135-1.984l.057-.098.184-.156.08.221c.033.247.17.436.408.491.164.038.313.026.435-.149.232-.331.281-.682.221-1.066l-.056-.496-.084-.314c-.045-.121-.07-.216.035-.332.11-.122.183-.277.278-.414.112-.162.167-.166.236.014.105.274.184.561.276.84l.063.139.066.116c-.062.229.1.385.168.571l.019.181c.002.161-.035.333.007.481.088.324-.072.567-.221.819zM105.979 97.906l.014-.088c.006-.222.078-.442-.072-.659-.077-.112-.08-.277-.125-.415l-.094-.142-.42-.433-.166-.145-.895-.423c-.045-.041-.168.005-.255.014l-.219.026c-.166-.016-.33-.067-.494-.067-.211.001-.44-.022-.619.116-.131.102-.253.182-.428.166l-.121.086-.228.206c-.071.067-.176.124-.207.208-.121.34-.315.637-.35 1.03-.049.577.236.931.605 1.256.318.282.732.286 1.14.266l.08-.035.328-.197c.244-.135.384-.352.358-.616-.014-.132-.142-.319-.261-.358-.155-.05-.375-.027-.522.05-.163.086-.297.045-.436.009-.229-.059-.271-.182-.304-.406-.021-.164-.043-.291.108-.394l.002-.083c-.006-.163-.01-.334.15-.427.139-.081.295-.171.45-.185.422-.037.835.003 1.202.264.277.197.513.418.624.75.114.342.196.678.104 1.05-.15.615-.639.972-1.033 1.396-.141.151-.334.255-.512.367-.369.229-.752.415-1.178.52-.406.101-.797.261-1.227.282-.306.015-.567.209-.886.242-.383.039-.755.184-1.132.281-.491.126-.984.241-1.471.38-.431.124-.857.267-1.281.413-.155.053-.313.12-.444.213-.271.193-.526.409-.784.619l-.215.224c-.218.264-.365.563-.504.879-.111.253-.081.479-.083.725-.001.229-.025.448.196.598-.041.193.09.316.196.444.156.188.293.405.586.396l.127.041c.406.205.835.219 1.259.096.185-.053.374-.162.511-.299.099-.097.144-.273.159-.42.011-.11-.057-.233-.107-.344-.117-.257-.47-.362-.719-.237-.209.105-.424.2-.644.282-.298.113-.605-.084-.659-.4-.061-.365.089-.668.263-.967l.1-.093c.789-.47 1.645-.761 2.538-.951l.105.029.016.057.113-.046c.164-.055.336-.071.507-.06.29-.167.605-.245.943-.218.089.007.201.035.263.176.09.21.158.415.217.637.08.302.093.582.045.881-.103.636-.366 1.216-.685 1.759-.19.324-.5.588-.787.847-.447.401-.949.741-1.521.93-.731.242-1.494.332-2.262.267-.334-.026-.666-.127-.992-.215-.195-.054-.379-.145-.57-.215-.481-.178-.948-.391-1.319-.753-.257-.249-.475-.538-.706-.815-.451-.541-.669-1.18-.772-1.866-.051-.344-.1-.688-.132-1.034-.016-.175-.019-.362.023-.53.059-.231.152-.458.258-.672.247-.5.513-.99.768-1.487.085-.167.126-.368.244-.505.313-.369.629-.745.996-1.057.557-.473 1.23-.753 1.908-1.016.144-.056.27-.019.372.092l.178.208c.212.167.371.409.669.457.117.019.231.067.344.109.131.05.261.153.39.154.508.002 1.009-.029 1.343-.51.097-.139.097-.205-.055-.298-.064-.039-.143-.105-.156-.17-.036-.178-.184-.252-.306-.298-.294-.11-.604-.23-.912-.243-.377-.015-.697-.248-1.074-.226-.041.003-.102-.044-.124-.084-.119-.219-.236-.439-.337-.667-.027-.061-.005-.147.012-.217l.101-.041c.157.103.333.125.511.149.37.05.702.263 1.091.251.206-.006.425.022.616.093.425.156.842.062 1.26 0 .167-.025.331-.152.489-.14.208.017.357-.118.44-.208.288-.313.531-.669.767-1.025.274-.416.336-.889.301-1.377-.012-.164-.031-.329-.07-.488-.07-.283-.144-.569-.357-.79-.227-.234-.446-.475-.684-.697l-.453-.327c-.175-.139-.343-.286-.587-.282l-.128-.033c-.399-.141-.796-.286-1.233-.24-.209.021-.423.008-.629.048-.151.029-.292.115-.436.18-.157.07-.32.131-.463.225-.423.275-.84.564-1.257.85l-.108.115-.335.539c-.31.5-.507 1.042-.608 1.621-.021.113-.073.212.036.314.028.026.021.123-.006.164l-.148.027-.726-.045c-.429-.013-.865-.062-1.287-.01-.436.053-.875.124-1.287.315-.499.231-.991.448-1.291.952-.216.365-.276.657-.024.989.049.064.136.114.214.139.439.136.741-.128 1.017-.396l.394-.548c.237-.239.492-.473.774-.654.386-.246.81-.371 1.253-.107l.147.041c.302-.109.605-.09.915-.045.089.013.124.029.142.127.024.136.089.263.138.395l.154.406.089.118c.125.065.229.159.191.299-.042.146-.145.244-.321.281-.319.068-.652.131-.941.274-.242.12-.449.307-.715.409-.2.076-.369.234-.553.353-.106.069-.232.116-.321.202-.198.189-.376.399-.568.595l-.268.229c-.163.157-.306.336-.484.474-.175.135-.304.291-.397.486-.078.162-.152.329-.255.473-.24.336-.371.72-.49 1.104-.08.26-.015.558-.207.792l-.007.112-.015 1.099c0 .188-.004.376.017.562.034.307.085.612.128.917l-.005.021.124.497c.046.221.27.368.253.614l.03.054.288.394c.089.144.132.323.245.443.178.191.385.363.601.51.307.213.662.338.973.562.469.338 1.02.537 1.568.722.113.037.246.021.369.029.203.015.418-.011.604.053.314.104.6.01.898-.041.195-.032.397-.05.596-.049l1.072.03.307-.061c.398.067.693-.195 1.031-.311.181-.062.318-.241.487-.35l.811-.488c.246-.151.472-.352.735-.461.323-.133.408-.502.71-.639l.016-.042.193-.264.158-.187.469-.686c.227-.325.395-.676.54-1.044l.031-.395c.167-.322.05-.674.079-1.012l-.023-.064-.215-.727c-.021-.08-.012-.163-.139-.153-.038.002-.108-.067-.114-.109-.006-.043.041-.108.082-.139l.169-.058 1.467-.421.117-.066c.221-.145.432-.304.661-.431.413-.229.804-.483 1.132-.827.145-.152.324-.277.442-.448.159-.233.271-.5.415-.747.113-.197.303-.338.246-.631-.048-.266.232-.554.042-.856zm-10.664-3.209c.195-.208.417-.391.627-.586l.078-.082c.178-.384.526-.348.867-.396.333-.047.646-.025.966.037.375.073.777.094.989.488.14.26.251.558.192.835-.04.184-.26.334-.411.487-.209.211-.499.233-.767.298l-1.176.262-1.253-.253c-.146-.031-.292-.075-.433-.127l-.071-.125c.006-.336.174-.605.392-.838zM50.292 103.521l-.022-.877c-.007-.168.021-.353-.041-.5-.123-.294-.294-.569-.448-.85l-.112-.141-.773-.378c-.106-.054-.231-.096-.308-.179-.159-.17-.345-.243-.57-.263-.178-.015-.354-.058-.531-.089l-.718-.123c-.252.054-.537.094-.807.181-.284.091-.544.289-.831.333-.58.089-1.052.388-1.54.666-.306.175-.615.346-.915.531-.137.084-.266.187-.384.298-.177.167-.319.383-.519.512-.16.103-.277.226-.391.364l-.203.244c-.289.271-.567.542-.776.889-.304.503-.652.979-.981 1.466l-.134.213c-.267.471-.521.949-.803 1.41-.183.297-.349.59-.408.938-.025.147-.08.29-.122.435-.096.33-.206.656-.284.99-.049.208-.045.428-.077.639-.064.44-.212.871-.161 1.326v.268l-.039.849.009.066c.108.214.035.436.035.653 0 .125-.006.252.018.373l.107.264c-.13.18.001.332.006.494.009.416.134.805.253 1.195l.07.325c.211.404.439.8.661 1.198.091.162.153.357.283.482.116.11.134.346.365.327.387.378.861.548 1.392.593l.74.086c.273.017.549.023.822.004.217-.019.433-.08.646-.131.13-.029.275-.047.381-.117.334-.219.681-.43.968-.699.248-.235.424-.546.628-.826l.166-.261c.37-.39.772-.749 1.002-1.248l.179-.438c.219-.463.452-.918.577-1.418.029-.115.008-.261.07-.349.359-.511.277-1.125.422-1.687l-.004-.09c.015-.242-.1-.472-.118-.693-.028-.346-.046-.618-.401-.805l-.149-.06-.085.022-.101.037-.03.019-.056.049-.026.026-.002.004-.078.123-.029.07-.041.146-.079.229.032.15-.016.18c-.078.299-.153.598-.245.891-.149.479-.297.957-.471 1.429-.13.353-.274.705-.455 1.034-.293.537-.607 1.064-.94 1.578-.27.416-.657.729-1.042 1.037-.239.192-.474.377-.791.408l-.495.041c-.07 0-.156-.033-.207-.082-.433-.418-.797-.879-.944-1.479-.081-.329-.176-.655-.268-.981l-.101-.299-.089-1.062c-.086-.775.099-1.533.155-2.301.023-.305.121-.604.204-.899.095-.341.205-.679.321-1.013.128-.369.268-.731.407-1.097.151-.392.299-.784.465-1.171.103-.232.277-.439.352-.679.182-.578.551-1.028.92-1.482.186-.229.398-.443.541-.697.334-.591.873-.987 1.319-1.472l.287-.218c.293-.318.673-.481 1.066-.621.208-.073.429-.171.64-.161.378.018.718.129 1.024.42.283.268.321.626.518.917l.003.156c-.04.212-.079.425-.131.634-.108.434-.129.894-.416 1.273-.335.444-.627.922-.985 1.345-.311.366-.489.744-.434 1.229.012.103.085.142.129.211.171.263.373.31.679.266.309-.046.601-.122.868-.262.466-.241.743-.702 1.102-1.063.286-.288.495-.677.657-1.055.246-.578.43-1.183.624-1.784.042-.13.016-.289.014-.436zM118.583 98.589c.112-.283.144-.597.208-.898.061-.292.107-.588.182-.877.079-.319.032-.608-.09-.916-.123-.318-.445-.541-.432-.921l-.09-.077c-.229-.091-.463-.163-.684-.268-.298-.142-.574-.328-.878-.455-.194-.082-.425-.135-.634-.123-.427.023-.854.092-1.275.154-.262.038-.523.074-.771.153-.309.1-.592.273-.901.362-.432.124-.768.402-1.124.641-.32.218-.605.494-.898.751-.236.208-.467.425-.694.644l-.539.537c-.118.105-.245.176-.304.35-.053.157-.178.3-.299.418-.154.148-.293.292-.404.48-.146.244-.34.444-.457.725-.212.509-.52.978-.784 1.464l-.185.36c-.108.239-.23.475-.312.725-.074.242-.082.507-.238.723l-.033.104c.07.36-.148.666-.199 1.004l-.129.595c-.028.197-.102.387-.157.58l-.052.168c.056.137.021.274.035.41.031.333-.068.665.02 1.004.064.244.035.515.039.773.003.155-.062.334-.007.465.118.277.063.604.292.857.166.186.247.443.37.667l.086.095c.235.068.315.286.455.447.138.158.243.354.497.385.158.02.341.068.455.17.236.211.531.329.808.394.429.101.885.11 1.327.104.34-.004.679-.088 1.02-.136l.043-.009.896-.514.271-.205c.248-.178.5-.351.637-.637.041-.082.07-.178.133-.234.337-.299.472-.732.729-1.086.312-.428.553-.906.817-1.367l.06-.241.133-.062.263-.537c.172-.368.345-.736.435-1.137l.049-.124c.18-.39.321-.773.137-1.214-.07-.166-.139-.302-.313-.304-.181-.002-.337.091-.411.272-.064.16-.135.322-.177.488-.155.613-.345 1.211-.649 1.769l-.781 1.458c-.242.43-.494.854-.875 1.185l-.848.793c-.403.347-.853.61-1.41.563-.168-.014-.351-.051-.493-.135-.339-.199-.712-.373-.9-.757l-.06-.03c-.196-.187-.408-.357-.451-.653-.023-.161-.072-.319-.122-.474-.13-.414-.25-.826-.194-1.271.01-.081.008-.171-.014-.249-.164-.572.021-1.14.023-1.708l.045-.153.229-.937c.048-.211.051-.436.125-.636.206-.563.419-1.126.668-1.671.137-.299.344-.566.528-.84.399-.594.794-1.19 1.214-1.77.212-.294.438-.6.723-.818.502-.385.951-.856 1.573-1.068.408-.14.714-.482 1.156-.571.36-.073.707-.208 1.06-.31l.159-.002c.185.033.377.052.552.116.141.052.299.134.385.25.328.44.283.916.067 1.392l-.104.247c-.088.189-.155.39-.267.563-.188.292-.403.567-.608.851l-.559.791-.083.185-.054.446.013.194c.104.361.541.602.938.574.341-.024.595-.189.83-.403.119-.107.223-.229.332-.349.1-.111.224-.213.291-.343.22-.444.448-.892.635-1.356z"/></g></svg>