<?xml version="1.0" encoding="utf-8"?>
<!-- Generator: Adobe Illustrator 16.0.4, SVG Export Plug-In . SVG Version: 6.00 Build 0)  -->
<!DOCTYPE svg PUBLIC "-//W3C//DTD SVG 1.1//EN" "http://www.w3.org/Graphics/SVG/1.1/DTD/svg11.dtd">
<svg version="1.1" id="Amperbranch" xmlns="http://www.w3.org/2000/svg" xmlns:xlink="http://www.w3.org/1999/xlink" x="0px"
	 y="0px" width="200px" height="210px" viewBox="0 0 200 210" enable-background="new 0 0 200 210" xml:space="preserve">
<rect x="-32.5" y="-29.5" fill="#D1B846" stroke="#000000" stroke-miterlimit="10" width="277" height="273"/>
<g>
	<path fill="#FFFFFF" d="M162.497,101.811c-0.079-0.349-0.321-0.587-0.62-0.719c-0.298-0.131-0.648-0.078-0.947,0.009
		c-0.318,0.093-0.617,0.302-0.83,0.566c-0.199,0.25-0.351,0.544-0.502,0.83c-0.074,0.141-0.13,0.305-0.146,0.463
		c-0.034,0.356-0.04,0.715-0.052,1.073c-0.004,0.06,0,0.125,0.021,0.179c0.079,0.2,0.062,0.42,0.188,0.619
		c0.101,0.159,0.246,0.372,0.076,0.595c-0.008,0.01,0.022,0.044,0.019,0.062c-0.028,0.11-0.028,0.256-0.101,0.325
		c-0.256,0.244-0.533,0.469-0.809,0.689c-0.197,0.162-0.229,0.152-0.415-0.021c-0.104-0.098-0.196-0.228-0.321-0.287
		c-0.67-0.317-1.357-0.533-2.106-0.286c-0.028,0.009-0.062,0.011-0.091,0.005c-0.354-0.064-0.608,0.238-0.939,0.256
		c-0.473,0.409-0.92,0.841-1.255,1.375c-0.026,0.045-0.021,0.114-0.026,0.172c-0.007,0.053,0.016,0.115-0.008,0.154
		c-0.119,0.203-0.154,0.408-0.148,0.648c0.011,0.393-0.129,0.793,0.148,1.153c0.111,0.146,0.028,0.233-0.125,0.279
		c-0.297,0.086-0.587,0.215-0.89,0.255c-0.394,0.052-0.798,0.037-1.13-0.245c-0.041-0.035-0.09-0.087-0.096-0.138
		c-0.027-0.206-0.035-0.42-0.057-0.629c-0.027-0.269,0.123-0.481,0.232-0.699c0.148-0.294,0.31-0.592,0.521-0.84
		c0.27-0.316,0.555-0.618,0.926-0.844c0.408-0.248,0.603-0.701,0.838-1.102c0.084-0.141,0.123-0.306,0.192-0.457
		c0.261-0.571,0.261-1.152,0-1.711c-0.133-0.285-0.31-0.559-0.599-0.746c-0.288-0.189-0.289-0.386-0.098-0.662
		c0.187-0.268,0.398-0.539,0.5-0.842c0.116-0.352,0.275-0.694,0.297-1.084c0.019-0.348-0.065-0.613-0.338-0.818
		c-0.235-0.177-0.496-0.3-0.793-0.183c-0.158,0.064-0.304,0.176-0.441,0.282c-0.262,0.2-0.444,0.463-0.586,0.757
		c-0.016,0.034-0.043,0.076-0.037,0.105c0.058,0.22-0.006,0.413-0.11,0.604c-0.021,0.041-0.006,0.106,0.002,0.159
		c0.009,0.057,0.038,0.111,0.04,0.167c0.008,0.229-0.021,0.462,0.021,0.684c0.025,0.15-0.004,0.239-0.103,0.336
		c-0.177,0.175-0.343,0.36-0.519,0.537c-0.131,0.13-0.249,0.314-0.408,0.365c-0.284,0.089-0.523,0.258-0.793,0.366
		c-0.271,0.107-0.299,0.097-0.275-0.169c0.023-0.257,0.055-0.517,0.121-0.766c0.049-0.185,0.129-0.353-0.008-0.533
		c-0.023-0.031-0.021-0.087-0.02-0.13c0.019-0.346-0.012-0.681-0.217-0.977c-0.013-0.019-0.029-0.042-0.026-0.061
		c0.028-0.234-0.148-0.38-0.24-0.562c-0.036-0.072-0.073-0.177-0.134-0.197c-0.288-0.098-0.581-0.194-0.881-0.247
		c-0.209-0.036-0.437-0.024-0.647,0.009c-0.261,0.041-0.578,0.004-0.685,0.358c-0.006,0.026-0.033,0.051-0.06,0.066
		c-0.192,0.122-0.348,0.275-0.483,0.459c-0.166,0.224-0.424,0.313-0.668,0.438c-0.418,0.215-0.789,0.525-1.18,0.795
		c-0.019,0.013-0.029,0.035-0.043,0.053c-0.164,0.213-0.305,0.451-0.498,0.633c-0.289,0.272-0.371,0.66-0.607,0.963
		c-0.2,0.257-0.301,0.578-0.393,0.894c-0.1,0.345-0.229,0.682-0.311,1.032c-0.085,0.358-0.1,0.735-0.197,1.09
		c-0.066,0.245-0.066,0.464,0,0.699c0.023,0.077,0.016,0.168,0,0.249c-0.01,0.054-0.039,0.125-0.082,0.15
		c-0.16,0.098-0.322,0.201-0.499,0.262c-0.312,0.105-0.629,0.199-0.948,0.273c-0.567,0.127-0.672-0.104-0.678-0.55
		c-0.003-0.387,0.118-0.782,0.229-1.159c0.076-0.254,0.242-0.479,0.353-0.726c0.067-0.153,0.103-0.319,0.159-0.477
		c0.049-0.144,0.105-0.28,0.184-0.417c0.217-0.382,0.354-0.809,0.543-1.208c0.129-0.27,0.289-0.526,0.444-0.781
		c0.22-0.358,0.448-0.71,0.674-1.064c0.246-0.386,0.487-0.775,0.738-1.158c0.188-0.285,0.39-0.56,0.576-0.846
		c0.14-0.216,0.271-0.437,0.396-0.663c0.127-0.23,0.26-0.421,0.551-0.208c0.01,0.006,0.028,0,0.043,0
		c0.277,0,0.564,0.047,0.83-0.008c0.41-0.085,0.791,0.058,1.186,0.074c0.54,0.022,1.074,0.162,1.617,0.202
		c0.361,0.026,0.709,0.084,1.062,0.155c0.168,0.034,0.362-0.005,0.535-0.049c0.147-0.036,0.151-0.112,0.021-0.191
		c-0.219-0.133-0.472-0.176-0.715-0.231c-0.246-0.055-0.492-0.083-0.73-0.202c-0.137-0.067-0.292-0.159-0.46-0.17
		c-0.407-0.025-0.802-0.096-1.183-0.26c-0.197-0.084-0.434-0.096-0.652-0.11c-0.403-0.027-0.764-0.264-1.184-0.219
		c-0.156,0.017-0.199-0.083-0.111-0.224c0.164-0.262,0.338-0.519,0.508-0.779c0.031-0.05,0.062-0.103,0.087-0.157
		c0.073-0.147,0.146-0.296,0.216-0.445c0.066-0.143,0.182-0.284,0.188-0.431c0.012-0.21,0.106-0.37,0.218-0.513
		c0.251-0.321,0.47-0.644,0.463-1.071c0-0.041-0.001-0.088-0.021-0.12c-0.067-0.108-0.14-0.215-0.219-0.314
		c-0.033-0.042-0.089-0.086-0.14-0.094c-0.284-0.042-0.572-0.056-0.853-0.114c-0.156-0.033-0.248,0.034-0.336,0.124
		c-0.146,0.152-0.304,0.3-0.414,0.476c-0.363,0.581-0.709,1.174-1.062,1.763c-0.072,0.124-0.142,0.251-0.206,0.379
		c-0.124,0.242-0.26,0.48-0.365,0.731c-0.078,0.19-0.253,0.402-0.378,0.366c-0.394-0.115-0.805-0.069-1.204-0.191
		c-0.382-0.117-0.806-0.079-1.188-0.242c-0.033-0.015-0.086,0.012-0.129,0.021c-0.041,0.008-0.086,0.032-0.123,0.022
		c-0.271-0.06-0.541-0.142-0.825-0.075c-0.042,0.01-0.09-0.005-0.134-0.014c-0.234-0.044-0.471-0.095-0.705-0.137
		c-0.118-0.021-0.254,0.008-0.352-0.042c-0.172-0.089-0.33-0.112-0.527-0.113c-0.375,0-0.754-0.081-1.131-0.135
		c-0.069-0.01-0.135-0.07-0.205-0.073c-0.36-0.02-0.721-0.017-1.079-0.042c-0.38-0.027-0.759-0.078-1.14-0.117
		c-0.05-0.005-0.102-0.003-0.152,0.007c-0.363,0.074-0.729,0.152-1.092,0.225c-0.035,0.007-0.078-0.022-0.11-0.013
		c-0.117,0.033-0.285,0.041-0.334,0.121c-0.093,0.146-0.134,0.335-0.156,0.51c-0.014,0.093,0.038,0.208,0.089,0.297
		c0.053,0.09,0.176,0.148,0.208,0.242c0.062,0.17,0.204,0.244,0.335,0.258c0.471,0.052,0.942,0.074,1.415,0.101
		c0.636,0.034,1.271,0.059,1.905,0.092c0.495,0.026,0.992,0.053,1.486,0.091c0.201,0.016,0.4,0.08,0.604,0.091
		c0.463,0.025,0.926,0.03,1.389,0.046c0.324,0.011,0.647,0.026,0.969,0.042c0.053,0.003,0.104,0.013,0.154,0.029
		c0.199,0.068,0.398,0.102,0.614,0.079c0.245-0.025,0.494-0.013,0.743-0.011c0.132,0,0.186,0.054,0.105,0.187
		c-0.09,0.153-0.174,0.31-0.26,0.465c-0.101,0.185-0.195,0.372-0.299,0.557c-0.136,0.245-0.275,0.487-0.413,0.73
		c-0.004,0.006-0.007,0.013-0.011,0.02c-0.234,0.479-0.426,0.982-0.777,1.397c-0.106,0.128-0.207,0.271-0.277,0.421
		c-0.198,0.424-0.375,0.86-0.569,1.285c-0.156,0.339-0.388,0.637-0.494,1.003c-0.083,0.28-0.217,0.545-0.337,0.812
		c-0.07,0.16-0.127,0.338-0.243,0.457c-0.391,0.396-0.795,0.781-1.215,1.146c-0.202,0.176-0.444,0.312-0.687,0.435
		c-0.236,0.121-0.422-0.012-0.41-0.281c0.008-0.17,0.053-0.34,0.087-0.508c0.058-0.264,0.116-0.525,0.188-0.787
		c0.057-0.225,0.133-0.443,0.203-0.667c0.012-0.036,0.026-0.071,0.042-0.106c0.115-0.293,0.229-0.585,0.349-0.876
		c0.107-0.265,0.211-0.534,0.339-0.79c0.149-0.304,0.315-0.6,0.491-0.89c0.151-0.25,0.287-0.534,0.504-0.716
		c0.226-0.191,0.447-0.368,0.609-0.621c0.152-0.237,0.163-0.737-0.031-0.936c-0.142-0.144-0.308-0.269-0.479-0.375
		c-0.126-0.079-0.285-0.205-0.418,0.01c-0.007,0.01-0.026,0.015-0.042,0.016c-0.199,0.008-0.271,0.157-0.355,0.305
		c-0.069,0.123-0.168,0.23-0.25,0.348c-0.078,0.113-0.134,0.095-0.197-0.016c-0.168-0.294-0.422-0.512-0.684-0.714
		c-0.113-0.087-0.273-0.113-0.385-0.204c-0.152-0.129-0.348-0.117-0.509-0.13c-0.378-0.031-0.765,0-1.144,0.036
		c-0.207,0.02-0.427,0.068-0.606,0.165c-0.283,0.153-0.528,0.373-0.806,0.538c-0.429,0.252-0.799,0.571-1.135,0.931
		c-0.035,0.038-0.053,0.114-0.091,0.124c-0.312,0.082-0.409,0.356-0.545,0.597c-0.065,0.115-0.134,0.229-0.185,0.35
		c-0.031,0.074-0.018,0.172-0.055,0.24c-0.064,0.111-0.131,0.201-0.101,0.352c0.024,0.117-0.026,0.253-0.058,0.377
		c-0.088,0.342-0.188,0.681-0.269,1.023c-0.019,0.075,0.017,0.161,0.021,0.243c0.006,0.086,0.031,0.18,0.01,0.258
		c-0.145,0.468,0.062,0.891,0.187,1.315c0.05,0.164,0.035,0.232-0.098,0.305c-0.595,0.312-1.208,0.559-1.896,0.564
		c-0.277,0.004-0.438-0.13-0.433-0.404c0.011-0.533,0.199-1.027,0.378-1.518c0.114-0.315,0.262-0.619,0.409-0.919
		c0.185-0.371,0.385-0.733,0.579-1.1c0.121-0.228,0.316-0.447,0.34-0.684c0.029-0.311,0.199-0.583,0.145-0.928
		c-0.051-0.31,0.064-0.629-0.09-0.962c-0.098-0.211-0.137-0.429-0.373-0.535c-0.031-0.015-0.053-0.054-0.08-0.08
		c-0.287-0.27-0.584-0.517-0.979-0.632c-0.341-0.098-0.324-0.119-0.334-0.476c-0.009-0.279,0.01-0.544,0.172-0.784
		c0.024-0.038,0.003-0.108,0.003-0.164c0-0.152-0.045-0.324,0.012-0.453c0.055-0.125,0.061-0.224,0.019-0.337
		c-0.068-0.181-0.052-0.404-0.259-0.523c-0.041-0.024-0.062-0.104-0.07-0.16c-0.043-0.283-0.18-0.442-0.484-0.474
		c-0.449-0.046-1.084,0.106-1.353,0.558c-0.115,0.194-0.156,0.384-0.183,0.608c-0.037,0.324-0.078,0.636-0.062,0.968
		c0.012,0.273,0.162,0.463,0.271,0.663c0.109,0.205,0.256,0.331,0.194,0.62c-0.104,0.507-0.137,1.03-0.239,1.542
		c-0.062,0.306-0.318,0.542-0.285,0.883c0.01,0.095-0.11,0.195-0.141,0.303c-0.096,0.33-0.162,0.667-0.354,0.964
		c-0.022,0.037-0.03,0.085-0.051,0.126c-0.151,0.301-0.306,0.6-0.457,0.901c-0.09,0.176-0.272,0.3-0.283,0.526
		c-0.004,0.068-0.06,0.14-0.105,0.199c-0.289,0.369-0.574,0.739-0.878,1.096c-0.124,0.146-0.278,0.332-0.44,0.359
		c-0.162,0.025-0.322,0.09-0.489,0.088c-0.044,0-0.116-0.032-0.123-0.062c-0.089-0.389-0.138-0.786-0.07-1.177
		c0.077-0.45,0.199-0.894,0.308-1.339c0.049-0.204,0.101-0.407,0.16-0.607c0.041-0.128,0.115-0.246,0.148-0.374
		c0.117-0.451,0.197-0.913,0.337-1.355c0.106-0.339,0.282-0.656,0.431-0.982c0.094-0.21,0.191-0.421,0.293-0.63
		c0.088-0.183,0.082-0.357-0.024-0.531c-0.023-0.038-0.052-0.083-0.052-0.125c-0.002-0.126-0.029-0.21-0.176-0.236
		c-0.107-0.019-0.201-0.103-0.308-0.119c-0.394-0.059-0.696,0.134-0.927,0.412c-0.135,0.163-0.236,0.392-0.252,0.599
		c-0.008,0.124-0.025,0.216-0.082,0.323c-0.067,0.131-0.108,0.276-0.158,0.417c-0.114,0.322-0.227,0.645-0.337,0.966
		c-0.046,0.127-0.107,0.252-0.126,0.384c-0.038,0.25-0.034,0.501-0.156,0.738c-0.143,0.273-0.18,0.592-0.365,0.85
		c-0.023,0.037-0.01,0.103-0.013,0.154c-0.007,0.068,0.006,0.144-0.022,0.2c-0.199,0.404-0.383,0.822-0.625,1.202
		c-0.238,0.375-0.533,0.714-0.816,1.059c-0.129,0.155-0.389,0.185-0.542,0.08c-0.134-0.093-0.265-0.195-0.38-0.31
		c-0.057-0.055-0.106-0.137-0.119-0.211c-0.031-0.219-0.061-0.438-0.061-0.658c0.004-0.379,0.002-0.764,0.058-1.138
		c0.062-0.423,0.173-0.841,0.286-1.254c0.07-0.258,0.201-0.5,0.271-0.756c0.059-0.216,0.162-0.394,0.286-0.579
		c0.14-0.211,0.208-0.468,0.317-0.7c0.09-0.19,0.179-0.385,0.299-0.554c0.217-0.304,0.055-0.607,0.031-0.911
		c-0.002-0.022-0.037-0.045-0.062-0.062c-0.292-0.219-0.946-0.203-1.204,0.053c-0.158,0.155-0.365,0.255-0.434,0.512
		c-0.057,0.208-0.234,0.38-0.256,0.615c-0.004,0.044-0.017,0.097-0.043,0.127c-0.147,0.169-0.192,0.369-0.236,0.584
		c-0.083,0.386-0.201,0.763-0.309,1.144c-0.021,0.071-0.058,0.138-0.086,0.208c-0.037,0.091-0.088,0.179-0.108,0.273
		c-0.068,0.347-0.13,0.695-0.19,1.043c-0.033,0.192-0.057,0.386-0.089,0.579c-0.022,0.138-0.067,0.275-0.075,0.414
		c-0.009,0.125,0.022,0.252,0.029,0.378c0.014,0.232-0.012,0.465,0.112,0.686c0.09,0.157,0.136,0.34,0.198,0.51
		c0.09,0.255,0.213,0.481,0.47,0.606c0.171,0.087,0.375,0.136,0.514,0.259c0.188,0.166,0.422,0.116,0.597,0.112
		c0.256-0.007,0.506-0.183,0.758-0.282c0.322-0.127,0.541-0.373,0.744-0.637c0.168-0.216,0.334-0.438,0.52-0.681
		c0.02,0.065,0.029,0.092,0.029,0.118c-0.023,0.621,0.182,1.129,0.67,1.537c0.209,0.174,0.455,0.168,0.666,0.181
		c0.215,0.013,0.445-0.151,0.658-0.263c0.188-0.102,0.365-0.229,0.535-0.357c0.16-0.124,0.307-0.264,0.457-0.396
		c0.207-0.186,0.439-0.348,0.608-0.56c0.302-0.38,0.567-0.788,0.842-1.188c0.091-0.13,0.185-0.265,0.235-0.412
		c0.195-0.583,0.551-1.075,0.859-1.597c-0.025-0.018-0.074-0.049-0.121-0.081c0.002-0.015,0.002-0.029,0.002-0.044
		c0.299,0.005,0.299-0.255,0.338-0.417c0.078-0.34,0.291-0.596,0.459-0.88c0.106-0.178,0.222-0.355,0.295-0.548
		c0.086-0.222,0.13-0.458,0.189-0.69c0.043-0.166,0.154-0.167,0.284-0.126c0.05,0.015,0.091,0.058,0.14,0.068
		c0.312,0.062,0.518,0.29,0.53,0.601c0.015,0.301-0.034,0.586-0.178,0.857c-0.183,0.349-0.345,0.709-0.528,1.057
		c-0.172,0.323-0.376,0.628-0.537,0.957c-0.156,0.323-0.272,0.666-0.412,0.997c-0.174,0.408-0.353,0.814-0.526,1.22
		c-0.009,0.021-0.017,0.045-0.017,0.063c0.026,0.337-0.096,0.677,0.017,1.013c0.015,0.039-0.003,0.088-0.011,0.133
		c-0.021,0.105-0.07,0.209,0.095,0.263c0.053,0.019,0.103,0.116,0.116,0.187c0.078,0.383,0.346,0.59,0.666,0.741
		c0.092,0.044,0.203,0.042,0.307,0.06c0.292,0.047,0.585,0.136,0.876,0.129c0.448-0.01,0.86-0.203,1.222-0.455
		c0.346-0.24,0.649-0.543,0.969-0.821c0.068-0.06,0.125-0.091,0.216-0.024c0.178,0.133,0.364,0.256,0.551,0.377
		c0.041,0.024,0.101,0.021,0.151,0.027c0.059,0.01,0.123,0,0.176,0.021c0.232,0.092,0.455,0.205,0.723,0.141
		c0.068-0.018,0.155,0.042,0.234,0.066c0.062,0.02,0.126,0.058,0.189,0.056c0.396,0,0.742-0.155,1.074-0.353
		c0.04-0.023,0.087-0.039,0.129-0.059c0.018,0.053,0.051,0.107,0.055,0.162c0.016,0.207,0.017,0.418,0.033,0.625
		c0.004,0.045,0.051,0.091,0.088,0.128c0.238,0.255,0.532,0.435,0.869,0.497c0.249,0.046,0.497,0.077,0.773-0.018
		c0.287-0.096,0.544-0.202,0.787-0.389c0.318-0.24,0.654-0.455,0.854-0.82c0.045-0.08,0.086-0.16,0.145-0.229
		c0.039-0.048,0.104-0.068,0.158-0.104c0.025,0.059,0.07,0.115,0.072,0.176c0.008,0.125-0.018,0.251-0.016,0.375
		c0.009,0.271,0.018,0.553,0.223,0.764c0.197,0.203,0.335,0.477,0.633,0.574c0.096,0.031,0.2,0.062,0.28,0.122
		c0.203,0.151,0.44,0.155,0.671,0.181c0.549,0.059,1.01-0.187,1.449-0.471c0.189-0.123,0.355-0.278,0.544-0.404
		c0.054-0.035,0.19-0.05,0.205-0.025c0.134,0.229,0.319,0.392,0.524,0.556c0.313,0.251,0.652,0.408,1.051,0.444
		c0.121,0.013,0.242-0.002,0.365,0c0.389,0.002,0.783,0.055,1.137-0.178c0.384-0.254,0.771-0.502,1.154-0.757
		c0.125-0.082,0.261-0.157,0.361-0.263c0.148-0.157,0.272-0.337,0.403-0.51c0.085-0.113,0.144-0.248,0.241-0.346
		c0.354-0.354,0.552-0.803,0.771-1.23c0.088-0.174,0.014-0.415,0.176-0.593c0.062-0.07,0.039-0.244,0.105-0.286
		c0.211-0.131,0.134-0.424,0.34-0.546c0.014-0.009,0.021-0.044,0.018-0.062c-0.037-0.143,0.062-0.159,0.162-0.187
		c0.52-0.141,1.039-0.276,1.553-0.437c0.154-0.049,0.287-0.172,0.424-0.271c0.121-0.089,0.23-0.191,0.347-0.29
		c0.071-0.061,0.138-0.128,0.211-0.188c0.062-0.049,0.132-0.088,0.197-0.133c0.034,0.054,0.074,0.106,0.106,0.162
		c0.023,0.044,0.045,0.092,0.063,0.14c0.062,0.158,0.174,0.319,0.168,0.474c-0.01,0.204-0.087,0.418-0.185,0.601
		c-0.147,0.275-0.332,0.53-0.514,0.786c-0.088,0.122-0.207,0.217-0.306,0.332c-0.087,0.104-0.171,0.201-0.281,0.292
		c-0.243,0.194-0.442,0.442-0.671,0.659c-0.389,0.375-0.492,0.893-0.634,1.371c-0.095,0.315-0.029,0.685-0.021,1.027
		c0.004,0.143,0.032,0.284,0.071,0.42c0.022,0.084,0.082,0.158,0.132,0.231c0.021,0.034,0.078,0.052,0.09,0.088
		c0.151,0.442,0.479,0.714,0.883,0.897c0.135,0.062,0.285,0.094,0.432,0.109c0.109,0.014,0.251-0.173,0.318,0.062
		c0.191,0.021,0.389,0.074,0.576,0.057c0.256-0.023,0.508-0.098,0.76-0.161c0.102-0.026,0.193-0.095,0.295-0.136
		c0.121-0.049,0.258-0.143,0.365-0.12c0.123,0.026,0.223,0.16,0.332,0.249c0.229,0.184,0.455,0.369,0.686,0.552
		c0.02,0.015,0.062-0.004,0.089,0.009c0.158,0.067,0.349,0.105,0.463,0.219c0.169,0.173,0.39,0.197,0.563,0.174
		c0.308-0.043,0.559,0.107,0.838,0.136c0.215,0.021,0.433,0.035,0.648,0.028c0.287-0.012,0.588,0.074,0.863-0.079
		c0.354,0.114,0.592-0.127,0.822-0.31c0.255-0.203,0.453-0.475,0.762-0.621c0.069-0.031,0.127-0.107,0.172-0.176
		c0.107-0.166,0.221-0.332,0.299-0.51c0.192-0.439,0.371-0.883,0.549-1.328c0.027-0.072,0.021-0.16,0.025-0.24
		c0.016-0.234,0.026-0.471,0.047-0.703c0.012-0.108,0.053-0.217,0.057-0.325c0.016-0.2,0.027-0.403,0.016-0.604
		c-0.016-0.229,0.033-0.471-0.111-0.683c-0.162-0.242-0.106-0.524-0.123-0.793c-0.006-0.083,0.037-0.179,0.082-0.254
		c0.148-0.244,0.309-0.479,0.463-0.719c0.117-0.184,0.197-0.41,0.356-0.545c0.271-0.232,0.386-0.552,0.562-0.839
		c0.053-0.087,0.084-0.189,0.117-0.286C162.666,102.413,162.564,102.113,162.497,101.811z M136.555,101.805
		c-0.068,0.168-0.012,0.388-0.003,0.584c0.013,0.266-0.058,0.5-0.218,0.72c-0.111,0.156-0.184,0.342-0.27,0.516
		c-0.121,0.234-0.234,0.472-0.358,0.704c-0.177,0.332-0.368,0.656-0.539,0.99c-0.081,0.159-0.131,0.333-0.196,0.501
		c-0.223,0.565-0.463,0.56-0.914,0.513c-0.197-0.019-0.406-0.052-0.58-0.14c-0.154-0.078-0.289-0.226-0.386-0.373
		c-0.14-0.219-0.3-0.439-0.243-0.737c-0.068-0.462-0.027-0.938,0.096-1.386c0.127-0.467,0.299-0.934,0.625-1.317
		c0.123-0.146,0.199-0.344,0.416-0.39c0.009,0,0.019-0.007,0.021-0.014c0.095-0.336,0.408-0.47,0.642-0.676
		c0.221-0.193,0.473-0.323,0.776-0.335c0.265-0.01,0.521-0.033,0.78,0.047c0.177,0.053,0.29,0.153,0.32,0.313
		C136.552,101.479,136.629,101.618,136.555,101.805z M148.559,104.637c-0.09,0.186-0.146,0.388-0.231,0.577
		c-0.177,0.386-0.354,0.772-0.546,1.149c-0.129,0.246-0.239,0.529-0.438,0.703c-0.209,0.183-0.37,0.402-0.573,0.582
		c-0.094,0.084-0.166,0.211-0.275,0.252c-0.253,0.099-0.521,0.156-0.71,0.209c-0.407-0.061-0.729-0.072-1.011-0.269
		c-0.145-0.102-0.234-0.219-0.256-0.403c-0.029-0.273-0.068-0.549-0.14-0.813c-0.081-0.295-0.015-0.567,0.056-0.845
		c0.082-0.318,0.159-0.641,0.269-0.951c0.065-0.189,0.178-0.365,0.286-0.535c0.242-0.385,0.482-0.775,0.754-1.142
		c0.158-0.216,0.371-0.394,0.566-0.582c0.077-0.076,0.151-0.082,0.195,0.054c0.109,0.336,0.309,0.625,0.507,0.914
		c0.123,0.176,0.255,0.345,0.39,0.512c0.029,0.036,0.088,0.062,0.135,0.066c0.322,0.021,0.627,0.114,0.925,0.238
		C148.6,104.411,148.63,104.492,148.559,104.637z M148.591,103.582c-0.165-0.046-0.327-0.117-0.481-0.191
		c-0.034-0.017-0.047-0.087-0.063-0.134c-0.055-0.157-0.104-0.316-0.166-0.471c-0.045-0.111,0.031-0.521,0.123-0.597
		c0.026-0.021,0.069-0.031,0.104-0.032c0.265-0.015,0.699,0.369,0.672,0.622c0,0.217-0.006,0.434,0.003,0.65
		C148.786,103.577,148.693,103.611,148.591,103.582z M155.38,108.801c-0.03-0.123-0.058-0.244-0.073-0.311
		c0.037-0.543,0.178-1.001,0.479-1.385c0.213-0.271,0.534-0.455,0.87-0.439c0.285,0.016,0.615,0.012,0.861,0.218
		c0.11,0.093,0.195,0.229,0.262,0.362c0.021,0.045-0.031,0.168-0.086,0.202c-0.414,0.269-0.836,0.524-1.256,0.784
		c-0.219,0.138-0.434,0.274-0.649,0.412c-0.007,0.004-0.013,0.012-0.019,0.015C155.641,108.706,155.51,108.754,155.38,108.801z
		 M160.088,107.872c-0.043,0.37-0.206,0.687-0.37,1.017c-0.091,0.187-0.137,0.406-0.231,0.604c-0.146,0.302-0.286,0.602-0.637,0.729
		c-0.084,0.031-0.158,0.11-0.219,0.184c-0.219,0.272-0.55,0.307-0.842,0.322c-0.223,0.015-0.51,0.043-0.699-0.179
		c-0.02-0.021-0.05-0.05-0.072-0.049c-0.334,0.03-0.479-0.265-0.692-0.425c-0.109-0.082-0.134-0.105-0.214-0.006
		c-0.016,0.021-0.049,0.029-0.055,0.031c-0.086-0.175-0.17-0.343-0.244-0.514c-0.051-0.107-0.047-0.197,0.084-0.263
		c0.494-0.244,0.94-0.562,1.392-0.875c0.06-0.041,0.14-0.05,0.267-0.091c-0.033,0.102-0.037,0.181-0.078,0.221
		c-0.164,0.152-0.045,0.298,0.043,0.39c0.074,0.079,0.178,0.179,0.349,0.132c0.503-0.133,0.771-0.408,0.842-0.937
		c0.026-0.21,0.011-0.427,0.06-0.629c0.031-0.134,0.14-0.255,0.229-0.37c0.097-0.124,0.216-0.23,0.315-0.354
		c0.09-0.115,0.416-0.27,0.541-0.23c0.031,0.01,0.065,0.062,0.068,0.1c0.01,0.135,0.03,0.273,0.004,0.404
		c-0.035,0.171-0.013,0.316,0.098,0.445C160.113,107.636,160.104,107.747,160.088,107.872z M161.742,102.81
		c-0.114,0.208-0.23,0.416-0.344,0.625c-0.047,0.088-0.073,0.19-0.127,0.273c-0.078,0.123-0.172,0.235-0.26,0.351
		c-0.025-0.021-0.053-0.042-0.08-0.062c0.127-0.353,0.234-0.713,0.391-1.053c0.055-0.119,0.214-0.21,0.344-0.267
		C161.771,102.632,161.79,102.724,161.742,102.81z"/>
	<path fill="#FFFFFF" d="M85.295,103.435c-0.102-0.203-0.291-0.378-0.206-0.646c0.015-0.043-0.039-0.11-0.066-0.164
		c-0.087-0.168-0.197-0.327-0.26-0.504c-0.107-0.299-0.195-0.601-0.429-0.839c-0.048-0.05-0.076-0.164-0.055-0.229
		c0.097-0.3,0.211-0.594,0.327-0.888c0.094-0.243,0.248-0.475,0.287-0.727c0.056-0.354,0.015-0.72-0.143-1.056
		c-0.025-0.053-0.063-0.114-0.111-0.14c-0.169-0.092-0.338-0.193-0.521-0.248c-0.459-0.137-0.864,0.02-1.239,0.283
		c-0.017,0.013-0.018,0.051-0.023,0.078c-0.036,0.211-0.026,0.435-0.199,0.604c-0.031,0.029-0.029,0.098-0.031,0.149
		c-0.007,0.248-0.024,0.495-0.013,0.742c0.006,0.123,0.062,0.245,0.104,0.365c0.097,0.27,0.202,0.537,0.297,0.807
		c0.076,0.219,0.04,0.473,0.229,0.657c0.04,0.039,0.049,0.15,0.024,0.208c-0.088,0.202-0.186,0.399-0.3,0.586
		c-0.07,0.115-0.167,0.168-0.29,0.02c-0.052-0.063-0.172-0.082-0.265-0.097c-0.142-0.025-0.287-0.024-0.431-0.044
		c-0.441-0.062-0.879-0.008-1.229,0.254c-0.427,0.319-0.896,0.614-1.091,1.167c-0.106,0.303-0.213,0.619-0.391,0.881
		c-0.204,0.3,0.027,0.669-0.212,0.944c-0.005,0.006,0.013,0.025,0.014,0.041c0.023,0.327,0.052,0.654,0.066,0.981
		c0.003,0.087-0.045,0.172-0.055,0.262c-0.008,0.068-0.014,0.147,0.013,0.209c0.063,0.142,0.156,0.269,0.219,0.408
		c0.089,0.202,0.044,0.252-0.136,0.387c-0.37,0.277-0.829,0.267-1.239,0.412c-0.069,0.025-0.148,0.037-0.223,0.043
		c-0.191,0.017-0.292-0.049-0.319-0.235c-0.03-0.209-0.026-0.422-0.047-0.631c-0.05-0.504,0.138-0.959,0.305-1.412
		c0.085-0.231,0.225-0.441,0.331-0.668c0.109-0.231,0.205-0.469,0.311-0.702c0.028-0.062,0.074-0.115,0.102-0.177
		c0.166-0.375,0.319-0.757,0.497-1.126c0.128-0.265,0.229-0.526,0.199-0.826c-0.024-0.248-0.039-0.497-0.058-0.745
		c-0.017-0.204-0.271-0.495-0.467-0.517c-0.333-0.036-0.651-0.184-1.001-0.096c-0.131,0.033-0.239-0.036-0.198-0.212
		c0.061-0.271,0.117-0.543,0.17-0.814c0.04-0.202,0.088-0.404,0.102-0.609c0.009-0.147-0.028-0.299-0.059-0.446
		c-0.057-0.281-0.163-0.533-0.443-0.668c-0.136-0.065-0.276-0.123-0.402-0.202c-0.165-0.104-0.354-0.115-0.487,0.031
		c-0.167,0.184-0.375,0.369-0.443,0.592c-0.06,0.198-0.042,0.421-0.173,0.608c-0.01,0.015,0.025,0.054,0.027,0.084
		c0.003,0.059,0.012,0.123-0.004,0.179c-0.201,0.684,0.111,1.229,0.499,1.733c0.107,0.139,0.083,0.195,0.004,0.298
		c-0.146,0.192-0.294,0.384-0.436,0.58c-0.288,0.399-0.637,0.742-0.998,1.072c-0.132,0.121-0.221,0.074-0.224-0.108
		c-0.006-0.381-0.042-0.767,0.129-1.13c0.008-0.017,0-0.061-0.001-0.061c-0.201-0.014-0.046-0.135-0.064-0.204
		c-0.028-0.108-0.059-0.215-0.101-0.318c-0.036-0.09-0.125-0.173-0.125-0.26c-0.002-0.356-0.289-0.566-0.436-0.845
		c-0.086-0.163-0.324-0.251-0.5-0.363c-0.102-0.064-0.231-0.091-0.322-0.166c-0.306-0.253-0.623-0.409-1.048-0.378
		c-0.371,0.026-0.628,0.219-0.905,0.415c-0.25,0.178-0.319,0.478-0.426,0.721c-0.14,0.323-0.372,0.563-0.572,0.823
		c-0.261,0.339-0.484,0.698-0.644,1.081c-0.163,0.39-0.229,0.82-0.333,1.235c-0.069,0.276-0.141,0.553-0.192,0.833
		c-0.054,0.295-0.088,0.595-0.126,0.894c-0.051,0.412-0.098,0.827-0.142,1.242c-0.005,0.049-0.001,0.116,0.027,0.146
		c0.153,0.174,0.105,0.378,0.105,0.576c0,0.082,0,0.178,0.037,0.244c0.152,0.268,0.316,0.527,0.479,0.789
		c0.085,0.135,0.024,0.204-0.097,0.268c-0.091,0.048-0.181,0.104-0.255,0.176c-0.093,0.089-0.15,0.227-0.254,0.295
		c-0.287,0.193-0.587,0.369-0.887,0.542c-0.185,0.108-0.429,0.062-0.493-0.117c-0.079-0.223-0.141-0.459-0.159-0.692
		c-0.019-0.254,0.016-0.512,0.037-0.769c0.029-0.344,0.041-0.692,0.11-1.03c0.126-0.621,0.287-1.235,0.438-1.85
		c0.149-0.605,0.308-1.208,0.458-1.814c0.075-0.298,0.134-0.603,0.21-0.901c0.108-0.417,0.226-0.83,0.339-1.245
		c0.036-0.131,0.059-0.268,0.107-0.395c0.147-0.394,0.335-0.772,0.394-1.198c0.01-0.075,0.099-0.165,0.174-0.2
		c0.111-0.053,0.243-0.064,0.365-0.093c0.386-0.091,0.772-0.181,1.159-0.274c0.263-0.064,0.521-0.165,0.788-0.193
		c0.596-0.063,1.18-0.172,1.742-0.371c0.534-0.19,1.077-0.326,1.632-0.427c0.421-0.077,0.853-0.132,1.252-0.275
		c0.355-0.127,0.717-0.187,1.082-0.229c0.251-0.029,0.406-0.187,0.558-0.347c0.065-0.07,0.064-0.205,0.092-0.31
		c-0.099-0.019-0.203-0.067-0.294-0.051c-0.304,0.053-0.601,0.14-0.905,0.195c-0.409,0.076-0.821,0.135-1.232,0.201
		c-0.318,0.051-0.639,0.088-0.954,0.157c-0.301,0.065-0.59,0.187-0.892,0.241c-0.763,0.137-1.531,0.24-2.294,0.374
		c-0.526,0.092-1.047,0.213-1.571,0.315c-0.101,0.02-0.207,0.009-0.312,0.014c0.033-0.094,0.07-0.187,0.099-0.281
		c0.02-0.064,0.029-0.132,0.047-0.196c0.157-0.533,0.315-1.065,0.472-1.598c0.042-0.144,0.076-0.29,0.118-0.434
		c0.051-0.174,0.157-0.348,0.148-0.517c-0.014-0.287-0.097-0.57-0.157-0.854c-0.006-0.028-0.057-0.047-0.087-0.07
		c-0.203-0.153-0.428-0.14-0.669-0.129c-0.183,0.009-0.326,0.043-0.438,0.184c-0.102,0.127-0.226,0.245-0.299,0.386
		c-0.118,0.228-0.054,0.533-0.296,0.712c-0.009,0.007-0.014,0.03-0.011,0.043c0.052,0.215-0.015,0.396-0.148,0.565
		c-0.03,0.036-0.021,0.101-0.033,0.153c-0.082,0.374-0.128,0.759-0.258,1.115c-0.106,0.295-0.159,0.593-0.202,0.896
		c-0.032,0.224-0.147,0.347-0.375,0.378c-0.335,0.047-0.673,0.092-1.006,0.157c-0.64,0.125-1.276,0.269-1.917,0.393
		s-1.285,0.231-1.928,0.35c-0.533,0.099-1.067,0.2-1.597,0.312c-0.117,0.024-0.263,0.068-0.327,0.155
		c-0.192,0.26-0.187,0.568-0.126,0.875c0.01,0.051,0.045,0.103,0.041,0.151c-0.026,0.27,0.209,0.336,0.354,0.476
		c0.135,0.128,0.279,0.014,0.417,0.031c0.342,0.044,0.648-0.11,0.967-0.188c0.333-0.081,0.657-0.223,0.995-0.26
		c0.561-0.062,1.093-0.22,1.627-0.374c0.245-0.07,0.47-0.204,0.713-0.275c0.383-0.114,0.773-0.205,1.163-0.299
		c0.107-0.025,0.221-0.025,0.332-0.037c-0.026,0.105-0.035,0.219-0.083,0.313c-0.127,0.259-0.236,0.51-0.229,0.815
		c0.004,0.179-0.128,0.36-0.198,0.541c-0.02,0.053-0.057,0.108-0.056,0.161c0.014,0.339-0.143,0.634-0.229,0.948
		c-0.096,0.35-0.309,0.672-0.259,1.06c0.008,0.06-0.024,0.135-0.06,0.189c-0.136,0.208-0.203,0.428-0.196,0.681
		c0.004,0.164-0.014,0.336-0.059,0.494c-0.106,0.377-0.211,0.751-0.161,1.149c0.006,0.051,0.025,0.111,0.008,0.157
		c-0.106,0.294-0.105,0.593-0.121,0.902c-0.033,0.608-0.236,1.178-0.707,1.608c-0.201,0.185-0.402,0.369-0.615,0.539
		c-0.146,0.117-0.282,0.072-0.305-0.092c-0.031-0.223-0.066-0.449-0.048-0.673c0.019-0.235,0.107-0.466,0.145-0.703
		c0.02-0.13-0.028-0.272-0.001-0.401c0.068-0.332,0.141-0.662,0.203-0.994c0.105-0.57,0.407-1.103,0.348-1.708
		c0-0.014,0.008-0.029,0.012-0.043c0.123-0.472,0.258-0.941,0.36-1.418c0.078-0.361,0.172-0.714,0.303-1.057
		c0.065-0.169,0.022-0.281-0.145-0.365c-0.089-0.044-0.187-0.078-0.262-0.138c-0.201-0.161-0.46-0.183-0.632-0.003
		c-0.126,0.132-0.228,0.296-0.313,0.459c-0.066,0.129-0.109,0.19-0.272,0.12c-0.229-0.098-0.476-0.155-0.715-0.228
		c-0.028-0.009-0.061-0.012-0.089-0.005c-0.192,0.044-0.382,0.123-0.576,0.132c-0.425,0.022-0.791,0.22-1.128,0.425
		c-0.311,0.188-0.545,0.501-0.81,0.762c-0.024,0.023-0.028,0.068-0.042,0.103c-0.039,0.089-0.064,0.187-0.121,0.263
		c-0.151,0.204-0.333,0.386-0.468,0.597c-0.161,0.25-0.337,0.498-0.358,0.816c-0.029,0.428-0.389,0.777-0.296,1.236
		c0.004,0.024-0.025,0.053-0.034,0.084c-0.055,0.178-0.168,0.348-0.057,0.547c0.023,0.039,0.001,0.104,0.002,0.156
		c0.013,0.258,0.021,0.512,0.043,0.77c0.008,0.083,0.096,0.173,0.078,0.24c-0.075,0.271-0.151,0.549-0.277,0.799
		c-0.132,0.26-0.314,0.496-0.491,0.729c-0.152,0.198-0.301,0.416-0.498,0.563c-0.369,0.273-0.758,0.529-1.166,0.744
		c-0.262,0.137-0.568,0.244-0.859,0.254c-0.368,0.015-0.632-0.245-0.846-0.537c-0.232-0.317-0.212-0.691-0.24-1.051
		c-0.032-0.407,0.093-0.558,0.501-0.688c0.063-0.021,0.134-0.037,0.183-0.077c0.285-0.231,0.557-0.483,0.85-0.706
		c0.136-0.103,0.336-0.126,0.457-0.24c0.384-0.364,0.857-0.629,1.165-1.078c0.149-0.217,0.367-0.394,0.487-0.621
		c0.255-0.49,0.517-0.979,0.636-1.534c0.096-0.438-0.087-0.949-0.487-1.138c-0.34-0.161-0.696-0.274-1.081-0.25
		c-0.532,0.035-1.067,0.058-1.542,0.346c-0.128,0.078-0.257,0.162-0.397,0.207c-0.187,0.06-0.301,0.19-0.418,0.331
		c-0.066,0.079-0.152,0.142-0.222,0.217c-0.089,0.096-0.17,0.198-0.253,0.298c-0.028,0.035-0.046,0.082-0.081,0.104
		c-0.328,0.213-0.415,0.588-0.51,0.904c-0.097,0.319-0.24,0.629-0.303,0.963c-0.065,0.344-0.188,0.678-0.258,1.021
		c-0.04,0.194-0.028,0.401-0.035,0.603c-0.004,0.115,0.013,0.232-0.003,0.348c-0.026,0.185-0.087,0.363-0.105,0.547
		c-0.029,0.281-0.038,0.564-0.048,0.847c-0.008,0.247,0.039,0.479,0.178,0.688c0.099,0.145,0.063,0.266-0.033,0.395
		c-0.355,0.477-0.848,0.764-1.372,1.01c-0.11,0.051-0.2,0.051-0.272-0.064c-0.06-0.098-0.155-0.178-0.19-0.28
		c-0.096-0.284-0.251-0.562-0.129-0.881c0.043-0.117,0.061-0.241,0.1-0.358c0.053-0.162,0.05-0.354,0.109-0.49
		c0.216-0.502,0.446-1.008,0.864-1.394c0.059-0.054,0.125-0.175,0.103-0.229c-0.034-0.082-0.009-0.084,0.043-0.129
		c0.273-0.228,0.456-0.518,0.559-0.858c0.075-0.249,0.153-0.498,0.225-0.748c0.036-0.13,0.119-0.286,0.077-0.39
		c-0.1-0.242-0.213-0.52-0.407-0.676c-0.259-0.207-0.485-0.404-0.538-0.74c-0.023-0.14-0.032-0.296,0.003-0.432
		c0.049-0.187,0.167-0.355,0.218-0.542c0.08-0.291,0.128-0.589,0.189-0.883c0.024-0.117,0.09-0.246,0.063-0.349
		c-0.072-0.268-0.181-0.527-0.285-0.786c-0.067-0.169-0.236-0.254-0.422-0.223c-0.134,0.022-0.272,0.042-0.397,0.092
		c-0.134,0.053-0.289,0.113-0.375,0.219c-0.288,0.358-0.512,0.757-0.627,1.209c-0.117,0.456-0.148,0.907,0.052,1.354
		c0.046,0.104,0.109,0.242,0.076,0.33c-0.124,0.325-0.266,0.646-0.439,0.946c-0.183,0.318-0.386,0.631-0.624,0.91
		c-0.296,0.351-0.601,0.707-0.965,0.979c-0.42,0.31-0.908,0.529-1.365,0.791c-0.036,0.021-0.081,0.061-0.083,0.092
		c-0.002,0.035,0.036,0.086,0.071,0.104c0.05,0.03,0.121,0.066,0.169,0.054c0.295-0.082,0.602-0.145,0.876-0.272
		c0.353-0.166,0.687-0.379,1.016-0.593c0.202-0.129,0.385-0.291,0.57-0.443c0.232-0.191,0.474-0.38,0.684-0.596
		c0.289-0.299,0.552-0.62,0.827-0.932c0.014-0.017,0.037-0.023,0.061-0.039c0.088,0.123,0.145,0.238,0.072,0.398
		c-0.084,0.184-0.127,0.387-0.212,0.57c-0.189,0.408-0.401,0.81-0.591,1.219c-0.213,0.458-0.426,0.918-0.613,1.388
		c-0.116,0.292-0.218,0.599-0.267,0.907c-0.064,0.412-0.093,0.82,0.039,1.25c0.134,0.436,0.474,0.705,0.674,1.076
		c0.013,0.021,0.049,0.038,0.078,0.048c0.377,0.123,0.734,0.379,1.162,0.159c0.273-0.143,0.593-0.225,0.815-0.42
		c0.258-0.229,0.571-0.424,0.713-0.772c0.044-0.11,0.158-0.173,0.267-0.039c0.07,0.089,0.12,0.205,0.209,0.263
		c0.268,0.17,0.546,0.328,0.83,0.473c0.29,0.146,0.615,0.15,0.931,0.16c0.191,0.006,0.386-0.049,0.575-0.094
		c0.196-0.049,0.393-0.106,0.578-0.188c0.162-0.068,0.324-0.158,0.458-0.271c0.138-0.114,0.24-0.272,0.364-0.404
		c0.321-0.348,0.626-0.708,0.875-1.109c0.086-0.14,0.146-0.297,0.205-0.449c0.047-0.123,0.063-0.262,0.116-0.383
		c0.026-0.061,0.103-0.101,0.155-0.148c0.039,0.051,0.082,0.099,0.117,0.15c0.13,0.191,0.25,0.391,0.538,0.344
		c0.059-0.008,0.129,0.021,0.187,0.051c0.46,0.22,0.915,0.404,1.455,0.289c0.421-0.092,0.79-0.235,1.069-0.571
		c0.034-0.041,0.067-0.091,0.113-0.11c0.037-0.017,0.11-0.011,0.136,0.018c0.117,0.127,0.213,0.272,0.335,0.396
		c0.057,0.058,0.154,0.101,0.235,0.107c0.438,0.041,0.82-0.142,1.195-0.331c0.054-0.028,0.086-0.102,0.128-0.152
		c0.037-0.047,0.075-0.091,0.112-0.138c0.189-0.229,0.377-0.466,0.567-0.695c0.051-0.061,0.108-0.116,0.163-0.175
		c0.051,0.064,0.119,0.122,0.15,0.193c0.085,0.193,0.133,0.408,0.32,0.543c0.096,0.066,0.197,0.13,0.287,0.203
		c0.262,0.223,0.548,0.307,0.899,0.269c0.167-0.019,0.306-0.112,0.457-0.115c0.309-0.006,0.541-0.143,0.763-0.329
		c0.156-0.134,0.332-0.24,0.483-0.378c0.191-0.171,0.364-0.364,0.552-0.538c0.035-0.033,0.132-0.049,0.172-0.021
		c0.197,0.119,0.378,0.266,0.579,0.379c0.144,0.083,0.314,0.188,0.463,0.177c0.377-0.03,0.756-0.093,1.122-0.192
		c0.215-0.059,0.457-0.095,0.615-0.304c0.205-0.271,0.434-0.522,0.652-0.784c0.024-0.026,0.047-0.059,0.064-0.092
		c0.192-0.373,0.389-0.744,0.571-1.124c0.095-0.194,0.232-0.405,0.229-0.606c-0.007-0.437,0.286-0.812,0.204-1.25
		c-0.001-0.008,0.001-0.017,0.004-0.022c0.129-0.273,0.169-0.562,0.183-0.862c0.01-0.213,0.105-0.381,0.33-0.469
		c0.243-0.094,0.476-0.217,0.705-0.34c0.088-0.047,0.163-0.125,0.229-0.201c0.213-0.245,0.408-0.506,0.635-0.737
		c0.138-0.14,0.24-0.282,0.29-0.472c0.106-0.4,0.292-0.487,0.67-0.325c0.042,0.018,0.081,0.042,0.123,0.06
		c0.11,0.046,0.143,0.123,0.104,0.236c-0.107,0.314-0.204,0.632-0.319,0.942c-0.078,0.21-0.175,0.415-0.275,0.616
		c-0.112,0.225-0.235,0.445-0.357,0.666c-0.121,0.216-0.252,0.426-0.369,0.645c-0.042,0.079-0.057,0.171-0.081,0.259
		c-0.092,0.325-0.15,0.663-0.282,0.973c-0.139,0.325-0.101,0.632-0.037,0.951c0.033,0.169,0.092,0.339,0.09,0.51
		c-0.007,0.592,0.358,0.992,0.699,1.408c0.004,0.005,0.013,0.006,0.021,0.009c0.331,0.133,0.684,0.205,1.027,0.136
		c0.308-0.062,0.602-0.207,0.893-0.338c0.184-0.082,0.367-0.186,0.518-0.316c0.169-0.146,0.302-0.334,0.45-0.506
		c0.075-0.086,0.149-0.117,0.251-0.031c0.137,0.117,0.274,0.24,0.428,0.33c0.209,0.125,0.426,0.289,0.655,0.315
		c0.518,0.063,1.041,0.162,1.568,0.062c0.037-0.008,0.075-0.019,0.112-0.019c0.762,0.005,1.371-0.295,1.843-0.896
		c0.147-0.187,0.351-0.326,0.505-0.508c0.13-0.153,0.243-0.324,0.332-0.504c0.075-0.15,0.106-0.324,0.157-0.484
		c0.026-0.088,0.066-0.17,0.074-0.258c0.035-0.348,0.053-0.696,0.089-1.042C85.623,104.606,85.58,104.003,85.295,103.435z
		 M55.028,108.9c0.038-0.182,0.077-0.364,0.126-0.545c0.095-0.354,0.167-0.72,0.308-1.056c0.125-0.302,0.356-0.561,0.49-0.86
		c0.163-0.364,0.426-0.646,0.705-0.899c0.192-0.175,0.444-0.308,0.733-0.298c0.058-0.008,0.121-0.002,0.173-0.024
		c0.126-0.052,0.191,0.01,0.25,0.108c0.064,0.103,0.133,0.203,0.205,0.302c0.086,0.118,0.078,0.341,0.005,0.472
		c-0.061,0.108-0.085,0.235-0.137,0.353c-0.271,0.604-0.684,1.096-1.183,1.53c-0.469,0.41-0.988,0.74-1.511,1.072
		c-0.051,0.032-0.121,0.036-0.181,0.053C55.016,109.038,55.015,108.969,55.028,108.9z M63.526,104.647
		c-0.076,0.438-0.173,0.873-0.276,1.303c-0.047,0.194-0.145,0.38-0.194,0.575c-0.054,0.22-0.076,0.445-0.118,0.668
		c-0.024,0.125-0.047,0.254-0.095,0.369c-0.136,0.336-0.138,0.687-0.137,1.037c0,0.037,0.01,0.082-0.003,0.113
		c-0.154,0.344-0.266,0.707-0.544,0.982c-0.259,0.261-0.595,0.298-0.923,0.312c-0.263,0.014-0.396-0.234-0.518-0.42
		c-0.153-0.229-0.25-0.49-0.263-0.785c-0.008-0.216-0.103-0.429-0.157-0.643c-0.013-0.051-0.015-0.105-0.02-0.143
		c0.035-0.209,0.068-0.403,0.097-0.598c0.077-0.523,0.33-0.995,0.469-1.494c0.173-0.613,0.546-1.072,0.948-1.504
		c0.201-0.216,0.462-0.435,0.799-0.509c0.235-0.052,0.493-0.026,0.624,0.099C63.37,104.165,63.573,104.377,63.526,104.647z
		 M73.752,104.661c-0.111,0.327-0.235,0.65-0.329,0.983c-0.107,0.383-0.167,0.781-0.289,1.157c-0.162,0.505-0.448,0.941-0.825,1.317
		c-0.141,0.139-0.277,0.283-0.429,0.408c-0.088,0.072-0.204,0.111-0.267,0.146c-0.276-0.031-0.492-0.074-0.64-0.264
		c-0.145-0.188-0.279-0.385-0.421-0.575c-0.036-0.046-0.084-0.083-0.123-0.127c-0.017-0.021-0.029-0.048-0.031-0.071
		c-0.006-0.109,0.032-0.242-0.017-0.32c-0.175-0.283-0.114-0.571-0.067-0.862c0.073-0.455,0.147-0.909,0.218-1.366
		c0.074-0.486,0.2-0.958,0.401-1.406c0.079-0.179,0.117-0.179,0.243-0.035c0.381,0.439,0.844,0.687,1.444,0.676
		c0.326-0.006,0.653,0.048,0.981,0.074C73.771,104.411,73.812,104.483,73.752,104.661z M74.016,102.631
		c-0.032,0.302-0.168,0.584-0.146,0.901c0.011,0.18-0.15,0.291-0.334,0.286c-0.291-0.008-0.581-0.003-0.87-0.03
		c-0.11-0.01-0.234-0.071-0.319-0.145c-0.359-0.311-0.493-0.712-0.452-1.181c0.007-0.078,0.044-0.151,0.098-0.213
		c0.021-0.323,0.154-0.643,0.41-0.921c0.094-0.102,0.22-0.164,0.352-0.19c-0.018-0.012-0.031-0.037-0.047-0.055
		c0.021-0.02,0.047-0.059,0.065-0.055c0.187,0.037,0.414-0.168,0.566,0.109c0.04,0.072,0.161,0.111,0.252,0.138
		c0.231,0.068,0.306,0.22,0.266,0.493c0.035,0.138,0.052,0.334,0.133,0.498C74.057,102.398,74.029,102.512,74.016,102.631z
		 M84.045,98.952c0.025-0.058,0.109-0.089,0.166-0.133c0.036,0.052,0.079,0.102,0.108,0.159c0.107,0.209,0.103,0.414-0.008,0.626
		c-0.076,0.144-0.118,0.307-0.185,0.457c-0.009,0.019-0.12,0.018-0.121,0.011c-0.046-0.191-0.083-0.384-0.133-0.627
		C83.92,99.305,83.972,99.123,84.045,98.952z M80.556,106.355c-0.07,0.067-0.149,0.123-0.225,0.185
		c-0.031-0.097-0.061-0.19-0.094-0.285c-0.158-0.448,0.019-0.862,0.153-1.271c0.06-0.183,0.211-0.341,0.337-0.497
		c0.114-0.141,0.253-0.26,0.379-0.392c0.134-0.141,0.276-0.261,0.491-0.239c0.111,0.018,0.225,0.029,0.335,0.054
		c0.1,0.022,0.141,0.08,0.076,0.18c-0.122,0.189-0.24,0.38-0.365,0.566c-0.037,0.056-0.082,0.114-0.137,0.151
		c-0.16,0.106-0.227,0.247-0.287,0.434c-0.077,0.236-0.256,0.44-0.39,0.659c-0.065,0.106-0.125,0.218-0.189,0.324
		C80.616,106.271,80.593,106.322,80.556,106.355z M84.152,105.702c-0.052,0.088-0.121,0.155-0.043,0.264
		c0.017,0.023-0.003,0.089-0.024,0.124c-0.159,0.264-0.297,0.545-0.491,0.781c-0.166,0.199-0.396,0.346-0.597,0.518
		c-0.068,0.057-0.124,0.135-0.201,0.176c-0.167,0.093-0.343,0.168-0.514,0.252c-0.006-0.024-0.012-0.051-0.018-0.075
		c-0.436,0.169-0.787-0.122-1.177-0.197c-0.105-0.021-0.204-0.127-0.285-0.215c-0.209-0.222-0.204-0.228,0.001-0.438
		c0.016-0.018,0.035-0.033,0.042-0.054c0.261-0.729,0.808-1.295,1.135-1.984c0.016-0.034,0.03-0.073,0.057-0.098
		c0.057-0.056,0.123-0.104,0.184-0.156c0.027,0.074,0.069,0.145,0.08,0.221c0.033,0.247,0.17,0.436,0.408,0.491
		c0.164,0.038,0.313,0.026,0.435-0.149c0.232-0.331,0.281-0.682,0.221-1.066c-0.025-0.165-0.031-0.332-0.056-0.496
		c-0.017-0.106-0.046-0.213-0.084-0.314c-0.045-0.121-0.07-0.216,0.035-0.332c0.11-0.122,0.183-0.277,0.278-0.414
		c0.112-0.162,0.167-0.166,0.236,0.014c0.105,0.274,0.184,0.561,0.276,0.84c0.016,0.048,0.039,0.095,0.063,0.139
		c0.02,0.041,0.074,0.086,0.066,0.116c-0.062,0.229,0.1,0.385,0.168,0.571c0.02,0.055,0.019,0.12,0.019,0.181
		c0.002,0.161-0.035,0.333,0.007,0.481C84.461,105.207,84.301,105.45,84.152,105.702z"/>
	<path fill="#FFFFFF" d="M105.979,97.906c-0.013-0.021,0.014-0.058,0.014-0.088c0.006-0.222,0.078-0.442-0.072-0.659
		c-0.077-0.112-0.08-0.277-0.125-0.415c-0.018-0.052-0.057-0.101-0.094-0.142c-0.139-0.146-0.278-0.291-0.42-0.433
		c-0.053-0.052-0.114-0.094-0.166-0.145c-0.252-0.238-0.637-0.189-0.895-0.423c-0.045-0.041-0.168,0.005-0.255,0.014
		c-0.073,0.007-0.147,0.034-0.219,0.026c-0.166-0.016-0.33-0.067-0.494-0.067c-0.211,0.001-0.44-0.022-0.619,0.116
		c-0.131,0.102-0.253,0.182-0.428,0.166c-0.038-0.003-0.083,0.052-0.121,0.086c-0.077,0.067-0.151,0.136-0.228,0.206
		c-0.071,0.067-0.176,0.124-0.207,0.208c-0.121,0.34-0.315,0.637-0.35,1.03c-0.049,0.577,0.236,0.931,0.605,1.256
		c0.318,0.282,0.732,0.286,1.14,0.266c0.026-0.001,0.054-0.02,0.08-0.035c0.11-0.065,0.216-0.136,0.328-0.197
		c0.244-0.135,0.384-0.352,0.358-0.616c-0.014-0.132-0.142-0.319-0.261-0.358c-0.155-0.05-0.375-0.027-0.522,0.05
		c-0.163,0.086-0.297,0.045-0.436,0.009c-0.229-0.059-0.271-0.182-0.304-0.406c-0.021-0.164-0.043-0.291,0.108-0.394
		c0.015-0.009,0.004-0.055,0.002-0.083c-0.006-0.163-0.01-0.334,0.15-0.427c0.139-0.081,0.295-0.171,0.45-0.185
		c0.422-0.037,0.835,0.003,1.202,0.264c0.277,0.197,0.513,0.418,0.624,0.75c0.114,0.342,0.196,0.678,0.104,1.05
		c-0.15,0.615-0.639,0.972-1.033,1.396c-0.141,0.151-0.334,0.255-0.512,0.367c-0.369,0.229-0.752,0.415-1.178,0.52
		c-0.406,0.101-0.797,0.261-1.227,0.282c-0.306,0.015-0.567,0.209-0.886,0.242c-0.383,0.039-0.755,0.184-1.132,0.281
		c-0.491,0.126-0.984,0.241-1.471,0.38c-0.431,0.124-0.857,0.267-1.281,0.413c-0.155,0.053-0.313,0.12-0.444,0.213
		c-0.271,0.193-0.526,0.409-0.784,0.619c-0.08,0.066-0.15,0.145-0.215,0.224c-0.218,0.264-0.365,0.563-0.504,0.879
		c-0.111,0.253-0.081,0.479-0.083,0.725c-0.001,0.229-0.025,0.448,0.196,0.598c-0.041,0.193,0.09,0.316,0.196,0.444
		c0.156,0.188,0.293,0.405,0.586,0.396c0.042-0.004,0.088,0.021,0.127,0.041c0.406,0.205,0.835,0.219,1.259,0.096
		c0.185-0.053,0.374-0.162,0.511-0.299c0.099-0.097,0.144-0.273,0.159-0.42c0.011-0.11-0.057-0.233-0.107-0.344
		c-0.117-0.257-0.47-0.362-0.719-0.237c-0.209,0.105-0.424,0.2-0.644,0.282c-0.298,0.113-0.605-0.084-0.659-0.4
		c-0.061-0.365,0.089-0.668,0.263-0.967c0.022-0.038,0.062-0.07,0.1-0.093c0.789-0.47,1.645-0.761,2.538-0.951
		c0.034-0.007,0.089,0.006,0.105,0.029c0.01,0.015,0.015,0.035,0.016,0.057c0.037-0.017,0.075-0.032,0.113-0.046
		c0.164-0.055,0.336-0.071,0.507-0.06c0.29-0.167,0.605-0.245,0.943-0.218c0.089,0.007,0.201,0.035,0.263,0.176
		c0.09,0.21,0.158,0.415,0.217,0.637c0.08,0.302,0.093,0.582,0.045,0.881c-0.103,0.636-0.366,1.216-0.685,1.759
		c-0.19,0.324-0.5,0.588-0.787,0.847c-0.447,0.401-0.949,0.741-1.521,0.93c-0.731,0.242-1.494,0.332-2.262,0.267
		c-0.334-0.026-0.666-0.127-0.992-0.215c-0.195-0.054-0.379-0.145-0.57-0.215c-0.481-0.178-0.948-0.391-1.319-0.753
		c-0.257-0.249-0.475-0.538-0.706-0.815c-0.451-0.541-0.669-1.18-0.772-1.866c-0.051-0.344-0.1-0.688-0.132-1.034
		c-0.016-0.175-0.019-0.362,0.023-0.53c0.059-0.231,0.152-0.458,0.258-0.672c0.247-0.5,0.513-0.99,0.768-1.487
		c0.085-0.167,0.126-0.368,0.244-0.505c0.313-0.369,0.629-0.745,0.996-1.057c0.557-0.473,1.23-0.753,1.908-1.016
		c0.144-0.056,0.27-0.019,0.372,0.092c0.062,0.067,0.108,0.152,0.178,0.208c0.212,0.167,0.371,0.409,0.669,0.457
		c0.117,0.019,0.231,0.067,0.344,0.109c0.131,0.05,0.261,0.153,0.39,0.154c0.508,0.002,1.009-0.029,1.343-0.51
		c0.097-0.139,0.097-0.205-0.055-0.298c-0.064-0.039-0.143-0.105-0.156-0.17c-0.036-0.178-0.184-0.252-0.306-0.298
		c-0.294-0.11-0.604-0.23-0.912-0.243c-0.377-0.015-0.697-0.248-1.074-0.226c-0.041,0.003-0.102-0.044-0.124-0.084
		c-0.119-0.219-0.236-0.439-0.337-0.667c-0.027-0.061-0.005-0.147,0.012-0.217c0.005-0.022,0.083-0.052,0.101-0.041
		c0.157,0.103,0.333,0.125,0.511,0.149c0.37,0.05,0.702,0.263,1.091,0.251c0.206-0.006,0.425,0.022,0.616,0.093
		c0.425,0.156,0.842,0.062,1.26,0c0.167-0.025,0.331-0.152,0.489-0.14c0.208,0.017,0.357-0.118,0.44-0.208
		c0.288-0.313,0.531-0.669,0.767-1.025c0.274-0.416,0.336-0.889,0.301-1.377c-0.012-0.164-0.031-0.329-0.07-0.488
		c-0.07-0.283-0.144-0.569-0.357-0.79c-0.227-0.234-0.446-0.475-0.684-0.697c-0.136-0.125-0.308-0.21-0.453-0.327
		c-0.175-0.139-0.343-0.286-0.587-0.282c-0.042,0.001-0.086-0.018-0.128-0.033c-0.399-0.141-0.796-0.286-1.233-0.24
		c-0.209,0.021-0.423,0.008-0.629,0.048c-0.151,0.029-0.292,0.115-0.436,0.18c-0.157,0.07-0.32,0.131-0.463,0.225
		c-0.423,0.275-0.84,0.564-1.257,0.85c-0.043,0.03-0.08,0.071-0.108,0.115c-0.114,0.178-0.223,0.36-0.335,0.539
		c-0.31,0.5-0.507,1.042-0.608,1.621c-0.021,0.113-0.073,0.212,0.036,0.314c0.028,0.026,0.021,0.123-0.006,0.164
		c-0.019,0.029-0.097,0.03-0.148,0.027c-0.243-0.013-0.484-0.039-0.726-0.045c-0.429-0.013-0.865-0.062-1.287-0.01
		c-0.436,0.053-0.875,0.124-1.287,0.315c-0.499,0.231-0.991,0.448-1.291,0.952c-0.216,0.365-0.276,0.657-0.024,0.989
		c0.049,0.064,0.136,0.114,0.214,0.139c0.439,0.136,0.741-0.128,1.017-0.396c0.159-0.154,0.237-0.391,0.394-0.548
		c0.237-0.239,0.492-0.473,0.774-0.654c0.386-0.246,0.81-0.371,1.253-0.107c0.043,0.026,0.107,0.055,0.147,0.041
		c0.302-0.109,0.605-0.09,0.915-0.045c0.089,0.013,0.124,0.029,0.142,0.127c0.024,0.136,0.089,0.263,0.138,0.395
		c0.051,0.136,0.099,0.273,0.154,0.406c0.019,0.045,0.05,0.098,0.089,0.118c0.125,0.065,0.229,0.159,0.191,0.299
		c-0.042,0.146-0.145,0.244-0.321,0.281c-0.319,0.068-0.652,0.131-0.941,0.274c-0.242,0.12-0.449,0.307-0.715,0.409
		c-0.2,0.076-0.369,0.234-0.553,0.353c-0.106,0.069-0.232,0.116-0.321,0.202c-0.198,0.189-0.376,0.399-0.568,0.595
		c-0.083,0.083-0.184,0.148-0.268,0.229c-0.163,0.157-0.306,0.336-0.484,0.474c-0.175,0.135-0.304,0.291-0.397,0.486
		c-0.078,0.162-0.152,0.329-0.255,0.473c-0.24,0.336-0.371,0.72-0.49,1.104c-0.08,0.26-0.015,0.558-0.207,0.792
		c-0.02,0.023-0.007,0.074-0.007,0.112c-0.006,0.366-0.013,0.733-0.015,1.099c0,0.188-0.004,0.376,0.017,0.562
		c0.034,0.307,0.085,0.612,0.128,0.917c0.001,0.008-0.006,0.017-0.005,0.021c0.041,0.166,0.088,0.33,0.124,0.497
		c0.046,0.221,0.27,0.368,0.253,0.614c-0.001,0.018,0.018,0.037,0.03,0.054c0.097,0.131,0.202,0.254,0.288,0.394
		c0.089,0.144,0.132,0.323,0.245,0.443c0.178,0.191,0.385,0.363,0.601,0.51c0.307,0.213,0.662,0.338,0.973,0.562
		c0.469,0.338,1.02,0.537,1.568,0.722c0.113,0.037,0.246,0.021,0.369,0.029c0.203,0.015,0.418-0.011,0.604,0.053
		c0.314,0.104,0.6,0.01,0.898-0.041c0.195-0.032,0.397-0.05,0.596-0.049c0.358,0.002,0.714,0.026,1.072,0.03
		c0.103,0.002,0.211-0.075,0.307-0.061c0.398,0.067,0.693-0.195,1.031-0.311c0.181-0.062,0.318-0.241,0.487-0.35
		c0.265-0.171,0.542-0.322,0.811-0.488c0.246-0.151,0.472-0.352,0.735-0.461c0.323-0.133,0.408-0.502,0.71-0.639
		c0.009-0.005,0.007-0.029,0.016-0.042c0.063-0.088,0.125-0.178,0.193-0.264c0.05-0.062,0.112-0.119,0.158-0.187
		c0.159-0.228,0.311-0.459,0.469-0.686c0.227-0.325,0.395-0.676,0.54-1.044c0.06-0.147-0.036-0.263,0.031-0.395
		c0.167-0.322,0.05-0.674,0.079-1.012c0.002-0.021-0.018-0.042-0.023-0.064c-0.072-0.242-0.147-0.483-0.215-0.727
		c-0.021-0.08-0.012-0.163-0.139-0.153c-0.038,0.002-0.108-0.067-0.114-0.109c-0.006-0.043,0.041-0.108,0.082-0.139
		c0.047-0.034,0.112-0.041,0.169-0.058c0.489-0.141,0.979-0.279,1.467-0.421c0.043-0.012,0.079-0.042,0.117-0.066
		c0.221-0.145,0.432-0.304,0.661-0.431c0.413-0.229,0.804-0.483,1.132-0.827c0.145-0.152,0.324-0.277,0.442-0.448
		c0.159-0.233,0.271-0.5,0.415-0.747c0.113-0.197,0.303-0.338,0.246-0.631C105.889,98.496,106.169,98.208,105.979,97.906z
		 M95.315,94.697c0.195-0.208,0.417-0.391,0.627-0.586c0.028-0.025,0.063-0.05,0.078-0.082c0.178-0.384,0.526-0.348,0.867-0.396
		c0.333-0.047,0.646-0.025,0.966,0.037c0.375,0.073,0.777,0.094,0.989,0.488c0.14,0.26,0.251,0.558,0.192,0.835
		c-0.04,0.184-0.26,0.334-0.411,0.487c-0.209,0.211-0.499,0.233-0.767,0.298c-0.378,0.09-0.758,0.169-1.176,0.262
		c-0.406-0.082-0.83-0.164-1.253-0.253c-0.146-0.031-0.292-0.075-0.433-0.127c-0.035-0.013-0.071-0.083-0.071-0.125
		C94.929,95.199,95.097,94.93,95.315,94.697z"/>
	<path fill="#FFFFFF" d="M50.292,103.521c-0.004-0.293-0.012-0.585-0.022-0.877c-0.007-0.168,0.021-0.353-0.041-0.5
		c-0.123-0.294-0.294-0.569-0.448-0.85c-0.029-0.052-0.063-0.117-0.112-0.141c-0.254-0.132-0.515-0.251-0.773-0.378
		c-0.106-0.054-0.231-0.096-0.308-0.179c-0.159-0.17-0.345-0.243-0.57-0.263c-0.178-0.015-0.354-0.058-0.531-0.089
		c-0.227-0.039-0.454-0.077-0.718-0.123c-0.252,0.054-0.537,0.094-0.807,0.181c-0.284,0.091-0.544,0.289-0.831,0.333
		c-0.58,0.089-1.052,0.388-1.54,0.666c-0.306,0.175-0.615,0.346-0.915,0.531c-0.137,0.084-0.266,0.187-0.384,0.298
		c-0.177,0.167-0.319,0.383-0.519,0.512c-0.16,0.103-0.277,0.226-0.391,0.364c-0.067,0.082-0.126,0.172-0.203,0.244
		c-0.289,0.271-0.567,0.542-0.776,0.889c-0.304,0.503-0.652,0.979-0.981,1.466c-0.046,0.069-0.093,0.14-0.134,0.213
		c-0.267,0.471-0.521,0.949-0.803,1.41c-0.183,0.297-0.349,0.59-0.408,0.938c-0.025,0.147-0.08,0.29-0.122,0.435
		c-0.096,0.33-0.206,0.656-0.284,0.99c-0.049,0.208-0.045,0.428-0.077,0.639c-0.064,0.44-0.212,0.871-0.161,1.326
		c0.01,0.088,0.004,0.178,0,0.268c-0.012,0.283-0.026,0.564-0.039,0.849c-0.001,0.022-0.001,0.048,0.009,0.066
		c0.108,0.214,0.035,0.436,0.035,0.653c0,0.125-0.006,0.252,0.018,0.373c0.018,0.094,0.137,0.226,0.107,0.264
		c-0.13,0.18,0.001,0.332,0.006,0.494c0.009,0.416,0.134,0.805,0.253,1.195c0.032,0.106,0.021,0.23,0.07,0.325
		c0.211,0.404,0.439,0.8,0.661,1.198c0.091,0.162,0.153,0.357,0.283,0.482c0.116,0.11,0.134,0.346,0.365,0.327
		c0.387,0.378,0.861,0.548,1.392,0.593c0.247,0.021,0.492,0.071,0.74,0.086c0.273,0.017,0.549,0.023,0.822,0.004
		c0.217-0.019,0.433-0.08,0.646-0.131c0.13-0.029,0.275-0.047,0.381-0.117c0.334-0.219,0.681-0.43,0.968-0.699
		c0.248-0.235,0.424-0.546,0.628-0.826c0.061-0.084,0.096-0.188,0.166-0.261c0.37-0.39,0.772-0.749,1.002-1.248
		c0.066-0.144,0.11-0.298,0.179-0.438c0.219-0.463,0.452-0.918,0.577-1.418c0.029-0.115,0.008-0.261,0.07-0.349
		c0.359-0.511,0.277-1.125,0.422-1.687c0.008-0.026-0.006-0.06-0.004-0.09c0.015-0.242-0.1-0.472-0.118-0.693
		c-0.028-0.346-0.046-0.618-0.401-0.805c-0.043-0.021-0.095-0.043-0.149-0.06c-0.029,0.006-0.058,0.013-0.085,0.022
		c-0.027,0.008-0.131,0.055-0.101,0.037c-0.01,0.004-0.02,0.012-0.03,0.019c-0.02,0.017-0.046,0.036-0.056,0.049
		c-0.012,0.015-0.02,0.021-0.026,0.026c0,0.002-0.001,0.002-0.002,0.004c-0.026,0.041-0.054,0.082-0.078,0.123
		c-0.01,0.024-0.025,0.058-0.029,0.07c-0.015,0.049-0.028,0.096-0.041,0.146c-0.022,0.08-0.048,0.155-0.079,0.229
		c0.017,0.043,0.024,0.104,0.032,0.15c0.009,0.059,0,0.122-0.016,0.18c-0.078,0.299-0.153,0.598-0.245,0.891
		c-0.149,0.479-0.297,0.957-0.471,1.429c-0.13,0.353-0.274,0.705-0.455,1.034c-0.293,0.537-0.607,1.064-0.94,1.578
		c-0.27,0.416-0.657,0.729-1.042,1.037c-0.239,0.192-0.474,0.377-0.791,0.408c-0.166,0.016-0.33,0.038-0.495,0.041
		c-0.07,0-0.156-0.033-0.207-0.082c-0.433-0.418-0.797-0.879-0.944-1.479c-0.081-0.329-0.176-0.655-0.268-0.981
		c-0.029-0.102-0.089-0.195-0.101-0.299c-0.037-0.354-0.05-0.71-0.089-1.062c-0.086-0.775,0.099-1.533,0.155-2.301
		c0.023-0.305,0.121-0.604,0.204-0.899c0.095-0.341,0.205-0.679,0.321-1.013c0.128-0.369,0.268-0.731,0.407-1.097
		c0.151-0.392,0.299-0.784,0.465-1.171c0.103-0.232,0.277-0.439,0.352-0.679c0.182-0.578,0.551-1.028,0.92-1.482
		c0.186-0.229,0.398-0.443,0.541-0.697c0.334-0.591,0.873-0.987,1.319-1.472c0.08-0.087,0.207-0.131,0.287-0.218
		c0.293-0.318,0.673-0.481,1.066-0.621c0.208-0.073,0.429-0.171,0.64-0.161c0.378,0.018,0.718,0.129,1.024,0.42
		c0.283,0.268,0.321,0.626,0.518,0.917c0.024,0.036,0.013,0.105,0.003,0.156c-0.04,0.212-0.079,0.425-0.131,0.634
		c-0.108,0.434-0.129,0.894-0.416,1.273c-0.335,0.444-0.627,0.922-0.985,1.345c-0.311,0.366-0.489,0.744-0.434,1.229
		c0.012,0.103,0.085,0.142,0.129,0.211c0.171,0.263,0.373,0.31,0.679,0.266c0.309-0.046,0.601-0.122,0.868-0.262
		c0.466-0.241,0.743-0.702,1.102-1.063c0.286-0.288,0.495-0.677,0.657-1.055c0.246-0.578,0.43-1.183,0.624-1.784
		C50.32,103.827,50.294,103.668,50.292,103.521z"/>
	<path fill="#FFFFFF" d="M118.583,98.589c0.112-0.283,0.144-0.597,0.208-0.898c0.061-0.292,0.107-0.588,0.182-0.877
		c0.079-0.319,0.032-0.608-0.09-0.916c-0.123-0.318-0.445-0.541-0.432-0.921c0-0.024-0.055-0.062-0.09-0.077
		c-0.229-0.091-0.463-0.163-0.684-0.268c-0.298-0.142-0.574-0.328-0.878-0.455c-0.194-0.082-0.425-0.135-0.634-0.123
		c-0.427,0.023-0.854,0.092-1.275,0.154c-0.262,0.038-0.523,0.074-0.771,0.153c-0.309,0.1-0.592,0.273-0.901,0.362
		c-0.432,0.124-0.768,0.402-1.124,0.641c-0.32,0.218-0.605,0.494-0.898,0.751c-0.236,0.208-0.467,0.425-0.694,0.644
		c-0.183,0.175-0.351,0.369-0.539,0.537c-0.118,0.105-0.245,0.176-0.304,0.35c-0.053,0.157-0.178,0.3-0.299,0.418
		c-0.154,0.148-0.293,0.292-0.404,0.48c-0.146,0.244-0.34,0.444-0.457,0.725c-0.212,0.509-0.52,0.978-0.784,1.464
		c-0.063,0.119-0.128,0.237-0.185,0.36c-0.108,0.239-0.23,0.475-0.312,0.725c-0.074,0.242-0.082,0.507-0.238,0.723
		c-0.021,0.029-0.039,0.072-0.033,0.104c0.07,0.36-0.148,0.666-0.199,1.004c-0.029,0.195-0.1,0.391-0.129,0.595
		c-0.028,0.197-0.102,0.387-0.157,0.58c-0.019,0.058-0.069,0.126-0.052,0.168c0.056,0.137,0.021,0.274,0.035,0.41
		c0.031,0.333-0.068,0.665,0.02,1.004c0.064,0.244,0.035,0.515,0.039,0.773c0.003,0.155-0.062,0.334-0.007,0.465
		c0.118,0.277,0.063,0.604,0.292,0.857c0.166,0.186,0.247,0.443,0.37,0.667c0.02,0.038,0.051,0.084,0.086,0.095
		c0.235,0.068,0.315,0.286,0.455,0.447c0.138,0.158,0.243,0.354,0.497,0.385c0.158,0.02,0.341,0.068,0.455,0.17
		c0.236,0.211,0.531,0.329,0.808,0.394c0.429,0.101,0.885,0.11,1.327,0.104c0.34-0.004,0.679-0.088,1.02-0.136
		c0.016-0.002,0.032-0.001,0.043-0.009c0.301-0.171,0.603-0.34,0.896-0.514c0.098-0.058,0.181-0.141,0.271-0.205
		c0.248-0.178,0.5-0.351,0.637-0.637c0.041-0.082,0.07-0.178,0.133-0.234c0.337-0.299,0.472-0.732,0.729-1.086
		c0.312-0.428,0.553-0.906,0.817-1.367c0.044-0.079,0.046-0.182,0.06-0.241c0.049-0.021,0.113-0.028,0.133-0.062
		c0.094-0.176,0.179-0.356,0.263-0.537c0.172-0.368,0.345-0.736,0.435-1.137c0.008-0.043,0.028-0.083,0.049-0.124
		c0.18-0.39,0.321-0.773,0.137-1.214c-0.07-0.166-0.139-0.302-0.313-0.304c-0.181-0.002-0.337,0.091-0.411,0.272
		c-0.064,0.16-0.135,0.322-0.177,0.488c-0.155,0.613-0.345,1.211-0.649,1.769c-0.266,0.483-0.513,0.978-0.781,1.458
		c-0.242,0.43-0.494,0.854-0.875,1.185c-0.291,0.255-0.555,0.543-0.848,0.793c-0.403,0.347-0.853,0.61-1.41,0.563
		c-0.168-0.014-0.351-0.051-0.493-0.135c-0.339-0.199-0.712-0.373-0.9-0.757c-0.009-0.016-0.043-0.018-0.06-0.03
		c-0.196-0.187-0.408-0.357-0.451-0.653c-0.023-0.161-0.072-0.319-0.122-0.474c-0.13-0.414-0.25-0.826-0.194-1.271
		c0.01-0.081,0.008-0.171-0.014-0.249c-0.164-0.572,0.021-1.14,0.023-1.708c0-0.051,0.031-0.101,0.045-0.153
		c0.076-0.312,0.156-0.623,0.229-0.937c0.048-0.211,0.051-0.436,0.125-0.636c0.206-0.563,0.419-1.126,0.668-1.671
		c0.137-0.299,0.344-0.566,0.528-0.84c0.399-0.594,0.794-1.19,1.214-1.77c0.212-0.294,0.438-0.6,0.723-0.818
		c0.502-0.385,0.951-0.856,1.573-1.068c0.408-0.14,0.714-0.482,1.156-0.571c0.36-0.073,0.707-0.208,1.06-0.31
		c0.051-0.015,0.107-0.012,0.159-0.002c0.185,0.033,0.377,0.052,0.552,0.116c0.141,0.052,0.299,0.134,0.385,0.25
		c0.328,0.44,0.283,0.916,0.067,1.392c-0.037,0.082-0.067,0.166-0.104,0.247c-0.088,0.189-0.155,0.39-0.267,0.563
		c-0.188,0.292-0.403,0.567-0.608,0.851c-0.188,0.263-0.375,0.525-0.559,0.791c-0.037,0.055-0.068,0.121-0.083,0.185
		c-0.024,0.147-0.041,0.297-0.054,0.446c-0.005,0.064-0.005,0.133,0.013,0.194c0.104,0.361,0.541,0.602,0.938,0.574
		c0.341-0.024,0.595-0.189,0.83-0.403c0.119-0.107,0.223-0.229,0.332-0.349c0.1-0.111,0.224-0.213,0.291-0.343
		C118.168,99.501,118.396,99.053,118.583,98.589z"/>
</g>
</svg>
