<?xml version="1.0" encoding="utf-8"?>
<!-- Generator: Adobe Illustrator 16.0.4, SVG Export Plug-In . SVG Version: 6.00 Build 0)  -->
<!DOCTYPE svg PUBLIC "-//W3C//DTD SVG 1.1//EN" "http://www.w3.org/Graphics/SVG/1.1/DTD/svg11.dtd">
<svg version="1.1" id="Layer_1" xmlns="http://www.w3.org/2000/svg" xmlns:xlink="http://www.w3.org/1999/xlink" x="0px" y="0px"
	 width="61.75px" height="37.5px" viewBox="0 0 61.75 37.5" enable-background="new 0 0 61.75 37.5" xml:space="preserve">
<g>
	<path fill="#EA4C89" d="M43.795,31.674c-3.578,3.58-7.881,5.365-12.917,5.365c-5.042,0-9.346-1.785-12.924-5.365
		c-3.579-3.58-5.372-7.885-5.372-12.924c0-5.036,1.792-9.345,5.372-12.924c3.579-3.579,7.882-5.365,12.924-5.365
		c5.036,0,9.338,1.787,12.917,5.365c3.58,3.579,5.373,7.889,5.373,12.924C49.168,23.789,47.375,28.094,43.795,31.674z
		 M31.991,18.831c0.208-0.107,0.396-0.162,0.558-0.162c-0.266-0.741-0.693-1.641-1.276-2.702
		c-4.821,1.485-10.154,2.226-15.985,2.226v0.557c0,3.977,1.327,7.449,3.98,10.416c0.104-0.211,0.279-0.488,0.511-0.834
		c0.24-0.344,0.758-1.008,1.554-1.988c0.796-0.979,1.644-1.895,2.543-2.742c0.9-0.85,2.085-1.723,3.541-2.625
		C28.872,20.076,30.4,19.361,31.991,18.831z M29.999,13.583c-0.791-1.434-1.67-2.877-2.622-4.336
		c-0.952-1.457-1.696-2.569-2.227-3.34C24.62,5.14,24.303,4.7,24.192,4.593c-2.174,1.062-4.013,2.547-5.526,4.457
		c-1.507,1.909-2.53,4.055-3.061,6.439C20.433,15.488,25.228,14.854,29.999,13.583z M21.255,30.998
		c-0.052,0-0.111-0.027-0.163-0.082c-0.052-0.051-0.103-0.105-0.155-0.158L21.255,30.998z M33.576,21.293
		c-5.72,1.965-9.804,5.172-12.244,9.623l-0.077,0.082c2.912,2.227,6.122,3.338,9.623,3.338c2.065,0,4.103-0.422,6.122-1.271
		c-0.635-3.711-1.754-7.662-3.34-11.85L33.576,21.293z M41.215,6.981c-3.023-2.599-6.465-3.896-10.336-3.896
		c-1.275,0-2.498,0.158-3.664,0.475c2.175,2.864,4.109,5.886,5.805,9.067c3.664-1.378,6.363-3.236,8.117-5.569L41.215,6.981z
		 M34.219,15.012c0.316,0.638,0.66,1.378,1.027,2.227c0.059,0.055,0.123,0.171,0.201,0.359c0.078,0.185,0.148,0.33,0.201,0.437
		c1.746-0.21,3.455-0.266,5.125-0.159c1.676,0.107,3.01,0.236,4.02,0.398c1.01,0.159,1.566,0.266,1.67,0.317
		c0-3.66-1.164-6.918-3.502-9.782l-0.316,0.398c-0.215,0.265-0.557,0.624-1.028,1.074c-0.479,0.45-1.035,0.929-1.677,1.431
		c-0.635,0.505-1.457,1.062-2.459,1.669C36.471,13.993,35.383,14.533,34.219,15.012z M36.6,20.5
		c1.379,3.922,2.389,7.635,3.021,11.131c3.715-2.436,5.943-5.908,6.688-10.416c-0.215-0.105-0.731-0.252-1.555-0.436
		c-0.822-0.188-1.986-0.348-3.5-0.48C39.744,20.17,38.191,20.234,36.6,20.5z"/>
</g>
</svg>
