<?xml version="1.0" encoding="utf-8"?>
<!-- Generator: Adobe Illustrator 16.0.4, SVG Export Plug-In . SVG Version: 6.00 Build 0)  -->
<!DOCTYPE svg PUBLIC "-//W3C//DTD SVG 1.1//EN" "http://www.w3.org/Graphics/SVG/1.1/DTD/svg11.dtd">
<svg version="1.1" id="Layer_1" xmlns="http://www.w3.org/2000/svg" xmlns:xlink="http://www.w3.org/1999/xlink" x="0px" y="0px"
	 width="61.75px" height="37.5px" viewBox="0 0 61.75 37.5" enable-background="new 0 0 61.75 37.5" xml:space="preserve">
<g>
	<g>
		<polygon fill="#FFFFFF" points="40.74,10.871 40.74,21.056 45.832,15.963 		"/>
	</g>
	<g>
		<path fill="#FFFFFF" d="M31.959,2.09c-0.578-0.579-1.589-0.579-2.169,0l-2.188,2.188h6.546L31.959,2.09z"/>
	</g>
	<g>
		<polygon fill="#FFFFFF" points="21.011,10.868 16.541,15.338 15.865,16.013 21.011,21.159 		"/>
	</g>
	<g>
		<polygon fill="#FFFFFF" points="24.291,26.495 24.389,26.396 15.75,17.758 15.75,17.955 15.75,18.211 15.75,18.814 15.75,35.033 
			24.29,26.493 		"/>
	</g>
	<g>
		<path fill="#FFFFFF" d="M43.945,34.84h-0.004L31.959,22.856c-0.578-0.579-1.589-0.579-2.169,0l-12.282,12.28h-0.002l-0.707,0.707
			h28.152l-0.279-0.278L43.945,34.84z"/>
	</g>
	<g>
		<polygon fill="#FFFFFF" points="37.309,26.346 37.457,26.495 37.461,26.493 46,35.033 46,18.211 46,17.953 46,17.655 		"/>
	</g>
	<g>
		<path fill="#FFFFFF" d="M28.86,21.926c0.538-0.538,1.253-0.834,2.015-0.834c0.761,0,1.477,0.296,2.014,0.834l0.48,0.48l3.01,3.01
			l3.045-3.045V9.555l-3.961-3.961H22.327v16.881l2.992,2.992L28.86,21.926z M26.271,9.539h9.207v1.315h-9.207V9.539z
			 M26.271,13.485h6.576V14.8h-6.576V13.485z M26.271,17.431h9.207v1.315h-9.207V17.431z"/>
	</g>
</g>
</svg>
