<?xml version="1.0" encoding="utf-8"?>
<!-- Generator: Adobe Illustrator 16.0.4, SVG Export Plug-In . SVG Version: 6.00 Build 0)  -->
<!DOCTYPE svg PUBLIC "-//W3C//DTD SVG 1.1//EN" "http://www.w3.org/Graphics/SVG/1.1/DTD/svg11.dtd">
<svg version="1.1" id="Amperbranch" xmlns="http://www.w3.org/2000/svg" xmlns:xlink="http://www.w3.org/1999/xlink" x="0px"
	 y="0px" width="200px" height="210px" viewBox="0 0 200 210" enable-background="new 0 0 200 210" xml:space="preserve">
<rect x="-51.451" y="-48" fill="#F16539" width="302.902" height="306"/>
<g>
	<g>
		<path fill="#FFFFFF" d="M61.057,100.881c0.637-0.497,1.055-1.312,1.246-2.195c0.817-3.789-2.11-4.741-3.508-4.908
			c-2.961-0.354-5.85,2.097-6.118,6.331c-0.345,5.439,3.607,6.38,5.51,6.304s4.067-0.788,4.217-2.516
			c0.15-1.729-1.857-1.78-2.132-1.5s-0.354,1.627-2.107,1.627s-1.734-2.567-1.734-2.567S59.356,102.208,61.057,100.881z
			 M56.358,100.084c0,0,0.098-3.406,2.255-3.508c1.073-0.05,0.736,1.58-0.09,2.464C57.688,99.935,56.358,100.084,56.358,100.084z
			 M75.353,104.989c0,0,2.895,2.593,5.003-1.347s2.204-9.628-1.65-9.836c-2.362-0.127-3.073,2.313-3.073,2.313
			s0.453-2.722-1.321-2.516c-0.932,0.108-1.469,0.299-1.764,0.584c-0.311-0.048-0.73-0.003-1.309,0.178
			c-0.519,0.162-2.027,0.891-4.048,3.162c-0.152-1.797,0.186-2.888-0.953-3.128c-1.429-0.301-3.369-0.692-3.332,1.137
			c0.028,1.351,0.202,3.39,1.489,5.765c-1.525,2.438-2.25,4.459-1.104,5.01c1.32,0.639,1.422-0.021,1.93-1.474
			c0.143-0.408,0.352-0.874,0.619-1.374c0.126,0.159,0.252,0.317,0.39,0.478c2.685,3.127,3.754,2.809,4.756,2.038
			c0.837-0.645-0.095-1.417-0.768-2.013c-0.663-0.587-1.591-1.534-2.305-3.392c0.417-0.458,0.875-0.92,1.396-1.379
			c1.232-1.086,2.285-1.498,3.014-1.814c0.005,2.817-0.176,7.122-0.5,9.541c-0.432,3.229-0.711,4.626,1.447,4.066
			c2.159-0.559,2.768-0.661,2.539-1.678C75.582,108.294,75.353,104.989,75.353,104.989z M76.064,98.61
			c0.85-2.397,2.729-3.043,1.956,1.245c-0.661,3.66-2.616,3.634-2.616,3.634S75.227,100.974,76.064,98.61z M83.421,106.082
			c2.179,0.439,3.499-0.406,3.194-0.737c-0.305-0.33-0.84-2.364-0.587-4.676c0.254-2.313,0.66-4.184,2.479-5.727
			c1.759-1.492,2.658-0.688,3.022-2.381c0.391-1.817-1.675-3.102-3.64-0.788c-1.996,2.351-1.947,4.881-2.201,4.881
			s0.405-2.25-1.905-2.035c-1.423,0.133-1.85,0.455-1.85,0.811s0.58,0.515,0.631,3.54C82.616,101.995,81.591,105.713,83.421,106.082
			z M87.611,99.943c-0.561,5.427,3.353,6.459,5.259,6.429c1.906-0.03,4.097-0.688,4.316-2.411c0.218-1.724-1.786-1.822-2.072-1.549
			c-0.286,0.273-0.284,1.618-2.036,1.576c-1.751-0.042-1.835-2.542-1.835-2.542s2.895,0.752,4.647-0.533
			c1.594-1.169,1.97-3.059,1.59-4.631c-0.488-2.018-2.447-2.37-3.503-2.521C91.032,93.337,88.047,95.718,87.611,99.943z
			 M93.619,96.553c1.074-0.025,0.673,1.596-0.188,2.46c-0.87,0.874-2.206,0.991-2.206,0.991S91.458,96.604,93.619,96.553z
			 M108.299,100.15c2.781,1.72,2.27,3.261,0.49,2.816c-1.357-0.338-1.152-1.173-1.645-0.965c-0.561,0.235-1.57,3.253,1.153,4.084
			c0.91,0.276,2.897,0.29,4.21-0.271c1.346-0.571,2.146-1.812,1.992-2.917c-0.295-2.142-2.102-2.814-3.479-3.586
			c-1.023-0.573-2.08-1.093-2.1-1.843c-0.021-1.034,0.611-1.304,1.137-1.277c0.808,0.042,1.018,0.797,1.008,1.079
			c-0.029,0.921-0.938,0.822-0.508,1.32c0.301,0.345,3.812-0.089,3.562-2.541c-0.144-1.412-1.972-2.241-3.953-2.127
			c-1.851,0.106-3.669,1.043-3.74,3.124C106.375,98.599,107.499,99.656,108.299,100.15z M100.246,102.964
			c-1.34-0.333-1.118-1.161-1.625-0.948c-0.573,0.241-1.784,3.32,0.888,4.167c0.892,0.282,2.88,0.297,4.228-0.273
			c1.383-0.584,2.266-1.849,2.187-2.979c-0.151-2.186-1.914-2.872-3.243-3.66c-0.984-0.584-2.011-1.115-1.979-1.881
			c0.046-1.055,0.695-1.331,1.219-1.304c0.807,0.042,0.965,0.813,0.938,1.101c-0.09,0.94-1.01,0.879-0.594,1.347
			c0.299,0.333,3.814-0.09,3.729-2.592c-0.052-1.44-1.825-2.287-3.813-2.171c-1.858,0.108-3.738,1.064-3.945,3.188
			c-0.155,1.585,0.901,2.664,1.667,3.168C102.564,101.881,101.93,103.382,100.246,102.964z M83.703,107.216
			c-2.362-0.127-3.072,2.312-3.072,2.312s0.454-2.721-1.321-2.516c-1.752,0.203-2.138,0.688-2.057,1.575
			c0.178,1.933,0,8.515-0.431,11.742c-0.433,3.228-0.712,4.626,1.447,4.065c2.159-0.562,2.769-0.66,2.54-1.68
			c-0.229-1.017-0.457-4.318-0.457-4.318s2.895,2.593,5.002-1.349C87.461,113.111,87.558,107.423,83.703,107.216z M83.018,113.266
			c-0.66,3.658-2.616,3.633-2.616,3.633s-0.177-2.516,0.66-4.879C81.912,109.621,83.792,108.977,83.018,113.266z M91.423,118.242
			c0.006-0.369-1.03-0.744-0.739-4.152c0.29-3.408,1.262-7.255-0.72-7.101c-1.454,0.112-3.145,0.597-2.894,1.192
			c0.2,0.478,0.588,1.221,0.458,3.69c-0.182,3.464-1.339,6.647,1.018,6.956C90.343,119.064,91.417,118.611,91.423,118.242z
			 M113.113,120.66c-0.754-0.029-0.84,1.14-4.149,1.134c-1.327-0.004-3.582-0.215-6.616-1.221c-1.078-0.357-2.146-0.552-2.146-0.552
			s0.261-4.562,0.551-7.062c0.289-2.479,0.983-4.312-0.783-4.212c-0.522,0.027-1.103,0.204-1.249,0.027
			c-0.203-0.242-0.722-2.014-3.183-1.534c-0.898,0.174-3.681,0.856-4.017,5.688c-0.268,3.848,1.04,5.728,2.828,5.704
			c1.995-0.024,3.066-1.491,3.066-1.491l-0.029,2.236c0,0-6.985-0.77-7.168,3.719c-0.113,2.76,2.292,3.411,4.005,3.368
			c1.518-0.036,2.786-0.436,4.062-1.858c1.088-1.211,1.48-2.438,1.48-2.438s1.107,0.088,2.657,0.865
			c2.105,1.057,4.928,2.389,7.354,2.301C113.781,125.191,113.868,120.689,113.113,120.66z M94.714,124.291
			c-1.829,0.116-1.587-1.9-0.523-2.497c1.19-0.669,2.845-0.233,2.845-0.233S96.582,124.173,94.714,124.291z M97.008,114.667
			c-1.029,2.821-2.885,1.966-2.188-1.2c0.663-3.015,2.607-2.973,2.607-2.973S97.71,112.743,97.008,114.667z M109.646,114.086
			c0.676-0.455,1.215-1.312,1.379-2.206c0.699-3.823-2.074-4.723-3.471-4.878c-2.959-0.329-5.867,2.146-6.166,6.384
			c-0.388,5.442,3.56,6.407,5.463,6.315c1.901-0.094,4.062-0.854,4.227-2.583s-1.872-1.734-2.148-1.452
			c-0.277,0.281-0.338,1.629-2.091,1.645c-1.753,0.018-1.792-2.606-1.792-2.606S107.705,115.398,109.646,114.086z M107.354,109.803
			c1.071-0.06,0.726,1.573-0.107,2.465c-0.844,0.901-2.172,1.062-2.172,1.062S105.195,109.923,107.354,109.803z M130.904,113.341
			c0.467-5.159-0.588-6.858-3.193-6.157c-1.51,0.406-1.943,1.48-2.117,1.336c-0.174-0.146,0.348-1.685-1.132-1.565
			c-1.854,0.146-2.989,0.728-3.163,1.161c-0.13,0.322,0.32,0.668,0.475,2.639c-0.135,0.081-0.274,0.16-0.42,0.229
			c-0.102,0.053-0.203,0.097-0.303,0.137c-0.25-2.01-1.225-3.977-3.062-4.051c-1.423-0.06-1.538,0.871-1.886,0.844
			c-0.351-0.029-0.842-1.223-2.18-0.467c-1.479,0.84-2.38,2.875-2.521,5.867c-0.146,2.992,1.043,5.896,4.672,5.896
			c3.482,0,4.586-3.484,4.963-5.926c0.038-0.244,0.059-0.504,0.07-0.768c0.179-0.104,0.375-0.229,0.564-0.377
			c0.053-0.039,0.1-0.084,0.146-0.128c0.004,0.414-0.006,0.87-0.028,1.388c-0.136,2.908-0.929,5.521,1.597,5.723
			c2.205,0.175,2.672-0.305,2.758-0.58c0.117-0.378-1.062,0.381-0.957-4.531c0.076-3.628,0.111-4.664,1.451-4.27
			c1.385,0.408,1.104,2.729,0.93,5.083c-0.174,2.353-0.465,4.015,1.134,4.219c1.596,0.203,2.987-0.19,3.003-0.608
			C131.723,117.924,130.406,118.854,130.904,113.341z M115.9,116.826c-1.979-0.569-0.465-5.52-0.465-5.52s0.146,1.047,1.045,1.598
			c0.609,0.375,1.451,0.35,1.451,0.35S117.814,117.378,115.9,116.826z M118.02,111.366c0,0-0.459-0.179-0.762-0.636
			c-0.304-0.463-0.445-1.209-0.021-1.398C118.077,108.955,118.02,111.366,118.02,111.366z M147.027,100.417
			c-0.242-0.843-0.945-1.436-1.967-0.77c-1.021,0.667-1.235,1.019-1.709,0.972s-0.558-0.146-0.418-0.66
			c0.137-0.514,0.938-3.171,0.478-4.683c-0.462-1.512-2.931-3.784-4.356-6.225c-1.427-2.442-1.812-3.632-2.123-4.759
			c-0.312-1.128-0.572-0.884-0.725-0.848c-0.15,0.037-0.732,0.537-0.211,2.375c0.521,1.838,1.174,2.723,1.068,2.949
			c-0.106,0.226-1.348-0.679-1.854-1.038c-0.506-0.359-0.913-0.221-1.069,0.038c-0.158,0.258-0.007,0.982,1.273,2.057
			c1.275,1.075,2.641,2.151,2.521,2.258c-0.113,0.108-0.957-0.311-1.776-0.654c-0.824-0.343-1.468-0.429-1.603-0.156
			s0.672,1.461,1.725,2.17c1.052,0.709,1.242,0.843,1.186,1.018s-1.541,0.25-1.445,0.809c0.094,0.558,1.541,0.831,1.592,1.12
			c0.049,0.289-1.454,0.87-1.295,1.533c0.158,0.663,1.424,0.793,1.466,0.963c0.04,0.17-0.943,0.906-1.251,1.38
			c-0.307,0.475-0.193,1.264,0.468,1.615c0.431,0.228,0.478,0.613,0.44,0.882c-0.035,0.269-0.045,1.221,0.535,2.233
			c0.616,1.079,0.85,1.591,0.395,2.43c-0.258,0.473-0.827,1.254-2.652,1.879c-1.936,0.661-5.583,1.502-2.08,4.147
			c1.534,1.159,3.186,1.19,4.354-0.201c1.166-1.394,1.568-3.414,2.953-4.114c2.22-1.119,5.053-2.757,5.019-4.799
			c-0.024-1.525-0.122-2.204,0.343-2.646c0.467-0.442,1.161-0.039,1.25-0.18C147.639,101.372,147.2,101.017,147.027,100.417z
			 M126.541,100.616c0.252,0.518-0.911,0.047-1.223,0.706c-0.213,0.45,1.599,1.377,2.474,1.592s1.454,0.455,0.37,0.703
			c-1.289,0.295,0.818,1.224,2.626,1.558c0.905,0.167,0.646,0.362,0.224,0.728c-0.74,0.64,1.729,1.59,2.854,1.693
			c1.896,0.182,2.88-0.033,3.409-0.307c0.703-0.362,0.295-1.107-0.205-2.021c-0.424-0.775-0.467-1.655-0.523-2.262
			c-0.025-0.291-0.443-0.539-0.604-0.878c-0.189-0.409-0.146-0.692-0.469-0.99c-0.553-0.511-2.082-0.709-4.051-0.993
			c-1.966-0.284-3.57-0.942-4.929-1.764c-1.354-0.821-2.517-2.408-2.695-1.438C123.486,98.616,126.289,100.098,126.541,100.616z"/>
	</g>
</g>
</svg>
