<?xml version="1.0" encoding="utf-8"?>
<!-- Generator: Adobe Illustrator 19.2.1, SVG Export Plug-In . SVG Version: 6.00 Build 0)  -->
<svg version="1.1" id="Layer_1" xmlns="http://www.w3.org/2000/svg" xmlns:xlink="http://www.w3.org/1999/xlink" x="0px" y="0px"
	 viewBox="0 0 61.8 37.5" style="enable-background:new 0 0 61.8 37.5;" xml:space="preserve">
<style type="text/css">
	.st0{fill:#FFFFFF;}
</style>
<g>
	<path class="st0" d="M30.9,3.8c4.9,0,5.5,0,7.4,0.1C40,4,41,4.3,41.7,4.5c0.9,0.3,1.5,0.7,2.1,1.4c0.6,0.6,1,1.2,1.4,2.1
		c0.3,0.6,0.5,1.6,0.6,3.4c0.1,1.9,0.1,2.5,0.1,7.4s0,5.5-0.1,7.4c-0.1,1.8-0.4,2.7-0.6,3.4c-0.3,0.9-0.7,1.5-1.4,2.1
		c-0.6,0.6-1.2,1-2.1,1.4c-0.6,0.3-1.6,0.5-3.4,0.6c-1.9,0.1-2.5,0.1-7.4,0.1s-5.5,0-7.4-0.1c-1.8-0.1-2.7-0.4-3.4-0.6
		c-0.9-0.3-1.5-0.7-2.1-1.4c-0.6-0.6-1-1.2-1.4-2.1c-0.3-0.6-0.5-1.6-0.6-3.4c-0.1-1.9-0.1-2.5-0.1-7.4s0-5.5,0.1-7.4
		c0.1-1.8,0.4-2.7,0.6-3.4C17,7.1,17.4,6.5,18,5.9c0.6-0.6,1.2-1,2.1-1.4c0.6-0.3,1.6-0.5,3.4-0.6C25.4,3.8,26,3.8,30.9,3.8
		 M30.9,0.5c-5,0-5.6,0-7.5,0.1c-1.9,0.1-3.3,0.4-4.4,0.8c-1.2,0.5-2.2,1.1-3.2,2.1c-1,1-1.6,2-2.1,3.2c-0.5,1.2-0.8,2.5-0.8,4.4
		c-0.1,1.9-0.1,2.6-0.1,7.5c0,5,0,5.6,0.1,7.5c0.1,1.9,0.4,3.3,0.8,4.4c0.5,1.2,1.1,2.2,2.1,3.2c1,1,2,1.6,3.2,2.1
		c1.2,0.5,2.5,0.8,4.4,0.8c1.9,0.1,2.6,0.1,7.5,0.1s5.6,0,7.5-0.1c1.9-0.1,3.3-0.4,4.4-0.8c1.2-0.5,2.2-1.1,3.2-2.1
		c1-1,1.6-2,2.1-3.2c0.5-1.2,0.8-2.5,0.8-4.4c0.1-1.9,0.1-2.6,0.1-7.5s0-5.6-0.1-7.5c-0.1-1.9-0.4-3.3-0.8-4.4
		c-0.5-1.2-1.1-2.2-2.1-3.2c-1-1-2-1.6-3.2-2.1c-1.2-0.5-2.5-0.8-4.4-0.8C36.5,0.5,35.8,0.5,30.9,0.5L30.9,0.5z"/>
	<path class="st0" d="M30.9,9.4c-5.2,0-9.4,4.2-9.4,9.4s4.2,9.4,9.4,9.4s9.4-4.2,9.4-9.4S36.1,9.4,30.9,9.4z M30.9,24.8
		c-3.4,0-6.1-2.7-6.1-6.1c0-3.4,2.7-6.1,6.1-6.1c3.4,0,6.1,2.7,6.1,6.1C37,22.1,34.2,24.8,30.9,24.8z"/>
	<circle class="st0" cx="40.6" cy="9" r="2.2"/>
</g>
</svg>
