<?xml version="1.0" encoding="utf-8"?>
<!-- Generator: Adobe Illustrator 16.0.4, SVG Export Plug-In . SVG Version: 6.00 Build 0)  -->
<!DOCTYPE svg PUBLIC "-//W3C//DTD SVG 1.1//EN" "http://www.w3.org/Graphics/SVG/1.1/DTD/svg11.dtd">
<svg version="1.1" id="Amperbranch" xmlns="http://www.w3.org/2000/svg" xmlns:xlink="http://www.w3.org/1999/xlink" x="0px"
	 y="0px" width="200px" height="210px" viewBox="0 0 200 210" enable-background="new 0 0 200 210" xml:space="preserve">
<rect x="-25.5" y="-30" fill="#303233" width="251" height="270"/>
<g>
	<g>
		<path fill="#F2F2F2" d="M48.843,90.553c7.979,0,14.447,6.469,14.447,14.447s-6.468,14.447-14.447,14.447
			c-7.979,0-14.447-6.469-14.447-14.447C34.396,97.021,40.863,90.553,48.843,90.553L48.843,90.553z M48.843,94.15
			c-5.992,0-10.85,4.856-10.85,10.85s4.856,10.85,10.85,10.85c5.991,0,10.85-4.856,10.85-10.85S54.834,94.15,48.843,94.15z"/>
		<path fill="#F2F2F2" d="M48.843,96.689c4.589,0,8.31,3.722,8.31,8.311s-3.721,8.309-8.31,8.309s-8.31-3.72-8.31-8.309
			S44.254,96.689,48.843,96.689L48.843,96.689z M46.974,99.335c-2.558,0.34-4.367,2.598-4.043,5.045
			c0.104,0.78,0.41,1.485,0.865,2.072c0.489-1.31,1.356-2.667,2.556-3.882c1.175-1.188,2.491-2.062,3.771-2.57
			C49.226,99.443,48.12,99.183,46.974,99.335L46.974,99.335z M51.668,106.455c-0.868,0.113-1.479,0.913-1.363,1.781
			c0.114,0.869,0.911,1.48,1.781,1.365c0.869-0.115,1.48-0.912,1.365-1.781C53.336,106.95,52.538,106.34,51.668,106.455z"/>
	</g>
	<g>
		<path fill="#F2F2F2" d="M79.464,114.333h10.532v4.039H74.57V92.065h4.894V114.333z"/>
		<path fill="#F2F2F2" d="M100.147,99.415c1.177,0,2.26,0.188,3.248,0.563c0.987,0.377,1.84,0.925,2.556,1.646
			s1.272,1.607,1.674,2.656c0.399,1.05,0.601,2.248,0.601,3.594c0,0.339-0.016,0.621-0.045,0.846
			c-0.031,0.225-0.086,0.4-0.164,0.528c-0.078,0.127-0.186,0.218-0.318,0.271c-0.133,0.057-0.303,0.082-0.51,0.082H95.654
			c0.133,1.916,0.648,3.323,1.546,4.223c0.898,0.896,2.087,1.347,3.566,1.347c0.729,0,1.354-0.086,1.883-0.256
			c0.526-0.17,0.988-0.356,1.382-0.563c0.395-0.205,0.741-0.395,1.038-0.563s0.584-0.255,0.863-0.255
			c0.183,0,0.34,0.035,0.475,0.109c0.133,0.071,0.246,0.176,0.345,0.31l1.31,1.637c-0.496,0.582-1.056,1.071-1.674,1.466
			c-0.617,0.395-1.265,0.709-1.938,0.944c-0.674,0.235-1.357,0.403-2.055,0.501c-0.698,0.098-1.375,0.146-2.028,0.146
			c-1.299,0-2.506-0.217-3.621-0.646c-1.116-0.43-2.086-1.066-2.911-1.91c-0.823-0.842-1.473-1.885-1.945-3.129
			c-0.475-1.242-0.71-2.684-0.71-4.32c0-1.272,0.207-2.471,0.619-3.593c0.411-1.121,1.002-2.099,1.772-2.929
			c0.771-0.831,1.71-1.489,2.82-1.976C97.5,99.658,98.753,99.415,100.147,99.415z M100.238,102.636c-1.309,0-2.335,0.37-3.074,1.108
			c-0.739,0.74-1.213,1.79-1.419,3.148h8.441c0-0.582-0.078-1.131-0.236-1.646c-0.157-0.517-0.4-0.968-0.729-1.355
			c-0.326-0.388-0.74-0.694-1.236-0.919C101.487,102.747,100.905,102.636,100.238,102.636z"/>
		<path fill="#F2F2F2" d="M111.881,118.372V99.707h2.748c0.581,0,0.964,0.271,1.146,0.816l0.31,1.475
			c0.377-0.389,0.774-0.739,1.192-1.057c0.418-0.313,0.861-0.586,1.326-0.817c0.469-0.229,0.969-0.405,1.502-0.526
			s1.115-0.183,1.746-0.183c1.02,0,1.922,0.173,2.711,0.519s1.446,0.831,1.976,1.455c0.526,0.625,0.927,1.371,1.2,2.238
			c0.271,0.867,0.408,1.821,0.408,2.866v11.879h-4.494v-11.879c0-1.142-0.264-2.023-0.791-2.648
			c-0.526-0.624-1.318-0.937-2.373-0.937c-0.776,0-1.504,0.176-2.184,0.526c-0.68,0.354-1.322,0.831-1.929,1.438v13.499H111.881z"/>
		<path fill="#F2F2F2" d="M145.7,118.372c-0.581,0-0.965-0.272-1.146-0.817l-0.363-1.803c-0.389,0.438-0.795,0.831-1.219,1.182
			c-0.427,0.354-0.883,0.655-1.375,0.91c-0.49,0.256-1.018,0.452-1.582,0.592c-0.563,0.14-1.174,0.209-1.828,0.209
			c-1.019,0-1.953-0.211-2.801-0.637c-0.851-0.424-1.58-1.04-2.193-1.847c-0.611-0.808-1.084-1.804-1.418-2.993
			c-0.334-1.188-0.5-2.546-0.5-4.074c0-1.383,0.188-2.668,0.562-3.857c0.375-1.188,0.916-2.219,1.619-3.092
			c0.704-0.873,1.547-1.556,2.529-2.047c0.98-0.491,2.086-0.737,3.31-0.737c1.045,0,1.937,0.168,2.675,0.501
			c0.74,0.333,1.401,0.779,1.983,1.338v-9.861h4.493v27.035L145.7,118.372L145.7,118.372z M139.715,115.079
			c0.935,0,1.729-0.194,2.384-0.583c0.655-0.389,1.273-0.939,1.855-1.655v-8.368c-0.51-0.618-1.064-1.056-1.664-1.31
			c-0.602-0.255-1.246-0.382-1.938-0.382c-0.68,0-1.295,0.127-1.847,0.382c-0.553,0.254-1.019,0.64-1.399,1.153
			c-0.385,0.517-0.678,1.173-0.885,1.967c-0.205,0.795-0.309,1.73-0.309,2.811c0,1.092,0.088,2.018,0.264,2.773
			c0.176,0.759,0.428,1.377,0.756,1.855c0.328,0.479,0.728,0.825,1.2,1.037C138.604,114.973,139.133,115.079,139.715,115.079z"/>
		<path fill="#F2F2F2" d="M164.384,103.345c-0.121,0.194-0.248,0.331-0.382,0.409c-0.134,0.079-0.304,0.118-0.51,0.118
			c-0.218,0-0.452-0.062-0.7-0.183c-0.249-0.121-0.537-0.258-0.863-0.408c-0.328-0.151-0.701-0.288-1.119-0.409
			s-0.912-0.183-1.482-0.183c-0.887,0-1.582,0.188-2.092,0.562c-0.51,0.377-0.764,0.869-0.764,1.475c0,0.399,0.129,0.737,0.391,1.01
			s0.605,0.513,1.037,0.719c0.43,0.207,0.918,0.393,1.465,0.556c0.546,0.164,1.104,0.343,1.673,0.537
			c0.569,0.193,1.129,0.415,1.675,0.663c0.545,0.249,1.033,0.564,1.465,0.946c0.43,0.382,0.775,0.84,1.036,1.372
			c0.261,0.535,0.392,1.179,0.392,1.93c0,0.898-0.164,1.727-0.491,2.482c-0.327,0.76-0.808,1.414-1.437,1.966
			c-0.632,0.552-1.41,0.981-2.34,1.291c-0.927,0.311-1.99,0.465-3.191,0.465c-0.644,0-1.271-0.058-1.883-0.173
			c-0.613-0.116-1.201-0.275-1.765-0.482c-0.563-0.206-1.087-0.447-1.565-0.729c-0.478-0.279-0.898-0.582-1.265-0.909l1.038-1.71
			c0.132-0.205,0.291-0.364,0.473-0.473c0.182-0.109,0.412-0.164,0.691-0.164c0.277,0,0.543,0.078,0.79,0.236
			c0.249,0.157,0.538,0.327,0.864,0.51c0.328,0.182,0.713,0.352,1.154,0.508c0.444,0.158,1.006,0.238,1.684,0.238
			c0.533,0,0.992-0.063,1.375-0.191c0.381-0.127,0.695-0.293,0.943-0.5c0.25-0.206,0.433-0.446,0.547-0.719
			c0.115-0.273,0.174-0.556,0.174-0.847c0-0.437-0.131-0.794-0.393-1.073c-0.26-0.278-0.605-0.521-1.035-0.729
			c-0.433-0.206-0.923-0.391-1.475-0.555c-0.552-0.163-1.116-0.344-1.691-0.536c-0.576-0.193-1.141-0.423-1.691-0.683
			c-0.553-0.262-1.043-0.592-1.475-0.992c-0.432-0.399-0.775-0.892-1.037-1.474c-0.26-0.581-0.392-1.284-0.392-2.11
			c0-0.765,0.151-1.491,0.456-2.184c0.303-0.691,0.748-1.294,1.336-1.81s1.321-0.929,2.202-1.237
			c0.879-0.31,1.896-0.464,3.047-0.464c1.285,0,2.455,0.212,3.511,0.637c1.055,0.425,1.935,0.982,2.639,1.675L164.384,103.345z"/>
	</g>
</g>
</svg>
