<?xml version="1.0" encoding="utf-8"?>
<!-- Generator: Adobe Illustrator 16.0.4, SVG Export Plug-In . SVG Version: 6.00 Build 0)  -->
<!DOCTYPE svg PUBLIC "-//W3C//DTD SVG 1.1//EN" "http://www.w3.org/Graphics/SVG/1.1/DTD/svg11.dtd">
<svg version="1.1" id="Amperbranch" xmlns="http://www.w3.org/2000/svg" xmlns:xlink="http://www.w3.org/1999/xlink" x="0px"
	 y="0px" width="200px" height="210px" viewBox="0 0 200 210" enable-background="new 0 0 200 210" xml:space="preserve">
<rect x="-26" y="-21" fill="#2ECC71" width="252" height="252"/>
<g enable-background="new    ">
	<path fill="#FFFFFF" d="M56.271,131.182v19.192h-3.19v-19.192H56.271z"/>
	<path fill="#FFFFFF" d="M63.748,133.262c0,0.275-0.056,0.534-0.167,0.774c-0.112,0.241-0.261,0.452-0.446,0.633
		s-0.402,0.325-0.652,0.433c-0.25,0.108-0.517,0.162-0.801,0.162c-0.275,0-0.536-0.054-0.781-0.162
		c-0.245-0.107-0.458-0.252-0.639-0.433s-0.325-0.392-0.433-0.633c-0.108-0.24-0.162-0.499-0.162-0.774
		c0-0.284,0.054-0.551,0.162-0.801c0.107-0.25,0.252-0.465,0.433-0.646c0.181-0.182,0.394-0.325,0.639-0.434
		c0.246-0.107,0.506-0.161,0.781-0.161c0.284,0,0.551,0.054,0.801,0.161c0.25,0.108,0.467,0.252,0.652,0.434
		c0.185,0.181,0.333,0.396,0.446,0.646C63.692,132.711,63.748,132.978,63.748,133.262z M63.271,137.123v13.251h-3.19v-13.251H63.271
		z"/>
	<path fill="#FFFFFF" d="M67.442,150.374v-10.849l-1.149-0.181c-0.25-0.043-0.45-0.129-0.601-0.259
		c-0.15-0.129-0.226-0.31-0.226-0.542v-1.305h1.976v-0.981c0-0.758,0.114-1.438,0.342-2.041c0.228-0.603,0.556-1.114,0.981-1.536
		c0.426-0.422,0.945-0.745,1.557-0.969c0.611-0.224,1.3-0.336,2.066-0.336c0.611,0,1.179,0.082,1.705,0.245l-0.064,1.602
		c-0.018,0.25-0.134,0.405-0.349,0.465c-0.215,0.061-0.465,0.091-0.749,0.091c-0.379,0-0.717,0.041-1.014,0.122
		c-0.297,0.082-0.549,0.225-0.755,0.427s-0.364,0.469-0.472,0.801c-0.107,0.331-0.161,0.742-0.161,1.233v0.878h3.448v2.273h-3.345
		v10.861H67.442z"/>
	<path fill="#FFFFFF" d="M81.403,136.916c0.835,0,1.604,0.134,2.306,0.4c0.702,0.268,1.306,0.657,1.814,1.169
		c0.508,0.513,0.904,1.142,1.188,1.886c0.284,0.745,0.426,1.595,0.426,2.551c0,0.241-0.011,0.441-0.032,0.601
		s-0.06,0.284-0.116,0.375c-0.056,0.09-0.131,0.154-0.226,0.193s-0.215,0.058-0.361,0.058h-8.188
		c0.095,1.361,0.46,2.359,1.098,2.997c0.637,0.637,1.481,0.955,2.532,0.955c0.517,0,0.962-0.06,1.336-0.181
		c0.375-0.12,0.702-0.254,0.981-0.4s0.525-0.279,0.736-0.4c0.211-0.12,0.416-0.181,0.613-0.181c0.129,0,0.241,0.026,0.336,0.077
		c0.095,0.052,0.176,0.125,0.246,0.22l0.93,1.163c-0.353,0.413-0.749,0.76-1.188,1.039c-0.439,0.28-0.898,0.504-1.375,0.672
		c-0.478,0.168-0.964,0.286-1.459,0.355c-0.495,0.068-0.975,0.103-1.44,0.103c-0.921,0-1.778-0.152-2.57-0.458
		s-1.481-0.758-2.066-1.356c-0.585-0.598-1.046-1.339-1.382-2.221c-0.336-0.883-0.504-1.905-0.504-3.067
		c0-0.904,0.146-1.755,0.439-2.551c0.292-0.797,0.712-1.49,1.259-2.08c0.546-0.589,1.214-1.057,2.001-1.401
		C79.524,137.089,80.413,136.916,81.403,136.916z M81.468,139.202c-0.93,0-1.658,0.263-2.183,0.788
		c-0.525,0.525-0.861,1.271-1.007,2.234h5.993c0-0.413-0.056-0.803-0.168-1.169s-0.284-0.687-0.517-0.962
		c-0.232-0.275-0.525-0.493-0.878-0.652S81.941,139.202,81.468,139.202z"/>
</g>
<g enable-background="new    ">
	<path fill="#FFFFFF" d="M97.405,139.448c-0.104,0.189-0.263,0.284-0.478,0.284c-0.129,0-0.275-0.048-0.439-0.143
		s-0.364-0.2-0.601-0.316s-0.519-0.224-0.846-0.323c-0.327-0.099-0.714-0.148-1.162-0.148c-0.388,0-0.736,0.05-1.046,0.148
		c-0.31,0.1-0.575,0.235-0.794,0.407c-0.22,0.172-0.388,0.372-0.504,0.601s-0.174,0.476-0.174,0.742c0,0.336,0.097,0.616,0.291,0.84
		c0.194,0.224,0.45,0.418,0.769,0.581c0.318,0.164,0.68,0.308,1.085,0.433s0.82,0.259,1.246,0.4c0.426,0.143,0.842,0.3,1.247,0.472
		c0.404,0.172,0.766,0.388,1.085,0.646c0.318,0.259,0.575,0.575,0.768,0.949c0.194,0.375,0.291,0.825,0.291,1.35
		c0,0.603-0.108,1.16-0.323,1.673s-0.534,0.956-0.956,1.33c-0.422,0.375-0.938,0.67-1.55,0.885s-1.317,0.323-2.118,0.323
		c-0.913,0-1.739-0.148-2.479-0.446c-0.741-0.297-1.369-0.678-1.886-1.143l0.542-0.878c0.069-0.112,0.15-0.198,0.245-0.259
		c0.095-0.06,0.22-0.09,0.375-0.09c0.155,0,0.319,0.06,0.491,0.181c0.172,0.12,0.381,0.254,0.626,0.4
		c0.246,0.146,0.542,0.279,0.891,0.4c0.349,0.12,0.786,0.181,1.311,0.181c0.448,0,0.839-0.059,1.175-0.175s0.616-0.273,0.839-0.471
		c0.224-0.198,0.39-0.427,0.498-0.685c0.107-0.259,0.161-0.534,0.161-0.827c0-0.361-0.097-0.66-0.291-0.897
		c-0.194-0.236-0.45-0.439-0.769-0.607c-0.318-0.167-0.682-0.313-1.091-0.438c-0.409-0.125-0.826-0.256-1.252-0.395
		c-0.426-0.137-0.844-0.294-1.253-0.471c-0.409-0.177-0.773-0.398-1.091-0.665c-0.319-0.268-0.575-0.597-0.769-0.988
		s-0.291-0.867-0.291-1.427c0-0.5,0.104-0.979,0.31-1.44s0.508-0.865,0.904-1.214s0.883-0.627,1.459-0.833
		c0.577-0.207,1.235-0.311,1.976-0.311c0.861,0,1.634,0.136,2.318,0.407s1.276,0.644,1.776,1.117L97.405,139.448z"/>
	<path fill="#FFFFFF" d="M105.089,150.581c-1.033,0-1.827-0.289-2.383-0.865c-0.556-0.577-0.833-1.408-0.833-2.493v-8.007h-1.576
		c-0.138,0-0.254-0.041-0.349-0.123s-0.142-0.209-0.142-0.381v-0.917l2.145-0.271l0.529-4.042c0.017-0.13,0.072-0.235,0.168-0.316
		c0.094-0.082,0.215-0.123,0.361-0.123h1.162v4.507h3.746v1.667h-3.746v7.852c0,0.552,0.133,0.961,0.4,1.228
		c0.267,0.267,0.611,0.4,1.033,0.4c0.24,0,0.449-0.032,0.627-0.097c0.176-0.065,0.328-0.136,0.458-0.214
		c0.129-0.077,0.239-0.148,0.329-0.213s0.17-0.097,0.239-0.097c0.12,0,0.228,0.073,0.323,0.22l0.671,1.098
		c-0.396,0.37-0.874,0.661-1.434,0.872S105.684,150.581,105.089,150.581z"/>
	<path fill="#FFFFFF" d="M116.053,137.084c0.957,0,1.819,0.16,2.59,0.479c0.771,0.318,1.426,0.771,1.963,1.355
		c0.539,0.586,0.951,1.294,1.24,2.125s0.433,1.759,0.433,2.783c0,1.033-0.144,1.963-0.433,2.789
		c-0.289,0.827-0.701,1.533-1.24,2.118c-0.537,0.586-1.191,1.036-1.963,1.35c-0.771,0.314-1.633,0.472-2.59,0.472
		c-0.955,0-1.818-0.157-2.589-0.472c-0.771-0.313-1.427-0.764-1.97-1.35c-0.543-0.585-0.96-1.291-1.252-2.118
		c-0.293-0.826-0.439-1.756-0.439-2.789c0-1.024,0.146-1.952,0.439-2.783c0.292-0.831,0.709-1.539,1.252-2.125
		c0.543-0.585,1.199-1.037,1.97-1.355S115.098,137.084,116.053,137.084z M116.053,148.76c1.292,0,2.256-0.433,2.894-1.298
		s0.956-2.073,0.956-3.623c0-1.559-0.318-2.772-0.956-3.642c-0.638-0.87-1.602-1.305-2.894-1.305c-0.654,0-1.223,0.112-1.704,0.336
		c-0.482,0.224-0.885,0.547-1.208,0.969c-0.322,0.422-0.563,0.94-0.723,1.556c-0.16,0.616-0.239,1.312-0.239,2.086
		c0,0.775,0.079,1.468,0.239,2.079c0.159,0.611,0.4,1.126,0.723,1.544c0.323,0.417,0.726,0.738,1.208,0.962
		C114.83,148.647,115.398,148.76,116.053,148.76z"/>
	<path fill="#FFFFFF" d="M134.045,139.615c-0.07,0.096-0.139,0.168-0.207,0.22c-0.069,0.052-0.168,0.078-0.297,0.078
		s-0.27-0.054-0.42-0.162c-0.15-0.107-0.342-0.226-0.574-0.354c-0.232-0.13-0.516-0.248-0.847-0.355s-0.738-0.161-1.22-0.161
		c-0.639,0-1.201,0.114-1.692,0.342c-0.491,0.229-0.902,0.558-1.233,0.988c-0.332,0.431-0.582,0.951-0.75,1.562
		c-0.167,0.611-0.251,1.296-0.251,2.054c0,0.792,0.091,1.496,0.271,2.111c0.182,0.616,0.436,1.133,0.763,1.55
		c0.327,0.418,0.726,0.736,1.194,0.956s0.996,0.329,1.582,0.329c0.561,0,1.021-0.066,1.383-0.2c0.361-0.133,0.662-0.282,0.903-0.445
		c0.241-0.164,0.439-0.312,0.595-0.445c0.154-0.134,0.31-0.2,0.465-0.2c0.197,0,0.344,0.073,0.438,0.219l0.646,0.84
		c-0.568,0.697-1.278,1.208-2.131,1.53c-0.852,0.323-1.752,0.484-2.699,0.484c-0.818,0-1.578-0.15-2.279-0.452
		c-0.701-0.301-1.311-0.738-1.828-1.311c-0.516-0.572-0.923-1.276-1.22-2.111c-0.298-0.835-0.446-1.787-0.446-2.854
		c0-0.973,0.137-1.873,0.407-2.699c0.271-0.827,0.667-1.539,1.188-2.138s1.164-1.065,1.931-1.401s1.645-0.504,2.635-0.504
		c0.913,0,1.722,0.148,2.429,0.446c0.705,0.297,1.33,0.717,1.872,1.259L134.045,139.615z"/>
	<path fill="#FFFFFF" d="M139.572,131.35v11.198h0.594c0.172,0,0.314-0.024,0.426-0.071c0.112-0.048,0.236-0.145,0.375-0.291
		l4.133-4.43c0.129-0.138,0.258-0.25,0.388-0.336c0.129-0.086,0.301-0.129,0.517-0.129h2.092l-4.817,5.127
		c-0.12,0.146-0.239,0.276-0.355,0.388c-0.116,0.112-0.247,0.211-0.394,0.297c0.155,0.104,0.295,0.222,0.42,0.355
		s0.243,0.286,0.355,0.458l5.114,6.458h-2.066c-0.189,0-0.352-0.036-0.484-0.109c-0.134-0.073-0.261-0.188-0.381-0.343l-4.301-5.359
		c-0.129-0.181-0.259-0.3-0.388-0.355s-0.322-0.084-0.581-0.084h-0.646v6.251h-2.312V131.35H139.572z"/>
</g>
<g>
	<path fill="#FFFFFF" d="M135.032,63.221c-0.382,2.961-1.099,5.944-2.148,8.952c-1.052,3.009-2.698,5.802-4.94,8.381
		c-2.242,2.579-4.705,4.776-7.377,6.588c-2.676,1.816-5.823,3.009-9.457,3.582c-3.631,0.575-7.303,0.384-11.025-0.572
		c0.092-1.433,0.766-2.911,2.006-4.441c1.237-1.525,2.604-2.815,4.081-3.867c1.479-1.05,3.127-2.1,4.938-3.151
		c1.812-1.05,3.08-1.742,3.8-2.078c0.716-0.333,1.312-0.594,1.792-0.789c-0.387,0-1.938,0.553-4.656,1.649
		c-2.727,1.099-5.656,2.771-8.812,5.013c-3.149,2.245-4.822,4.465-5.016,6.661c-0.383,3.725-0.193,6.925,0.573,9.599
		c0.19,0.479,0.38,1.051,0.572,1.719c0.287,1.052,0.524,2.148,0.717,3.294c0.38,1.815,0.571,3.726,0.571,5.731
		c0,3.438-0.357,6.445-1.074,9.023c-0.715,2.574-1.287,4.176-1.718,4.799c-0.43,0.621-0.788,1.074-1.073,1.355H93.06
		c0.19-0.095,0.404-0.262,0.644-0.5c0.237-0.234,0.691-0.766,1.361-1.572c0.667-0.812,1.24-1.742,1.72-2.791
		c0.475-1.055,0.931-2.483,1.36-4.303c0.429-1.812,0.645-3.816,0.645-6.016c0-1.342-0.623-2.799-1.862-4.37
		c-1.242-1.577-2.603-2.936-4.083-4.083c-1.481-1.146-3.201-2.291-5.157-3.438c-1.959-1.146-3.319-1.909-4.083-2.292
		c-0.766-0.38-1.386-0.666-1.862-0.859l3.725,2.291c2.579,1.529,5.107,3.606,7.593,6.233c2.481,2.625,3.725,5.083,3.725,7.375
		c-3.822,0.572-7.5,0.385-11.032-0.572c-3.534-0.951-6.567-2.457-9.097-4.511c-2.532-2.052-4.727-4.511-6.589-7.375
		c-1.861-2.866-3.223-5.826-4.083-8.883c-0.859-3.056-1.267-6.088-1.218-9.097c0.048-3.007,0.692-5.705,1.935-8.093
		c0,2.674,1.122,4.918,3.366,6.732c2.243,1.817,4.846,3.176,7.807,4.083c2.96,0.909,6.232,2.364,9.813,4.369
		c3.581,2.006,6.375,4.347,8.38,7.02c0-1.624,0.094-3.341,0.286-5.157c0.478-4.677,1.72-8.617,3.725-11.819
		c2.006-3.198,4.344-5.514,7.019-6.947c2.672-1.432,5.562-2.698,8.668-3.796c3.104-1.098,5.942-1.958,8.522-2.58
		c2.578-0.62,4.772-1.646,6.589-3.08c1.814-1.433,2.865-3.343,3.152-5.73C135.082,57.489,135.414,60.262,135.032,63.221z"/>
</g>
</svg>
