<?xml version="1.0" encoding="utf-8"?>
<!-- Generator: Adobe Illustrator 16.0.4, SVG Export Plug-In . SVG Version: 6.00 Build 0)  -->
<!DOCTYPE svg PUBLIC "-//W3C//DTD SVG 1.1//EN" "http://www.w3.org/Graphics/SVG/1.1/DTD/svg11.dtd">
<svg version="1.1" id="Amperbranch" xmlns="http://www.w3.org/2000/svg" xmlns:xlink="http://www.w3.org/1999/xlink" x="0px"
	 y="0px" width="200px" height="210px" viewBox="0 0 200 210" enable-background="new 0 0 200 210" xml:space="preserve">
<rect x="-26" y="-21" fill="#2ECC71" width="252" height="252"/>
<g>
	<text transform="matrix(1 0 0 1 51.1689 150.374)" fill="#FFFFFF" font-family="'Lato-Bold'" font-size="25.8303">life</text>
	<text transform="matrix(1 0 0 1 88.0283 150.374)" fill="#FFFFFF" font-family="'Lato-Regular'" font-size="25.8303">stock</text>
	<g>
		<path fill="#FFFFFF" d="M135.032,63.221c-0.382,2.961-1.099,5.944-2.148,8.952c-1.052,3.009-2.698,5.802-4.94,8.381
			c-2.243,2.579-4.705,4.776-7.377,6.588c-2.676,1.816-5.824,3.009-9.457,3.582c-3.631,0.575-7.303,0.384-11.026-0.572
			c0.092-1.433,0.765-2.911,2.006-4.441c1.237-1.525,2.603-2.815,4.081-3.867c1.479-1.05,3.127-2.1,4.939-3.151
			c1.812-1.05,3.08-1.742,3.799-2.078c0.716-0.333,1.312-0.594,1.792-0.789c-0.386,0-1.938,0.553-4.656,1.649
			c-2.726,1.099-5.657,2.771-8.812,5.013c-3.15,2.245-4.823,4.465-5.016,6.661c-0.383,3.725-0.193,6.925,0.573,9.599
			c0.19,0.479,0.38,1.051,0.572,1.719c0.287,1.052,0.524,2.148,0.717,3.294c0.38,1.815,0.571,3.726,0.571,5.731
			c0,3.438-0.357,6.445-1.074,9.023c-0.715,2.575-1.287,4.176-1.718,4.799c-0.43,0.621-0.788,1.074-1.073,1.356H93.06
			c0.19-0.095,0.404-0.262,0.644-0.5c0.237-0.235,0.691-0.766,1.361-1.573c0.667-0.812,1.24-1.742,1.72-2.791
			c0.475-1.054,0.931-2.483,1.36-4.302c0.429-1.812,0.645-3.817,0.645-6.016c0-1.341-0.623-2.798-1.862-4.37
			c-1.242-1.577-2.603-2.936-4.083-4.083c-1.481-1.146-3.201-2.291-5.157-3.438c-1.959-1.146-3.319-1.909-4.083-2.292
			c-0.766-0.38-1.386-0.666-1.862-0.859l3.725,2.291c2.579,1.529,5.107,3.606,7.593,6.233c2.481,2.626,3.725,5.083,3.725,7.375
			c-3.822,0.573-7.5,0.385-11.032-0.572c-3.534-0.951-6.567-2.457-9.097-4.511c-2.532-2.052-4.727-4.511-6.589-7.375
			c-1.861-2.866-3.223-5.826-4.083-8.883c-0.859-3.056-1.267-6.088-1.218-9.097c0.048-3.007,0.692-5.705,1.935-8.093
			c0,2.674,1.122,4.918,3.366,6.732c2.243,1.817,4.846,3.176,7.807,4.083c2.96,0.909,6.232,2.364,9.813,4.369
			c3.581,2.006,6.375,4.347,8.38,7.02c0-1.624,0.094-3.341,0.286-5.157c0.478-4.677,1.72-8.617,3.725-11.819
			c2.006-3.198,4.344-5.514,7.019-6.947c2.672-1.432,5.562-2.698,8.668-3.796c3.104-1.098,5.942-1.958,8.522-2.58
			c2.578-0.62,4.772-1.646,6.589-3.08c1.814-1.433,2.865-3.343,3.152-5.73C135.082,57.489,135.414,60.262,135.032,63.221z"/>
	</g>
</g>
</svg>
