<?xml version="1.0" encoding="utf-8"?>
<!-- Generator: Adobe Illustrator 16.0.4, SVG Export Plug-In . SVG Version: 6.00 Build 0)  -->
<!DOCTYPE svg PUBLIC "-//W3C//DTD SVG 1.1//EN" "http://www.w3.org/Graphics/SVG/1.1/DTD/svg11.dtd">
<svg version="1.1" id="Amperbranch" xmlns="http://www.w3.org/2000/svg" xmlns:xlink="http://www.w3.org/1999/xlink" x="0px"
	 y="0px" width="200px" height="210px" viewBox="0 0 200 210" enable-background="new 0 0 200 210" xml:space="preserve">
<rect x="-44.5" y="-33.5" fill="#2D313C" width="289" height="277"/>
<circle fill="#6FBCEA" cx="99.892" cy="104.9" r="58"/>
<g>
	<g>
		<line fill="none" stroke="#EA3F3F" stroke-miterlimit="10" x1="6.372" y1="146.08" x2="7.499" y2="145.09"/>
		
			<line fill="none" stroke="#EA3F3F" stroke-miterlimit="10" stroke-dasharray="2.9507,2.9507" x1="9.716" y1="143.143" x2="70.675" y2="89.584"/>
		<polyline fill="none" stroke="#EA3F3F" stroke-miterlimit="10" points="71.783,88.611 72.91,87.621 73.923,88.727 		"/>
		
			<line fill="none" stroke="#EA3F3F" stroke-miterlimit="10" stroke-dasharray="3.0877,3.0877" x1="76.008" y1="91.004" x2="95.818" y2="112.639"/>
		<polyline fill="none" stroke="#EA3F3F" stroke-miterlimit="10" points="96.861,113.775 97.874,114.883 98.649,113.6 		"/>
		
			<line fill="none" stroke="#EA3F3F" stroke-miterlimit="10" stroke-dasharray="3.0686,3.0686" x1="100.236" y1="110.973" x2="121.654" y2="75.514"/>
		<polyline fill="none" stroke="#EA3F3F" stroke-miterlimit="10" points="122.448,74.201 123.225,72.917 124.689,73.236 		"/>
		
			<line fill="none" stroke="#EA3F3F" stroke-miterlimit="10" stroke-dasharray="3.0839,3.0839" x1="127.702" y1="73.893" x2="174.406" y2="84.078"/>
		<polyline fill="none" stroke="#EA3F3F" stroke-miterlimit="10" points="175.912,84.406 177.378,84.726 178.289,83.535 		"/>
		
			<line fill="none" stroke="#EA3F3F" stroke-miterlimit="10" stroke-dasharray="3.3467,3.3467" x1="180.322" y1="80.876" x2="191.506" y2="66.256"/>
		<line fill="none" stroke="#EA3F3F" stroke-miterlimit="10" x1="192.521" y1="64.927" x2="193.434" y2="63.735"/>
	</g>
</g>
<g enable-background="new    ">
	<path fill="#64A9D2" d="M59.95,95.713l-1.88,8.874h2.834c-0.106,0.503-0.186,0.688-0.265,1.112h-2.808l-1.88,8.848h3.655
		l-0.265,1.086h-4.662l4.423-21.006h4.742c-0.106,0.477-0.185,0.688-0.292,1.086H59.95z"/>
	<path fill="#64A9D2" d="M71.87,94.627l-6.437,21.006h-2.119l2.464-21.006h1.086c-0.53,4.821-1.139,9.403-2.331,19.549h0.212
		l6.092-19.549H71.87z"/>
	<path fill="#64A9D2" d="M74.676,95.713l-1.88,8.874h2.834c-0.106,0.503-0.186,0.688-0.265,1.112h-2.808l-1.88,8.848h3.655
		l-0.265,1.086h-4.662l4.423-21.006h4.742c-0.106,0.477-0.185,0.688-0.292,1.086H74.676z"/>
	<path fill="#64A9D2" d="M83.363,102.892c-0.185,0.9-0.583,2.384-1.695,2.49c1.086,0.344,0.742,2.172,0.583,2.86
		c-0.265,1.404-0.662,3.126-0.954,4.529c-0.344,1.643-0.424,2.411-0.265,2.861H80c-0.08-0.133-0.159-0.769,0.159-2.305l1.113-5.298
		c0.292-1.51,0.132-2.278-1.298-2.331h-0.848c-0.662,3.231-1.404,6.702-2.092,9.934h-1.06l4.423-21.006h2.49
		c1.722,0,1.987,0.821,1.695,2.49L83.363,102.892z M80.476,104.587c1.113,0,1.51-0.292,1.801-1.59l1.166-5.562
		c0.212-0.979,0.318-1.695-1.006-1.722h-1.192l-1.88,8.874H80.476z"/>
	<path fill="#64A9D2" d="M88.182,113.223l3.947-18.596h1.086l-3.814,17.934c-0.186,0.848-0.371,1.986,0.715,1.986
		c1.165,0,1.589-1.007,1.801-1.881l3.841-18.039h1.06l-3.92,18.489c-0.424,1.616-1.298,2.517-2.94,2.517
		C88.288,115.554,87.864,114.652,88.182,113.223z"/>
	<path fill="#64A9D2" d="M94.539,115.633l4.424-21.006h2.569c1.351,0.026,1.774,0.45,1.774,1.298c0,0.291-0.053,0.715-0.133,1.112
		l-1.297,6.119c-0.451,1.775-1.192,2.543-2.835,2.543h-1.351c-0.663,3.231-1.404,6.702-2.093,9.934H94.539z M99.175,104.587
		c1.245-0.026,1.483-0.662,1.669-1.59l1.165-5.562c0.079-0.345,0.133-0.609,0.133-0.874c0-0.609-0.159-0.848-0.98-0.848h-1.351
		l-1.881,8.874H99.175z"/>
	<path fill="#64A9D2" d="M116.364,94.627l-6.118,21.006h-1.643l2.04-19.205c-2.543,8.026-4.371,13.669-6.12,19.205h-1.642
		l2.808-21.006h1.113c-1.723,12.608-1.855,13.298-2.649,18.701l6.225-18.701h1.298c-0.344,3.92-0.9,8.105-1.774,18.701l5.404-18.701
		H116.364z"/>
	<path fill="#64A9D2" d="M112.416,115.633l6.437-21.006h2.119l-2.463,21.006h-1.086l0.874-7.47h-2.569l-2.278,7.47H112.416z
		 M119.488,95.872l-3.391,11.205h2.331l1.352-11.205H119.488z"/>
	<path fill="#64A9D2" d="M127.699,102.892c-0.186,0.9-0.583,2.384-1.695,2.49c1.086,0.344,0.742,2.172,0.583,2.86
		c-0.265,1.404-0.662,3.126-0.953,4.529c-0.345,1.643-0.424,2.411-0.266,2.861h-1.033c-0.079-0.133-0.158-0.769,0.159-2.305
		l1.112-5.298c0.292-1.51,0.133-2.278-1.298-2.331h-0.848c-0.662,3.231-1.403,6.702-2.093,9.934h-1.06l4.424-21.006h2.49
		c1.722,0,1.986,0.821,1.695,2.49L127.699,102.892z M124.812,104.587c1.112,0,1.51-0.292,1.801-1.59l1.166-5.562
		c0.212-0.979,0.317-1.695-1.007-1.722h-1.192l-1.881,8.874H124.812z"/>
	<path fill="#64A9D2" d="M127.3,115.633l4.424-21.006h2.569c0.954,0,1.775,0.079,1.775,1.324c0,0.291-0.054,0.662-0.133,1.086
		l-3.417,16.079c-0.503,2.384-1.616,2.517-2.808,2.517H127.3z M128.545,114.547h1.271c1.298,0,1.483-0.742,1.669-1.616l3.285-15.496
		c0.053-0.317,0.105-0.583,0.105-0.821c0-0.662-0.265-0.9-1.165-0.9h-1.14L128.545,114.547z"/>
	<path fill="#64A9D2" d="M134.822,113.223c0.105-0.53,0.291-1.086,0.397-1.616h1.112l-0.345,1.219
		c-0.265,1.112-0.291,1.722,0.821,1.722s1.616-1.192,1.854-2.438c0.212-0.953,0.477-2.119,0.477-3.417
		c0-1.06-0.186-2.119-0.742-3.152c-0.635-1.191-0.874-2.331-0.874-3.549c0-1.271,0.266-2.835,0.636-4.424
		c0.397-1.643,1.378-2.94,2.994-2.94c1.695,0,2.119,0.688,1.854,2.146c-0.105,0.609-0.291,1.271-0.424,1.881h-1.086l0.291-1.219
		c0.213-1.086,0.371-1.722-0.715-1.722c-1.165,0-1.695,1.192-1.881,2.014c-0.265,1.244-0.556,2.516-0.556,3.867
		c0,1.06,0.185,2.146,0.741,3.125c0.609,1.166,0.874,2.385,0.874,3.604c0,1.403-0.344,2.967-0.636,4.37
		c-0.397,1.643-1.351,2.94-2.993,2.94C134.875,115.554,134.504,114.732,134.822,113.223z"/>
</g>
<g enable-background="new    ">
	<path fill="#FFFFFF" d="M60.268,94.76l-1.88,8.874h2.834c-0.106,0.503-0.186,0.688-0.265,1.112h-2.808l-1.88,8.848h3.655
		l-0.265,1.086h-4.662l4.423-21.006h4.742c-0.106,0.477-0.185,0.688-0.292,1.086H60.268z"/>
	<path fill="#FFFFFF" d="M72.187,93.674L65.75,114.68h-2.119l2.464-21.006h1.086c-0.53,4.821-1.139,9.403-2.331,19.549h0.212
		l6.092-19.549H72.187z"/>
	<path fill="#FFFFFF" d="M74.993,94.76l-1.88,8.874h2.834c-0.106,0.503-0.186,0.688-0.265,1.112h-2.808l-1.88,8.848h3.655
		l-0.265,1.086h-4.662l4.423-21.006h4.742c-0.106,0.477-0.185,0.688-0.292,1.086H74.993z"/>
	<path fill="#FFFFFF" d="M83.681,101.938c-0.185,0.9-0.583,2.384-1.695,2.49c1.086,0.344,0.742,2.172,0.583,2.86
		c-0.265,1.404-0.662,3.126-0.954,4.529c-0.344,1.643-0.424,2.411-0.265,2.861h-1.033c-0.08-0.133-0.159-0.769,0.159-2.305
		l1.113-5.298c0.292-1.51,0.132-2.278-1.298-2.331h-0.848c-0.662,3.231-1.404,6.702-2.092,9.934h-1.06l4.423-21.006h2.49
		c1.722,0,1.987,0.821,1.695,2.49L83.681,101.938z M80.793,103.634c1.113,0,1.51-0.292,1.801-1.59l1.166-5.562
		c0.212-0.979,0.318-1.695-1.006-1.722h-1.192l-1.88,8.874H80.793z"/>
	<path fill="#FFFFFF" d="M88.5,112.27l3.947-18.596h1.086l-3.814,17.934c-0.186,0.848-0.371,1.986,0.715,1.986
		c1.165,0,1.589-1.007,1.801-1.881l3.841-18.039h1.06l-3.92,18.489c-0.424,1.616-1.298,2.517-2.94,2.517
		C88.605,114.601,88.182,113.699,88.5,112.27z"/>
	<path fill="#FFFFFF" d="M94.856,114.68l4.424-21.006h2.569c1.351,0.026,1.774,0.45,1.774,1.298c0,0.291-0.053,0.715-0.132,1.112
		l-1.299,6.119c-0.449,1.775-1.191,2.543-2.834,2.543h-1.351c-0.663,3.231-1.404,6.702-2.093,9.934H94.856z M99.492,103.634
		c1.244-0.026,1.483-0.662,1.668-1.59l1.166-5.562c0.08-0.345,0.133-0.609,0.133-0.874c0-0.609-0.159-0.848-0.98-0.848h-1.351
		l-1.881,8.874H99.492z"/>
	<path fill="#FFFFFF" d="M116.682,93.674l-6.118,21.006h-1.643l2.04-19.205c-2.543,8.026-4.371,13.669-6.119,19.205h-1.643
		l2.808-21.006h1.112c-1.722,12.608-1.854,13.298-2.648,18.701l6.225-18.701h1.298c-0.344,3.92-0.9,8.105-1.774,18.701l5.404-18.701
		H116.682z"/>
	<path fill="#FFFFFF" d="M112.733,114.68l6.437-21.006h2.119l-2.463,21.006h-1.086l0.874-7.47h-2.569l-2.278,7.47H112.733z
		 M119.806,94.919l-3.391,11.205h2.331l1.352-11.205H119.806z"/>
	<path fill="#FFFFFF" d="M128.017,101.938c-0.186,0.9-0.583,2.384-1.695,2.49c1.086,0.344,0.742,2.172,0.583,2.86
		c-0.265,1.404-0.662,3.126-0.953,4.529c-0.345,1.643-0.424,2.411-0.266,2.861h-1.033c-0.079-0.133-0.158-0.769,0.159-2.305
		l1.112-5.298c0.292-1.51,0.133-2.278-1.298-2.331h-0.848c-0.662,3.231-1.403,6.702-2.093,9.934h-1.06l4.424-21.006h2.49
		c1.722,0,1.986,0.821,1.695,2.49L128.017,101.938z M125.13,103.634c1.112,0,1.51-0.292,1.801-1.59l1.166-5.562
		c0.212-0.979,0.317-1.695-1.007-1.722h-1.192l-1.881,8.874H125.13z"/>
	<path fill="#FFFFFF" d="M127.617,114.68l4.424-21.006h2.569c0.954,0,1.775,0.079,1.775,1.324c0,0.291-0.054,0.662-0.133,1.086
		l-3.417,16.079c-0.503,2.384-1.616,2.517-2.808,2.517H127.617z M128.862,113.594h1.271c1.298,0,1.483-0.742,1.669-1.616
		l3.285-15.496c0.053-0.317,0.105-0.583,0.105-0.821c0-0.662-0.265-0.9-1.165-0.9h-1.14L128.862,113.594z"/>
	<path fill="#FFFFFF" d="M135.14,112.27c0.105-0.53,0.291-1.086,0.397-1.616h1.112l-0.345,1.219
		c-0.265,1.112-0.291,1.722,0.821,1.722s1.616-1.192,1.854-2.438c0.212-0.953,0.477-2.119,0.477-3.417
		c0-1.06-0.186-2.119-0.742-3.152c-0.635-1.191-0.874-2.331-0.874-3.549c0-1.271,0.266-2.835,0.636-4.424
		c0.397-1.643,1.378-2.94,2.994-2.94c1.695,0,2.119,0.688,1.854,2.146c-0.105,0.609-0.291,1.271-0.424,1.881h-1.086l0.291-1.219
		c0.213-1.086,0.371-1.722-0.715-1.722c-1.165,0-1.695,1.192-1.881,2.014c-0.265,1.244-0.556,2.516-0.556,3.867
		c0,1.06,0.185,2.146,0.741,3.125c0.609,1.166,0.874,2.385,0.874,3.604c0,1.403-0.344,2.967-0.636,4.37
		c-0.397,1.643-1.351,2.94-2.993,2.94C135.192,114.601,134.821,113.779,135.14,112.27z"/>
</g>
<g>
	<defs>
		<circle id="SVGID_1_" cx="99.892" cy="105.067" r="58"/>
	</defs>
	<clipPath id="SVGID_2_">
		<use xlink:href="#SVGID_1_"  overflow="visible"/>
	</clipPath>
	<g clip-path="url(#SVGID_2_)">
		<g>
			<defs>
				<rect id="SVGID_3_" x="43.5" y="50.5" width="113" height="113"/>
			</defs>
			<clipPath id="SVGID_4_">
				<use xlink:href="#SVGID_3_"  overflow="visible"/>
			</clipPath>
			<g clip-path="url(#SVGID_4_)">
				
					<rect x="71.275" y="136.948" transform="matrix(-0.6274 -0.7787 0.7787 -0.6274 36.3176 354.8141)" fill="#28486B" width="63.542" height="63.541"/>
				
					<rect x="76.178" y="137.284" transform="matrix(-0.7071 -0.7071 0.7071 -0.7071 64.7373 364.9249)" fill="#376E9C" width="63.539" height="63.541"/>
				
					<rect x="110.749" y="141.086" transform="matrix(0.6274 -0.7787 0.7787 0.6274 -81.4999 175.3853)" fill="#132B46" width="63.542" height="63.541"/>
				
					<rect x="105.855" y="141.419" transform="matrix(0.7071 -0.7071 0.7071 0.7071 -82.1542 148.0421)" fill="#244262" width="63.54" height="63.542"/>
				<g>
					
						<rect x="43.634" y="129.64" transform="matrix(-0.6274 -0.7787 0.7787 -0.6274 -2.9771 321.3948)" fill="#284668" width="63.539" height="63.54"/>
					
						<rect x="48.538" y="129.978" transform="matrix(-0.7071 -0.7071 0.7071 -0.7071 22.7205 332.9072)" fill="#315780" width="63.54" height="63.54"/>
				</g>
			</g>
		</g>
	</g>
</g>
</svg>
