<svg xmlns="http://www.w3.org/2000/svg" width="220" height="220" viewBox="0 0 220 220"><g fill="#fff"><path d="M26.479 71.609l-4.531 13.862-13.061 4.267 12.528 5.065 5.064 12.79 4.799-13.056 12.792-4.933-12.792-4.666zM45.937 62.013s5.334-3.198 7.999-7.728c0 0 2.396 5.596 7.727 7.728 0 0-6.663 4.267-7.867 7.999 0 0-2.263-5.329-7.859-7.999zM1.48 46.326s4.055-2.43 6.081-5.877c0 0 1.82 4.258 5.873 5.877 0 0-5.063 3.24-5.976 6.078 0 0-1.723-4.05-5.978-6.078z"/></g><path fill="#7FD2EF" d="M191.384 176.62M86.093 176.62"/><path fill="#fff" d="M67.43 189.354c1.26.432 2.604.655 4.003.642l135.288-1.649c1.398-.01 2.739-.272 3.987-.732 2.384-.881 4.419-2.506 5.804-4.592 1.287-1.928 2.036-4.256 2.008-6.752l-.877-71.278c-.02-1.955-.449-3.864-1.252-5.606l-4.298-5.424-3.444-3.137-63.609-57.96c-4.552-3.883-11.274-3.805-15.724.186l-62.184 59.488-3.367 3.228-4.16 5.522c-.751 1.762-1.146 3.68-1.118 5.638l.863 71.272c.03 2.501.827 4.812 2.161 6.71 0 0 1.916 3.807 5.919 4.444z"/><path fill="#314D5C" d="M69.38 106.585c.017 1.703.396 3.362 1.086 4.87l3.731 4.707 2.993 2.73 55.251 50.348c3.949 3.367 9.789 3.298 13.645-.167l54.027-51.673 2.922-2.795 3.605-4.811c.655-1.522.998-3.198.979-4.894l-138.239 1.685z"/><path fill="#7FD2EF" d="M191.148 121.766v-54.857h-105.293v57.132l.022 2.766 46.566 42.435c3.949 3.366 9.787 3.298 13.644-.167l45.188-43.223-.127-4.086z"/><circle opacity=".1" fill="#fff" cx="111.75" cy="139.25" r="12.75"/><path opacity=".2" fill="#fff" d="M95 76h86.5v39h-86.5z"/><path opacity=".1" fill="#fff" d="M128 126.5h53.5v6.5h-53.5zM128 136h53.5v6.5h-53.5zM128 145.5h53.5v6.5h-53.5zM95 157.5h86.5v6.5h-86.5z"/></svg>