<?xml version="1.0" encoding="utf-8"?>
<!-- Generator: Adobe Illustrator 16.0.4, SVG Export Plug-In . SVG Version: 6.00 Build 0)  -->
<!DOCTYPE svg PUBLIC "-//W3C//DTD SVG 1.1//EN" "http://www.w3.org/Graphics/SVG/1.1/DTD/svg11.dtd">
<svg version="1.1" id="Amperbranch" xmlns="http://www.w3.org/2000/svg" xmlns:xlink="http://www.w3.org/1999/xlink" x="0px"
	 y="0px" width="200px" height="210px" viewBox="0 0 200 210" enable-background="new 0 0 200 210" xml:space="preserve">
<rect x="-28.167" y="-6.5" fill="#B0E0EC" width="255.333" height="219.333"/>
<g>
	<rect x="58.037" y="85.335" fill="#5E5D5E" width="77.842" height="52.44"/>
	<rect x="64.183" y="92.3" fill="#FFFFFF" width="65.96" height="39.2"/>
	<rect x="77.293" y="79.188" fill="#FFFFFF" width="65.959" height="39.2"/>
	<polygon fill="#5E5D5E" points="67.25,82.536 51.011,82.536 51.011,79.122 67.25,79.122 71.147,79.124 71.147,75.639 66.5,75.639 
		51.011,75.639 51.011,72.225 66.5,72.225 71.147,72.225 148.988,72.225 148.988,124.665 71.147,124.665 71.147,83.406 
		71.125,82.536 	"/>
	<rect x="77.497" y="79.189" fill="#FFFFFF" width="65.96" height="39.201"/>
	<rect x="100.545" y="95.167" fill="#EF836E" width="19.766" height="3.622"/>
	<rect x="100.545" y="101.895" fill="#EF836E" width="19.766" height="3.621"/>
	<path fill="#EF836E" d="M136.838,93.828h-9.793v-7.387h9.793V93.828L136.838,93.828z"/>
</g>
<g>
	<g>
		<path fill="#929497" d="M316.59,132.771c0,3.833-3.109,6.947-6.948,6.947c-3.836,0-6.948-3.114-6.948-6.947
			c0-3.838,3.112-6.947,6.948-6.947C313.48,125.824,316.59,128.934,316.59,132.771z"/>
		<path fill="#58595B" d="M286.855,134.875c3.095,3.094,3.095,8.11,0,11.205c-3.096,3.093-8.109,3.093-11.203,0
			c-3.091-3.095-3.091-8.111,0-11.205C278.746,131.785,283.76,131.785,286.855,134.875z"/>
		<path fill="#333333" d="M264.737,156.555c5.247,0,9.506,4.254,9.506,9.505c0,5.249-4.259,9.503-9.506,9.503
			c-5.248,0-9.503-4.254-9.509-9.503C255.229,160.809,259.489,156.555,264.737,156.555z"/>
		<path fill="#FAAF40" d="M266.502,189.853c4.275-4.27,11.206-4.27,15.483,0c4.277,4.284,4.277,11.219,0,15.496
			c-4.277,4.27-11.208,4.264-15.488,0C262.222,201.071,262.225,194.132,266.502,189.853z"/>
		<path fill="#F6921E" d="M292.106,215.481c0-6.762,5.481-12.24,12.238-12.24c6.764,0,12.243,5.479,12.249,12.248
			c-0.006,6.754-5.485,12.232-12.246,12.24C297.588,227.729,292.108,222.243,292.106,215.481z"/>
		<path fill="#39B1E5" d="M340.323,152.129c-2.413,2.418-6.334,2.418-8.751,0c-2.415-2.418-2.419-6.336,0-8.755
			c2.417-2.413,6.338-2.417,8.751,0C342.74,145.793,342.74,149.711,340.323,152.129z"/>
	</g>
	<g>
		<path fill="#333333" d="M289.177,190.221v-27.225c0-2.385,0.628-4.173,1.887-5.365c1.193-1.126,3.146-1.689,5.863-1.689
			c0.661,0,1.191,0.034,1.59,0.1c0.728,0,1.292,0.034,1.688,0.1v5.465h-1.788c-0.929,0-1.59,0.133-1.987,0.396
			c-0.332,0.266-0.496,0.796-0.496,1.591v1.788h4.271v1.49c0,0.994-0.332,1.806-0.994,2.436c-0.662,0.629-1.425,0.943-2.284,0.943
			h-0.993v19.971H289.177z"/>
		<path fill="#333333" d="M326.023,190.221h-6.856v-15.5v-1.391c0-1.59-0.481-2.748-1.44-3.479
			c-0.961-0.728-2.037-1.092-3.229-1.092c-1.193,0-2.253,0.364-3.18,1.092c-0.929,0.73-1.392,1.889-1.392,3.479v16.891h-6.955v-15.5
			c0-4.504,1.175-7.518,3.527-9.041c2.351-1.523,4.951-2.352,7.8-2.484c1.523,0,3.014,0.166,4.472,0.496
			c1.456,0.333,2.782,0.994,3.974,1.988c0.994-0.861,2.169-1.475,3.527-1.839c1.357-0.363,2.766-0.579,4.224-0.646
			c2.913,0,5.597,0.762,8.047,2.285c2.451,1.524,3.678,4.604,3.678,9.24v15.5h-3.479c-0.993,0-1.805-0.312-2.434-0.943
			c-0.63-0.63-0.944-1.44-0.944-2.435V173.33c0-1.59-0.481-2.748-1.44-3.479c-0.961-0.728-2.037-1.092-3.23-1.092
			c-1.191,0-2.269,0.364-3.228,1.092c-0.961,0.73-1.441,1.889-1.441,3.479v1.391V190.221z"/>
	</g>
	<circle fill="#333333" cx="299.783" cy="188.071" r="2.081"/>
	<circle fill="#333333" cx="345.959" cy="188.071" r="2.08"/>
</g>
</svg>
