<svg xmlns="http://www.w3.org/2000/svg" width="200" height="210" viewBox="0 0 200 210"><path fill="#B0E0EC" d="M-28.167-6.5h255.333v219.333h-255.333z"/><path fill="#5E5D5E" d="M58.037 85.335h77.842v52.44h-77.842z"/><path fill="#fff" d="M64.183 92.3h65.96v39.2h-65.96zM77.293 79.188h65.959v39.2h-65.959z"/><path fill="#5E5D5E" d="M67.25 82.536h-16.239v-3.414h16.239l3.897.002v-3.485h-20.136000000000003v-3.414h97.977v52.44h-77.841v-41.259l-.022-.87z"/><path fill="#fff" d="M77.497 79.189h65.96v39.201h-65.96z"/><path fill="#EF836E" d="M100.545 95.167h19.766v3.622h-19.766zM100.545 101.895h19.766v3.621h-19.766zM136.838 93.828h-9.793v-7.387h9.793v7.387z"/><path fill="#929497" d="M316.59 132.771c0 3.833-3.109 6.947-6.948 6.947-3.836 0-6.948-3.114-6.948-6.947 0-3.838 3.112-6.947 6.948-6.947 3.838 0 6.948 3.11 6.948 6.947z"/><path fill="#58595B" d="M286.855 134.875c3.095 3.094 3.095 8.11 0 11.205-3.096 3.093-8.109 3.093-11.203 0-3.091-3.095-3.091-8.111 0-11.205 3.094-3.09 8.108-3.09 11.203 0z"/><path fill="#333" d="M264.737 156.555c5.247 0 9.506 4.254 9.506 9.505 0 5.249-4.259 9.503-9.506 9.503-5.248 0-9.503-4.254-9.509-9.503.001-5.251 4.261-9.505 9.509-9.505z"/><path fill="#FAAF40" d="M266.502 189.853c4.275-4.27 11.206-4.27 15.483 0 4.277 4.284 4.277 11.219 0 15.496-4.277 4.27-11.208 4.264-15.488 0-4.275-4.278-4.272-11.217.005-15.496z"/><path fill="#F6921E" d="M292.106 215.481c0-6.762 5.481-12.24 12.238-12.24 6.764 0 12.243 5.479 12.249 12.248-.006 6.754-5.485 12.232-12.246 12.24-6.759 0-12.239-5.486-12.241-12.248z"/><path fill="#39B1E5" d="M340.323 152.129c-2.413 2.418-6.334 2.418-8.751 0-2.415-2.418-2.419-6.336 0-8.755 2.417-2.413 6.338-2.417 8.751 0 2.417 2.419 2.417 6.337 0 8.755z"/><g fill="#333"><path d="M289.177 190.221v-27.225c0-2.385.628-4.173 1.887-5.365 1.193-1.126 3.146-1.689 5.863-1.689.661 0 1.191.034 1.59.1.728 0 1.292.034 1.688.1v5.465h-1.788c-.929 0-1.59.133-1.987.396-.332.266-.496.796-.496 1.591v1.788h4.271v1.49c0 .994-.332 1.806-.994 2.436-.662.629-1.425.943-2.284.943h-.993v19.971h-6.757zM326.023 190.221h-6.856v-16.891c0-1.59-.481-2.748-1.44-3.479-.961-.728-2.037-1.092-3.229-1.092-1.193 0-2.253.364-3.18 1.092-.929.73-1.392 1.889-1.392 3.479v16.891h-6.955v-15.5c0-4.504 1.175-7.518 3.527-9.041 2.351-1.523 4.951-2.352 7.8-2.484 1.523 0 3.014.166 4.472.496 1.456.333 2.782.994 3.974 1.988.994-.861 2.169-1.475 3.527-1.839 1.357-.363 2.766-.579 4.224-.646 2.913 0 5.597.762 8.047 2.285 2.451 1.524 3.678 4.604 3.678 9.24v15.5h-3.479c-.993 0-1.805-.312-2.434-.943-.63-.63-.944-1.44-.944-2.435v-13.512c0-1.59-.481-2.748-1.44-3.479-.961-.728-2.037-1.092-3.23-1.092-1.191 0-2.269.364-3.228 1.092-.961.73-1.441 1.889-1.441 3.479v16.891z"/></g><circle fill="#333" cx="299.783" cy="188.071" r="2.081"/><circle fill="#333" cx="345.959" cy="188.071" r="2.08"/></svg>