<?xml version="1.0" encoding="utf-8"?>
<!-- Generator: Adobe Illustrator 19.2.1, SVG Export Plug-In . SVG Version: 6.00 Build 0)  -->
<svg version="1.1" id="Layer_1" xmlns="http://www.w3.org/2000/svg" xmlns:xlink="http://www.w3.org/1999/xlink" x="0px" y="0px"
	 viewBox="0 0 61.8 37.5" style="enable-background:new 0 0 61.8 37.5;" xml:space="preserve">
<style type="text/css">
	.st0{fill:#FFFFFF;}
</style>
<g>
	<path class="st0" d="M16.4,24.1c0,0.1-0.1,0.1-0.3,0.1c-0.1,0-0.2,0-0.3-0.1l-0.4-2.2l0.4-2.2c0.1-0.1,0.2-0.1,0.3-0.1
		c0.2,0,0.3,0,0.3,0.1l0.5,2.2C16.9,21.9,16.4,24.1,16.4,24.1z M19.5,25.3c0,0.2-0.1,0.3-0.4,0.3c-0.2,0-0.4-0.1-0.4-0.3l-0.4-3.4
		l0.4-5.2c0-0.2,0.1-0.3,0.4-0.3c0.2,0,0.4,0.1,0.4,0.3l0.4,5.2L19.5,25.3z M22.7,25.2c0,0.2-0.1,0.3-0.4,0.3
		c-0.3,0-0.4-0.1-0.4-0.3l-0.3-3.4l0.3-6.9c0-0.2,0.1-0.3,0.4-0.3c0.3,0,0.4,0.1,0.4,0.3l0.4,6.9L22.7,25.2z M25.9,25.2
		c0,0.2-0.2,0.3-0.5,0.3c-0.3,0-0.5-0.1-0.5-0.3l-0.2-3.3l0.2-7c0-0.2,0.2-0.3,0.5-0.3c0.3,0,0.5,0.1,0.5,0.3l0.3,7L25.9,25.2z
		 M29.1,25.2c0,0.3-0.2,0.4-0.6,0.4c-0.3,0-0.5-0.1-0.6-0.4l-0.2-3.2l0.2-8c0.1-0.3,0.3-0.4,0.6-0.4c0.4,0,0.6,0.1,0.6,0.4l0.2,8
		L29.1,25.2z M31.3,25.5c-0.3,0-0.4-0.1-0.4-0.4V12.8c0-0.2,0.1-0.4,0.4-0.4c0.8-0.3,1.6-0.4,2.6-0.4c1.8,0,3.4,0.6,4.8,1.8
		c1.3,1.2,2.1,2.7,2.3,4.4c0.5-0.2,1-0.3,1.6-0.3c1.1,0,2,0.4,2.8,1.2c0.8,0.8,1.2,1.7,1.2,2.7c0,1.1-0.4,2-1.2,2.8
		c-0.8,0.8-1.7,1.2-2.8,1.2C42.5,25.6,31.3,25.5,31.3,25.5z"/>
</g>
</svg>
