<?xml version="1.0" encoding="utf-8"?>
<!-- Generator: Adobe Illustrator 16.0.4, SVG Export Plug-In . SVG Version: 6.00 Build 0)  -->
<!DOCTYPE svg PUBLIC "-//W3C//DTD SVG 1.1//EN" "http://www.w3.org/Graphics/SVG/1.1/DTD/svg11.dtd">
<svg version="1.1" id="Layer_1" xmlns="http://www.w3.org/2000/svg" xmlns:xlink="http://www.w3.org/1999/xlink" x="0px" y="0px"
	 width="61.75px" height="37.5px" viewBox="0 0 61.75 37.5" enable-background="new 0 0 61.75 37.5" xml:space="preserve">
<g>
	<path fill="#FFFFFF" d="M3.134,28.992c0,0.159-0.195,0.237-0.591,0.237c-0.242,0-0.437-0.078-0.601-0.237L1.109,24.82l0.833-4.283
		c0.164-0.159,0.358-0.242,0.601-0.242c0.396,0,0.591,0.083,0.591,0.242l0.959,4.283L3.134,28.992z M9.21,31.25
		c0,0.319-0.242,0.479-0.717,0.479c-0.475,0-0.708-0.16-0.708-0.479l-0.717-6.43l0.717-9.878c0-0.32,0.233-0.48,0.708-0.48
		c0.475,0,0.717,0.16,0.717,0.48l0.833,9.878L9.21,31.25z M15.286,31.134c0,0.397-0.282,0.596-0.833,0.596
		c-0.562,0-0.833-0.16-0.833-0.479l-0.602-6.43l0.602-13.217c0-0.392,0.271-0.591,0.833-0.591c0.552,0,0.833,0.199,0.833,0.591
		l0.706,13.217L15.286,31.134z M21.35,31.134c0,0.397-0.31,0.596-0.95,0.596c-0.639,0-0.95-0.198-0.95-0.596l-0.475-6.313
		l0.475-13.333c0-0.397,0.311-0.596,0.95-0.596c0.64,0,0.95,0.199,0.95,0.596l0.601,13.333L21.35,31.134z M27.426,31.012
		c0,0.48-0.358,0.718-1.075,0.718c-0.63,0-0.988-0.237-1.066-0.718l-0.359-6.191l0.359-15.237c0.155-0.557,0.513-0.833,1.066-0.833
		c0.717,0,1.075,0.276,1.075,0.833l0.475,15.237L27.426,31.012z M31.707,31.729c-0.551,0-0.831-0.276-0.831-0.833V7.321
		c0-0.397,0.242-0.674,0.716-0.833c1.434-0.558,3.102-0.833,5-0.833c3.498,0,6.529,1.148,9.109,3.449
		c2.576,2.307,4.029,5.121,4.35,8.454c0.951-0.396,1.938-0.596,2.977-0.596c2.062,0,3.846,0.737,5.355,2.205
		c1.504,1.469,2.258,3.198,2.258,5.18c0,2.063-0.754,3.832-2.258,5.3c-1.51,1.469-3.293,2.2-5.355,2.2L31.707,31.729z"/>
</g>
</svg>
