<?xml version="1.0" encoding="utf-8"?>
<!-- Generator: Adobe Illustrator 16.0.4, SVG Export Plug-In . SVG Version: 6.00 Build 0)  -->
<!DOCTYPE svg PUBLIC "-//W3C//DTD SVG 1.1//EN" "http://www.w3.org/Graphics/SVG/1.1/DTD/svg11.dtd">
<svg version="1.1" id="Amperbranch" xmlns="http://www.w3.org/2000/svg" xmlns:xlink="http://www.w3.org/1999/xlink" x="0px"
	 y="0px" width="200px" height="210px" viewBox="0 0 200 210" enable-background="new 0 0 200 210" xml:space="preserve">
<rect x="-21.5" y="-14.5" fill="#006D62" width="243" height="239"/>
<g>
	<circle fill="#00857F" cx="100" cy="105" r="48.784"/>
</g>
<g>
	<path fill="#FFFFFF" d="M72.735,128.439c-9.401,0-14.588-6.226-15.171-12.582h5.706c0.52,3.697,3.631,7.328,9.465,7.328
		c5.966,0,9.985-4.278,9.985-10.18c0-5.898-3.824-10.113-9.466-10.113c-3.631,0-7.131,2.073-9.207,5.121l-4.864-1.88l2.983-23.473
		h23.341v5.252H67.03l-1.685,12.514c2.139-1.621,5.187-2.723,8.428-2.723c8.495,0,14.394,6.419,14.394,15.301
		C88.167,122.537,81.035,128.439,72.735,128.439z"/>
	<path fill="#FFFFFF" d="M91.084,91.74v-4.28c3.824-0.129,6.743-1.427,7.067-4.798h5.058v44.998h-5.51V91.74H91.084z"/>
	<path fill="#FFFFFF" d="M125.967,128.439c-8.105,0-12.904-4.865-14.137-10.828h5.643c0.844,2.916,3.502,5.642,8.56,5.642
		c8.231,0,10.567-8.626,11.088-15.89c-1.815,3.244-6.552,5.514-10.894,5.514c-8.883,0-15.303-6.55-15.303-15.626
		c0-9.207,6.486-15.69,15.238-15.69c5.574,0,10.113,2.658,12.9,7.196c2.465,4.021,3.373,8.494,3.373,14.849
		C142.436,119.167,136.793,128.439,125.967,128.439z M126.227,86.616c-5.836,0-9.791,4.281-9.791,10.635
		c0,6.159,3.76,10.633,9.791,10.633c6.029,0,9.984-4.474,9.984-10.633C136.211,91.221,132.125,86.616,126.227,86.616z"/>
</g>
</svg>
