<?xml version="1.0" encoding="utf-8"?>
<!-- Generator: Adobe Illustrator 16.0.4, SVG Export Plug-In . SVG Version: 6.00 Build 0)  -->
<!DOCTYPE svg PUBLIC "-//W3C//DTD SVG 1.1//EN" "http://www.w3.org/Graphics/SVG/1.1/DTD/svg11.dtd">
<svg version="1.1" id="Amperbranch" xmlns="http://www.w3.org/2000/svg" xmlns:xlink="http://www.w3.org/1999/xlink" x="0px"
	 y="0px" width="200px" height="210px" viewBox="0 0 200 210" enable-background="new 0 0 200 210" xml:space="preserve">
<rect x="-29.5" y="-24.5" fill="#85B4CC" width="259" height="259"/>
<path fill="#FFFFFF" d="M67.788,56.679c-8.86,0-16.107,7.249-16.107,16.107l0,0v64.427c0,8.861,7.247,16.107,16.107,16.107l0,0
	h64.423c8.861,0,16.107-7.246,16.107-16.107l0,0V72.786c0-8.858-7.246-16.107-16.107-16.107l0,0H67.788L67.788,56.679z"/>
<path fill="#85B4CC" d="M69.252,130.623V79.377c0-2.818,2.306-5.122,5.121-5.122l0,0h51.253c2.813,0,5.119,2.304,5.119,5.122l0,0
	v51.246c0,2.816-2.306,5.121-5.119,5.121l0,0H74.374C71.559,135.744,69.252,133.439,69.252,130.623"/>
<path fill="#FFFFFF" d="M89.75,91.823c-1.612,0-2.928,1.318-2.928,2.93l0,0v20.493c0,1.611,1.316,2.93,2.928,2.93l0,0h20.499
	c1.61,0,2.931-1.318,2.931-2.93l0,0V94.753c0-1.611-1.318-2.93-2.931-2.93l0,0H89.75L89.75,91.823z"/>
</svg>
