<svg xmlns="http://www.w3.org/2000/svg" width="200" height="210" viewBox="0 0 200 210"><path fill="#85B4CC" d="M-29.5-24.5h259v259h-259z"/><path fill="#fff" d="M67.788 56.679c-8.86 0-16.107 7.249-16.107 16.107v64.427c0 8.861 7.247 16.107 16.107 16.107h64.423c8.861 0 16.107-7.246 16.107-16.107v-64.427c0-8.858-7.246-16.107-16.107-16.107h-64.423z"/><path fill="#85B4CC" d="M69.252 130.623v-51.246c0-2.818 2.306-5.122 5.121-5.122h51.253c2.813 0 5.119 2.304 5.119 5.122v51.246c0 2.816-2.306 5.121-5.119 5.121h-51.252c-2.815 0-5.122-2.305-5.122-5.121"/><path fill="#fff" d="M89.75 91.823c-1.612 0-2.928 1.318-2.928 2.93v20.493c0 1.611 1.316 2.93 2.928 2.93h20.499c1.61 0 2.931-1.318 2.931-2.93v-20.493c0-1.611-1.318-2.93-2.931-2.93h-20.499z"/></svg>