<?xml version="1.0" encoding="utf-8"?>
<!-- Generator: Adobe Illustrator 16.0.4, SVG Export Plug-In . SVG Version: 6.00 Build 0)  -->
<!DOCTYPE svg PUBLIC "-//W3C//DTD SVG 1.1//EN" "http://www.w3.org/Graphics/SVG/1.1/DTD/svg11.dtd">
<svg version="1.1" id="Amperbranch" xmlns="http://www.w3.org/2000/svg" xmlns:xlink="http://www.w3.org/1999/xlink" x="0px"
	 y="0px" width="200px" height="210px" viewBox="0 0 200 210" enable-background="new 0 0 200 210" xml:space="preserve">
<rect x="-9.667" y="-14.667" fill="#2A2A2A" width="219.334" height="239.334"/>
<path fill="#FF2B06" d="M39.251,114.527l-0.974-1.404h0.928l0.521,0.773l0.516-0.773h0.898l-0.973,1.385l1.094,1.574h-0.928
	l-0.619-0.932l-0.618,0.932h-0.911L39.251,114.527z"/>
<path fill="#FFFFFF" d="M45.118,114.33h-2.895v-0.611h2.895V114.33z M45.118,115.557h-2.895v-0.613h2.895V115.557z"/>
<path fill="#FFFFFF" d="M47.333,112.664H46.52v-0.67h0.813V112.664z M46.519,113.123h0.813v2.959h-0.813V113.123z"/>
<path fill="#FFFFFF" d="M47.86,113.123h0.772v0.412h0.018c0.205-0.334,0.561-0.492,0.904-0.492c0.863,0,1.082,0.486,1.082,1.219
	v1.82h-0.813v-1.672c0-0.486-0.143-0.727-0.521-0.727c-0.44,0-0.63,0.246-0.63,0.848v1.551H47.86V113.123z"/>
<path fill="#FFFFFF" d="M53.253,115.705h-0.011c-0.191,0.32-0.523,0.457-0.9,0.457c-0.894,0-1.328-0.766-1.328-1.586
	c0-0.795,0.441-1.533,1.312-1.533c0.351,0,0.693,0.148,0.882,0.439h-0.006h0.011v-1.488h0.814v4.088h-0.773L53.253,115.705
	L53.253,115.705z M52.542,113.656c-0.531,0-0.715,0.457-0.715,0.943c0,0.465,0.213,0.948,0.715,0.948c0.539,0,0.7-0.467,0.7-0.955
	C53.243,114.113,53.071,113.656,52.542,113.656z"/>
<path fill="#FFFFFF" d="M55.195,114.801c0.022,0.516,0.275,0.748,0.728,0.748c0.327,0,0.59-0.199,0.641-0.383h0.717
	c-0.229,0.699-0.717,0.996-1.387,0.996c-0.934,0-1.512-0.641-1.512-1.555c0-0.89,0.613-1.564,1.512-1.564
	c1.008,0,1.495,0.848,1.438,1.758H55.195z M56.518,114.285c-0.074-0.414-0.253-0.629-0.649-0.629c-0.515,0-0.661,0.398-0.674,0.629
	H56.518z"/>
<path fill="#FFFFFF" d="M57.697,113.123h0.773v0.377h0.012c0.194-0.314,0.515-0.457,0.882-0.457c0.928,0,1.348,0.75,1.348,1.592
	c0,0.791-0.438,1.527-1.303,1.527c-0.354,0-0.693-0.152-0.887-0.445H58.51v1.408h-0.813V113.123z M59.896,114.609
	c0-0.469-0.188-0.953-0.71-0.953c-0.531,0-0.704,0.475-0.704,0.953c0,0.483,0.183,0.938,0.71,0.938
	C59.724,115.549,59.896,115.094,59.896,114.609z"/>
<path fill="#FFFFFF" d="M61.752,114.801c0.021,0.516,0.274,0.748,0.727,0.748c0.326,0,0.59-0.199,0.642-0.383h0.716
	c-0.229,0.699-0.716,0.996-1.386,0.996c-0.933,0-1.511-0.641-1.511-1.555c0-0.89,0.611-1.564,1.511-1.564
	c1.007,0,1.494,0.848,1.438,1.758H61.752z M63.074,114.285c-0.072-0.414-0.251-0.629-0.647-0.629c-0.515,0-0.662,0.398-0.674,0.629
	H63.074z"/>
<path fill="#FFFFFF" d="M64.254,113.123h0.773v0.412h0.017c0.208-0.334,0.562-0.492,0.905-0.492c0.864,0,1.082,0.486,1.082,1.219
	v1.82h-0.812v-1.672c0-0.486-0.145-0.727-0.522-0.727c-0.44,0-0.628,0.246-0.628,0.848v1.551h-0.814L64.254,113.123L64.254,113.123z
	"/>
<path fill="#FFFFFF" d="M69.65,115.705h-0.012c-0.189,0.32-0.521,0.457-0.901,0.457c-0.892,0-1.327-0.766-1.327-1.586
	c0-0.795,0.44-1.533,1.312-1.533c0.348,0,0.693,0.148,0.881,0.439h-0.006h0.014v-1.488h0.812v4.088H69.65V115.705z M68.94,113.656
	c-0.533,0-0.717,0.457-0.717,0.943c0,0.465,0.211,0.948,0.717,0.948c0.537,0,0.698-0.467,0.698-0.955
	C69.638,114.113,69.464,113.656,68.94,113.656z"/>
<path fill="#FFFFFF" d="M71.59,114.801c0.021,0.516,0.274,0.748,0.728,0.748c0.326,0,0.591-0.199,0.641-0.383h0.716
	c-0.229,0.699-0.716,0.996-1.386,0.996c-0.933,0-1.513-0.641-1.513-1.555c0-0.89,0.613-1.564,1.513-1.564
	c1.008,0,1.496,0.848,1.437,1.758H71.59z M72.913,114.285c-0.073-0.414-0.253-0.629-0.646-0.629c-0.517,0-0.666,0.398-0.677,0.629
	H72.913z"/>
<path fill="#FFFFFF" d="M74.093,113.123h0.771v0.412h0.018c0.207-0.334,0.563-0.492,0.906-0.492c0.864,0,1.082,0.486,1.082,1.219
	v1.82h-0.813v-1.672c0-0.486-0.143-0.727-0.521-0.727c-0.44,0-0.629,0.246-0.629,0.848v1.551h-0.813L74.093,113.123L74.093,113.123z
	"/>
<path fill="#FFFFFF" d="M78.404,113.123H79v0.543h-0.596v1.467c0,0.273,0.069,0.344,0.344,0.344c0.088,0,0.167-0.006,0.252-0.022
	v0.637c-0.137,0.021-0.313,0.029-0.475,0.029c-0.497,0-0.933-0.115-0.933-0.705v-1.748h-0.493v-0.543h0.493v-0.89h0.812V113.123z"/>
<path fill="#FFFFFF" d="M79.298,111.994h0.812v4.088h-0.812V111.994z"/>
<path fill="#FFFFFF" d="M82.097,116.455c-0.175,0.475-0.457,0.67-1.02,0.67c-0.164,0-0.332-0.012-0.497-0.027v-0.672
	c0.155,0.012,0.316,0.035,0.476,0.029c0.281-0.029,0.372-0.32,0.281-0.555l-1.043-2.777h0.871l0.67,2.027h0.01l0.648-2.027h0.841
	L82.097,116.455z"/>
<path fill="#FFFFFF" d="M86.41,113.043c0.935,0,1.536,0.617,1.536,1.564c0,0.938-0.602,1.555-1.536,1.555
	c-0.928,0-1.528-0.617-1.528-1.555C84.881,113.66,85.482,113.043,86.41,113.043z M86.41,115.549c0.558,0,0.724-0.475,0.724-0.941
	c0-0.477-0.166-0.95-0.724-0.95c-0.548,0-0.715,0.475-0.715,0.95C85.695,115.074,85.862,115.549,86.41,115.549z"/>
<path fill="#FFFFFF" d="M88.244,113.123h0.773v0.549h0.011c0.148-0.373,0.549-0.629,0.943-0.629c0.058,0,0.128,0.012,0.18,0.027
	v0.756c-0.074-0.016-0.196-0.027-0.293-0.027c-0.596,0-0.801,0.43-0.801,0.951v1.332h-0.813V113.123z"/>
<path fill="#FFFFFF" d="M93.202,115.895c0,0.486-0.171,1.312-1.534,1.312c-0.583,0-1.265-0.274-1.305-0.951h0.808
	c0.073,0.306,0.32,0.408,0.606,0.408c0.451,0,0.658-0.31,0.652-0.731v-0.392h-0.01c-0.18,0.312-0.533,0.459-0.89,0.459
	c-0.886,0-1.267-0.676-1.267-1.49c0-0.768,0.442-1.465,1.272-1.465c0.391,0,0.688,0.131,0.884,0.476h0.01v-0.396H93.2v2.771H93.202z
	 M92.429,114.566c0-0.482-0.165-0.91-0.692-0.91c-0.459,0-0.658,0.398-0.658,0.84c0,0.424,0.16,0.889,0.658,0.889
	C92.2,115.385,92.429,114.99,92.429,114.566z"/>
<path fill="#FFFFFF" d="M93.592,114.033c0.046-0.764,0.728-0.99,1.392-0.99c0.591,0,1.301,0.131,1.301,0.842v1.541
	c0,0.268,0.028,0.537,0.104,0.656h-0.826c-0.029-0.09-0.052-0.188-0.058-0.285c-0.258,0.27-0.637,0.365-0.996,0.365
	c-0.562,0-1.008-0.279-1.008-0.887c0-0.668,0.503-0.83,1.008-0.9c0.498-0.072,0.962-0.055,0.962-0.389c0-0.348-0.24-0.4-0.526-0.4
	c-0.311,0-0.511,0.127-0.538,0.447H93.592z M95.47,114.635c-0.137,0.121-0.423,0.127-0.676,0.17
	c-0.252,0.053-0.481,0.139-0.481,0.437c0,0.305,0.235,0.379,0.5,0.379c0.635,0,0.657-0.504,0.657-0.681V114.635z"/>
<path fill="#FFFFFF" d="M96.799,113.123h0.773v0.412h0.016c0.208-0.334,0.562-0.492,0.907-0.492c0.864,0,1.081,0.486,1.081,1.219
	v1.82h-0.814v-1.672c0-0.486-0.141-0.727-0.52-0.727c-0.441,0-0.63,0.246-0.63,0.848v1.551h-0.813V113.123z"/>
<path fill="#FFFFFF" d="M100.801,112.664h-0.81v-0.67h0.81V112.664z M99.991,113.123h0.81v2.959h-0.81V113.123z"/>
<path fill="#FFFFFF" d="M101.145,115.471l1.541-1.734h-1.426v-0.612h2.496v0.612l-1.539,1.734h1.648v0.611h-2.721V115.471
	L101.145,115.471z"/>
<path fill="#FFFFFF" d="M104.857,114.801c0.021,0.516,0.274,0.748,0.727,0.748c0.328,0,0.59-0.199,0.643-0.383h0.715
	c-0.231,0.699-0.715,0.996-1.385,0.996c-0.936,0-1.514-0.641-1.514-1.555c0-0.89,0.613-1.564,1.514-1.564
	c1.006,0,1.492,0.848,1.437,1.758H104.857z M106.178,114.285c-0.072-0.414-0.252-0.629-0.646-0.629
	c-0.517,0-0.664,0.398-0.675,0.629H106.178z"/>
<path fill="#FFFFFF" d="M109.473,115.705h-0.014c-0.188,0.32-0.52,0.457-0.896,0.457c-0.893,0-1.33-0.766-1.33-1.586
	c0-0.795,0.441-1.533,1.312-1.533c0.348,0,0.691,0.148,0.883,0.439h-0.008h0.012v-1.488h0.814v4.088h-0.773V115.705z
	 M108.762,113.656c-0.533,0-0.717,0.457-0.717,0.943c0,0.465,0.213,0.948,0.717,0.948c0.541,0,0.697-0.467,0.697-0.955
	C109.459,114.113,109.289,113.656,108.762,113.656z"/>
<path fill="#FFFFFF" d="M113.211,112.75h-1.225v-0.756h3.35v0.756h-1.227v3.332h-0.898V112.75z"/>
<path fill="#FFFFFF" d="M115.691,111.994h3.059v0.756h-2.16v0.877h1.982v0.699h-1.982v1.002h2.205v0.754h-3.104V111.994
	L115.691,111.994z"/>
<path fill="#FFFFFF" d="M119.172,111.994h1.764c1.062,0,1.857,0.666,1.857,2.021c0,1.186-0.609,2.065-1.857,2.065h-1.764V111.994z
	 M120.072,115.328h0.801c0.523,0,1.021-0.322,1.021-1.227c0-0.826-0.289-1.353-1.183-1.353h-0.642v2.579H120.072z"/>
<path fill="#FFFFFF" d="M125.363,114.801c0.023,0.516,0.273,0.748,0.729,0.748c0.324,0,0.588-0.199,0.639-0.383h0.718
	c-0.229,0.699-0.718,0.996-1.386,0.996c-0.934,0-1.512-0.641-1.512-1.555c0-0.89,0.613-1.564,1.512-1.564
	c1.008,0,1.496,0.848,1.438,1.758H125.363z M126.686,114.285c-0.072-0.414-0.252-0.629-0.647-0.629
	c-0.513,0-0.662,0.398-0.675,0.629H126.686z"/>
<path fill="#FFFFFF" d="M129.389,116.082h-0.902l-1.016-2.959h0.854l0.623,2.02h0.012l0.623-2.02h0.81L129.389,116.082z"/>
<path fill="#FFFFFF" d="M131.17,114.801c0.023,0.516,0.275,0.748,0.727,0.748c0.328,0,0.59-0.199,0.644-0.383h0.715
	c-0.229,0.699-0.715,0.996-1.385,0.996c-0.935,0-1.515-0.641-1.515-1.555c0-0.89,0.613-1.564,1.515-1.564
	c1.008,0,1.496,0.848,1.438,1.758H131.17z M132.494,114.285c-0.076-0.414-0.252-0.629-0.648-0.629c-0.516,0-0.664,0.398-0.676,0.629
	H132.494z"/>
<path fill="#FFFFFF" d="M133.672,113.123h0.775v0.412h0.016c0.207-0.334,0.561-0.492,0.904-0.492c0.865,0,1.084,0.486,1.084,1.219
	v1.82h-0.814v-1.672c0-0.486-0.143-0.727-0.521-0.727c-0.438,0-0.63,0.246-0.63,0.848v1.551h-0.813L133.672,113.123L133.672,113.123
	z"/>
<path fill="#FFFFFF" d="M137.986,113.123h0.596v0.543h-0.596v1.467c0,0.273,0.068,0.344,0.344,0.344
	c0.084,0,0.164-0.006,0.252-0.022v0.637c-0.139,0.021-0.316,0.029-0.477,0.029c-0.5,0-0.935-0.115-0.935-0.705v-1.748h-0.491v-0.543
	h0.491v-0.89h0.813v0.889H137.986z"/>
<g>
	<g>
		<path fill="#FF2B06" d="M41.703,98.466h-3.815v-3.49h11.824v3.49h-3.816v10.125h-4.192L41.703,98.466L41.703,98.466z"/>
		<path fill="#FF2B06" d="M50.361,94.976h11.477v3.49h-7.282v1.695h7.282v3.244h-7.282v1.695h7.284v3.491H50.361V94.976z"/>
		<path fill="#FF2B06" d="M62.543,94.976h6.883c4.539,0,6.141,3.355,6.141,6.788c0,4.177-2.211,6.828-6.959,6.828h-6.064
			L62.543,94.976L62.543,94.976z M66.738,105.101h1.64c2.615,0,2.996-2.117,2.996-3.396c0-0.856-0.268-3.239-3.301-3.239h-1.335
			V105.101z"/>
	</g>
	<g>
		<g>
			<path fill="#FF2B06" d="M81.596,103.344l-1.28-2.122l-1.246,2.122h-3.075l2.918-4.29l-2.81-4.105h3.074l1.139,2.029l1.173-2.029
				h3.072l-2.809,4.105l2.918,4.29H81.596z"/>
		</g>
	</g>
</g>
<g enable-background="new    ">
	<path fill="#FFFFFF" d="M87.99,95.012h5.419c1.84,0,3.267,0.662,4.281,1.984c0.905,1.194,1.357,2.723,1.357,4.588
		c0,1.439-0.268,2.74-0.802,3.903c-0.941,2.056-2.559,3.083-4.854,3.083H87.99V95.012z M93.049,107.001
		c0.607,0,1.107-0.064,1.498-0.193c0.698-0.24,1.269-0.701,1.714-1.385c0.355-0.548,0.611-1.249,0.767-2.104
		c0.09-0.511,0.136-0.984,0.136-1.421c0-1.68-0.327-2.984-0.979-3.913c-0.653-0.93-1.704-1.395-3.154-1.395h-3.186v10.411H93.049z"
		/>
	<path fill="#FFFFFF" d="M107.441,98.958c0.654,0.329,1.152,0.755,1.495,1.278c0.33,0.498,0.55,1.079,0.66,1.744
		c0.099,0.455,0.147,1.182,0.147,2.178h-7.19c0.03,1.006,0.266,1.812,0.705,2.421c0.44,0.607,1.12,0.911,2.042,0.911
		c0.861,0,1.548-0.287,2.061-0.862c0.287-0.333,0.49-0.72,0.61-1.159h1.634c-0.043,0.363-0.187,0.768-0.43,1.214
		c-0.242,0.446-0.514,0.811-0.812,1.094c-0.502,0.492-1.121,0.824-1.859,0.997c-0.398,0.099-0.847,0.147-1.348,0.147
		c-1.223,0-2.259-0.447-3.109-1.343c-0.85-0.896-1.274-2.148-1.274-3.761c0-1.588,0.429-2.877,1.284-3.867
		c0.855-0.991,1.975-1.486,3.357-1.486C106.111,98.464,106.787,98.629,107.441,98.958z M108.036,102.839
		c-0.067-0.72-0.223-1.295-0.467-1.726c-0.452-0.8-1.205-1.2-2.261-1.2c-0.756,0-1.391,0.275-1.903,0.826s-0.784,1.25-0.814,2.1
		H108.036z"/>
	<path fill="#FFFFFF" d="M112.245,95.012h6.067c1.199,0,2.168,0.341,2.904,1.021c0.738,0.68,1.107,1.635,1.107,2.865
		c0,1.059-0.33,1.98-0.988,2.765s-1.664,1.177-3.021,1.177h-4.233v5.731h-1.837V95.012z M119.369,96.876
		c-0.403-0.19-0.956-0.286-1.658-0.286h-3.629v4.698h3.629c0.818,0,1.482-0.175,1.992-0.526c0.51-0.351,0.766-0.969,0.766-1.854
		C120.469,97.91,120.102,97.233,119.369,96.876z"/>
	<path fill="#FFFFFF" d="M129.754,102.588c0.381-0.049,0.637-0.209,0.766-0.479c0.074-0.148,0.111-0.361,0.111-0.64
		c0-0.568-0.201-0.98-0.604-1.237c-0.402-0.256-0.979-0.384-1.728-0.384c-0.866,0-1.479,0.234-1.843,0.705
		c-0.202,0.26-0.334,0.646-0.396,1.159h-1.55c0.029-1.222,0.425-2.072,1.184-2.55c0.76-0.479,1.64-0.718,2.641-0.718
		c1.162,0,2.105,0.222,2.831,0.665c0.719,0.442,1.079,1.132,1.079,2.067v5.694c0,0.173,0.035,0.312,0.105,0.416
		s0.22,0.156,0.447,0.156c0.074,0,0.157-0.005,0.25-0.014c0.092-0.01,0.189-0.023,0.295-0.042v1.228
		c-0.258,0.074-0.455,0.12-0.591,0.139s-0.319,0.027-0.554,0.027c-0.572,0-0.987-0.203-1.246-0.608
		c-0.135-0.216-0.23-0.521-0.286-0.914c-0.339,0.443-0.825,0.828-1.458,1.153c-0.634,0.326-1.332,0.489-2.096,0.489
		c-0.916,0-1.666-0.278-2.247-0.834s-0.872-1.252-0.872-2.088c0-0.916,0.286-1.625,0.858-2.129s1.323-0.814,2.252-0.932
		L129.754,102.588z M126.256,107.076c0.35,0.276,0.766,0.414,1.246,0.414c0.584,0,1.15-0.135,1.697-0.405
		c0.924-0.448,1.385-1.183,1.385-2.202v-1.336c-0.203,0.129-0.463,0.237-0.783,0.323c-0.318,0.087-0.633,0.148-0.939,0.186
		l-1.004,0.129c-0.602,0.08-1.055,0.206-1.357,0.378c-0.514,0.288-0.771,0.749-0.771,1.381
		C125.729,106.422,125.904,106.8,126.256,107.076z"/>
	<path fill="#FFFFFF" d="M136.629,98.686v6.562c0,0.504,0.078,0.917,0.234,1.236c0.287,0.591,0.824,0.886,1.609,0.886
		c1.126,0,1.894-0.517,2.301-1.55c0.222-0.554,0.333-1.314,0.333-2.28v-4.854h1.661v9.885h-1.569l0.019-1.458
		c-0.212,0.375-0.475,0.692-0.788,0.95c-0.622,0.517-1.377,0.775-2.265,0.775c-1.383,0-2.324-0.471-2.825-1.412
		c-0.271-0.504-0.407-1.178-0.407-2.021v-6.719H136.629z"/>
	<path fill="#FFFFFF" d="M145.527,95.012h1.661v13.559h-1.661V95.012z"/>
	<path fill="#FFFFFF" d="M151.886,95.012v8.381c0,0.984,0.187,1.803,0.559,2.455c0.552,0.984,1.482,1.477,2.791,1.477
		c1.569,0,2.636-0.532,3.2-1.597c0.304-0.578,0.456-1.356,0.456-2.335v-8.381h1.854v7.614c0,1.668-0.225,2.951-0.676,3.85
		c-0.827,1.637-2.39,2.455-4.687,2.455s-3.855-0.818-4.677-2.455c-0.451-0.898-0.676-2.182-0.676-3.85v-7.614H151.886z"/>
</g>
</svg>
