<?xml version="1.0" encoding="utf-8"?>
<!-- Generator: Adobe Illustrator 16.0.4, SVG Export Plug-In . SVG Version: 6.00 Build 0)  -->
<!DOCTYPE svg PUBLIC "-//W3C//DTD SVG 1.1//EN" "http://www.w3.org/Graphics/SVG/1.1/DTD/svg11.dtd">
<svg version="1.1" id="Amperbranch" xmlns="http://www.w3.org/2000/svg" xmlns:xlink="http://www.w3.org/1999/xlink" x="0px"
	 y="0px" width="200px" height="210px" viewBox="0 0 200 210" enable-background="new 0 0 200 210" xml:space="preserve">
<rect x="-9.667" y="-14.667" fill="#2A2A2A" width="219.334" height="239.334"/>
<path fill="#FF2B06" d="M39.251,114.527l-0.974-1.404h0.928l0.521,0.773l0.516-0.773h0.898l-0.973,1.385l1.094,1.574h-0.928
	l-0.619-0.932l-0.618,0.932h-0.911L39.251,114.527z"/>
<path fill="#FFFFFF" d="M45.118,114.33h-2.895v-0.611h2.895V114.33z M45.118,115.557h-2.895v-0.613h2.895V115.557z"/>
<path fill="#FFFFFF" d="M47.333,112.664h-0.813v-0.67h0.813V112.664z M46.519,113.123h0.813v2.959h-0.813V113.123z"/>
<path fill="#FFFFFF" d="M47.86,113.123h0.772v0.412h0.018c0.205-0.334,0.561-0.492,0.904-0.492c0.863,0,1.082,0.486,1.082,1.219
	v1.82h-0.813v-1.672c0-0.486-0.143-0.727-0.521-0.727c-0.44,0-0.63,0.246-0.63,0.848v1.551H47.86V113.123z"/>
<path fill="#FFFFFF" d="M53.253,115.705h-0.011c-0.191,0.32-0.523,0.457-0.9,0.457c-0.894,0-1.328-0.766-1.328-1.586
	c0-0.795,0.441-1.533,1.312-1.533c0.351,0,0.693,0.148,0.882,0.439h-0.006h0.011v-1.488h0.814v4.088h-0.773V115.705z
	 M52.542,113.656c-0.531,0-0.715,0.457-0.715,0.943c0,0.465,0.213,0.949,0.715,0.949c0.539,0,0.7-0.467,0.7-0.955
	C53.243,114.113,53.071,113.656,52.542,113.656z"/>
<path fill="#FFFFFF" d="M55.195,114.801c0.022,0.516,0.275,0.748,0.728,0.748c0.327,0,0.59-0.199,0.641-0.383h0.717
	c-0.229,0.699-0.717,0.996-1.387,0.996c-0.934,0-1.512-0.641-1.512-1.555c0-0.889,0.613-1.564,1.512-1.564
	c1.008,0,1.495,0.848,1.438,1.758H55.195z M56.518,114.285c-0.074-0.414-0.253-0.629-0.649-0.629c-0.515,0-0.661,0.398-0.674,0.629
	H56.518z"/>
<path fill="#FFFFFF" d="M57.697,113.123h0.773v0.377h0.012c0.194-0.314,0.515-0.457,0.882-0.457c0.928,0,1.348,0.75,1.348,1.592
	c0,0.791-0.438,1.527-1.303,1.527c-0.354,0-0.693-0.152-0.887-0.445H58.51v1.408h-0.813V113.123z M59.896,114.609
	c0-0.469-0.188-0.953-0.71-0.953c-0.531,0-0.704,0.475-0.704,0.953c0,0.484,0.183,0.939,0.71,0.939
	C59.724,115.549,59.896,115.094,59.896,114.609z"/>
<path fill="#FFFFFF" d="M61.752,114.801c0.021,0.516,0.274,0.748,0.727,0.748c0.326,0,0.59-0.199,0.642-0.383h0.716
	c-0.229,0.699-0.716,0.996-1.386,0.996c-0.933,0-1.511-0.641-1.511-1.555c0-0.889,0.611-1.564,1.511-1.564
	c1.007,0,1.494,0.848,1.438,1.758H61.752z M63.074,114.285c-0.072-0.414-0.251-0.629-0.647-0.629c-0.515,0-0.662,0.398-0.674,0.629
	H63.074z"/>
<path fill="#FFFFFF" d="M64.254,113.123h0.773v0.412h0.017c0.208-0.334,0.562-0.492,0.905-0.492c0.864,0,1.082,0.486,1.082,1.219
	v1.82h-0.812v-1.672c0-0.486-0.145-0.727-0.522-0.727c-0.44,0-0.628,0.246-0.628,0.848v1.551h-0.814V113.123z"/>
<path fill="#FFFFFF" d="M69.65,115.705h-0.012c-0.189,0.32-0.521,0.457-0.901,0.457c-0.892,0-1.327-0.766-1.327-1.586
	c0-0.795,0.44-1.533,1.312-1.533c0.348,0,0.693,0.148,0.881,0.439h-0.006h0.014v-1.488h0.812v4.088H69.65V115.705z M68.94,113.656
	c-0.533,0-0.717,0.457-0.717,0.943c0,0.465,0.211,0.949,0.717,0.949c0.537,0,0.698-0.467,0.698-0.955
	C69.638,114.113,69.464,113.656,68.94,113.656z"/>
<path fill="#FFFFFF" d="M71.59,114.801c0.021,0.516,0.274,0.748,0.728,0.748c0.326,0,0.591-0.199,0.641-0.383h0.716
	c-0.229,0.699-0.716,0.996-1.386,0.996c-0.933,0-1.513-0.641-1.513-1.555c0-0.889,0.613-1.564,1.513-1.564
	c1.008,0,1.496,0.848,1.437,1.758H71.59z M72.913,114.285c-0.073-0.414-0.253-0.629-0.646-0.629c-0.517,0-0.666,0.398-0.677,0.629
	H72.913z"/>
<path fill="#FFFFFF" d="M74.093,113.123h0.771v0.412h0.018c0.207-0.334,0.563-0.492,0.906-0.492c0.864,0,1.082,0.486,1.082,1.219
	v1.82h-0.813v-1.672c0-0.486-0.143-0.727-0.521-0.727c-0.44,0-0.629,0.246-0.629,0.848v1.551h-0.813V113.123z"/>
<path fill="#FFFFFF" d="M78.404,113.123H79v0.543h-0.596v1.467c0,0.273,0.069,0.344,0.344,0.344c0.088,0,0.167-0.006,0.252-0.023
	v0.637c-0.137,0.021-0.313,0.029-0.475,0.029c-0.497,0-0.933-0.115-0.933-0.705v-1.748h-0.493v-0.543h0.493v-0.889h0.812V113.123z"
	/>
<path fill="#FFFFFF" d="M79.298,111.994h0.812v4.088h-0.812V111.994z"/>
<path fill="#FFFFFF" d="M82.097,116.455c-0.175,0.475-0.457,0.67-1.02,0.67c-0.164,0-0.332-0.012-0.497-0.027v-0.672
	c0.155,0.012,0.316,0.035,0.476,0.029c0.281-0.029,0.372-0.32,0.281-0.555l-1.043-2.777h0.871l0.67,2.027h0.01l0.648-2.027h0.841
	L82.097,116.455z"/>
<path fill="#FFFFFF" d="M86.41,113.043c0.935,0,1.536,0.617,1.536,1.564c0,0.938-0.602,1.555-1.536,1.555
	c-0.928,0-1.528-0.617-1.528-1.555C84.881,113.66,85.482,113.043,86.41,113.043z M86.41,115.549c0.558,0,0.724-0.475,0.724-0.941
	c0-0.477-0.166-0.951-0.724-0.951c-0.548,0-0.715,0.475-0.715,0.951C85.695,115.074,85.862,115.549,86.41,115.549z"/>
<path fill="#FFFFFF" d="M88.244,113.123h0.773v0.549h0.011c0.148-0.373,0.549-0.629,0.943-0.629c0.058,0,0.128,0.012,0.18,0.027
	v0.756c-0.074-0.016-0.196-0.027-0.293-0.027c-0.596,0-0.801,0.43-0.801,0.951v1.332h-0.813V113.123z"/>
<path fill="#FFFFFF" d="M93.202,115.895c0,0.486-0.171,1.311-1.534,1.311c-0.583,0-1.265-0.275-1.305-0.951h0.808
	c0.073,0.305,0.32,0.408,0.606,0.408c0.451,0,0.658-0.309,0.652-0.732v-0.391h-0.01c-0.18,0.311-0.533,0.459-0.89,0.459
	c-0.886,0-1.267-0.676-1.267-1.49c0-0.768,0.442-1.465,1.272-1.465c0.391,0,0.688,0.131,0.884,0.475h0.01v-0.395h0.772V115.895z
	 M92.429,114.566c0-0.482-0.165-0.91-0.692-0.91c-0.459,0-0.658,0.398-0.658,0.84c0,0.424,0.16,0.889,0.658,0.889
	C92.2,115.385,92.429,114.99,92.429,114.566z"/>
<path fill="#FFFFFF" d="M93.592,114.033c0.046-0.764,0.728-0.99,1.392-0.99c0.591,0,1.301,0.131,1.301,0.842v1.541
	c0,0.268,0.028,0.537,0.104,0.656h-0.826c-0.029-0.09-0.052-0.188-0.058-0.285c-0.258,0.27-0.637,0.365-0.996,0.365
	c-0.562,0-1.008-0.279-1.008-0.887c0-0.668,0.503-0.83,1.008-0.9c0.498-0.072,0.962-0.055,0.962-0.389c0-0.348-0.24-0.4-0.526-0.4
	c-0.311,0-0.511,0.127-0.538,0.447H93.592z M95.47,114.635c-0.137,0.121-0.423,0.127-0.676,0.17
	c-0.252,0.053-0.481,0.139-0.481,0.436c0,0.305,0.235,0.379,0.5,0.379c0.635,0,0.657-0.504,0.657-0.68V114.635z"/>
<path fill="#FFFFFF" d="M96.799,113.123h0.773v0.412h0.016c0.208-0.334,0.562-0.492,0.907-0.492c0.864,0,1.081,0.486,1.081,1.219
	v1.82h-0.814v-1.672c0-0.486-0.141-0.727-0.52-0.727c-0.441,0-0.63,0.246-0.63,0.848v1.551h-0.813V113.123z"/>
<path fill="#FFFFFF" d="M100.801,112.664h-0.81v-0.67h0.81V112.664z M99.991,113.123h0.81v2.959h-0.81V113.123z"/>
<path fill="#FFFFFF" d="M101.145,115.471l1.541-1.734h-1.426v-0.613h2.496v0.613l-1.539,1.734h1.648v0.611h-2.721V115.471z"/>
<path fill="#FFFFFF" d="M104.857,114.801c0.021,0.516,0.275,0.748,0.727,0.748c0.328,0,0.59-0.199,0.643-0.383h0.715
	c-0.232,0.699-0.715,0.996-1.385,0.996c-0.936,0-1.514-0.641-1.514-1.555c0-0.889,0.613-1.564,1.514-1.564
	c1.006,0,1.492,0.848,1.436,1.758H104.857z M106.178,114.285c-0.072-0.414-0.252-0.629-0.646-0.629
	c-0.516,0-0.664,0.398-0.674,0.629H106.178z"/>
<path fill="#FFFFFF" d="M109.473,115.705h-0.014c-0.188,0.32-0.52,0.457-0.896,0.457c-0.893,0-1.33-0.766-1.33-1.586
	c0-0.795,0.441-1.533,1.312-1.533c0.348,0,0.691,0.148,0.883,0.439h-0.008h0.012v-1.488h0.814v4.088h-0.773V115.705z
	 M108.762,113.656c-0.533,0-0.717,0.457-0.717,0.943c0,0.465,0.213,0.949,0.717,0.949c0.541,0,0.697-0.467,0.697-0.955
	C109.459,114.113,109.289,113.656,108.762,113.656z"/>
<path fill="#FFFFFF" d="M113.211,112.75h-1.225v-0.756h3.35v0.756h-1.227v3.332h-0.898V112.75z"/>
<path fill="#FFFFFF" d="M115.691,111.994h3.059v0.756h-2.16v0.877h1.982v0.699h-1.982v1.002h2.205v0.754h-3.104V111.994z"/>
<path fill="#FFFFFF" d="M119.172,111.994h1.764c1.061,0,1.857,0.666,1.857,2.021c0,1.186-0.609,2.066-1.857,2.066h-1.764V111.994z
	 M120.072,115.328h0.801c0.523,0,1.021-0.322,1.021-1.227c0-0.826-0.289-1.352-1.182-1.352h-0.641V115.328z"/>
<path fill="#FFFFFF" d="M125.363,114.801c0.023,0.516,0.273,0.748,0.729,0.748c0.324,0,0.588-0.199,0.639-0.383h0.717
	c-0.229,0.699-0.717,0.996-1.385,0.996c-0.934,0-1.512-0.641-1.512-1.555c0-0.889,0.613-1.564,1.512-1.564
	c1.008,0,1.496,0.848,1.438,1.758H125.363z M126.686,114.285c-0.072-0.414-0.252-0.629-0.648-0.629
	c-0.512,0-0.662,0.398-0.674,0.629H126.686z"/>
<path fill="#FFFFFF" d="M129.389,116.082h-0.902l-1.016-2.959h0.854l0.623,2.02h0.012l0.623-2.02h0.809L129.389,116.082z"/>
<path fill="#FFFFFF" d="M131.17,114.801c0.023,0.516,0.275,0.748,0.727,0.748c0.328,0,0.59-0.199,0.643-0.383h0.715
	c-0.23,0.699-0.715,0.996-1.385,0.996c-0.934,0-1.514-0.641-1.514-1.555c0-0.889,0.613-1.564,1.514-1.564
	c1.008,0,1.496,0.848,1.438,1.758H131.17z M132.494,114.285c-0.076-0.414-0.252-0.629-0.648-0.629c-0.516,0-0.664,0.398-0.676,0.629
	H132.494z"/>
<path fill="#FFFFFF" d="M133.672,113.123h0.775v0.412h0.016c0.207-0.334,0.561-0.492,0.904-0.492c0.865,0,1.084,0.486,1.084,1.219
	v1.82h-0.814v-1.672c0-0.486-0.143-0.727-0.521-0.727c-0.439,0-0.629,0.246-0.629,0.848v1.551h-0.814V113.123z"/>
<path fill="#FFFFFF" d="M137.986,113.123h0.596v0.543h-0.596v1.467c0,0.273,0.068,0.344,0.344,0.344
	c0.084,0,0.164-0.006,0.252-0.023v0.637c-0.139,0.021-0.316,0.029-0.477,0.029c-0.5,0-0.934-0.115-0.934-0.705v-1.748h-0.492v-0.543
	h0.492v-0.889h0.814V113.123z"/>
<g>
	<g>
		<path fill="#FF2B06" d="M41.703,98.466h-3.815v-3.49h11.824v3.49h-3.816v10.125h-4.192V98.466z"/>
		<path fill="#FF2B06" d="M50.361,94.976h11.477v3.49h-7.282v1.695h7.282v3.244h-7.282v1.695h7.284v3.491H50.361V94.976z"/>
		<path fill="#FF2B06" d="M62.543,94.976h6.883c4.539,0,6.141,3.355,6.141,6.788c0,4.177-2.211,6.828-6.959,6.828h-6.064V94.976z
			 M66.738,105.101h1.64c2.615,0,2.996-2.117,2.996-3.396c0-0.856-0.268-3.239-3.301-3.239h-1.335V105.101z"/>
	</g>
	<g>
		<g>
			<path fill="#FF2B06" d="M81.596,103.344l-1.28-2.122l-1.246,2.122h-3.075l2.918-4.29l-2.81-4.105h3.074l1.139,2.029l1.173-2.029
				h3.072l-2.809,4.105l2.918,4.29H81.596z"/>
		</g>
	</g>
</g>
<text transform="matrix(1 0 0 1 86.4668 108.5703)" fill="#FFFFFF" font-family="'Helvetica'" font-size="18.9022">DePaulU</text>
</svg>
