<svg xmlns="http://www.w3.org/2000/svg" width="200" height="210" viewBox="0 0 200 210"><path fill="#F0F0F2" d="M-21.5-14.5h243v239h-243v-239z"/><path fill="#92CDDC" d="M90.197 108.643l-2.875.011.025 8.151-.433.002c-.263-.262-.48-.44-.647-.537-.167-.094-.43-.143-.791-.142-.432.002-.868.118-1.311.346-.442.231-.956.49-1.542.777-.587.292-1.274.55-2.063.779-.791.23-1.747.349-2.874.352-1.7.006-3.211-.27-4.529-.828-1.319-.558-2.592-1.446-3.819-2.665-1.201-1.194-2.199-2.602-2.995-4.23-.794-1.626-1.194-3.455-1.202-5.492-.003-1.364.147-2.592.455-3.682.306-1.09.682-2.044 1.123-2.861.439-.815.894-1.5 1.357-2.053.466-.55.853-.984 1.164-1.297 1.074-1.083 2.305-1.959 3.692-2.635 1.388-.675 2.966-1.016 4.739-1.021.911-.003 1.659.067 2.247.209.586.14 1.096.301 1.528.479l1.169.482c.346.141.736.21 1.168.209.479 0 .82-.069 1.023-.202.205-.13.401-.316.592-.558l.539-.001.022 7.185-.397.001c-.096-.622-.284-1.353-.561-2.19-.281-.836-.713-1.639-1.302-2.403-.591-.765-1.371-1.41-2.342-1.934-.972-.523-2.212-.782-3.72-.778-1.797.005-3.237.385-4.324 1.145-1.088.758-1.935 1.753-2.541 2.989-.606 1.235-1.011 2.631-1.208 4.19-.2 1.556-.294 3.125-.289 4.707.003 1.078.054 2.155.154 3.232.099 1.077.264 2.093.495 3.05.23.957.55 1.845.96 2.656.409.812.938 1.509 1.587 2.081.72.641 1.464 1.089 2.233 1.339.767.247 1.762.371 2.983.367.743-.002 1.484-.133 2.225-.386.743-.255 1.406-.63 1.992-1.138.586-.506 1.062-1.147 1.431-1.925.369-.78.552-1.694.549-2.75l-.01-3.018-4.634.017-.002-.505 10.958-.035.001.51zm1.788 8.65l2.767-.01-.047-14.405-2.766.009-.002-.503 5.785-.019.012 3.628h.071c.095-.359.249-.766.461-1.223.214-.457.514-.896.896-1.315.381-.42.841-.775 1.381-1.064.535-.288 1.187-.436 1.955-.438.553-.002 1.029.085 1.439.265.405.179.742.405 1.006.679.266.275.459.592.582.95.119.358.181.717.181 1.078.004.791-.175 1.317-.533 1.583-.358.263-.777.395-1.256.396-1.056.004-1.583-.328-1.584-.997-.001-.216.021-.392.069-.524l.16-.397c.061-.131.113-.281.162-.447.048-.167.069-.408.068-.718-.004-.767-.424-1.148-1.262-1.145-.385.001-.791.146-1.221.436-.431.289-.832.709-1.201 1.261-.369.553-.679 1.218-.928 1.998-.249.779-.373 1.67-.37 2.676l.027 8.227 3.125-.011.003.504-8.982.029.002-.503zm30.822.007c-.311.242-.682.454-1.11.632-.433.183-.957.272-1.58.276-1.151.003-1.985-.242-2.502-.73s-.87-1.175-1.066-2.06h-.07c-.096.215-.225.485-.392.809-.168.325-.425.636-.769.938-.348.299-.808.553-1.379.757-.576.207-1.308.311-2.193.313-1.006.004-1.809-.108-2.408-.332-.599-.226-1.067-.505-1.403-.84-.337-.335-.56-.711-.668-1.129-.11-.419-.166-.811-.166-1.167-.004-.839.163-1.509.497-2.014.333-.505.767-.907 1.308-1.207.537-.303 1.136-.551 1.794-.742.658-.194 1.32-.401 1.991-.618.792-.266 1.443-.493 1.957-.688.515-.192.913-.429 1.202-.705s.482-.625.59-1.043c.105-.417.158-.988.156-1.706-.003-.574-.041-1.089-.114-1.545-.072-.455-.208-.844-.399-1.167-.193-.322-.47-.568-.828-.735-.361-.165-.839-.249-1.438-.247-.79.002-1.445.142-1.958.419-.515.278-.769.727-.768 1.35 0 .408.04.808.115 1.205.069.393.108.688.11.879.002.335-.119.62-.358.847s-.586.341-1.038.341c-.794.005-1.285-.136-1.478-.424s-.288-.658-.29-1.112c-.002-.527.116-1.031.354-1.51.24-.479.592-.905 1.059-1.277.463-.374 1.049-.668 1.755-.888.706-.218 1.515-.329 2.424-.332 1.104-.002 2.023.133 2.769.403.744.274 1.344.643 1.8 1.109.457.464.782.989.975 1.577.193.587.292 1.203.294 1.85l.027 8.944c.004.695.113 1.162.33 1.402.215.239.526.357.934.357.265-.002.54-.051.827-.15.288-.095.562-.239.825-.43l.282.39zm-6.313-8.386l-.071.002c-.05.31-.44.622-1.183.937l-2.69 1.088c-.764.313-1.351.754-1.755 1.316-.406.564-.607 1.269-.604 2.104.002.36.035.731.11 1.11.073.387.207.727.396 1.027.193.298.464.542.811.731.351.189.798.286 1.35.284.79-.003 1.429-.172 1.92-.512.489-.335.86-.754 1.109-1.261.251-.501.414-1.049.497-1.637.083-.585.124-1.118.122-1.598l-.014-3.592h.001v.001zm22.467 4.777c-.07.264-.207.641-.407 1.133-.205.492-.525.985-.967 1.475-.44.494-1.038.928-1.792 1.303-.754.372-1.729.561-2.926.565-.912.003-1.858-.137-2.841-.424-.984-.286-1.886-.743-2.699-1.377-.816-.63-1.483-1.458-2.004-2.486-.521-1.029-.779-2.299-.784-3.808-.004-1.173.214-2.266.655-3.272.438-1.006 1.034-1.881 1.788-2.626.751-.746 1.636-1.329 2.652-1.751 1.015-.421 2.1-.634 3.248-.639.646-.002 1.312.072 1.994.228.684.153 1.309.39 1.874.71.563.32 1.031.741 1.404 1.253.373.516.562 1.143.562 1.884.002.504-.159.917-.481 1.24-.323.324-.781.488-1.379.491-.407 0-.8-.088-1.169-.266-.372-.177-.561-.483-.562-.911 0-.339.085-.746.25-1.224.165-.481.249-.875.248-1.186-.002-.551-.281-.974-.831-1.271-.554-.298-1.188-.445-1.906-.442-.526 0-1.071.07-1.635.203-.563.134-1.076.465-1.544.994-.462.528-.846 1.32-1.14 2.374-.298 1.055-.438 2.494-.433 4.314.004 1.03.07 2 .206 2.908.133.912.375 1.706.725 2.387.351.681.831 1.22 1.443 1.611.611.393 1.411.589 2.391.587 1.053-.005 1.922-.163 2.602-.478.68-.31 1.22-.689 1.615-1.136.394-.441.686-.896.875-1.35.189-.456.332-.828.428-1.116l.54.103zm6.486-4.977c0 .239-.005.487-.018.737-.011.254-.017.57-.017.951.003.791.053 1.618.153 2.479.098.862.309 1.639.635 2.332.324.694.807 1.268 1.441 1.721.636.451 1.483.675 2.536.671 1.054-.003 1.922-.16 2.604-.477.684-.309 1.218-.69 1.613-1.135.394-.443.686-.896.877-1.35.189-.454.33-.827.426-1.115l.538.105c-.069.267-.209.643-.409 1.132-.201.492-.521.986-.965 1.477-.442.493-1.037.927-1.792 1.301-.754.371-1.729.562-2.926.566-1.199.004-2.309-.185-3.325-.562-1.019-.382-1.9-.934-2.646-1.646-.744-.719-1.321-1.571-1.735-2.563-.411-.991-.617-2.103-.621-3.322-.004-1.052.202-2.078.619-3.072.415-.995.986-1.877 1.716-2.646.73-.768 1.584-1.387 2.562-1.857.982-.47 2.033-.707 3.161-.711.668-.001 1.388.116 2.156.353.766.236 1.479.624 2.142 1.162.659.536 1.213 1.249 1.658 2.129.446.886.671 1.986.677 3.301l-11.06.039zm7.4-.527c.048-.333.067-.645.067-.936l-.003-.896c-.002-.814-.083-1.486-.241-2.012-.157-.526-.373-.946-.649-1.255-.277-.31-.613-.53-1.008-.662-.394-.13-.821-.195-1.275-.193-.812.003-1.486.168-2.009.491-.526.324-.945.765-1.253 1.317-.311.552-.541 1.185-.696 1.907-.154.719-.254 1.472-.297 2.262l7.364-.023z"/><path d="M46.13 98.179h-.032c-.016-.196-.071-.324-.171-.378-.099-.057-.221-.086-.366-.086l-.596.002.009 2.518c.001.212.109.323.326.328v.033l-.953.003v-.033c.088-.003.164-.03.225-.079.062-.052.094-.134.092-.253l-.008-2.518-.596.002c-.146 0-.267.029-.364.088-.099.057-.157.185-.172.38h-.031l-.003-.733h.031l.058.075.063.042.093.025.121.006 1.94-.006c.13 0 .23-.052.301-.15h.031l.002.734zm1.337-.587v.035c-.087 0-.165.024-.226.077-.063.05-.095.134-.095.252l.007 2.275c0 .114.034.2.101.251.067.053.14.077.22.077v.033l-.95.002v-.033c.089 0 .162-.026.225-.077.064-.052.095-.137.095-.255l-.007-2.275c0-.124-.032-.21-.096-.257l-.226-.067v-.035l.952-.003zm3.664-.012v.035l-.122.018-.081.042-.087.101-.02.162v.037l.111 2.226c.002.096.026.174.068.243.043.069.135.102.275.103v.033l-.973.003v-.033c.127-.015.214-.051.259-.114.043-.06.062-.153.057-.281l-.112-2.303h-.01l-1.048 2.733-1.009-2.626h-.01l-.102 2.125.022.271.097.136.192.063v.033l-.754.002v-.033c.096 0 .17-.024.218-.069l.099-.167.033-.277.114-2.197-.024-.042-.06-.063-.068-.05-.12-.051-.144-.012v-.034l.697-.002.936 2.449.935-2.456.631-.005zm.549.032v-.035l1.786-.005.002.472h-.028c0-.251-.169-.376-.506-.376l-.625.002.004 1.361h.548c.111 0 .207-.02.291-.055.086-.035.134-.116.146-.242h.03l.002.679h-.029l-.069-.179-.101-.081-.09-.021-.153-.012-.576.001.003 1.065.046.208c.03.058.101.086.211.085l.446-.001c.107 0 .196-.017.265-.048l.162-.131.1-.201h.03l-.102.471-1.785.005v-.033h.039c.064 0 .127-.025.188-.078.061-.051.092-.135.091-.251l-.006-2.26c0-.091-.021-.171-.063-.24-.042-.068-.113-.102-.216-.102l-.041.002zm2.247 2.923h.042c.072 0 .135-.03.194-.086.057-.058.084-.14.084-.245l-.007-2.263c0-.124-.031-.21-.096-.259-.064-.05-.137-.075-.226-.078v-.034l.958-.003v.034c-.084.003-.16.029-.223.078-.064.048-.098.136-.097.263l.009 2.188c0 .13.033.22.098.27.065.051.172.075.32.074l.257-.001.269-.04.162-.126.119-.236h.033l-.112.493-1.783.006v-.036h-.001zm2.28-2.938v-.034l1.786-.006.002.472h-.029c-.001-.251-.169-.377-.506-.376l-.625.002.004 1.362.55-.002c.109 0 .207-.019.29-.054.086-.035.134-.116.147-.243h.028l.002.68h-.028l-.07-.179-.101-.081-.089-.022-.154-.011-.577.001.003 1.065.048.209c.028.058.101.085.212.085l.445-.001c.108 0 .197-.018.265-.047l.164-.132.098-.202h.027l-.1.472-1.786.005v-.033h.04c.063 0 .127-.025.188-.077.06-.051.091-.136.091-.253l-.007-2.258c0-.092-.021-.171-.062-.239-.043-.067-.115-.102-.218-.102l-.038-.001zm3.771.529h-.03c-.02-.146-.083-.271-.192-.382-.107-.109-.251-.163-.428-.163-.116 0-.216.028-.306.083-.088.055-.157.126-.206.22-.05.094-.072.203-.072.321l.044.251.131.19.203.157.313.181c.219.12.393.238.514.359.123.117.185.283.186.493 0 .126-.032.25-.098.368-.065.117-.165.216-.298.292-.134.076-.297.115-.494.116-.122 0-.233-.013-.327-.039l-.292-.11-.083-.021-.056.031-.034.133h-.033l-.003-.75h.036c.05.218.143.384.286.496.141.113.314.169.516.168.153 0 .273-.028.364-.086.094-.058.156-.127.189-.208l.053-.247c0-.167-.053-.304-.154-.413-.102-.106-.258-.213-.47-.324l-.321-.181-.21-.169c-.069-.067-.129-.151-.17-.245-.042-.095-.063-.203-.064-.324 0-.141.036-.275.111-.406.073-.128.178-.232.315-.311.134-.077.292-.117.468-.119.131 0 .264.022.404.068l.086.017.093-.092h.03l.002.644-.003.002zm2.152-.005h-.03c-.02-.147-.084-.271-.192-.382-.107-.109-.251-.163-.428-.162-.115 0-.216.026-.306.083-.091.055-.159.127-.207.22-.05.094-.073.202-.072.323l.044.25.13.191.204.157.312.18c.219.12.394.238.515.36.122.118.185.284.186.494 0 .126-.033.25-.099.369-.066.117-.164.217-.297.293-.133.077-.297.115-.494.115-.122 0-.233-.013-.327-.039l-.292-.111-.084-.021-.055.031-.035.133h-.036l-.002-.75h.035c.05.217.143.384.286.496.142.114.314.168.515.168.154 0 .274-.028.366-.086s.155-.126.19-.209l.052-.246c0-.167-.053-.305-.155-.412-.103-.106-.258-.213-.47-.324l-.32-.181-.211-.168c-.068-.068-.128-.151-.169-.245-.043-.095-.065-.204-.065-.325 0-.141.037-.275.112-.405.073-.128.178-.232.316-.312.135-.076.291-.117.465-.117.132 0 .266.022.406.067l.087.018.092-.093h.03l.003.64z"/></svg>