<svg xmlns="http://www.w3.org/2000/svg" width="200" height="210" viewBox="0 0 200 210"><path fill="#F0F0F2" d="M-21.5-14.5h243v239h-243v-239z"/><path fill="#92CDDC" d="M87.979 109.555l-3.523.011.032 9.991-.53.002c-.322-.32-.589-.54-.794-.657-.205-.115-.527-.175-.969-.173-.529.002-1.064.144-1.606.424-.542.283-1.171.599-1.889.951-.719.358-1.561.674-2.528.955-.97.282-2.142.426-3.522.43-2.084.007-3.935-.33-5.551-1.015-1.617-.684-3.176-1.772-4.68-3.266-1.471-1.464-2.696-3.188-3.67-5.185-.974-1.993-1.464-4.235-1.472-6.732-.005-1.671.18-3.176.558-4.512.375-1.336.835-2.506 1.375-3.506.539-.999 1.095-1.837 1.664-2.515.571-.675 1.045-1.207 1.426-1.589 1.317-1.327 2.825-2.402 4.525-3.229 1.701-.827 3.636-1.245 5.808-1.252 1.116-.004 2.032.083 2.753.256.718.172 1.344.369 1.873.588l1.433.59c.424.173.902.259 1.433.257.588-.002 1.006-.084 1.254-.247.25-.161.49-.389.725-.684l.66-.002.028 8.806-.486.001c-.119-.763-.349-1.658-.689-2.684-.342-1.025-.874-2.008-1.596-2.945-.723-.937-1.679-1.727-2.869-2.369-1.19-.641-2.711-.959-4.56-.954-2.202.007-3.967.473-5.299 1.403-1.333.93-2.371 2.149-3.114 3.664-.743 1.514-1.238 3.225-1.481 5.135-.244 1.907-.36 3.83-.354 5.768.004 1.322.066 2.643.189 3.961.121 1.32.323 2.567.606 3.739.282 1.173.674 2.26 1.176 3.256.502.996 1.151 1.846 1.946 2.548.882.786 1.793 1.337 2.737 1.641.939.305 2.159.456 3.655.451.91-.003 1.82-.163 2.728-.473.909-.311 1.722-.773 2.441-1.394.717-.619 1.302-1.406 1.752-2.359.453-.955.677-2.077.672-3.369l-.012-3.699-5.679.019-.002-.617 13.429-.043.002.622h-.005zm2.192 10.601l3.391-.012-.057-17.654-3.391.011-.002-.616 7.089-.023.015 4.446h.087c.117-.439.305-.938.566-1.498.263-.56.629-1.097 1.097-1.612.467-.515 1.03-.949 1.692-1.304.656-.354 1.456-.534 2.396-.537.676-.002 1.263.105 1.764.324.499.219.911.497 1.235.832.323.337.56.725.71 1.164.146.439.223.878.224 1.321.003.969-.215 1.614-.654 1.939-.438.325-.952.485-1.54.487-1.293.004-1.939-.403-1.942-1.223-.001-.266.026-.478.087-.643l.195-.485c.074-.16.139-.345.197-.549.058-.204.086-.5.085-.88-.004-.939-.519-1.407-1.547-1.403-.47.001-.97.18-1.496.534-.528.354-1.019.87-1.471 1.546-.453.678-.831 1.494-1.136 2.449-.306.954-.458 2.049-.454 3.279l.033 10.083 3.83-.013.002.617-11.006.036.001-.616zm37.775.009c-.381.296-.836.556-1.363.775-.528.223-1.173.334-1.935.337-1.411.004-2.433-.296-3.066-.893-.634-.601-1.068-1.441-1.306-2.525h-.088c-.117.264-.276.594-.479.991-.206.397-.521.779-.943 1.148-.424.366-.988.678-1.69.928-.705.254-1.601.38-2.687.384-1.231.004-2.215-.132-2.951-.408-.734-.275-1.308-.617-1.719-1.028-.414-.41-.687-.871-.821-1.385-.135-.513-.202-.992-.203-1.431-.003-1.027.2-1.85.609-2.467.409-.618.94-1.112 1.603-1.479.657-.372 1.393-.674 2.198-.909.807-.239 1.619-.492 2.442-.757.97-.326 1.768-.606 2.397-.845.632-.235 1.119-.525 1.473-.862.354-.34.592-.767.723-1.28.129-.511.194-1.211.191-2.09-.003-.705-.05-1.336-.139-1.895-.089-.558-.255-1.035-.489-1.43-.238-.395-.576-.696-1.015-.901-.443-.202-1.03-.305-1.763-.302-.969.003-1.77.174-2.399.514-.632.34-.943.892-.94 1.655.001.5.049.99.14 1.476.086.482.134.843.135 1.078.002.411-.146.759-.438 1.037-.293.279-.718.419-1.273.421-.972.003-1.575-.169-1.81-.522-.237-.354-.354-.806-.356-1.363-.002-.646.142-1.263.434-1.851.295-.588.725-1.109 1.297-1.565.568-.458 1.287-.819 2.152-1.087.864-.267 1.855-.403 2.97-.406 1.352-.004 2.48.162 3.393.494.911.337 1.647.788 2.206 1.36.56.569.959 1.212 1.194 1.933.238.719.358 1.474.361 2.267l.035 10.962c.003.851.137 1.423.403 1.719.264.292.646.438 1.145.437.324-.001.66-.062 1.013-.183.354-.117.688-.294 1.012-.528l.347.476zm-7.738-10.276l-.088.001c-.06.379-.54.763-1.448 1.149l-3.299 1.332c-.936.384-1.655.924-2.15 1.613-.498.692-.744 1.554-.741 2.579.002.441.043.896.135 1.362.09.473.254.89.487 1.256.237.367.567.664.994.899.427.232.976.349 1.652.347.969-.003 1.751-.211 2.354-.625.598-.413 1.052-.926 1.358-1.546.308-.616.509-1.286.61-2.006.101-.718.15-1.371.148-1.959l-.015-4.403h.003v.001zm27.534 5.853c-.086.324-.252.788-.5 1.389-.25.603-.645 1.208-1.183 1.809-.541.605-1.273 1.136-2.197 1.595-.925.456-2.118.688-3.586.693-1.118.004-2.278-.167-3.481-.519-1.207-.349-2.31-.91-3.308-1.687-1.001-.771-1.819-1.786-2.455-3.048-.639-1.261-.956-2.817-.962-4.665-.005-1.438.262-2.776.802-4.011.539-1.234 1.269-2.307 2.192-3.22.921-.914 2.005-1.628 3.25-2.146 1.244-.517 2.574-.778 3.981-.783.792-.003 1.608.089 2.443.279.839.188 1.604.478 2.296.871.69.393 1.265.907 1.723 1.535.457.632.688 1.4.69 2.309.002.617-.195 1.124-.591 1.521-.395.397-.958.598-1.691.601-.499.001-.979-.106-1.433-.325-.456-.217-.687-.593-.688-1.118-.001-.415.102-.915.305-1.5.203-.589.307-1.072.306-1.454-.003-.675-.344-1.193-1.02-1.558-.678-.365-1.454-.545-2.335-.542-.646.002-1.314.086-2.004.249-.69.164-1.32.57-1.891 1.218-.567.647-1.037 1.617-1.398 2.91-.364 1.292-.538 3.055-.531 5.287.005 1.261.088 2.451.253 3.564.164 1.117.46 2.091.889 2.925.429.835 1.019 1.494 1.769 1.976.749.48 1.728.721 2.93.717 1.291-.004 2.354-.199 3.189-.585.833-.379 1.495-.846 1.978-1.393.482-.541.841-1.097 1.072-1.652.232-.559.408-1.015.525-1.368l.661.126zm7.949-6.099c.001.292-.006.596-.021.903-.012.309-.02.697-.019 1.165.004.969.064 1.983.187 3.039.121 1.056.38 2.008.779 2.858.397.851.988 1.553 1.768 2.108.779.553 1.816.828 3.106.824 1.293-.004 2.354-.197 3.191-.584.837-.378 1.493-.847 1.977-1.392.481-.543.839-1.097 1.073-1.653.234-.558.406-1.015.522-1.366l.661.128c-.086.327-.257.788-.502 1.389-.247.603-.64 1.208-1.182 1.809-.543.605-1.271 1.136-2.198 1.595-.924.456-2.117.688-3.585.693-1.469.005-2.828-.226-4.075-.689-1.248-.467-2.329-1.142-3.242-2.016-.912-.88-1.619-1.924-2.126-3.142-.503-1.215-.756-2.574-.761-4.07-.004-1.29.248-2.546.759-3.765.508-1.221 1.209-2.302 2.103-3.244.895-.942 1.939-1.701 3.14-2.277 1.204-.575 2.493-.866 3.874-.871.82-.002 1.701.142 2.643.432.939.29 1.813.764 2.623 1.423.809.657 1.489 1.53 2.033 2.61.548 1.086.824 2.435.83 4.048l-13.558.045zm9.069-.647c.058-.408.084-.79.083-1.145l-.004-1.099c-.003-.999-.101-1.822-.294-2.467-.193-.645-.457-1.159-.796-1.538-.341-.38-.752-.65-1.235-.812-.483-.159-1.007-.239-1.563-.237-.996.003-1.821.205-2.463.602-.645.397-1.158.937-1.535 1.613-.38.677-.663 1.453-.854 2.338-.188.88-.31 1.804-.363 2.772l9.024-.029v.002z"/><path d="M33.973 96.731h-.039c-.019-.239-.087-.396-.209-.464-.122-.07-.271-.105-.449-.105l-.731.002.01 3.085c.001.261.134.396.401.402v.04l-1.168.004v-.04c.108-.004.201-.037.277-.097.075-.062.113-.164.112-.31l-.01-3.085-.731.002c-.178 0-.326.036-.446.108-.122.07-.192.226-.211.465h-.039l-.003-.898h.039l.071.091.078.051.112.03.148.008 2.379-.008c.159 0 .282-.063.368-.184h.039l.002.903zm1.639-.72v.042c-.107 0-.202.031-.277.095-.077.061-.117.163-.116.308l.009 2.788c0 .141.042.245.124.309.083.064.172.095.271.095v.04l-1.165.004v-.04c.109 0 .198-.031.276-.095.078-.063.117-.167.116-.312l-.009-2.788c0-.152-.039-.257-.118-.314l-.277-.083v-.042l1.166-.007zm4.489-.014v.042l-.149.022-.098.051-.107.123-.025.198v.045l.137 2.729c.003.116.032.213.083.298.053.084.166.125.338.126v.04l-1.191.003v-.04c.155-.018.261-.063.316-.139.053-.074.077-.188.069-.344l-.137-2.823h-.012l-1.283 3.35-1.237-3.218h-.012l-.125 2.604.028.332.119.168.236.077v.04l-.925.003v-.04c.118-.001.207-.03.267-.085l.122-.204.04-.339.141-2.693-.031-.052-.073-.077-.084-.062-.146-.062-.177-.016v-.042l.854-.003 1.147 3.001 1.146-3.009.769-.004zm.675.038v-.042l2.189-.007.002.578h-.036c-.001-.308-.207-.462-.62-.461l-.765.002.005 1.669.671-.002c.136 0 .253-.023.357-.067.105-.042.164-.142.18-.297h.036l.003.833h-.036l-.085-.218-.124-.1-.109-.026-.187-.014-.706.002.004 1.305.057.255c.036.071.124.106.26.105l.547-.002c.131 0 .24-.02.324-.059l.199-.161.122-.246h.036l-.125.577-2.188.007v-.04h.049c.079 0 .155-.031.23-.096.074-.063.112-.166.111-.309l-.009-2.768c0-.112-.026-.21-.078-.294-.051-.083-.138-.125-.265-.125h-.049zm2.753 3.583h.051c.089 0 .167-.036.238-.106.069-.071.103-.17.103-.299l-.009-2.772c0-.153-.038-.259-.118-.318-.078-.06-.168-.092-.276-.095v-.042l1.174-.004v.042c-.103.004-.196.035-.273.095-.079.059-.12.166-.119.322l.009 2.681c0 .159.041.269.121.33.08.063.211.092.392.091l.315-.001.33-.05.197-.153.146-.29h.041l-.137.604-2.185.007v-.042zm2.793-3.6v-.042l2.189-.007.002.578h-.036c-.001-.308-.207-.462-.619-.461l-.766.003.005 1.669.674-.002c.134 0 .252-.023.355-.067.105-.042.165-.142.181-.297h.035l.003.833h-.035l-.085-.219-.124-.1-.109-.026-.188-.014-.707.002.004 1.305.058.255c.036.071.124.106.26.105l.546-.001c.132 0 .241-.021.324-.059l.201-.161.121-.246h.034l-.123.577-2.189.007v-.04h.048c.078 0 .156-.031.23-.095.075-.063.112-.166.111-.31l-.009-2.768c0-.112-.025-.21-.076-.293-.052-.083-.14-.125-.267-.125l-.048-.001zm4.623.649h-.038c-.025-.179-.102-.333-.235-.468-.132-.133-.308-.199-.524-.199-.142 0-.266.033-.375.102-.109.067-.194.155-.253.27-.06.115-.089.248-.088.394l.055.307.159.234.249.192.384.221c.269.147.48.292.629.44.15.144.227.347.228.604 0 .155-.04.307-.121.452-.08.144-.201.265-.364.359-.164.094-.364.141-.605.142-.15 0-.286-.016-.402-.047l-.357-.135-.102-.025-.068.038-.042.163h-.043l-.003-.92h.043c.062.267.176.472.351.608.173.139.385.207.632.206.188 0 .336-.035.448-.106.113-.071.191-.155.232-.255l.065-.302c0-.204-.065-.372-.19-.505-.125-.13-.317-.261-.576-.398l-.392-.222-.258-.207c-.085-.083-.158-.185-.209-.3-.051-.116-.078-.249-.079-.398 0-.173.045-.338.137-.497.09-.157.218-.285.386-.382.166-.094.358-.144.573-.145.16 0 .324.027.496.083l.106.02.113-.113h.038l.002.789h-.002zm2.638-.008h-.038c-.025-.179-.102-.333-.235-.468-.132-.133-.308-.2-.524-.199-.142 0-.266.033-.375.101-.11.067-.195.156-.254.27-.061.115-.089.248-.088.395l.055.306.159.234.249.193.383.221c.269.147.482.292.63.441.15.144.227.347.228.604 0 .155-.04.307-.121.452-.081.144-.201.266-.364.36-.164.094-.364.141-.605.142-.15 0-.286-.016-.402-.048l-.357-.135-.102-.026-.068.038-.042.163h-.044l-.003-.92h.043c.062.267.176.472.351.608.173.139.385.206.632.206.188-.001.335-.035.448-.106.113-.071.19-.155.233-.256l.064-.301c0-.204-.065-.373-.19-.505-.126-.13-.317-.261-.575-.398l-.393-.222-.258-.206c-.085-.083-.157-.185-.208-.3-.052-.116-.079-.249-.08-.398 0-.173.046-.338.137-.497.089-.157.219-.285.387-.382.166-.094.358-.144.57-.144.162 0 .326.027.498.082l.106.021.113-.113h.038l.002.787z"/></svg>