<?xml version="1.0" encoding="utf-8"?>
<!-- Generator: Adobe Illustrator 16.0.4, SVG Export Plug-In . SVG Version: 6.00 Build 0)  -->
<!DOCTYPE svg PUBLIC "-//W3C//DTD SVG 1.1//EN" "http://www.w3.org/Graphics/SVG/1.1/DTD/svg11.dtd">
<svg version="1.1" id="Layer_1" xmlns="http://www.w3.org/2000/svg" xmlns:xlink="http://www.w3.org/1999/xlink" x="0px" y="0px"
	 width="61.75px" height="37.5px" viewBox="0 0 61.75 37.5" enable-background="new 0 0 61.75 37.5" xml:space="preserve">
<g>
	<path fill="#00A0D1" d="M53.34,4.834c-1.177,1.757-2.703,3.354-4.595,4.785v1.172c0,4.233-0.979,8.302-2.927,12.209
		c-1.955,3.906-4.982,7.213-9.084,9.912c-4.103,2.703-8.822,4.055-14.165,4.055c-5.21,0-9.928-1.369-14.16-4.102
		c0.452,0.062,1.204,0.1,2.245,0.1c4.297,0,8.107-1.305,11.427-3.912c-2.021-0.062-3.808-0.684-5.369-1.852
		c-1.562-1.172-2.64-2.703-3.224-4.594c0.326,0.131,0.879,0.199,1.661,0.199c0.842,0,1.657-0.101,2.439-0.296
		c-2.149-0.456-3.906-1.528-5.273-3.224c-1.367-1.692-2.051-3.645-2.051-5.862V13.33c1.173,0.652,2.54,1.041,4.103,1.172
		c-2.735-1.888-4.103-4.459-4.103-7.718c0-1.562,0.421-3.092,1.268-4.59c5.017,6.12,11.363,9.312,19.049,9.574
		c-0.198-0.588-0.294-1.272-0.294-2.055c0-2.54,0.895-4.702,2.688-6.494c1.787-1.789,3.983-2.687,6.592-2.687
		c2.666,0,4.886,0.946,6.643,2.833c1.955-0.389,3.902-1.104,5.857-2.15c-0.652,2.15-1.987,3.843-4.006,5.079
		C49.891,6.038,51.646,5.549,53.34,4.834z"/>
</g>
</svg>
