<?xml version="1.0" encoding="utf-8"?>
<!-- Generator: Adobe Illustrator 16.0.4, SVG Export Plug-In . SVG Version: 6.00 Build 0)  -->
<!DOCTYPE svg PUBLIC "-//W3C//DTD SVG 1.1//EN" "http://www.w3.org/Graphics/SVG/1.1/DTD/svg11.dtd">
<svg version="1.1" id="Layer_1" xmlns="http://www.w3.org/2000/svg" xmlns:xlink="http://www.w3.org/1999/xlink" x="0px" y="0px"
	 width="61.75px" height="37.5px" viewBox="0 0 61.75 37.5" enable-background="new 0 0 61.75 37.5" xml:space="preserve">
<g>
	<path fill="#FFFFFF" d="M36.22,21.144c0,3.007-2.449,5.347-5.345,5.347s-5.345-2.34-5.345-5.347c0-3.006,2.449-5.345,5.345-5.345
		C33.882,15.91,36.22,18.249,36.22,21.144z M48.692,12.903v16.593c0,2.562-2.116,4.789-4.788,4.789H17.846
		c-2.672,0-4.788-2.116-4.788-4.789V12.792c0-2.562,2.116-4.788,4.788-4.788h4.121l0.891-2.562c0.446-1.225,1.894-2.228,3.23-2.228
		h9.576c1.337,0,2.784,1.003,3.23,2.228l0.891,2.673h4.12C46.576,8.115,48.692,10.23,48.692,12.903z M39.116,21.256
		c0-4.566-3.676-8.353-8.353-8.353c-4.566,0-8.352,3.786-8.352,8.353c0,4.565,3.675,8.352,8.352,8.352
		C35.44,29.496,39.116,25.821,39.116,21.256z"/>
</g>
</svg>
