<svg xmlns="http://www.w3.org/2000/svg" xmlns:xlink="http://www.w3.org/1999/xlink" width="740" height="209.5" viewBox="0 0 740 209.5"><circle fill="#95A5A6" cx="178.157" cy="104.584" r="74.584"/><circle fill="#BDC3C7" cx="178.157" cy="104.584" r="69.917"/><path fill="#34495E" d="M176.859 52.859h2.594v12.909h-2.594z"/><path fill="#E74C3C" d="M178.228 57.01"/><path fill="#34495E" d="M183.953 63.464s-5.725-.133-5.758-6.455c0 0-.026-.603-.075 0-.533 6.435-5.759 6.455-5.759 6.455 0 2.67 3.09 3.212 5.76 3.212h.073c2.669 0 5.446-.895 5.759-3.212"/><circle fill="#34495E" cx="178.157" cy="54.603" r="4.377"/><circle cx="178.157" cy="104.584" r="69.917" fill="none"/><g opacity=".1"><defs><circle id="a" opacity=".1" cx="178.119" cy="105.424" r="69.917"/></defs><clipPath id="b"><use xlink:href="#a" overflow="visible"/></clipPath><path clip-path="url(#b)" fill="#646767" d="M285.799 226.069l39.71-55.389-123.067-88.226-39.708 55.39-4.682 25.745z"/></g><defs><circle id="c" cx="178.157" cy="104.584" r="69.917"/></defs><clipPath id="d"><use xlink:href="#c" overflow="visible"/></clipPath><path clip-path="url(#d)" fill="#EBEDEE" d="M150.512 169.715c8.016 5.017 17.492 7.917 27.645 7.917 10.153 0 19.629-2.9 27.645-7.917l-.037-.421c-.69-7.758-1.945-15.236-3.66-18.814-2.167-4.521-9.667-17.918-3.537-34.659 6.13-16.742 11.79-30.653 3.537-33.482-8.253-2.829-17.449-1.885-17.449-11.789l.119-5.189s-2.724 2.457-6.59 2.41h-.055c-3.866.047-6.59-2.41-6.59-2.41l.118 5.189c0 9.903-9.195 8.959-17.449 11.789-8.253 2.83-2.593 16.74 3.537 33.482 6.129 16.741-1.281 30.033-3.537 34.659-1.544 3.167-2.963 11.012-3.654 18.757l-.043.478z"/><circle fill="#95A5A6" cx="561.915" cy="104.514" r="74.513"/><circle cx="561.915" cy="104.513" r="69.851" fill="none"/><circle fill="#BDC3C7" cx="561.915" cy="104.513" r="69.851"/><path fill="#646767" d="M615.807 118.494c-2.42-3.025-6.717-4.334-15.395-8.853-4.672-2.694-17.426-7.531-22.924-13.853-5.783-10.167-12.158-11.792-14.398-12.076v-2.052c0-1.901.049-1.957.855-2.889.473-.545 1.186-1.371 2.148-2.826.947-1.429 1.275-2.89.973-4.34-.516-2.482-2.736-3.95-2.83-4.011l-.16-.085c-5.229-2.29-8.41.846-9.609 2.026l-.223.215c-.4.379-.637.514-.723.555-.484.035-.902.387-1.002.883-.119.599.268 1.179.865 1.298.646.135 1.443-.25 2.377-1.131l.254-.248c1.148-1.134 3.281-3.235 7.082-1.617.549.386 3.053 2.369 1.156 5.237-.885 1.335-1.518 2.065-1.979 2.597-1.146 1.325-1.395 1.845-1.395 4.333v2.14c-2.609.48-8.482 2.557-13.85 11.989-5.496 6.322-18.25 11.159-22.924 13.853-8.68 4.52-12.973 5.828-15.393 8.853-2.42 3.021-1.541 5.55-1.211 5.936.264.307 1.92-.284 4.488-1.475h100.535c2.566 1.19 4.223 1.781 4.486 1.475.334-.382 1.215-2.913-1.203-5.934zm-53.547-23.53s30.227 17.822 45.777 25.783h-91.555c15.551-7.96 45.778-25.783 45.778-25.783z"/><path fill="#EBEDEE" d="M560.881 83.798c-2.609.481-8.482 2.557-13.85 11.99-5.496 6.322-18.25 11.159-22.924 13.853-8.68 4.52-12.973 5.828-15.393 8.853-2.42 3.021-1.541 5.55-1.211 5.936.264.307 1.92-.284 4.488-1.475h100.535c2.566 1.19 4.223 1.781 4.486 1.475.33-.383 1.211-2.915-1.207-5.936-2.418-3.025-6.717-4.334-15.393-8.853-4.674-2.694-17.428-7.531-22.926-13.853-5.781-10.167-12.158-11.792-14.398-12.076m-.826 11.252s30.225 17.822 45.775 25.783h-91.555c15.551-7.96 45.78-25.783 45.78-25.783z"/><circle fill="#95A5A6" cx="370" cy="104.726" r="74.725"/><circle cx="370" cy="104.725" r="70.05" fill="none"/><circle fill="#BDC3C7" cx="370" cy="104.726" r="70.05"/><path fill="#646767" d="M347.878 71.824h17.324v7.728h-17.324zM375.049 71.824h17.322v7.728h-17.322z"/><path fill="#C9D0D1" d="M351.991 76.311h9.347v4.237h-9.347zM379.037 76.311h9.346v4.237h-9.346z"/><path d="M380.22 75.812" fill="none"/><path fill="#646767" d="M381.505 73.029c0-2.157-1.667-3.905-3.724-3.905h-15.087c-2.056 0-3.724 1.748-3.724 3.905h-3.613v-2.141c0-2.718 2.204-4.923 4.923-4.923h19.94c2.718 0 4.923 2.205 4.923 4.923v2.141h-3.638z"/><path d="M360.28 75.812M362.694 76.934" fill="none"/><path fill="#646767" d="M320.46 78.43h99.081v65.056h-99.081z"/><path fill="#EBEDEE" d="M324.199 82.918h90.855v56.081h-90.855z"/><path fill="#BDC3C7" d="M324.199 82.918h19.068v56.081h-19.068z"/><path fill="#646767" d="M328.685 79.177h2.244v63.187h-2.244zM335.416 79.552h2.244v63.187h-2.244zM402.717 79.177h2.242v63.187h-2.242zM409.445 79.552h2.244v63.187h-2.244z"/><path fill="#BDC3C7" d="M411.689 82.916h3.364v56.083h-3.364z"/><path fill="#34495E" d="M348.502 94.133h15.703v21.062h-15.703zM348.419 94.134l7.931-7.931 7.932 7.932-7.931 7.931z"/><path fill="#EBEDEE" d="M350.083 94.786h12.504v18.539h-12.504zM350.019 94.792l6.314-6.316 6.317 6.316-6.314 6.316z"/><path fill="#34495E" d="M355.357 81.546h1.993v13.46h-1.993z"/><path fill="#EBEDEE" d="M330.929 82.916h4.486v56.083h-4.486z"/></svg>