<svg xmlns="http://www.w3.org/2000/svg" width="740" height="124.25" viewBox="0 0 740 124.25"><path d="M310.479 38.173c10.834 20.999 6.745 44.663-9.135 52.857-15.879 8.199-37.543-2.169-48.378-23.169-10.836-20.997-6.743-44.661 9.134-52.855 15.882-8.203 37.54 2.172 48.379 23.167zM310.453 38.658c9.397 23.011 4.102 46.936-11.831 53.436-15.933 6.498-36.468-6.879-45.864-29.888-9.397-23.008-4.101-46.937 11.833-53.437 15.932-6.498 36.464 6.881 45.862 29.889zM403.762 56.234c15.782 21.578 15.349 48.746-.969 60.684-16.315 11.943-42.345 4.138-58.128-17.443-15.784-21.576-15.347-48.748.967-60.687 16.32-11.943 42.343-4.133 58.13 17.446z"/><ellipse transform="matrix(.807 -.591 .591 .807 26.237 235.998)" fill="#fff" cx="374.214" cy="77.854" rx="25.503" ry="33.713"/><path fill="#fff" d="M301.753 42.679c7.548 14.624 4.698 31.105-6.362 36.816-11.062 5.709-26.152-1.515-33.698-16.138-7.548-14.624-4.698-31.106 6.362-36.819 11.062-5.707 26.149 1.518 33.698 16.141z"/><path d="M311.132 60.888s11.747-8.267 23.928 10.005l7.396-20.012s-14.792-10.44-34.368-9.135l3.044 19.142zM242.397 43.051s61.775-19.577 88.312-26.537c26.538-6.961 47.854 6.09 47.854 6.09s13.051 9.136 13.921 1.306c.871-7.831 0-12.182-16.966-18.707-16.967-6.525-47.419-2.609-66.996 1.74-19.577 4.351-71.781 19.577-71.781 19.577s-2.61 20.446 5.656 16.531zM409.451 72.633l11.312 4.785s3.915 2.176 13.921-2.61c10.006-4.785 67.431-33.497 67.865-39.153.436-5.655 3.045 18.271-1.74 21.317-4.786 3.045-63.515 35.238-63.515 35.238s-8.274 6.239-26.103 5.22c-15.225-.87-1.74-24.797-1.74-24.797zM237.177 40.583s.871 4.932 12.762 7.542c11.89 2.61 1.16-11.892 1.16-11.892l-13.922 4.35z"/><circle fill="#fff" cx="421.198" cy="89.601" r="1.45"/><circle fill="#fff" cx="414.963" cy="88.15" r="1.45"/><circle fill="#fff" cx="246.385" cy="38.269" r="1.45"/><circle fill="#fff" cx="240.151" cy="36.817" r="1.45"/></svg>