<?xml version="1.0" encoding="utf-8"?>
<!-- Generator: Adobe Illustrator 16.0.4, SVG Export Plug-In . SVG Version: 6.00 Build 0)  -->
<!DOCTYPE svg PUBLIC "-//W3C//DTD SVG 1.1//EN" "http://www.w3.org/Graphics/SVG/1.1/DTD/svg11.dtd">
<svg version="1.1" id="Layer_1" xmlns="http://www.w3.org/2000/svg" xmlns:xlink="http://www.w3.org/1999/xlink" x="0px" y="0px"
	 width="740px" height="124.25px" viewBox="0 0 740 124.25" enable-background="new 0 0 740 124.25" xml:space="preserve">
<path d="M310.479,38.173c10.834,20.999,6.745,44.663-9.135,52.856c-15.879,8.199-37.543-2.168-48.378-23.168
	C242.13,46.864,246.223,23.2,262.1,15.006C277.982,6.803,299.64,17.178,310.479,38.173z M310.453,38.658
	c9.397,23.011,4.102,46.936-11.831,53.436c-15.933,6.498-36.468-6.879-45.864-29.888c-9.397-23.008-4.101-46.937,11.833-53.437
	C280.523,2.271,301.055,15.65,310.453,38.658z M403.762,56.234c15.782,21.579,15.35,48.747-0.969,60.684
	c-16.314,11.943-42.345,4.139-58.128-17.443c-15.784-21.576-15.347-48.748,0.967-60.687
	C361.952,26.845,387.975,34.655,403.762,56.234L403.762,56.234z"/>
<ellipse transform="matrix(-0.5908 -0.8068 0.8068 -0.5908 532.6989 425.4844)" fill="#FFFFFF" cx="374.24" cy="77.666" rx="33.722" ry="25.51"/>
<path fill="#FFFFFF" d="M301.753,42.679c7.548,14.624,4.698,31.105-6.362,36.816c-11.062,5.709-26.152-1.515-33.698-16.138
	c-7.548-14.625-4.698-31.106,6.362-36.819C279.117,20.831,294.204,28.056,301.753,42.679z"/>
<path d="M311.132,60.888c0,0,11.747-8.267,23.928,10.004l7.396-20.012c0,0-14.792-10.44-34.368-9.135L311.132,60.888z
	 M242.397,43.051c0,0,61.775-19.577,88.312-26.537c26.538-6.961,47.854,6.09,47.854,6.09s13.051,9.136,13.922,1.306
	c0.871-7.831,0-12.182-16.967-18.707s-47.418-2.609-66.996,1.74c-19.577,4.351-71.781,19.577-71.781,19.577
	S234.131,46.966,242.397,43.051L242.397,43.051z M409.451,72.633l11.312,4.785c0,0,3.915,2.176,13.921-2.609
	c10.007-4.785,67.432-33.498,67.865-39.154c0.437-5.655,3.045,18.271-1.74,21.317c-4.785,3.045-63.515,35.238-63.515,35.238
	s-8.274,6.239-26.103,5.22C395.966,96.561,409.451,72.633,409.451,72.633L409.451,72.633z M237.177,40.583
	c0,0,0.871,4.932,12.762,7.542c11.89,2.61,1.16-11.892,1.16-11.892L237.177,40.583z"/>
<circle fill="#FFFFFF" cx="421.198" cy="89.601" r="1.45"/>
<circle fill="#FFFFFF" cx="414.963" cy="88.15" r="1.45"/>
<circle fill="#FFFFFF" cx="246.385" cy="38.269" r="1.45"/>
<circle fill="#FFFFFF" cx="240.151" cy="36.817" r="1.45"/>
</svg>
