<svg xmlns="http://www.w3.org/2000/svg" width="740" height="124.25" viewBox="0 0 740 124.25"><circle fill="#fff" cx="246.385" cy="38.269" r="1.45"/><circle fill="#fff" cx="240.151" cy="36.817" r="1.45"/><g fill="#2ECC71"><path d="M313.314 98.365v24.459h-4.065v-24.459h4.065zm9.53 2.651c0 .352-.071.682-.213.986-.143.309-.333.576-.568.807s-.513.416-.831.553-.659.205-1.021.205c-.351 0-.684-.068-.996-.205-.312-.137-.583-.322-.813-.553-.231-.23-.414-.498-.552-.807-.138-.305-.207-.635-.207-.986 0-.361.069-.701.207-1.02.136-.318.32-.594.552-.824.23-.232.502-.414.813-.553.314-.137.646-.205.996-.205.361 0 .702.068 1.021.205.318.139.596.32.831.553.235.23.424.506.568.824.141.318.213.658.213 1.02zm-.609 4.922v16.887h-4.065v-16.887h4.065zm5.316 16.886v-13.826l-1.464-.23c-.318-.055-.573-.164-.766-.33-.191-.164-.288-.395-.288-.691v-1.662h2.518v-1.252c0-.965.146-1.832.437-2.6.291-.768.708-1.42 1.25-1.959.543-.537 1.204-.947 1.984-1.234.778-.285 1.657-.428 2.633-.428.779 0 1.503.105 2.173.312l-.082 2.043c-.022.318-.17.514-.444.592-.274.076-.593.115-.954.115-.483 0-.914.051-1.293.156-.378.104-.699.285-.962.543s-.464.598-.602 1.021c-.136.422-.205.945-.205 1.572v1.119h4.395v2.895h-4.264v13.842h-4.065v.002zm17.793-17.15c1.063 0 2.044.17 2.938.51s1.665.836 2.312 1.488c.648.654 1.152 1.455 1.515 2.404.361.949.543 2.033.543 3.25 0 .309-.015.562-.041.768-.027.203-.077.361-.147.479-.071.113-.168.195-.288.244-.121.051-.274.074-.461.074h-10.435c.121 1.734.586 3.006 1.399 3.82.812.811 1.888 1.217 3.228 1.217.658 0 1.226-.076 1.702-.23.478-.154.895-.324 1.25-.512l.938-.508c.27-.154.53-.23.781-.23.165 0 .308.031.429.098s.225.158.313.281l1.186 1.48c-.45.527-.955.969-1.515 1.324-.56.357-1.145.643-1.752.855-.609.215-1.229.367-1.859.453-.631.088-1.243.133-1.835.133-1.174 0-2.266-.195-3.275-.586-1.009-.387-1.888-.965-2.634-1.727-.745-.762-1.332-1.707-1.761-2.83-.428-1.125-.642-2.428-.642-3.91 0-1.15.186-2.236.559-3.25.372-1.016.907-1.898 1.604-2.65.696-.752 1.548-1.348 2.55-1.787 1.003-.439 2.136-.658 3.398-.658zm.082 2.912c-1.185 0-2.112.336-2.781 1.006-.67.668-1.098 1.619-1.284 2.846h7.639c0-.527-.072-1.023-.215-1.49-.143-.465-.362-.875-.659-1.227-.295-.35-.669-.627-1.118-.83-.451-.202-.979-.305-1.582-.305zm20.31.314c-.133.24-.334.361-.609.361-.164 0-.35-.062-.56-.182-.208-.121-.463-.256-.765-.402-.303-.148-.662-.287-1.079-.412-.416-.125-.909-.189-1.48-.189-.494 0-.938.064-1.333.189-.396.127-.733.299-1.012.52-.281.219-.495.473-.643.766-.147.291-.222.605-.222.945 0 .428.124.785.371 1.07s.573.533.979.74c.405.209.867.393 1.383.551.517.16 1.046.33 1.588.51.544.184 1.073.383 1.59.602.515.219.977.496 1.383.824.405.33.732.732.978 1.209.248.479.371 1.051.371 1.721 0 .77-.137 1.479-.411 2.133-.273.652-.681 1.217-1.219 1.693-.537.479-1.195.855-1.975 1.129-.78.275-1.679.412-2.7.412-1.163 0-2.216-.189-3.159-.568s-1.744-.865-2.403-1.457l.691-1.119c.088-.143.19-.252.312-.33.12-.076.279-.115.478-.115.197 0 .406.078.625.232.22.15.486.322.798.51.313.186.691.354 1.136.508.445.154 1.002.23 1.671.23.57 0 1.069-.074 1.497-.223.429-.148.785-.348 1.07-.6.284-.252.496-.543.635-.873.136-.33.204-.682.204-1.055 0-.459-.123-.842-.371-1.143-.247-.301-.572-.561-.979-.773-.405-.213-.869-.398-1.391-.559-.521-.158-1.053-.326-1.596-.502s-1.075-.377-1.597-.602-.984-.506-1.391-.848c-.406-.34-.732-.76-.979-1.26-.247-.498-.371-1.105-.371-1.818 0-.637.133-1.248.395-1.836.263-.586.648-1.102 1.153-1.545.504-.445 1.125-.799 1.859-1.062.735-.264 1.573-.396 2.518-.396 1.098 0 2.082.174 2.954.52.872.344 1.626.82 2.264 1.422l-.658 1.072zm9.793 14.188c-1.315 0-2.328-.369-3.037-1.102-.708-.736-1.062-1.795-1.062-3.178v-10.205h-2.009c-.175 0-.323-.053-.444-.156-.12-.105-.18-.266-.18-.486v-1.168l2.732-.346.675-5.15c.021-.166.091-.299.214-.402.12-.105.274-.158.459-.158h1.481v5.744h4.774v2.125h-4.774v10.006c0 .705.171 1.227.509 1.566.341.34.779.51 1.317.51.306 0 .572-.041.799-.125.225-.082.418-.172.585-.271l.418-.271s.217-.123.305-.123c.153 0 .29.092.412.279l.855 1.4c-.505.471-1.114.842-1.829 1.109-.711.269-1.442.402-2.2.402zm13.973-17.201c1.22 0 2.318.205 3.301.609.982.406 1.816.984 2.501 1.729.688.746 1.212 1.648 1.581 2.707.368 1.061.553 2.242.553 3.549 0 1.316-.185 2.5-.553 3.553-.369 1.053-.894 1.955-1.581 2.699-.685.746-1.517 1.322-2.501 1.721-.982.4-2.081.602-3.301.602-1.218 0-2.317-.199-3.3-.602-.981-.398-1.818-.975-2.51-1.721-.692-.744-1.224-1.646-1.596-2.699-.373-1.053-.56-2.236-.56-3.553 0-1.307.187-2.488.56-3.549.372-1.059.903-1.961 1.596-2.707.691-.746 1.528-1.322 2.51-1.729.983-.404 2.082-.609 3.3-.609zm0 14.881c1.647 0 2.875-.553 3.688-1.654.812-1.102 1.218-2.643 1.218-4.617 0-1.988-.405-3.533-1.218-4.641-.813-1.109-2.041-1.664-3.688-1.664-.834 0-1.559.143-2.171.43-.614.283-1.129.695-1.54 1.234-.411.537-.718 1.197-.922 1.982s-.303 1.67-.303 2.658.099 1.871.303 2.648c.203.779.511 1.436.922 1.969.411.531.926.941 1.54 1.225.612.285 1.337.43 2.171.43zm22.93-11.655c-.09.121-.177.213-.264.279-.088.066-.215.1-.379.1s-.344-.068-.535-.207c-.191-.135-.436-.287-.731-.451s-.657-.316-1.079-.451c-.422-.137-.941-.205-1.555-.205-.815 0-1.53.145-2.156.436s-1.15.711-1.572 1.26c-.423.549-.742 1.211-.956 1.99-.211.777-.318 1.65-.318 2.617 0 1.01.114 1.906.345 2.689.231.785.555 1.443.972 1.977s.926.938 1.522 1.217c.596.281 1.269.422 2.015.422.716 0 1.302-.086 1.764-.256.459-.17.844-.359 1.151-.568.306-.209.559-.396.758-.566.195-.17.395-.256.593-.256.251 0 .439.096.559.281l.822 1.07c-.723.887-1.629 1.539-2.716 1.949-1.086.41-2.232.617-3.439.617-1.042 0-2.011-.191-2.903-.578-.894-.383-1.672-.939-2.33-1.67-.658-.729-1.178-1.625-1.556-2.689-.38-1.064-.567-2.277-.567-3.637 0-1.24.174-2.387.518-3.439.346-1.055.852-1.963 1.515-2.725.663-.764 1.483-1.359 2.461-1.787s2.096-.643 3.357-.643c1.165 0 2.195.189 3.097.568.898.379 1.694.914 2.384 1.605l-.777 1.051zm7.044-10.533v14.27h.756c.22 0 .401-.031.543-.09.145-.061.301-.184.478-.371l5.268-5.645c.164-.176.328-.32.495-.43.164-.109.384-.164.659-.164h2.666l-6.141 6.535c-.151.186-.304.35-.45.494-.149.143-.316.27-.503.379.196.133.376.283.535.451.159.17.309.365.453.584l6.517 8.23h-2.634c-.239 0-.448-.047-.614-.139-.172-.094-.334-.24-.488-.438l-5.48-6.83c-.165-.23-.329-.381-.493-.451-.164-.072-.411-.107-.742-.107h-.821v7.967h-2.947v-24.245h2.943zM414.679 11.754c-.487 3.773-1.4 7.576-2.738 11.409-1.341 3.834-3.438 7.394-6.296 10.682-2.856 3.286-5.996 6.086-9.401 8.396-3.41 2.313-7.42 3.833-12.053 4.565-4.627.732-9.307.488-14.049-.729.117-1.827.977-3.71 2.556-5.66 1.577-1.944 3.319-3.587 5.201-4.929 1.884-1.338 3.984-2.676 6.292-4.015 2.311-1.339 3.926-2.221 4.844-2.648.912-.425 1.673-.757 2.284-1.006-.494 0-2.471.705-5.935 2.101-3.476 1.401-7.207 3.532-11.229 6.389-4.013 2.86-6.145 5.69-6.393 8.488-.488 4.748-.245 8.826.73 12.234.241.61.484 1.339.729 2.19.366 1.342.667 2.738.914 4.199.484 2.312.727 4.748.727 7.303 0 4.381-.454 8.215-1.367 11.5-.913 3.279-1.641 5.322-2.189 6.117-.547.791-1.005 1.367-1.368 1.725h-4.749c.242-.119.515-.332.821-.637.302-.297.88-.977 1.734-2.002.85-1.035 1.581-2.221 2.192-3.557.604-1.346 1.186-3.166 1.732-5.486.547-2.309.822-4.861.822-7.666 0-1.711-.794-3.568-2.373-5.568-1.583-2.01-3.317-3.742-5.203-5.204-1.887-1.459-4.08-2.919-6.572-4.382-2.497-1.46-4.229-2.432-5.204-2.92-.976-.485-1.766-.849-2.373-1.095l4.747 2.92c3.287 1.949 6.509 4.595 9.677 7.943 3.162 3.346 4.747 6.479 4.747 9.398-4.871.73-9.558.49-14.06-.729-4.503-1.211-8.369-3.133-11.593-5.75-3.227-2.613-6.024-5.748-8.397-9.398-2.372-3.653-4.107-7.424-5.204-11.32-1.094-3.895-1.615-7.759-1.552-11.593.061-3.833.882-7.271 2.466-10.315 0 3.408 1.43 6.268 4.289 8.58 2.859 2.315 6.176 4.047 9.95 5.204 3.772 1.159 7.942 3.013 12.506 5.568 4.563 2.557 8.125 5.54 10.679 8.947 0-2.071.12-4.259.365-6.574.609-5.959 2.192-10.98 4.748-15.062 2.556-4.076 5.535-7.027 8.944-8.854 3.405-1.824 7.089-3.437 11.047-4.837 3.956-1.399 7.573-2.495 10.861-3.288 3.285-.79 6.082-2.097 8.396-3.924 2.312-1.827 3.651-4.262 4.018-7.303 1.343 3.289 1.766 6.822 1.28 10.593z"/></g></svg>