<svg xmlns="http://www.w3.org/2000/svg" width="740" height="431.947" viewBox="0 212.947 740 431.947" enable-background="new 0 212.947 740 431.947"><path fill="#2ECC71" d="M-16 199.92h772v458h-772v-458z"/><path fill="#fff" d="M210.208 531.077v68.947h-11.46v-68.947h11.46zm26.865 7.47c0 .988-.201 1.918-.604 2.783-.402.865-.936 1.625-1.601 2.271-.665.65-1.446 1.168-2.343 1.555-.897.389-1.856.58-2.877.58-.99 0-1.926-.191-2.807-.58-.882-.387-1.647-.902-2.297-1.555-.649-.646-1.168-1.406-1.555-2.271s-.58-1.795-.58-2.783c0-1.021.193-1.98.58-2.877.387-.896.905-1.67 1.555-2.32.649-.648 1.415-1.166 2.297-1.553.881-.389 1.816-.58 2.807-.58 1.021 0 1.979.191 2.877.58.896.387 1.678.902 2.343 1.553s1.198 1.424 1.601 2.32c.403.899.604 1.858.604 2.877zm-1.718 13.873v47.604h-11.46v-47.604h11.46zm14.987 47.604v-38.973l-4.13-.65c-.897-.154-1.616-.465-2.157-.928-.542-.465-.812-1.113-.812-1.949v-4.686h7.099v-3.525c0-2.723.409-5.168 1.229-7.332.818-2.164 1.995-4.006 3.525-5.521 1.532-1.516 3.396-2.674 5.592-3.48 2.195-.803 4.67-1.205 7.424-1.205 2.195 0 4.237.293 6.124.881l-.232 5.754c-.062.896-.479 1.453-1.253 1.672-.774.217-1.67.322-2.69.322-1.361 0-2.575.146-3.643.441s-1.972.805-2.714 1.531-1.307 1.688-1.693 2.877c-.388 1.191-.58 2.668-.58 4.43v3.156h12.388v8.166h-12.017v39.02h-11.46v-.001zm50.156-48.346c2.999 0 5.76.479 8.281 1.438s4.693 2.359 6.52 4.199c1.824 1.842 3.247 4.1 4.269 6.773 1.021 2.676 1.531 5.729 1.531 9.164 0 .865-.04 1.586-.116 2.156-.078.572-.217 1.021-.418 1.348-.202.322-.472.557-.812.693-.341.141-.773.209-1.3.209h-29.416c.34 4.891 1.654 8.479 3.944 10.766 2.288 2.289 5.319 3.434 9.094 3.434 1.855 0 3.457-.215 4.802-.648 1.346-.434 2.521-.912 3.526-1.439 1.005-.525 1.887-1.004 2.645-1.438.758-.434 1.492-.65 2.204-.65.464 0 .866.094 1.206.279.341.186.634.447.882.787l3.341 4.178c-1.269 1.484-2.691 2.73-4.269 3.734-1.578 1.006-3.225 1.809-4.941 2.412-1.716.604-3.465 1.029-5.243 1.275-1.779.248-3.503.371-5.173.371-3.311 0-6.388-.549-9.233-1.646-2.847-1.098-5.32-2.721-7.424-4.871s-3.758-4.809-4.964-7.98c-1.207-3.17-1.81-6.844-1.81-11.02 0-3.248.525-6.303 1.577-9.164 1.052-2.859 2.559-5.35 4.523-7.469 1.964-2.119 4.361-3.797 7.192-5.035 2.831-1.237 6.023-1.856 9.582-1.856zm.231 8.213c-3.341 0-5.955.943-7.841 2.828-1.887 1.889-3.094 4.562-3.619 8.029h21.528c0-1.486-.201-2.887-.604-4.199-.403-1.314-1.021-2.467-1.855-3.457s-1.887-1.771-3.155-2.344c-1.268-.574-2.753-.857-4.454-.857zm57.252.881c-.37.68-.943 1.021-1.716 1.021-.464 0-.99-.17-1.578-.514-.588-.34-1.307-.719-2.157-1.137-.852-.416-1.864-.805-3.039-1.16-1.176-.354-2.568-.533-4.176-.533-1.392 0-2.645.182-3.758.533-1.114.355-2.065.844-2.854 1.463s-1.393 1.338-1.81 2.156c-.418.82-.627 1.709-.627 2.668 0 1.207.349 2.213 1.044 3.016.696.807 1.616 1.504 2.762 2.09 1.144.588 2.442 1.105 3.896 1.555 1.454.449 2.946.928 4.478 1.438 1.531.512 3.022 1.074 4.478 1.691 1.453.621 2.752 1.393 3.897 2.32 1.144.93 2.064 2.066 2.76 3.41.697 1.346 1.044 2.963 1.044 4.85 0 2.166-.387 4.168-1.159 6.008-.773 1.842-1.918 3.436-3.434 4.779-1.516 1.346-3.371 2.406-5.567 3.18-2.197.771-4.733 1.158-7.609 1.158-3.279 0-6.248-.533-8.908-1.6-2.661-1.068-4.918-2.436-6.774-4.107l1.948-3.154c.248-.4.541-.711.882-.928.341-.217.789-.324 1.346-.324s1.145.217 1.764.648c.618.434 1.368.914 2.25 1.439.882.525 1.948 1.004 3.201 1.438s2.822.65 4.709.65c1.608 0 3.017-.209 4.223-.627s2.211-.982 3.016-1.693c.805-.713 1.399-1.531 1.786-2.459.387-.928.58-1.918.58-2.971 0-1.299-.348-2.373-1.044-3.223-.696-.852-1.616-1.578-2.761-2.182-1.145-.605-2.451-1.129-3.92-1.578-1.47-.447-2.97-.92-4.501-1.414-1.531-.496-3.032-1.061-4.501-1.693-1.469-.635-2.776-1.432-3.92-2.391-1.146-.957-2.065-2.141-2.761-3.549-.696-1.408-1.044-3.117-1.044-5.127 0-1.793.371-3.52 1.113-5.174s1.825-3.107 3.248-4.361c1.422-1.254 3.17-2.25 5.243-2.992 2.071-.742 4.438-1.113 7.099-1.113 3.093 0 5.869.486 8.328 1.461s4.586 2.312 6.38 4.014l-1.857 3.018zm27.607 39.994c-3.711 0-6.564-1.035-8.561-3.107-1.994-2.072-2.992-5.059-2.992-8.955v-28.768h-5.661c-.495 0-.913-.145-1.253-.439s-.511-.75-.511-1.369v-3.295l7.704-.975 1.9-14.521c.062-.463.264-.842.604-1.137s.771-.441 1.299-.441h4.176v16.193h13.457v5.984h-13.457v28.211c0 1.98.48 3.449 1.439 4.408.957.959 2.195 1.438 3.711 1.438.865 0 1.617-.117 2.25-.348.635-.232 1.184-.488 1.646-.766.465-.279.859-.535 1.184-.768.326-.23.609-.348.859-.348.432 0 .818.264 1.16.789l2.41 3.941c-1.422 1.332-3.139 2.375-5.148 3.133-2.009.761-4.079 1.14-6.216 1.14zm39.391-48.484c3.434 0 6.533.572 9.303 1.717 2.768 1.145 5.119 2.768 7.053 4.871s3.418 4.648 4.455 7.633c1.035 2.984 1.553 6.318 1.553 9.998 0 3.713-.518 7.053-1.553 10.021-1.037 2.971-2.521 5.508-4.455 7.609-1.934 2.104-4.285 3.721-7.053 4.85-2.77 1.129-5.869 1.693-9.303 1.693s-6.533-.564-9.303-1.693-5.127-2.746-7.076-4.85c-1.947-2.104-3.449-4.641-4.5-7.609-1.053-2.969-1.576-6.309-1.576-10.021 0-3.68.523-7.014 1.576-9.998 1.051-2.984 2.553-5.529 4.5-7.633 1.949-2.104 4.309-3.727 7.076-4.871s5.869-1.717 9.303-1.717zm0 41.943c4.641 0 8.104-1.555 10.395-4.664 2.287-3.107 3.432-7.447 3.432-13.014 0-5.6-1.145-9.959-3.432-13.084-2.291-3.123-5.754-4.688-10.395-4.688-2.352 0-4.393.402-6.123 1.205-1.732.807-3.18 1.965-4.34 3.48-1.158 1.516-2.025 3.379-2.6 5.59-.572 2.213-.857 4.711-.857 7.494s.285 5.273.857 7.469c.572 2.197 1.439 4.045 2.6 5.545s2.605 2.654 4.34 3.457c1.73.808 3.771 1.21 6.123 1.21zm64.63-32.85c-.248.34-.494.604-.742.789s-.604.275-1.066.275c-.465 0-.969-.191-1.508-.58-.543-.387-1.229-.811-2.064-1.273-.836-.467-1.85-.891-3.039-1.277-1.191-.385-2.652-.578-4.385-.578-2.291 0-4.314.41-6.078 1.229-1.764.82-3.24 2.004-4.432 3.549-1.191 1.549-2.088 3.42-2.691 5.615-.604 2.197-.904 4.656-.904 7.377 0 2.846.326 5.375.977 7.586.648 2.211 1.561 4.068 2.736 5.568 1.174 1.5 2.604 2.645 4.291 3.432 1.686.789 3.58 1.186 5.684 1.186 2.012 0 3.666-.24 4.965-.719 1.301-.48 2.383-1.014 3.248-1.602s1.578-1.121 2.137-1.602c.557-.48 1.111-.719 1.668-.719.713 0 1.238.264 1.578.789l2.318 3.016c-2.041 2.506-4.592 4.338-7.652 5.498-3.064 1.16-6.297 1.74-9.697 1.74-2.939 0-5.67-.541-8.189-1.625-2.521-1.082-4.711-2.65-6.564-4.709-1.857-2.059-3.318-4.586-4.387-7.586-1.066-3-1.6-6.418-1.6-10.254 0-3.494.486-6.729 1.461-9.697.977-2.969 2.396-5.527 4.27-7.682 1.871-2.146 4.184-3.824 6.938-5.031 2.752-1.207 5.906-1.811 9.465-1.811 3.277 0 6.186.533 8.723 1.602 2.535 1.066 4.779 2.574 6.729 4.521l-2.186 2.971v.002zm19.858-29.695v40.227h2.135c.619 0 1.131-.084 1.531-.256.402-.168.852-.518 1.346-1.043l14.85-15.914c.463-.494.926-.896 1.391-1.205.463-.311 1.082-.465 1.855-.465h7.516l-17.305 18.42c-.436.525-.859.99-1.277 1.393-.416.4-.889.758-1.414 1.066.559.371 1.061.797 1.508 1.275s.873 1.027 1.275 1.646l18.375 23.197h-7.426c-.68 0-1.26-.131-1.738-.395-.479-.262-.936-.672-1.369-1.229l-15.451-19.256c-.463-.648-.928-1.074-1.391-1.275-.465-.201-1.16-.301-2.09-.301h-2.318v22.455h-8.305v-68.344h8.303v.004zM493.162 286.926c-1.371 10.637-3.945 21.354-7.717 32.16-3.777 10.807-9.697 20.844-17.754 30.106-8.066 9.266-16.9 17.158-26.502 23.668-9.609 6.527-20.932 10.812-33.971 12.869-13.043 2.062-26.24 1.379-39.622-2.057.333-5.148 2.741-10.459 7.208-15.955 4.445-5.48 9.338-10.111 14.662-13.893 5.314-3.773 11.23-7.545 17.752-11.32 6.512-3.773 11.068-6.258 13.641-7.465 2.57-1.199 4.717-2.137 6.436-2.836-1.375 0-6.953 1.986-16.727 5.926-9.779 3.947-20.326 9.957-31.646 18.01-11.324 8.062-17.333 16.041-18.016 23.93-1.375 13.383-.692 24.879 2.06 34.482.682 1.723 1.366 3.777 2.056 6.176 1.03 3.779 1.883 7.717 2.576 11.834 1.367 6.521 2.054 13.385 2.054 20.592 0 12.348-1.285 23.154-3.86 32.414-2.57 9.266-4.627 15.008-6.174 17.244-1.544 2.23-2.828 3.855-3.856 4.883h-13.379c.684-.34 1.452-.939 2.312-1.799.854-.854 2.486-2.75 4.891-5.658 2.397-2.918 4.455-6.26 6.176-10.029 1.711-3.775 3.347-8.922 4.89-15.443 1.542-6.514 2.315-13.721 2.315-21.609 0-4.805-2.237-10.043-6.691-15.701-4.462-5.664-9.352-10.547-14.669-14.67-5.321-4.117-11.497-8.23-18.524-12.35-7.037-4.117-11.924-6.857-14.666-8.234-2.753-1.365-4.98-2.393-6.69-3.086l13.38 8.23c9.264 5.494 18.347 12.955 27.277 22.393 8.917 9.441 13.379 18.266 13.379 26.5-13.728 2.061-26.941 1.377-39.629-2.061-12.697-3.424-23.593-8.826-32.68-16.211-9.095-7.373-16.98-16.207-23.672-26.498-6.687-10.297-11.578-20.93-14.666-31.91-3.087-10.979-4.553-21.873-4.376-32.682.171-10.803 2.486-20.496 6.95-29.073 0 9.604 4.028 17.668 12.092 24.186 8.059 6.525 17.409 11.41 28.047 14.666 10.633 3.266 22.387 8.494 35.254 15.695 12.865 7.207 22.902 15.617 30.106 25.219 0-5.834.338-12.004 1.028-18.527 1.714-16.803 6.177-30.953 13.382-42.459 7.208-11.484 15.606-19.809 25.212-24.957 9.604-5.144 19.988-9.689 31.141-13.635 11.145-3.943 21.354-7.032 30.619-9.268 9.262-2.225 17.148-5.917 23.674-11.064 6.516-5.146 10.293-12.008 11.322-20.584 3.771 9.258 4.966 19.219 3.595 29.851z"/></svg>