<svg xmlns="http://www.w3.org/2000/svg" width="740" height="644.894" viewBox="0 0 740 644.894"><path fill="#E6E6E6" d="M369.5-1.477h370.999v212.371h-370.999z"/><g fill="#fff"><path d="M509.168 124.985v-35.996h5.964v35.996h-5.964zM523.025 94.957v-5.671h6.409v5.671h-6.409zm.246 30.028v-26.036h5.967v26.036h-5.967zM551.132 99.146v4.932h-6.804v20.907h-5.967v-20.907h-3.304v-4.981h3.304v-1.873c0-5.72 2.858-8.531 7.985-8.531 2.074 0 3.502.296 4.832.69v5.03c-1.183-.395-2.217-.641-3.5-.641-2.269 0-3.451 1.231-3.451 3.944v1.431h6.905zM567.109 120.695c2.911 0 4.981-1.085 7.052-3.105l3.501 3.105c-2.466 2.96-5.868 4.881-10.651 4.881-7.545 0-13.364-5.474-13.364-13.561 0-7.493 5.277-13.608 12.724-13.608 8.283 0 12.476 6.508 12.476 14.053 0 .541-.05 1.034-.099 1.626h-19.131c.688 4.242 3.647 6.609 7.492 6.609zm5.818-10.55c-.394-3.846-2.662-6.854-6.605-6.854-3.649 0-6.214 2.81-6.757 6.854h13.362zM593.79 125.479c-3.649 0-7.693-1.431-10.556-3.746l1.924-2.712c2.763 2.071 5.818 3.253 8.826 3.253 3.059 0 5.277-1.575 5.277-4.044v-.096c0-2.564-3.008-3.55-6.361-4.488-3.995-1.135-8.434-2.514-8.434-7.199v-.099c0-4.388 3.65-7.297 8.68-7.297 3.106 0 6.557 1.085 9.17 2.81l-1.727 2.86c-2.366-1.529-5.079-2.466-7.545-2.466-3.008 0-4.93 1.577-4.93 3.699v.096c0 2.416 3.156 3.354 6.559 4.389 3.944 1.183 8.187 2.714 8.187 7.298v.097c.002 4.835-3.993 7.645-9.07 7.645zM614.549 117.737c0 3.105 1.728 4.242 4.291 4.242 1.28 0 2.367-.247 3.699-.888v3.256c-1.332.689-2.763 1.085-4.587 1.085-4.092 0-7.2-2.023-7.2-7.203v-15.383h-3.551v-3.354h3.551v-7.692h3.797v7.692h8.087v3.354h-8.087v14.891zM640.236 125.576c-7.645 0-13.216-6.014-13.216-13.265 0-7.249 5.621-13.362 13.315-13.362 7.643 0 13.265 6.016 13.265 13.264-.001 7.253-5.673 13.363-13.364 13.363zm0-23.272c-5.523 0-9.321 4.388-9.321 9.911 0 5.522 4.042 9.962 9.419 9.962 5.523 0 9.369-4.388 9.369-9.863 0-5.574-4.094-10.01-9.467-10.01zM671.947 125.576c-7.444 0-13.069-6.063-13.069-13.265 0-7.249 5.622-13.362 13.069-13.362 4.832 0 7.84 2.022 10.207 4.537l-2.515 2.663c-2.024-2.121-4.29-3.847-7.742-3.847-5.177 0-9.122 4.388-9.122 9.91 0 5.573 4.045 9.961 9.37 9.961 3.255 0 5.771-1.626 7.792-3.795l2.416 2.268c-2.566 2.86-5.624 4.93-10.406 4.93zM711.25 124.986h-4.539l-9.12-11.885-5.179 5.227v6.658h-3.797v-35.997h3.797v24.853l13.758-14.349h4.733l-10.699 10.946 11.046 14.547z"/></g><path fill="#74E062" d="M408.679 125.312l-8.224-36.638 35.141 26.917 12.668 9.721z"/><path fill="#5FB250" d="M466.761 125.312h-39.13l9.915-12.159 24.968-31.209 11.959 25.423 8.744 17.945z"/><path fill="#4A843F" d="M489.429 125.312l8.971-35.888-22.254 16.689-25.892 19.199z"/><path fill="#309D26" d="M435.595 115.591l-7.964 9.721h20.633z"/><path fill="#1D5C17" d="M483.217 125.312l-8.743-17.942-24.22 17.942z"/><path fill="#2ECC71" d="M-15.5 208.894h772v458h-772z"/><g fill="#fff"><path d="M210.209 529.603v68.947h-11.46v-68.947h11.46zM237.073 537.073c0 .99-.201 1.918-.604 2.783-.402.867-.936 1.625-1.601 2.273-.665.65-1.446 1.168-2.343 1.555s-1.856.58-2.877.58c-.99 0-1.926-.193-2.807-.58-.882-.387-1.647-.904-2.297-1.555-.649-.648-1.168-1.406-1.555-2.273-.387-.865-.58-1.793-.58-2.783 0-1.02.193-1.979.58-2.877.387-.896.905-1.67 1.555-2.32.649-.648 1.415-1.166 2.297-1.553.881-.387 1.816-.58 2.807-.58 1.021 0 1.979.193 2.877.58.896.387 1.678.904 2.343 1.553.665.65 1.198 1.424 1.601 2.32.403.899.604 1.858.604 2.877zm-1.717 13.873v47.604h-11.46v-47.604h11.46zM250.343 598.55v-38.973l-4.13-.65c-.897-.154-1.616-.465-2.157-.928-.542-.465-.812-1.113-.812-1.949v-4.686h7.099v-3.525c0-2.723.409-5.168 1.229-7.332.818-2.164 1.995-4.006 3.525-5.521 1.532-1.516 3.396-2.674 5.592-3.48 2.195-.803 4.67-1.205 7.424-1.205 2.195 0 4.237.293 6.124.881l-.232 5.754c-.062.896-.479 1.453-1.253 1.67s-1.67.324-2.69.324c-1.361 0-2.575.146-3.643.441s-1.972.805-2.714 1.531-1.307 1.688-1.693 2.877c-.388 1.191-.58 2.668-.58 4.43v3.156h12.388v8.166h-12.017v39.02h-11.46zM300.498 550.204c2.999 0 5.76.48 8.281 1.438 2.521.959 4.693 2.359 6.52 4.199 1.824 1.842 3.247 4.1 4.269 6.773 1.021 2.676 1.531 5.73 1.531 9.164 0 .867-.04 1.586-.116 2.158-.078.572-.217 1.02-.418 1.346-.202.324-.472.557-.812.695-.341.139-.773.209-1.3.209h-29.416c.34 4.889 1.654 8.477 3.944 10.764 2.288 2.289 5.319 3.434 9.094 3.434 1.855 0 3.457-.215 4.802-.648 1.346-.434 2.521-.912 3.526-1.439 1.005-.525 1.887-1.004 2.645-1.438s1.492-.65 2.204-.65c.464 0 .866.094 1.206.279.341.186.634.447.882.787l3.341 4.178c-1.269 1.484-2.691 2.73-4.269 3.734-1.578 1.006-3.225 1.809-4.941 2.412s-3.465 1.029-5.243 1.275c-1.779.248-3.503.371-5.173.371-3.311 0-6.388-.549-9.233-1.646-2.847-1.098-5.32-2.721-7.424-4.871s-3.758-4.809-4.964-7.98c-1.207-3.17-1.81-6.844-1.81-11.02 0-3.248.525-6.303 1.577-9.164 1.052-2.859 2.559-5.35 4.523-7.469 1.964-2.119 4.361-3.797 7.192-5.035 2.831-1.237 6.024-1.856 9.582-1.856zm.231 8.213c-3.341 0-5.955.943-7.841 2.828-1.887 1.889-3.094 4.564-3.619 8.029h21.528c0-1.486-.201-2.885-.604-4.199s-1.021-2.467-1.855-3.457-1.887-1.771-3.155-2.344-2.753-.857-4.454-.857zM357.982 559.298c-.37.68-.943 1.021-1.716 1.021-.464 0-.99-.17-1.578-.512-.588-.34-1.307-.719-2.157-1.137-.852-.416-1.864-.805-3.039-1.16-1.176-.354-2.568-.533-4.176-.533-1.392 0-2.645.18-3.758.533-1.114.355-2.065.844-2.854 1.463-.789.619-1.393 1.338-1.81 2.156-.418.82-.627 1.709-.627 2.668 0 1.207.349 2.213 1.044 3.016.696.805 1.616 1.502 2.762 2.088 1.144.588 2.442 1.107 3.896 1.555 1.454.449 2.946.928 4.478 1.439 1.531.51 3.022 1.074 4.478 1.691 1.453.621 2.752 1.393 3.897 2.32 1.144.93 2.064 2.066 2.76 3.41.697 1.346 1.044 2.963 1.044 4.85 0 2.166-.387 4.168-1.159 6.008-.773 1.842-1.918 3.434-3.434 4.779s-3.371 2.406-5.567 3.18c-2.197.771-4.733 1.158-7.609 1.158-3.279 0-6.248-.533-8.908-1.6-2.661-1.068-4.918-2.436-6.774-4.107l1.948-3.154c.248-.402.541-.711.882-.928s.789-.324 1.346-.324 1.145.217 1.764.648c.618.434 1.368.914 2.25 1.439s1.948 1.004 3.201 1.438 2.822.65 4.709.65c1.608 0 3.017-.209 4.223-.627s2.211-.982 3.016-1.693c.805-.713 1.399-1.531 1.786-2.459s.58-1.918.58-2.971c0-1.299-.348-2.373-1.044-3.223-.696-.852-1.616-1.578-2.761-2.182s-2.451-1.129-3.92-1.578c-1.47-.447-2.97-.92-4.501-1.414-1.531-.496-3.032-1.061-4.501-1.693-1.469-.635-2.776-1.432-3.92-2.391-1.146-.957-2.065-2.141-2.761-3.549-.696-1.408-1.044-3.117-1.044-5.127 0-1.793.371-3.518 1.113-5.174.742-1.654 1.825-3.107 3.248-4.361 1.422-1.254 3.17-2.25 5.243-2.992 2.071-.742 4.438-1.113 7.099-1.113 3.093 0 5.869.486 8.328 1.461s4.586 2.312 6.38 4.014l-1.857 3.017zM385.589 599.292c-3.712 0-6.565-1.035-8.562-3.107-1.994-2.072-2.991-5.059-2.991-8.955v-28.768h-5.661c-.495 0-.913-.145-1.253-.439s-.511-.75-.511-1.369v-3.295l7.703-.975 1.902-14.521c.061-.463.262-.842.603-1.137.34-.295.772-.441 1.299-.441h4.176v16.193h13.456v5.984h-13.456v28.211c0 1.98.48 3.449 1.438 4.408s2.196 1.438 3.712 1.438c.865 0 1.616-.117 2.25-.348.635-.232 1.184-.488 1.647-.766.464-.279.858-.535 1.183-.766.325-.232.61-.348.859-.348.432 0 .818.264 1.16.789l2.411 3.941c-1.422 1.332-3.14 2.375-5.149 3.133-2.01.759-4.081 1.138-6.216 1.138zM424.979 550.808c3.434 0 6.534.572 9.303 1.717 2.768 1.145 5.118 2.768 7.053 4.871 1.933 2.104 3.417 4.648 4.454 7.633 1.036 2.984 1.554 6.318 1.554 9.998 0 3.713-.518 7.053-1.554 10.021-1.037 2.971-2.521 5.508-4.454 7.609-1.935 2.104-4.285 3.721-7.053 4.85-2.769 1.129-5.869 1.693-9.303 1.693-3.433 0-6.534-.564-9.303-1.693s-5.127-2.746-7.075-4.85c-1.949-2.102-3.45-4.639-4.501-7.609-1.052-2.969-1.577-6.309-1.577-10.021 0-3.68.525-7.014 1.577-9.998 1.051-2.984 2.552-5.529 4.501-7.633 1.948-2.104 4.307-3.727 7.075-4.871s5.87-1.717 9.303-1.717zm0 41.943c4.641 0 8.104-1.555 10.394-4.664 2.288-3.107 3.433-7.447 3.433-13.014 0-5.598-1.145-9.959-3.433-13.084-2.29-3.123-5.753-4.686-10.394-4.686-2.352 0-4.393.402-6.124 1.205-1.732.805-3.179 1.965-4.339 3.48-1.159 1.516-2.026 3.379-2.599 5.59-.572 2.213-.857 4.711-.857 7.494s.285 5.273.857 7.469c.572 2.197 1.439 4.045 2.599 5.545 1.16 1.5 2.606 2.654 4.339 3.457 1.731.806 3.772 1.208 6.124 1.208zM489.61 559.901c-.248.34-.495.604-.742.789-.248.186-.604.277-1.066.277-.465 0-.969-.193-1.509-.58-.542-.387-1.229-.811-2.064-1.275-.836-.465-1.85-.889-3.039-1.277-1.191-.385-2.653-.578-4.385-.578-2.29 0-4.315.41-6.078 1.229-1.763.82-3.241 2.004-4.431 3.549-1.191 1.549-2.088 3.42-2.691 5.615-.604 2.197-.905 4.656-.905 7.377 0 2.846.325 5.375.976 7.586.648 2.211 1.561 4.068 2.736 5.568s2.605 2.645 4.292 3.432c1.686.789 3.58 1.186 5.684 1.186 2.011 0 3.666-.24 4.965-.719 1.299-.48 2.382-1.014 3.248-1.602.865-.588 1.577-1.121 2.135-1.602.557-.479 1.112-.719 1.669-.719.712 0 1.238.264 1.578.789l2.319 3.016c-2.041 2.506-4.593 4.338-7.654 5.498-3.063 1.16-6.295 1.74-9.697 1.74-2.939 0-5.669-.541-8.189-1.625-2.521-1.082-4.71-2.65-6.565-4.709-1.856-2.057-3.317-4.586-4.385-7.586s-1.601-6.418-1.601-10.254c0-3.494.487-6.727 1.461-9.697.976-2.969 2.397-5.527 4.27-7.68 1.871-2.148 4.183-3.826 6.937-5.033 2.752-1.207 5.907-1.809 9.465-1.809 3.278 0 6.186.533 8.723 1.6 2.535 1.068 4.779 2.576 6.728 4.523l-2.185 2.971zM509.468 530.206v40.227h2.135c.618 0 1.129-.084 1.531-.256.401-.168.851-.518 1.345-1.043l14.849-15.914c.464-.494.927-.896 1.391-1.205.464-.311 1.083-.465 1.856-.465h7.516l-17.306 18.42c-.434.525-.858.99-1.276 1.393-.417.4-.889.758-1.414 1.066.557.371 1.059.797 1.508 1.275.447.48.873 1.029 1.275 1.648l18.374 23.197h-7.425c-.68 0-1.261-.131-1.739-.395-.479-.262-.936-.672-1.369-1.229l-15.45-19.256c-.464-.648-.928-1.074-1.392-1.275s-1.16-.301-2.089-.301h-2.319v22.455h-8.305v-68.344h8.304z"/></g><path fill="#fff" d="M493.162 285.452c-1.371 10.637-3.944 21.354-7.717 32.16-3.777 10.808-9.697 20.845-17.753 30.107-8.067 9.264-16.9 17.158-26.503 23.668-9.609 6.527-20.931 10.812-33.97 12.869-13.043 2.062-26.24 1.379-39.622-2.057.333-5.148 2.741-10.459 7.208-15.955 4.446-5.48 9.337-10.111 14.663-13.893 5.313-3.773 11.23-7.545 17.751-11.32 6.511-3.773 11.069-6.258 13.64-7.466 2.572-1.198 4.717-2.136 6.437-2.834-1.376 0-6.953 1.985-16.727 5.924-9.78 3.948-20.327 9.957-31.646 18.01-11.325 8.063-17.333 16.042-18.017 23.931-1.375 13.383-.692 24.879 2.06 34.482.682 1.723 1.366 3.777 2.056 6.176 1.03 3.779 1.883 7.717 2.576 11.834 1.367 6.521 2.054 13.385 2.054 20.592 0 12.346-1.285 23.154-3.86 32.414-2.57 9.264-4.627 15.008-6.174 17.244-1.544 2.229-2.828 3.855-3.856 4.883h-13.379c.684-.34 1.452-.941 2.312-1.799.854-.855 2.486-2.75 4.891-5.658 2.397-2.918 4.455-6.26 6.176-10.031 1.711-3.775 3.347-8.92 4.89-15.443 1.542-6.514 2.315-13.721 2.315-21.609 0-4.805-2.237-10.043-6.691-15.701-4.462-5.664-9.352-10.547-14.669-14.67-5.321-4.117-11.497-8.23-18.524-12.35-7.037-4.117-11.924-6.857-14.666-8.234-2.753-1.365-4.98-2.393-6.69-3.086l13.38 8.23c9.264 5.494 18.347 12.955 27.277 22.393 8.917 9.441 13.379 18.266 13.379 26.5-13.728 2.061-26.941 1.377-39.629-2.061-12.697-3.424-23.593-8.826-32.68-16.211-9.095-7.373-16.98-16.207-23.672-26.498-6.687-10.297-11.578-20.928-14.666-31.91-3.087-10.977-4.553-21.873-4.376-32.682.171-10.802 2.486-20.496 6.95-29.072 0 9.605 4.028 17.668 12.092 24.186 8.059 6.525 17.409 11.41 28.047 14.666 10.633 3.265 22.387 8.494 35.254 15.695 12.865 7.207 22.902 15.617 30.106 25.219 0-5.834.338-12.004 1.028-18.527 1.714-16.803 6.177-30.954 13.382-42.459 7.208-11.485 15.607-19.809 25.211-24.957 9.605-5.143 19.989-9.689 31.142-13.635 11.145-3.943 21.353-7.032 30.618-9.268 9.262-2.225 17.149-5.917 23.675-11.064 6.516-5.146 10.292-12.008 11.322-20.584 3.771 9.259 4.967 19.22 3.595 29.851z"/><path fill="#727272" d="M344.395-.604l25.102-25.102 25.102 25.102-25.102 25.102zM-24.854 209.642l25.102-25.102 25.102 25.102-25.102 25.102z"/><path d="M-1.423-1.062h370.923v210.956h-370.923z"/><path fill="#727272" d="M-25.852-.857l25.102-25.102 25.102 25.102-25.102 25.102z"/><path fill="#fff" d="M5.784 4.989h-.022l-1.198.647-.18-.711 1.506-.805h.795v6.893h-.901v-6.024zM373.599 11.167v-.572l.732-.711c1.76-1.676 2.555-2.566 2.566-3.605 0-.699-.34-1.347-1.369-1.347-.625 0-1.145.318-1.463.583l-.297-.657c.477-.403 1.156-.7 1.951-.7 1.484 0 2.11 1.019 2.11 2.005 0 1.272-.923 2.302-2.376 3.701l-.551.509v.021h3.098v.773h-4.401zM4.362 220.84c.265.17.88.435 1.527.435 1.198 0 1.569-.764 1.559-1.336-.011-.965-.88-1.379-1.782-1.379h-.52v-.699h.52c.679 0 1.538-.35 1.538-1.167 0-.552-.35-1.039-1.209-1.039-.551 0-1.082.243-1.378.456l-.244-.679c.361-.265 1.061-.53 1.803-.53 1.357 0 1.973.807 1.973 1.644 0 .71-.424 1.315-1.272 1.622v.021c.848.17 1.538.807 1.538 1.771 0 1.103-.859 2.068-2.513 2.068-.774 0-1.453-.244-1.792-.467l.252-.721z"/><g fill="#fff"><path d="M109.229 105.199c.089 16.241-13.004 29.482-29.246 29.569-16.242.09-29.483-13.004-29.572-29.246-.088-16.242 13.006-29.481 29.249-29.57 16.238-.089 29.479 13.005 29.569 29.247zm-11.791-18.082c-.143 1.24-.684 2.24-1.625 2.988-.941.75-2.08 1.292-3.418 1.623-1.339.33-2.817.785-4.429 1.364-1.611.582-3.111 1.249-4.498 2.001-1.387.754-2.599 1.966-3.632 3.635-1.034 1.674-1.668 3.725-1.905 6.159-.095.946-.139 1.84-.133 2.683-1.052-1.382-2.512-2.594-4.38-3.628-1.869-1.032-3.576-1.779-5.118-2.244-1.542-.464-2.901-1.163-4.074-2.102-1.174-.938-1.763-2.101-1.77-3.491-.64 1.243-.967 2.648-.985 4.213-.017 1.567.205 3.145.661 4.73.456 1.59 1.172 3.128 2.15 4.61.977 1.484 2.124 2.76 3.449 3.82 1.322 1.062 2.904 1.836 4.747 2.319 1.839.487 3.753.576 5.74.27-.008-1.194-.659-2.47-1.958-3.83-1.299-1.359-2.621-2.431-3.967-3.219l-1.945-1.18c.248.099.572.244.972.439.398.196 1.109.591 2.129 1.179 1.021.592 1.92 1.181 2.693 1.778.773.591 1.484 1.296 2.135 2.11.649.817.979 1.572.983 2.268.005 1.143-.102 2.184-.318 3.132-.219.945-.452 1.693-.697 2.243-.246.543-.541 1.03-.885 1.455-.347.426-.583.699-.705.825-.124.123-.236.211-.331.261l1.937-.01c.148-.146.333-.385.554-.708.222-.327.518-1.157.882-2.502.365-1.345.542-2.909.533-4.7-.005-1.041-.111-2.036-.314-2.978-.102-.593-.229-1.166-.382-1.713-.104-.348-.202-.644-.303-.893-.407-1.388-.514-3.051-.326-4.991.093-1.145.954-2.303 2.59-3.479 1.632-1.175 3.156-2.053 4.567-2.633 1.412-.582 2.219-.871 2.418-.871-.249.101-.558.238-.931.415-.372.176-1.029.539-1.97 1.09-.941.554-1.796 1.104-2.564 1.654-.765.549-1.472 1.227-2.11 2.022-.644.8-.989 1.572-1.032 2.316 1.941.487 3.853.575 5.741.269 1.887-.31 3.523-.94 4.91-1.893 1.386-.948 2.659-2.101 3.818-3.449 1.16-1.347 2.01-2.806 2.546-4.375.54-1.565.903-3.122 1.094-4.663.19-1.54.01-2.984-.544-4.319zM128.476 85.277l.217 39.208-6.52.039-.217-39.211 6.52-.036zM143.779 89.44c.002.563-.109 1.091-.334 1.583-.226.497-.527.925-.904 1.298-.377.374-.821.671-1.328.894-.51.223-1.054.335-1.634.339-.562.004-1.097-.103-1.598-.321-.503-.215-.941-.509-1.312-.876-.37-.366-.669-.796-.89-1.29-.222-.492-.335-1.015-.338-1.579-.002-.581.104-1.128.322-1.637.215-.513.509-.953.874-1.325.367-.371.802-.67 1.305-.893.499-.221 1.03-.337 1.592-.339.58-.004 1.125.107 1.638.322.51.216.956.509 1.337.878.379.366.686.806.918 1.314.232.508.348 1.051.352 1.632zm-.933 7.892l.149 27.079-6.517.035-.151-27.077 6.519-.037zM151.52 124.362l-.122-22.165-2.352-.356c-.511-.088-.921-.261-1.23-.521-.311-.262-.467-.633-.469-1.107l-.016-2.664 4.038-.023-.009-2.005c-.007-1.546.217-2.938.674-4.172.458-1.232 1.122-2.284 1.986-3.153.869-.863 1.923-1.533 3.171-1.996 1.247-.463 2.651-.699 4.218-.708 1.248-.007 2.411.154 3.487.481l-.114 3.276c-.035.509-.271.829-.709.952-.438.124-.95.191-1.529.193-.773.005-1.463.091-2.07.262-.606.174-1.121.465-1.539.881-.419.416-.738.962-.954 1.64-.218.679-.322 1.519-.316 2.52l.009 1.794 7.045-.039.024 4.646-6.833.038.122 22.19-6.512.036zM179.892 96.706c1.707-.01 3.278.255 4.716.795 1.436.534 2.675 1.325 3.722 2.364 1.043 1.047 1.86 2.322 2.449 3.84.59 1.522.89 3.256.899 5.207.002.493-.015.902-.057 1.229-.044.325-.12.582-.234.77-.114.183-.269.312-.461.395-.194.082-.44.121-.738.125l-16.731.089c.208 2.781.967 4.815 2.276 6.112 1.309 1.292 3.036 1.936 5.185 1.921 1.055-.006 1.965-.13 2.729-.38.763-.254 1.43-.526 2.001-.833.569-.303 1.07-.576 1.501-.825.429-.25.845-.372 1.251-.376.263 0 .494.048.686.152.196.108.366.253.504.446l1.915 2.362c-.716.848-1.522 1.561-2.417 2.139-.896.577-1.828 1.04-2.806 1.388-.971.352-1.966.595-2.977.746-1.011.145-1.99.221-2.94.227-1.884.011-3.635-.294-5.257-.909-1.622-.618-3.034-1.533-4.235-2.747-1.207-1.219-2.153-2.725-2.85-4.521-.696-1.801-1.05-3.89-1.063-6.263-.009-1.847.278-3.588.871-5.217.588-1.631 1.438-3.052 2.548-4.261 1.11-1.21 2.468-2.175 4.074-2.887 1.601-.713 3.416-1.076 5.439-1.088zm.158 4.672c-1.901.01-3.382.556-4.449 1.635-1.066 1.077-1.746 2.603-2.032 4.577l12.242-.071c-.003-.842-.122-1.638-.356-2.387-.234-.745-.589-1.396-1.066-1.958-.48-.56-1.08-.997-1.802-1.322-.724-.324-1.572-.48-2.537-.474zM212.614 101.7c-.208.388-.534.584-.974.586-.265.003-.563-.091-.901-.284-.336-.192-.744-.405-1.23-.64-.485-.234-1.062-.45-1.73-.65-.672-.198-1.463-.296-2.377-.29-.792.003-1.505.11-2.137.314-.632.206-1.171.488-1.621.84-.444.355-.787.764-1.021 1.231-.235.467-.352.976-.348 1.521.004.684.206 1.257.602 1.71.398.458.925.849 1.577 1.18.655.329 1.394.621 2.223.872.828.249 1.678.516 2.55.804.872.284 1.721.601 2.552.948.829.352 1.57.785 2.223 1.308.654.524 1.181 1.168 1.583 1.935.398.763.602 1.682.607 2.753.006 1.229-.209 2.373-.64 3.418-.437 1.053-1.08 1.959-1.939 2.732-.858.769-1.91 1.378-3.156 1.824-1.248.443-2.689.674-4.325.682-1.864.011-3.554-.281-5.07-.882-1.516-.598-2.806-1.371-3.866-2.315l1.097-1.803c.14-.227.305-.401.501-.526.191-.125.446-.188.762-.188.316-.004.652.117 1.005.362.354.242.781.516 1.284.81.505.297 1.112.568 1.827.811.712.242 1.605.359 2.679.355.914-.004 1.715-.129 2.398-.37.685-.238 1.252-.565 1.71-.973.455-.407.792-.876 1.007-1.404.218-.528.324-1.09.32-1.689-.004-.74-.204-1.352-.604-1.832-.398-.483-.923-.895-1.577-1.229-.651-.342-1.398-.636-2.234-.885-.838-.253-1.693-.516-2.564-.792-.871-.277-1.727-.594-2.565-.949-.838-.356-1.586-.805-2.238-1.347-.655-.543-1.18-1.214-1.58-2.011-.4-.798-.604-1.772-.61-2.913-.005-1.02.2-2.002.619-2.944.415-.944 1.027-1.773 1.831-2.493.807-.716 1.797-1.288 2.975-1.717 1.177-.428 2.52-.647 4.034-.656 1.76-.01 3.339.26 4.742.805 1.399.547 2.615 1.302 3.642 2.263l-1.043 1.718zM228.441 124.362c-2.111.011-3.737-.573-4.879-1.744-1.141-1.172-1.718-2.864-1.731-5.084l-.089-16.358-3.219.02c-.28.002-.518-.082-.714-.247-.194-.168-.294-.428-.296-.776l-.009-1.875 4.378-.58 1.036-8.263c.035-.267.147-.48.34-.651.192-.167.438-.252.738-.254l2.375-.011.05 9.208 7.652-.042.02 3.405-7.653.04.087 16.045c.005 1.127.284 1.958.832 2.502.549.539 1.254.812 2.115.807.491-.004.917-.072 1.277-.206s.672-.279.933-.439c.265-.16.488-.309.672-.438.185-.134.347-.197.488-.199.243 0 .466.146.66.444l1.385 2.235c-.804.759-1.779 1.36-2.917 1.797-1.141.434-2.318.656-3.531.664zM250.689 96.662c1.952-.012 3.72.305 5.297.947 1.579.642 2.919 1.56 4.024 2.748 1.108 1.188 1.96 2.632 2.558 4.327.598 1.694.902 3.59.914 5.68.011 2.109-.272 4.012-.852 5.703-.579 1.692-1.417 3.14-2.51 4.343-1.092 1.203-2.422 2.13-3.996 2.778-1.57.653-3.333.984-5.285.991-1.952.014-3.72-.295-5.296-.932-1.579-.632-2.924-1.545-4.04-2.735s-1.977-2.63-2.584-4.315c-.608-1.685-.916-3.584-.928-5.693-.011-2.092.278-3.989.867-5.69.589-1.702 1.434-3.153 2.537-4.355s2.438-2.133 4.007-2.794c1.574-.656 3.335-.991 5.287-1.003zm.133 23.854c2.637-.013 4.603-.909 5.896-2.686 1.292-1.776 1.929-4.244 1.91-7.411-.017-3.185-.683-5.662-1.992-7.43-1.311-1.771-3.288-2.651-5.925-2.634-1.337.008-2.499.242-3.482.706-.981.461-1.799 1.126-2.455 1.992-.655.864-1.143 1.929-1.461 3.188-.32 1.258-.476 2.679-.466 4.264.007 1.583.179 2.994.511 4.246.332 1.244.833 2.294 1.496 3.142.665.852 1.49 1.501 2.479 1.953.988.451 2.153.677 3.489.67zM287.478 101.63c-.141.196-.28.345-.42.449-.142.11-.343.161-.605.163-.263.002-.552-.105-.861-.325-.311-.217-.703-.458-1.179-.718-.478-.264-1.053-.502-1.732-.718-.681-.215-1.511-.32-2.497-.314-1.303.007-2.453.243-3.451.718-1.001.471-1.839 1.15-2.511 2.03-.672.884-1.176 1.951-1.512 3.203-.336 1.252-.498 2.65-.491 4.2.009 1.62.2 3.052.578 4.31.378 1.257.901 2.31 1.574 3.159.674.851 1.49 1.494 2.453 1.937.962.444 2.04.666 3.235.658 1.143-.007 2.086-.15 2.822-.428.734-.275 1.35-.58 1.841-.917.491-.336.896-.646 1.209-.917.314-.271.632-.414.948-.414.405-.004.703.143.897.444l1.329 1.705c-1.152 1.433-2.598 2.483-4.336 3.151-1.739.669-3.575 1.01-5.508 1.017-1.672.012-3.226-.286-4.662-.896-1.438-.609-2.688-1.491-3.749-2.659-1.064-1.162-1.903-2.597-2.517-4.3-.616-1.704-.932-3.646-.943-5.827-.011-1.988.256-3.83.8-5.52.545-1.695 1.347-3.15 2.404-4.382 1.054-1.229 2.365-2.19 3.927-2.884 1.562-.695 3.354-1.05 5.376-1.062 1.864-.009 3.521.284 4.965.885 1.446.598 2.728 1.45 3.842 2.552l-1.226 1.7zM298.679 84.681l.124 22.878 1.215-.007c.353 0 .643-.053.87-.149.229-.099.483-.294.765-.599l8.393-9.097c.261-.28.523-.513.787-.689.263-.176.613-.267 1.054-.269l4.275-.025-9.783 10.53c-.244.301-.483.565-.722.796-.238.229-.503.436-.801.61.318.208.606.45.861.72.257.273.5.586.731.936l10.521 13.135-4.223.022c-.386 0-.718-.071-.992-.22-.272-.147-.533-.38-.78-.693l-8.849-10.903c-.267-.368-.532-.608-.796-.72-.265-.115-.659-.171-1.188-.167l-1.319.007.071 12.774-4.723.023-.213-38.868 4.722-.025z"/></g></svg>