<svg xmlns="http://www.w3.org/2000/svg" width="740" height="124.25" viewBox="0 0 740 124.25"><path fill="#535351" d="M322.927 18.185l-63.622 63.289-63.61-63.289h-34.772v87.88h24.595v-63.286l63.596 63.286h20.371l63.617-63.286.007 63.286h24.591v-87.88z"/><path fill="#E73088" d="M554.481 63.874v-1.749h24.587v43.94h.009v-44.021h-24.596z"/><path fill="#535351" d="M480.684 81.474l-63.612-63.289h-34.772v87.88h24.596v-63.286l63.596 63.286h20.371l44.346-44.116v-34.717z"/><path fill="#E73088" d="M554.481 106.065h.007l-.007-42.191zM554.481 62.125v1.749l.007 42.191h24.58v-43.94zM554.48 42.779h24.588v-24.594h-24.595v24.594z"/></svg>