<svg xmlns="http://www.w3.org/2000/svg" width="740" height="124.25" viewBox="0 0 740 124.25"><path fill="#535351" d="M328.811 23.678l-55.669 55.378-55.659-55.378h-30.426v76.895h21.521v-55.376l55.646 55.375h17.825l55.665-55.375.007 55.375h21.517v-76.894h-30.427z"/><path fill="#E73088" d="M531.422 63.655v-1.53h21.514v38.447h.008v-38.518h-21.524l.002 1.601z"/><path fill="#535351" d="M466.848 79.056l-55.66-55.378h-30.426v76.895h21.523v-55.376l55.646 55.375h17.824l38.803-38.601v-30.377l-47.71 47.462z"/><path fill="#E73088" d="M531.422 100.572h.006l-.006-36.917v36.917zm0-38.447v1.53l.006 36.917h21.508v-38.447h-21.514zm-.002-16.928h21.516v-21.52h-21.521v21.52h.005z"/></svg>