<?xml version="1.0" encoding="utf-8"?>
<!-- Generator: Adobe Illustrator 16.0.4, SVG Export Plug-In . SVG Version: 6.00 Build 0)  -->
<!DOCTYPE svg PUBLIC "-//W3C//DTD SVG 1.1//EN" "http://www.w3.org/Graphics/SVG/1.1/DTD/svg11.dtd">
<svg version="1.1" id="Layer_1" xmlns="http://www.w3.org/2000/svg" xmlns:xlink="http://www.w3.org/1999/xlink" x="0px" y="0px"
	 width="740px" height="124.25px" viewBox="0 0 740 124.25" enable-background="new 0 0 740 124.25" xml:space="preserve">
<g>
	<path fill="#929497" d="M239.432,14.091c0,3.535-2.868,6.407-6.408,6.407c-3.539,0-6.409-2.872-6.409-6.407
		c0-3.541,2.87-6.409,6.409-6.409C236.563,7.683,239.432,10.551,239.432,14.091z"/>
	<path fill="#58595B" d="M212.007,16.031c2.854,2.854,2.854,7.48,0,10.334c-2.854,2.853-7.479,2.853-10.333,0
		c-2.851-2.854-2.851-7.48,0-10.334C204.527,13.182,209.152,13.182,212.007,16.031z"/>
	<path fill="#333333" d="M191.606,36.027c4.839,0,8.767,3.924,8.767,8.767c0,4.841-3.928,8.765-8.767,8.765
		c-4.841,0-8.765-3.924-8.771-8.765C182.836,39.951,186.766,36.027,191.606,36.027z"/>
	<path fill="#FAAF40" d="M193.233,66.74c3.943-3.939,10.336-3.939,14.281,0c3.945,3.951,3.945,10.346,0,14.291
		c-3.945,3.938-10.338,3.933-14.285,0C189.286,77.086,189.288,70.687,193.233,66.74z"/>
	<path fill="#F6921E" d="M216.85,90.378c0-6.237,5.057-11.29,11.288-11.29c6.238,0,11.292,5.053,11.298,11.297
		c-0.006,6.229-5.06,11.283-11.296,11.289C221.906,101.674,216.852,96.614,216.85,90.378z"/>
	<path fill="#39B1E5" d="M261.321,31.944c-2.226,2.231-5.841,2.231-8.07,0c-2.228-2.229-2.231-5.843,0-8.075
		c2.229-2.225,5.845-2.229,8.07,0C263.551,26.101,263.551,29.715,261.321,31.944z"/>
	<g>
		<path fill="#333333" d="M252.35,95.853V52.061c0-3.835,1.012-6.712,3.037-8.63c1.918-1.811,5.06-2.717,9.43-2.717
			c1.063,0,1.917,0.055,2.557,0.16c1.171,0,2.078,0.055,2.717,0.16v8.791h-2.877c-1.493,0-2.557,0.215-3.196,0.639
			c-0.534,0.427-0.799,1.279-0.799,2.557v2.877h6.872v2.397c0,1.598-0.534,2.904-1.598,3.916c-1.066,1.014-2.293,1.519-3.676,1.519
			h-1.599v32.124H252.35z"/>
		<path fill="#333333" d="M276.163,92.017c-2.237-1.917-3.835-4.5-4.794-7.751c-0.959-3.249-1.438-6.633-1.438-10.148
			c0-2.877,0.399-5.754,1.198-8.631c0.8-2.877,2.051-5.274,3.756-7.192c2.77-3.197,6.338-5.087,10.708-5.674
			c4.368-0.584,8.312-0.24,11.827,1.039c4.048,1.599,7.032,4.37,8.95,8.311c1.811,3.516,2.717,7.62,2.717,12.306
			c0,3.411-0.374,6.341-1.119,8.79c-0.746,2.453-1.705,4.53-2.876,6.233c-2.558,3.517-5.809,5.701-9.75,6.553
			c-3.516,0.959-7.06,1.039-10.628,0.239C281.143,95.293,278.294,93.935,276.163,92.017z M283.835,63.889
			c-2.237,2.451-3.251,6.1-3.036,10.947c0.212,4.85,1.118,8.23,2.717,10.148c0.639,0.854,1.758,1.573,3.356,2.158
			c1.598,0.586,3.221,0.639,4.874,0.16c1.65-0.48,3.116-1.679,4.396-3.597c1.278-1.918,1.97-5.007,2.077-9.27
			c0-3.836-0.614-6.713-1.838-8.631c-1.226-1.917-2.637-3.142-4.235-3.676c-1.598-0.532-3.196-0.559-4.794-0.08
			C285.753,62.529,284.579,63.145,283.835,63.889z"/>
		<path fill="#333333" d="M312.481,95.853V75.235c0-4.155,0.612-7.644,1.838-10.468c1.224-2.822,2.902-5.087,5.035-6.793
			c2.022-1.598,4.395-2.77,7.111-3.516c2.718-0.744,5.515-1.119,8.391-1.119c0.213,0,0.479,0,0.8,0c0.319,0,0.584,0,0.799,0v11.348
			h-3.676c-3.092,0-5.382,0.746-6.872,2.237c-1.494,1.493-2.238,3.835-2.238,7.032v21.896H312.481z"/>
		<path fill="#333333" d="M393.033,95.853h-11.027V70.92v-2.237c0-2.558-0.775-4.42-2.318-5.594
			c-1.545-1.171-3.275-1.758-5.193-1.758c-1.919,0-3.625,0.586-5.115,1.758c-1.494,1.174-2.238,3.036-2.238,5.594v27.17h-11.188
			V70.92c0-7.244,1.891-12.091,5.674-14.543c3.781-2.45,7.964-3.781,12.547-3.996c2.449,0,4.848,0.267,7.191,0.799
			c2.344,0.535,4.475,1.599,6.393,3.197c1.6-1.384,3.49-2.37,5.674-2.957c2.184-0.584,4.447-0.931,6.793-1.039
			c4.688,0,9.002,1.226,12.945,3.676c3.941,2.452,5.914,7.406,5.914,14.863v24.933h-5.594c-1.598,0-2.904-0.504-3.916-1.519
			c-1.014-1.012-1.518-2.317-1.518-3.916V68.683c0-2.558-0.775-4.42-2.318-5.594c-1.545-1.171-3.275-1.758-5.193-1.758
			s-3.652,0.586-5.195,1.758c-1.545,1.174-2.316,3.036-2.316,5.594v2.237V95.853z"/>
		<path fill="#333333" d="M453.324,82.747h7.99c-1.174,4.476-3.41,7.886-6.713,10.229c-3.303,2.453-7.459,3.676-12.465,3.676
			c-6.074,0-10.816-1.97-14.225-5.913c-3.412-3.836-5.115-9.322-5.115-16.462c0-6.817,1.652-12.146,4.955-15.982
			c3.408-3.941,8.15-5.914,14.225-5.914c6.393,0,11.348,1.918,14.863,5.753c3.408,3.943,5.115,9.43,5.115,16.461
			c0,0.428,0,0.799,0,1.119s0,0.535,0,0.639c0,0.535-0.057,0.907-0.16,1.119h-27.65c0.105,3.305,0.904,5.754,2.398,7.352
			c1.383,1.706,3.461,2.558,6.232,2.558c1.811,0,3.355-0.372,4.635-1.118c0.32-0.105,0.611-0.293,0.879-0.561
			c0.266-0.264,0.561-0.559,0.879-0.879c0.105-0.318,0.504-0.744,1.199-1.277C451.059,83.014,452.045,82.747,453.324,82.747z
			 M434.145,70.281h16.303c-0.215-2.877-0.959-5.008-2.238-6.393c-1.385-1.492-3.355-2.238-5.912-2.238
			c-2.346,0-4.264,0.747-5.754,2.238C435.049,65.381,434.25,67.512,434.145,70.281z"/>
		<path fill="#333333" d="M493.479,40.714h5.434c1.49,0,2.77,0.559,3.836,1.678c1.062,1.119,1.598,2.372,1.598,3.756v31.165
			c0,7.567-2.186,12.682-6.553,15.344c-4.369,2.665-9.109,3.995-14.225,3.995c-2.771,0-5.488-0.454-8.15-1.358
			c-2.664-0.904-4.795-2.369-6.393-4.395c-3.092-3.941-4.635-9.322-4.635-16.143c0-6.713,1.543-12.092,4.635-16.142
			c3.195-4.155,7.297-6.233,12.307-6.233c2.662,0,5.006,0.534,7.031,1.598c2.131,1.279,3.836,2.932,5.115,4.955V40.714z
			 M475.258,74.276c0,4.263,0.799,7.512,2.396,9.749c1.6,2.238,3.889,3.356,6.873,3.356c2.877,0,5.115-1.118,6.713-3.356
			c1.49-2.237,2.238-5.486,2.238-9.749c0-3.835-0.799-6.872-2.398-9.11c-1.705-2.129-3.994-3.196-6.873-3.196
			c-2.771,0-4.953,1.119-6.553,3.356C476.057,67.459,475.258,70.441,475.258,74.276z"/>
		<path fill="#333333" d="M507.223,40.874h5.754c1.49,0,2.77,0.535,3.836,1.598c1.064,1.066,1.598,2.345,1.598,3.836v3.356h-11.188
			V40.874z M507.223,53.34h5.754c1.49,0,2.77,0.534,3.836,1.598c1.064,1.066,1.598,2.345,1.598,3.836v37.079h-11.188V53.34z"/>
		<path fill="#333333" d="M549.332,94.095c-2.236,1.173-4.609,1.891-7.111,2.157c-2.506,0.265-4.715,0.399-6.633,0.399
			c-3.836,0-7.191-1.039-10.068-3.116c-2.877-2.078-4.316-5.514-4.316-10.309c0-4.475,1.305-7.672,3.916-9.59
			c2.609-1.918,5.939-3.195,9.988-3.836c0.533,0,1.172-0.079,1.918-0.239c0.744-0.159,1.6-0.292,2.559-0.399
			c4.688-0.639,7.031-2.022,7.031-4.155c0-1.599-0.826-2.637-2.477-3.117c-1.654-0.479-3.172-0.719-4.555-0.719
			c-1.494,0-2.824,0.215-3.996,0.64c-1.174,0.427-2.025,1.227-2.557,2.396h-10.709c0.424-3.301,1.918-6.018,4.475-8.15
			c2.877-2.45,6.979-3.676,12.307-3.676c5.967,0,10.441,1.014,13.426,3.037c3.088,2.133,4.635,5.114,4.635,8.95v14.544
			c0,4.263-0.775,7.592-2.318,9.989C553.301,91.297,551.463,93.031,549.332,94.095z M546.775,74.437
			c-1.494,0.747-3.57,1.438-6.232,2.077l-3.676,0.799c-1.918,0.535-3.305,1.227-4.156,2.078c-0.746,1.174-1.119,2.346-1.119,3.516
			c0,1.6,0.48,2.877,1.439,3.836c0.959,0.854,2.342,1.279,4.154,1.279c2.982,0,5.326-0.852,7.033-2.558
			c1.703-1.703,2.557-4.048,2.557-7.032V74.437z"/>
	</g>
	<g>
		<path fill="#39B1E5" d="M252.35,116.285v-10.86c0-0.353,0.124-0.652,0.37-0.899c0.247-0.247,0.547-0.37,0.899-0.37h7.546v2.08
			h-6.347v2.609h4.725v0.812c0,0.353-0.123,0.652-0.37,0.898c-0.247,0.247-0.547,0.371-0.899,0.371h-3.455v3.103h6.347v2.257H252.35
			z"/>
		<path fill="#39B1E5" d="M265.38,116.285v-10.86c0-0.353,0.124-0.652,0.37-0.899c0.247-0.247,0.547-0.382,0.899-0.405h2.434
			l2.397,9.273l2.397-9.273h3.703v12.165h-2.328v-9.803l-2.468,9.803h-2.574l-2.504-9.803v9.803H265.38z"/>
		<path fill="#39B1E5" d="M287.551,104.155h1.975l4.408,12.13h-2.645l-0.812-2.504h-4.725l-0.776,2.504h-2.645l4.021-11.319
			C286.563,104.426,286.963,104.155,287.551,104.155z M288.115,106.588l-1.692,5.148h3.385L288.115,106.588z"/>
		<path fill="#39B1E5" d="M298.289,116.285v-10.86c0-0.353,0.123-0.652,0.37-0.899s0.547-0.37,0.899-0.37h1.233v12.13H298.289z"/>
		<path fill="#39B1E5" d="M306.134,116.285v-10.86c0-0.353,0.124-0.652,0.37-0.899c0.247-0.247,0.547-0.37,0.899-0.37h1.234v9.873
			h5.924v2.257H306.134z"/>
		<path fill="#929497" d="M328.031,116.285v-10.86c0-0.353,0.124-0.652,0.37-0.899c0.247-0.247,0.547-0.37,0.899-0.37h4.619
			c1.316,0,2.292,0.282,2.927,0.846c0.658,0.588,0.987,1.446,0.987,2.574c0,0.753-0.164,1.376-0.493,1.869
			c-0.282,0.471-0.729,0.812-1.34,1.022c0.54,0.188,0.916,0.471,1.128,0.847c0.212,0.353,0.341,0.952,0.388,1.798l0.071,1.446
			c0,0.141,0,0.294,0,0.458c0,0.165,0.011,0.317,0.035,0.459c0.07,0.423,0.211,0.693,0.423,0.811h-2.751
			c-0.117-0.234-0.188-0.481-0.211-0.74c-0.048-0.376-0.07-0.635-0.07-0.776l-0.035-1.305c-0.048-0.705-0.188-1.21-0.424-1.516
			c-0.259-0.259-0.717-0.388-1.375-0.388h-2.645v4.725H328.031z M330.535,109.444h2.927c0.635,0,1.104-0.129,1.41-0.388
			s0.459-0.658,0.459-1.199c0-0.54-0.153-0.939-0.459-1.198c-0.282-0.282-0.705-0.424-1.27-0.424h-3.067V109.444z"/>
		<path fill="#929497" d="M343.053,116.285v-10.86c0-0.353,0.124-0.652,0.37-0.899c0.247-0.247,0.547-0.37,0.899-0.37h7.546v2.08
			h-6.347v2.609h4.725v0.812c0,0.353-0.123,0.652-0.37,0.898c-0.247,0.247-0.547,0.371-0.899,0.371h-3.455v3.103h6.347v2.257
			H343.053z"/>
		<path fill="#929497" d="M356.806,112.512h2.468c0.094,0.706,0.364,1.199,0.812,1.481c0.47,0.329,1.116,0.493,1.939,0.493
			c0.729,0,1.28-0.129,1.657-0.388c0.376-0.258,0.564-0.635,0.564-1.128c0-0.752-1.059-1.363-3.174-1.834l-0.07-0.035l-0.282-0.07
			c-1.199-0.259-1.999-0.529-2.398-0.812c-0.47-0.258-0.799-0.635-0.987-1.128c-0.235-0.423-0.353-0.964-0.353-1.622
			c0-1.151,0.399-2.057,1.199-2.715c0.799-0.635,1.963-0.952,3.491-0.952c1.434,0,2.538,0.329,3.314,0.987
			c0.799,0.729,1.222,1.681,1.27,2.856h-1.411c-0.541,0-0.929-0.247-1.163-0.741c-0.118-0.234-0.282-0.435-0.494-0.6
			c-0.423-0.305-0.999-0.458-1.728-0.458c-0.705,0-1.211,0.13-1.517,0.388c-0.353,0.259-0.528,0.623-0.528,1.094
			c0,0.635,0.682,1.104,2.045,1.41c0.399,0.118,0.693,0.188,0.882,0.212c0.423,0.141,0.793,0.252,1.11,0.335
			c0.317,0.082,0.569,0.146,0.758,0.193c0.329,0.142,0.658,0.282,0.987,0.423c0.471,0.282,0.835,0.647,1.094,1.094
			c0.258,0.493,0.388,1.034,0.388,1.622c0,1.27-0.423,2.257-1.27,2.962c-0.846,0.658-2.045,0.987-3.597,0.987
			c-1.599,0-2.798-0.341-3.597-1.022C357.346,114.863,356.876,113.853,356.806,112.512z"/>
		<path fill="#929497" d="M371.686,116.285v-10.86c0-0.353,0.124-0.652,0.371-0.899c0.246-0.247,0.547-0.37,0.898-0.37h7.547v2.08
			h-6.348v2.609h4.725v0.812c0,0.353-0.123,0.652-0.369,0.898c-0.248,0.247-0.547,0.371-0.9,0.371h-3.455v3.103h6.348v2.257H371.686
			z"/>
		<path fill="#929497" d="M385.439,116.285v-10.86c0-0.353,0.123-0.652,0.369-0.899c0.248-0.247,0.547-0.37,0.9-0.37h1.232v9.873
			h5.926v2.257H385.439z"/>
		<path fill="#929497" d="M398.768,116.285v-10.86c0-0.353,0.123-0.652,0.371-0.899c0.246-0.247,0.547-0.37,0.898-0.37h1.234v9.873
			h5.924v2.257H398.768z"/>
		<path fill="#929497" d="M412.096,116.285v-10.86c0-0.353,0.125-0.652,0.371-0.899s0.547-0.37,0.898-0.37h7.547v2.08h-6.348v2.609
			h4.725v0.812c0,0.353-0.123,0.652-0.369,0.898c-0.248,0.247-0.547,0.371-0.9,0.371h-3.455v3.103h6.348v2.257H412.096z"/>
		<path fill="#929497" d="M425.85,116.285v-10.86c0-0.353,0.123-0.652,0.369-0.899c0.248-0.247,0.547-0.37,0.9-0.37h4.619
			c1.316,0,2.291,0.282,2.926,0.846c0.658,0.588,0.988,1.446,0.988,2.574c0,0.753-0.166,1.376-0.494,1.869
			c-0.283,0.471-0.729,0.812-1.34,1.022c0.541,0.188,0.916,0.471,1.129,0.847c0.211,0.353,0.34,0.952,0.387,1.798l0.07,1.446
			c0,0.141,0,0.294,0,0.458c0,0.165,0.012,0.317,0.035,0.459c0.07,0.423,0.213,0.693,0.424,0.811h-2.75
			c-0.119-0.234-0.189-0.481-0.213-0.74c-0.047-0.376-0.07-0.635-0.07-0.776l-0.035-1.305c-0.047-0.705-0.188-1.21-0.422-1.516
			c-0.26-0.259-0.719-0.388-1.375-0.388h-2.646v4.725H425.85z M428.352,109.444h2.928c0.635,0,1.105-0.129,1.41-0.388
			s0.459-0.658,0.459-1.199c0-0.54-0.154-0.939-0.459-1.198c-0.281-0.282-0.705-0.424-1.27-0.424h-3.068V109.444z"/>
		<path fill="#FAAF40" d="M449.439,112.512h2.467c0.094,0.706,0.365,1.199,0.812,1.481c0.469,0.329,1.115,0.493,1.939,0.493
			c0.729,0,1.279-0.129,1.656-0.388c0.377-0.258,0.564-0.635,0.564-1.128c0-0.752-1.059-1.363-3.174-1.834l-0.07-0.035l-0.281-0.07
			c-1.199-0.259-2-0.529-2.398-0.812c-0.471-0.258-0.799-0.635-0.988-1.128c-0.234-0.423-0.352-0.964-0.352-1.622
			c0-1.151,0.398-2.057,1.199-2.715c0.799-0.635,1.963-0.952,3.49-0.952c1.434,0,2.539,0.329,3.314,0.987
			c0.799,0.729,1.223,1.681,1.27,2.856h-1.41c-0.541,0-0.93-0.247-1.164-0.741c-0.117-0.234-0.281-0.435-0.494-0.6
			c-0.422-0.305-0.998-0.458-1.727-0.458c-0.705,0-1.211,0.13-1.518,0.388c-0.352,0.259-0.527,0.623-0.527,1.094
			c0,0.635,0.682,1.104,2.045,1.41c0.398,0.118,0.693,0.188,0.881,0.212c0.424,0.141,0.793,0.252,1.111,0.335
			c0.316,0.082,0.568,0.146,0.758,0.193c0.328,0.142,0.658,0.282,0.986,0.423c0.471,0.282,0.836,0.647,1.094,1.094
			c0.258,0.493,0.389,1.034,0.389,1.622c0,1.27-0.424,2.257-1.27,2.962c-0.846,0.658-2.045,0.987-3.598,0.987
			c-1.598,0-2.797-0.341-3.596-1.022C449.979,114.863,449.51,113.853,449.439,112.512z"/>
		<path fill="#FAAF40" d="M464.318,116.285v-10.86c0-0.353,0.125-0.652,0.371-0.899s0.547-0.37,0.898-0.37h7.547v2.08h-6.348v2.609
			h4.725v0.812c0,0.353-0.123,0.652-0.369,0.898c-0.248,0.247-0.547,0.371-0.9,0.371h-3.455v3.103h6.348v2.257H464.318z"/>
		<path fill="#FAAF40" d="M478.072,116.285v-10.86c0-0.353,0.123-0.652,0.369-0.899c0.248-0.247,0.547-0.37,0.9-0.37h4.619
			c1.316,0,2.291,0.282,2.926,0.846c0.658,0.588,0.988,1.446,0.988,2.574c0,0.753-0.166,1.376-0.494,1.869
			c-0.281,0.471-0.729,0.812-1.34,1.022c0.541,0.188,0.916,0.471,1.129,0.847c0.211,0.353,0.34,0.952,0.387,1.798l0.07,1.446
			c0,0.141,0,0.294,0,0.458c0,0.165,0.012,0.317,0.035,0.459c0.072,0.423,0.213,0.693,0.424,0.811h-2.75
			c-0.117-0.234-0.189-0.481-0.211-0.74c-0.049-0.376-0.072-0.635-0.072-0.776l-0.035-1.305c-0.047-0.705-0.188-1.21-0.422-1.516
			c-0.26-0.259-0.719-0.388-1.375-0.388h-2.646v4.725H478.072z M480.574,109.444h2.928c0.635,0,1.105-0.129,1.41-0.388
			c0.307-0.259,0.459-0.658,0.459-1.199c0-0.54-0.152-0.939-0.459-1.198c-0.281-0.282-0.705-0.424-1.27-0.424h-3.068V109.444z"/>
		<path fill="#FAAF40" d="M497.289,116.285l-4.197-12.13h2.787l2.572,9.062l2.363-8.146c0.141-0.611,0.541-0.917,1.199-0.917h1.799
			l-4.127,12.13H497.289z"/>
		<path fill="#FAAF40" d="M508.854,116.285v-10.86c0-0.353,0.123-0.652,0.371-0.899c0.246-0.247,0.547-0.37,0.898-0.37h1.234v12.13
			H508.854z"/>
		<path fill="#FAAF40" d="M526.803,112.089c-0.119,1.41-0.646,2.516-1.588,3.314c-0.963,0.776-2.232,1.164-3.807,1.164
			c-1.834,0-3.232-0.552-4.197-1.657c-0.965-1.058-1.445-2.621-1.445-4.69c0-2.115,0.494-3.702,1.48-4.76
			c1.012-1.104,2.469-1.657,4.373-1.657c1.551,0,2.785,0.388,3.703,1.163c0.869,0.753,1.361,1.811,1.48,3.174h-1.516
			c-0.564,0-0.965-0.247-1.199-0.74c-0.166-0.306-0.365-0.576-0.6-0.812c-0.471-0.353-1.094-0.528-1.869-0.528
			c-1.082,0-1.916,0.353-2.504,1.058c-0.564,0.705-0.846,1.74-0.846,3.103c0,1.317,0.281,2.328,0.846,3.033
			c0.541,0.729,1.352,1.093,2.434,1.093c0.752,0,1.375-0.188,1.869-0.564c0.445-0.353,0.764-0.916,0.951-1.692H526.803z"/>
		<path fill="#FAAF40" d="M531.846,116.285v-10.86c0-0.353,0.123-0.652,0.369-0.899c0.248-0.247,0.547-0.37,0.9-0.37h7.545v2.08
			h-6.346v2.609h4.725v0.812c0,0.353-0.123,0.652-0.371,0.898c-0.246,0.247-0.547,0.371-0.898,0.371h-3.455v3.103h6.346v2.257
			H531.846z"/>
		<path fill="#FAAF40" d="M545.598,112.512h2.469c0.092,0.706,0.363,1.199,0.811,1.481c0.469,0.329,1.115,0.493,1.939,0.493
			c0.729,0,1.281-0.129,1.656-0.388c0.377-0.258,0.564-0.635,0.564-1.128c0-0.752-1.057-1.363-3.174-1.834l-0.07-0.035l-0.281-0.07
			c-1.199-0.259-1.998-0.529-2.398-0.812c-0.471-0.258-0.799-0.635-0.986-1.128c-0.236-0.423-0.354-0.964-0.354-1.622
			c0-1.151,0.4-2.057,1.199-2.715c0.799-0.635,1.963-0.952,3.49-0.952c1.434,0,2.539,0.329,3.314,0.987
			c0.799,0.729,1.223,1.681,1.27,2.856h-1.41c-0.541,0-0.93-0.247-1.164-0.741c-0.117-0.234-0.281-0.435-0.492-0.6
			c-0.424-0.305-1-0.458-1.729-0.458c-0.705,0-1.211,0.13-1.516,0.388c-0.354,0.259-0.529,0.623-0.529,1.094
			c0,0.635,0.682,1.104,2.045,1.41c0.398,0.118,0.693,0.188,0.881,0.212c0.424,0.141,0.793,0.252,1.111,0.335
			c0.316,0.082,0.57,0.146,0.758,0.193c0.33,0.142,0.658,0.282,0.988,0.423c0.469,0.282,0.834,0.647,1.092,1.094
			c0.26,0.493,0.389,1.034,0.389,1.622c0,1.27-0.424,2.257-1.27,2.962c-0.846,0.658-2.045,0.987-3.598,0.987
			c-1.598,0-2.797-0.341-3.596-1.022C546.137,114.863,545.668,113.853,545.598,112.512z"/>
	</g>
</g>
</svg>
