<?xml version="1.0" encoding="utf-8"?>
<!-- Generator: Adobe Illustrator 16.0.4, SVG Export Plug-In . SVG Version: 6.00 Build 0)  -->
<!DOCTYPE svg PUBLIC "-//W3C//DTD SVG 1.1//EN" "http://www.w3.org/Graphics/SVG/1.1/DTD/svg11.dtd">
<svg version="1.1" id="Layer_1" xmlns="http://www.w3.org/2000/svg" xmlns:xlink="http://www.w3.org/1999/xlink" x="0px" y="0px"
	 width="740px" height="124.25px" viewBox="0 0 740 124.25" enable-background="new 0 0 740 124.25" xml:space="preserve">
<path fill="#535351" d="M328.811,23.678l-55.669,55.378l-55.659-55.378h-30.426v76.895h21.521V45.197l55.646,55.375h17.825
	l55.665-55.375l0.007,55.375h21.517V23.678H328.811z"/>
<path fill="#E73088" d="M531.422,63.654v-1.529h21.514v38.447h0.009V62.054H531.42L531.422,63.654z"/>
<path fill="#535351" d="M466.848,79.057l-55.66-55.378h-30.426v76.895h21.523V45.197l55.646,55.375h17.824l38.803-38.601V31.594
	L466.848,79.057z"/>
<path fill="#E73088" d="M531.422,100.572h0.006l-0.006-36.918V100.572z M531.422,62.125v1.529l0.006,36.918h21.508V62.125H531.422z
	 M531.42,45.197h21.516v-21.52h-21.521v21.52H531.42z"/>
</svg>
