<svg xmlns="http://www.w3.org/2000/svg" width="740" height="124.25" viewBox="0 0 740 124.25"><path fill="#929497" d="M239.432 14.091c0 3.535-2.868 6.407-6.408 6.407-3.539 0-6.409-2.872-6.409-6.407 0-3.541 2.87-6.409 6.409-6.409 3.539.001 6.408 2.869 6.408 6.409z"/><path fill="#58595B" d="M212.007 16.031c2.854 2.854 2.854 7.48 0 10.334-2.854 2.853-7.479 2.853-10.333 0-2.851-2.854-2.851-7.48 0-10.334 2.853-2.849 7.478-2.849 10.333 0z"/><path fill="#333" d="M191.606 36.027c4.839 0 8.767 3.924 8.767 8.767 0 4.841-3.928 8.765-8.767 8.765-4.841 0-8.765-3.924-8.771-8.765.001-4.843 3.931-8.767 8.771-8.767z"/><path fill="#FAAF40" d="M193.233 66.74c3.943-3.939 10.336-3.939 14.281 0 3.945 3.951 3.945 10.346 0 14.291-3.945 3.938-10.338 3.933-14.285 0-3.943-3.945-3.941-10.344.004-14.291z"/><path fill="#F6921E" d="M216.85 90.378c0-6.237 5.057-11.29 11.288-11.29 6.238 0 11.292 5.053 11.298 11.297-.006 6.229-5.06 11.283-11.296 11.289-6.234 0-11.288-5.06-11.29-11.296z"/><path fill="#39B1E5" d="M261.321 31.944c-2.226 2.231-5.841 2.231-8.07 0-2.228-2.229-2.231-5.843 0-8.075 2.229-2.225 5.845-2.229 8.07 0 2.23 2.232 2.23 5.846 0 8.075z"/><g fill="#333"><path d="M252.35 95.853v-43.792c0-3.835 1.012-6.712 3.037-8.63 1.918-1.811 5.06-2.717 9.43-2.717 1.063 0 1.917.055 2.557.16 1.171 0 2.078.055 2.717.16v8.791h-2.877c-1.493 0-2.557.215-3.196.639-.534.427-.799 1.279-.799 2.557v2.877h6.872v2.397c0 1.598-.534 2.904-1.598 3.916-1.066 1.014-2.293 1.519-3.676 1.519h-1.599v32.124h-10.868zM276.163 92.017c-2.237-1.917-3.835-4.5-4.794-7.751-.959-3.249-1.438-6.633-1.438-10.148 0-2.877.399-5.754 1.198-8.631.8-2.877 2.051-5.274 3.756-7.192 2.77-3.197 6.338-5.087 10.708-5.674 4.368-.584 8.312-.24 11.827 1.039 4.048 1.599 7.032 4.37 8.95 8.311 1.811 3.516 2.717 7.62 2.717 12.306 0 3.411-.374 6.341-1.119 8.79-.746 2.453-1.705 4.53-2.876 6.233-2.558 3.517-5.809 5.701-9.75 6.553-3.516.959-7.06 1.039-10.628.239-3.571-.799-6.42-2.157-8.551-4.075zm7.672-28.128c-2.237 2.451-3.251 6.1-3.036 10.947.212 4.85 1.118 8.23 2.717 10.148.639.854 1.758 1.573 3.356 2.158 1.598.586 3.221.639 4.874.16 1.65-.48 3.116-1.679 4.396-3.597 1.278-1.918 1.97-5.007 2.077-9.27 0-3.836-.614-6.713-1.838-8.631-1.226-1.917-2.637-3.142-4.235-3.676-1.598-.532-3.196-.559-4.794-.08-1.599.481-2.773 1.097-3.517 1.841zM312.481 95.853v-20.618c0-4.155.612-7.644 1.838-10.468 1.224-2.822 2.902-5.087 5.035-6.793 2.022-1.598 4.395-2.77 7.111-3.516 2.718-.744 5.515-1.119 8.391-1.119h1.5990000000000002v11.348h-3.676c-3.092 0-5.382.746-6.872 2.237-1.494 1.493-2.238 3.835-2.238 7.032v21.896h-11.188zM393.033 95.853h-11.027v-27.17c0-2.558-.775-4.42-2.318-5.594-1.545-1.171-3.275-1.758-5.193-1.758-1.919 0-3.625.586-5.115 1.758-1.494 1.174-2.238 3.036-2.238 5.594v27.17h-11.188v-24.933c0-7.244 1.891-12.091 5.674-14.543 3.781-2.45 7.964-3.781 12.547-3.996 2.449 0 4.848.267 7.191.799 2.344.535 4.475 1.599 6.393 3.197 1.6-1.384 3.49-2.37 5.674-2.957 2.184-.584 4.447-.931 6.793-1.039 4.688 0 9.002 1.226 12.945 3.676 3.941 2.452 5.914 7.406 5.914 14.863v24.933h-5.594c-1.598 0-2.904-.504-3.916-1.519-1.014-1.012-1.518-2.317-1.518-3.916v-21.735c0-2.558-.775-4.42-2.318-5.594-1.545-1.171-3.275-1.758-5.193-1.758s-3.652.586-5.195 1.758c-1.545 1.174-2.316 3.036-2.316 5.594v27.17zM453.324 82.747h7.99c-1.174 4.476-3.41 7.886-6.713 10.229-3.303 2.453-7.459 3.676-12.465 3.676-6.074 0-10.816-1.97-14.225-5.913-3.412-3.836-5.115-9.322-5.115-16.462 0-6.817 1.652-12.146 4.955-15.982 3.408-3.941 8.15-5.914 14.225-5.914 6.393 0 11.348 1.918 14.863 5.753 3.408 3.943 5.115 9.43 5.115 16.461v1.758c0 .535-.057.907-.16 1.119h-27.65c.105 3.305.904 5.754 2.398 7.352 1.383 1.706 3.461 2.558 6.232 2.558 1.811 0 3.355-.372 4.635-1.118.32-.105.611-.293.879-.561l.879-.879c.105-.318.504-.744 1.199-1.277.693-.533 1.679-.8 2.958-.8zm-19.179-12.466h16.303c-.215-2.877-.959-5.008-2.238-6.393-1.385-1.492-3.355-2.238-5.912-2.238-2.346 0-4.264.747-5.754 2.238-1.495 1.493-2.294 3.624-2.399 6.393zM493.479 40.714h5.434c1.49 0 2.77.559 3.836 1.678 1.062 1.119 1.598 2.372 1.598 3.756v31.165c0 7.567-2.186 12.682-6.553 15.344-4.369 2.665-9.109 3.995-14.225 3.995-2.771 0-5.488-.454-8.15-1.358-2.664-.904-4.795-2.369-6.393-4.395-3.092-3.941-4.635-9.322-4.635-16.143 0-6.713 1.543-12.092 4.635-16.142 3.195-4.155 7.297-6.233 12.307-6.233 2.662 0 5.006.534 7.031 1.598 2.131 1.279 3.836 2.932 5.115 4.955v-18.22zm-18.221 33.562c0 4.263.799 7.512 2.396 9.749 1.6 2.238 3.889 3.356 6.873 3.356 2.877 0 5.115-1.118 6.713-3.356 1.49-2.237 2.238-5.486 2.238-9.749 0-3.835-.799-6.872-2.398-9.11-1.705-2.129-3.994-3.196-6.873-3.196-2.771 0-4.953 1.119-6.553 3.356-1.597 2.133-2.396 5.115-2.396 8.95zM507.223 40.874h5.754c1.49 0 2.77.535 3.836 1.598 1.064 1.066 1.598 2.345 1.598 3.836v3.356h-11.188v-8.79zm0 12.466h5.754c1.49 0 2.77.534 3.836 1.598 1.064 1.066 1.598 2.345 1.598 3.836v37.079h-11.188v-42.513zM549.332 94.095c-2.236 1.173-4.609 1.891-7.111 2.157-2.506.265-4.715.399-6.633.399-3.836 0-7.191-1.039-10.068-3.116-2.877-2.078-4.316-5.514-4.316-10.309 0-4.475 1.305-7.672 3.916-9.59 2.609-1.918 5.939-3.195 9.988-3.836.533 0 1.172-.079 1.918-.239.744-.159 1.6-.292 2.559-.399 4.688-.639 7.031-2.022 7.031-4.155 0-1.599-.826-2.637-2.477-3.117-1.654-.479-3.172-.719-4.555-.719-1.494 0-2.824.215-3.996.64-1.174.427-2.025 1.227-2.557 2.396h-10.709c.424-3.301 1.918-6.018 4.475-8.15 2.877-2.45 6.979-3.676 12.307-3.676 5.967 0 10.441 1.014 13.426 3.037 3.088 2.133 4.635 5.114 4.635 8.95v14.544c0 4.263-.775 7.592-2.318 9.989-1.546 2.396-3.384 4.13-5.515 5.194zm-2.557-19.658c-1.494.747-3.57 1.438-6.232 2.077l-3.676.799c-1.918.535-3.305 1.227-4.156 2.078-.746 1.174-1.119 2.346-1.119 3.516 0 1.6.48 2.877 1.439 3.836.959.854 2.342 1.279 4.154 1.279 2.982 0 5.326-.852 7.033-2.558 1.703-1.703 2.557-4.048 2.557-7.032v-3.995z"/></g><path fill="#39B1E5" d="M252.35 116.285v-10.86c0-.353.124-.652.37-.899.247-.247.547-.37.899-.37h7.546v2.08h-6.347v2.609h4.725v.812c0 .353-.123.652-.37.898-.247.247-.547.371-.899.371h-3.455v3.103h6.347v2.257h-8.816zM265.38 116.285v-10.86c0-.353.124-.652.37-.899.247-.247.547-.382.899-.405h2.434l2.397 9.273 2.397-9.273h3.703v12.165h-2.328v-9.803l-2.468 9.803h-2.574l-2.504-9.803v9.803h-2.326zM287.551 104.155h1.975l4.408 12.13h-2.645l-.812-2.504h-4.725l-.776 2.504h-2.645l4.021-11.319c.211-.54.611-.811 1.199-.811zm.564 2.433l-1.692 5.148h3.385l-1.693-5.148zM298.289 116.285v-10.86c0-.353.123-.652.37-.899s.547-.37.899-.37h1.233v12.13h-2.502zM306.134 116.285v-10.86c0-.353.124-.652.37-.899.247-.247.547-.37.899-.37h1.234v9.873h5.924v2.257h-8.427z"/><path fill="#929497" d="M328.031 116.285v-10.86c0-.353.124-.652.37-.899.247-.247.547-.37.899-.37h4.619c1.316 0 2.292.282 2.927.846.658.588.987 1.446.987 2.574 0 .753-.164 1.376-.493 1.869-.282.471-.729.812-1.34 1.022.54.188.916.471 1.128.847.212.353.341.952.388 1.798l.071 1.446v.458c0 .165.011.317.035.459.07.423.211.693.423.811h-2.751c-.117-.234-.188-.481-.211-.74-.048-.376-.07-.635-.07-.776l-.035-1.305c-.048-.705-.188-1.21-.424-1.516-.259-.259-.717-.388-1.375-.388h-2.645v4.725h-2.503zm2.504-6.841h2.927c.635 0 1.104-.129 1.41-.388s.459-.658.459-1.199c0-.54-.153-.939-.459-1.198-.282-.282-.705-.424-1.27-.424h-3.067v3.209zM343.053 116.285v-10.86c0-.353.124-.652.37-.899.247-.247.547-.37.899-.37h7.546v2.08h-6.347v2.609h4.725v.812c0 .353-.123.652-.37.898-.247.247-.547.371-.899.371h-3.455v3.103h6.347v2.257h-8.816zM356.806 112.512h2.468c.094.706.364 1.199.812 1.481.47.329 1.116.493 1.939.493.729 0 1.28-.129 1.657-.388.376-.258.564-.635.564-1.128 0-.752-1.059-1.363-3.174-1.834l-.07-.035-.282-.07c-1.199-.259-1.999-.529-2.398-.812-.47-.258-.799-.635-.987-1.128-.235-.423-.353-.964-.353-1.622 0-1.151.399-2.057 1.199-2.715.799-.635 1.963-.952 3.491-.952 1.434 0 2.538.329 3.314.987.799.729 1.222 1.681 1.27 2.856h-1.411c-.541 0-.929-.247-1.163-.741-.118-.234-.282-.435-.494-.6-.423-.305-.999-.458-1.728-.458-.705 0-1.211.13-1.517.388-.353.259-.528.623-.528 1.094 0 .635.682 1.104 2.045 1.41.399.118.693.188.882.212.423.141.793.252 1.11.335l.758.193.987.423c.471.282.835.647 1.094 1.094.258.493.388 1.034.388 1.622 0 1.27-.423 2.257-1.27 2.962-.846.658-2.045.987-3.597.987-1.599 0-2.798-.341-3.597-1.022-.869-.681-1.339-1.691-1.409-3.032zM371.686 116.285v-10.86c0-.353.124-.652.371-.899.246-.247.547-.37.898-.37h7.547v2.08h-6.348v2.609h4.725v.812c0 .353-.123.652-.369.898-.248.247-.547.371-.9.371h-3.455v3.103h6.348v2.257h-8.817zM385.439 116.285v-10.86c0-.353.123-.652.369-.899.248-.247.547-.37.9-.37h1.232v9.873h5.926v2.257h-8.427zM398.768 116.285v-10.86c0-.353.123-.652.371-.899.246-.247.547-.37.898-.37h1.234v9.873h5.924v2.257h-8.427zM412.096 116.285v-10.86c0-.353.125-.652.371-.899s.547-.37.898-.37h7.547v2.08h-6.348v2.609h4.725v.812c0 .353-.123.652-.369.898-.248.247-.547.371-.9.371h-3.455v3.103h6.348v2.257h-8.817zM425.85 116.285v-10.86c0-.353.123-.652.369-.899.248-.247.547-.37.9-.37h4.619c1.316 0 2.291.282 2.926.846.658.588.988 1.446.988 2.574 0 .753-.166 1.376-.494 1.869-.283.471-.729.812-1.34 1.022.541.188.916.471 1.129.847.211.353.34.952.387 1.798l.07 1.446v.458c0 .165.012.317.035.459.07.423.213.693.424.811h-2.75c-.119-.234-.189-.481-.213-.74-.047-.376-.07-.635-.07-.776l-.035-1.305c-.047-.705-.188-1.21-.422-1.516-.26-.259-.719-.388-1.375-.388h-2.646v4.725h-2.502zm2.502-6.841h2.928c.635 0 1.105-.129 1.41-.388s.459-.658.459-1.199c0-.54-.154-.939-.459-1.198-.281-.282-.705-.424-1.27-.424h-3.068v3.209z"/><path fill="#FAAF40" d="M449.439 112.512h2.467c.094.706.365 1.199.812 1.481.469.329 1.115.493 1.939.493.729 0 1.279-.129 1.656-.388.377-.258.564-.635.564-1.128 0-.752-1.059-1.363-3.174-1.834l-.07-.035-.281-.07c-1.199-.259-2-.529-2.398-.812-.471-.258-.799-.635-.988-1.128-.234-.423-.352-.964-.352-1.622 0-1.151.398-2.057 1.199-2.715.799-.635 1.963-.952 3.49-.952 1.434 0 2.539.329 3.314.987.799.729 1.223 1.681 1.27 2.856h-1.41c-.541 0-.93-.247-1.164-.741-.117-.234-.281-.435-.494-.6-.422-.305-.998-.458-1.727-.458-.705 0-1.211.13-1.518.388-.352.259-.527.623-.527 1.094 0 .635.682 1.104 2.045 1.41.398.118.693.188.881.212.424.141.793.252 1.111.335l.758.193.986.423c.471.282.836.647 1.094 1.094.258.493.389 1.034.389 1.622 0 1.27-.424 2.257-1.27 2.962-.846.658-2.045.987-3.598.987-1.598 0-2.797-.341-3.596-1.022-.868-.681-1.337-1.691-1.408-3.032zM464.318 116.285v-10.86c0-.353.125-.652.371-.899s.547-.37.898-.37h7.547v2.08h-6.348v2.609h4.725v.812c0 .353-.123.652-.369.898-.248.247-.547.371-.9.371h-3.455v3.103h6.348v2.257h-8.817zM478.072 116.285v-10.86c0-.353.123-.652.369-.899.248-.247.547-.37.9-.37h4.619c1.316 0 2.291.282 2.926.846.658.588.988 1.446.988 2.574 0 .753-.166 1.376-.494 1.869-.281.471-.729.812-1.34 1.022.541.188.916.471 1.129.847.211.353.34.952.387 1.798l.07 1.446v.458c0 .165.012.317.035.459.072.423.213.693.424.811h-2.75c-.117-.234-.189-.481-.211-.74-.049-.376-.072-.635-.072-.776l-.035-1.305c-.047-.705-.188-1.21-.422-1.516-.26-.259-.719-.388-1.375-.388h-2.646v4.725h-2.502zm2.502-6.841h2.928c.635 0 1.105-.129 1.41-.388.307-.259.459-.658.459-1.199 0-.54-.152-.939-.459-1.198-.281-.282-.705-.424-1.27-.424h-3.068v3.209zM497.289 116.285l-4.197-12.13h2.787l2.572 9.062 2.363-8.146c.141-.611.541-.917 1.199-.917h1.799l-4.127 12.13h-2.396zM508.854 116.285v-10.86c0-.353.123-.652.371-.899.246-.247.547-.37.898-.37h1.234v12.13h-2.503zM526.803 112.089c-.119 1.41-.646 2.516-1.588 3.314-.963.776-2.232 1.164-3.807 1.164-1.834 0-3.232-.552-4.197-1.657-.965-1.058-1.445-2.621-1.445-4.69 0-2.115.494-3.702 1.48-4.76 1.012-1.104 2.469-1.657 4.373-1.657 1.551 0 2.785.388 3.703 1.163.869.753 1.361 1.811 1.48 3.174h-1.516c-.564 0-.965-.247-1.199-.74-.166-.306-.365-.576-.6-.812-.471-.353-1.094-.528-1.869-.528-1.082 0-1.916.353-2.504 1.058-.564.705-.846 1.74-.846 3.103 0 1.317.281 2.328.846 3.033.541.729 1.352 1.093 2.434 1.093.752 0 1.375-.188 1.869-.564.445-.353.764-.916.951-1.692h2.435zM531.846 116.285v-10.86c0-.353.123-.652.369-.899.248-.247.547-.37.9-.37h7.545v2.08h-6.346v2.609h4.725v.812c0 .353-.123.652-.371.898-.246.247-.547.371-.898.371h-3.455v3.103h6.346v2.257h-8.815zM545.598 112.512h2.469c.092.706.363 1.199.811 1.481.469.329 1.115.493 1.939.493.729 0 1.281-.129 1.656-.388.377-.258.564-.635.564-1.128 0-.752-1.057-1.363-3.174-1.834l-.07-.035-.281-.07c-1.199-.259-1.998-.529-2.398-.812-.471-.258-.799-.635-.986-1.128-.236-.423-.354-.964-.354-1.622 0-1.151.4-2.057 1.199-2.715.799-.635 1.963-.952 3.49-.952 1.434 0 2.539.329 3.314.987.799.729 1.223 1.681 1.27 2.856h-1.41c-.541 0-.93-.247-1.164-.741-.117-.234-.281-.435-.492-.6-.424-.305-1-.458-1.729-.458-.705 0-1.211.13-1.516.388-.354.259-.529.623-.529 1.094 0 .635.682 1.104 2.045 1.41.398.118.693.188.881.212.424.141.793.252 1.111.335l.758.193.988.423c.469.282.834.647 1.092 1.094.26.493.389 1.034.389 1.622 0 1.27-.424 2.257-1.27 2.962-.846.658-2.045.987-3.598.987-1.598 0-2.797-.341-3.596-1.022-.87-.681-1.339-1.691-1.409-3.032z"/></svg>