<svg xmlns="http://www.w3.org/2000/svg" width="725.9" height="310.762" viewBox="0 0 725.9 310.762"><path fill="#676B73" d="M161.336 306.121h102.035c-12.633-6.974-21.575-42.76-22.207-58.552-.556-14.172 5.751-26.101 15.435-32.352h-88.508c9.702 6.251 16.01 18.18 15.436 32.352-.632 15.791-9.555 51.577-22.191 58.552z"/><path fill="#3A3D42" d="M161.336 299.628h102.035v6.493h-102.035v-6.493z"/><path fill="#81858F" d="M7.339 17.16c0-14.229 2.932-17.16 17.161-17.16h374.763c14.25 0 17.18 2.931 17.18 17.16v216.146c0 14.23-2.93 17.161-17.18 17.161l-374.763-.001c-14.229 0-17.16-2.93-17.16-17.161v-216.145z"/><path fill="#E6E7EB" d="M26.82 19.479h371.052v213.362h-371.052v-213.362z"/><circle fill="#3A3D42" cx="211.89" cy="241.653" r="5.102"/><path fill="#ACB1BF" d="M37.022 40.35c0-7.254 3.414-10.667 10.667-10.667h73.279c7.254 0 10.667 3.413 10.667 10.667v171.621c0 7.236-3.413 10.668-10.667 10.668h-73.279c-7.253 0-10.667-3.431-10.667-10.668v-171.621z"/><path fill="#CED1D9" d="M140.912 40.35c0-7.254 3.432-10.667 10.685-10.667h225.404c7.254 0 10.666 3.413 10.666 10.668v50.089c0 7.254-3.412 10.667-10.666 10.667h-225.404c-7.253 0-10.685-3.412-10.685-10.667v-50.09zm0 80.701c0-7.255 3.432-10.668 10.685-10.668h225.404c7.254 0 10.666 3.413 10.666 10.668v89.993c0 7.236-3.412 10.667-10.666 10.667h-225.404c-7.253 0-10.685-3.431-10.685-10.667v-89.993z"/><path fill="#81858F" d="M446.411 63.539c0-14.229 2.932-17.16 17.162-17.16h132.662c14.229 0 17.16 2.931 17.16 17.16v179.043c0 14.229-2.932 17.16-17.16 17.16h-132.662c-14.23 0-17.162-2.929-17.162-17.16v-179.043z"/><path fill="#E6E7EB" d="M464.962 64.931h129.883v177.187h-129.883v-177.187z"/><path fill="#3A3D42" d="M524.349 250.003c0-2.82 2.281-5.102 5.102-5.102 2.799 0 5.102 2.282 5.102 5.102 0 2.821-2.303 5.101-5.102 5.101-2.821 0-5.102-2.285-5.102-5.101z"/><path fill="#ACB1BF" d="M464.962 64.931h31.539v177.187h-31.539v-177.187z"/><path fill="#CED1D9" d="M502.993 77.454c0-5.583 1.373-6.957 6.977-6.957h71.424c5.584 0 6.957 1.374 6.957 6.957v28.755c0 5.603-1.373 6.957-6.957 6.957h-71.422c-5.605 0-6.979-1.354-6.979-6.957v-28.755zm0 49.477c0-5.306 1.041-6.344 6.348-6.344h71.738c5.305 0 6.346 1.038 6.346 6.344v102.35c0 5.305-1.041 6.344-6.346 6.344h-71.74c-5.303 0-6.346-1.04-6.346-6.344v-102.35z"/><path fill="#81858F" d="M644.354 98.341c0-14.247 2.932-17.177 17.16-17.177h39.885c14.23 0 17.162 2.93 17.162 17.177v109.454c0 14.232-2.93 17.162-17.162 17.162h-39.885c-14.229 0-17.16-2.93-17.16-17.162v-109.454z"/><circle fill="#3A3D42" cx="681.919" cy="215.218" r="5.103"/><path fill="#E6E7EB" d="M653.63 99.733h55.656v106.673h-55.656v-106.673z"/><path fill="#CED1D9" d="M658.267 117.655c0-1.706 1.391-3.081 3.1-3.081h40.203c1.873 0 3.078 1.208 3.078 3.081v19.794c0 1.875-1.205 3.099-3.078 3.099h-40.203c-1.709 0-3.1-1.393-3.1-3.099v-19.794zm0 30.925c0-1.836 1.561-3.396 3.396-3.396h40.518c2.021 0 3.395 1.374 3.395 3.396v47.938c0 2.004-1.373 3.395-3.395 3.395h-40.518c-1.836 0-3.396-1.557-3.396-3.395v-47.938z"/><path fill="#ACB1BF" d="M653.63 99.733h55.656v10.203h-55.656v-10.203z"/></svg>