<svg xmlns="http://www.w3.org/2000/svg" width="725.9" height="460.352" viewBox="0 0 725.9 460.352"><path fill="#676B73" d="M224.303 436.193h143.878c-17.814-9.834-30.423-60.295-31.313-82.562-.784-19.984 8.11-36.805 21.764-45.619h-124.804c13.681 8.814 22.575 25.635 21.766 45.619-.892 22.265-13.474 72.727-31.291 82.562z"/><path fill="#3A3D42" d="M224.303 427.037h143.878v9.156h-143.878v-9.156z"/><path fill="#81858F" d="M7.155 28.735c0-20.064 4.134-24.197 24.197-24.197h528.446c20.094 0 24.225 4.133 24.225 24.197v304.782c0 20.068-4.131 24.2-24.225 24.2l-528.446-.002c-20.064 0-24.197-4.13-24.197-24.2v-304.78z"/><path fill="#E6E7EB" d="M34.624 32.005h523.213v300.859h-523.213v-300.859z"/><circle fill="#3A3D42" cx="295.588" cy="345.289" r="7.194"/><path fill="#ACB1BF" d="M49.01 61.434c0-10.229 4.813-15.042 15.042-15.042h103.329c10.229 0 15.042 4.813 15.042 15.042v241.999c0 10.205-4.812 15.044-15.042 15.044h-103.329c-10.228 0-15.042-4.839-15.042-15.044v-241.999z"/><path fill="#CED1D9" d="M195.503 61.434c0-10.229 4.84-15.042 15.067-15.042h317.837c10.229 0 15.041 4.813 15.041 15.043v70.63c0 10.229-4.812 15.042-15.041 15.042h-317.837c-10.227 0-15.067-4.812-15.067-15.042v-70.631zm0 113.795c0-10.229 4.84-15.042 15.067-15.042h317.837c10.229 0 15.041 4.813 15.041 15.042v126.898c0 10.203-4.812 15.042-15.041 15.042h-317.837c-10.227 0-15.067-4.839-15.067-15.042v-126.898z"/><path fill="#81858F" d="M483.282 155.608c0-20.064 4.133-24.198 24.199-24.198h187.066c20.064 0 24.197 4.133 24.197 24.198v252.464c0 20.066-4.133 24.198-24.197 24.198h-187.066c-20.064 0-24.199-4.13-24.199-24.198v-252.464z"/><path fill="#E6E7EB" d="M509.44 157.57h183.146v249.847h-183.146v-249.847z"/><path fill="#3A3D42" d="M593.181 418.536c0-3.976 3.215-7.193 7.193-7.193 3.947 0 7.193 3.218 7.193 7.193 0 3.979-3.246 7.193-7.193 7.193-3.978 0-7.193-3.221-7.193-7.193z"/><path fill="#ACB1BF" d="M509.44 157.57h44.473v249.847h-44.473v-249.847z"/><path fill="#CED1D9" d="M563.067 175.229c0-7.873 1.938-9.81 9.838-9.81h100.713c7.873 0 9.811 1.937 9.811 9.81v40.547c0 7.9-1.938 9.809-9.811 9.809h-100.711c-7.902 0-9.84-1.91-9.84-9.809v-40.547zm0 69.766c0-7.482 1.469-8.945 8.951-8.945h101.156c7.48 0 8.949 1.463 8.949 8.945v144.322c0 7.479-1.469 8.945-8.949 8.945h-101.157c-7.48 0-8.951-1.467-8.951-8.945v-144.322h.001z"/><path fill="#81858F" d="M421.808 277.274c0-20.09 4.133-24.222 24.197-24.222h56.242c20.066 0 24.199 4.132 24.199 24.222v154.34c0 20.069-4.131 24.199-24.199 24.199h-56.242c-20.064 0-24.197-4.13-24.197-24.199v-154.34z"/><circle fill="#3A3D42" cx="474.778" cy="442.079" r="7.194"/><path fill="#E6E7EB" d="M434.888 279.237h78.48v150.417h-78.48v-150.417z"/><path fill="#CED1D9" d="M441.427 304.508c0-2.407 1.961-4.344 4.371-4.344h56.688c2.641 0 4.34 1.702 4.34 4.344v27.911c0 2.644-1.699 4.369-4.34 4.369h-56.688c-2.41 0-4.371-1.963-4.371-4.369v-27.911zm0 43.606c0-2.589 2.199-4.787 4.789-4.787h57.133c2.85 0 4.787 1.937 4.787 4.787v67.598c0 2.824-1.938 4.785-4.787 4.785h-57.133c-2.59 0-4.789-2.194-4.789-4.785v-67.598z"/><path fill="#ACB1BF" d="M434.888 279.237h78.479v14.387h-78.479v-14.387z"/><path fill="#676B73" d="M483.282 242.589h26.158v10.465h-26.158v-10.465zm74.553-121.641h26.188v10.462h-26.188v-10.462zm-146.492 211.916h10.465v24.85h-10.465v-24.85z"/></svg>