<?xml version="1.0" encoding="utf-8"?>
<!-- Generator: Adobe Illustrator 16.0.4, SVG Export Plug-In . SVG Version: 6.00 Build 0)  -->
<!DOCTYPE svg PUBLIC "-//W3C//DTD SVG 1.1//EN" "http://www.w3.org/Graphics/SVG/1.1/DTD/svg11.dtd">
<svg version="1.1" id="Layer_1" xmlns="http://www.w3.org/2000/svg" xmlns:xlink="http://www.w3.org/1999/xlink" x="0px" y="0px"
	 width="278.021px" height="175.01px" viewBox="0 0 278.021 175.01" enable-background="new 0 0 278.021 175.01"
	 xml:space="preserve">
<path fill="#676B73" d="M83.01,165.01h55c-6.81-3.76-11.63-23.05-11.97-31.561c-0.3-7.64,3.101-14.069,8.319-17.439H86.65
	c5.229,3.37,8.63,9.8,8.32,17.439C94.63,141.96,89.82,161.25,83.01,165.01z"/>
<rect x="83.01" y="161.51" fill="#3A3D42" width="55" height="3.5"/>
<path fill="#81858F" d="M0,9.25C0,1.58,1.58,0,9.25,0h202.01c7.681,0,9.261,1.58,9.261,9.25v116.51c0,7.671-1.58,9.25-9.261,9.25
	H9.25c-7.67,0-9.25-1.579-9.25-9.25V9.25z"/>
<rect x="10.5" y="10.5" fill="#E6E7EB" width="200.01" height="115.01"/>
<circle fill="#3A3D42" cx="110.26" cy="130.26" r="2.75"/>
<path fill="#ACB1BF" d="M16,21.75c0-3.91,1.84-5.75,5.75-5.75h39.5c3.91,0,5.75,1.84,5.75,5.75v92.51c0,3.9-1.84,5.75-5.75,5.75
	h-39.5c-3.91,0-5.75-1.85-5.75-5.75V21.75z"/>
<path fill="#CED1D9" d="M72,21.75C72,17.84,73.85,16,77.76,16h121.5c3.91,0,5.75,1.84,5.75,5.75v27c0,3.91-1.84,5.75-5.75,5.75
	H77.76c-3.909,0-5.76-1.84-5.76-5.75V21.75z"/>
<path fill="#CED1D9" d="M72,65.25c0-3.91,1.851-5.75,5.76-5.75h121.5c3.91,0,5.75,1.84,5.75,5.75v48.51c0,3.9-1.84,5.75-5.75,5.75
	H77.76c-3.909,0-5.76-1.85-5.76-5.75V65.25z"/>
<path fill="#81858F" d="M182.01,57.75c0-7.67,1.58-9.25,9.25-9.25h71.511c7.67,0,9.25,1.58,9.25,9.25v96.51
	c0,7.671-1.58,9.25-9.25,9.25H191.26c-7.67,0-9.25-1.579-9.25-9.25V57.75L182.01,57.75z"/>
<rect x="192.01" y="58.5" fill="#E6E7EB" width="70.011" height="95.51"/>
<path fill="#3A3D42" d="M224.02,158.26c0-1.52,1.229-2.75,2.75-2.75c1.51,0,2.75,1.23,2.75,2.75c0,1.521-1.24,2.75-2.75,2.75
	C225.25,161.01,224.02,159.778,224.02,158.26z"/>
<polygon fill="#ACB1BF" points="192.01,58.5 209.01,58.5 209.01,153.84 209.01,154.01 192.01,154.01 192.01,153.84 "/>
<path fill="#CED1D9" d="M212.51,65.25c0-3.01,0.74-3.75,3.761-3.75h38.5c3.01,0,3.75,0.74,3.75,3.75v15.5
	c0,3.02-0.74,3.75-3.75,3.75h-38.5c-3.021,0-3.761-0.73-3.761-3.75V65.25z"/>
<path fill="#CED1D9" d="M212.51,91.92c0-2.86,0.562-3.42,3.421-3.42h38.67c2.859,0,3.42,0.56,3.42,3.42v55.17
	c0,2.859-0.561,3.42-3.42,3.42h-38.67c-2.859,0-3.421-0.561-3.421-3.42V91.92z"/>
<path fill="#81858F" d="M158.51,104.26c0-7.68,1.58-9.26,9.25-9.26h21.5c7.671,0,9.25,1.58,9.25,9.26v59
	c0,7.671-1.579,9.25-9.25,9.25h-21.5c-7.67,0-9.25-1.579-9.25-9.25V104.26z"/>
<circle fill="#3A3D42" cx="178.76" cy="167.26" r="2.75"/>
<rect x="163.51" y="105.01" fill="#E6E7EB" width="30" height="57.5"/>
<path fill="#CED1D9" d="M166.01,114.67c0-0.92,0.75-1.66,1.671-1.66h21.67c1.01,0,1.659,0.65,1.659,1.66v10.67
	c0,1.011-0.649,1.67-1.659,1.67h-21.67c-0.921,0-1.671-0.75-1.671-1.67V114.67z"/>
<path fill="#CED1D9" d="M166.01,131.34c0-0.989,0.841-1.83,1.83-1.83h21.841c1.09,0,1.829,0.74,1.829,1.83v25.841
	c0,1.079-0.739,1.829-1.829,1.829H167.84c-0.989,0-1.83-0.84-1.83-1.829V131.34z"/>
<polygon fill="#ACB1BF" points="163.51,105.01 193.35,105.01 193.51,105.01 193.51,110.17 193.51,110.51 163.51,110.51 
	163.51,110.17 "/>
<rect x="182.01" y="91" fill="#676B73" width="10" height="4"/>
<rect x="210.51" y="44.5" fill="#676B73" width="10.011" height="4"/>
<rect x="154.51" y="125.51" fill="#676B73" width="4" height="9.5"/>
</svg>
