<svg xmlns="http://www.w3.org/2000/svg" width="14" height="14" viewBox="13.25 13.75 14 14" enable-background="new 13.25 13.75 14 14"><path fill="#FF4948" d="M16.959 20.092c0 .444.089.869.249 1.256l-3.093-1.816.283-.264 5.202-4.856c.372-.326.928-.326 1.3 0l5.201 4.856.283.264-3.093 1.816c.161-.387.249-.812.249-1.256 0-1.818-1.474-3.292-3.29-3.292-1.817 0-3.291 1.474-3.291 3.292"/><path fill="#f66" d="M13.767 19.985c-.063.145-.099.303-.099.465v5.895c0 .207.063.398.173.557l5.849-3.437-.364-.214-1.381-.812-4.178-2.454zm12.966 0l-4.178 2.454-1.381.812-.364.214-.56.33-5.927 3.481c.104.037.216.057.331.057h11.189c.116 0 .227-.02.331-.057.198-.07.367-.203.483-.374.108-.159.173-.35.173-.557v-5.895c.002-.162-.033-.32-.097-.465"/><path fill="#FF4948" d="M18.934 20.586c0 .727.589 1.316 1.317 1.316.727 0 1.315-.589 1.315-1.316h-2.632zm.083-.987c-.137 0-.247.11-.247.246s.11.248.247.248c.136 0 .247-.111.247-.248 0-.136-.112-.246-.247-.246m2.467 0c-.136 0-.246.11-.246.246s.11.248.246.248.247-.111.247-.248c0-.136-.111-.246-.247-.246m5.249.386l-4.178 2.454-1.381.812-.364.214-.56.33 5.594 3.538c.116 0 .227-.02.331-.057.198-.07.367-.203.483-.374.108-.159.173-.35.173-.557v-5.895c.001-.162-.034-.32-.098-.465"/></svg>