<svg xmlns="http://www.w3.org/2000/svg" width="1460" height="1097" viewBox="0 0 1460 1097"><path fill="#ECF0F1" d="M375.207 1029.617c0 2.762 2.239 5 5 5h1014.325c2.762 0 5-2.238 5-5v-743.929c0-2.761-2.238-5-5-5h-1014.325c-2.761 0-5 2.239-5 5v743.929z"/><path fill="#21262E" d="M375.207 366.013h1024.325v638.167h-1024.325z"/><path fill="#13161B" d="M375.207 366.013h1024.325v81.944h-1024.325z"/><path fill="#B6B7BB" d="M495.431 568.713h629.494v19.992h-629.494zM495.431 527.909h561.979v19.992h-561.979zM495.434 611.213h738.788v19.992h-738.788zM495.431 650.463h396.813v19.992h-396.813zM495.428 691.91h561.979v15.99h-561.979zM495.434 729.139h824.771v18.039h-824.771zM495.434 768.549h706.729v19.992h-706.729zM495.434 808.135h759.189v19.992h-759.189zM495.438 847.386h789.062v19.99h-789.062zM495.431 881.346h607.638v19.992h-607.638z"/><path fill="#ECF0F1" d="M60.468 811.312c0 2.762 2.239 5 5 5h1014.325c2.762 0 5-2.238 5-5v-743.929c0-2.761-2.238-5-5-5h-1014.325c-2.761 0-5 2.239-5 5v743.929z"/><path fill="#21262E" d="M60.468 147.708h1024.325v638.17h-1024.325z"/><path fill="#13161B" d="M60.468 147.708h1024.325v81.944h-1024.325z"/><path fill="#FAB814" d="M149.645 105.516c0 6.193-5.024 11.214-11.221 11.214-6.193 0-11.217-5.021-11.217-11.214 0-6.199 5.023-11.22 11.217-11.22 6.196-.001 11.221 5.02 11.221 11.22z"/><path fill="#FF5848" d="M118.748 105.516c0 6.193-5.023 11.214-11.217 11.214-6.194 0-11.218-5.021-11.218-11.214 0-6.199 5.024-11.22 11.218-11.22s11.217 5.02 11.217 11.22z"/><path fill="#12CB35" d="M180.537 105.516c0 6.193-5.023 11.214-11.22 11.214-6.193 0-11.217-5.021-11.217-11.214 0-6.199 5.023-11.22 11.217-11.22 6.197-.001 11.22 5.02 11.22 11.22z"/><g fill="#B6B7BB"><path d="M160.938 266.192h134.824v19.992h-134.824zM180.691 350.408h629.494v19.992h-629.494zM180.691 309.604h561.976v19.992h-561.976zM180.694 392.908h738.791v19.992h-738.791zM180.691 432.158h396.813v19.992h-396.813zM180.688 473.605h561.979v15.987h-561.979zM180.694 510.834h824.768v18.04h-824.768zM180.694 550.244h706.728v19.992h-706.728zM180.694 589.83h759.189v19.992h-759.189zM180.697 629.081h789.061v19.99h-789.061zM180.691 663.041h607.635v19.992h-607.635z"/></g></svg>