<svg xmlns="http://www.w3.org/2000/svg" width="740" height="506" viewBox="-7.5 -38 740 506" enable-background="new -7.5 -38 740 506"><linearGradient id="a" gradientUnits="userSpaceOnUse" x1="356.566" y1="323.104" x2="356.566" y2="-151.955" gradientTransform="matrix(.974 -.228 .369 1.573 -22.101 165.644)"><stop offset="0" stop-color="#7144DD"/><stop offset="1" stop-color="#6cf"/></linearGradient><path fill="url(#a)" d="M869.596 492.682l-850.778 199.488-175.197-747.179 850.777-199.489z"/><path fill="#ECF0F1" d="M218.571 422.177c0 1.117.907 2.024 2.029 2.024h411.479c1.122 0 2.03-.907 2.03-2.024v-301.791c0-1.12-.908-2.028-2.03-2.028h-411.479c-1.12 0-2.028.908-2.028 2.028l-.001 301.791z"/><path fill="#21262E" d="M218.571 152.971h415.539v258.887h-415.539v-258.887z"/><path fill="#13161B" d="M218.571 152.971h415.539v33.242h-415.539v-33.242z"/><path fill="#B6B7BB" d="M267.342 235.201h255.368v8.11h-255.368v-8.11zm0-16.553h227.978v8.111h-227.978v-8.111zm.001 33.793h299.703v8.111h-299.703v-8.111zm-.001 15.923h160.976v8.11h-160.976v-8.11zm-.001 16.814h227.979v6.488h-227.979v-6.488zm.002 15.102h334.586v7.318h-334.586v-7.318zm0 15.988h286.699v8.11h-286.699v-8.11zm0 16.059h307.979v8.109h-307.979v-8.109zm.001 15.921h320.1v8.111h-320.1v-8.111zm-.002 13.777h246.501v8.11h-246.501v-8.11z"/><path fill="#ECF0F1" d="M90.891 333.616c0 1.12.908 2.027 2.027 2.027h411.482c1.121 0 2.029-.907 2.029-2.027v-301.789c0-1.122-.908-2.028-2.029-2.028h-411.481c-1.12 0-2.028.908-2.028 2.028v301.789z"/><path fill="#21262E" d="M90.891 64.412h415.539v258.885h-415.539v-258.885z"/><path fill="#13161B" d="M90.891 64.412h415.539v33.242h-415.539v-33.242z"/><path fill="#FAB814" d="M127.068 47.296c0 2.511-2.039 4.549-4.552 4.549-2.512 0-4.55-2.038-4.55-4.549 0-2.515 2.037-4.552 4.55-4.552s4.552 2.037 4.552 4.552z"/><path fill="#FF5848" d="M114.534 47.296c0 2.511-2.039 4.549-4.551 4.549-2.514 0-4.55-2.038-4.55-4.549 0-2.515 2.036-4.552 4.55-4.552 2.513 0 4.551 2.037 4.551 4.552z"/><path fill="#12CB35" d="M139.6 47.296c0 2.511-2.038 4.549-4.551 4.549-2.513 0-4.55-2.038-4.55-4.549 0-2.515 2.037-4.552 4.55-4.552s4.551 2.037 4.551 4.552z"/><path fill="#B6B7BB" d="M131.648 112.477h54.693v8.11h-54.693v-8.11zm8.014 34.165h255.365v8.11h-255.365v-8.11zm0-16.554h227.977v8.111h-227.977v-8.111zm.001 33.794h299.705v8.11h-299.705v-8.11zm-.001 15.922h160.976v8.111h-160.976v-8.111zm-.001 16.814h227.978v6.485h-227.978v-6.485zm.002 15.103h334.585v7.319h-334.585v-7.319zm0 15.987h286.697v8.11h-286.697v-8.11zm0 16.06h307.981v8.11h-307.981v-8.11zm.001 15.922h320.098v8.109h-320.098v-8.109zm-.002 13.777h246.5v8.111h-246.5v-8.111z"/><path opacity=".5" fill="#21262E" d="M-58.5-100h842v86h-842z"/></svg>