<svg xmlns="http://www.w3.org/2000/svg" width="740" height="124.25" viewBox="0 0 740 124.25"><circle fill="#fff" cx="246.385" cy="38.269" r="1.45"/><circle fill="#fff" cx="240.151" cy="36.817" r="1.45"/><path fill-rule="evenodd" clip-rule="evenodd" fill="#F16539" d="M495.777 57.875c.051 2.147.002 2.905.002 2.905-.039 5.839-3.314 8.64-6.198 10.999-3.114 2.526-6.226 4.431-9.246 5.965-.187.035-.963.775-1.95 2.645-1.005 1.794-2.576 4.371-4.689 6.925-2.261 2.785-6.006 4.638-9.558 4.588-3.192-.011-5.253-.862-7.739-2.68-.101.685-.147 2.202.123 3.409.252.289 2.452 2.463 2.197 5.772-.083 1.089-.811 4.396-4.881 5.465-6.979 1.73-12.009.15-13.576-.704-1.69.828-4.162 2.098-9.379 1.586-3.098-.306-6.396-2.151-7.609-3.875-4.477 4.35-9.638 3.785-12.971 3.856.048.441.068.879.072 1.327-.127 8.286-4.766 12.19-8.657 13.697-3.695 1.43-9.433 1.581-15.482-.155-4.744-1.363-8.424-3.187-11.943-4.907-.722-.361-1.391-.651-1.994-.881-1.065 1.408-3.6 5.957-10.132 8.617-4.379 1.801-10.772 1.907-15.225.223-2.432-.911-5.002-2.723-6.603-5.616-2.65-4.739-1.668-9.823-.115-13.131-1.607-.058-5.354-.709-7.551-3.416-.789.983-3.424 4.195-9.127 4.375.255 2.75 1.476 6.973-.816 9.344-1.099 1.169-2.137 1.846-3.064 2.269-2.688 1.154-9.263 3.154-12.676 1.612-2.125-.932-4.175-3.01-4.299-7.923.017-2.47.427-5 .837-8.15.652-4.836 1.102-13.327 1.233-20.187-2.177.773-4.031 1.688-7.634 1.636-2.072-.037-4.642-.747-6.195-3.142-2.091-3.328-1.246-8.226-1.16-8.99-4.264-.064-7.658-3.078-8.488-3.899-.918 1.83-2.988 4.119-6.237 4.042-3.903-.058-5.922-2.151-6.254-2.466-2.176 1.043-5.896 2.085-9.955 2.111-3.994.024-8.316-.934-11.818-3.845-7.871-6.434-6.918-17.743-6.918-18.229 0-.485.081-9.018 6.003-15.318 4.184-4.473 8.805-6.031 12.984-6.088 4.521-.061 8.479 1.594 10.618 3.042 1.214-.878 3.423-1.964 7.979-1.815 6.229.203 8.178 1.823 9.167 3.858 8.919-6.608 19.03-7.453 21.18-4.014 1.676-.837 8.871-2.787 13.648 2.221 2.893-1.273 6.68-1.145 8.309-.782.911-1.894 2.144-3.925 3.833-5.913 2.608-3.083 5.884-5.065 9.525-5.083 6.958-.05 8.902 4.676 9.017 8.405 1.915.069 4.355.46 6.724 1.328 2.168.795 4.236 2.125 5.148 2.991 1.12-.808 4.784-4.089 11.755-4.089 3.936 0 7.922.957 10.833 3.34 5.831-4.455 14.985-3.323 19.345-.888 4.051 2.218 5.479 5.397 5.619 8.397.277 5.876-3.019 8.269-3.586 8.83 3.109 2.766 4.465 5.799 4.71 8.701.244 2.884-.716 5.532-1.815 7.344.256.091.499.191.728.298 2.288-1.418 7.559-2.098 12.036 1.431.745-.494 1.542-.835 2.369-1.227 3.029-1.42 6.432-1.632 8.123-1.632 3.312-.006 4.342 1.233 4.92 1.686l.479-.207c-.631-.496-1.898-1.955-2.075-3.537-2.345-1.125-4.279-2.407-5.489-4.097-1.641-2.474-.779-4.645-.332-5.64-.865-.823-1.761-1.792-2.576-2.974-2.646-3.911-2.63-8.072-.624-10.439 2.062-2.589 6.354-1.734 11.011 1.289 2.971 1.929 7.941 4.611 13.338 6.077 3.837 1.038 5.789 1.138 7.594 1.422-.694-1.75-1.283-3.126.186-5.438-1.258-1.344-1.83-3.992-.72-6.409-3.415-3.187-3.996-5.339-4.079-7.636.006-2.003 1.033-3.228 1.033-3.228s-2.271-2.147-2.328-5.73c0-1.582.797-5.272 4.869-6.347-.401-4.067-.414-10.751 5.797-10.775 4.694-.103 6.186 5.002 6.565 6.07 2.631 7.541 7.313 15.498 11.162 19.814 2.497 2.915 4.954 5.681 6.163 9.273 1.022 3.396.403 6.089.268 7.327 1.318-.339 4.256-.493 6.202 2.143 1.591 2.102 3.735 5.07 4.174 8.012.116 1.492.382 3.816-4.115 4.835z"/><path fill-rule="evenodd" clip-rule="evenodd" fill="#fff" d="M267.485 51.283c1.676-1.308 2.778-3.454 3.279-5.779 2.15-9.973-5.555-12.48-9.236-12.92-7.794-.931-15.398 5.521-16.104 16.667-.907 14.317 9.495 16.793 14.505 16.592 5.011-.2 10.708-2.074 11.103-6.623.395-4.549-4.889-4.683-5.612-3.947-.724.736-.934 4.282-5.547 4.282l-4.565-6.757s7.701 1.976 12.177-1.515zm-12.369-2.099s.258-8.965 5.936-9.232c2.824-.133 1.938 4.157-.237 6.486-2.198 2.353-5.699 2.746-5.699 2.746zm50.004 12.913s7.621 6.823 13.169-3.546c5.548-10.37 5.801-25.346-4.345-25.892-6.217-.334-8.089 6.088-8.089 6.088s1.194-7.166-3.477-6.624c-2.457.285-3.886.783-4.66 1.537-.815-.121-1.916-.003-3.428.47-1.367.427-5.336 2.344-10.657 8.323-.401-4.731.487-7.604-2.509-8.235-3.761-.793-8.869-1.822-8.771 2.994.073 3.554.53 8.924 3.919 15.174-4.016 6.417-5.923 11.737-2.907 13.188 3.476 1.672 3.744-.066 5.081-3.88.376-1.074.926-2.301 1.63-3.616.333.417.664.835 1.026 1.257 7.068 8.235 9.882 7.395 12.521 5.364 2.204-1.698-.25-3.729-2.021-5.298-1.745-1.546-4.189-4.039-6.067-8.929 1.096-1.206 2.303-2.422 3.673-3.63 3.234-2.85 6.016-3.939 7.935-4.772.012 7.417-.464 18.744-1.316 25.11-1.136 8.497-1.872 12.177 3.811 10.705s7.287-1.74 6.685-4.416l-1.203-11.372zm1.872-16.793c2.238-6.311 7.184-8.011 5.147 3.278-1.738 9.634-6.885 9.567-6.885 9.567s-.468-6.623 1.738-12.845zm19.365 19.669c5.738 1.158 9.211-1.07 8.409-1.94-.802-.869-2.212-6.221-1.544-12.309.668-6.088 1.736-11.012 6.526-15.074 4.631-3.927 6.997-1.811 7.955-6.269 1.03-4.785-4.408-8.167-9.582-2.074-5.255 6.188-5.125 12.849-5.793 12.849s1.064-5.922-5.014-5.356c-3.746.349-4.869 1.198-4.869 2.134s1.527 1.356 1.661 9.317c.133 7.962-2.565 17.75 2.251 18.722zm11.031-16.16c-1.474 14.286 8.826 17.005 13.844 16.923 5.017-.082 10.787-1.811 11.361-6.348.575-4.537-4.701-4.795-5.454-4.077s-.747 4.257-5.358 4.148c-4.611-.109-4.831-6.691-4.831-6.691s7.62 1.98 12.233-1.403c4.197-3.078 5.187-8.053 4.187-12.19-1.284-5.312-6.441-6.237-9.223-6.638-7.754-1.114-15.612 5.154-16.759 16.276zm15.813-8.924c2.829-.066 1.772 4.2-.494 6.476-2.29 2.3-5.806 2.61-5.806 2.61s.613-8.953 6.3-9.086zm38.646 9.469c7.321 4.527 5.972 8.584 1.29 7.415-3.57-.892-3.032-3.087-4.329-2.54-1.468.62-4.134 8.562 3.046 10.751 2.395.73 7.628.762 11.078-.71 3.535-1.507 5.646-4.768 5.246-7.681-.774-5.638-5.525-7.408-9.16-9.44-2.696-1.507-5.48-2.876-5.524-4.851-.061-2.722 1.612-3.434 2.988-3.363 2.122.109 2.675 2.099 2.651 2.839-.078 2.425-2.472 2.165-1.332 3.474.789.908 10.027-.234 9.371-6.687-.378-3.716-5.189-5.9-10.407-5.6-4.872.281-9.658 2.746-9.845 8.223-.139 4.087 2.822 6.869 4.927 8.17zm-21.2 7.406c-3.526-.876-2.943-3.054-4.275-2.495-1.509.632-4.697 8.738 2.338 10.971 2.347.745 7.579.778 11.125-.724 3.635-1.538 5.96-4.866 5.751-7.839-.403-5.753-5.038-7.56-8.54-9.634-2.598-1.539-5.291-2.936-5.205-4.951.119-2.778 1.838-3.505 3.209-3.433 2.115.111 2.537 2.142 2.465 2.897-.236 2.476-2.661 2.314-1.561 3.546.782.877 10.043-.238 9.811-6.824-.133-3.792-4.802-6.021-10.039-5.715-4.891.286-9.838 2.802-10.384 8.391-.408 4.173 2.371 7.011 4.389 8.339 7.024 4.622 5.348 8.573.916 7.471zm-43.546 11.193c-6.217-.335-8.089 6.088-8.089 6.088s1.195-7.165-3.476-6.623c-4.613.535-5.63 1.812-5.415 4.147.468 5.085 0 22.413-1.136 30.909-1.136 8.497-1.872 12.177 3.811 10.705s7.287-1.74 6.685-4.416c-.602-2.676-1.204-11.373-1.204-11.373s7.621 6.824 13.169-3.546c5.549-10.369 5.801-25.345-4.345-25.891zm-1.805 15.923c-1.738 9.634-6.886 9.567-6.886 9.567s-.468-6.624 1.738-12.846c2.238-6.311 7.185-8.011 5.148 3.279zm22.125 13.103c.017-.972-2.709-1.959-1.945-10.931.765-8.973 3.324-19.1-1.896-18.691-3.825.299-8.278 1.569-7.617 3.14.528 1.254 1.549 3.215 1.208 9.72-.478 9.121-3.527 17.507 2.68 18.312 4.729.613 7.553-.577 7.57-1.55zm57.101 6.366c-1.986-.076-2.214 3-10.925 2.982-3.494-.008-9.43-.563-17.42-3.212-2.835-.939-5.653-1.452-5.653-1.452s.688-12.005 1.452-18.581c.759-6.533 2.593-11.345-2.063-11.087-1.375.077-2.903.536-3.285.077-.535-.643-1.901-5.303-8.382-4.045-2.363.459-9.688 2.26-10.572 14.974-.704 10.128 2.737 15.073 7.443 15.017 5.25-.062 8.073-3.925 8.073-3.925l-.076 5.888s-18.388-2.021-18.871 9.787c-.297 7.264 6.035 8.981 10.543 8.869 3.996-.1 7.334-1.146 10.696-4.894 2.863-3.19 3.896-6.423 3.896-6.423s2.916.231 6.997 2.278c5.545 2.781 12.964 6.288 19.361 6.057 10.543-.383 10.773-12.234 8.786-12.31zm-48.437 9.557c-4.813.306-4.178-5.003-1.375-6.575 3.132-1.76 7.487-.612 7.487-.612s-1.195 6.875-6.112 7.187zm6.04-25.334c-2.708 7.428-7.593 5.174-5.76-3.161 1.746-7.934 6.866-7.824 6.866-7.824s.741 5.919-1.106 10.985zm33.272-1.528c1.775-1.199 3.198-3.46 3.628-5.808 1.844-10.069-5.461-12.435-9.139-12.843-7.787-.864-15.439 5.653-16.229 16.806-1.015 14.327 9.367 16.867 14.38 16.623 5.012-.243 10.696-2.245 11.126-6.798.43-4.554-4.93-4.565-5.658-3.823s-.891 4.29-5.502 4.329c-4.613.039-4.719-6.868-4.719-6.868s6.999 1.835 12.113-1.618zm-6.043-11.278c2.825-.157 1.906 4.142-.286 6.489-2.215 2.373-5.718 2.796-5.718 2.796s.326-8.969 6.004-9.285zm62.001 9.315c1.229-13.584-1.551-18.059-8.408-16.21-3.973 1.07-5.115 3.899-5.572 3.517-.459-.382.916-4.435-2.98-4.129-4.884.384-7.869 1.912-8.327 3.059-.342.854.845 1.755 1.249 6.944-.357.213-.729.423-1.104.608-.27.134-.535.248-.797.354-.658-5.281-3.223-10.461-8.059-10.659-3.743-.152-4.049 2.294-4.966 2.218s-2.216-3.211-5.729-1.224c-3.897 2.205-6.266 7.569-6.647 15.445s2.751 15.521 12.301 15.521c9.168 0 12.071-9.175 13.063-15.598.1-.643.156-1.323.188-2.019.468-.271.987-.602 1.49-.99l.388-.318c.006 1.083-.017 2.285-.079 3.633-.354 7.656-2.439 14.538 4.203 15.062 5.807.459 7.033-.798 7.258-1.529.306-.994-2.795 1.002-2.521-11.928.202-9.551.297-12.281 3.82-11.239 3.643 1.076 2.907 7.187 2.449 13.381-.459 6.192-1.223 10.569 2.98 11.104 4.201.535 7.866-.502 7.904-1.605.047-1.334-3.416 1.115-2.104-13.398zm-39.498 9.175c-5.201-1.498-1.223-14.528-1.223-14.528s.381 2.753 2.75 4.206c1.613.989 3.82.917 3.82.917s-.306 10.857-5.347 9.405zm5.577-14.375s-1.211-.466-2.002-1.672c-.8-1.219-1.174-3.181-.061-3.681 2.215-.993 2.063 5.353 2.063 5.353zm76.364-28.821c-.639-2.22-2.488-3.779-5.177-2.025-2.688 1.754-3.256 2.682-4.498 2.558-1.241-.124-1.463-.387-1.103-1.739.36-1.353 2.476-8.349 1.257-12.328s-7.713-9.96-11.47-16.388-4.771-9.56-5.589-12.527c-.818-2.968-1.508-2.328-1.906-2.231-.398.096-1.928 1.413-.555 6.251s3.091 7.168 2.812 7.763c-.279.594-3.539-1.787-4.872-2.731-1.334-.945-2.406-.582-2.822.098-.417.68-.011 2.587 3.355 5.417 3.367 2.83 6.944 5.662 6.644 5.945-.301.284-2.515-.819-4.682-1.722-2.166-.903-3.854-1.13-4.209-.412s1.767 3.848 4.533 5.714c2.768 1.866 3.273 2.219 3.12 2.678s-4.058.659-3.811 2.129c.247 1.47 4.056 2.189 4.187 2.949.129.76-3.824 2.291-3.406 4.036.42 1.746 3.748 2.088 3.855 2.537.108.449-2.482 2.385-3.29 3.634-.808 1.249-.511 3.327 1.229 4.251 1.133.601 1.255 1.615 1.161 2.323-.093.708-.118 3.214 1.409 5.878 1.627 2.839 2.234 4.19 1.035 6.396-.676 1.244-2.174 3.299-6.981 4.944-5.094 1.743-14.695 3.955-5.476 10.921 4.041 3.053 8.381 3.137 11.453-.529s4.133-8.986 7.779-10.83c5.838-2.95 13.297-7.259 13.206-12.634-.068-4.014-.321-5.801.901-6.965 1.223-1.165 3.059-.103 3.285-.474s-.92-1.307-1.374-2.887zm-53.93.524c.664 1.364-2.399.125-3.219 1.859-.561 1.186 4.208 3.625 6.511 4.192 2.304.566 3.83 1.197.977 1.85-3.394.777 2.153 3.22 6.91 4.101 2.387.441 1.701.954.588 1.913-1.949 1.678 4.547 4.179 7.511 4.461 4.991.475 7.583-.092 8.976-.808 1.854-.952.779-2.917-.535-5.321-1.117-2.041-1.23-4.354-1.382-5.952-.073-.765-1.175-1.418-1.591-2.312-.502-1.077-.389-1.821-1.236-2.608-1.447-1.343-5.48-1.866-10.654-2.614s-9.409-2.479-12.975-4.642c-3.564-2.163-6.617-6.338-7.096-3.785-.825 4.403 6.552 8.303 7.215 9.666z"/></svg>