<svg xmlns="http://www.w3.org/2000/svg" xmlns:xlink="http://www.w3.org/1999/xlink" width="740" height="206.573" viewBox="0 35.344 740 206.573" enable-background="new 0 35.344 740 206.573"><path fill="#003C6B" d="M550.313 86.059s-3.186-23.89-19.969-32.343c-16.786-8.453 6.492 28.423 6.492 28.423s12.62 17.273 13.477 3.92zM617.328 122.566l-9.189-36.141s-18.744-18.254.368-14.088c19.112 4.165 9.924 23.767 9.924 23.767 9.8 5.514 4.9 21.317 4.9 21.317s4.288 1.837 3.308 5.269c-.981 3.43-7.351 5.758-9.311-.124zM486.606 235.034s1.96 8.821 9.312 3.186l45.696-22.542s4.289-2.45 1.104-7.105c-3.187-4.656-2.329-2.941-2.329-2.941s.857-3.186 2.205-3.062l6.372.122s8.942 0 13.353-3.432l98.255-49.25s8.577-6.248 8.577-10.29v-6.861l-141.013 64.319-41.532 37.856z"/><path fill="#5B74A1" d="M467.005 221.803l5.391 8.821s5.39 10.781 14.211 4.41l45.085-23.032s8.984-3.757 1.634-12.252c0 0 .163-.653 1.143-.653h11.271l117.775-58.152s16.335-9.801 6.207-26.137c-10.128-16.335-29.894-3.104-29.894-3.104l-18.296 9.966s-.162-7.842-6.044-11.436c0 0 5.719-12.413-4.573-21.889 0 0 4.41-9.964-2.288-19.928-6.697-9.965-26.463 0-26.463 0l-36.263 18.295-6.207-17.806s-2.45-10.78-10.781-18.785c-8.332-8.004-14.539-12.904-14.539-12.904s-5.882-5.392-18.296 2.123l-3.43 19.438 8.82 15.683s-1.143 48.188-6.86 53.088c0 0-9.147 2.613-17.478 7.352-8.332 4.737-40.838 21.398-40.838 21.398s-6.371 3.432-2.287 11.108c4.083 7.677 33 54.396 33 54.396z"/><path fill="#8597BC" d="M439.396 161.854l41.654 68.606 42.145-21.888-35.122-70.568z"/><path fill="#778BB7" d="M448.869 169.367l32.427 56.52 37.651-18.949-29.24-58.153z"/><circle fill="#FAFCFE" cx="505.39" cy="204.324" r="5.589"/><circle fill="#CCD5E5" cx="505.698" cy="202.445" r=".408"/><circle fill="#CCD5E5" cx="503.819" cy="203.671" r=".407"/><circle fill="#CCD5E5" cx="504.982" cy="205.387" r=".408"/><circle fill="#CCD5E5" cx="506.695" cy="204.323" r=".408"/><path fill="#F4F9FB" d="M525.075 195.095l5.146-2.939s2.451-1.226 4.656-.49c2.205.734 11.026.979 16.906-2.695l108.547-55.009s8.069-3.546 3.308-14.823c-4.207-9.966-19.479-.858-19.479-.858l-36.265 17.642s16.171-15.804-3.553-22.175c0 0 15.682-16.784-4.288-21.562 0 0 8.453-9.066 4.288-17.152-4.165-8.085-15.438-1.714-15.438-1.714l-49.003 24.01-7.229-24.625s-1.961-9.923-6.126-13.599c-4.166-3.676-16.54-14.702-16.54-14.702l-4.409-.367s-4.901 1.347-6.616 2.45c-1.716 1.103-1.225 6.737-1.225 6.737l11.27 19.848s-2.082 42.634-4.286 49.25c-2.206 6.615-6.862 15.069-6.862 15.069s-2.204 1.593 1.47 7.228c3.675 5.637 24.627 50.354 25.728 50.476z"/><path fill="#E3EBF0" d="M501.553 134.328l27.198 56.847-3.799 1.96-26.83-53.415zM503.022 45.875l16.663 19.969s-2.695 30.751-1.838 31.73c.856.98-.857 13.477 13.722 4.778l6.982-4.042-10.701-36.1-15.638-15.233s-3.554-4.165-9.19-1.102zM576.163 80.301s12.436 10.903 3.124 21.562c0 0 16.784 5.514 4.778 21.317 0 0 15.437 3.308 6.983 21.317l15.804-8.392s10.721-9.925 5.085-17.274c0 0-3.431-4.288-8.087-4.778 0 0 8.883-10.843 5.084-15.988 0 0-3.634-5.146-9.637-5.513 0 0 9.189-10.249 4.208-17.805-4.237-6.424-13-1.735-14.111-1.123-4.451 2.451-13.231 6.677-13.231 6.677z"/><defs><path id="a" d="M.5 35.344h368.044v206.103h-368.044z"/></defs><clipPath id="b"><use xlink:href="#a" overflow="visible"/></clipPath><g clip-path="url(#b)"><path fill="#E4E9F1" d="M81.216 45.097h290.147v213.993h-290.147z"/><path fill="#3B424D" d="M-2.378 42.231h90.046v205.972h-90.046z"/><path fill="#DB3624" d="M-34.683 35.344h414.838v22.854h-414.838z"/><g fill="#95281B"><path d="M6.413 38.85h35.699v15.376h-35.699zM317.044 39.317h35.699v15.376h-35.699z"/></g><g fill="#E8EAF6"><path d="M138.551 44.565h42.093v4.469h-42.093zM188.636 45.097h31.969v3.404h-31.969z"/></g><circle fill="#222730" cx="11.475" cy="68.816" r="4.529"/><path fill="#697180" d="M21.865 67.046h37.83v3.538h-37.83z"/><circle fill="#222730" cx="11.475" cy="85.333" r="4.529"/><path fill="#697180" d="M21.865 83.564h27.44v3.538h-27.44z"/><circle fill="#222730" cx="11.475" cy="102.042" r="4.529"/><path fill="#697180" d="M21.865 100.272h43.958v3.539h-43.958z"/><circle fill="#222730" cx="11.475" cy="121.031" r="4.529"/><path fill="#697180" d="M21.865 119.262h18.916v3.539h-18.916z"/><circle fill="#222730" cx="11.475" cy="137.549" r="4.529"/><path fill="#697180" d="M21.865 135.779h37.83v3.539h-37.83z"/><circle fill="#222730" cx="11.475" cy="154.258" r="4.529"/><path fill="#697180" d="M21.865 152.488h27.44v3.539h-27.44z"/><circle fill="#222730" cx="11.475" cy="173.781" r="4.529"/><path fill="#697180" d="M21.865 172.012h37.83v3.537h-37.83z"/><path fill="#555E6F" d="M115.375 67.142h195.484v130.958h-195.484z"/><path fill="#7E869B" d="M115.375 176.271h195.484v21.828h-195.484z"/><path fill="#555E6F" d="M115.907 218.994h195.485v130.957h-195.485z"/></g></svg>