<svg xmlns="http://www.w3.org/2000/svg" width="800" height="600" viewBox="0 0 800 600"><path fill="#2ECC71" d="M-14-65h836.5v836.5h-836.5v-836.5z"/><g fill="#fff"><path d="M327.683 346.233v31.204h-5.187v-31.204h5.187zm12.156 3.382c0 .447-.091.869-.271 1.26-.182.392-.425.734-.726 1.028s-.654.529-1.06.704c-.406.176-.84.263-1.302.263-.447 0-.871-.087-1.27-.263-.398-.174-.745-.41-1.039-.704-.294-.294-.529-.637-.704-1.028-.176-.391-.264-.812-.264-1.26 0-.46.088-.896.264-1.302.174-.406.41-.756.704-1.051.293-.296.641-.527 1.039-.705.4-.175.823-.261 1.27-.261.462 0 .896.086 1.302.261.406.176.76.409 1.06.705.3.295.541.645.726 1.051.181.407.271.842.271 1.302zm-.775 6.279v21.544h-5.187v-21.544h5.187zm6.781 21.544v-17.638l-1.868-.296c-.406-.07-.731-.21-.977-.421-.244-.21-.368-.503-.368-.881v-2.121h3.213v-1.596c0-1.232.186-2.339.557-3.318s.903-1.812 1.595-2.498 1.536-1.21 2.53-1.574c.995-.366 2.114-.547 3.36-.547.993 0 1.917.133 2.771.398l-.104 2.605c-.028.407-.218.657-.566.756-.35.099-.757.146-1.218.146-.616 0-1.166.066-1.648.199-.483.134-.893.365-1.228.694s-.592.762-.768 1.302c-.174.539-.262 1.207-.262 2.005v1.428h5.606v3.695h-5.439v17.658h-5.187v.004zm22.698-21.881c1.358 0 2.608.218 3.75.651 1.142.436 2.123 1.066 2.949 1.898.826.836 1.469 1.858 1.931 3.067.462 1.212.693 2.593.693 4.147 0 .393-.019.718-.052.979-.034.26-.098.46-.188.609-.092.146-.214.249-.368.312-.155.063-.35.094-.588.094h-13.312c.154 2.214.748 3.836 1.785 4.875 1.036 1.034 2.408 1.553 4.117 1.553.84 0 1.564-.099 2.172-.295.609-.196 1.141-.414 1.595-.652l1.196-.648c.343-.196.677-.294.998-.294.209 0 .391.041.546.124.154.086.286.203.399.358l1.513 1.89c-.574.673-1.218 1.237-1.932 1.689-.713.455-1.459.819-2.235 1.093-.777.272-1.567.467-2.373.577-.805.111-1.585.169-2.34.169-1.498 0-2.891-.248-4.178-.746-1.288-.496-2.409-1.232-3.36-2.204s-1.701-2.177-2.247-3.61c-.546-1.436-.819-3.098-.819-4.987 0-1.469.237-2.854.714-4.147.474-1.295 1.157-2.423 2.046-3.382.888-.957 1.974-1.72 3.253-2.278 1.281-.561 2.727-.842 4.335-.842zm.107 3.716c-1.512 0-2.695.428-3.549 1.282-.854.854-1.4 2.064-1.638 3.633h9.744c0-.674-.091-1.308-.273-1.902-.181-.595-.462-1.116-.84-1.564-.377-.446-.854-.802-1.428-1.059-.574-.259-1.247-.39-2.016-.39zm25.911.401c-.17.307-.427.462-.777.462-.21 0-.447-.079-.714-.233-.266-.154-.592-.325-.977-.513-.386-.189-.844-.365-1.376-.525-.532-.16-1.16-.241-1.889-.241-.63 0-1.196.081-1.7.241-.504.162-.936.382-1.291.662-.358.279-.631.604-.819.977-.189.373-.284.772-.284 1.206 0 .547.158 1.002.474 1.366.316.363.731.679 1.25.944.517.267 1.106.501 1.764.705.659.203 1.334.419 2.026.649.693.233 1.37.487 2.028.767.656.279 1.245.632 1.764 1.051.517.421.935.935 1.249 1.544.315.609.473 1.34.473 2.194 0 .981-.176 1.886-.526 2.72-.349.833-.868 1.555-1.554 2.162-.687.61-1.525 1.09-2.52 1.438-.995.352-2.142.526-3.444.526-1.484 0-2.827-.242-4.031-.727-1.205-.482-2.226-1.102-3.066-1.857l.881-1.427c.112-.183.243-.323.398-.423.154-.097.357-.146.61-.146.251 0 .518.099.797.296.28.193.62.412 1.018.65.4.237.881.453 1.449.649.568.195 1.278.294 2.132.294.728 0 1.364-.095 1.91-.284.547-.188 1.001-.442 1.364-.765.363-.323.633-.694.81-1.113.174-.423.262-.87.262-1.347 0-.586-.158-1.073-.473-1.457-.315-.385-.731-.715-1.25-.988-.517-.27-1.108-.508-1.773-.711-.666-.203-1.343-.416-2.036-.642-.693-.224-1.373-.479-2.037-.767-.665-.287-1.257-.646-1.774-1.082-.518-.435-.934-.969-1.25-1.606-.315-.635-.472-1.409-.472-2.319 0-.813.169-1.593.503-2.342.335-.749.826-1.405 1.47-1.973.644-.567 1.435-1.02 2.372-1.355.938-.337 2.008-.505 3.212-.505 1.4 0 2.656.221 3.769.662 1.112.439 2.075 1.046 2.887 1.815l-.838 1.364v.004zm12.494 18.1c-1.68 0-2.972-.47-3.875-1.407-.904-.938-1.354-2.288-1.354-4.054v-13.018h-2.563c-.223 0-.413-.066-.567-.199-.154-.135-.23-.341-.23-.62v-1.49l3.486-.441.861-6.57c.026-.213.115-.384.272-.515.152-.134.35-.2.586-.2h1.89v7.328h6.091v2.71h-6.091v12.766c0 .897.218 1.563.649 1.997.436.435.993.651 1.68.651.391 0 .73-.053 1.02-.159.287-.104.533-.221.746-.348l.533-.347s.276-.156.389-.156c.195 0 .371.117.525.357l1.092 1.785c-.644.601-1.422 1.074-2.332 1.417s-1.842.513-2.808.513zm17.824-21.944c1.557 0 2.959.26 4.211.778 1.254.518 2.318 1.254 3.191 2.203.877.952 1.547 2.104 2.017 3.455.47 1.352.705 2.859.705 4.525 0 1.68-.235 3.191-.705 4.534-.47 1.344-1.14 2.493-2.017 3.442-.873.953-1.936 1.687-3.191 2.196-1.252.51-2.654.767-4.211.767-1.553 0-2.956-.254-4.209-.767-1.252-.51-2.319-1.243-3.202-2.196-.883-.949-1.562-2.099-2.036-3.442-.475-1.343-.713-2.854-.713-4.534 0-1.666.238-3.174.713-4.525.475-1.351 1.153-2.503 2.036-3.455.883-.951 1.95-1.686 3.202-2.203 1.253-.516 2.656-.778 4.209-.778zm0 18.982c2.104 0 3.669-.703 4.707-2.109 1.037-1.405 1.553-3.371 1.553-5.891 0-2.536-.516-4.508-1.553-5.921-1.038-1.414-2.604-2.121-4.707-2.121-1.062 0-1.986.181-2.769.546-.784.364-1.44.89-1.966 1.575-.523.687-.914 1.527-1.175 2.529s-.388 2.133-.388 3.392.127 2.387.388 3.38c.259.994.651 1.831 1.175 2.511.525.678 1.182 1.2 1.966 1.563.783.363 1.706.546 2.769.546zm29.253-14.867c-.114.155-.226.273-.336.357-.111.084-.273.127-.483.127-.209 0-.438-.087-.683-.264-.244-.173-.556-.366-.934-.576-.378-.209-.838-.403-1.376-.576s-1.201-.263-1.982-.263c-1.041 0-1.953.187-2.752.557-.799.373-1.468.908-2.006 1.606-.54.701-.945 1.547-1.22 2.54-.27.992-.405 2.105-.405 3.339 0 1.288.145 2.434.439 3.432.295 1.003.707 1.842 1.24 2.521.531.679 1.181 1.196 1.941 1.552.76.359 1.617.537 2.57.537.913 0 1.661-.107 2.25-.325.586-.218 1.076-.459 1.469-.724.391-.268.713-.507.967-.723.25-.219.503-.327.756-.327.32 0 .561.121.713.357l1.049 1.365c-.922 1.132-2.078 1.964-3.464 2.488-1.386.523-2.849.787-4.39.787-1.328 0-2.564-.245-3.703-.736-1.141-.489-2.133-1.199-2.973-2.131-.84-.931-1.502-2.073-1.984-3.434-.484-1.357-.725-2.905-.725-4.639 0-1.581.223-3.046.66-4.388.441-1.346 1.086-2.503 1.934-3.479.846-.972 1.893-1.73 3.139-2.276 1.248-.546 2.674-.819 4.283-.819 1.486 0 2.801.241 3.951.724 1.146.485 2.162 1.167 3.042 2.049l-.987 1.342zm8.987-13.438v18.206h.965c.279 0 .512-.039.692-.115.183-.077.385-.235.61-.474l6.719-7.201c.21-.225.42-.407.633-.547.209-.14.488-.209.839-.209h3.403l-7.834 8.335c-.194.238-.388.448-.577.632-.188.182-.401.344-.64.483.251.168.479.359.684.576.203.216.393.465.577.744l8.313 10.5h-3.359c-.307 0-.572-.059-.787-.176-.217-.121-.423-.307-.619-.559l-6.993-8.714c-.21-.294-.419-.486-.63-.577-.21-.09-.523-.136-.945-.136h-1.05v10.163h-3.759v-30.933h3.758v.002zM455.738 235.739c-.622 4.814-1.787 9.664-3.494 14.555-1.71 4.893-4.387 9.434-8.033 13.627-3.643 4.191-7.648 7.765-11.993 10.711-4.351 2.952-9.466 4.892-15.376 5.823-5.902.935-11.872.625-17.923-.93.149-2.331 1.246-4.732 3.261-7.221 2.012-2.479 4.234-4.577 6.635-6.287 2.404-1.707 5.084-3.414 8.027-5.123 2.947-1.707 5.008-2.832 6.18-3.378 1.164-.542 2.134-.967 2.914-1.283-.631 0-3.151.898-7.57 2.681-4.436 1.787-9.195 4.506-14.326 8.15-5.121 3.65-7.841 7.26-8.157 10.83-.622 6.056-.313 11.259.932 15.606.309.779.618 1.709.931 2.795.467 1.711.851 3.493 1.165 5.355.618 2.951.927 6.058.927 9.318 0 5.589-.579 10.479-1.745 14.671-1.163 4.184-2.093 6.789-2.793 7.802-.699 1.01-1.282 1.747-1.745 2.202h-6.058c.309-.154.656-.426 1.047-.812.385-.38 1.124-1.247 2.213-2.555 1.084-1.321 2.017-2.833 2.797-4.538.771-1.716 1.513-4.038 2.211-6.997.698-2.945 1.049-6.203 1.049-9.782 0-2.182-1.013-4.551-3.027-7.104-2.02-2.564-4.232-4.773-6.638-6.639-2.409-1.862-5.205-3.725-8.385-5.589-3.185-1.864-5.396-3.104-6.639-3.727-1.246-.619-2.253-1.083-3.027-1.398l6.056 3.726c4.193 2.486 8.304 5.862 12.346 10.134 4.034 4.268 6.056 8.265 6.056 11.991-6.214.93-12.193.625-17.937-.931-5.745-1.547-10.677-3.995-14.79-7.333-4.117-3.337-7.686-7.335-10.714-11.99-3.025-4.661-5.239-9.473-6.638-14.443-1.396-4.968-2.06-9.898-1.98-14.79.078-4.89 1.125-9.276 3.146-13.158 0 4.347 1.824 7.995 5.472 10.944 3.647 2.954 7.879 5.164 12.693 6.639 4.812 1.479 10.132 3.844 15.955 7.104 5.822 3.262 10.365 7.066 13.625 11.414 0-2.641.153-5.433.465-8.385.777-7.604 2.797-14.01 6.057-19.217 3.261-5.199 7.062-8.965 11.412-11.295 4.344-2.327 9.043-4.386 14.092-6.171s9.662-3.184 13.857-4.195c4.191-1.008 7.759-2.675 10.713-5.007 2.949-2.33 4.658-5.436 5.124-9.316 1.71 4.197 2.249 8.706 1.63 13.516z"/></g></svg>