<svg xmlns="http://www.w3.org/2000/svg" width="800" height="600" viewBox="0 0 800 600"><path fill="#006D62" d="M-15.181-108.347h830.363v816.695h-830.363v-816.695z"/><circle fill="#00857F" cx="400" cy="300" r="98.892"/><path fill="#fff" d="M344.729 347.516c-19.056 0-29.572-12.629-30.751-25.506h11.565c1.055 7.492 7.36 14.854 19.187 14.854 12.095 0 20.244-8.672 20.244-20.643 0-11.951-7.752-20.5-19.19-20.5-7.36 0-14.456 4.203-18.664 10.387l-9.858-3.816 6.046-47.583h47.315v10.646h-37.457l-3.413 25.367c4.335-3.286 10.514-5.52 17.084-5.52 17.219 0 29.177 13.012 29.177 31.017-.001 19.332-14.458 31.297-31.285 31.297zm37.197-74.395v-8.677c7.752-.261 13.669-2.892 14.324-9.726h10.254v91.217h-11.169v-72.815h-13.409zm70.713 74.395c-16.432 0-26.159-9.863-28.658-21.951h11.439c1.71 5.912 7.099 11.438 17.357 11.438 16.68 0 21.415-17.486 22.477-32.211-3.675 6.576-13.287 11.178-22.09 11.178-18.006 0-31.02-13.277-31.02-31.677 0-18.664 13.148-31.807 30.89-31.807 11.3 0 20.501 5.389 26.151 14.588 4.996 8.152 6.837 17.219 6.837 30.103 0 31.542-11.438 50.339-33.383 50.339zm.525-84.783c-11.83 0-19.848 8.679-19.848 21.558 0 12.486 7.622 21.554 19.848 21.554 12.223 0 20.24-9.068 20.24-21.554 0-12.224-8.283-21.558-20.24-21.558z"/></svg>