<svg xmlns="http://www.w3.org/2000/svg" width="740" height="124.25" viewBox="0 0 740 124.25"><circle fill="#fff" cx="246.385" cy="38.269" r="1.45"/><circle fill="#fff" cx="240.151" cy="36.817" r="1.45"/><path fill="#EE912D" d="M370.712 122.836c36.794-72.562-33.51-120.891-33.51-120.891s-35.387 77.63 33.51 120.891zm-.075.021c-4.417-81.236-89.47-87.94-89.47-87.94s8.168 84.921 89.47 87.94zm.165-.045c-38.034-71.919 31.43-121.451 31.43-121.451s36.714 77.007-31.43 121.451zm.089.077c3.024-81.303 87.942-89.469 87.942-89.469s-6.703 85.049-87.942 89.469z"/><path fill="#FFCC32" d="M328.176 50.666c.802 23.894 10.142 51.83 42.536 72.173l-.075.021c-2.076-38.183-21.963-59.902-42.461-72.194zm41.862-11.607c11.611 20.898 17.989 49.66.688 83.771l.076-.021c-17.876-33.799-12.005-62.657-.764-83.75zm42.284 10.904c-.453 23.904-9.377 51.976-41.465 72.792l.071.021c1.513-38.208 21.076-60.215 41.394-72.813z"/><path fill="#fff" d="M370.637 122.857c-.892-16.411-5.077-29.781-11.182-40.665.365 12.375 3.608 25.866 11.159 40.259m-.063.344c7.492-14.628 10.614-28.283 10.822-40.764h-.003c-5.915 10.875-9.909 24.164-10.637 40.402"/></svg>