<svg width="800" height="600" viewBox="0 0 800 600" xmlns="http://www.w3.org/2000/svg"><title>Group 2</title><desc>Created with Sketch.</desc><g fill="none"><path fill="#DD3723" d="M0 0h800v600h-800z"/><g><path d="M400.5 435c74.282 0 134.5-60.218 134.5-134.5s-60.218-134.5-134.5-134.5-134.5 60.218-134.5 134.5 60.218 134.5 134.5 134.5" id="Shape" fill="#DD3723"/><path d="M326.503 319.341h19.508l2.636 8.059h15.591l-21.391-55.737h-12.277l-22.069 55.737h15.441l2.561-8.059m15.817-11.298h-12.277l6.026-19.433 6.252 19.433m41.824 19.357l-.452-41.727 12.051 41.727h9.415l12.051-41.727-.452 41.727h13.106v-55.737h-19.131l-10.168 35.928-10.469-35.928h-19.056v55.737h13.106m70.532-8.059h19.508l2.636 8.059h15.591l-21.391-55.737h-12.277l-22.069 55.737h15.441l2.561-8.059m15.817-11.298h-12.277l6.026-19.433 6.252 19.433" fill="#fff"/></g></g></svg>