<svg width="800" height="600" viewBox="0 0 800 600" xmlns="http://www.w3.org/2000/svg"><title>Group 2</title><desc>Created with Sketch.</desc><g fill="none"><path fill="#232323" d="M0 600h800v-600h-800z"/><g fill="#fff"><path d="M252.981 443.535c-.264.383-.424.51-.436.649-.661 7.647-.566 15.276.73 22.856.175 1.02.702 1.958 1.127 2.887 1.361-.523 2.09-1.092 2.238-2.548.109-1.07.173-2.163.084-3.232-.47-5.633-1.308-11.209-2.748-16.684-.327-1.244-.633-2.493-.996-3.928m-60.393-103.688c-.133-.118-.29-.18-.474-.177-1.565.023-3.239 1.255-3.875 2.629-1.063 2.295-1.459 4.533-1.042 7.056.306 1.85.898 3.638 1.331 5.463.411 1.734.841 3.736 2.412 4.575 1.307-2.792 1.171-6.201 1.538-9.2.16-1.309 1.553-9.068.112-10.344m17.98 86.041l-.043-.023c-.323-.157-.728.024-.94.315-2.162 2.957-3.457 7.561-4.858 10.957-1.653 4.007-2.506 8.192-2.234 12.562.191 3.071 4.073 5.29 6.468 3.585 2.946-2.098 4.926-4.75 5.073-8.654.126-3.365-.335-6.632-.979-9.87-.296-1.489-1.131-8.08-2.486-8.871m104.703-42.762c1.186-1.143 2.197-1.797 2.767-2.723 2.664-4.325 5.244-8.704 7.772-13.111.9-1.57 1.616-3.254 2.326-4.925.548-1.29 1.097-2.608 1.393-3.97.387-1.776.515-3.608.773-5.413.628-4.398 1.298-4.195-3.419-6.172-3.125-1.31-6.765.077-8.143 3.146-.474 1.056-.936 2.118-1.368 3.191-1.043 2.588-2.351 5.114-3.017 7.798-.699 2.819-.649 5.815-1.158 8.693-.52 2.941-.04 5.759.593 8.578.336 1.496.879 2.945 1.48 4.909m-39.294-1.133v-1.517c-.028-3.87-1.112-7.538-2.194-11.199-.313-1.059-.896-2.129-2.23-1.944-1.962.272-3.872.642-5.293 2.36-1.342 1.623-2.503 3.313-3.124 5.314-1.496 4.826-2.857 9.695-4.412 14.502-.959 2.966-.955 5.84 0 8.779.452 1.392 4.337 4.876 5.786 4.978.482.033.983-.096 1.464-.201 3.429-.753 5.881-2.805 7.023-6.059 1.701-4.849 3.298-9.763 2.979-15.012m-32.199 53.643c.064-3.501.219-7.009.526-10.495.342-3.887.846-7.828.846-11.735.129-2.798-.261-5.63-.538-8.434-.433-4.379-.969-8.747-1.469-13.118-.026-.233-.127-.457-.223-.788-2.541.558-4.588 1.935-6.417 3.617-5.516 5.075-10.814 10.356-15.459 16.274-1.3 1.656-1.463 2.984-.566 4.931 1.624 3.526 3.045 7.173 4.192 10.882 2.414 7.809 2.427 22.664-4.871 27.952-8.54 6.187-17.356 3.457-23.127-4.754-.23-.328-.371-.759-.431-1.16-.673-4.571-.864-9.104.883-13.53 2.177-5.514 4.851-10.78 8.164-15.678 1.298-1.919 1.159-3.404.062-5.25-2.42-4.071-4.733-8.207-7.02-12.355-1.28-2.321-2.407-4.727-3.635-7.077-.325-.623-.772-1.182-1.352-2.054-.452.921-.827 1.462-.996 2.062-1.299 4.63-2.46 9.301-3.85 13.903-2.623 8.683-4.736 17.487-6.548 26.367-.913 4.476-1.708 8.977-2.573 13.463-.801 4.156-1.622 8.309-2.437 12.463-.032.163-.114.319-.128.483-.137 1.652-.058 3.365-1.634 4.511-2.042 1.486-4.205 2.655-6.807 2.691-3.77.051-3.897-.273-3.708-4.14.293-5.997 1.953-11.719 3.167-17.533 1.528-7.317 2.903-14.676 4.734-21.918 1.812-7.167 4.188-14.188 6.17-21.315 1.467-5.274 2.667-10.621 4.051-15.918.671-2.568 1.416-5.123 2.276-7.633.409-1.193.468-2.192-.153-3.322-3.755-6.827-6.359-14.811-6.207-22.667.148-7.601 3.992-17.938 13.004-17.811 2.703.038 5.543.674 7.508 2.533 1.596 1.51 2.443 3.678 2.754 5.855 1.26 8.843-1.192 19.99-3.859 28.378-.285.896-.077 2.209.401 3.041 1.731 3.01 3.737 5.858 5.521 8.839 2.123 3.549 4.117 7.176 6.18 10.762.83 1.442 1.727 2.844 2.533 4.298.601 1.084 1.177 2.193 1.635 3.343.674 1.69 1.075 1.804 2.331.478 2.801-2.958 5.552-5.967 8.417-8.861 2.806-2.834 5.634-5.662 8.635-8.282 1.991-1.738 4.279-3.143 6.483-4.624 1.091-.733 1.38-1.45 1.197-2.877-.711-5.531-.679-11.082.352-16.6.16-.858.55-1.323 1.353-1.564 2.74-.822 6.247-.371 8.175 2.003.781.962 1.522 1.983 2.101 3.073.578 1.087.93 2.295 1.479 3.7 1.367-1.938 2.413-4.181 4.37-5.61 1.965-1.433 4.361-2.123 6.723-2.552 1.461-.266 2.985-.159 4.474-.297 5.916-.547 12.621 3.079 15.199 9.141 1.84 4.328 3.373 8.656 3.38 13.403.002 1.239-.141 2.477-.212 3.716-.031.544-.05 1.088-.081 1.803 1.255-.382 1.421-1.397 1.72-2.168 2.402-6.203 4.815-12.404 7.057-18.665.833-2.327 1.209-4.817 1.811-7.229 1.319-5.282 4.312-9.683 7.481-13.961 1.323-1.786 2.883-3.41 4.445-4.999.611-.621 1.475-1.102 2.312-1.374 4.506-1.467 9.118-1.721 13.792-.986 1.288.202 2.58.381 3.868.57.885-2.463 1.663-4.726 2.51-6.964.998-2.637 1.471-2.947 4.304-2.351 1.684.354 3.385.844 4.935 1.578 2.644 1.252 3.581 3.49 2.939 6.402-.9 4.085-1.907 8.45-1.937 12.756-.03 4.416.086 8.74-.363 13.157-.218 2.143-.076 4.328 0 6.491.027.784.339 1.558.564 2.523 1.854-.792 2.742-2.278 3.688-3.542 2.038-2.726 4.065-5.511 5.644-8.509.837-1.588.894-3.665 1.007-5.538.179-2.983.024-5.985.162-8.972.253-5.478.487-10.963.997-16.419.181-1.939.942-3.766 1.486-5.618.234-.798.643-1.618 1.392-1.979 1.665-.8 5.467.339 7.047 1.04 2.07.918 3.204 2.631 4.232 4.4.444.763.397 1.95.248 2.892-.31 1.958-.926 3.867-1.24 5.825-.173 1.075-.131 2.426.394 3.375 1.938-2.789 2.802-6.31 4.258-9.365 1.653-3.47 3.51-6.849 5.857-9.903.722-.94 1.481-1.877 2.458-2.548 1.601-1.099 3.654-1.372 5.582-1.149 4.586.531 8.313 2.549 10.417 6.741.533 1.063 1.14 2.687 2.035 3.372 2.455-3.391 4.369-7.13 6.342-10.811 1.623-3.028 3.338-7.457 6.42-9.318 1.412-.852 3.207-.724 4.805-.318 5.572 1.415 9.329 3.235 10.65 9.269 1.046 4.78.402 9.914-.578 14.65-1.301 6.283-3.318 12.389-3.647 18.805-.049.96.109 1.93.19 3.165.73-.353 1.315-.489 1.694-.846l4.736-4.18c3.915-3.693 5.586-8.72 8.3-13.119.72-1.168 1.335-1.556 2.598-1.163 2.28.71 4.838 3.917 4.986 6.287.064 1.028-.218 1.845-.608 2.798-.98 2.389-1.942 4.786-2.94 7.168-.883 2.108-2.627 3.802-4.022 5.589-2.883 3.694-7.786 7.265-12.711 5.981-4.612-1.203-9.015-3.536-11.613-7.668-2.907-4.623-3.939-9.78-3.673-15.238.236-4.832 1.887-9.231 3.68-13.638.827-2.034 1.201-4.253 1.78-6.388l-.629-.294c-.945 1.393-1.922 2.767-2.83 4.184-5.178 8.084-9.318 16.677-12.564 25.712-1.123 3.125-2.457 6.176-3.538 9.315-.657 1.909-1.126 3.901-1.477 5.893-.79 4.484-6.036 3.65-8.943 1.64-3.76-2.6-3.877-8.834-3.377-12.883.872-7.053 3.008-13.81 4.329-20.749.227-1.194.376-2.402.509-3.61.092-.837.631-2.588.307-3.379-.413-1.007-2.623 1.826-2.898 2.291-1.819 3.068-3.706 6.127-5.164 9.372-2.791 6.21-5.437 12.494-7.889 18.845-1.169 3.028-2.17 6.115-3.15 9.208-.43 1.357-.928 2.71-1.322 4.076-.4 1.387-.327 2.904-.848 4.252-.382.986-1.179 1.841-2.194 2.132-1.021.293-2.105.003-3.147-.201-2.355-.46-4.121.539-5.459 2.46-1.491 2.142-3.402 4.081-5.906 5.196-.597.266-1.218.637-1.838.66-3.007.11-5.915-.262-8.689-1.627-1.978-.973-3.771-2.04-4.862-4.038-.141-.258-.47-.413-.808-.697-.789 1.403-1.585 2.659-2.226 3.99-1.74 3.612-4.214 6.588-7.629 8.674-1.093.667-2.43 1.133-3.702 1.274-7.648.851-13.124-2.964-17.168-9.146-.577 1.113-1.018 2.293-1.566 3.422-2.163 4.477-3.988 9.137-7.248 13.011-3.515 4.178-7.531 7.727-12.512 10.038-6.382 2.96-12.767 2.317-19.112-.197-.673-.267-1.339-.552-2.04-.842-.188.357-.422.587-.39.772.553 3.189 1.14 6.372 1.718 9.557.252 1.39.516 2.778.747 4.172.975 5.893 1.964 11.783 2.9 17.682.624 3.926 1.409 7.848 1.689 11.802.302 4.272.569 8.585.02 12.849-.418 3.245-1.126 7.387-4.405 8.926-1.149.54-2.41.783-3.656 1.021-1.447.277-2.904.554-4.376.552-4.982-.008-8.585-4.408-9.647-8.976-1.109-4.764-1.41-9.678-1.486-14.555-.077-4.921-.064-9.862.005-14.783l.015-.916"/><path d="M621.396 283.226c7.919-6.356 9.204-18.47 5.879-24.611-1.9 2.14-3.209 4.48-3.899 7.12-.606 2.319-1.105 4.681-1.434 7.055-.463 3.341-.962 6.699-.546 10.436m-89.485 30.356l.64.276c1.111-1.598 2.479-3.077 3.282-4.817 1.985-4.302 3.814-8.712 4.341-13.472.206-1.859.073-3.837-.338-5.663-.572-2.538-2.496-2.702-4.196-1.012-1.867 1.857-2.264 4.762-2.724 7.233l-.858 6.162c-.706 3.772-.787 7.526-.147 11.293m136.075-59.602l-4.949-2.768c-.673 2.04-1.365 3.933-1.922 5.866-2.098 7.27-4.449 14.486-6.115 21.856-1.036 4.582-3.047 8.731-4.473 13.123-1.107 3.407-2.508 6.72-3.565 10.126-1.204 3.882-2.507 8.002-5.118 11.185-2.342 2.855-5.501 4.902-9.121 5.689-4.574.995-8.761-.732-12.344-3.465-5.654-4.313-9.112-9.914-11.509-16.504-.312-.858-.599-1.726-.924-2.667-5.122-1.582-8.97-5.093-12.942-9.219-.29 1.673-.524 2.85-.694 4.036-.658 4.588-1.329 9.174-1.962 13.766-.321 2.328-.561 4.677-.93 6.998-.347 2.183-1.224 4.25-1.912 6.341-1.301 3.958-2.654 7.798-6.348 10.118-3.176 1.995-6.177.503-8.969-1.354-1.87-1.244-3.583-2.725-5.083-4.398-.696-.776-1.544-1.644-2.008-2.584-.482-.977-.757-2.089-1.262-3.076-.251-.491-.611-.92-1.041-1.266-.018.806-.548 1.493-.912 2.177-.44.826-.745 1.617-.67 2.575.029.384.113.768.072 1.151-.171 1.592-1.222 3.374-1.784 4.869-.644 1.712-1.269 3.431-1.831 5.173-.877 2.716-2.707 4.464-4.64 6.494-5.091 5.347-11.555 5.512-18.22 4.685-1.285-.16-2.63-.615-3.738-1.281-3.638-2.189-7.097-4.667-9.833-7.96-3.741-4.5-5.657-9.747-5.817-15.598-.171-6.254.248-12.453 1.636-18.586.787-3.479 2.058-7.04 4.014-10.038 2.423-3.715 6.072-4.922 10.31-5.766 3.165-.631 6.392-1.03 9.628-.203 2.3.588 4.039 1.889 5.077 3.987 1.75 3.535 2.024 7.376 1.663 11.197-.481 5.098-2.057 9.935-4.92 14.2-2.594 3.866-5.478 7.522-10.045 9.343-1.619.645-1.757 1.035-1.421 2.674.709 3.462 1.995 6.684 4.118 9.531 1.604 2.15 2.648 2.292 4.786.734 2.805-2.044 5.011-4.506 6.38-7.799 1.593-3.832 3.483-7.543 5.32-11.269.82-1.664 1.458-2.778 2.632-4.198.302-.366.539-.781.775-1.193 2.071-3.625 4.415-7.5 4.228-11.798-.167-3.834-.235-7.673-.119-11.51.061-2.034.174-4.067.348-6.094.095-1.105-.127-4.105.915-4.798 1.231-.819 3.95-.811 5.37-.756 1.963.076 3.822.694 5.408 1.863 2.128 1.569 2.868 3.435 2.526 6.23-.752 6.147-.639 12.385-.039 18.54.301 3.083.73 6.154 1.263 9.206.121.692 1.67 7.834 1.693 7.815 2.204-1.792 3.047-5.836 3.763-8.433.906-3.287 1.482-6.655 1.987-10.024.392-2.613.276-5.538 1.083-8.054.203-.632.498-1.231.741-1.85 1.847-4.702 1.343-10.433 2.017-15.405.39-2.874 1.08-5.707 1.686-8.54.035-.162.075-.335.193-.452.116-.115.285-.154.445-.189 2.196-.472 5.45-1.502 7.683-.943.875.223 1.524.96 1.994 1.731 1.517 2.487 1.305 5.41 1.553 8.206.264 2.979.755 5.97 2.135 8.656.854 1.662 1.644 3.373 3.525 5.059.101-1.656.21-2.833.238-4.011.15-6.163.423-12.3 2.222-18.273 1.482-4.922 3.98-9.183 8.07-12.307 1.236-.944 2.96-1.507 4.526-1.695 2.204-.264 4.469-.013 6.708.011 4.032.044 7.454 3.286 7.695 7.298.477 7.927 1.102 17.171-3.919 23.934-1.569 2.113-2.814 4.515-4.778 6.307-.819.747-6.532 3.537-6.545 4.339-.103 6.433 2.021 13.314 5.19 16.677 1.916-.451 3.376-1.647 4.281-3.376 1.617-3.089 3.155-6.226 4.569-9.413.985-2.221 1.561-4.55 2.711-6.707 1.175-2.204 2.581-4.286 3.55-6.596 1.605-3.826 2.811-7.8 4.129-11.729 1.982-5.914 3.786-11.886 5.51-17.88.668-2.321 1.452-4.601 2.197-6.897.698-2.15 1.66-4.287 2.026-6.527.425-2.6-.106-5.238.282-7.882.387-2.632 1.131-5.203 2.075-7.686 1.365-3.592 6.334-2.485 9.259-2.054.836.123 1.31.705 1.513 1.706.495 2.441.35 4.61-.771 6.967-1.385 2.912-2.012 6.154-2.008 9.44.003 2.781.632 3.461 3.355 4.408 2.499.87 5.035 1.72 7.383 2.916 4.432 2.259 5.329 4.522 4.34 9.301-1.224 5.917-2.115 11.914-3.598 17.762-.832 3.281-1.234 6.686-1.207 10.07.011 1.386-.004 8.419 1.838 8.272 2.359-.189 4.833-2.003 6.541-3.506 2.062-1.814 3.77-3.987 5.554-6.076 2.813-3.294 5.549-6.46 7.701-10.243.16-.281.355-.562.646-.704.29-.142.697-.092.862.186.058.097.081.21.103.32.637 3.144 1.417 5.967.548 9.167-.602 2.215-1.157 4.522-1.991 6.662-.254.652-.547 1.288-.839 1.923l-.656 1.424c-.401.87-.812 1.759-1.39 2.529-.622.827-1.485 1.354-2.185 2.102-2.969 3.17-6.919 4.008-10.884 4.867-2.006.434-5.088-.423-6.957-1.189-2.307-.945-4.229-2.642-5.917-4.478-2.24-2.435-4.153-5.171-5.676-8.109-1.569-3.026-2.02-6.127-2.124-9.53-.257-8.524 2.884-16.386 5.426-24.357.247-.774.389-1.581.615-2.522"/><path d="M495.711 323.525c.643-.605.726-5.044.811-5.757.751-6.271 1.394-12.556 2.28-18.808.968-6.828 2.133-13.63 3.283-20.431.205-1.213.723-2.379 1.147-3.548 2.088-5.76 4.33-11.4 6.995-16.888 1.841-3.791 5.792-4.694 9.481-5.822 2.51-.767 3.864 1.051 5.145 2.922.121.177.242.37.248.585.006.248-.142.471-.286.673-2.236 3.146-4.467 5.987-6.302 9.414-1.174 2.195-2.321 4.409-3.36 6.67-2.519 5.481-3.658 11.325-4.629 17.246-1.275 7.784-2.894 15.51-4.268 23.278-.776 4.387-1.064 8.807-1.779 13.2-1.067 6.554-1.508 12.889-1.585 19.511-.016 1.4.194 2.817.441 4.202.698 3.918 1.213 7.896 2.291 11.711.511 1.81 1.529 7.274-1.127 8.117-.575.182-1.199.051-1.778-.118-1.201-.353-2.438-.554-3.644-.897-3.81-1.082-6.16-3.774-7.568-7.343-1.159-2.938-2.301-5.891-3.27-8.895-2.192-6.801-4.384-13.605-6.359-20.471-1.489-5.177-2.64-10.451-3.947-15.68-.065-.261-.628-3.642-1.349-2.386-.374.651.033 2.963.042 3.715.065 5.232.107 10.464.228 15.695.04 1.736.454 3.471.414 5.199-.095 4.143-.158 8.303-.595 12.418-.798 7.52-2.602 14.862-4.585 22.143-2.152 7.897-5.804 15.331-12.313 20.515-1.124.895-2.325 1.723-3.673 2.223-2.632.977-5.736.564-8.022-1.066 2.432-2.985 5.413-5.027 7.608-8.356 2.51-3.807 3.864-8.078 5.138-12.38 2.035-6.871 3.362-13.9 4.707-20.935 1.037-5.423 1.439-10.852 1.451-16.346.012-5.377.015-10.758.203-16.132.203-5.808.73-11.606.891-17.415.082-2.969-.324-5.952-.519-8.928-.206-3.143-.423-6.284-.603-9.428-.022-.387-.046-.781-.175-1.147-.13-.368-.36-.692-.505-1.054-.363-.909-.146-1.933.075-2.887.059-.254.124-.52.297-.714.159-.18.39-.275.612-.366 1.757-.714 3.632-1.335 5.328-2.184 1.164-.474 2.239-.347 3.278.428 3.666 2.736 6.558 5.992 8.105 10.442 1.824 5.247 4.101 10.338 5.882 15.598 1.247 3.681 1.981 7.535 2.965 11.306.266 1.018 2.052 9.366 2.776 9.236l.119-.066"/><path d="M724.751 273.912c.903 0 1.751-.107 2.563.019 3.267.507 4.608 2.843 5.338 5.754.568 2.267-.283 5.053-2.249 6.407-2.923 2.015-7.607 2.596-10.525-.687-.978-1.1-1.928-2.233-2.795-3.421-.923-1.265-.855-2.581-.07-3.958 1.743-3.056 4.228-4.607 7.737-4.114"/><path d="M430.478 253.902c2.12-.258 3.195-1.1 3.854-2.782 1.152-2.945 1.838-5.973 2.125-9.101.044-.476-.184-.977-.382-1.923-3.247 4.325-6.466 8.09-5.596 13.806m35.569-63.391c-.873 1.051-1.699 1.76-2.155 2.659-.814 1.603-1.791 3.272-1.999 4.999-.331 2.747-.088 5.564-.088 8.341 3.633-2.769 6.331-11.989 4.242-15.998m93.81-28.234c-1.703.629-2.167 1.959-2.56 3.338-.678 2.378-1.36 4.755-2.024 7.137-.438 1.572-.847 3.152-1.31 4.88 5.102-2.094 7.604-7.143 7.57-11.76-.01-1.383-.512-2.572-1.675-3.595m-142.98 55.736c.671-.437.906-.538 1.072-.706 3.503-3.561 5.631-7.987 7.634-12.457.941-2.1 1.677-4.33 2.188-6.574.646-2.838.926-5.756-.154-8.589-.222-.584-.558-1.372-1.043-1.567-2.194-.886-4.411-1.954-6.853-1.08-1.448 3.855-2.286 7.738-2.454 11.747-.174 4.137-.285 8.278-.382 12.418-.05 2.13-.009 4.262-.009 6.809m81.712 3.525c.574-.332 1.203-.566 1.662-.986 1.412-1.291 2.828-2.589 4.116-4.001 3.118-3.415 5.269-7.44 7.176-11.624 1.308-2.869 2.802-5.64 2.676-8.951-.044-1.15.235-2.314.378-3.471 1.25-10.139 2.516-20.275 3.737-30.418.134-1.112.018-2.254.018-3.63l-3.492.569c-4.014.66-8.022 1.363-12.046 1.961-1.814.27-2.25.419-2.477 2.086-.391 2.872-.643 5.764-.93 8.649-.214 2.15-.399 4.303-.585 6.455-.469 5.417-.47 10.851-1.207 16.247-1.11 8.122-4.907 19.986.974 27.112m132.387-33.472c-1.726 2.562-3.571 5.035-5.814 7.158-3.552 3.358-7.55 5.106-12.309 4.953-4.004-.129-8.333-.775-11.558-3.352-3.441-2.75-6.456-7.712-7.891-11.816-.376-1.075-.494-2.242-.713-3.371-1.354-6.973-.516-13.686 2.316-20.187.628-1.442 1.12-2.955 1.542-4.473.466-1.676.279-1.912-1.471-2.43-.614-.182-1.252-.279-1.984-.438-1.143 4.339-2.207 8.505-3.343 12.651-1.252 4.568-2.69 9.088-3.817 13.685-.71 2.896-1.516 5.71-2.81 8.406-.44.917-.232 2.136-.631 3.086-.736 1.752-1.56 3.5-2.602 5.082-2.005 3.047-3.965 6.169-6.341 8.918-3.306 3.823-7.875 6.401-12.979 6.603-2.476.098-4.949-.351-7.275-1.189-2.357-.849-4.45-3.212-6.901-3.445-.179-.017-.375-.02-.519.088-.152.114-.2.316-.239.502-.939 4.51-3.703 8.801-8.458 10.161-3.118.743-6.24.942-9.37.529-1.723-.227-3.265-1.093-4.564-2.384-1.394-1.387-2.938-2.622-4.34-3.855-1.721 2.871-3.158 5.691-5.001 8.213-1.555 2.129-3.439 4.078-5.433 5.812-3.024 2.629-6.884 3.23-10.569 2.468-2.186-.451-4.089-2.393-6.056-3.756-1.543-1.069-2.989-2.279-4.626-3.54-.847 1.824-1.622 3.436-2.348 5.068-2.509 5.641-7.275 8.526-12.854 10.156-2.91.85-5.927 1.313-9.079.338-2.898-.896-5.322-2.243-7.191-4.611-.927-1.175-1.914-2.307-2.777-3.527-.716-1.012-1.429-1.254-2.496-.519-1.497 1.03-3.048 1.982-4.714 3.056.223.782.426 1.478.62 2.177 1.916 6.888.821 13.503-1.857 19.955-.276.665-.775 1.322-1.34 1.767-1.49 1.172-3.008 2.339-4.646 3.279-.871.5-2.035.783-3.031.706-1.884-.147-3.777-.496-5.604-.994-2.715-.739-7.829-4.551-8.364-7.548-.391-2.191 1.784-5.661 2.772-7.523 1.65-3.112 4.039-5.683 6.496-8.168 1.031-1.043 4.201-3.006 4.223-4.592.039-2.776-2.133-3.528-4.343-4.025l-.248-.029c-2.992-.773-5.575-.21-8.103 1.739-1.626 1.254-3.781 1.821-5.711 2.701-.865 5.814-1.676 11.726-2.652 17.611-.392 2.365-1.09 4.685-1.751 6.997-.662 2.314-1.342 4.633-2.208 6.876-1.408 3.646-3.312 7.913-7.222 9.374-1.379.515-2.838.798-4.214 1.321-1.129.429-2.216 1.023-3.412 1.186-2.315.315-7.586-1.398-9.229-3.181-1.546-1.679 1.354-2.893 2.497-3.415 1.809-.826 3.655-1.629 5.314-2.705 1.217-.79 2.371-1.859 3.185-3.055 2.842-4.171 4.578-8.832 5.669-13.752.394-1.777 1.121-3.495 1.379-5.285.614-4.269 1.098-8.559 1.519-12.852.307-3.133.456-6.283.63-9.428.272-4.939.358-9.886.561-14.829.107-2.608.242-5.215.456-7.817.1-1.221 1.266-5.324.49-6.307-.693-.879-2.296.737-2.777 1.154-3.787 3.277-7.143 6.866-9.732 11.255-1.286 2.182-2.383 4.3-3.006 6.737-.517 2.022-1.899 2.836-3.955 2.498-.891-.146-1.782-.398-2.623-.729-2.027-.798-2.714-2.131-2.408-4.279.758-5.324 3.548-9.616 6.934-13.571 3.167-3.7 6.981-6.672 11.211-9.041 2.082-1.167 4.359-2.019 6.612-2.836 1.475-.535 2.266-1.384 2.727-2.902 1.248-4.109 3.405-7.715 6.32-10.898 2.201-2.402 4.979-3.157 8.051-3.305 1.652-.08 2.787.973 3.938 1.9.765.616.609 1.41.148 2.246-1.193 2.164-2.198 4.439-3.494 6.536-.877 1.419-2.116 2.633-3.211 3.881 1.581.651 3.202 1.197 4.824 1.739 3.748 1.159 6.959 3.278 9.543 6.102 1.325 1.448 2.085 3.567 2.654 5.514.645 2.208.521 4.525.349 6.883-.197 2.693-.562 5.332-1.54 7.755-1.643 4.071-3.465 8.107-6.399 11.489-.21.242-.361.536-.512.764.103.228.13.453.237.503 3.08 1.42 6.2 2.76 9.236 4.269.861.428 1.519.556 2.286.042 1.409-.944 3.088-1.807 4.354-2.934 1.566-1.395.734-2.013.436-4.139-.521-3.712-.229-7.508.51-11.17.82-4.066 1.849-8.127 3.518-11.935 1.346-3.071 3.708-8.37 7.321-9.133l3.72-.785c1.272-.269 2.56-.539 3.859-.486 4.261.171 7.372 3.753 8.475 7.639 1.368 4.822-.828 9.632-3.172 13.775-2.141 3.786-4.587 7.4-7.306 10.794-1.07 1.336-3.677 3.317-4.17 4.916-.585 1.896.771 4.518 1.634 6.124.193.359.409.724.743.957.593.412 1.407.306 2.076.034 2.531-1.028 5.018-2.377 6.597-4.687 2.055-3.006 4.135-5.995 6.189-9.001 2.043-2.99 3.704-5.439 4.027-9.131.353-4.034-.558-8.117.184-12.129 1.862-10.079 3.072-19.971 4.319-30.135.048-.39.127-.777.222-1.349-.638-.029-1.144-.172-1.579-.053-4.878 1.341-9.868 2.395-14.295 4.993-1.707 1.002-3.297 2.214-4.898 3.388-2.808 2.06-5.6 4.142-8.364 6.26-1.623 1.243-6.834 2.021-7.026-1.155-.117-1.935 3.401-5.707 4.727-6.956 6.337-5.967 13.892-9.91 22.214-12.327 2.616-.759 5.354-1.119 8.052-1.559 1.594-.26 2.698-.756 3.156-2.563.444-1.749 1.37-3.377 2.091-5.054.509-1.185 1.316-1.746 2.705-1.733 3.951.037 7.769 2.893 8.803 6.959 2.318-.375 4.675-.705 7.01-1.148 2.938-.557 5.85-1.252 8.791-1.791 1.229-.225 1.801-.706 2.051-2.032.615-3.258 1.342-6.51 2.287-9.686.457-1.537 1.711-5.478 3.252-6.303.723-.387 1.625-.045 2.291.435 2.069 1.493 4.321 2.776 5.988 4.761.657.783.957 1.505.812 2.473-.266 1.78-.581 3.563-.74 5.355 3.027-.149 6.413-2.809 8.846-4.437 2.96-1.981 5.744-4.215 8.442-6.537 2.331-2.006 4.546-4.147 6.812-6.23.819-.753 1.612-1.558 2.477-2.249.353 1.57-.064 2.846-.493 4.361-.461 1.628-.506 3.345-.88 4.996-2.159 9.526-12.633 15.64-21.134 18.46-1.486.493-2.983.973-4.504 1.336-1.047.25-1.571.78-1.677 1.844l-1.589 15.628c-.329 3.307-.655 6.615-.916 9.928-.353 4.474-.641 8.954-.96 13.431-.171 2.399-.254 4.809-.549 7.193-.367 2.97-.116 6.134 1.212 8.854.087.177.188.364.363.454.208.108.46.053.685-.014 1.985-.592 3.607-1.89 4.812-3.557 2.088-2.889 3.859-6.008 5.746-9.041.671-1.079.134-2.114-.267-3.1-2.206-5.415-2.283-11.119-1.632-16.727.761-6.554 4.186-13.872 8.705-18.687 3.153-3.36 9.042-5.031 13.532-4.295.944.155 1.879.622 2.716 1.117 1.284.759 2.557 1.574 3.697 2.529 2.684 2.25 4.331 4.976 3.723 8.695-.927 5.672-3.453 9.995-8.979 12.51-2.99 1.361-5.809 2.229-9.056 1.267-.881 2.229-.939 4.34-.728 6.513.495 5.094 1.176 9.691 3.483 14.308.249.499.675.98 1.231 1.018.287.02.567-.082.833-.191 5.496-2.236 9.568-7.166 12.427-12.195 3.627-6.381 6.894-12.93 8.738-20.072 2.158-8.357 4.159-16.754 6.233-25.133.287-1.159.372-2.219-.391-3.316-1.029-1.479-1.011-3.215-.308-4.785.965-2.154 2.682-7.832 4.956-8.805.637-.272 1.341-.345 1.997-.571.532-.184 1.029-.467 1.572-.617 1.242-.343 2.595.066 3.658.793 2.238 1.529 3.37 3.481 2.462 6.156-1.169 3.446-2.284 6.91-3.492 10.576.686.335 1.304.697 1.964.949 2.54.973 5.105 1.881 7.639 2.868 2.968 1.156 4.686 3.195 4.701 6.55.018 3.9.643 7.843-.59 11.65-.762 2.351-1.868 4.587-2.728 6.909-1.884 5.08-2.04 10.229-.385 15.401.518 1.618.994 1.991 2.556 1.428 1.93-.695 3.849-1.556 5.574-2.659 4.074-2.604 6.377-6.669 8.451-10.88.55-1.117 1.124-2.236 1.821-3.264 1.276-1.883 4.888-2.184 6.636-.744 1.868 1.54 2.23 3.818 1.853 6.1-.373 2.258-.942 4.943-2.234 6.862"/><path d="M211.937 313.229c1.672.055 2.361-.759 2.859-1.895 1.149-2.623 1.631-5.369 1.515-8.218-.021-.504-.234-.999-.417-1.731-2.995 3.533-4.496 7.221-3.957 11.845m71.636-4.449l-.122-.056c-1.311-.414-3.043 8.71-3.295 9.978-.514 2.581-1.591 6.834.239 9.118.103.129.224.257.384.294.149.034.302-.019.442-.081 2.593-1.155 2.356-5.68 2.54-8.009.267-3.374.528-6.969.204-10.346-.032-.336-.122-.729-.392-.898m-112.687-12.677l.022.026c.272.294.751.018 1.037-.262 1.85-1.811 3.427-3.853 4.851-6.011 2.878-4.362 3.915-9.116 2.87-14.269-.338-1.665-1.244-3.111-2.494-4.248-.124-.113-.268-.228-.436-.223-.166.005-.301.127-.421.241-1.317 1.258-2.336 2.535-2.827 4.339-.927 3.41-1.683 6.882-2.239 10.372-.499 3.132-.516 6.369-.478 9.533.002.175.01.365.115.501m94.165-14.622c.898-1.084 1.962-1.968 2.504-3.102 1.433-2.994 2.651-6.093 3.936-9.157 1.545-3.683 2.934-7.44 4.645-11.043 1.586-3.34 1.706-3.529-.754-6.28-.221-.248-.467-.474-.71-.702-2.127-2.005-3.87-1.851-6.007.188-1.765 1.683-2.32 3.997-3.527 5.963-1.402 2.284-2.152 4.839-2.469 7.512-.107.904-.262 1.802-.41 2.7-.543 3.31-.552 6.605.41 9.841.422 1.418 1.021 2.776 2.382 4.08m-8.933 1.04c-.42 1.508-.675 2.786-1.134 3.985-.675 1.762-1.473 3.48-2.271 5.192-.242.52-.689.939-.994 1.435-2.989 4.871-9.133 6.162-14.102 3.363-4.141-2.333-6.57-5.956-8.757-9.901-.321-.579-.609-1.175-.925-1.757-.025-.046-.149-.037-.51-.115-.46.709-1.002 1.505-1.501 2.328-.257.424-.322 1.031-.669 1.322-2.116 1.779-1.75 3.876-.968 6.11.575 1.641 1.03 3.325 1.522 4.994 1.731 5.875.899 11.486-1.858 16.852-.336.654-1.073 1.175-1.736 1.571-1.543.921-2.829 2.174-4.75 2.593-6.108 1.331-10.436-3.545-12.024-8.943-2.074-7.051 1.694-12.269 5.727-17.841 1.244-1.718 1.411-3.159.517-4.974-1.794-3.641-3.495-7.328-5.259-10.984-.78-1.616-1.622-3.202-2.679-5.279-.449 1.112-.853 1.742-.951 2.416-.944 6.457-3.37 12.502-5.137 18.73-.406 1.43-.529 2.959-1.068 4.33-1.972 5.022-3.783 10.138-6.199 14.945-1.981 3.942-5.243 7.073-8.767 9.736-2.691 2.034-5.906 2.358-9.017 1.092-4.151-1.688-7.664-4.316-10.062-8.207-4.484-7.275-5.679-15.172-4.085-23.484 1.161-6.058 2.92-11.943 5.521-17.576.886-1.919 2.251-3.199 3.87-4.355 2.863-2.044 6.244-2.587 9.58-3.142.883-.147 2.144.165 2.796.752 2.865 2.579 5.287 5.502 5.83 9.543.164 1.224.414 2.437.599 3.659.353 2.328-.407 4.435-1.336 6.501-.307.682-.757 1.318-.96 2.027-2.036 7.138-7.114 11.15-14.032 13.63-.102 4.84.664 9.521 3.112 14.097 4.23-2.304 7.634-5.038 9.752-9.059 2.794-5.305 5.195-10.791 6.913-16.558 1.874-6.292 3.864-12.551 5.655-18.866 1.111-3.917 2.006-7.9 2.876-11.88.333-1.524.447-3.123.446-4.688-.003-5.339 1.488-10.324 3.421-15.216.119-.301.285-.626.523-.829 1.606-1.367 6.252-1.074 7.949.358 1.116.941 1.49 1.978.902 3.294-1.875 4.2-2.096 8.656-2.241 13.162-.077 2.395.447 4.654 1.127 6.846 1.401 4.518 3.31 8.845 5.661 12.965.895 1.568 1.709 3.182 2.694 5.026.57-.588 1.011-.924 1.301-1.361 1.652-2.496 3.31-4.99 4.867-7.546.406-.667.637-1.55.642-2.337.035-5.766.615-11.457 1.953-17.075.644-2.704 1.655-3.273 4.273-2.219 2.637 1.061 4.492 3.093 6.293 5.15.437.5.501 1.369.623 2.089.081.48.051 1.021-.087 1.488-1.003 3.404-.671 6.907-.774 10.37-.114 3.806-.208 7.627.008 11.423.135 2.376.789 4.736 1.355 7.067.198.815.831 1.523 1.382 2.483 3.096-2.172 5.065-4.757 5.793-8.133.754-3.494 1.158-7.065 1.943-10.551 1.168-5.185 2.377-10.372 3.866-15.47 1.307-4.477 3.881-8.409 7.501-11.255 3.912-3.075 8.65-3.689 13.488-2.316 1.808.513 3.529 1.338 5.6 2.142.169-1.739.393-3.419.482-5.106.136-2.596.618-5.094 1.689-7.474.416-.924 1.025-1.493 2.096-1.438 1.077.055 1.725.454 2.254 1.552.626 1.299 1.626 2.494 2.697 3.482 1.433 1.322 2.328 2.831 2.368 4.749.117 5.652.185 11.305.229 16.957.02 2.615-.137 5.235.263 8.072 1.363-.584 1.635-1.641 2.027-2.594 2.786-6.768 5.477-13.576 8.382-20.292 1.943-4.491 4.177-8.856 6.313-13.262.322-.665.816-1.246 1.279-1.939 3.045-.186 5.971.24 8.485 2.004.941.66 1.863 1.822 2.113 2.911.926 4.037 1.605 8.134 2.299 12.221.247 1.458.271 2.954.437 4.911 1.683-1.807 2.659-3.582 3.759-5.262 2.732-4.173 5.457-8.353 9.035-11.88.591-.583 1.245-1.106 1.803-1.717 1.258-1.377 2.588-1.486 4.24-.635 1.445.743 3.088.881 4.521 1.929 1.99 1.455 2.773 3.335 2.753 5.53-.036 4.075-.831 8.023-2.002 11.966-1.808 6.083-3.6 13.625-1.805 19.923.065.228.143.463.305.635 1.763 1.872 7.957-2.755 9.237-3.878 4.201-3.684 7.089-8.103 8.056-13.704.607-3.51 4.199-2.107 6.61-1.278.514.177 1.032.379 1.449.728.708.593 1.027 1.518 1.316 2.396-2.019 3.4-2.534 7.22-4.254 10.684-1.609 3.24-3.878 6.125-6.722 8.369-5.535 4.369-13.344 6.847-19.798 3.205-1.024-.578-1.876-1.686-2.486-2.738-3.486-6.007-5.598-12.428-5.185-19.467.131-2.233.646-4.442.964-6.665.154-1.077.243-2.159.342-3.243-3.015 1.745-5.044 6.397-6.751 9.363-2.102 3.65-3.942 7.463-5.324 11.447-1.831 5.259-3.029 10.676-4.011 16.145-.321 1.788-1.732 3.21-3.516 3.535-1.971.36-3.394-1.067-4.601-2.461-3.821-4.409-2.849-8.769-2.709-14.036.193-7.267 2.029-14.304 2.922-21.471.149-1.192.518-2.356.887-3.984-1.405.992-1.587 2.138-1.978 3.148-1.676 4.326-3.268 8.687-5.046 12.97-.889 2.143-2.175 4.117-3.17 6.22-1.487 3.145-2.898 6.327-4.301 9.512-1.274 2.894-2.451 5.831-3.753 8.712-.741 1.64-1.04 3.247-.745 5.065 1.013 6.245 1.465 12.54 1.506 18.87.018 2.815.424 5.631.387 8.442-.047 3.658-.413 7.298-1.469 10.844-1.126 3.78-5.011 7.608-9.142 7.588-4.07-.019-8.174-3.741-9.561-7.397-1.642-4.326-1.232-9.405-.061-13.796 1.903-7.137 4-14.23 6.961-21.027.257-.59.457-1.309.373-1.926-.478-3.497-1.05-6.981-2.081-10.615-.353.772-.737 1.532-1.053 2.319-.942 2.347-2.681 4.042-4.74 5.315-3.274 2.024-6.781 1.531-9.994-.036-2.199-1.072-4.07-2.821-6.078-4.281-.445-.323-.848-.704-1.526-1.272"/><path d="M105.189 342.026l.035-1.232c.016-.668.027-1.361-.244-1.971-.749-1.686-3.569-1.599-5.097-1.446-2.358.236-5.138 1.18-6.87 2.839-2.086 1.998-3.029 5.018-2.838 7.902.233 3.514 2.097 6.754 4.234 9.463.27.343.566.691.968.861.641.27 1.375.021 2.003-.28 3.163-1.513 5.624-4.291 6.556-7.688.638-2.325 1.005-4.816 1.186-7.218.031-.41.051-.82.066-1.231m10.196-8.637c2.623.919 5.219 1.942 7.865 2.793 2.308.742 4.862 2.094 7.337 1.93 1.888-.125 3.597-1.2 4.961-2.512 3.614-3.477 6.136-7.745 7.32-12.624 1.547-6.373 1.618-12.866 1.934-19.331.149-3.032-.045-6.19-.74-9.135-1.746-7.397-4.172-14.569-9.28-20.471-1.555-1.797-2.951-3.809-5.463-4.68-1.778 3.437-3.123 6.468-3.868 10.257-.854 4.341-1.835 8.659-2.754 12.978-1.121 5.286-2.32 10.558-3.321 15.866-.916 4.859-1.624 9.758-2.405 14.643-.524 3.278-1.014 6.561-1.587 10.286m-32.434-59.033c-.644 1.268-1.307 2.528-1.854 3.84-.76 1.822-1.107 3.663-1.332 5.61-.407 3.504-.705 6.955-.488 10.485.222 3.605 1.98 6.47 4.514 8.62 2.104 1.784 5.906 2 8.488 2.569-.501.84-.707 1.854-.574 2.824.05.361.145.73.058 1.084-.311 1.268-3.226 1.87-4.28 1.85-4.578-.089-8.623-1.823-11.773-5.178-5.259-5.6-8.327-12.942-8.675-20.633-.227-5.013.85-10.132 3.42-14.44 4.355-7.298 12.755-12.38 20.682-14.916 9.4-3.008 18.64-2.371 27.735 1.153 2.505.971 4.891 2.263 7.285 3.499.846.437 1.462.375 2.232-.121 1.205-.776 2.475-1.453 3.738-2.134 3.294-1.778 6.889-1.868 10.497-1.799 2.562.049 4.269 1.382 5.49 4.438-1.011-.107-1.94.025-2.629-.321-2.61-1.309-5.246-.982-7.817-.171-2.248.709-4.504 1.719-6.591 2.811 2.224 1.613 4.483 3.178 6.681 4.828 1.07.799 2.148 1.623 3.066 2.585 4.55 4.769 6.789 10.622 8.453 16.929 1.349 5.114 2.99 10.652 2.824 15.965-.121 3.869.606 7.696.69 11.558.083 3.821-.539 7.904-1.369 11.63-1.057 4.743-4.128 8.828-6.989 12.652-.64.856-1.297 1.7-1.953 2.544-.231.297-.463.596-.735.858-2.492 2.403-7.054 3.382-10.374 3.187-5.461-.32-10.681-1.372-15.659-3.644-.385-.176-.868-.138-1.611-.241-.043-.006-1.059 5.316-1.188 5.822-.907 3.567-2.841 6.826-5.214 9.611-2.137 2.509-4.574 5.705-8.099 6.096-1.597.178-3.189-.278-4.73-.734-2.607-.772-4.562-1.827-6.026-4.185-5.081-8.181-2.612-19.583 4.996-25.317 1.38-1.04 3.287-1.496 4.961-1.956 1.66-.455 3.363-.701 5.078-.849 1.515-.131 2.003-.946 2.134-2.239.19-1.883.274-3.781.552-5.651 1.02-6.856 1.831-13.759 3.228-20.54 1.687-8.191 3.83-16.296 6.782-24.145 1.582-4.208 3.462-8.279 6.214-11.885.268-.352.471-.755.689-1.143.036-.065-.008-.174-.037-.531-.425-.299-.942-.815-1.565-1.076-4.223-1.767-8.379-3.661-12.849-4.845-5.937-1.574-10.817.568-15.244 4.007-2.096 1.629-4.034 3.447-5.941 5.291-.897.867-1.94 1.658-2.744 2.61-.766.907-1.276 1.996-1.801 3.051l-.346.687"/><path d="M244.718 234.805c.07 2.438-1.482 4.153-3.934 5.321-2.257 1.076-4.375.684-6.35-.55-2.794-1.744-3.297-3.445-4.704-6.123-.284-.54-.762-.948-1.141-1.426-1.999-2.519.82-5.862 3.562-5.597 3.626.349 7.22.936 10.243 3.275 1.597 1.235 2.393 2.732 2.323 5.101"/><path d="M651.26 190.206c-2.411-.001-4.958-2.058-5.77-4.666-.197-.631-.314-1.293-.569-1.897-1.124-2.664-.614-4.03 2.082-4.536 2.808-.527 5.435.535 7.778 1.912 1.582.93 2.433 4.774 1.853 6.371-.661 1.819-2.566 2.817-5.374 2.815"/></g></g></svg>