<?xml version="1.0" encoding="utf-8"?>
<!-- Generator: Adobe Illustrator 19.2.1, SVG Export Plug-In . SVG Version: 6.00 Build 0)  -->
<svg version="1.1" id="Layer_1" xmlns="http://www.w3.org/2000/svg" xmlns:xlink="http://www.w3.org/1999/xlink" x="0px" y="0px"
	 viewBox="0 0 800 600" style="enable-background:new 0 0 800 600;" xml:space="preserve">
<style type="text/css">
	.st0{fill:#232323;}
	.st1{display:none;opacity:0.3;}
	.st2{display:inline;fill:#FFFFFF;}
	.st3{fill:#FFFFFF;}
</style>
<title>Group 2</title>
<desc>Created with Sketch.</desc>
<path class="st0" d="M0,600h800V0H0V600z"/>
<g class="st1">
	<path class="st2" d="M253,443.5c-0.3,0.4-0.4,0.5-0.4,0.6c-0.7,7.6-0.6,15.3,0.7,22.9c0.2,1,0.7,2,1.1,2.9c1.4-0.5,2.1-1.1,2.2-2.5
		c0.1-1.1,0.2-2.2,0.1-3.2c-0.5-5.6-1.3-11.2-2.7-16.7C253.6,446.2,253.3,445,253,443.5 M192.6,339.8c-0.1-0.1-0.3-0.2-0.5-0.2
		c-1.6,0-3.2,1.3-3.9,2.6c-1.1,2.3-1.5,4.5-1,7.1c0.3,1.9,0.9,3.6,1.3,5.5c0.4,1.7,0.8,3.7,2.4,4.6c1.3-2.8,1.2-6.2,1.5-9.2
		C192.6,348.9,194,341.1,192.6,339.8 M210.6,425.9L210.6,425.9c-0.4-0.2-0.8,0-1,0.3c-2.2,3-3.5,7.6-4.9,11c-1.7,4-2.5,8.2-2.2,12.6
		c0.2,3.1,4.1,5.3,6.5,3.6c2.9-2.1,4.9-4.8,5.1-8.7c0.1-3.4-0.3-6.6-1-9.9C212.8,433.3,211.9,426.7,210.6,425.9 M315.3,383.1
		c1.2-1.1,2.2-1.8,2.8-2.7c2.7-4.3,5.2-8.7,7.8-13.1c0.9-1.6,1.6-3.3,2.3-4.9c0.5-1.3,1.1-2.6,1.4-4c0.4-1.8,0.5-3.6,0.8-5.4
		c0.6-4.4,1.3-4.2-3.4-6.2c-3.1-1.3-6.8,0.1-8.1,3.1c-0.5,1.1-0.9,2.1-1.4,3.2c-1,2.6-2.4,5.1-3,7.8c-0.7,2.8-0.6,5.8-1.2,8.7
		c-0.5,2.9,0,5.8,0.6,8.6C314.1,379.7,314.7,381.2,315.3,383.1 M276,382v-1.5c0-3.9-1.1-7.5-2.2-11.2c-0.3-1.1-0.9-2.1-2.2-1.9
		c-2,0.3-3.9,0.6-5.3,2.4c-1.3,1.6-2.5,3.3-3.1,5.3c-1.5,4.8-2.9,9.7-4.4,14.5c-1,3-1,5.8,0,8.8c0.5,1.4,4.3,4.9,5.8,5
		c0.5,0,1-0.1,1.5-0.2c3.4-0.8,5.9-2.8,7-6.1C274.7,392.2,276.3,387.2,276,382 M243.8,435.6c0.1-3.5,0.2-7,0.5-10.5
		c0.3-3.9,0.8-7.8,0.8-11.7c0.1-2.8-0.3-5.6-0.5-8.4c-0.4-4.4-1-8.7-1.5-13.1c0-0.2-0.1-0.5-0.2-0.8c-2.5,0.6-4.6,1.9-6.4,3.6
		C231,399.8,225.7,405,221,411c-1.3,1.7-1.5,3-0.6,4.9c1.6,3.5,3,7.2,4.2,10.9c2.4,7.8,2.4,22.7-4.9,28c-8.5,6.2-17.4,3.5-23.1-4.8
		c-0.2-0.3-0.4-0.8-0.4-1.2c-0.7-4.6-0.9-9.1,0.9-13.5c2.2-5.5,4.9-10.8,8.2-15.7c1.3-1.9,1.2-3.4,0.1-5.2c-2.4-4.1-4.7-8.2-7-12.4
		c-1.3-2.3-2.4-4.7-3.6-7.1c-0.3-0.6-0.8-1.2-1.4-2.1c-0.5,0.9-0.8,1.5-1,2.1c-1.3,4.6-2.5,9.3-3.9,13.9c-2.6,8.7-4.7,17.5-6.5,26.4
		c-0.9,4.5-1.7,9-2.6,13.5c-0.8,4.2-1.6,8.3-2.4,12.5c0,0.2-0.1,0.3-0.1,0.5c-0.1,1.7-0.1,3.4-1.6,4.5c-2,1.5-4.2,2.7-6.8,2.7
		c-3.8,0.1-3.9-0.3-3.7-4.1c0.3-6,2-11.7,3.2-17.5c1.5-7.3,2.9-14.7,4.7-21.9c1.8-7.2,4.2-14.2,6.2-21.3c1.5-5.3,2.7-10.6,4.1-15.9
		c0.7-2.6,1.4-5.1,2.3-7.6c0.4-1.2,0.5-2.2-0.2-3.3c-3.8-6.8-6.4-14.8-6.2-22.7c0.1-7.6,4-17.9,13-17.8c2.7,0,5.5,0.7,7.5,2.5
		c1.6,1.5,2.4,3.7,2.8,5.9c1.3,8.8-1.2,20-3.9,28.4c-0.3,0.9-0.1,2.2,0.4,3c1.7,3,3.7,5.9,5.5,8.8c2.1,3.5,4.1,7.2,6.2,10.8
		c0.8,1.4,1.7,2.8,2.5,4.3c0.6,1.1,1.2,2.2,1.6,3.3c0.7,1.7,1.1,1.8,2.3,0.5c2.8-3,5.6-6,8.4-8.9c2.8-2.8,5.6-5.7,8.6-8.3
		c2-1.7,4.3-3.1,6.5-4.6c1.1-0.7,1.4-1.5,1.2-2.9c-0.7-5.5-0.7-11.1,0.4-16.6c0.2-0.9,0.6-1.3,1.4-1.6c2.7-0.8,6.2-0.4,8.2,2
		c0.8,1,1.5,2,2.1,3.1c0.6,1.1,0.9,2.3,1.5,3.7c1.4-1.9,2.4-4.2,4.4-5.6c2-1.4,4.4-2.1,6.7-2.6c1.5-0.3,3-0.2,4.5-0.3
		c5.9-0.5,12.6,3.1,15.2,9.1c1.8,4.3,3.4,8.7,3.4,13.4c0,1.2-0.1,2.5-0.2,3.7c0,0.5,0,1.1-0.1,1.8c1.3-0.4,1.4-1.4,1.7-2.2
		c2.4-6.2,4.8-12.4,7.1-18.7c0.8-2.3,1.2-4.8,1.8-7.2c1.3-5.3,4.3-9.7,7.5-14c1.3-1.8,2.9-3.4,4.4-5c0.6-0.6,1.5-1.1,2.3-1.4
		c4.5-1.5,9.1-1.7,13.8-1c1.3,0.2,2.6,0.4,3.9,0.6c0.9-2.5,1.7-4.7,2.5-7c1-2.6,1.5-2.9,4.3-2.4c1.7,0.4,3.4,0.8,4.9,1.6
		c2.6,1.3,3.6,3.5,2.9,6.4c-0.9,4.1-1.9,8.5-1.9,12.8c0,4.4,0.1,8.7-0.4,13.2c-0.2,2.1-0.1,4.3,0,6.5c0,0.8,0.3,1.6,0.6,2.5
		c1.9-0.8,2.7-2.3,3.7-3.5c2-2.7,4.1-5.5,5.6-8.5c0.8-1.6,0.9-3.7,1-5.5c0.2-3,0-6,0.2-9c0.3-5.5,0.5-11,1-16.4
		c0.2-1.9,0.9-3.8,1.5-5.6c0.2-0.8,0.6-1.6,1.4-2c1.7-0.8,5.5,0.3,7,1c2.1,0.9,3.2,2.6,4.2,4.4c0.4,0.8,0.4,2,0.2,2.9
		c-0.3,2-0.9,3.9-1.2,5.8c-0.2,1.1-0.1,2.4,0.4,3.4c1.9-2.8,2.8-6.3,4.3-9.4c1.7-3.5,3.5-6.8,5.9-9.9c0.7-0.9,1.5-1.9,2.5-2.5
		c1.6-1.1,3.7-1.4,5.6-1.1c4.6,0.5,8.3,2.5,10.4,6.7c0.5,1.1,1.1,2.7,2,3.4c2.5-3.4,4.4-7.1,6.3-10.8c1.6-3,3.3-7.5,6.4-9.3
		c1.4-0.9,3.2-0.7,4.8-0.3c5.6,1.4,9.3,3.2,10.6,9.3c1,4.8,0.4,9.9-0.6,14.6c-1.3,6.3-3.3,12.4-3.6,18.8c0,1,0.1,1.9,0.2,3.2
		c0.7-0.4,1.3-0.5,1.7-0.8l4.7-4.2c3.9-3.7,5.6-8.7,8.3-13.1c0.7-1.2,1.3-1.6,2.6-1.2c2.3,0.7,4.8,3.9,5,6.3c0.1,1-0.2,1.8-0.6,2.8
		c-1,2.4-1.9,4.8-2.9,7.2c-0.9,2.1-2.6,3.8-4,5.6c-2.9,3.7-7.8,7.3-12.7,6c-4.6-1.2-9-3.5-11.6-7.7c-2.9-4.6-3.9-9.8-3.7-15.2
		c0.2-4.8,1.9-9.2,3.7-13.6c0.8-2,1.2-4.3,1.8-6.4l-0.6-0.3c-0.9,1.4-1.9,2.8-2.8,4.2c-5.2,8.1-9.3,16.7-12.6,25.7
		c-1.1,3.1-2.5,6.2-3.5,9.3c-0.7,1.9-1.1,3.9-1.5,5.9c-0.8,4.5-6,3.6-8.9,1.6c-3.8-2.6-3.9-8.8-3.4-12.9c0.9-7.1,3-13.8,4.3-20.7
		c0.2-1.2,0.4-2.4,0.5-3.6c0.1-0.8,0.6-2.6,0.3-3.4c-0.4-1-2.6,1.8-2.9,2.3c-1.8,3.1-3.7,6.1-5.2,9.4c-2.8,6.2-5.4,12.5-7.9,18.8
		c-1.2,3-2.2,6.1-3.1,9.2c-0.4,1.4-0.9,2.7-1.3,4.1c-0.4,1.4-0.3,2.9-0.8,4.3c-0.4,1-1.2,1.8-2.2,2.1c-1,0.3-2.1,0-3.1-0.2
		c-2.4-0.5-4.1,0.5-5.5,2.5c-1.5,2.1-3.4,4.1-5.9,5.2c-0.6,0.3-1.2,0.6-1.8,0.7c-3,0.1-5.9-0.3-8.7-1.6c-2-1-3.8-2-4.9-4
		c-0.1-0.3-0.5-0.4-0.8-0.7c-0.8,1.4-1.6,2.7-2.2,4c-1.7,3.6-4.2,6.6-7.6,8.7c-1.1,0.7-2.4,1.1-3.7,1.3c-7.6,0.9-13.1-3-17.2-9.1
		c-0.6,1.1-1,2.3-1.6,3.4c-2.2,4.5-4,9.1-7.2,13c-3.5,4.2-7.5,7.7-12.5,10c-6.4,3-12.8,2.3-19.1-0.2c-0.7-0.3-1.3-0.6-2-0.8
		c-0.2,0.4-0.4,0.6-0.4,0.8c0.6,3.2,1.1,6.4,1.7,9.6c0.3,1.4,0.5,2.8,0.7,4.2c1,5.9,2,11.8,2.9,17.7c0.6,3.9,1.4,7.8,1.7,11.8
		c0.3,4.3,0.6,8.6,0,12.8c-0.4,3.2-1.1,7.4-4.4,8.9c-1.1,0.5-2.4,0.8-3.7,1c-1.4,0.3-2.9,0.6-4.4,0.6c-5,0-8.6-4.4-9.6-9
		c-1.1-4.8-1.4-9.7-1.5-14.6c-0.1-4.9-0.1-9.9,0-14.8L243.8,435.6"/>
	<path class="st2" d="M621.4,283.2c7.9-6.4,9.2-18.5,5.9-24.6c-1.9,2.1-3.2,4.5-3.9,7.1c-0.6,2.3-1.1,4.7-1.4,7.1
		C621.5,276.1,621,279.5,621.4,283.2 M531.9,313.6l0.6,0.3c1.1-1.6,2.5-3.1,3.3-4.8c2-4.3,3.8-8.7,4.3-13.5c0.2-1.9,0.1-3.8-0.3-5.7
		c-0.6-2.5-2.5-2.7-4.2-1c-1.9,1.9-2.3,4.8-2.7,7.2l-0.9,6.2C531.4,306.1,531.3,309.8,531.9,313.6 M668,254l-4.9-2.8
		c-0.7,2-1.4,3.9-1.9,5.9c-2.1,7.3-4.4,14.5-6.1,21.9c-1,4.6-3,8.7-4.5,13.1c-1.1,3.4-2.5,6.7-3.6,10.1c-1.2,3.9-2.5,8-5.1,11.2
		c-2.3,2.9-5.5,4.9-9.1,5.7c-4.6,1-8.8-0.7-12.3-3.5c-5.7-4.3-9.1-9.9-11.5-16.5c-0.3-0.9-0.6-1.7-0.9-2.7c-5.1-1.6-9-5.1-12.9-9.2
		c-0.3,1.7-0.5,2.9-0.7,4c-0.7,4.6-1.3,9.2-2,13.8c-0.3,2.3-0.6,4.7-0.9,7c-0.3,2.2-1.2,4.2-1.9,6.3c-1.3,4-2.7,7.8-6.3,10.1
		c-3.2,2-6.2,0.5-9-1.4c-1.9-1.2-3.6-2.7-5.1-4.4c-0.7-0.8-1.5-1.6-2-2.6c-0.5-1-0.8-2.1-1.3-3.1c-0.3-0.5-0.6-0.9-1-1.3
		c0,0.8-0.5,1.5-0.9,2.2c-0.4,0.8-0.7,1.6-0.7,2.6c0,0.4,0.1,0.8,0.1,1.2c-0.2,1.6-1.2,3.4-1.8,4.9c-0.6,1.7-1.3,3.4-1.8,5.2
		c-0.9,2.7-2.7,4.5-4.6,6.5c-5.1,5.3-11.6,5.5-18.2,4.7c-1.3-0.2-2.6-0.6-3.7-1.3c-3.6-2.2-7.1-4.7-9.8-8c-3.7-4.5-5.7-9.7-5.8-15.6
		c-0.2-6.3,0.2-12.5,1.6-18.6c0.8-3.5,2.1-7,4-10c2.4-3.7,6.1-4.9,10.3-5.8c3.2-0.6,6.4-1,9.6-0.2c2.3,0.6,4,1.9,5.1,4
		c1.8,3.5,2,7.4,1.7,11.2c-0.5,5.1-2.1,9.9-4.9,14.2c-2.6,3.9-5.5,7.5-10,9.3c-1.6,0.6-1.8,1-1.4,2.7c0.7,3.5,2,6.7,4.1,9.5
		c1.6,2.1,2.6,2.3,4.8,0.7c2.8-2,5-4.5,6.4-7.8c1.6-3.8,3.5-7.5,5.3-11.3c0.8-1.7,1.5-2.8,2.6-4.2c0.3-0.4,0.5-0.8,0.8-1.2
		c2.1-3.6,4.4-7.5,4.2-11.8c-0.2-3.8-0.2-7.7-0.1-11.5c0.1-2,0.2-4.1,0.3-6.1c0.1-1.1-0.1-4.1,0.9-4.8c1.2-0.8,4-0.8,5.4-0.8
		c2,0.1,3.8,0.7,5.4,1.9c2.1,1.6,2.9,3.4,2.5,6.2c-0.8,6.1-0.6,12.4,0,18.5c0.3,3.1,0.7,6.2,1.3,9.2c0.1,0.7,1.7,7.8,1.7,7.8
		c2.2-1.8,3-5.8,3.8-8.4c0.9-3.3,1.5-6.7,2-10c0.4-2.6,0.3-5.5,1.1-8.1c0.2-0.6,0.5-1.2,0.7-1.9c1.8-4.7,1.3-10.4,2-15.4
		c0.4-2.9,1.1-5.7,1.7-8.5c0-0.2,0.1-0.3,0.2-0.5c0.1-0.1,0.3-0.2,0.4-0.2c2.2-0.5,5.5-1.5,7.7-0.9c0.9,0.2,1.5,1,2,1.7
		c1.5,2.5,1.3,5.4,1.6,8.2c0.3,3,0.8,6,2.1,8.7c0.9,1.7,1.6,3.4,3.5,5.1c0.1-1.7,0.2-2.8,0.2-4c0.2-6.2,0.4-12.3,2.2-18.3
		c1.5-4.9,4-9.2,8.1-12.3c1.2-0.9,3-1.5,4.5-1.7c2.2-0.3,4.5,0,6.7,0c4,0,7.5,3.3,7.7,7.3c0.5,7.9,1.1,17.2-3.9,23.9
		c-1.6,2.1-2.8,4.5-4.8,6.3c-0.8,0.7-6.5,3.5-6.5,4.3c-0.1,6.4,2,13.3,5.2,16.7c1.9-0.5,3.4-1.6,4.3-3.4c1.6-3.1,3.2-6.2,4.6-9.4
		c1-2.2,1.6-4.5,2.7-6.7c1.2-2.2,2.6-4.3,3.5-6.6c1.6-3.8,2.8-7.8,4.1-11.7c2-5.9,3.8-11.9,5.5-17.9c0.7-2.3,1.5-4.6,2.2-6.9
		c0.7-2.1,1.7-4.3,2-6.5c0.4-2.6-0.1-5.2,0.3-7.9c0.4-2.6,1.1-5.2,2.1-7.7c1.4-3.6,6.3-2.5,9.3-2.1c0.8,0.1,1.3,0.7,1.5,1.7
		c0.5,2.4,0.3,4.6-0.8,7c-1.4,2.9-2,6.2-2,9.4c0,2.8,0.6,3.5,3.4,4.4c2.5,0.9,5,1.7,7.4,2.9c4.4,2.3,5.3,4.5,4.3,9.3
		c-1.2,5.9-2.1,11.9-3.6,17.8c-0.8,3.3-1.2,6.7-1.2,10.1c0,1.4,0,8.4,1.8,8.3c2.4-0.2,4.8-2,6.5-3.5c2.1-1.8,3.8-4,5.6-6.1
		c2.8-3.3,5.5-6.5,7.7-10.2c0.2-0.3,0.4-0.6,0.6-0.7c0.3-0.1,0.7-0.1,0.9,0.2c0.1,0.1,0.1,0.2,0.1,0.3c0.6,3.1,1.4,6,0.5,9.2
		c-0.6,2.2-1.2,4.5-2,6.7c-0.3,0.7-0.5,1.3-0.8,1.9l-0.7,1.4c-0.4,0.9-0.8,1.8-1.4,2.5c-0.6,0.8-1.5,1.4-2.2,2.1
		c-3,3.2-6.9,4-10.9,4.9c-2,0.4-5.1-0.4-7-1.2c-2.3-0.9-4.2-2.6-5.9-4.5c-2.2-2.4-4.2-5.2-5.7-8.1c-1.6-3-2-6.1-2.1-9.5
		c-0.3-8.5,2.9-16.4,5.4-24.4C667.6,255.7,667.8,254.9,668,254"/>
	<path class="st2" d="M495.7,323.5c0.6-0.6,0.7-5,0.8-5.8c0.8-6.3,1.4-12.6,2.3-18.8c1-6.8,2.1-13.6,3.3-20.4
		c0.2-1.2,0.7-2.4,1.1-3.5c2.1-5.8,4.3-11.4,7-16.9c1.8-3.8,5.8-4.7,9.5-5.8c2.5-0.8,3.9,1.1,5.1,2.9c0.1,0.2,0.2,0.4,0.2,0.6
		c0,0.2-0.1,0.5-0.3,0.7c-2.2,3.1-4.5,6-6.3,9.4c-1.2,2.2-2.3,4.4-3.4,6.7c-2.5,5.5-3.7,11.3-4.6,17.2c-1.3,7.8-2.9,15.5-4.3,23.3
		c-0.8,4.4-1.1,8.8-1.8,13.2c-1.1,6.6-1.5,12.9-1.6,19.5c0,1.4,0.2,2.8,0.4,4.2c0.7,3.9,1.2,7.9,2.3,11.7c0.5,1.8,1.5,7.3-1.1,8.1
		c-0.6,0.2-1.2,0.1-1.8-0.1c-1.2-0.4-2.4-0.6-3.6-0.9c-3.8-1.1-6.2-3.8-7.6-7.3c-1.2-2.9-2.3-5.9-3.3-8.9
		c-2.2-6.8-4.4-13.6-6.4-20.5c-1.5-5.2-2.6-10.5-3.9-15.7c-0.1-0.3-0.6-3.6-1.3-2.4c-0.4,0.7,0,3,0,3.7c0.1,5.2,0.1,10.5,0.2,15.7
		c0,1.7,0.5,3.5,0.4,5.2c-0.1,4.1-0.2,8.3-0.6,12.4c-0.8,7.5-2.6,14.9-4.6,22.1c-2.2,7.9-5.8,15.3-12.3,20.5
		c-1.1,0.9-2.3,1.7-3.7,2.2c-2.6,1-5.7,0.6-8-1.1c2.4-3,5.4-5,7.6-8.4c2.5-3.8,3.9-8.1,5.1-12.4c2-6.9,3.4-13.9,4.7-20.9
		c1-5.4,1.4-10.9,1.5-16.3c0-5.4,0-10.8,0.2-16.1c0.2-5.8,0.7-11.6,0.9-17.4c0.1-3-0.3-6-0.5-8.9c-0.2-3.1-0.4-6.3-0.6-9.4
		c0-0.4,0-0.8-0.2-1.1c-0.1-0.4-0.4-0.7-0.5-1.1c-0.4-0.9-0.1-1.9,0.1-2.9c0.1-0.3,0.1-0.5,0.3-0.7c0.2-0.2,0.4-0.3,0.6-0.4
		c1.8-0.7,3.6-1.3,5.3-2.2c1.2-0.5,2.2-0.3,3.3,0.4c3.7,2.7,6.6,6,8.1,10.4c1.8,5.2,4.1,10.3,5.9,15.6c1.2,3.7,2,7.5,3,11.3
		c0.3,1,2.1,9.4,2.8,9.2L495.7,323.5"/>
	<path class="st2" d="M724.8,273.9c0.9,0,1.8-0.1,2.6,0c3.3,0.5,4.6,2.8,5.3,5.8c0.6,2.3-0.3,5.1-2.2,6.4c-2.9,2-7.6,2.6-10.5-0.7
		c-1-1.1-1.9-2.2-2.8-3.4c-0.9-1.3-0.9-2.6-0.1-4C718.8,275,721.2,273.4,724.8,273.9"/>
	<path class="st2" d="M430.5,253.9c2.1-0.3,3.2-1.1,3.9-2.8c1.2-2.9,1.8-6,2.1-9.1c0-0.5-0.2-1-0.4-1.9
		C432.8,244.4,429.6,248.2,430.5,253.9 M466,190.5c-0.9,1.1-1.7,1.8-2.2,2.7c-0.8,1.6-1.8,3.3-2,5c-0.3,2.7-0.1,5.6-0.1,8.3
		C465.4,203.7,468.1,194.5,466,190.5 M559.9,162.3c-1.7,0.6-2.2,2-2.6,3.3c-0.7,2.4-1.4,4.8-2,7.1c-0.4,1.6-0.8,3.2-1.3,4.9
		c5.1-2.1,7.6-7.1,7.6-11.8C561.5,164.5,561,163.3,559.9,162.3 M416.9,218c0.7-0.4,0.9-0.5,1.1-0.7c3.5-3.6,5.6-8,7.6-12.5
		c0.9-2.1,1.7-4.3,2.2-6.6c0.6-2.8,0.9-5.8-0.2-8.6c-0.2-0.6-0.6-1.4-1-1.6c-2.2-0.9-4.4-2-6.9-1.1c-1.4,3.9-2.3,7.7-2.5,11.7
		c-0.2,4.1-0.3,8.3-0.4,12.4C416.8,213.3,416.9,215.5,416.9,218 M498.6,221.5c0.6-0.3,1.2-0.6,1.7-1c1.4-1.3,2.8-2.6,4.1-4
		c3.1-3.4,5.3-7.4,7.2-11.6c1.3-2.9,2.8-5.6,2.7-9c0-1.1,0.2-2.3,0.4-3.5c1.2-10.1,2.5-20.3,3.7-30.4c0.1-1.1,0-2.3,0-3.6l-3.5,0.6
		c-4,0.7-8,1.4-12,2c-1.8,0.3-2.2,0.4-2.5,2.1c-0.4,2.9-0.6,5.8-0.9,8.6c-0.2,2.1-0.4,4.3-0.6,6.5c-0.5,5.4-0.5,10.9-1.2,16.2
		C496.5,202.5,492.7,214.4,498.6,221.5 M631,188.1c-1.7,2.6-3.6,5-5.8,7.2c-3.6,3.4-7.5,5.1-12.3,5c-4-0.1-8.3-0.8-11.6-3.4
		c-3.4-2.8-6.5-7.7-7.9-11.8c-0.4-1.1-0.5-2.2-0.7-3.4c-1.4-7-0.5-13.7,2.3-20.2c0.6-1.4,1.1-3,1.5-4.5c0.5-1.7,0.3-1.9-1.5-2.4
		c-0.6-0.2-1.3-0.3-2-0.4c-1.1,4.3-2.2,8.5-3.3,12.7c-1.3,4.6-2.7,9.1-3.8,13.7c-0.7,2.9-1.5,5.7-2.8,8.4c-0.4,0.9-0.2,2.1-0.6,3.1
		c-0.7,1.8-1.6,3.5-2.6,5.1c-2,3-4,6.2-6.3,8.9c-3.3,3.8-7.9,6.4-13,6.6c-2.5,0.1-4.9-0.4-7.3-1.2c-2.4-0.8-4.5-3.2-6.9-3.4
		c-0.2,0-0.4,0-0.5,0.1c-0.2,0.1-0.2,0.3-0.2,0.5c-0.9,4.5-3.7,8.8-8.5,10.2c-3.1,0.7-6.2,0.9-9.4,0.5c-1.7-0.2-3.3-1.1-4.6-2.4
		c-1.4-1.4-2.9-2.6-4.3-3.9c-1.7,2.9-3.2,5.7-5,8.2c-1.6,2.1-3.4,4.1-5.4,5.8c-3,2.6-6.9,3.2-10.6,2.5c-2.2-0.5-4.1-2.4-6.1-3.8
		c-1.5-1.1-3-2.3-4.6-3.5c-0.8,1.8-1.6,3.4-2.3,5.1c-2.5,5.6-7.3,8.5-12.9,10.2c-2.9,0.9-5.9,1.3-9.1,0.3c-2.9-0.9-5.3-2.2-7.2-4.6
		c-0.9-1.2-1.9-2.3-2.8-3.5c-0.7-1-1.4-1.3-2.5-0.5c-1.5,1-3,2-4.7,3.1c0.2,0.8,0.4,1.5,0.6,2.2c1.9,6.9,0.8,13.5-1.9,20
		c-0.3,0.7-0.8,1.3-1.3,1.8c-1.5,1.2-3,2.3-4.6,3.3c-0.9,0.5-2,0.8-3,0.7c-1.9-0.1-3.8-0.5-5.6-1c-2.7-0.7-7.8-4.6-8.4-7.5
		c-0.4-2.2,1.8-5.7,2.8-7.5c1.6-3.1,4-5.7,6.5-8.2c1-1,4.2-3,4.2-4.6c0-2.8-2.1-3.5-4.3-4l-0.2,0c-3-0.8-5.6-0.2-8.1,1.7
		c-1.6,1.3-3.8,1.8-5.7,2.7c-0.9,5.8-1.7,11.7-2.7,17.6c-0.4,2.4-1.1,4.7-1.8,7c-0.7,2.3-1.3,4.6-2.2,6.9c-1.4,3.6-3.3,7.9-7.2,9.4
		c-1.4,0.5-2.8,0.8-4.2,1.3c-1.1,0.4-2.2,1-3.4,1.2c-2.3,0.3-7.6-1.4-9.2-3.2c-1.5-1.7,1.4-2.9,2.5-3.4c1.8-0.8,3.7-1.6,5.3-2.7
		c1.2-0.8,2.4-1.9,3.2-3.1c2.8-4.2,4.6-8.8,5.7-13.8c0.4-1.8,1.1-3.5,1.4-5.3c0.6-4.3,1.1-8.6,1.5-12.9c0.3-3.1,0.5-6.3,0.6-9.4
		c0.3-4.9,0.4-9.9,0.6-14.8c0.1-2.6,0.2-5.2,0.5-7.8c0.1-1.2,1.3-5.3,0.5-6.3c-0.7-0.9-2.3,0.7-2.8,1.2c-3.8,3.3-7.1,6.9-9.7,11.3
		c-1.3,2.2-2.4,4.3-3,6.7c-0.5,2-1.9,2.8-4,2.5c-0.9-0.1-1.8-0.4-2.6-0.7c-2-0.8-2.7-2.1-2.4-4.3c0.8-5.3,3.5-9.6,6.9-13.6
		c3.2-3.7,7-6.7,11.2-9c2.1-1.2,4.4-2,6.6-2.8c1.5-0.5,2.3-1.4,2.7-2.9c1.2-4.1,3.4-7.7,6.3-10.9c2.2-2.4,5-3.2,8.1-3.3
		c1.7-0.1,2.8,1,3.9,1.9c0.8,0.6,0.6,1.4,0.1,2.2c-1.2,2.2-2.2,4.4-3.5,6.5c-0.9,1.4-2.1,2.6-3.2,3.9c1.6,0.7,3.2,1.2,4.8,1.7
		c3.7,1.2,7,3.3,9.5,6.1c1.3,1.4,2.1,3.6,2.7,5.5c0.6,2.2,0.5,4.5,0.3,6.9c-0.2,2.7-0.6,5.3-1.5,7.8c-1.6,4.1-3.5,8.1-6.4,11.5
		c-0.2,0.2-0.4,0.5-0.5,0.8c0.1,0.2,0.1,0.5,0.2,0.5c3.1,1.4,6.2,2.8,9.2,4.3c0.9,0.4,1.5,0.6,2.3,0c1.4-0.9,3.1-1.8,4.4-2.9
		c1.6-1.4,0.7-2,0.4-4.1c-0.5-3.7-0.2-7.5,0.5-11.2c0.8-4.1,1.8-8.1,3.5-11.9c1.3-3.1,3.7-8.4,7.3-9.1l3.7-0.8
		c1.3-0.3,2.6-0.5,3.9-0.5c4.3,0.2,7.4,3.8,8.5,7.6c1.4,4.8-0.8,9.6-3.2,13.8c-2.1,3.8-4.6,7.4-7.3,10.8c-1.1,1.3-3.7,3.3-4.2,4.9
		c-0.6,1.9,0.8,4.5,1.6,6.1c0.2,0.4,0.4,0.7,0.7,1c0.6,0.4,1.4,0.3,2.1,0c2.5-1,5-2.4,6.6-4.7c2.1-3,4.1-6,6.2-9c2-3,3.7-5.4,4-9.1
		c0.4-4-0.6-8.1,0.2-12.1c1.9-10.1,3.1-20,4.3-30.1c0-0.4,0.1-0.8,0.2-1.3c-0.6,0-1.1-0.2-1.6-0.1c-4.9,1.3-9.9,2.4-14.3,5
		c-1.7,1-3.3,2.2-4.9,3.4c-2.8,2.1-5.6,4.1-8.4,6.3c-1.6,1.2-6.8,2-7-1.2c-0.1-1.9,3.4-5.7,4.7-7c6.3-6,13.9-9.9,22.2-12.3
		c2.6-0.8,5.4-1.1,8.1-1.6c1.6-0.3,2.7-0.8,3.2-2.6c0.4-1.7,1.4-3.4,2.1-5.1c0.5-1.2,1.3-1.7,2.7-1.7c4,0,7.8,2.9,8.8,7
		c2.3-0.4,4.7-0.7,7-1.1c2.9-0.6,5.8-1.3,8.8-1.8c1.2-0.2,1.8-0.7,2.1-2c0.6-3.3,1.3-6.5,2.3-9.7c0.5-1.5,1.7-5.5,3.3-6.3
		c0.7-0.4,1.6,0,2.3,0.4c2.1,1.5,4.3,2.8,6,4.8c0.7,0.8,1,1.5,0.8,2.5c-0.3,1.8-0.6,3.6-0.7,5.4c3-0.1,6.4-2.8,8.8-4.4
		c3-2,5.7-4.2,8.4-6.5c2.3-2,4.5-4.1,6.8-6.2c0.8-0.8,1.6-1.6,2.5-2.2c0.4,1.6-0.1,2.8-0.5,4.4c-0.5,1.6-0.5,3.3-0.9,5
		c-2.2,9.5-12.6,15.6-21.1,18.5c-1.5,0.5-3,1-4.5,1.3c-1,0.2-1.6,0.8-1.7,1.8l-1.6,15.6c-0.3,3.3-0.7,6.6-0.9,9.9
		c-0.4,4.5-0.6,9-1,13.4c-0.2,2.4-0.3,4.8-0.5,7.2c-0.4,3-0.1,6.1,1.2,8.9c0.1,0.2,0.2,0.4,0.4,0.5c0.2,0.1,0.5,0.1,0.7,0
		c2-0.6,3.6-1.9,4.8-3.6c2.1-2.9,3.9-6,5.7-9c0.7-1.1,0.1-2.1-0.3-3.1c-2.2-5.4-2.3-11.1-1.6-16.7c0.8-6.6,4.2-13.9,8.7-18.7
		c3.2-3.4,9-5,13.5-4.3c0.9,0.2,1.9,0.6,2.7,1.1c1.3,0.8,2.6,1.6,3.7,2.5c2.7,2.2,4.3,5,3.7,8.7c-0.9,5.7-3.5,10-9,12.5
		c-3,1.4-5.8,2.2-9.1,1.3c-0.9,2.2-0.9,4.3-0.7,6.5c0.5,5.1,1.2,9.7,3.5,14.3c0.2,0.5,0.7,1,1.2,1c0.3,0,0.6-0.1,0.8-0.2
		c5.5-2.2,9.6-7.2,12.4-12.2c3.6-6.4,6.9-12.9,8.7-20.1c2.2-8.4,4.2-16.8,6.2-25.1c0.3-1.2,0.4-2.2-0.4-3.3c-1-1.5-1-3.2-0.3-4.8
		c1-2.2,2.7-7.8,5-8.8c0.6-0.3,1.3-0.3,2-0.6c0.5-0.2,1-0.5,1.6-0.6c1.2-0.3,2.6,0.1,3.7,0.8c2.2,1.5,3.4,3.5,2.5,6.2
		c-1.2,3.4-2.3,6.9-3.5,10.6c0.7,0.3,1.3,0.7,2,0.9c2.5,1,5.1,1.9,7.6,2.9c3,1.2,4.7,3.2,4.7,6.6c0,3.9,0.6,7.8-0.6,11.6
		c-0.8,2.4-1.9,4.6-2.7,6.9c-1.9,5.1-2,10.2-0.4,15.4c0.5,1.6,1,2,2.6,1.4c1.9-0.7,3.8-1.6,5.6-2.7c4.1-2.6,6.4-6.7,8.5-10.9
		c0.5-1.1,1.1-2.2,1.8-3.3c1.3-1.9,4.9-2.2,6.6-0.7c1.9,1.5,2.2,3.8,1.9,6.1C632.8,183.5,632.3,186.1,631,188.1"/>
	<path class="st2" d="M211.9,313.2c1.7,0.1,2.4-0.8,2.9-1.9c1.1-2.6,1.6-5.4,1.5-8.2c0-0.5-0.2-1-0.4-1.7
		C212.9,304.9,211.4,308.6,211.9,313.2 M283.6,308.8l-0.1-0.1c-1.3-0.4-3,8.7-3.3,10c-0.5,2.6-1.6,6.8,0.2,9.1
		c0.1,0.1,0.2,0.3,0.4,0.3c0.1,0,0.3,0,0.4-0.1c2.6-1.2,2.4-5.7,2.5-8c0.3-3.4,0.5-7,0.2-10.3C283.9,309.3,283.8,309,283.6,308.8
		 M170.9,296.1L170.9,296.1c0.3,0.3,0.8,0,1.1-0.2c1.9-1.8,3.4-3.9,4.9-6c2.9-4.4,3.9-9.1,2.9-14.3c-0.3-1.7-1.2-3.1-2.5-4.2
		c-0.1-0.1-0.3-0.2-0.4-0.2c-0.2,0-0.3,0.1-0.4,0.2c-1.3,1.3-2.3,2.5-2.8,4.3c-0.9,3.4-1.7,6.9-2.2,10.4c-0.5,3.1-0.5,6.4-0.5,9.5
		C170.8,295.8,170.8,296,170.9,296.1 M265.1,281.5c0.9-1.1,2-2,2.5-3.1c1.4-3,2.7-6.1,3.9-9.2c1.5-3.7,2.9-7.4,4.6-11
		c1.6-3.3,1.7-3.5-0.8-6.3c-0.2-0.2-0.5-0.5-0.7-0.7c-2.1-2-3.9-1.9-6,0.2c-1.8,1.7-2.3,4-3.5,6c-1.4,2.3-2.2,4.8-2.5,7.5
		c-0.1,0.9-0.3,1.8-0.4,2.7c-0.5,3.3-0.6,6.6,0.4,9.8C263.1,278.8,263.7,280.2,265.1,281.5 M256.1,282.5c-0.4,1.5-0.7,2.8-1.1,4
		c-0.7,1.8-1.5,3.5-2.3,5.2c-0.2,0.5-0.7,0.9-1,1.4c-3,4.9-9.1,6.2-14.1,3.4c-4.1-2.3-6.6-6-8.8-9.9c-0.3-0.6-0.6-1.2-0.9-1.8
		c0,0-0.1,0-0.5-0.1c-0.5,0.7-1,1.5-1.5,2.3c-0.3,0.4-0.3,1-0.7,1.3c-2.1,1.8-1.8,3.9-1,6.1c0.6,1.6,1,3.3,1.5,5
		c1.7,5.9,0.9,11.5-1.9,16.9c-0.3,0.7-1.1,1.2-1.7,1.6c-1.5,0.9-2.8,2.2-4.8,2.6c-6.1,1.3-10.4-3.5-12-8.9
		c-2.1-7.1,1.7-12.3,5.7-17.8c1.2-1.7,1.4-3.2,0.5-5c-1.8-3.6-3.5-7.3-5.3-11c-0.8-1.6-1.6-3.2-2.7-5.3c-0.4,1.1-0.9,1.7-1,2.4
		c-0.9,6.5-3.4,12.5-5.1,18.7c-0.4,1.4-0.5,3-1.1,4.3c-2,5-3.8,10.1-6.2,14.9c-2,3.9-5.2,7.1-8.8,9.7c-2.7,2-5.9,2.4-9,1.1
		c-4.2-1.7-7.7-4.3-10.1-8.2c-4.5-7.3-5.7-15.2-4.1-23.5c1.2-6.1,2.9-11.9,5.5-17.6c0.9-1.9,2.3-3.2,3.9-4.4c2.9-2,6.2-2.6,9.6-3.1
		c0.9-0.1,2.1,0.2,2.8,0.8c2.9,2.6,5.3,5.5,5.8,9.5c0.2,1.2,0.4,2.4,0.6,3.7c0.4,2.3-0.4,4.4-1.3,6.5c-0.3,0.7-0.8,1.3-1,2
		c-2,7.1-7.1,11.1-14,13.6c-0.1,4.8,0.7,9.5,3.1,14.1c4.2-2.3,7.6-5,9.8-9.1c2.8-5.3,5.2-10.8,6.9-16.6c1.9-6.3,3.9-12.6,5.7-18.9
		c1.1-3.9,2-7.9,2.9-11.9c0.3-1.5,0.4-3.1,0.4-4.7c0-5.3,1.5-10.3,3.4-15.2c0.1-0.3,0.3-0.6,0.5-0.8c1.6-1.4,6.3-1.1,7.9,0.4
		c1.1,0.9,1.5,2,0.9,3.3c-1.9,4.2-2.1,8.7-2.2,13.2c-0.1,2.4,0.4,4.7,1.1,6.8c1.4,4.5,3.3,8.8,5.7,13c0.9,1.6,1.7,3.2,2.7,5
		c0.6-0.6,1-0.9,1.3-1.4c1.7-2.5,3.3-5,4.9-7.5c0.4-0.7,0.6-1.5,0.6-2.3c0-5.8,0.6-11.5,2-17.1c0.6-2.7,1.7-3.3,4.3-2.2
		c2.6,1.1,4.5,3.1,6.3,5.2c0.4,0.5,0.5,1.4,0.6,2.1c0.1,0.5,0.1,1-0.1,1.5c-1,3.4-0.7,6.9-0.8,10.4c-0.1,3.8-0.2,7.6,0,11.4
		c0.1,2.4,0.8,4.7,1.4,7.1c0.2,0.8,0.8,1.5,1.4,2.5c3.1-2.2,5.1-4.8,5.8-8.1c0.8-3.5,1.2-7.1,1.9-10.6c1.2-5.2,2.4-10.4,3.9-15.5
		c1.3-4.5,3.9-8.4,7.5-11.3c3.9-3.1,8.6-3.7,13.5-2.3c1.8,0.5,3.5,1.3,5.6,2.1c0.2-1.7,0.4-3.4,0.5-5.1c0.1-2.6,0.6-5.1,1.7-7.5
		c0.4-0.9,1-1.5,2.1-1.4c1.1,0.1,1.7,0.5,2.3,1.6c0.6,1.3,1.6,2.5,2.7,3.5c1.4,1.3,2.3,2.8,2.4,4.7c0.1,5.7,0.2,11.3,0.2,17
		c0,2.6-0.1,5.2,0.3,8.1c1.4-0.6,1.6-1.6,2-2.6c2.8-6.8,5.5-13.6,8.4-20.3c1.9-4.5,4.2-8.9,6.3-13.3c0.3-0.7,0.8-1.2,1.3-1.9
		c3-0.2,6,0.2,8.5,2c0.9,0.7,1.9,1.8,2.1,2.9c0.9,4,1.6,8.1,2.3,12.2c0.2,1.5,0.3,3,0.4,4.9c1.7-1.8,2.7-3.6,3.8-5.3
		c2.7-4.2,5.5-8.4,9-11.9c0.6-0.6,1.2-1.1,1.8-1.7c1.3-1.4,2.6-1.5,4.2-0.6c1.4,0.7,3.1,0.9,4.5,1.9c2,1.5,2.8,3.3,2.8,5.5
		c0,4.1-0.8,8-2,12c-1.8,6.1-3.6,13.6-1.8,19.9c0.1,0.2,0.1,0.5,0.3,0.6c1.8,1.9,8-2.8,9.2-3.9c4.2-3.7,7.1-8.1,8.1-13.7
		c0.6-3.5,4.2-2.1,6.6-1.3c0.5,0.2,1,0.4,1.4,0.7c0.7,0.6,1,1.5,1.3,2.4c-2,3.4-2.5,7.2-4.3,10.7c-1.6,3.2-3.9,6.1-6.7,8.4
		c-5.5,4.4-13.3,6.8-19.8,3.2c-1-0.6-1.9-1.7-2.5-2.7c-3.5-6-5.6-12.4-5.2-19.5c0.1-2.2,0.6-4.4,1-6.7c0.2-1.1,0.2-2.2,0.3-3.2
		c-3,1.7-5,6.4-6.8,9.4c-2.1,3.7-3.9,7.5-5.3,11.4c-1.8,5.3-3,10.7-4,16.1c-0.3,1.8-1.7,3.2-3.5,3.5c-2,0.4-3.4-1.1-4.6-2.5
		c-3.8-4.4-2.8-8.8-2.7-14c0.2-7.3,2-14.3,2.9-21.5c0.1-1.2,0.5-2.4,0.9-4c-1.4,1-1.6,2.1-2,3.1c-1.7,4.3-3.3,8.7-5,13
		c-0.9,2.1-2.2,4.1-3.2,6.2c-1.5,3.1-2.9,6.3-4.3,9.5c-1.3,2.9-2.5,5.8-3.8,8.7c-0.7,1.6-1,3.2-0.7,5.1c1,6.2,1.5,12.5,1.5,18.9
		c0,2.8,0.4,5.6,0.4,8.4c0,3.7-0.4,7.3-1.5,10.8c-1.1,3.8-5,7.6-9.1,7.6c-4.1,0-8.2-3.7-9.6-7.4c-1.6-4.3-1.2-9.4-0.1-13.8
		c1.9-7.1,4-14.2,7-21c0.3-0.6,0.5-1.3,0.4-1.9c-0.5-3.5-1-7-2.1-10.6c-0.4,0.8-0.7,1.5-1.1,2.3c-0.9,2.3-2.7,4-4.7,5.3
		c-3.3,2-6.8,1.5-10,0c-2.2-1.1-4.1-2.8-6.1-4.3C257.2,283.5,256.8,283.1,256.1,282.5"/>
	<path class="st2" d="M105.2,342l0-1.2c0-0.7,0-1.4-0.2-2c-0.7-1.7-3.6-1.6-5.1-1.4c-2.4,0.2-5.1,1.2-6.9,2.8c-2.1,2-3,5-2.8,7.9
		c0.2,3.5,2.1,6.8,4.2,9.5c0.3,0.3,0.6,0.7,1,0.9c0.6,0.3,1.4,0,2-0.3c3.2-1.5,5.6-4.3,6.6-7.7c0.6-2.3,1-4.8,1.2-7.2
		C105.2,342.8,105.2,342.4,105.2,342 M115.4,333.4c2.6,0.9,5.2,1.9,7.9,2.8c2.3,0.7,4.9,2.1,7.3,1.9c1.9-0.1,3.6-1.2,5-2.5
		c3.6-3.5,6.1-7.7,7.3-12.6c1.5-6.4,1.6-12.9,1.9-19.3c0.1-3,0-6.2-0.7-9.1c-1.7-7.4-4.2-14.6-9.3-20.5c-1.6-1.8-3-3.8-5.5-4.7
		c-1.8,3.4-3.1,6.5-3.9,10.3c-0.9,4.3-1.8,8.7-2.8,13c-1.1,5.3-2.3,10.6-3.3,15.9c-0.9,4.9-1.6,9.8-2.4,14.6
		C116.4,326.4,116,329.7,115.4,333.4 M82.9,274.4c-0.6,1.3-1.3,2.5-1.9,3.8c-0.8,1.8-1.1,3.7-1.3,5.6c-0.4,3.5-0.7,7-0.5,10.5
		c0.2,3.6,2,6.5,4.5,8.6c2.1,1.8,5.9,2,8.5,2.6c-0.5,0.8-0.7,1.9-0.6,2.8c0.1,0.4,0.1,0.7,0.1,1.1c-0.3,1.3-3.2,1.9-4.3,1.9
		c-4.6-0.1-8.6-1.8-11.8-5.2c-5.3-5.6-8.3-12.9-8.7-20.6c-0.2-5,0.8-10.1,3.4-14.4c4.4-7.3,12.8-12.4,20.7-14.9
		c9.4-3,18.6-2.4,27.7,1.2c2.5,1,4.9,2.3,7.3,3.5c0.8,0.4,1.5,0.4,2.2-0.1c1.2-0.8,2.5-1.5,3.7-2.1c3.3-1.8,6.9-1.9,10.5-1.8
		c2.6,0,4.3,1.4,5.5,4.4c-1-0.1-1.9,0-2.6-0.3c-2.6-1.3-5.2-1-7.8-0.2c-2.2,0.7-4.5,1.7-6.6,2.8c2.2,1.6,4.5,3.2,6.7,4.8
		c1.1,0.8,2.1,1.6,3.1,2.6c4.6,4.8,6.8,10.6,8.5,16.9c1.3,5.1,3,10.7,2.8,16c-0.1,3.9,0.6,7.7,0.7,11.6c0.1,3.8-0.5,7.9-1.4,11.6
		c-1.1,4.7-4.1,8.8-7,12.7c-0.6,0.9-1.3,1.7-2,2.5c-0.2,0.3-0.5,0.6-0.7,0.9c-2.5,2.4-7.1,3.4-10.4,3.2c-5.5-0.3-10.7-1.4-15.7-3.6
		c-0.4-0.2-0.9-0.1-1.6-0.2c0,0-1.1,5.3-1.2,5.8c-0.9,3.6-2.8,6.8-5.2,9.6c-2.1,2.5-4.6,5.7-8.1,6.1c-1.6,0.2-3.2-0.3-4.7-0.7
		c-2.6-0.8-4.6-1.8-6-4.2c-5.1-8.2-2.6-19.6,5-25.3c1.4-1,3.3-1.5,5-2c1.7-0.5,3.4-0.7,5.1-0.8c1.5-0.1,2-0.9,2.1-2.2
		c0.2-1.9,0.3-3.8,0.6-5.7c1-6.9,1.8-13.8,3.2-20.5c1.7-8.2,3.8-16.3,6.8-24.1c1.6-4.2,3.5-8.3,6.2-11.9c0.3-0.4,0.5-0.8,0.7-1.1
		c0-0.1,0-0.2,0-0.5c-0.4-0.3-0.9-0.8-1.6-1.1c-4.2-1.8-8.4-3.7-12.8-4.8c-5.9-1.6-10.8,0.6-15.2,4c-2.1,1.6-4,3.4-5.9,5.3
		c-0.9,0.9-1.9,1.7-2.7,2.6c-0.8,0.9-1.3,2-1.8,3.1L82.9,274.4"/>
	<path class="st2" d="M244.7,234.8c0.1,2.4-1.5,4.2-3.9,5.3c-2.3,1.1-4.4,0.7-6.4-0.6c-2.8-1.7-3.3-3.4-4.7-6.1
		c-0.3-0.5-0.8-0.9-1.1-1.4c-2-2.5,0.8-5.9,3.6-5.6c3.6,0.3,7.2,0.9,10.2,3.3C244,230.9,244.8,232.4,244.7,234.8"/>
	<path class="st2" d="M651.3,190.2c-2.4,0-5-2.1-5.8-4.7c-0.2-0.6-0.3-1.3-0.6-1.9c-1.1-2.7-0.6-4,2.1-4.5c2.8-0.5,5.4,0.5,7.8,1.9
		c1.6,0.9,2.4,4.8,1.9,6.4C656,189.2,654.1,190.2,651.3,190.2"/>
</g>
<g>
	<path class="st3" d="M252.7,443.5c-0.1,0.1-0.2,0.2-0.3,0.3c-0.1,0.1-0.1,0.1-0.1,0.2c-0.7,7.7-0.6,15.3,0.7,22.9
		c0.2,1,0.7,2,1.1,2.9c1.4-0.5,2.1-1.1,2.2-2.6c0.1-1.1,0.2-2.2,0.1-3.2c-0.5-5.6-1.3-11.2-2.8-16.7
		C253.4,446,253.1,444.7,252.7,443.5C252.7,443.4,252.7,443.4,252.7,443.5z M192.3,339.5c-0.1-0.1-0.3-0.2-0.5-0.2
		c-1.6,0-3.2,1.3-3.9,2.6c-1.1,2.3-1.5,4.5-1,7.1c0.3,1.9,0.9,3.6,1.3,5.5c0.4,1.7,0.8,3.7,2.4,4.6c1.3-2.8,1.2-6.2,1.5-9.2
		C192.3,348.5,193.7,340.8,192.3,339.5 M210.3,425.7L210.3,425.7c-0.4-0.2-0.8,0-1,0.3c-2.2,3-3.5,7.6-4.9,11
		c-1.7,4-2.5,8.2-2.2,12.6c0.2,3.1,4.1,5.3,6.5,3.6c3-2.1,4.9-4.8,5.1-8.7c0.1-3.4-0.3-6.6-1-9.9
		C212.5,433.1,211.6,426.5,210.3,425.7 M315.2,382.8c0.5-0.5,1-0.9,1.5-1.3c0.4-0.4,0.8-0.7,1.1-1.2c0,0,0-0.1,0.1-0.1
		c0,0,0.1-0.1,0.1-0.1c2.7-4.3,5.3-8.7,7.8-13.1c0.9-1.6,1.6-3.3,2.3-4.9c0.5-1.3,1.1-2.6,1.4-4c0.4-1.8,0.5-3.6,0.8-5.4
		c0.6-4.4,1.3-4.2-3.4-6.2c-3.1-1.3-6.8,0.1-8.2,3.2c-0.5,1.1-0.9,2.1-1.4,3.2c-1,2.6-2.4,5.1-3,7.8c-0.7,2.8-0.7,5.8-1.2,8.7
		c-0.5,2.9,0,5.8,0.6,8.6c0.1,0.6,0.3,1.1,0.4,1.7c0.2,0.6,0.4,1.2,0.6,1.8C314.9,381.9,315,382.3,315.2,382.8z M275.8,381.7v-1.5
		c0-3.9-1.1-7.6-2.2-11.2c-0.3-1.1-0.9-2.1-2.2-1.9c-2,0.3-3.9,0.6-5.3,2.4c-1.3,1.6-2.5,3.3-3.1,5.3c-1.5,4.8-2.9,9.7-4.4,14.5
		c-1,3-1,5.9,0,8.8c0.5,1.4,4.3,4.9,5.8,5c0.5,0,1-0.1,1.5-0.2c3.4-0.8,5.9-2.8,7-6.1C274.5,391.9,276.1,387,275.8,381.7
		 M243.6,435.5c0.1-3.5,0.2-7,0.5-10.5c0.3-3.9,0.8-7.8,0.8-11.8c0.1-2.8-0.3-5.6-0.5-8.5c-0.4-4.4-1-8.8-1.5-13.1
		c0-0.2-0.1-0.5-0.2-0.8c-2.5,0.6-4.6,1.9-6.4,3.6c-5.5,5.1-10.8,10.4-15.5,16.3c-1.3,1.7-1.5,3-0.6,4.9c1.6,3.5,3.1,7.2,4.2,10.9
		c2.4,7.8,2.4,22.7-4.9,28c-8.6,6.2-17.4,3.5-23.2-4.8c-0.2-0.3-0.4-0.8-0.4-1.2c-0.7-4.6-0.9-9.1,0.9-13.6
		c2.2-5.5,4.9-10.8,8.2-15.7c1.3-1.9,1.2-3.4,0.1-5.3c-2.4-4.1-4.7-8.2-7-12.4c-1.3-2.3-2.4-4.7-3.6-7.1c-0.3-0.6-0.8-1.2-1.4-2.1
		c-0.5,0.9-0.8,1.5-1,2.1c-1.3,4.6-2.5,9.3-3.9,13.9c-2.6,8.7-4.7,17.5-6.6,26.4c-0.9,4.5-1.7,9-2.6,13.5c-0.8,4.2-1.6,8.3-2.4,12.5
		c0,0.2-0.1,0.3-0.1,0.5c-0.1,1.7-0.1,3.4-1.6,4.5c-2,1.5-4.2,2.7-6.8,2.7c-3.8,0.1-3.9-0.3-3.7-4.1c0.3-6,2-11.7,3.2-17.6
		c1.5-7.3,2.9-14.7,4.7-22c1.8-7.2,4.2-14.2,6.2-21.4c1.5-5.3,2.7-10.6,4.1-15.9c0.7-2.6,1.4-5.1,2.3-7.6c0.4-1.2,0.5-2.2-0.2-3.3
		c-3.8-6.8-6.4-14.8-6.2-22.7c0.1-7.6,4-18,13-17.8c2.7,0,5.6,0.7,7.5,2.5c1.6,1.5,2.4,3.7,2.8,5.9c1.3,8.9-1.2,20-3.9,28.4
		c-0.3,0.9-0.1,2.2,0.4,3c1.7,3,3.7,5.9,5.5,8.9c2.1,3.6,4.1,7.2,6.2,10.8c0.8,1.4,1.7,2.8,2.5,4.3c0.6,1.1,1.2,2.2,1.6,3.3
		c0.7,1.7,1.1,1.8,2.3,0.5c2.8-3,5.6-6,8.4-8.9c2.8-2.8,5.6-5.7,8.7-8.3c2-1.7,4.3-3.1,6.5-4.6c1.1-0.7,1.4-1.5,1.2-2.9
		c-0.7-5.5-0.7-11.1,0.4-16.6c0.2-0.9,0.6-1.3,1.4-1.6c2.7-0.8,6.3-0.4,8.2,2c0.8,1,1.5,2,2.1,3.1c0.6,1.1,0.9,2.3,1.5,3.7
		c1.4-1.9,2.4-4.2,4.4-5.6c2-1.4,4.4-2.1,6.7-2.6c1.5-0.3,3-0.2,4.5-0.3c5.9-0.5,12.6,3.1,15.2,9.2c1.8,4.3,3.4,8.7,3.4,13.4
		c0,1.2-0.1,2.5-0.2,3.7c0,0.5-0.1,1.1-0.1,1.8c1.3-0.4,1.4-1.4,1.7-2.2c2.4-6.2,4.8-12.4,7.1-18.7c0.8-2.3,1.2-4.8,1.8-7.2
		c1.3-5.3,4.3-9.7,7.5-14c1.3-1.8,2.9-3.4,4.5-5c0.6-0.6,1.5-1.1,2.3-1.4c4.5-1.5,9.1-1.7,13.8-1c1.3,0.2,2.6,0.4,3.9,0.6
		c0.9-2.5,1.7-4.7,2.5-7c1-2.6,1.5-3,4.3-2.4c1.7,0.4,3.4,0.8,4.9,1.6c2.6,1.3,3.6,3.5,2.9,6.4c-0.9,4.1-1.9,8.5-1.9,12.8
		c0,4.4,0.1,8.8-0.4,13.2c-0.2,2.1-0.1,4.3,0,6.5c0,0.8,0.3,1.6,0.6,2.5c1.9-0.8,2.7-2.3,3.7-3.5c2-2.7,4.1-5.5,5.7-8.5
		c0.8-1.6,0.9-3.7,1-5.5c0.2-3,0-6,0.2-9c0.3-5.5,0.5-11,1-16.5c0.2-1.9,0.9-3.8,1.5-5.6c0.2-0.8,0.6-1.6,1.4-2
		c1.7-0.8,5.5,0.3,7.1,1c2.1,0.9,3.2,2.6,4.2,4.4c0.4,0.8,0.4,2,0.2,2.9c-0.3,2-0.9,3.9-1.2,5.8c-0.2,1.1-0.1,2.4,0.4,3.4
		c1.9-2.8,2.8-6.3,4.3-9.4c1.7-3.5,3.5-6.9,5.9-9.9c0.7-0.9,1.5-1.9,2.5-2.6c1.6-1.1,3.7-1.4,5.6-1.2c4.6,0.5,8.3,2.6,10.4,6.8
		c0.5,1.1,1.1,2.7,2,3.4c2.5-3.4,4.4-7.1,6.4-10.8c1.6-3,3.3-7.5,6.4-9.3c1.4-0.9,3.2-0.7,4.8-0.3c5.6,1.4,9.3,3.2,10.7,9.3
		c1,4.8,0.4,9.9-0.6,14.7c-1.3,6.3-3.3,12.4-3.7,18.8c0,1,0.1,1.9,0.2,3.2c0.7-0.4,1.3-0.5,1.7-0.8l4.7-4.2
		c3.9-3.7,5.6-8.7,8.3-13.1c0.7-1.2,1.3-1.6,2.6-1.2c2.3,0.7,4.8,3.9,5,6.3c0.1,1-0.2,1.8-0.6,2.8c-1,2.4-1.9,4.8-2.9,7.2
		c-0.9,2.1-2.6,3.8-4,5.6c-2.9,3.7-7.8,7.3-12.7,6c-4.6-1.2-9-3.5-11.6-7.7c-2.9-4.6-3.9-9.8-3.7-15.3c0.2-4.8,1.9-9.2,3.7-13.7
		c0.8-2,1.2-4.3,1.8-6.4l-0.6-0.3c-0.9,1.4-1.9,2.8-2.8,4.2c-5.2,8.1-9.3,16.7-12.6,25.8c-1.1,3.1-2.5,6.2-3.5,9.3
		c-0.7,1.9-1.1,3.9-1.5,5.9c-0.8,4.5-6,3.7-9,1.6c-3.8-2.6-3.9-8.9-3.4-12.9c0.9-7.1,3-13.8,4.3-20.8c0.2-1.2,0.4-2.4,0.5-3.6
		c0.1-0.8,0.6-2.6,0.3-3.4c-0.4-1-2.6,1.8-2.9,2.3c-1.8,3.1-3.7,6.1-5.2,9.4c-2.8,6.2-5.4,12.5-7.9,18.9c-1.2,3-2.2,6.1-3.2,9.2
		c-0.4,1.4-0.9,2.7-1.3,4.1c-0.4,1.4-0.3,2.9-0.8,4.3c-0.4,1-1.2,1.8-2.2,2.1c-1,0.3-2.1,0-3.2-0.2c-2.4-0.5-4.1,0.5-5.5,2.5
		c-1.5,2.1-3.4,4.1-5.9,5.2c-0.6,0.3-1.2,0.6-1.8,0.7c-3,0.1-5.9-0.3-8.7-1.6c-2-1-3.8-2-4.9-4c-0.1-0.3-0.5-0.4-0.8-0.7
		c-0.8,1.4-1.6,2.7-2.2,4c-1.7,3.6-4.2,6.6-7.6,8.7c-1.1,0.7-2.4,1.1-3.7,1.3c-7.7,0.9-13.2-3-17.2-9.2c-0.6,1.1-1,2.3-1.6,3.4
		c-2.2,4.5-4,9.2-7.3,13c-3.5,4.2-7.5,7.7-12.5,10.1c-6.4,3-12.8,2.3-19.2-0.2c-0.7-0.3-1.3-0.6-2-0.8c-0.2,0.4-0.4,0.6-0.4,0.8
		c0.6,3.2,1.1,6.4,1.7,9.6c0.3,1.4,0.5,2.8,0.7,4.2c1,5.9,2,11.8,2.9,17.7c0.6,3.9,1.4,7.9,1.7,11.8c0.3,4.3,0.6,8.6,0,12.9
		c-0.4,3.3-1.1,7.4-4.4,8.9c-1.2,0.5-2.4,0.8-3.7,1c-1.4,0.3-2.9,0.6-4.4,0.6c-5,0-8.6-4.4-9.7-9c-1.1-4.8-1.4-9.7-1.5-14.6
		c-0.1-4.9-0.1-9.9,0-14.8L243.6,435.5"/>
	<path class="st3" d="M621.9,282.8c0.4-0.3,0.8-0.7,1.2-1.1c0.4-0.4,0.7-0.7,1.1-1.1c0.3-0.4,0.7-0.8,1-1.2c0.3-0.4,0.6-0.8,0.9-1.3
		c0.3-0.4,0.5-0.9,0.8-1.3c0.2-0.5,0.5-0.9,0.7-1.4c0.2-0.5,0.4-0.9,0.6-1.4c0.2-0.5,0.3-1,0.5-1.4c0.1-0.5,0.3-1,0.4-1.4
		c0.1-0.5,0.2-1,0.3-1.5c0.1-0.5,0.1-1,0.2-1.4c0-0.5,0.1-1,0.1-1.4c0-0.5,0-0.9,0-1.4c0-0.5,0-0.9-0.1-1.4c0-0.4-0.1-0.9-0.2-1.3
		c-0.1-0.4-0.1-0.8-0.2-1.3c-0.1-0.4-0.2-0.8-0.3-1.2c-0.1-0.4-0.3-0.7-0.4-1.1c-0.1-0.3-0.3-0.7-0.5-1c0,0,0,0,0-0.1
		c-1.9,2.1-3.2,4.5-3.9,7.1c-0.6,2.3-1.1,4.7-1.4,7.1c-0.1,0.7-0.2,1.3-0.3,2c-0.1,0.7-0.2,1.4-0.2,2c-0.1,0.7-0.1,1.4-0.2,2.1
		c0,0.7,0,1.4,0,2.1C621.8,281.3,621.9,282,621.9,282.8z M532.3,313.2c0.2,0.1,0.4,0.2,0.6,0.2c0,0,0,0,0.1,0
		c1.1-1.6,2.5-3.1,3.3-4.8c2-4.3,3.8-8.7,4.3-13.5c0.2-1.9,0.1-3.8-0.3-5.7c-0.6-2.5-2.5-2.7-4.2-1c-1.9,1.9-2.3,4.8-2.7,7.2
		c0,0-0.9,6.2-0.9,6.2c0,0,0,0.1,0,0.1c0,0,0,0.1,0,0.1c0,0.1,0,0.2,0,0.3c0,0.2-0.1,0.4-0.1,0.6c-0.1,0.4-0.1,0.7-0.2,1.1
		c0,0.4-0.1,0.7-0.1,1.1c0,0.4-0.1,0.7-0.1,1.1c0,0.4,0,0.7,0,1.1c0,0.4,0,0.7,0,1.1c0,0.4,0,0.7,0,1.1c0,0.4,0,0.7,0.1,1.1
		c0,0.4,0.1,0.7,0.1,1.1c0,0.4,0.1,0.7,0.2,1.1C532.2,313,532.2,313.1,532.3,313.2z M668.6,253.4c0,0-0.1,0-0.1-0.1
		c-0.1,0-0.1-0.1-0.2-0.1c-0.1,0-0.2-0.1-0.2-0.1c-0.1-0.1-0.2-0.1-0.3-0.2c-0.1-0.1-0.2-0.1-0.3-0.2c-0.1-0.1-0.2-0.1-0.4-0.2
		c-0.1-0.1-0.3-0.1-0.4-0.2c-0.1-0.1-0.3-0.2-0.4-0.2c-0.1-0.1-0.3-0.2-0.4-0.2c-0.1-0.1-0.3-0.2-0.4-0.2c-0.1-0.1-0.3-0.1-0.4-0.2
		c-0.1-0.1-0.2-0.1-0.4-0.2c-0.1-0.1-0.2-0.1-0.3-0.2c-0.1-0.1-0.2-0.1-0.3-0.2c-0.1,0-0.1-0.1-0.2-0.1c0,0-0.1-0.1-0.1-0.1
		c0,0,0,0-0.1,0c-0.7,2-1.4,3.9-1.9,5.9c-2.1,7.3-4.5,14.5-6.1,21.9c-1,4.6-3.1,8.7-4.5,13.1c-1.1,3.4-2.5,6.7-3.6,10.1
		c-1.2,3.9-2.5,8-5.1,11.2c-2.3,2.9-5.5,4.9-9.1,5.7c-4.6,1-8.8-0.7-12.4-3.5c-5.7-4.3-9.1-9.9-11.5-16.5c-0.3-0.9-0.6-1.7-0.9-2.7
		c-5.1-1.6-9-5.1-13-9.2c-0.3,1.7-0.5,2.9-0.7,4c-0.7,4.6-1.3,9.2-2,13.8c-0.3,2.3-0.6,4.7-0.9,7c-0.3,2.2-1.2,4.3-1.9,6.4
		c-1.3,4-2.7,7.8-6.4,10.1c-3.2,2-6.2,0.5-9-1.4c-1.9-1.2-3.6-2.7-5.1-4.4c-0.7-0.8-1.5-1.6-2-2.6c-0.5-1-0.8-2.1-1.3-3.1
		c-0.3-0.5-0.6-0.9-1-1.3c0,0.8-0.5,1.5-0.9,2.2c-0.4,0.8-0.7,1.6-0.7,2.6c0,0.4,0.1,0.8,0.1,1.2c-0.2,1.6-1.2,3.4-1.8,4.9
		c-0.6,1.7-1.3,3.4-1.8,5.2c-0.9,2.7-2.7,4.5-4.6,6.5c-5.1,5.4-11.6,5.5-18.3,4.7c-1.3-0.2-2.6-0.6-3.7-1.3c-3.6-2.2-7.1-4.7-9.9-8
		c-3.7-4.5-5.7-9.8-5.8-15.6c-0.2-6.3,0.2-12.5,1.6-18.6c0.8-3.5,2.1-7.1,4-10.1c2.4-3.7,6.1-4.9,10.3-5.8c3.2-0.6,6.4-1,9.6-0.2
		c2.3,0.6,4,1.9,5.1,4c1.8,3.5,2,7.4,1.7,11.2c-0.5,5.1-2.1,10-4.9,14.2c-2.6,3.9-5.5,7.5-10.1,9.4c-1.6,0.6-1.8,1-1.4,2.7
		c0.7,3.5,2,6.7,4.1,9.6c1.6,2.2,2.7,2.3,4.8,0.7c2.8-2,5-4.5,6.4-7.8c1.6-3.8,3.5-7.6,5.3-11.3c0.8-1.7,1.5-2.8,2.6-4.2
		c0.3-0.4,0.5-0.8,0.8-1.2c2.1-3.6,4.4-7.5,4.2-11.8c-0.2-3.8-0.2-7.7-0.1-11.5c0.1-2,0.2-4.1,0.3-6.1c0.1-1.1-0.1-4.1,0.9-4.8
		c1.2-0.8,4-0.8,5.4-0.8c2,0.1,3.8,0.7,5.4,1.9c2.1,1.6,2.9,3.4,2.5,6.2c-0.8,6.2-0.6,12.4,0,18.6c0.3,3.1,0.7,6.2,1.3,9.2
		c0.1,0.7,1.7,7.8,1.7,7.8c2.2-1.8,3.1-5.8,3.8-8.4c0.9-3.3,1.5-6.7,2-10c0.4-2.6,0.3-5.5,1.1-8.1c0.2-0.6,0.5-1.2,0.7-1.9
		c1.9-4.7,1.3-10.5,2-15.4c0.4-2.9,1.1-5.7,1.7-8.6c0-0.2,0.1-0.3,0.2-0.5c0.1-0.1,0.3-0.2,0.4-0.2c2.2-0.5,5.5-1.5,7.7-0.9
		c0.9,0.2,1.5,1,2,1.7c1.5,2.5,1.3,5.4,1.6,8.2c0.3,3,0.8,6,2.1,8.7c0.9,1.7,1.6,3.4,3.5,5.1c0.1-1.7,0.2-2.8,0.2-4
		c0.2-6.2,0.4-12.3,2.2-18.3c1.5-4.9,4-9.2,8.1-12.3c1.2-0.9,3-1.5,4.5-1.7c2.2-0.3,4.5,0,6.7,0c4,0,7.5,3.3,7.7,7.3
		c0.5,7.9,1.1,17.2-3.9,24c-1.6,2.1-2.8,4.5-4.8,6.3c-0.8,0.7-6.5,3.5-6.6,4.3c-0.1,6.4,2,13.3,5.2,16.7c1.9-0.5,3.4-1.7,4.3-3.4
		c1.6-3.1,3.2-6.2,4.6-9.4c1-2.2,1.6-4.6,2.7-6.7c1.2-2.2,2.6-4.3,3.6-6.6c1.6-3.8,2.8-7.8,4.1-11.8c2-5.9,3.8-11.9,5.5-17.9
		c0.7-2.3,1.5-4.6,2.2-6.9c0.7-2.2,1.7-4.3,2-6.5c0.4-2.6-0.1-5.2,0.3-7.9c0.4-2.6,1.1-5.2,2.1-7.7c1.4-3.6,6.3-2.5,9.3-2.1
		c0.8,0.1,1.3,0.7,1.5,1.7c0.5,2.4,0.4,4.6-0.8,7c-1.4,2.9-2,6.2-2,9.5c0,2.8,0.6,3.5,3.4,4.4c2.5,0.9,5,1.7,7.4,2.9
		c4.4,2.3,5.3,4.5,4.3,9.3c-1.2,5.9-2.1,11.9-3.6,17.8c-0.8,3.3-1.2,6.7-1.2,10.1c0,1.4,0,8.4,1.8,8.3c2.4-0.2,4.8-2,6.6-3.5
		c2.1-1.8,3.8-4,5.6-6.1c2.8-3.3,5.6-6.5,7.7-10.3c0.2-0.3,0.4-0.6,0.6-0.7c0.3-0.1,0.7-0.1,0.9,0.2c0.1,0.1,0.1,0.2,0.1,0.3
		c0.6,3.2,1.4,6,0.5,9.2c-0.6,2.2-1.2,4.5-2,6.7c-0.3,0.7-0.5,1.3-0.8,1.9l-0.7,1.4c-0.4,0.9-0.8,1.8-1.4,2.5
		c-0.6,0.8-1.5,1.4-2.2,2.1c-3,3.2-6.9,4-10.9,4.9c-2,0.4-5.1-0.4-7-1.2c-2.3-0.9-4.2-2.6-5.9-4.5c-2.2-2.4-4.2-5.2-5.7-8.1
		c-1.6-3-2-6.1-2.1-9.5c-0.3-8.5,2.9-16.4,5.4-24.4c0.1-0.2,0.1-0.5,0.2-0.7c0.1-0.3,0.1-0.5,0.2-0.8c0.1-0.3,0.1-0.6,0.2-0.8
		C668.6,253.6,668.6,253.5,668.6,253.4z"/>
	<path class="st3" d="M496,323.1c0.1-0.1,0.2-0.3,0.2-0.5c0.1-0.2,0.1-0.5,0.2-0.7c0.1-0.3,0.1-0.6,0.1-0.9c0-0.3,0.1-0.7,0.1-1
		c0-0.3,0-0.6,0.1-1c0-0.3,0-0.6,0-0.9c0-0.2,0-0.4,0-0.6c0-0.1,0-0.1,0-0.2c0.8-6.3,1.4-12.6,2.3-18.8c1-6.8,2.1-13.7,3.3-20.5
		c0.2-1.2,0.7-2.4,1.1-3.6c2.1-5.8,4.3-11.4,7-16.9c1.8-3.8,5.8-4.7,9.5-5.8c2.5-0.8,3.9,1.1,5.2,2.9c0.1,0.2,0.2,0.4,0.2,0.6
		c0,0.2-0.1,0.5-0.3,0.7c-2.2,3.2-4.5,6-6.3,9.4c-1.2,2.2-2.3,4.4-3.4,6.7c-2.5,5.5-3.7,11.3-4.6,17.3c-1.3,7.8-2.9,15.5-4.3,23.3
		c-0.8,4.4-1.1,8.8-1.8,13.2c-1.1,6.6-1.5,12.9-1.6,19.6c0,1.4,0.2,2.8,0.4,4.2c0.7,3.9,1.2,7.9,2.3,11.7c0.5,1.8,1.5,7.3-1.1,8.1
		c-0.6,0.2-1.2,0.1-1.8-0.1c-1.2-0.4-2.4-0.6-3.7-0.9c-3.8-1.1-6.2-3.8-7.6-7.4c-1.2-2.9-2.3-5.9-3.3-8.9
		c-2.2-6.8-4.4-13.6-6.4-20.5c-1.5-5.2-2.6-10.5-4-15.7c-0.1-0.3-0.6-3.6-1.4-2.4c-0.4,0.7,0,3,0,3.7c0.1,5.2,0.1,10.5,0.2,15.7
		c0,1.7,0.5,3.5,0.4,5.2c-0.1,4.2-0.2,8.3-0.6,12.4c-0.8,7.5-2.6,14.9-4.6,22.2c-2.2,7.9-5.8,15.4-12.3,20.6
		c-1.1,0.9-2.3,1.7-3.7,2.2c-2.6,1-5.7,0.6-8-1.1c2.4-3,5.4-5,7.6-8.4c2.5-3.8,3.9-8.1,5.1-12.4c2-6.9,3.4-13.9,4.7-21
		c1-5.4,1.4-10.9,1.5-16.4c0-5.4,0-10.8,0.2-16.2c0.2-5.8,0.7-11.6,0.9-17.4c0.1-3-0.3-6-0.5-8.9c-0.2-3.1-0.4-6.3-0.6-9.4
		c0-0.4,0-0.8-0.2-1.1c-0.1-0.4-0.4-0.7-0.5-1.1c-0.4-0.9-0.1-1.9,0.1-2.9c0.1-0.3,0.1-0.5,0.3-0.7c0.2-0.2,0.4-0.3,0.6-0.4
		c1.8-0.7,3.6-1.3,5.3-2.2c1.2-0.5,2.2-0.3,3.3,0.4c3.7,2.7,6.6,6,8.1,10.5c1.8,5.3,4.1,10.4,5.9,15.6c1.2,3.7,2,7.6,3,11.3
		c0,0.1,0,0.2,0.1,0.3c0,0.2,0.1,0.3,0.1,0.5c0,0.2,0.1,0.4,0.1,0.6c0.1,0.2,0.1,0.5,0.2,0.7c0.1,0.3,0.1,0.5,0.2,0.8
		c0.1,0.3,0.1,0.6,0.2,0.9c0.1,0.3,0.1,0.6,0.2,0.9c0.1,0.3,0.2,0.6,0.2,0.9c0.1,0.3,0.2,0.6,0.2,0.9c0.1,0.3,0.2,0.5,0.2,0.8
		c0.1,0.2,0.1,0.5,0.2,0.7c0.1,0.2,0.1,0.4,0.2,0.6c0.1,0.2,0.1,0.3,0.2,0.5c0.1,0.1,0.1,0.2,0.2,0.3c0,0,0.1,0.1,0.2,0.1
		C495.9,323.2,496,323.1,496,323.1z"/>
	<path class="st3" d="M725.5,273.4c0.9,0,1.8-0.1,2.6,0c3.3,0.5,4.6,2.8,5.3,5.8c0.6,2.3-0.3,5.1-2.3,6.4c-2.9,2-7.6,2.6-10.5-0.7
		c-1-1.1-1.9-2.2-2.8-3.4c-0.9-1.3-0.9-2.6-0.1-4C719.5,274.5,722,272.9,725.5,273.4"/>
	<path class="st3" d="M430.6,253.4c0,0,0.2,0,0.2,0c0.1,0,0.1,0,0.2,0c0.1,0,0.3-0.1,0.4-0.1c0.2-0.1,0.5-0.1,0.7-0.2
		c0.2-0.1,0.4-0.2,0.6-0.3c0.2-0.1,0.4-0.2,0.5-0.4c0.2-0.1,0.3-0.3,0.4-0.5c0.1-0.2,0.3-0.4,0.4-0.6c0.1-0.2,0.2-0.4,0.3-0.7
		c0,0,0,0,0-0.1c1.2-3,1.8-6,2.1-9.1c0-0.5-0.2-1-0.4-1.9c0,0-0.1,0.1-0.1,0.1c0,0,0,0.1-0.1,0.1c0,0.1-0.1,0.1-0.1,0.2
		c-0.1,0.1-0.2,0.2-0.3,0.4c-0.2,0.2-0.4,0.5-0.6,0.7c-0.2,0.2-0.4,0.5-0.5,0.7c-0.2,0.2-0.4,0.5-0.5,0.7c-0.2,0.2-0.3,0.5-0.5,0.7
		c-0.2,0.2-0.3,0.5-0.5,0.7c-0.2,0.2-0.3,0.5-0.5,0.7c-0.1,0.2-0.3,0.5-0.4,0.7c-0.1,0.3-0.3,0.5-0.4,0.8c-0.1,0.3-0.2,0.5-0.3,0.8
		c-0.1,0.3-0.2,0.5-0.3,0.8c-0.1,0.3-0.2,0.5-0.2,0.8c-0.1,0.3-0.1,0.6-0.2,0.8c-0.1,0.3-0.1,0.6-0.1,0.9c0,0.3-0.1,0.6-0.1,0.9
		c0,0.3,0,0.6,0,0.9c0,0.3,0,0.6,0.1,1c0,0.1,0,0.1,0,0.2C430.6,253.3,430.6,253.3,430.6,253.4z M466.3,189.8
		C466.3,189.9,466.2,189.9,466.3,189.8c-0.1,0.1-0.1,0.2-0.2,0.2c-0.1,0.1-0.1,0.1-0.2,0.2c-0.1,0.1-0.2,0.3-0.4,0.4
		c-0.2,0.2-0.4,0.5-0.7,0.7c-0.3,0.4-0.6,0.7-0.8,1.1c-0.8,1.6-1.8,3.3-2,5c-0.3,2.8-0.1,5.6-0.1,8.4c0.3-0.2,0.6-0.5,0.8-0.7
		c0.3-0.3,0.5-0.6,0.8-0.9c0.3-0.4,0.5-0.7,0.7-1.1c0.2-0.4,0.5-0.8,0.7-1.2c0.2-0.4,0.4-0.9,0.6-1.3c0.2-0.5,0.3-0.9,0.5-1.4
		c0.2-0.5,0.3-1,0.4-1.5c0.1-0.5,0.2-1,0.3-1.5c0.1-0.5,0.1-1,0.2-1.4c0-0.5,0.1-0.9,0.1-1.4c0-0.4,0-0.9-0.1-1.3
		c-0.1-0.4-0.1-0.8-0.2-1.2C466.6,190.5,466.4,190.2,466.3,189.8z M560.2,161.6c-0.1,0-0.3,0.2-0.4,0.2c-0.1,0.1-0.3,0.1-0.4,0.2
		c-0.2,0.1-0.4,0.3-0.6,0.5c-0.3,0.4-0.6,0.8-0.8,1.2c-0.2,0.4-0.3,0.8-0.4,1.2c-0.7,2.4-1.4,4.8-2,7.2c-0.4,1.6-0.8,3.2-1.3,4.9
		c5.1-2.1,7.6-7.2,7.6-11.8c0-0.6-0.1-1.1-0.3-1.6c-0.2-0.5-0.5-1-0.9-1.5C560.6,161.9,560.4,161.7,560.2,161.6
		C560.3,161.5,560.2,161.5,560.2,161.6z M417,217.4c0.7-0.4,0.9-0.5,1.1-0.7c3.5-3.6,5.6-8,7.6-12.5c0.9-2.1,1.7-4.3,2.2-6.6
		c0.6-2.8,0.9-5.8-0.2-8.6c-0.2-0.6-0.6-1.4-1-1.6c-2.2-0.9-4.4-2-6.9-1.1c-1.5,3.9-2.3,7.8-2.5,11.8c-0.2,4.1-0.3,8.3-0.4,12.4
		C417,212.7,417,214.8,417,217.4 M498.9,220.9c0.6-0.3,1.2-0.6,1.7-1c1.4-1.3,2.8-2.6,4.1-4c3.1-3.4,5.3-7.5,7.2-11.6
		c1.3-2.9,2.8-5.7,2.7-9c0-1.2,0.2-2.3,0.4-3.5c1.3-10.2,2.5-20.3,3.7-30.5c0.1-1.1,0-2.3,0-3.6l-3.5,0.6c-4,0.7-8,1.4-12.1,2
		c-1.8,0.3-2.3,0.4-2.5,2.1c-0.4,2.9-0.6,5.8-0.9,8.7c-0.2,2.2-0.4,4.3-0.6,6.5c-0.5,5.4-0.5,10.9-1.2,16.3
		C496.8,201.9,493,213.8,498.9,220.9 M631.5,187.4c-1.7,2.6-3.6,5-5.8,7.2c-3.6,3.4-7.6,5.1-12.3,5c-4-0.1-8.3-0.8-11.6-3.4
		c-3.4-2.8-6.5-7.7-7.9-11.8c-0.4-1.1-0.5-2.2-0.7-3.4c-1.4-7-0.5-13.7,2.3-20.2c0.6-1.4,1.1-3,1.5-4.5c0.5-1.7,0.3-1.9-1.5-2.4
		c-0.6-0.2-1.3-0.3-2-0.4c-1.1,4.3-2.2,8.5-3.3,12.7c-1.3,4.6-2.7,9.1-3.8,13.7c-0.7,2.9-1.5,5.7-2.8,8.4c-0.4,0.9-0.2,2.1-0.6,3.1
		c-0.7,1.8-1.6,3.5-2.6,5.1c-2,3.1-4,6.2-6.4,8.9c-3.3,3.8-7.9,6.4-13,6.6c-2.5,0.1-5-0.4-7.3-1.2c-2.4-0.9-4.5-3.2-6.9-3.5
		c-0.2,0-0.4,0-0.5,0.1c-0.2,0.1-0.2,0.3-0.2,0.5c-0.9,4.5-3.7,8.8-8.5,10.2c-3.1,0.7-6.3,0.9-9.4,0.5c-1.7-0.2-3.3-1.1-4.6-2.4
		c-1.4-1.4-2.9-2.6-4.3-3.9c-1.7,2.9-3.2,5.7-5,8.2c-1.6,2.1-3.4,4.1-5.4,5.8c-3,2.6-6.9,3.2-10.6,2.5c-2.2-0.5-4.1-2.4-6.1-3.8
		c-1.5-1.1-3-2.3-4.6-3.5c-0.8,1.8-1.6,3.4-2.4,5.1c-2.5,5.7-7.3,8.5-12.9,10.2c-2.9,0.9-5.9,1.3-9.1,0.3c-2.9-0.9-5.3-2.2-7.2-4.6
		c-0.9-1.2-1.9-2.3-2.8-3.5c-0.7-1-1.4-1.3-2.5-0.5c-1.5,1-3.1,2-4.7,3.1c0.2,0.8,0.4,1.5,0.6,2.2c1.9,6.9,0.8,13.5-1.9,20
		c-0.3,0.7-0.8,1.3-1.3,1.8c-1.5,1.2-3,2.3-4.7,3.3c-0.9,0.5-2,0.8-3,0.7c-1.9-0.1-3.8-0.5-5.6-1c-2.7-0.7-7.8-4.6-8.4-7.6
		c-0.4-2.2,1.8-5.7,2.8-7.5c1.7-3.1,4-5.7,6.5-8.2c1-1,4.2-3,4.2-4.6c0-2.8-2.1-3.5-4.4-4l-0.2,0c-3-0.8-5.6-0.2-8.1,1.7
		c-1.6,1.3-3.8,1.8-5.7,2.7c-0.9,5.8-1.7,11.7-2.7,17.6c-0.4,2.4-1.1,4.7-1.8,7c-0.7,2.3-1.3,4.6-2.2,6.9c-1.4,3.7-3.3,7.9-7.2,9.4
		c-1.4,0.5-2.8,0.8-4.2,1.3c-1.1,0.4-2.2,1-3.4,1.2c-2.3,0.3-7.6-1.4-9.2-3.2c-1.5-1.7,1.4-2.9,2.5-3.4c1.8-0.8,3.7-1.6,5.3-2.7
		c1.2-0.8,2.4-1.9,3.2-3.1c2.8-4.2,4.6-8.8,5.7-13.8c0.4-1.8,1.1-3.5,1.4-5.3c0.6-4.3,1.1-8.6,1.5-12.9c0.3-3.1,0.5-6.3,0.6-9.4
		c0.3-4.9,0.4-9.9,0.6-14.9c0.1-2.6,0.2-5.2,0.5-7.8c0.1-1.2,1.3-5.3,0.5-6.3c-0.7-0.9-2.3,0.7-2.8,1.2c-3.8,3.3-7.2,6.9-9.8,11.3
		c-1.3,2.2-2.4,4.3-3,6.8c-0.5,2-1.9,2.8-4,2.5c-0.9-0.1-1.8-0.4-2.6-0.7c-2-0.8-2.7-2.1-2.4-4.3c0.8-5.3,3.6-9.6,6.9-13.6
		c3.2-3.7,7-6.7,11.2-9.1c2.1-1.2,4.4-2,6.6-2.8c1.5-0.5,2.3-1.4,2.7-2.9c1.3-4.1,3.4-7.7,6.3-10.9c2.2-2.4,5-3.2,8.1-3.3
		c1.7-0.1,2.8,1,3.9,1.9c0.8,0.6,0.6,1.4,0.1,2.3c-1.2,2.2-2.2,4.4-3.5,6.5c-0.9,1.4-2.1,2.6-3.2,3.9c1.6,0.7,3.2,1.2,4.8,1.7
		c3.8,1.2,7,3.3,9.6,6.1c1.3,1.5,2.1,3.6,2.7,5.5c0.6,2.2,0.5,4.5,0.3,6.9c-0.2,2.7-0.6,5.3-1.5,7.8c-1.6,4.1-3.5,8.1-6.4,11.5
		c-0.2,0.2-0.4,0.5-0.5,0.8c0.1,0.2,0.1,0.5,0.2,0.5c3.1,1.4,6.2,2.8,9.3,4.3c0.9,0.4,1.5,0.6,2.3,0c1.4-0.9,3.1-1.8,4.4-2.9
		c1.6-1.4,0.7-2,0.4-4.1c-0.5-3.7-0.2-7.5,0.5-11.2c0.8-4.1,1.9-8.1,3.5-12c1.3-3.1,3.7-8.4,7.3-9.2l3.7-0.8
		c1.3-0.3,2.6-0.5,3.9-0.5c4.3,0.2,7.4,3.8,8.5,7.7c1.4,4.8-0.8,9.7-3.2,13.8c-2.1,3.8-4.6,7.4-7.3,10.8c-1.1,1.3-3.7,3.3-4.2,4.9
		c-0.6,1.9,0.8,4.5,1.6,6.1c0.2,0.4,0.4,0.7,0.7,1c0.6,0.4,1.4,0.3,2.1,0c2.5-1,5-2.4,6.6-4.7c2.1-3,4.1-6,6.2-9c2-3,3.7-5.4,4-9.1
		c0.4-4-0.6-8.1,0.2-12.2c1.9-10.1,3.1-20,4.3-30.2c0-0.4,0.1-0.8,0.2-1.4c-0.6,0-1.1-0.2-1.6-0.1c-4.9,1.3-9.9,2.4-14.3,5
		c-1.7,1-3.3,2.2-4.9,3.4c-2.8,2.1-5.6,4.2-8.4,6.3c-1.6,1.2-6.8,2-7-1.2c-0.1-1.9,3.4-5.7,4.7-7c6.3-6,13.9-9.9,22.3-12.4
		c2.6-0.8,5.4-1.1,8.1-1.6c1.6-0.3,2.7-0.8,3.2-2.6c0.4-1.8,1.4-3.4,2.1-5.1c0.5-1.2,1.3-1.7,2.7-1.7c4,0,7.8,2.9,8.8,7
		c2.3-0.4,4.7-0.7,7-1.2c2.9-0.6,5.9-1.3,8.8-1.8c1.2-0.2,1.8-0.7,2.1-2c0.6-3.3,1.3-6.5,2.3-9.7c0.5-1.5,1.7-5.5,3.3-6.3
		c0.7-0.4,1.6,0,2.3,0.4c2.1,1.5,4.3,2.8,6,4.8c0.7,0.8,1,1.5,0.8,2.5c-0.3,1.8-0.6,3.6-0.7,5.4c3-0.1,6.4-2.8,8.9-4.4
		c3-2,5.8-4.2,8.5-6.6c2.3-2,4.6-4.2,6.8-6.2c0.8-0.8,1.6-1.6,2.5-2.3c0.4,1.6-0.1,2.9-0.5,4.4c-0.5,1.6-0.5,3.4-0.9,5
		c-2.2,9.5-12.7,15.7-21.2,18.5c-1.5,0.5-3,1-4.5,1.3c-1,0.3-1.6,0.8-1.7,1.8l-1.6,15.7c-0.3,3.3-0.7,6.6-0.9,9.9
		c-0.4,4.5-0.6,9-1,13.5c-0.2,2.4-0.3,4.8-0.6,7.2c-0.4,3-0.1,6.1,1.2,8.9c0.1,0.2,0.2,0.4,0.4,0.5c0.2,0.1,0.5,0.1,0.7,0
		c2-0.6,3.6-1.9,4.8-3.6c2.1-2.9,3.9-6,5.8-9.1c0.7-1.1,0.1-2.1-0.3-3.1c-2.2-5.4-2.3-11.1-1.6-16.8c0.8-6.6,4.2-13.9,8.7-18.7
		c3.2-3.4,9.1-5,13.6-4.3c0.9,0.2,1.9,0.6,2.7,1.1c1.3,0.8,2.6,1.6,3.7,2.5c2.7,2.3,4.3,5,3.7,8.7c-0.9,5.7-3.5,10-9,12.5
		c-3,1.4-5.8,2.2-9.1,1.3c-0.9,2.2-0.9,4.3-0.7,6.5c0.5,5.1,1.2,9.7,3.5,14.3c0.2,0.5,0.7,1,1.2,1c0.3,0,0.6-0.1,0.8-0.2
		c5.5-2.2,9.6-7.2,12.5-12.2c3.6-6.4,6.9-13,8.8-20.1c2.2-8.4,4.2-16.8,6.2-25.2c0.3-1.2,0.4-2.2-0.4-3.3c-1-1.5-1-3.2-0.3-4.8
		c1-2.2,2.7-7.8,5-8.8c0.6-0.3,1.3-0.3,2-0.6c0.5-0.2,1-0.5,1.6-0.6c1.2-0.3,2.6,0.1,3.7,0.8c2.2,1.5,3.4,3.5,2.5,6.2
		c-1.2,3.5-2.3,6.9-3.5,10.6c0.7,0.3,1.3,0.7,2,1c2.5,1,5.1,1.9,7.7,2.9c3,1.2,4.7,3.2,4.7,6.6c0,3.9,0.6,7.9-0.6,11.7
		c-0.8,2.4-1.9,4.6-2.7,6.9c-1.9,5.1-2,10.2-0.4,15.4c0.5,1.6,1,2,2.6,1.4c1.9-0.7,3.9-1.6,5.6-2.7c4.1-2.6,6.4-6.7,8.5-10.9
		c0.6-1.1,1.1-2.2,1.8-3.3c1.3-1.9,4.9-2.2,6.6-0.7c1.9,1.5,2.2,3.8,1.9,6.1C633.4,182.8,632.8,185.5,631.5,187.4"/>
	<path class="st3" d="M211.6,312.8c1.7,0.1,2.4-0.8,2.9-1.9c1.2-2.6,1.6-5.4,1.5-8.2c0-0.5-0.2-1-0.4-1.7
		C212.6,304.5,211.1,308.1,211.6,312.8L211.6,312.8z M283.4,308.3l-0.1-0.1c-1.3-0.4-3,8.7-3.3,10c-0.5,2.6-1.6,6.8,0.2,9.1
		c0.1,0.1,0.2,0.3,0.4,0.3c0.1,0,0.3,0,0.4-0.1c2.6-1.2,2.4-5.7,2.5-8c0.3-3.4,0.5-7,0.2-10.4C283.8,308.9,283.7,308.5,283.4,308.3
		 M170.5,295.6L170.5,295.6c0.3,0.3,0.8,0,1.1-0.2c1.9-1.8,3.4-3.9,4.9-6c2.9-4.4,3.9-9.1,2.9-14.3c-0.3-1.7-1.2-3.1-2.5-4.3
		c-0.1-0.1-0.3-0.2-0.4-0.2c-0.2,0-0.3,0.1-0.4,0.2c-1.3,1.3-2.3,2.5-2.8,4.3c-0.9,3.4-1.7,6.9-2.2,10.4c-0.5,3.1-0.5,6.4-0.5,9.6
		C170.4,295.3,170.4,295.5,170.5,295.6 M264.9,281.1c0.7-0.8,1.4-1.5,2-2.4c0.2-0.3,0.3-0.5,0.5-0.8c1.4-3,2.7-6.1,3.9-9.2
		c1.5-3.7,2.9-7.5,4.7-11.1c1.6-3.3,1.7-3.5-0.8-6.3c-0.2-0.2-0.5-0.5-0.7-0.7c-2.1-2-3.9-1.9-6,0.2c-1.8,1.7-2.3,4-3.5,6
		c-1.4,2.3-2.2,4.8-2.5,7.5c-0.1,0.9-0.3,1.8-0.4,2.7c-0.5,3.3-0.6,6.6,0.4,9.9c0.3,0.9,0.6,1.7,1.1,2.5c0.2,0.3,0.4,0.6,0.6,0.9
		c0.1,0.1,0.2,0.3,0.4,0.4C264.7,280.8,264.8,280.9,264.9,281.1z M255.9,282.2c-0.3,1.3-0.6,2.6-1.1,3.8c-0.7,1.8-1.5,3.5-2.3,5.2
		c-0.2,0.5-0.7,0.9-1,1.4c-3,4.9-9.2,6.2-14.1,3.4c-4.1-2.3-6.6-6-8.8-9.9c-0.3-0.6-0.6-1.2-0.9-1.8c0,0-0.1,0-0.5-0.1
		c-0.5,0.7-1,1.5-1.5,2.3c-0.3,0.4-0.3,1-0.7,1.3c-2.1,1.8-1.8,3.9-1,6.1c0.6,1.6,1,3.3,1.5,5c1.7,5.9,0.9,11.5-1.9,16.9
		c-0.3,0.7-1.1,1.2-1.7,1.6c-1.5,0.9-2.8,2.2-4.8,2.6c-6.1,1.3-10.5-3.6-12-9c-2.1-7.1,1.7-12.3,5.7-17.9c1.2-1.7,1.4-3.2,0.5-5
		c-1.8-3.6-3.5-7.3-5.3-11c-0.8-1.6-1.6-3.2-2.7-5.3c-0.4,1.1-0.9,1.7-1,2.4c-0.9,6.5-3.4,12.5-5.1,18.8c-0.4,1.4-0.5,3-1.1,4.3
		c-2,5-3.8,10.2-6.2,15c-2,3.9-5.3,7.1-8.8,9.8c-2.7,2-5.9,2.4-9,1.1c-4.2-1.7-7.7-4.3-10.1-8.2c-4.5-7.3-5.7-15.2-4.1-23.5
		c1.2-6.1,2.9-12,5.5-17.6c0.9-1.9,2.3-3.2,3.9-4.4c2.9-2,6.3-2.6,9.6-3.1c0.9-0.1,2.1,0.2,2.8,0.8c2.9,2.6,5.3,5.5,5.8,9.6
		c0.2,1.2,0.4,2.4,0.6,3.7c0.4,2.3-0.4,4.4-1.3,6.5c-0.3,0.7-0.8,1.3-1,2c-2,7.2-7.1,11.2-14.1,13.7c-0.1,4.8,0.7,9.5,3.1,14.1
		c4.2-2.3,7.6-5,9.8-9.1c2.8-5.3,5.2-10.8,6.9-16.6c1.9-6.3,3.9-12.6,5.7-18.9c1.1-3.9,2-7.9,2.9-11.9c0.3-1.5,0.4-3.1,0.4-4.7
		c0-5.3,1.5-10.3,3.4-15.2c0.1-0.3,0.3-0.6,0.5-0.8c1.6-1.4,6.3-1.1,8,0.4c1.1,0.9,1.5,2,0.9,3.3c-1.9,4.2-2.1,8.7-2.2,13.2
		c-0.1,2.4,0.4,4.7,1.1,6.9c1.4,4.5,3.3,8.9,5.7,13c0.9,1.6,1.7,3.2,2.7,5c0.6-0.6,1-0.9,1.3-1.4c1.7-2.5,3.3-5,4.9-7.6
		c0.4-0.7,0.6-1.6,0.6-2.3c0-5.8,0.6-11.5,2-17.1c0.6-2.7,1.7-3.3,4.3-2.2c2.6,1.1,4.5,3.1,6.3,5.2c0.4,0.5,0.5,1.4,0.6,2.1
		c0.1,0.5,0.1,1-0.1,1.5c-1,3.4-0.7,6.9-0.8,10.4c-0.1,3.8-0.2,7.6,0,11.4c0.1,2.4,0.8,4.7,1.4,7.1c0.2,0.8,0.8,1.5,1.4,2.5
		c3.1-2.2,5.1-4.8,5.8-8.1c0.8-3.5,1.2-7.1,1.9-10.6c1.2-5.2,2.4-10.4,3.9-15.5c1.3-4.5,3.9-8.4,7.5-11.3c3.9-3.1,8.7-3.7,13.5-2.3
		c1.8,0.5,3.5,1.3,5.6,2.1c0.2-1.7,0.4-3.4,0.5-5.1c0.1-2.6,0.6-5.1,1.7-7.5c0.4-0.9,1-1.5,2.1-1.4c1.1,0.1,1.7,0.5,2.3,1.6
		c0.6,1.3,1.6,2.5,2.7,3.5c1.4,1.3,2.3,2.8,2.4,4.8c0.1,5.7,0.2,11.3,0.2,17c0,2.6-0.1,5.2,0.3,8.1c1.4-0.6,1.6-1.6,2-2.6
		c2.8-6.8,5.5-13.6,8.4-20.3c1.9-4.5,4.2-8.9,6.3-13.3c0.3-0.7,0.8-1.2,1.3-1.9c3.1-0.2,6,0.2,8.5,2c0.9,0.7,1.9,1.8,2.1,2.9
		c0.9,4,1.6,8.2,2.3,12.2c0.2,1.5,0.3,3,0.4,4.9c1.7-1.8,2.7-3.6,3.8-5.3c2.7-4.2,5.5-8.4,9.1-11.9c0.6-0.6,1.2-1.1,1.8-1.7
		c1.3-1.4,2.6-1.5,4.2-0.6c1.4,0.7,3.1,0.9,4.5,1.9c2,1.5,2.8,3.3,2.8,5.5c0,4.1-0.8,8-2,12c-1.8,6.1-3.6,13.7-1.8,20
		c0.1,0.2,0.1,0.5,0.3,0.6c1.8,1.9,8-2.8,9.3-3.9c4.2-3.7,7.1-8.1,8.1-13.7c0.6-3.5,4.2-2.1,6.6-1.3c0.5,0.2,1,0.4,1.5,0.7
		c0.7,0.6,1,1.5,1.3,2.4c-2,3.4-2.5,7.2-4.3,10.7c-1.6,3.2-3.9,6.1-6.7,8.4c-5.5,4.4-13.4,6.9-19.8,3.2c-1-0.6-1.9-1.7-2.5-2.7
		c-3.5-6-5.6-12.5-5.2-19.5c0.1-2.2,0.6-4.5,1-6.7c0.2-1.1,0.2-2.2,0.3-3.2c-3,1.7-5.1,6.4-6.8,9.4c-2.1,3.7-3.9,7.5-5.3,11.5
		c-1.8,5.3-3,10.7-4,16.2c-0.3,1.8-1.7,3.2-3.5,3.5c-2,0.4-3.4-1.1-4.6-2.5c-3.8-4.4-2.9-8.8-2.7-14.1c0.2-7.3,2-14.3,2.9-21.5
		c0.1-1.2,0.5-2.4,0.9-4c-1.4,1-1.6,2.1-2,3.2c-1.7,4.3-3.3,8.7-5.1,13c-0.9,2.1-2.2,4.1-3.2,6.2c-1.5,3.2-2.9,6.3-4.3,9.5
		c-1.3,2.9-2.5,5.8-3.8,8.7c-0.7,1.6-1,3.3-0.7,5.1c1,6.3,1.5,12.6,1.5,18.9c0,2.8,0.4,5.6,0.4,8.5c0,3.7-0.4,7.3-1.5,10.9
		c-1.1,3.8-5,7.6-9.2,7.6c-4.1,0-8.2-3.7-9.6-7.4c-1.6-4.3-1.2-9.4-0.1-13.8c1.9-7.2,4-14.3,7-21.1c0.3-0.6,0.5-1.3,0.4-1.9
		c-0.5-3.5-1.1-7-2.1-10.6c-0.4,0.8-0.7,1.5-1.1,2.3c-0.9,2.4-2.7,4.1-4.7,5.3c-3.3,2-6.8,1.5-10,0c-2.2-1.1-4.1-2.8-6.1-4.3
		c-0.5-0.4-1-0.9-1.5-1.3C255.9,282.1,255.9,282.2,255.9,282.2z"/>
	<path class="st3" d="M104.7,341.7l0-1.2c0-0.7,0-1.4-0.2-2c-0.8-1.7-3.6-1.6-5.1-1.4c-2.4,0.2-5.1,1.2-6.9,2.8c-2.1,2-3,5-2.8,7.9
		c0.2,3.5,2.1,6.8,4.2,9.5c0.3,0.3,0.6,0.7,1,0.9c0.6,0.3,1.4,0,2-0.3c3.2-1.5,5.6-4.3,6.6-7.7c0.6-2.3,1-4.8,1.2-7.2
		C104.6,342.5,104.7,342.1,104.7,341.7 M114.9,333.1c0,0.1,0.6,0.2,0.7,0.2c0.3,0.1,0.5,0.2,0.8,0.3c0.5,0.2,1.1,0.4,1.6,0.6
		c1.1,0.4,2.1,0.7,3.2,1.1c0.5,0.2,1.1,0.4,1.6,0.5c2.3,0.7,4.9,2.1,7.4,1.9c1.9-0.1,3.6-1.2,5-2.5c3.6-3.5,6.1-7.8,7.3-12.6
		c1.6-6.4,1.6-12.9,1.9-19.4c0.1-3,0-6.2-0.7-9.2c-1.7-7.4-4.2-14.6-9.3-20.5c-1.6-1.8-3-3.8-5.5-4.7c-1.8,3.4-3.1,6.5-3.9,10.3
		c-0.9,4.3-1.8,8.7-2.8,13c-1.1,5.3-2.3,10.6-3.3,15.9c-0.9,4.9-1.6,9.8-2.4,14.7c-0.3,2-0.6,4-0.9,6c-0.1,0.7-0.2,1.5-0.3,2.2
		c-0.1,0.4-0.1,0.7-0.2,1.1C115,332.4,114.9,332.8,114.9,333.1z M82.4,273.8c-0.6,1.3-1.3,2.5-1.9,3.8c-0.8,1.8-1.1,3.7-1.3,5.6
		c-0.4,3.5-0.7,7-0.5,10.5c0.2,3.6,2,6.5,4.5,8.6c2.1,1.8,5.9,2,8.5,2.6c-0.5,0.8-0.7,1.9-0.6,2.8c0.1,0.4,0.1,0.7,0.1,1.1
		c-0.3,1.3-3.2,1.9-4.3,1.9c-4.6-0.1-8.6-1.8-11.8-5.2c-5.3-5.6-8.3-13-8.7-20.7c-0.2-5,0.9-10.2,3.4-14.5
		c4.4-7.3,12.8-12.4,20.7-14.9c9.4-3,18.7-2.4,27.8,1.2c2.5,1,4.9,2.3,7.3,3.5c0.8,0.4,1.5,0.4,2.2-0.1c1.2-0.8,2.5-1.5,3.7-2.1
		c3.3-1.8,6.9-1.9,10.5-1.8c2.6,0,4.3,1.4,5.5,4.4c-1-0.1-1.9,0-2.6-0.3c-2.6-1.3-5.3-1-7.8-0.2c-2.3,0.7-4.5,1.7-6.6,2.8
		c2.2,1.6,4.5,3.2,6.7,4.8c1.1,0.8,2.2,1.6,3.1,2.6c4.6,4.8,6.8,10.6,8.5,17c1.4,5.1,3,10.7,2.8,16c-0.1,3.9,0.6,7.7,0.7,11.6
		c0.1,3.8-0.5,7.9-1.4,11.7c-1.1,4.8-4.1,8.8-7,12.7c-0.6,0.9-1.3,1.7-2,2.5c-0.2,0.3-0.5,0.6-0.7,0.9c-2.5,2.4-7.1,3.4-10.4,3.2
		c-5.5-0.3-10.7-1.4-15.7-3.7c-0.4-0.2-0.9-0.1-1.6-0.2c0,0-1.1,5.3-1.2,5.8c-0.9,3.6-2.8,6.8-5.2,9.6c-2.1,2.5-4.6,5.7-8.1,6.1
		c-1.6,0.2-3.2-0.3-4.7-0.7c-2.6-0.8-4.6-1.8-6-4.2c-5.1-8.2-2.6-19.6,5-25.4c1.4-1,3.3-1.5,5-2c1.7-0.5,3.4-0.7,5.1-0.9
		c1.5-0.1,2-0.9,2.1-2.2c0.2-1.9,0.3-3.8,0.6-5.7c1-6.9,1.8-13.8,3.2-20.6c1.7-8.2,3.8-16.3,6.8-24.2c1.6-4.2,3.5-8.3,6.2-11.9
		c0.3-0.4,0.5-0.8,0.7-1.1c0-0.1,0-0.2,0-0.5c-0.4-0.3-0.9-0.8-1.6-1.1c-4.2-1.8-8.4-3.7-12.9-4.9c-5.9-1.6-10.8,0.6-15.3,4
		c-2.1,1.6-4,3.5-6,5.3c-0.9,0.9-1.9,1.7-2.7,2.6c-0.8,0.9-1.3,2-1.8,3.1L82.4,273.8"/>
	<path class="st3" d="M244.5,234.2c0.1,2.4-1.5,4.2-3.9,5.3c-2.3,1.1-4.4,0.7-6.4-0.6c-2.8-1.7-3.3-3.5-4.7-6.1
		c-0.3-0.5-0.8-0.9-1.1-1.4c-2-2.5,0.8-5.9,3.6-5.6c3.6,0.3,7.2,0.9,10.3,3.3C243.8,230.3,244.6,231.8,244.5,234.2"/>
	<path class="st3" d="M651.8,189.5c-2.4,0-5-2.1-5.8-4.7c-0.2-0.6-0.3-1.3-0.6-1.9c-1.1-2.7-0.6-4,2.1-4.5c2.8-0.5,5.4,0.5,7.8,1.9
		c1.6,0.9,2.4,4.8,1.9,6.4C656.6,188.5,654.7,189.5,651.8,189.5"/>
</g>
</svg>
