<svg width="800" height="600" viewBox="0 0 800 600" xmlns="http://www.w3.org/2000/svg"><title>Group 2</title><desc>Created with Sketch.</desc><g fill="none"><path fill="#4FBBE2" d="M0 0h800v600h-800z"/><g fill="#fff"><path d="M270.641 425.412c-.232.336-.373.447-.384.569-.582 6.705-.498 13.394.643 20.04.154.894.618 1.717.992 2.532 1.198-.459 1.839-.958 1.969-2.235.096-.938.152-1.897.074-2.834-.414-4.939-1.151-9.828-2.418-14.629-.288-1.091-.557-2.186-.876-3.444m-53.139-90.912c-.117-.103-.255-.158-.417-.156-1.377.021-2.85 1.101-3.41 2.305-.935 2.012-1.284 3.975-.917 6.187.269 1.622.791 3.19 1.171 4.789.361 1.52.74 3.276 2.122 4.011 1.15-2.448 1.03-5.437 1.353-8.066.141-1.148 1.366-7.951.098-9.07m15.82 75.44l-.038-.02c-.284-.138-.641.021-.827.276-1.903 2.592-3.042 6.629-4.274 9.607-1.454 3.513-2.205 7.183-1.966 11.014.168 2.693 3.584 4.638 5.691 3.143 2.592-1.84 4.334-4.165 4.463-7.588.111-2.95-.295-5.814-.862-8.654-.261-1.305-.995-7.085-2.188-7.778m92.126-37.493c1.043-1.002 1.933-1.576 2.435-2.388 2.344-3.792 4.614-7.631 6.838-11.496.792-1.377 1.422-2.853 2.047-4.318.483-1.131.965-2.287 1.226-3.48.341-1.557.453-3.163.68-4.747.552-3.856 1.142-3.678-3.008-5.411-2.75-1.148-5.952.067-7.165 2.758-.417.925-.823 1.857-1.204 2.797-.918 2.269-2.069 4.484-2.654 6.837-.615 2.472-.571 5.099-1.019 7.622-.457 2.578-.035 5.049.522 7.521.296 1.311.774 2.582 1.302 4.304m-34.574-.994v-1.33c-.025-3.393-.979-6.609-1.93-9.819-.275-.929-.788-1.867-1.962-1.705-1.726.238-3.407.563-4.657 2.069-1.181 1.423-2.202 2.904-2.749 4.659-1.316 4.231-2.514 8.5-3.882 12.715-.844 2.601-.841 5.12 0 7.698.398 1.22 3.816 4.276 5.091 4.364.424.029.865-.084 1.288-.176 3.017-.66 5.175-2.459 6.179-5.312 1.497-4.252 2.902-8.56 2.622-13.163m-28.332 47.034c.056-3.069.192-6.145.463-9.202.301-3.408.745-6.864.745-10.289.114-2.453-.23-4.936-.474-7.395-.381-3.839-.852-7.669-1.292-11.502-.023-.204-.112-.4-.197-.69-2.235.489-4.037 1.697-5.646 3.172-4.853 4.45-9.515 9.08-13.602 14.269-1.144 1.452-1.287 2.617-.498 4.323 1.429 3.092 2.679 6.29 3.688 9.541 2.124 6.847 2.135 19.872-4.286 24.508-7.514 5.424-15.271 3.031-20.349-4.168-.203-.287-.327-.665-.379-1.017-.592-4.008-.76-7.982.777-11.863 1.916-4.834 4.269-9.452 7.183-13.746 1.142-1.683 1.02-2.985.054-4.603-2.129-3.57-4.164-7.196-6.177-10.833-1.126-2.035-2.117-4.145-3.198-6.205-.286-.546-.679-1.036-1.19-1.801-.398.807-.728 1.282-.876 1.808-1.143 4.06-2.165 8.155-3.388 12.19-2.308 7.613-4.167 15.333-5.762 23.118-.804 3.925-1.503 7.871-2.264 11.804-.705 3.644-1.428 7.285-2.144 10.927l-.112.423c-.12 1.448-.051 2.95-1.438 3.955-1.797 1.303-3.7 2.328-5.989 2.359-3.317.045-3.429-.24-3.263-3.63.258-5.258 1.719-10.276 2.787-15.373 1.344-6.416 2.554-12.868 4.165-19.217 1.595-6.284 3.685-12.44 5.429-18.689 1.291-4.624 2.347-9.312 3.564-13.957.59-2.252 1.246-4.492 2.002-6.693.359-1.046.412-1.922-.135-2.913-3.304-5.986-5.595-12.986-5.461-19.875.13-6.664 3.512-15.728 11.442-15.616 2.379.034 4.877.591 6.606 2.221 1.404 1.324 2.15 3.225 2.423 5.133 1.109 7.753-1.049 17.527-3.396 24.881-.251.785-.068 1.937.353 2.666 1.523 2.639 3.288 5.137 4.857 7.75 1.868 3.112 3.622 6.292 5.437 9.436.73 1.264 1.52 2.494 2.229 3.769.529.95 1.035 1.923 1.439 2.931.593 1.482.946 1.582 2.051.419 2.465-2.594 4.885-5.232 7.406-7.77 2.469-2.485 4.957-4.965 7.598-7.262 1.752-1.524 3.765-2.756 5.704-4.054.96-.643 1.214-1.271 1.053-2.523-.626-4.849-.598-9.717.31-14.555.141-.752.484-1.16 1.19-1.371 2.411-.721 5.497-.325 7.193 1.756.687.843 1.339 1.739 1.849 2.694.508.953.818 2.012 1.301 3.244 1.203-1.699 2.123-3.666 3.845-4.919 1.729-1.257 3.837-1.861 5.916-2.238 1.285-.233 2.627-.14 3.937-.26 5.206-.479 11.105 2.699 13.373 8.015 1.619 3.795 2.968 7.59 2.974 11.752.002 1.086-.124 2.172-.187 3.258-.028.477-.044.954-.072 1.581 1.104-.335 1.25-1.224 1.513-1.9 2.113-5.439 4.236-10.875 6.209-16.366.733-2.041 1.064-4.224 1.593-6.339 1.16-4.631 3.794-8.49 6.582-12.24 1.164-1.566 2.536-2.99 3.911-4.383.538-.545 1.298-.966 2.034-1.205 3.965-1.286 8.023-1.509 12.135-.865 1.133.178 2.27.334 3.404.5.778-2.16 1.463-4.144 2.208-6.106.878-2.312 1.295-2.584 3.787-2.061 1.482.311 2.979.74 4.342 1.383 2.326 1.098 3.151 3.06 2.586 5.614-.792 3.581-1.678 7.409-1.704 11.184-.026 3.872.076 7.663-.319 11.536-.192 1.879-.067 3.795 0 5.691.024.687.298 1.366.496 2.212 1.631-.694 2.413-1.997 3.245-3.106 1.793-2.39 3.576-4.832 4.966-7.461.736-1.392.787-3.213.886-4.856.157-2.616.022-5.248.143-7.867.222-4.803.429-9.612.877-14.396.16-1.7.829-3.302 1.307-4.926.206-.699.566-1.419 1.225-1.735 1.465-.702 4.81.297 6.201.911 1.821.805 2.819 2.307 3.724 3.858.39.669.349 1.71.218 2.536-.272 1.717-.815 3.391-1.091 5.107-.152.943-.116 2.127.347 2.959 1.705-2.446 2.466-5.532 3.746-8.212 1.455-3.043 3.088-6.005 5.154-8.683.636-.824 1.303-1.646 2.163-2.234 1.409-.963 3.215-1.203 4.911-1.007 4.035.466 7.315 2.235 9.165 5.911.469.932 1.003 2.356 1.791 2.956 2.16-2.973 3.844-6.252 5.58-9.479 1.428-2.655 2.937-6.538 5.648-8.17 1.242-.747 2.821-.635 4.228-.279 4.903 1.241 8.208 2.836 9.371 8.127.921 4.191.354 8.693-.509 12.845-1.145 5.509-2.919 10.862-3.209 16.488-.043.842.096 1.693.167 2.775.642-.31 1.157-.429 1.49-.742l4.167-3.665c3.445-3.238 4.915-7.646 7.303-11.503.634-1.024 1.175-1.364 2.286-1.019 2.006.622 4.257 3.434 4.387 5.512.057.901-.192 1.618-.535 2.453-.862 2.095-1.709 4.197-2.587 6.285-.776 1.848-2.311 3.334-3.539 4.9-2.536 3.239-6.851 6.37-11.184 5.244-4.058-1.055-7.932-3.1-10.218-6.723-2.558-4.053-3.466-8.575-3.232-13.361.208-4.236 1.661-8.094 3.238-11.958.728-1.784 1.057-3.729 1.566-5.601l-.554-.258c-.831 1.222-1.691 2.426-2.49 3.668-4.556 7.088-8.199 14.622-11.055 22.544-.988 2.74-2.162 5.415-3.113 8.168-.578 1.674-.991 3.421-1.299 5.166-.695 3.932-5.311 3.201-7.868 1.438-3.308-2.279-3.411-7.745-2.971-11.295.767-6.184 2.647-12.108 3.809-18.192.2-1.047.331-2.106.448-3.165.081-.733.555-2.269.27-2.963-.363-.883-2.308 1.601-2.55 2.009-1.601 2.69-3.261 5.372-4.544 8.217-2.456 5.445-4.784 10.954-6.941 16.523-1.029 2.654-1.909 5.362-2.772 8.074-.378 1.19-.817 2.377-1.163 3.573-.352 1.216-.288 2.546-.746 3.728-.336.865-1.037 1.614-1.93 1.869-.899.257-1.852.003-2.769-.176-2.072-.404-3.626.473-4.803 2.157-1.312 1.878-2.994 3.578-5.197 4.556-.525.233-1.071.559-1.617.579-2.646.097-5.204-.23-7.645-1.427-1.741-.854-3.318-1.788-4.278-3.541-.124-.226-.414-.363-.711-.611-.694 1.23-1.395 2.332-1.959 3.499-1.531 3.167-3.708 5.777-6.713 7.605-.962.585-2.138.993-3.258 1.117-6.729.746-11.548-2.599-15.106-8.019-.508.976-.896 2.01-1.378 3-1.903 3.925-3.509 8.011-6.377 11.408-3.092 3.663-6.626 6.775-11.009 8.801-5.615 2.596-11.233 2.031-16.816-.173-.592-.234-1.178-.484-1.795-.738-.165.313-.371.515-.343.677.487 2.796 1.003 5.587 1.512 8.379.222 1.219.454 2.436.657 3.658.858 5.167 1.728 10.331 2.552 15.504.549 3.442 1.24 6.881 1.486 10.348.266 3.745.501 7.528.018 11.266-.367 2.845-.991 6.476-3.876 7.826-1.011.473-2.121.686-3.217.895-1.273.243-2.555.486-3.851.484-4.384-.007-7.554-3.865-8.488-7.87-.975-4.177-1.24-8.486-1.307-12.762-.067-4.315-.056-8.647.004-12.962l.013-.804"/><path d="M594.802 284.855c6.967-5.573 8.098-16.194 5.173-21.579-1.672 1.876-2.824 3.928-3.431 6.243-.533 2.033-.972 4.105-1.262 6.186-.408 2.929-.846 5.874-.481 9.15m-78.736 26.616l.563.242c.978-1.401 2.182-2.697 2.888-4.223 1.746-3.772 3.356-7.638 3.82-11.812.181-1.63.064-3.364-.298-4.965-.503-2.225-2.197-2.369-3.692-.887-1.643 1.628-1.992 4.175-2.397 6.342l-.755 5.403c-.621 3.307-.692 6.599-.129 9.901m119.73-52.258l-4.355-2.427c-.592 1.788-1.201 3.448-1.691 5.143-1.846 6.374-3.915 12.701-5.38 19.163-.911 4.018-2.681 7.655-3.936 11.506-.974 2.987-2.207 5.892-3.137 8.879-1.059 3.403-2.206 7.017-4.504 9.807-2.061 2.503-4.84 4.298-8.026 4.988-4.025.872-7.709-.641-10.862-3.038-4.975-3.782-8.017-8.693-10.127-14.471-.275-.753-.527-1.513-.813-2.338-4.507-1.387-7.893-4.465-11.388-8.083-.255 1.467-.461 2.499-.611 3.539-.579 4.023-1.169 8.044-1.726 12.07-.283 2.041-.494 4.101-.818 6.135-.305 1.914-1.077 3.726-1.682 5.56-1.145 3.471-2.335 6.837-5.586 8.872-2.795 1.749-5.435.441-7.892-1.187-1.646-1.091-3.152-2.39-4.472-3.857-.612-.68-1.359-1.441-1.767-2.266-.424-.856-.666-1.831-1.11-2.697-.221-.431-.538-.807-.916-1.11-.016.706-.482 1.309-.803 1.909-.387.724-.655 1.417-.59 2.258.026.337.1.673.064 1.009-.15 1.396-1.075 2.959-1.569 4.269-.566 1.501-1.117 3.009-1.611 4.535-.771 2.382-2.382 3.914-4.082 5.694-4.48 4.689-10.167 4.833-16.032 4.108-1.131-.14-2.314-.539-3.289-1.124-3.201-1.919-6.244-4.092-8.652-6.979-3.291-3.946-4.978-8.546-5.118-13.676-.15-5.483.218-10.919 1.44-16.296.693-3.05 1.811-6.173 3.532-8.801 2.132-3.257 5.343-4.315 9.072-5.056 2.785-.553 5.624-.903 8.472-.178 2.024.515 3.554 1.656 4.467 3.495 1.54 3.1 1.781 6.467 1.464 9.817-.423 4.47-1.81 8.711-4.329 12.451-2.282 3.389-4.82 6.595-8.838 8.192-1.424.566-1.546.907-1.25 2.345.624 3.035 1.755 5.86 3.624 8.357 1.411 1.885 2.33 2.009 4.211.644 2.468-1.792 4.409-3.951 5.613-6.839 1.402-3.36 3.065-6.614 4.681-9.881.722-1.459 1.283-2.436 2.316-3.681.266-.321.475-.685.682-1.046 1.822-3.178 3.884-6.576 3.72-10.344-.147-3.361-.207-6.728-.105-10.091.054-1.783.153-3.566.307-5.343.084-.969-.111-3.599.805-4.207 1.083-.718 3.476-.711 4.725-.663 1.727.066 3.363.608 4.759 1.633 1.872 1.376 2.524 3.011 2.223 5.462-.662 5.39-.562 10.859-.034 16.255.265 2.704.642 5.396 1.111 8.072.106.607 1.469 6.869 1.49 6.852 1.939-1.571 2.681-5.117 3.311-7.394.797-2.882 1.304-5.835 1.748-8.789.345-2.291.243-4.855.952-7.062.178-.555.438-1.08.652-1.622 1.625-4.123 1.182-9.148 1.775-13.507.343-2.52.95-5.003 1.483-7.488.031-.142.066-.294.169-.396.102-.101.251-.135.391-.165 1.932-.414 4.796-1.317 6.76-.827.769.195 1.341.842 1.754 1.518 1.335 2.181 1.148 4.743 1.366 7.195.232 2.612.664 5.234 1.878 7.59.751 1.457 1.447 2.957 3.102 4.436.089-1.452.185-2.484.21-3.517.132-5.404.372-10.785 1.955-16.022 1.304-4.316 3.501-8.052 7.101-10.791 1.088-.828 2.604-1.322 3.982-1.487 1.939-.232 3.932-.011 5.902.01 3.548.038 6.558 2.881 6.771 6.398.42 6.95.97 15.055-3.448 20.985-1.381 1.853-2.476 3.959-4.204 5.53-.72.655-5.747 3.101-5.759 3.805-.091 5.641 1.778 11.674 4.567 14.622 1.686-.396 2.971-1.444 3.767-2.96 1.423-2.708 2.776-5.459 4.02-8.253.867-1.947 1.374-3.989 2.386-5.88 1.034-1.932 2.271-3.758 3.123-5.784 1.412-3.354 2.473-6.839 3.633-10.284 1.744-5.185 3.331-10.422 4.848-15.677.588-2.035 1.277-4.034 1.933-6.047.614-1.885 1.461-3.759 1.782-5.723.374-2.28-.094-4.592.248-6.911.34-2.308.995-4.562 1.826-6.739 1.201-3.149 5.573-2.179 8.146-1.801.736.108 1.152.618 1.331 1.495.435 2.14.308 4.042-.678 6.108-1.218 2.553-1.771 5.396-1.767 8.276.003 2.438.556 3.035 2.952 3.865 2.199.762 4.43 1.508 6.496 2.557 3.899 1.98 4.689 3.965 3.819 8.155-1.077 5.188-1.861 10.446-3.166 15.573-.732 2.877-1.086 5.862-1.062 8.829.01 1.215-.003 7.382 1.617 7.253 2.075-.165 4.253-1.756 5.755-3.074 1.814-1.591 3.317-3.496 4.887-5.328 2.475-2.888 4.882-5.664 6.776-8.981.141-.247.312-.493.568-.618.255-.125.613-.08.758.163.051.085.071.184.091.281.561 2.756 1.247 5.232.482 8.038-.53 1.942-1.018 3.965-1.752 5.841-.223.572-.481 1.129-.738 1.686l-.577 1.249c-.353.763-.714 1.542-1.223 2.217-.547.725-1.306 1.187-1.923 1.843-2.612 2.78-6.088 3.514-9.577 4.267-1.765.381-4.476-.371-6.121-1.042-2.03-.828-3.721-2.316-5.207-3.926-1.971-2.135-3.654-4.534-4.995-7.11-1.381-2.653-1.777-5.372-1.869-8.356-.227-7.474 2.537-14.367 4.774-21.356.217-.678.342-1.386.541-2.211"/><path d="M484.214 320.188c.566-.531.639-4.422.714-5.048.66-5.498 1.226-11.009 2.006-16.491.852-5.987 1.877-11.95 2.889-17.914.18-1.064.636-2.086 1.009-3.111 1.837-5.05 3.81-9.996 6.155-14.807 1.62-3.323 5.096-4.116 8.342-5.105 2.209-.673 3.4.922 4.527 2.562.107.155.213.325.218.513.005.218-.125.413-.252.59-1.968 2.758-3.931 5.25-5.545 8.254-1.033 1.924-2.043 3.866-2.957 5.848-2.216 4.805-3.219 9.929-4.073 15.121-1.122 6.825-2.547 13.599-3.755 20.41-.682 3.847-.936 7.722-1.566 11.574-.939 5.747-1.327 11.301-1.395 17.107-.014 1.227.171 2.47.388 3.684.614 3.435 1.067 6.923 2.016 10.268.45 1.587 1.345 6.378-.992 7.117-.506.16-1.055.045-1.565-.104-1.057-.309-2.145-.486-3.207-.786-3.352-.949-5.42-3.309-6.659-6.438-1.02-2.576-2.025-5.165-2.877-7.799-1.928-5.963-3.857-11.929-5.595-17.949-1.31-4.539-2.323-9.163-3.473-13.748-.057-.228-.552-3.193-1.187-2.092-.329.571.029 2.598.037 3.257.057 4.587.094 9.175.201 13.761.035 1.522.399 3.043.364 4.559-.083 3.633-.139 7.28-.524 10.888-.702 6.593-2.289 13.031-4.034 19.415-1.893 6.924-5.107 13.442-10.834 17.988-.989.785-2.046 1.511-3.231 1.949-2.316.856-5.047.495-7.059-.935 2.14-2.617 4.763-4.408 6.694-7.326 2.209-3.338 3.4-7.083 4.521-10.855 1.79-6.025 2.958-12.188 4.142-18.355.912-4.755 1.266-9.514 1.277-14.332.011-4.715.013-9.433.179-14.144.179-5.093.643-10.176.784-15.269.072-2.603-.285-5.219-.456-7.828-.181-2.756-.372-5.509-.53-8.266-.02-.34-.04-.685-.154-1.006-.114-.323-.317-.607-.444-.924-.319-.797-.128-1.695.066-2.531.052-.223.109-.456.261-.626.14-.157.343-.242.538-.321 1.546-.626 3.196-1.171 4.688-1.915 1.024-.415 1.97-.304 2.884.375 3.226 2.398 5.771 5.254 7.132 9.155 1.605 4.601 3.608 9.064 5.176 13.676 1.097 3.227 1.743 6.607 2.609 9.913.234.893 1.805 8.212 2.442 8.098l.105-.057"/><path d="M685.742 276.688c.795 0 1.541-.094 2.255.016 2.875.444 4.055 2.493 4.697 5.045.5 1.988-.249 4.43-1.979 5.618-2.572 1.767-6.693 2.276-9.261-.602-.86-.964-1.696-1.958-2.459-2.999-.812-1.109-.752-2.263-.061-3.471 1.533-2.679 3.72-4.039 6.808-3.608"/><path d="M426.817 259.143c1.865-.226 2.812-.965 3.391-2.44 1.014-2.582 1.617-5.237 1.87-7.98.038-.417-.162-.857-.336-1.686-2.857 3.792-5.689 7.093-4.924 12.105m31.297-55.581c-.768.922-1.495 1.544-1.896 2.331-.716 1.405-1.576 2.869-1.759 4.383-.292 2.409-.078 4.878-.078 7.313 3.197-2.428 5.57-10.512 3.733-14.027m82.542-24.755c-1.499.551-1.907 1.718-2.253 2.927-.597 2.085-1.197 4.169-1.781 6.257-.385 1.378-.745 2.764-1.152 4.279 4.489-1.836 6.691-6.263 6.66-10.311-.009-1.213-.45-2.255-1.474-3.152m-125.805 48.869c.59-.383.797-.471.943-.619 3.082-3.123 4.955-7.003 6.717-10.923.828-1.841 1.476-3.797 1.925-5.764.568-2.488.815-5.047-.135-7.531-.196-.512-.491-1.203-.917-1.374-1.93-.777-3.881-1.713-6.029-.947-1.274 3.38-2.012 6.785-2.159 10.299-.153 3.628-.251 7.258-.336 10.888-.044 1.868-.008 3.737-.008 5.97m71.897 3.091c.505-.291 1.058-.497 1.462-.865 1.242-1.132 2.489-2.27 3.622-3.508 2.743-2.995 4.636-6.523 6.314-10.191 1.15-2.516 2.466-4.945 2.355-7.848-.039-1.009.207-2.029.332-3.043 1.1-8.889 2.213-17.777 3.288-26.67.118-.975.016-1.977.016-3.182l-3.073.499c-3.532.578-7.059 1.195-10.599 1.719-1.596.237-1.98.367-2.179 1.829-.344 2.518-.566 5.053-.818 7.583-.189 1.885-.351 3.773-.515 5.66-.413 4.749-.414 9.514-1.062 14.245-.976 7.121-4.317 17.524.857 23.772m116.484-29.348c-1.519 2.246-3.142 4.415-5.115 6.276-3.126 2.944-6.643 4.477-10.831 4.343-3.523-.113-7.332-.68-10.169-2.939-3.028-2.412-5.68-6.762-6.943-10.36-.331-.943-.435-1.966-.627-2.955-1.192-6.114-.454-12 2.038-17.7.553-1.264.985-2.591 1.357-3.922.41-1.47.246-1.676-1.294-2.131-.54-.159-1.102-.245-1.746-.384-1.006 3.804-1.942 7.457-2.942 11.093-1.102 4.005-2.367 7.968-3.358 11.999-.624 2.539-1.334 5.007-2.472 7.371-.387.804-.204 1.873-.555 2.706-.648 1.536-1.373 3.069-2.289 4.456-1.764 2.671-3.489 5.409-5.579 7.819-2.909 3.352-6.929 5.612-11.42 5.79-2.179.086-4.354-.308-6.401-1.042-2.074-.744-3.916-2.816-6.072-3.021-.158-.015-.33-.018-.457.077-.133.1-.176.277-.21.44-.826 3.955-3.258 7.717-7.442 8.909-2.743.652-5.49.826-8.245.464-1.516-.199-2.873-.958-4.015-2.09-1.227-1.216-2.585-2.299-3.818-3.38-1.514 2.517-2.779 4.989-4.4 7.201-1.369 1.867-3.026 3.575-4.78 5.095-2.661 2.306-6.058 2.832-9.3 2.164-1.923-.396-3.598-2.098-5.329-3.293-1.358-.938-2.63-1.998-4.07-3.104-.745 1.599-1.427 3.012-2.066 4.444-2.208 4.946-6.401 7.476-11.31 8.905-2.561.745-5.215 1.151-7.988.296-2.55-.786-4.683-1.967-6.327-4.043-.816-1.03-1.684-2.023-2.444-3.093-.63-.888-1.257-1.1-2.197-.455-1.317.904-2.682 1.738-4.147 2.679.196.685.375 1.296.546 1.909 1.686 6.039.722 11.839-1.634 17.497-.243.583-.682 1.16-1.179 1.549-1.311 1.028-2.646 2.051-4.087 2.875-.766.438-1.791.687-2.667.619-1.658-.129-3.324-.435-4.931-.871-2.389-.648-6.888-3.99-7.359-6.618-.344-1.921 1.57-4.964 2.439-6.596 1.452-2.729 3.554-4.982 5.716-7.162.907-.915 3.696-2.636 3.716-4.026.035-2.434-1.877-3.093-3.821-3.529l-.218-.025c-2.632-.677-4.906-.184-7.13 1.525-1.431 1.099-3.327 1.597-5.025 2.369-.761 5.098-1.474 10.281-2.333 15.441-.345 2.073-.959 4.108-1.541 6.135-.582 2.029-1.181 4.062-1.943 6.029-1.239 3.197-2.914 6.938-6.354 8.219-1.214.452-2.497.699-3.708 1.158-.993.376-1.95.897-3.002 1.04-2.037.276-6.675-1.225-8.12-2.789-1.36-1.472 1.192-2.537 2.197-2.994 1.591-.724 3.216-1.428 4.675-2.372 1.071-.693 2.086-1.63 2.803-2.679 2.501-3.657 4.028-7.744 4.988-12.058.347-1.558.987-3.064 1.213-4.634.54-3.743.966-7.504 1.337-11.269.27-2.747.401-5.509.554-8.267.24-4.331.315-8.668.493-13.001.094-2.287.213-4.573.401-6.854.088-1.07 1.114-4.668.431-5.53-.61-.771-2.02.646-2.444 1.011-3.332 2.873-6.285 6.02-8.563 9.869-1.132 1.913-2.097 3.77-2.645 5.907-.455 1.773-1.671 2.486-3.48 2.19-.784-.128-1.568-.349-2.308-.639-1.783-.699-2.388-1.868-2.119-3.752.667-4.668 3.122-8.431 6.101-11.898 2.787-3.244 6.142-5.85 9.864-7.928 1.832-1.023 3.835-1.77 5.818-2.487 1.298-.469 1.994-1.213 2.399-2.544 1.098-3.603 2.996-6.765 5.561-9.556 1.936-2.106 4.381-2.768 7.084-2.898 1.453-.07 2.453.853 3.465 1.666.673.54.536 1.236.13 1.969-1.05 1.897-1.934 3.892-3.075 5.73-.772 1.244-1.862 2.309-2.825 3.403 1.391.571 2.817 1.05 4.244 1.524 3.297 1.016 6.123 2.874 8.397 5.351 1.165 1.27 1.834 3.128 2.335 4.834.568 1.936.459 3.967.307 6.035-.173 2.361-.495 4.675-1.355 6.799-1.445 3.57-3.049 7.108-5.63 10.073-.185.212-.317.47-.451.67.091.2.114.397.209.441 2.71 1.245 5.455 2.42 8.126 3.743.758.375 1.336.487 2.011.037 1.24-.828 2.717-1.584 3.831-2.573 1.378-1.224.646-1.765.383-3.629-.459-3.255-.201-6.583.449-9.794.722-3.565 1.627-7.125 3.095-10.464 1.184-2.693 3.262-7.339 6.442-8.008l3.273-.689c1.119-.235 2.252-.472 3.395-.427 3.749.15 6.487 3.29 7.457 6.698 1.204 4.228-.729 8.445-2.791 12.078-1.884 3.32-4.036 6.488-6.428 9.465-.941 1.171-3.235 2.909-3.669 4.31-.514 1.662.679 3.961 1.438 5.37.17.315.359.635.654.839.522.361 1.238.268 1.827.03 2.227-.901 4.415-2.084 5.805-4.11l5.446-7.892c1.798-2.621 3.259-4.768 3.543-8.006.31-3.537-.491-7.116.161-10.634 1.638-8.837 2.703-17.511 3.8-26.422.042-.342.112-.681.195-1.183-.561-.025-1.007-.151-1.389-.046-4.292 1.176-8.683 2.1-12.578 4.378-1.502.879-2.901 1.941-4.309 2.97-2.47 1.806-4.927 3.631-7.359 5.488-1.428 1.09-6.013 1.772-6.182-1.013-.103-1.697 2.992-5.004 4.159-6.099 5.576-5.232 12.224-8.689 19.546-10.808 2.301-.666 4.711-.981 7.085-1.367 1.402-.228 2.374-.663 2.777-2.247.39-1.534 1.205-2.961 1.84-4.432.448-1.039 1.158-1.531 2.38-1.519 3.476.033 6.835 2.537 7.746 6.102 2.04-.329 4.113-.618 6.168-1.006 2.585-.488 5.148-1.098 7.735-1.571 1.081-.197 1.585-.619 1.805-1.781.541-2.857 1.181-5.708 2.012-8.493.402-1.347 1.506-4.803 2.861-5.526.636-.339 1.43-.04 2.016.381 1.82 1.309 3.802 2.434 5.268 4.174.578.686.842 1.32.715 2.168-.234 1.56-.511 3.124-.651 4.695 2.663-.131 5.643-2.463 7.783-3.89 2.605-1.736 5.054-3.695 7.428-5.731 2.051-1.759 4-3.636 5.994-5.462.721-.66 1.419-1.366 2.18-1.972.31 1.376-.056 2.496-.434 3.824-.406 1.427-.446 2.933-.775 4.38-1.899 8.352-11.115 13.713-18.595 16.186-1.308.432-2.625.853-3.963 1.171-.921.219-1.382.684-1.475 1.617l-1.398 13.702c-.289 2.9-.576 5.8-.806 8.705-.311 3.923-.564 7.851-.845 11.776-.151 2.103-.224 4.217-.483 6.307-.323 2.604-.102 5.378 1.067 7.763.076.156.165.319.319.399.183.095.405.046.602-.013 1.746-.519 3.174-1.657 4.234-3.119 1.838-2.533 3.396-5.268 5.056-7.928.591-.946.118-1.854-.235-2.718-1.941-4.748-2.009-9.749-1.436-14.666.67-5.746 3.683-12.163 7.66-16.384 2.775-2.946 7.956-4.411 11.907-3.766.831.136 1.653.545 2.39.98 1.13.665 2.25 1.38 3.253 2.218 2.361 1.972 3.81 4.363 3.276 7.624-.816 4.973-3.038 8.763-7.901 10.968-2.631 1.193-5.111 1.955-7.968 1.111-.775 1.955-.826 3.805-.641 5.71.435 4.466 1.034 8.497 3.064 12.545.22.438.594.86 1.083.893.252.017.499-.072.733-.167 4.836-1.961 8.419-6.283 10.934-10.693 3.192-5.595 6.066-11.337 7.689-17.599 1.899-7.327 3.659-14.69 5.484-22.036.252-1.016.327-1.946-.344-2.907-.905-1.297-.89-2.819-.271-4.195.849-1.888 2.36-6.867 4.361-7.72.561-.239 1.18-.302 1.757-.501.468-.161.905-.41 1.383-.541 1.093-.3 2.283.058 3.219.695 1.969 1.34 2.965 3.052 2.166 5.397-1.029 3.021-2.01 6.058-3.072 9.273.603.294 1.147.611 1.728.832 2.235.853 4.492 1.649 6.722 2.515 2.611 1.013 4.123 2.802 4.137 5.743.016 3.419.566 6.877-.519 10.214-.67 2.061-1.643 4.022-2.401 6.058-1.657 4.454-1.795 8.968-.339 13.503.456 1.419.874 1.746 2.249 1.252 1.698-.61 3.387-1.365 4.904-2.331 3.585-2.283 5.611-5.847 7.436-9.54.484-.98.989-1.961 1.602-2.862 1.122-1.651 4.301-1.915 5.838-.652 1.643 1.35 1.962 3.348 1.63 5.348-.328 1.98-.829 4.334-1.966 6.016"/><path d="M234.527 311.161c1.471.048 2.077-.666 2.516-1.662 1.011-2.3 1.435-4.707 1.333-7.205-.018-.441-.206-.876-.367-1.518-2.635 3.098-3.956 6.331-3.481 10.385m63.031-3.901l-.107-.049c-1.153-.363-2.677 7.637-2.899 8.748-.452 2.263-1.4 5.992.21 7.994.091.113.197.226.338.258.131.029.266-.017.388-.071 2.281-1.012 2.073-4.98 2.235-7.022.235-2.959.465-6.11.18-9.071-.029-.294-.108-.639-.345-.787m-99.151-11.115l.02.023c.239.258.661.016.912-.23 1.628-1.588 3.015-3.378 4.268-5.27 2.532-3.825 3.445-7.993 2.525-12.511-.297-1.46-1.095-2.728-2.195-3.724-.109-.099-.236-.2-.383-.196-.146.004-.265.111-.37.211-1.159 1.103-2.055 2.223-2.487 3.805-.816 2.99-1.48 6.034-1.97 9.094-.439 2.746-.454 5.584-.421 8.358.002.153.009.32.102.44m82.854-12.82c.79-.951 1.726-1.726 2.203-2.72 1.261-2.625 2.332-5.342 3.463-8.029 1.359-3.23 2.581-6.523 4.087-9.683 1.395-2.928 1.501-3.094-.664-5.506-.195-.217-.411-.415-.624-.616-1.872-1.758-3.405-1.623-5.286.165-1.553 1.476-2.042 3.505-3.104 5.228-1.234 2.003-1.893 4.243-2.173 6.587-.094.792-.231 1.58-.36 2.367-.478 2.902-.486 5.791.361 8.629.371 1.243.899 2.434 2.096 3.578m-7.86.912c-.37 1.322-.594 2.442-.998 3.494-.594 1.545-1.296 3.051-1.998 4.553-.213.456-.607.824-.874 1.258-2.63 4.27-8.036 5.402-12.408 2.948-3.644-2.045-5.781-5.222-7.705-8.681-.282-.507-.536-1.031-.814-1.541-.022-.04-.131-.033-.449-.101-.405.621-.882 1.32-1.32 2.041-.226.372-.284.904-.589 1.16-1.862 1.56-1.54 3.399-.852 5.357.506 1.439.906 2.915 1.339 4.379 1.523 5.151.791 10.071-1.635 14.776-.296.573-.944 1.03-1.528 1.377-1.357.808-2.489 1.906-4.18 2.274-5.374 1.167-9.183-3.108-10.58-7.841-1.825-6.182 1.49-10.757 5.039-15.643 1.094-1.507 1.242-2.77.455-4.361-1.579-3.192-3.075-6.425-4.627-9.631-.686-1.417-1.428-2.808-2.357-4.629-.395.975-.75 1.527-.837 2.118-.831 5.662-2.966 10.962-4.52 16.422-.357 1.254-.466 2.594-.939 3.797-1.735 4.403-3.329 8.889-5.454 13.104-1.743 3.457-4.614 6.201-7.714 8.536-2.368 1.783-5.196 2.067-7.934.957-3.653-1.48-6.744-3.784-8.854-7.196-3.946-6.379-4.996-13.302-3.595-20.591 1.022-5.312 2.57-10.472 4.858-15.411.78-1.683 1.981-2.805 3.405-3.818 2.519-1.792 5.494-2.268 8.429-2.755.777-.129 1.886.145 2.46.659 2.521 2.261 4.652 4.824 5.13 8.367.145 1.073.364 2.137.527 3.208.31 2.041-.358 3.889-1.176 5.7-.27.598-.666 1.155-.844 1.777-1.792 6.258-6.259 9.776-12.347 11.951-.09 4.244.584 8.348 2.739 12.361 3.722-2.02 6.717-4.417 8.58-7.943 2.458-4.652 4.571-9.461 6.083-14.518 1.649-5.517 3.4-11.004 4.976-16.542.978-3.435 1.765-6.927 2.53-10.416.293-1.336.393-2.738.392-4.111-.003-4.681 1.31-9.052 3.01-13.341.105-.264.25-.549.46-.727 1.413-1.198 5.501-.941 6.994.314.982.825 1.311 1.734.794 2.888-1.65 3.683-1.844 7.59-1.972 11.541-.068 2.1.393 4.081.991 6.002 1.232 3.961 2.912 7.755 4.981 11.368.787 1.375 1.503 2.79 2.37 4.407.501-.515.89-.81 1.144-1.193 1.453-2.189 2.913-4.376 4.282-6.616.357-.585.56-1.359.564-2.049.031-5.055.541-10.045 1.718-14.971.567-2.371 1.456-2.869 3.76-1.945 2.32.93 3.952 2.711 5.537 4.516.385.438.441 1.201.548 1.831.071.421.045.895-.076 1.305-.882 2.984-.59 6.056-.681 9.093-.1 3.337-.183 6.687.007 10.015.119 2.083.694 4.152 1.193 6.197.174.714.731 1.335 1.216 2.177 2.724-1.904 4.456-4.171 5.097-7.131.663-3.064 1.019-6.195 1.71-9.251 1.027-4.546 2.091-9.094 3.401-13.564 1.15-3.925 3.415-7.373 6.6-9.868 3.442-2.697 7.611-3.234 11.867-2.03 1.591.45 3.105 1.174 4.927 1.878.149-1.524.346-2.998.424-4.477.12-2.276.544-4.467 1.486-6.553.366-.81.902-1.309 1.845-1.261.947.048 1.518.399 1.983 1.361.551 1.139 1.431 2.187 2.373 3.053 1.261 1.159 2.048 2.482 2.083 4.163.103 4.955.163 9.912.201 14.868.018 2.293-.121 4.59.232 7.078 1.2-.512 1.439-1.439 1.784-2.274 2.451-5.934 4.819-11.903 7.375-17.792 1.709-3.937 3.676-7.765 5.554-11.628.283-.583.718-1.092 1.125-1.7 2.679-.163 5.253.21 7.466 1.757.828.579 1.64 1.597 1.86 2.553.815 3.54 1.413 7.132 2.023 10.716.218 1.278.238 2.59.385 4.306 1.481-1.585 2.339-3.141 3.307-4.613 2.404-3.659 4.802-7.323 7.95-10.417.52-.511 1.095-.969 1.586-1.505 1.107-1.207 2.277-1.302 3.731-.557 1.271.652 2.717.773 3.978 1.692 1.751 1.276 2.44 2.924 2.423 4.849-.032 3.572-.731 7.034-1.762 10.492-1.591 5.334-3.167 11.946-1.589 17.468.057.2.126.406.269.557 1.551 1.641 7.001-2.416 8.127-3.4 3.697-3.23 6.237-7.105 7.088-12.015.534-3.077 3.695-1.847 5.816-1.121.452.155.908.332 1.275.638.623.52.904 1.331 1.157 2.101-1.776 2.981-2.229 6.33-3.743 9.368-1.416 2.841-3.412 5.37-5.914 7.338-4.87 3.831-11.741 6.004-17.42 2.81-.901-.507-1.651-1.478-2.188-2.401-3.067-5.267-4.925-10.897-4.562-17.069.115-1.958.568-3.895.848-5.844.136-.945.214-1.893.301-2.843-2.652 1.53-4.438 5.609-5.94 8.209-1.849 3.201-3.468 6.543-4.684 10.036-1.611 4.611-2.665 9.361-3.53 14.156-.283 1.568-1.524 2.814-3.093 3.1-1.734.316-2.986-.936-4.049-2.158-3.362-3.866-2.507-7.689-2.384-12.306.17-6.372 1.785-12.541 2.571-18.826.131-1.045.455-2.066.78-3.493-1.237.87-1.396 1.874-1.741 2.76-1.474 3.793-2.876 7.617-4.44 11.372-.782 1.879-1.914 3.609-2.789 5.453-1.309 2.758-2.55 5.547-3.784 8.34-1.121 2.537-2.156 5.113-3.302 7.638-.652 1.438-.915 2.847-.655 4.441.892 5.475 1.289 10.995 1.325 16.545.016 2.468.373 4.937.34 7.402-.042 3.208-.364 6.399-1.293 9.508-.991 3.314-4.409 6.671-8.044 6.653-3.581-.017-7.192-3.28-8.413-6.486-1.445-3.793-1.084-8.246-.054-12.096 1.674-6.258 3.519-12.477 6.125-18.436.226-.517.402-1.148.328-1.689-.42-3.066-.924-6.121-1.831-9.307-.31.677-.649 1.343-.927 2.033-.829 2.057-2.359 3.544-4.171 4.66-2.88 1.775-5.966 1.342-8.794-.032-1.935-.94-3.581-2.473-5.348-3.754-.391-.283-.746-.617-1.343-1.115"/><path d="M140.602 336.41l.031-1.08c.014-.585.024-1.193-.215-1.728-.659-1.478-3.14-1.402-4.484-1.268-2.074.207-4.521 1.035-6.045 2.489-1.836 1.752-2.665 4.4-2.497 6.929.205 3.081 1.845 5.922 3.725 8.297.238.301.498.606.852.755.564.237 1.21.018 1.763-.245 2.783-1.326 4.949-3.763 5.769-6.741.561-2.038.884-4.222 1.044-6.328.027-.359.045-.719.058-1.079m8.971-7.573c2.308.806 4.592 1.703 6.92 2.449 2.03.65 4.278 1.836 6.455 1.693 1.661-.11 3.165-1.052 4.365-2.203 3.18-3.049 5.399-6.791 6.441-11.068 1.361-5.588 1.423-11.281 1.702-16.949.131-2.659-.039-5.427-.651-8.009-1.536-6.486-3.671-12.774-8.165-17.949-1.369-1.576-2.596-3.34-4.807-4.104-1.564 3.014-2.748 5.671-3.403 8.993-.751 3.806-1.615 7.592-2.424 11.379-.987 4.635-2.041 9.257-2.922 13.911-.806 4.261-1.429 8.556-2.116 12.839-.461 2.874-.892 5.752-1.396 9.018m-28.538-51.759c-.567 1.112-1.15 2.216-1.631 3.367-.669 1.597-.974 3.212-1.172 4.919-.358 3.072-.621 6.098-.43 9.193.195 3.161 1.742 5.673 3.972 7.558 1.851 1.564 5.197 1.753 7.469 2.253-.441.737-.622 1.626-.505 2.476.044.316.127.64.051.95-.274 1.112-2.838 1.64-3.766 1.622-4.028-.078-7.587-1.599-10.359-4.54-4.627-4.91-7.327-11.347-7.633-18.091-.2-4.395.747-8.884 3.009-12.66 3.832-6.399 11.223-10.854 18.198-13.078 8.271-2.638 16.401-2.079 24.404 1.011 2.204.851 4.304 1.984 6.41 3.068.744.383 1.286.329 1.964-.106 1.06-.68 2.178-1.274 3.289-1.871 2.898-1.558 6.062-1.638 9.236-1.577 2.255.043 3.757 1.212 4.83 3.891-.889-.094-1.707.022-2.313-.281-2.296-1.148-4.616-.861-6.878-.15-1.978.622-3.963 1.507-5.8 2.465 1.957 1.414 3.945 2.787 5.878 4.233.942.7 1.89 1.423 2.698 2.267 4.003 4.181 5.974 9.313 7.438 14.843 1.187 4.483 2.631 9.34 2.485 13.998-.107 3.392.533 6.748.607 10.134.073 3.35-.474 6.93-1.205 10.197-.93 4.159-3.632 7.74-6.149 11.093-.563.751-1.141 1.491-1.718 2.23-.203.261-.408.523-.646.752-2.192 2.107-6.207 2.965-9.128 2.795-4.805-.281-9.398-1.203-13.778-3.195-.339-.154-.764-.121-1.418-.211-.038-.005-.932 4.661-1.045 5.105-.798 3.128-2.499 5.985-4.588 8.427-1.881 2.2-4.024 5.002-7.126 5.345-1.405.156-2.806-.244-4.162-.644-2.294-.677-4.014-1.602-5.303-3.669-4.471-7.173-2.299-17.171 4.396-22.198 1.214-.912 2.892-1.312 4.365-1.715 1.46-.399 2.959-.615 4.468-.745 1.333-.115 1.763-.83 1.877-1.963.167-1.651.241-3.315.486-4.955.897-6.011 1.611-12.064 2.84-18.009 1.485-7.182 3.37-14.288 5.967-21.171 1.392-3.689 3.046-7.259 5.468-10.42.236-.308.414-.662.606-1.002.032-.057-.007-.153-.032-.466-.374-.262-.829-.715-1.377-.943-3.716-1.549-7.372-3.21-11.305-4.248-5.224-1.38-9.517.498-13.413 3.514-1.844 1.428-3.55 3.023-5.227 4.639-.789.76-1.707 1.454-2.414 2.289-.674.795-1.122 1.75-1.584 2.675l-.305.603"/><path d="M263.37 242.399c.062 2.138-1.304 3.641-3.461 4.665-1.986.943-3.849.599-5.587-.482-2.458-1.529-2.901-3.021-4.139-5.369-.25-.474-.67-.831-1.004-1.251-1.759-2.209.722-5.139 3.134-4.908 3.191.306 6.352.82 9.013 2.872 1.405 1.083 2.105 2.396 2.044 4.472"/><path d="M621.079 204.295c-2.121-.001-4.362-1.804-5.077-4.091-.173-.553-.276-1.133-.501-1.664-.989-2.335-.54-3.533 1.832-3.977 2.47-.462 4.782.47 6.844 1.677 1.392.815 2.141 4.186 1.631 5.586-.581 1.595-2.258 2.47-4.729 2.468"/></g></g></svg>