<?xml version="1.0" encoding="UTF-8" standalone="no"?>
<svg width="800px" height="600px" viewBox="0 0 800 600" version="1.1" xmlns="http://www.w3.org/2000/svg" xmlns:xlink="http://www.w3.org/1999/xlink">
    <!-- Generator: Sketch 39.1 (31720) - http://www.bohemiancoding.com/sketch -->
    <title>Group 3</title>
    <desc>Created with Sketch.</desc>
    <defs>
        <rect id="path-1" x="0" y="3" width="800" height="600"></rect>
        <filter x="-50%" y="-50%" width="200%" height="200%" filterUnits="objectBoundingBox" id="filter-2">
            <feMorphology radius="2" operator="dilate" in="SourceAlpha" result="shadowSpreadOuter1"></feMorphology>
            <feOffset dx="-1" dy="2" in="shadowSpreadOuter1" result="shadowOffsetOuter1"></feOffset>
            <feGaussianBlur stdDeviation="2" in="shadowOffsetOuter1" result="shadowBlurOuter1"></feGaussianBlur>
            <feColorMatrix values="0 0 0 0 0.929411765   0 0 0 0 0.0352941176   0 0 0 0 0.0509803922  0 0 0 1 0" type="matrix" in="shadowBlurOuter1"></feColorMatrix>
        </filter>
        <filter x="-50%" y="-50%" width="200%" height="200%" filterUnits="objectBoundingBox" id="filter-3">
            <feGaussianBlur stdDeviation="1.5" in="SourceAlpha" result="shadowBlurInner1"></feGaussianBlur>
            <feOffset dx="0" dy="1" in="shadowBlurInner1" result="shadowOffsetInner1"></feOffset>
            <feComposite in="shadowOffsetInner1" in2="SourceAlpha" operator="arithmetic" k2="-1" k3="1" result="shadowInnerInner1"></feComposite>
            <feColorMatrix values="0 0 0 0 0.929411765   0 0 0 0 0.0352941176   0 0 0 0 0.0509803922  0 0 0 1 0" type="matrix" in="shadowInnerInner1"></feColorMatrix>
        </filter>
        <linearGradient x1="18.7797374%" y1="-10.8138963%" x2="50%" y2="100%" id="linearGradient-4">
            <stop stop-color="#7F1817" offset="0%"></stop>
            <stop stop-color="#E21C20" offset="48.7202968%"></stop>
            <stop stop-color="#7F1817" offset="100%"></stop>
        </linearGradient>
        <path d="M163.641258,278.412018 C163.409231,278.748048 163.268169,278.858962 163.257622,278.981274 C162.676017,285.686532 162.759731,292.375131 163.900311,299.021644 C164.053897,299.91597 164.51839,300.7384 164.892138,301.553158 C166.089846,301.094377 166.730996,300.595264 166.861292,299.318657 C166.957091,298.380271 167.01356,297.42172 166.935119,296.484869 C166.521381,291.545906 165.783992,286.65692 164.517292,281.856271 C164.229455,280.765763 163.960735,279.670212 163.641258,278.412018 M110.502242,187.499549 C110.38535,187.396307 110.247144,187.341508 110.084769,187.343919 C108.707768,187.364523 107.234528,188.44473 106.675115,189.648563 C105.740195,191.661018 105.391496,193.623495 105.758213,195.8352 C106.027373,197.457043 106.548774,199.025184 106.929114,200.624669 C107.290338,202.145025 107.66892,203.900579 109.050975,204.635549 C110.201002,202.187988 110.081034,199.198788 110.403806,196.569293 C110.544648,195.421354 111.770041,188.618553 110.502242,187.499549 M126.322045,262.93929 C126.309301,262.932056 126.296777,262.925261 126.284033,262.919124 C126.000151,262.781029 125.643102,262.940605 125.456558,263.195094 C123.55398,265.787326 122.414719,269.824509 121.182515,272.801871 C119.728171,276.315172 118.977599,279.984761 119.216877,283.816118 C119.385185,286.508743 122.800991,288.454341 124.90791,286.959194 C127.499977,285.119687 129.241937,282.794218 129.371134,279.371446 C129.482314,276.421264 129.076267,273.557008 128.509602,270.71752 C128.249011,269.412198 127.514259,263.632612 126.322045,262.93929 M218.448188,225.44596 C219.491431,224.443569 220.381087,223.870367 220.882933,223.05824 C223.226933,219.2659 225.497326,215.426871 227.721138,211.562635 C228.513458,210.185854 229.142963,208.709339 229.768073,207.244659 C230.250584,206.113818 230.733095,204.957551 230.994125,203.764238 C231.334695,202.207058 231.447413,200.600777 231.674386,199.017731 C232.226768,195.161605 232.816284,195.339374 228.666384,193.606397 C225.916777,192.45802 222.714101,193.673691 221.501452,196.364562 C221.084199,197.290015 220.678152,198.221167 220.297593,199.161963 C219.380031,201.431317 218.228905,203.645652 217.643125,205.998959 C217.027901,208.470632 217.071846,211.097717 216.624271,213.620902 C216.166809,216.199324 216.588896,218.67034 217.145892,221.141794 C217.441639,222.453254 217.919536,223.723943 218.448188,225.44596 M183.873968,224.452337 C183.873968,223.995967 183.876605,223.558887 183.873529,223.122026 C183.84892,219.728627 182.894885,216.512777 181.943486,213.303065 C181.668174,212.374543 181.155122,211.436158 179.981584,211.598364 C178.255663,211.836851 176.574566,212.161045 175.324564,213.66781 C174.143995,215.090841 173.122066,216.57218 172.576055,218.327076 C171.259917,222.558469 170.06199,226.827563 168.694217,231.041859 C167.850043,233.64242 167.853559,236.162098 168.693778,238.739424 C169.091476,239.959479 172.509699,243.015095 173.784749,243.10387 C174.208594,243.133243 174.649796,243.020137 175.073202,242.927416 C178.089992,242.267412 180.247887,240.468237 181.252459,237.615159 C182.749428,233.363601 184.154554,229.054831 183.873968,224.452337 M155.542285,271.486247 C155.598754,268.416821 155.734762,265.341258 156.004801,262.284327 C156.305601,258.87646 156.749441,255.420808 156.749441,251.995625 C156.863257,249.542364 156.519831,247.059512 156.275719,244.600771 C155.894501,240.761743 155.423416,236.93192 154.983311,233.09881 C154.960021,232.894956 154.871253,232.698555 154.78666,232.408337 C152.551203,232.897806 150.749478,234.104927 149.140889,235.579909 C144.287438,240.029841 139.626024,244.659955 135.538526,249.849241 C134.394431,251.301645 134.251392,252.465804 135.040195,254.172478 C136.468831,257.264261 137.719492,260.462137 138.728238,263.713715 C140.851856,270.560794 140.863721,283.585741 134.44233,288.221334 C126.928259,293.64582 119.171395,291.252619 114.092948,284.052851 C113.890363,283.765483 113.76622,283.387586 113.714146,283.035774 C113.122213,279.028182 112.953686,275.05347 114.490865,271.173233 C116.406406,266.338827 118.759415,261.721427 121.674034,257.426906 C122.816372,255.743906 122.693766,254.442091 121.728525,252.823535 C119.599634,249.2539 117.564124,245.627712 115.551466,241.990784 C114.425168,239.955533 113.434,237.846194 112.353185,235.785516 C112.066886,235.239714 111.674022,234.749369 111.163607,233.984149 C110.765689,234.791235 110.435666,235.266237 110.287573,235.792311 C109.144576,239.851853 108.122867,243.947343 106.899671,247.982115 C104.591925,255.594851 102.732633,263.314776 101.138107,271.100459 C100.334362,275.025194 99.6349851,278.971191 98.8743057,282.904694 C98.1696555,286.549075 97.4467684,290.189949 96.7298137,293.831919 C96.7016892,293.975055 96.6291808,294.111834 96.6173158,294.25497 C96.4969078,295.703429 96.5661204,297.205152 95.1796712,298.210174 C93.3825606,299.513085 91.4799832,300.538273 89.1904744,300.569399 C85.873543,300.614553 85.7612648,300.329816 85.9278145,296.939485 C86.1859885,291.681589 87.6464841,286.663935 88.7143357,281.56693 C90.0588178,275.151233 91.2683904,268.699367 92.8796157,262.349867 C94.4741422,256.066127 96.5643627,249.90952 98.3083004,243.66129 C99.5991703,239.037533 100.654937,234.348894 101.87242,229.704095 C102.462814,227.452277 103.118466,225.212076 103.874751,223.011331 C104.234217,221.965539 104.286951,221.089406 103.740061,220.098413 C100.436533,214.112562 98.1446071,207.112483 98.2790773,200.223757 C98.4089333,193.559708 101.791342,184.495883 109.720909,184.607455 C112.099625,184.640992 114.59809,185.198412 116.327086,186.828366 C117.731553,188.152101 118.477071,190.053202 118.749967,191.961538 C119.858467,199.71478 117.701451,209.488586 115.354155,216.842889 C115.103452,217.628274 115.286041,218.77972 115.707029,219.50921 C117.229706,222.147912 118.995397,224.645889 120.564435,227.259602 C122.432516,230.371552 124.186561,233.551672 126.001689,236.695406 C126.731607,237.9593 127.52129,239.189437 128.230555,240.464291 C128.759207,241.414733 129.265887,242.387313 129.669298,243.394965 C130.262549,244.876522 130.615203,244.976476 131.719968,243.813851 C134.184816,241.220085 136.60484,238.582041 139.126156,236.044169 C141.595178,233.559125 144.083096,231.079561 146.723721,228.782149 C148.47535,227.258287 150.488667,226.026396 152.427938,224.727869 C153.387686,224.085181 153.642345,223.456741 153.480849,222.204903 C152.855079,217.355811 152.882984,212.488307 153.790438,207.650394 C153.93128,206.898546 154.274267,206.490619 154.980675,206.279532 C157.39169,205.558591 160.477473,205.954243 162.173292,208.035744 C162.860144,208.878998 163.512501,209.77442 164.022037,210.730122 C164.530255,211.683413 164.840064,212.742138 165.323234,213.974248 C166.526435,212.275028 167.446193,210.307947 169.168598,209.055671 C170.897155,207.79901 173.005613,207.194682 175.084408,206.817662 C176.369784,206.584655 177.711191,206.678033 179.020957,206.557475 C184.226623,206.078089 190.126173,209.256894 192.393929,214.572658 C194.012845,218.367409 195.361941,222.162159 195.367654,226.324505 C195.369192,227.41041 195.243511,228.496316 195.18089,229.582221 C195.153205,230.058976 195.137165,230.536389 195.10926,231.163075 C196.213586,230.82836 196.359701,229.938637 196.622489,229.262631 C198.735561,223.823897 200.85896,218.387137 202.831409,212.896892 C203.564623,210.85638 203.895086,208.672952 204.424837,206.558351 C205.585191,201.927581 208.218566,198.068386 211.006845,194.317913 C212.171155,192.751965 213.543102,191.327837 214.918126,189.935055 C215.456006,189.390349 216.216027,188.969051 216.952537,188.730125 C220.91743,187.443873 224.975046,187.220949 229.087812,187.865609 C230.221141,188.043159 231.357985,188.199667 232.491534,188.365599 C233.269791,186.206063 233.954666,184.221447 234.699745,182.259628 C235.577757,179.947311 235.994351,179.675725 238.487103,180.198293 C239.969131,180.508896 241.465881,180.937866 242.82926,181.58143 C245.155682,182.679611 245.979861,184.641649 245.414954,187.195084 C244.622635,190.776336 243.736714,194.603966 243.710786,198.379208 C243.68442,202.251336 243.786591,206.04236 243.391749,209.914926 C243.200151,211.793669 243.325173,213.710115 243.392189,215.606394 C243.416358,216.293579 243.690132,216.971996 243.888542,217.818099 C245.519542,217.123681 246.301095,215.821208 247.133185,214.712287 C248.92634,212.322155 250.709608,209.880731 252.099573,207.251455 C252.835643,205.85933 252.886399,204.038455 252.985275,202.395349 C253.142376,199.779662 253.006807,197.147536 253.128094,194.528343 C253.350453,189.725502 253.556773,184.916523 254.005227,180.132314 C254.164745,178.431998 254.83424,176.83032 255.312576,175.206722 C255.518456,174.507263 255.878581,173.787637 256.537309,173.471773 C258.002199,172.770121 261.347475,173.768786 262.737879,174.383197 C264.559379,175.188091 265.557359,176.690253 266.461956,178.241076 C266.852183,178.910287 266.811315,179.950599 266.680141,180.776975 C266.407685,182.493731 265.86519,184.167525 265.588779,185.883843 C265.436951,186.826612 265.473205,188.010718 265.935501,188.843231 C267.640768,186.397423 268.401008,183.3109 269.68199,180.631647 C271.136773,177.588963 272.77019,174.626287 274.835582,171.949006 C275.471239,171.125042 276.138756,170.302831 276.998311,169.714943 C278.406952,168.751569 280.213071,168.511767 281.909549,168.70773 C285.944753,169.173306 289.224332,170.94245 291.074835,174.618615 C291.543943,175.550424 292.078088,176.974771 292.865354,177.574715 C295.025666,174.601518 296.70918,171.323197 298.445428,168.09573 C299.873624,165.441026 301.382678,161.5575 304.093835,159.926012 C305.336146,159.178548 306.915292,159.291215 308.321516,159.646973 C313.224185,160.887851 316.529691,162.483392 317.692023,167.773728 C318.61266,171.964788 318.045996,176.466233 317.183146,180.618933 C316.038611,186.12781 314.264132,191.481276 313.974098,197.107204 C313.930813,197.948923 314.070336,198.799849 314.141087,199.881808 C314.783116,199.571863 315.298366,199.452619 315.631245,199.139824 C316.979682,197.873081 318.445452,196.745747 319.798063,195.474619 C323.242654,192.236631 324.713476,187.828565 327.100981,183.971562 C327.734881,182.94747 328.276057,182.607495 329.387194,182.952293 C331.393041,183.574376 333.643879,186.386244 333.774614,188.464457 C333.831302,189.36536 333.583016,190.082356 333.23937,190.917718 C332.377179,193.012591 331.530368,195.114478 330.652796,197.202993 C329.876297,199.051049 328.341315,200.536552 327.114165,202.103158 C324.577688,205.341804 320.263436,208.473263 315.930068,207.347025 C311.872452,206.292245 307.997865,204.247131 305.711652,200.623793 C303.154081,196.570608 302.245529,192.048998 302.479973,187.263254 C302.68761,183.027039 304.140636,179.169379 305.717804,175.305142 C306.445745,173.521531 306.77445,171.575932 307.284206,169.703764 C307.099639,169.617839 306.915072,169.531913 306.730505,169.445988 C305.899075,170.667796 305.039521,171.871629 304.240829,173.114261 C299.684882,180.202677 296.042322,187.736283 293.185709,195.657869 C292.197398,198.398278 291.023859,201.073148 290.07312,203.825614 C289.49481,205.499188 289.082391,207.246413 288.773681,208.992104 C288.078259,212.923634 283.462328,212.192609 280.905197,210.43026 C277.597275,208.150823 277.493785,202.684909 277.934109,199.135002 C278.70138,192.950996 280.581107,187.02652 281.742999,180.942688 C281.942947,179.895361 282.074121,178.836856 282.191014,177.777473 C282.271871,177.044038 282.745813,175.508119 282.460833,174.814578 C282.097412,173.93143 280.153307,176.415598 279.910733,176.823306 C278.309835,179.5133 276.649611,182.195622 275.366871,185.040151 C272.911252,190.485022 270.583072,195.994556 268.425836,201.563493 C267.397315,204.217978 266.516447,206.925508 265.654256,209.637202 C265.275894,210.827008 264.837328,212.013744 264.490825,213.210563 C264.13883,214.426453 264.203209,215.756764 263.744428,216.938459 C263.408472,217.802975 262.707338,218.552412 261.813946,218.807558 C260.915281,219.064238 259.961904,218.810188 259.044563,218.631323 C256.972799,218.22778 255.418262,219.103913 254.241209,220.788667 C252.929245,222.666314 251.247709,224.366631 249.044551,225.344691 C248.519634,225.577698 247.973184,225.903645 247.427173,225.923592 C244.781275,226.020258 242.223045,225.694092 239.781708,224.497053 C238.041066,223.643498 236.464117,222.708619 235.50415,220.956134 C235.380226,220.729702 235.090632,220.593581 234.792908,220.34501 C234.098804,221.575148 233.398329,222.676616 232.834301,223.843625 C231.303714,227.010594 229.126703,229.620142 226.121778,231.448909 C225.160272,232.034167 223.983438,232.442094 222.864171,232.566159 C216.134949,233.312089 211.316434,229.966913 207.758027,224.547031 C207.250029,225.523118 206.862219,226.557512 206.380367,227.54719 C204.476911,231.472363 202.871398,235.558208 200.00336,238.955334 C196.910985,242.618347 193.377188,245.730516 188.993943,247.75678 C183.378714,250.3523 177.760848,249.787866 172.177698,247.584271 C171.585326,247.350606 170.999766,247.100283 170.382785,246.846013 C170.217554,247.158808 170.011454,247.361128 170.039578,247.522896 C170.526483,250.318763 171.042831,253.109588 171.551269,255.901947 C171.773189,257.120687 172.005436,258.337892 172.208459,259.559919 C173.066696,264.726628 173.936357,269.891364 174.760537,275.063553 C175.309184,278.505834 176.000431,281.944389 176.24674,285.411658 C176.512824,289.15687 176.747268,292.939346 176.264318,296.677763 C175.896942,299.52251 175.273149,303.154178 172.388412,304.503998 C171.377688,304.977026 170.26787,305.190306 169.171455,305.399201 C167.898602,305.641853 166.616521,305.885162 165.320817,305.88319 C160.937133,305.875956 157.767196,302.018076 156.832496,298.013553 C155.857148,293.836084 155.592162,289.527972 155.525147,285.251424 C155.457692,280.936518 155.468678,276.604513 155.529322,272.289826 C155.533057,272.021966 155.537452,271.754106 155.542285,271.486247" id="path-5"></path>
        <filter x="-50%" y="-50%" width="200%" height="200%" filterUnits="objectBoundingBox" id="filter-6">
            <feMorphology radius="1.5" operator="dilate" in="SourceAlpha" result="shadowSpreadOuter1"></feMorphology>
            <feOffset dx="1" dy="1" in="shadowSpreadOuter1" result="shadowOffsetOuter1"></feOffset>
            <feMorphology radius="2" operator="erode" in="SourceAlpha" result="shadowInner"></feMorphology>
            <feOffset dx="1" dy="1" in="shadowInner" result="shadowInner"></feOffset>
            <feComposite in="shadowOffsetOuter1" in2="shadowInner" operator="out" result="shadowOffsetOuter1"></feComposite>
            <feGaussianBlur stdDeviation="8.5" in="shadowOffsetOuter1" result="shadowBlurOuter1"></feGaussianBlur>
            <feColorMatrix values="0 0 0 0 0.929411765   0 0 0 0 0.0352941176   0 0 0 0 0.0509803922  0 0 0 1 0" type="matrix" in="shadowBlurOuter1"></feColorMatrix>
        </filter>
        <filter x="-50%" y="-50%" width="200%" height="200%" filterUnits="objectBoundingBox" id="filter-7">
            <feGaussianBlur stdDeviation="1.5" in="SourceAlpha" result="shadowBlurInner1"></feGaussianBlur>
            <feOffset dx="0" dy="1" in="shadowBlurInner1" result="shadowOffsetInner1"></feOffset>
            <feComposite in="shadowOffsetInner1" in2="SourceAlpha" operator="arithmetic" k2="-1" k3="1" result="shadowInnerInner1"></feComposite>
            <feColorMatrix values="0 0 0 0 0.929411765   0 0 0 0 0.0352941176   0 0 0 0 0.0509803922  0 0 0 1 0" type="matrix" in="shadowInnerInner1"></feColorMatrix>
        </filter>
        <path d="M487.801781,137.854622 C494.769182,132.281959 495.900094,121.660734 492.974928,116.275923 C491.303279,118.152036 490.151274,120.203507 489.543961,122.518674 C489.010694,124.552171 488.571908,126.62337 488.282314,128.704433 C487.874728,131.633572 487.436162,134.578274 487.801781,137.854622 M409.065309,164.470704 C409.252732,164.551368 409.440375,164.631814 409.628018,164.712479 C410.605564,163.311586 411.809643,162.015032 412.516051,160.489197 C414.262406,156.717462 415.872313,152.851033 416.335928,148.67707 C416.516979,147.047336 416.400087,145.313043 416.038204,143.711804 C415.535039,141.486509 413.841637,141.342934 412.346206,142.824711 C410.70334,144.453131 410.354201,146.999989 409.949253,149.166539 C409.615274,150.952123 409.529583,152.783959 409.194286,154.569324 C408.57313,157.87636 408.50216,161.167833 409.065309,164.470704 M528.795194,112.212436 C527.260213,111.356907 525.988239,110.648022 524.440294,109.78526 C523.848361,111.573474 523.23951,113.233678 522.748869,114.928076 C520.902761,121.302565 518.834293,127.629049 517.368743,134.090778 C516.457334,138.108453 514.688129,141.746039 513.432634,145.597123 C512.458604,148.584569 511.225521,151.489158 510.295875,154.475946 C509.236812,157.879209 508.090081,161.492464 505.792222,164.282851 C503.731225,166.78587 500.952174,168.580661 497.766637,169.271134 C493.741979,170.143321 490.058111,168.629761 486.905093,166.233053 C481.930355,162.451454 478.887637,157.54033 476.778301,151.762278 C476.503428,151.009772 476.251406,150.248937 475.965547,149.424096 C471.458379,148.037232 468.072674,144.959039 464.577768,141.3414 C464.32267,142.808709 464.11657,143.840473 463.966939,144.880347 C463.38819,148.903283 462.798015,152.924464 462.240579,156.950469 C461.957796,158.991857 461.746643,161.051 461.422333,163.085813 C461.116918,164.999847 460.345253,166.811954 459.740357,168.645762 C458.595602,172.11632 457.404926,175.483197 454.15479,177.517351 C451.359919,179.266768 448.719514,177.958596 446.263016,176.330177 C444.617514,175.239449 443.110656,173.940483 441.790783,172.473612 C441.178636,171.793222 440.432239,171.032387 440.023775,170.207765 C439.59971,169.35136 439.357796,168.376368 438.913517,167.510976 C438.692256,167.080033 438.375856,166.70389 437.997713,166.40052 C437.982113,167.106995 437.515422,167.709569 437.194847,168.309513 C436.807916,169.033523 436.539634,169.726846 436.604892,170.567469 C436.630819,170.904156 436.704646,171.240625 436.668611,171.576436 C436.518321,172.972506 435.593289,174.534947 435.099133,175.845311 C434.532908,177.346596 433.982503,178.854019 433.488128,180.380512 C432.716902,182.762314 431.106116,184.294944 429.405903,186.074611 C424.9262,190.76325 419.238462,190.907482 413.374068,190.182814 C412.243376,190.042966 411.05995,189.643807 410.084821,189.059207 C406.883904,187.140131 403.840527,184.967005 401.432587,182.079952 C398.141144,178.133954 396.454993,173.533652 396.31459,168.403549 C396.16452,162.920318 396.532775,157.484873 397.754213,152.107734 C398.446998,149.057598 399.564946,145.935126 401.285813,143.306507 C403.418,140.049449 406.628366,138.991162 410.357717,138.250712 C413.14248,137.697896 415.981515,137.348056 418.829559,138.073162 C420.853203,138.588496 422.383131,139.72942 423.296737,141.568489 C424.836553,144.668164 425.077808,148.035479 424.760309,151.385697 C424.336904,155.855795 422.950235,160.096394 420.431556,163.836346 C418.149078,167.2258 415.611502,170.431785 411.593436,172.028202 C410.169195,172.593952 410.047908,172.935462 410.343435,174.37296 C410.967007,177.408191 412.098359,180.23343 413.967099,182.729654 C415.378377,184.614973 416.296817,184.739039 418.178301,183.373218 C420.646444,181.581277 422.587034,179.422179 423.791772,176.534688 C425.193822,173.174826 426.856682,169.921055 428.472741,166.653694 C429.19453,165.194714 429.755921,164.217969 430.788617,162.972707 C431.054701,162.651801 431.263217,162.288152 431.470635,161.926695 C433.292575,158.748548 435.35511,155.350983 435.190758,151.582317 C435.044203,148.221139 434.983779,144.854482 435.08573,141.490893 C435.139782,139.7075 435.238437,137.925204 435.392243,136.14751 C435.475958,135.178876 435.280844,132.548065 436.197526,131.94023 C437.280758,131.222138 439.673317,131.228933 440.92244,131.277156 C442.649239,131.343573 444.285513,131.885211 445.680971,132.910399 C447.553226,134.286083 448.204704,135.921737 447.903904,138.372586 C447.24188,143.762439 447.341414,149.231202 447.869627,154.628069 C448.134393,157.331654 448.512096,160.02384 448.980983,162.699586 C449.087329,163.306545 450.450048,169.568585 450.470922,169.551707 C452.409754,167.980497 453.151976,164.434755 453.781701,162.157949 C454.578854,159.275499 455.085754,156.322687 455.529814,153.368997 C455.874339,151.078162 455.773046,148.513549 456.482311,146.307105 C456.660725,145.752535 456.920437,145.227556 457.134228,144.68548 C458.759076,140.56281 458.315895,135.537702 458.909146,131.178737 C459.252133,128.65884 459.859226,126.17533 460.392273,123.690943 C460.422815,123.548464 460.45797,123.397437 460.561679,123.294853 C460.663631,123.194022 460.812383,123.159608 460.953005,123.129578 C462.885025,122.715732 465.748669,121.812638 467.712989,122.302764 C468.482457,122.498069 469.053516,123.144264 469.467253,123.820489 C470.802288,126.001287 470.615304,128.563489 470.833488,131.014996 C471.065735,133.626737 471.497709,136.249218 472.711676,138.604936 C473.462908,140.062381 474.158549,141.562132 475.81328,143.040621 C475.902267,141.588436 475.997847,140.556891 476.023115,139.523813 C476.155388,134.119712 476.395325,128.738847 477.977986,123.501995 C479.282259,119.186211 481.479484,115.450205 485.078759,112.71133 C486.166386,111.883639 487.68313,111.389568 489.06123,111.224731 C491.000282,110.99282 492.993385,111.213552 494.963417,111.234814 C498.511496,111.273174 501.521695,114.11573 501.734167,117.633195 C502.154057,124.583516 502.704022,132.68857 498.286061,138.618088 C496.905544,140.470966 495.810228,142.577017 494.08167,144.148227 C493.3612,144.803189 488.334388,147.249436 488.322962,147.952841 C488.232217,153.593456 490.100957,159.626654 492.889895,162.575082 C494.575826,162.17943 495.860764,161.130788 496.656599,159.615474 C498.079302,156.907068 499.432793,154.156575 500.676642,151.362462 C501.543448,149.415328 502.050348,147.373283 503.06217,145.482045 C504.095745,143.549598 505.333002,141.7239 506.185526,139.698294 C507.597463,136.343911 508.658942,132.859764 509.818418,129.414195 C511.562136,124.229073 513.149631,118.992659 514.666596,113.737394 C515.254134,111.702582 515.943843,109.70306 516.599715,107.689949 C517.213619,105.805068 518.06043,103.930927 518.382104,101.966916 C518.755632,99.6868212 518.288502,97.3745046 518.629951,95.0562696 C518.970081,92.748337 519.625074,90.4941077 520.455625,88.3168169 C521.657068,85.1676034 526.028448,86.1379917 528.602058,86.5156693 C529.337689,86.6235146 529.754503,87.1338069 529.933137,88.0110361 C530.368627,90.1515017 530.240749,92.0534802 529.255073,94.1194186 C528.036712,96.6726335 527.484549,99.5151894 527.488065,102.395886 C527.490921,104.834022 528.044402,105.430459 530.440037,106.261218 C532.638581,107.023588 534.870522,107.76886 536.936354,108.81794 C540.83555,110.798391 541.625232,112.782788 540.755351,116.972752 C539.678271,122.160505 538.89474,127.418619 537.589369,132.546092 C536.857253,135.422623 536.5035,138.408096 536.52701,141.375156 C536.536678,142.58995 536.523715,148.757078 538.144388,148.628189 C540.219887,148.462914 542.397118,146.871758 543.8998,145.554161 C545.713829,143.963443 547.216951,142.057957 548.786429,140.22656 C551.261823,137.338411 553.668884,134.562272 555.562452,131.245811 C555.703295,130.999214 555.874898,130.752836 556.130435,130.628112 C556.385753,130.503608 556.743461,130.547666 556.888917,130.791414 C556.939673,130.876244 556.960108,130.975321 556.979883,131.071987 C557.540614,133.828399 558.226588,136.303798 557.461734,139.109748 C556.932203,141.051621 556.44332,143.074377 555.710106,144.950929 C555.486648,145.522596 555.229133,146.080016 554.971619,146.636997 C554.779142,147.053254 554.586884,147.469291 554.394407,147.885548 C554.041533,148.648794 553.68009,149.428042 553.170992,150.102732 C552.624103,150.827838 551.864742,151.289907 551.248201,151.946185 C548.636139,154.725831 545.160348,155.460363 541.671374,156.213088 C539.906563,156.594053 537.194967,155.841986 535.549904,155.170803 C533.519668,154.342454 531.829123,152.85454 530.343359,151.244752 C528.372668,149.109548 526.689593,146.710867 525.348846,144.135075 C523.96789,141.481906 523.571511,138.762977 523.479886,135.779477 C523.253352,128.305932 526.017242,121.412602 528.254018,114.423483 C528.471103,113.745066 528.596126,113.037277 528.795194,112.212436" id="path-8"></path>
        <filter x="-50%" y="-50%" width="200%" height="200%" filterUnits="objectBoundingBox" id="filter-9">
            <feMorphology radius="1.5" operator="dilate" in="SourceAlpha" result="shadowSpreadOuter1"></feMorphology>
            <feOffset dx="1" dy="1" in="shadowSpreadOuter1" result="shadowOffsetOuter1"></feOffset>
            <feMorphology radius="2" operator="erode" in="SourceAlpha" result="shadowInner"></feMorphology>
            <feOffset dx="1" dy="1" in="shadowInner" result="shadowInner"></feOffset>
            <feComposite in="shadowOffsetOuter1" in2="shadowInner" operator="out" result="shadowOffsetOuter1"></feComposite>
            <feGaussianBlur stdDeviation="8.5" in="shadowOffsetOuter1" result="shadowBlurOuter1"></feGaussianBlur>
            <feColorMatrix values="0 0 0 0 0.929411765   0 0 0 0 0.0352941176   0 0 0 0 0.0509803922  0 0 0 1 0" type="matrix" in="shadowBlurOuter1"></feColorMatrix>
        </filter>
        <filter x="-50%" y="-50%" width="200%" height="200%" filterUnits="objectBoundingBox" id="filter-10">
            <feGaussianBlur stdDeviation="1.5" in="SourceAlpha" result="shadowBlurInner1"></feGaussianBlur>
            <feOffset dx="0" dy="1" in="shadowBlurInner1" result="shadowOffsetInner1"></feOffset>
            <feComposite in="shadowOffsetInner1" in2="SourceAlpha" operator="arithmetic" k2="-1" k3="1" result="shadowInnerInner1"></feComposite>
            <feColorMatrix values="0 0 0 0 0.929411765   0 0 0 0 0.0352941176   0 0 0 0 0.0509803922  0 0 0 1 0" type="matrix" in="shadowInnerInner1"></feColorMatrix>
        </filter>
        <path d="M377.214001,173.187868 C377.780006,172.65719 377.852514,168.765554 377.927659,168.140183 C378.588145,162.642047 379.154151,157.130759 379.933946,151.649501 C380.78603,145.662335 381.811036,139.699061 382.822638,133.735788 C383.00303,132.67224 383.458735,131.650121 383.831604,130.624934 C385.668924,125.574618 387.641373,120.62908 389.986691,115.817471 C391.606706,112.493995 395.082716,111.701815 398.329117,110.712795 C400.537987,110.039858 401.728883,111.634521 402.856499,113.274778 C402.963285,113.430189 403.06985,113.599629 403.074464,113.788139 C403.079737,114.005802 402.949222,114.200669 402.822662,114.378 C400.855047,117.136384 398.892046,119.627565 397.277964,122.632328 C396.244609,124.556445 395.235423,126.498098 394.321158,128.480522 C392.104817,133.285994 391.102223,138.40974 390.248381,143.601438 C389.126258,150.425939 387.701577,157.200245 386.493103,164.011375 C385.810645,167.858076 385.556646,171.733491 384.92736,175.585233 C383.988706,181.331939 383.600456,186.886629 383.532781,192.692518 C383.518499,193.919806 383.703725,195.162657 383.920592,196.376574 C384.534496,199.81206 384.987784,203.299714 385.936326,206.644671 C386.386318,208.231444 387.281467,213.022886 384.944499,213.761363 C384.438478,213.921159 383.889171,213.806299 383.379854,213.657464 C382.322989,213.348395 381.235143,213.171722 380.173224,212.870982 C376.821137,211.921856 374.752889,209.562193 373.513873,206.432927 C372.493921,203.856696 371.48891,201.26819 370.636826,198.633653 C368.708541,192.670818 366.779378,186.704694 365.041592,180.685087 C363.731167,176.14616 362.718466,171.521965 361.568877,166.936788 C361.51153,166.708384 361.016715,163.743296 360.381497,164.844765 C360.052572,165.415555 360.41028,167.442696 360.41863,168.101604 C360.475538,172.688974 360.512891,177.276782 360.619456,181.863055 C360.654832,183.384945 361.018692,184.905958 360.983756,186.42171 C360.900481,190.054255 360.844452,193.701924 360.460157,197.309699 C359.757924,203.902947 358.171088,210.340564 356.425832,216.724478 C354.532703,223.648495 351.318601,230.166778 345.591753,234.712061 C344.602562,235.497227 343.545697,236.222772 342.360294,236.660948 C340.044418,237.517353 337.313487,237.155458 335.301707,235.725851 C337.441585,233.10863 340.064413,231.318004 341.995554,228.399825 C344.204425,225.06232 345.395541,221.317108 346.516565,217.544935 C348.306865,211.520067 349.47491,205.357323 350.658335,199.189538 C351.570403,194.434921 351.924376,189.675043 351.935143,184.857954 C351.945689,180.143011 351.948106,175.425 352.113777,170.713783 C352.292631,165.621163 352.756466,160.53753 352.897747,155.44469 C352.969816,152.841498 352.612767,150.225812 352.441384,147.616482 C352.260112,144.860729 352.069393,142.107167 351.911193,139.350098 C351.891638,139.010342 351.870984,138.665325 351.757607,138.344419 C351.643571,138.02176 351.440547,137.73768 351.313328,137.420063 C350.994291,136.623279 351.18501,135.725007 351.379464,134.889206 C351.431319,134.666501 351.488227,134.433494 351.640495,134.262739 C351.780458,134.105355 351.983262,134.021183 352.178815,133.942053 C353.725003,133.316024 355.37446,132.771098 356.866376,132.026703 C357.890722,131.611543 358.836188,131.722457 359.750234,132.401969 C362.9762,134.800431 365.520807,137.655919 366.881988,141.557419 C368.486841,146.157941 370.490052,150.621683 372.057552,155.233822 C373.154627,158.461289 373.800391,161.84066 374.666538,165.147257 C374.900322,166.039831 376.471998,173.359719 377.108973,173.245298 C377.145667,173.238722 377.180823,173.218994 377.214001,173.187868" id="path-11"></path>
        <filter x="-50%" y="-50%" width="200%" height="200%" filterUnits="objectBoundingBox" id="filter-12">
            <feMorphology radius="1.5" operator="dilate" in="SourceAlpha" result="shadowSpreadOuter1"></feMorphology>
            <feOffset dx="1" dy="1" in="shadowSpreadOuter1" result="shadowOffsetOuter1"></feOffset>
            <feMorphology radius="2" operator="erode" in="SourceAlpha" result="shadowInner"></feMorphology>
            <feOffset dx="1" dy="1" in="shadowInner" result="shadowInner"></feOffset>
            <feComposite in="shadowOffsetOuter1" in2="shadowInner" operator="out" result="shadowOffsetOuter1"></feComposite>
            <feGaussianBlur stdDeviation="8.5" in="shadowOffsetOuter1" result="shadowBlurOuter1"></feGaussianBlur>
            <feColorMatrix values="0 0 0 0 0.929411765   0 0 0 0 0.0352941176   0 0 0 0 0.0509803922  0 0 0 1 0" type="matrix" in="shadowBlurOuter1"></feColorMatrix>
        </filter>
        <filter x="-50%" y="-50%" width="200%" height="200%" filterUnits="objectBoundingBox" id="filter-13">
            <feGaussianBlur stdDeviation="1.5" in="SourceAlpha" result="shadowBlurInner1"></feGaussianBlur>
            <feOffset dx="0" dy="1" in="shadowBlurInner1" result="shadowOffsetInner1"></feOffset>
            <feComposite in="shadowOffsetInner1" in2="SourceAlpha" operator="arithmetic" k2="-1" k3="1" result="shadowInnerInner1"></feComposite>
            <feColorMatrix values="0 0 0 0 0.929411765   0 0 0 0 0.0352941176   0 0 0 0 0.0509803922  0 0 0 1 0" type="matrix" in="shadowInnerInner1"></feColorMatrix>
        </filter>
        <path d="M578.742191,129.687863 C579.537147,129.687863 580.283105,129.594047 580.997423,129.704303 C583.872273,130.148617 585.051963,132.19702 585.694212,134.749577 C586.194301,136.737262 585.444827,139.179782 583.715391,140.367614 C581.143099,142.134567 577.021983,142.643763 574.454745,139.765478 C573.594532,138.801008 572.758268,137.807823 571.995611,136.766196 C571.183516,135.657275 571.243281,134.503418 571.934308,133.295419 C573.467532,130.615947 575.65465,129.256263 578.742191,129.687863" id="path-14"></path>
        <filter x="-50%" y="-50%" width="200%" height="200%" filterUnits="objectBoundingBox" id="filter-15">
            <feMorphology radius="1.5" operator="dilate" in="SourceAlpha" result="shadowSpreadOuter1"></feMorphology>
            <feOffset dx="1" dy="1" in="shadowSpreadOuter1" result="shadowOffsetOuter1"></feOffset>
            <feMorphology radius="2" operator="erode" in="SourceAlpha" result="shadowInner"></feMorphology>
            <feOffset dx="1" dy="1" in="shadowInner" result="shadowInner"></feOffset>
            <feComposite in="shadowOffsetOuter1" in2="shadowInner" operator="out" result="shadowOffsetOuter1"></feComposite>
            <feGaussianBlur stdDeviation="8.5" in="shadowOffsetOuter1" result="shadowBlurOuter1"></feGaussianBlur>
            <feColorMatrix values="0 0 0 0 0.929411765   0 0 0 0 0.0352941176   0 0 0 0 0.0509803922  0 0 0 1 0" type="matrix" in="shadowBlurOuter1"></feColorMatrix>
        </filter>
        <filter x="-50%" y="-50%" width="200%" height="200%" filterUnits="objectBoundingBox" id="filter-16">
            <feGaussianBlur stdDeviation="1.5" in="SourceAlpha" result="shadowBlurInner1"></feGaussianBlur>
            <feOffset dx="0" dy="1" in="shadowBlurInner1" result="shadowOffsetInner1"></feOffset>
            <feComposite in="shadowOffsetInner1" in2="SourceAlpha" operator="arithmetic" k2="-1" k3="1" result="shadowInnerInner1"></feComposite>
            <feColorMatrix values="0 0 0 0 0.929411765   0 0 0 0 0.0352941176   0 0 0 0 0.0509803922  0 0 0 1 0" type="matrix" in="shadowInnerInner1"></feColorMatrix>
        </filter>
        <path d="M319.816718,112.143476 C321.681942,111.917483 322.628287,111.178787 323.207476,109.703806 C324.221496,107.121438 324.824634,104.466953 325.077095,101.724132 C325.115547,101.30678 324.91494,100.867508 324.7407,100.038283 C321.883428,103.830403 319.051424,107.131301 319.816718,112.143476 M351.113556,56.5623903 C350.345846,57.4838974 349.618784,58.1059805 349.217571,58.8933387 C348.501495,60.2986152 347.64194,61.7626367 347.458472,63.276416 C347.1669,65.6849605 347.38069,68.1544418 347.38069,70.58929 C350.577653,68.1614562 352.950876,60.0774447 351.113556,56.5623903 M433.655183,31.8070779 C432.156455,32.358141 431.74865,33.5247112 431.402587,34.7335865 C430.805821,36.8185951 430.205539,38.9025077 429.621297,40.9910235 C429.235903,42.3691195 428.875998,43.7546682 428.468852,45.2699819 C432.958223,43.4337628 435.159403,39.0068458 435.129301,34.959141 C435.120512,33.7463201 434.67887,32.7044734 433.655183,31.8070779 M307.849969,80.6761109 C308.440364,80.2929533 308.647123,80.2048358 308.793238,80.0570966 C311.875067,76.934406 313.748201,73.053949 315.509936,69.1344748 C316.337631,67.2936524 316.985593,65.3379705 317.434706,63.3708903 C318.002689,60.8827771 318.249217,58.323863 317.299577,55.8399146 C317.103804,55.3276496 316.808497,54.6371768 316.382235,54.4657642 C314.452192,53.6891467 312.501496,52.7527341 310.352829,53.5186109 C309.078438,56.8988587 308.341049,60.3032183 308.193396,63.8178344 C308.040689,67.4455564 307.942692,71.0759089 307.85766,74.7060421 C307.813715,76.5738258 307.849969,78.4431438 307.849969,80.6761109 M379.746698,83.7667986 C380.251621,83.4754848 380.805102,83.2700966 381.209172,82.9018444 C382.451263,81.7699074 383.697749,80.6316138 384.831078,79.3942427 C387.574533,76.3995636 389.467004,72.8709189 391.144805,69.2028645 C392.295272,66.6871324 393.610531,64.2579834 393.499352,61.3549289 C393.46068,60.3461811 393.70633,59.3255966 393.831792,58.311588 C394.931942,49.4222441 396.045277,40.5344347 397.11972,31.6418029 C397.237491,30.6668115 397.13576,29.6652971 397.13576,28.4594905 C395.915421,28.6576453 394.98907,28.8071381 394.06316,28.9588229 C390.5309,29.5370665 387.004353,30.1534504 383.464184,30.6782097 C381.868339,30.9147241 381.484264,31.0451467 381.284756,32.506757 C380.94089,35.0249003 380.71919,37.560141 380.466509,40.0901209 C380.277987,41.9752212 380.115613,43.8627327 379.9517,45.7500249 C379.539061,50.4993817 379.537962,55.2643014 378.889561,59.9952456 C377.913114,67.1165407 374.572233,77.5187871 379.746698,83.7667986 M496.231062,54.4190751 C494.71256,56.6649748 493.08881,58.8339361 491.115702,60.695363 C487.990149,63.6398458 484.472611,65.1720378 480.285139,65.0378888 C476.761888,64.9252212 472.952778,64.3583759 470.115721,62.098886 C467.087944,59.6872728 464.435234,55.3368559 463.172488,51.7385063 C462.841806,50.795737 462.737877,49.7725221 462.545181,48.7830636 C461.353625,42.6692011 462.091454,36.7830851 464.583107,31.0830679 C465.135929,29.8187355 465.568563,28.4919318 465.939674,27.1614017 C466.349457,25.6919003 466.185324,25.4851968 464.645508,25.0308 C464.10565,24.8714433 463.543819,24.7861754 462.899813,24.647204 C461.893703,28.4513802 460.957685,32.10431 459.957948,35.739704 C458.856259,39.7446653 457.590877,43.7077599 456.599489,47.7385865 C455.975037,50.2775536 455.265553,52.7455006 454.127171,55.1091095 C453.7398,55.913565 453.923049,56.9819347 453.571932,57.8151052 C452.92441,59.3510235 452.199325,60.8836539 451.282863,62.270737 C449.518491,64.9418802 447.794328,67.6798788 445.703448,70.0895192 C442.794761,73.4410521 438.774278,75.7018573 434.28315,75.8794074 C432.104381,75.9655521 429.928908,75.5718731 427.881754,74.8371223 C425.808232,74.0929461 423.965858,72.0210894 421.809502,71.8161395 C421.65196,71.8010149 421.479259,71.7986037 421.352698,71.8932971 C421.219327,71.9928129 421.176481,72.170363 421.142424,72.3330077 C420.316267,76.2877728 417.884158,80.0496438 413.699982,81.2422986 C410.956527,81.8941926 408.209556,82.0680163 405.455334,81.7063401 C403.939028,81.5073086 402.582242,80.7480077 401.439904,79.6160708 C400.213193,78.4001811 398.854429,77.316906 397.621566,76.2358229 C396.107458,78.7528702 394.842955,81.2252011 393.221403,83.436906 C391.852751,85.3035937 390.195384,87.0122398 388.441119,88.5323759 C385.780059,90.8378974 382.383589,91.3641911 379.141363,90.6967341 C377.217912,90.300863 375.543406,88.5987928 373.812652,87.4037269 C372.454767,86.4662183 371.182573,85.4055206 369.742731,84.3001066 C368.997433,85.8995923 368.315634,87.3123215 367.67668,88.7439017 C365.468908,93.6894404 361.275724,96.2194203 356.366463,97.6488086 C353.805597,98.3943 351.151129,98.7995966 348.37845,97.9447255 C345.82879,97.1589017 343.695724,95.9778645 342.05154,93.9020622 C341.23549,92.871833 340.367147,91.8790865 339.607786,90.8091825 C338.978061,89.921651 338.350314,89.7094676 337.41122,90.3539089 C336.094422,91.2574418 334.729506,92.0914891 333.263737,93.0333817 C333.459949,93.7188129 333.638584,94.3297169 333.809528,94.9425937 C335.495679,100.981491 334.531536,106.7819 332.175671,112.439174 C331.932658,113.022459 331.493652,113.59873 330.9962,113.988463 C329.685556,115.016062 328.349862,116.039277 326.908702,116.863241 C326.14231,117.301417 325.118183,117.549988 324.24193,117.481817 C322.584123,117.352929 320.918187,117.046491 319.311136,116.610506 C316.922093,115.962558 312.422835,112.62045 311.95175,109.992708 C311.607445,108.072098 313.521887,105.029195 314.39045,103.396392 C315.842157,100.667599 317.944242,98.4140278 320.106092,96.2347642 C321.013327,95.3200521 323.802265,93.5991309 323.82204,92.2087599 C323.856756,89.7750077 321.94517,89.115661 320.001065,88.6796768 C319.930095,88.6636754 319.853412,88.6724433 319.7831,88.6542499 C317.150605,87.9769289 314.877355,88.470343 312.653324,90.1792083 C311.22271,91.278704 309.326725,91.7758444 307.62805,92.5478587 C306.86737,97.6457398 306.153712,102.829108 305.294816,107.988584 C304.949852,110.061975 304.335508,112.096568 303.753902,114.123489 C303.171857,116.152164 302.573113,118.18588 301.810896,120.152303 C300.57188,123.349082 298.897155,127.090787 295.45674,128.37134 C294.242992,128.823107 292.959813,129.070581 291.748702,129.529142 C290.755337,129.905505 289.799104,130.426538 288.746413,130.569455 C286.709805,130.845644 282.071243,129.34414 280.626128,127.780602 C279.266045,126.308909 281.817903,125.243827 282.823573,124.786362 C284.415023,124.062571 286.039212,123.358508 287.498829,122.414642 C288.569537,121.721978 289.584655,120.78425 290.30161,119.735827 C292.802272,116.079171 294.329783,111.992011 295.289531,107.677981 C295.636253,106.119704 296.276305,104.614035 296.502839,103.043922 C297.042697,99.3011209 297.469178,95.5394691 297.839411,91.775406 C298.10967,89.0282011 298.240404,86.2665292 298.393331,83.5088029 C298.633049,79.1781138 298.708413,74.8406295 298.886828,70.50731 C298.980869,68.2206395 299.100179,65.9346266 299.288261,63.6534361 C299.37659,62.5830937 300.402035,58.9858401 299.719137,58.1237355 C299.108968,57.3530364 297.699228,58.7699304 297.275383,59.1351138 C293.943291,62.0083573 290.99,65.155598 288.712796,69.003833 C287.581005,70.9167713 286.615984,72.7742527 286.068215,74.910992 C285.61361,76.683863 284.397226,77.3973516 282.58825,77.1014347 C281.80406,76.973204 281.02053,76.7524719 280.280724,76.4624734 C278.497236,75.7630135 277.892779,74.5942513 278.161939,72.7106854 C278.828578,68.0428702 281.283757,64.2792456 284.262755,60.8121954 C287.049716,57.5685077 290.405099,54.962247 294.126759,52.8846911 C295.959025,51.8616954 297.962236,51.1146696 299.944353,50.3978931 C301.242254,49.9285908 301.937895,49.1846338 302.343503,47.8534461 C303.441237,44.2509318 305.3392,41.0887857 307.904461,38.2977413 C309.840656,36.1914705 312.285069,35.530151 314.988755,35.4001668 C316.441999,35.3302427 317.441298,36.2528458 318.453779,37.0658501 C319.126569,37.6061725 318.989902,38.3016868 318.584074,39.0349032 C317.53402,40.9320593 316.649857,42.9269777 315.509497,44.7653888 C314.737612,46.0097742 313.647349,47.0739791 312.684085,48.1686524 C314.075368,48.7398817 315.501367,49.2183903 316.928245,49.6929533 C320.225622,50.7091539 323.051473,52.5670736 325.325162,55.0435693 C326.49057,56.3131625 327.159406,58.1710822 327.659933,59.8777556 C328.227697,61.8134905 328.118714,63.8452341 327.967325,65.9129261 C327.794404,68.2739046 327.47251,70.5884132 326.612516,72.7122198 C325.167181,76.2818544 323.563427,79.8205822 320.982566,82.7856696 C320.797779,82.9980722 320.665067,83.2554103 320.531695,83.4559762 C320.622221,83.6561037 320.645951,83.8531625 320.740431,83.8965636 C323.450709,85.142045 326.195483,86.3167255 328.866869,87.6395837 C329.624692,88.0148501 330.203002,88.126641 330.87799,87.6764089 C332.118104,86.8487183 333.595298,86.0920479 334.708632,85.1034662 C336.086293,83.8799046 335.354617,83.3387054 335.092048,81.4742097 C334.633487,78.2191238 334.890782,74.8912642 335.540722,71.6804562 C336.26251,68.115863 337.167547,64.5552155 338.635953,61.2161768 C339.820038,58.523333 341.898173,53.8772183 345.077778,53.2082269 C346.168701,52.9787269 347.259623,52.7490077 348.350765,52.5195077 C349.470032,52.2840894 350.603141,52.0473559 351.746137,52.092949 C355.495263,52.2430994 358.232786,55.3833258 359.203081,58.7911926 C360.406941,63.0188587 358.474261,67.2362226 356.412385,70.8694246 C354.528484,74.1891739 352.376082,77.3572384 349.984402,80.3339433 C349.043331,81.5051166 346.749208,83.2424777 346.315695,84.6440278 C345.801325,86.306204 346.994198,88.6051496 347.75334,90.0139332 C347.923185,90.3289203 348.112806,90.6487298 348.407234,90.8528029 C348.929075,91.2142599 349.64537,91.1211009 350.234227,90.882833 C352.461554,89.9817112 354.649331,88.7984819 356.038857,86.7730951 C357.847173,84.1374619 359.677022,81.5167341 361.48468,78.8808817 C363.28223,76.2597155 364.743824,74.1124547 365.027706,70.8751238 C365.337954,67.3381496 364.537065,63.758651 365.189202,60.240747 C366.827453,51.403353 367.892448,42.7301381 368.989523,33.8188745 C369.031709,33.4764877 369.101142,33.1373888 369.184856,32.6356453 C368.623685,32.6104375 368.177867,32.4846181 367.79555,32.5893946 C363.50393,33.7653903 359.112555,34.6890894 355.217534,36.9676496 C353.715291,37.8464132 352.316317,38.9084261 350.908116,39.9379977 C348.437775,41.7441868 345.980838,43.5694461 343.548729,45.4264891 C342.120752,46.5167785 337.535363,47.1984834 337.366836,44.4135765 C337.264005,42.716767 340.359017,39.4092928 341.526183,38.3141811 C347.102302,33.082151 353.749787,29.6254032 361.071821,27.5061997 C363.373195,26.8402771 365.782452,26.5255092 368.156994,26.1392828 C369.559263,25.9113172 370.531096,25.4766481 370.934287,23.8925063 C371.324734,22.3587799 372.139465,20.9318029 372.774243,19.460767 C373.222477,18.4217699 373.931961,17.9296711 375.154058,17.9412885 C378.630288,17.9741682 381.989406,20.4778444 382.899717,24.0428759 C384.939401,23.7138602 387.013142,23.4245192 389.067987,23.0365393 C391.653243,22.5486052 394.215647,21.9387971 396.803319,21.4659877 C397.884794,21.2684905 398.388178,20.8471926 398.60812,19.6847871 C399.148857,16.8277642 399.789129,13.9768788 400.620559,11.1919719 C401.022871,9.84456361 402.126098,6.38847335 403.481786,5.66577851 C404.118102,5.32667966 404.91196,5.62610372 405.497301,6.04718252 C407.317482,7.35601203 409.29916,8.48093467 410.765588,10.2215837 C411.343458,10.9076725 411.607565,11.5413731 411.480125,12.3898874 C411.246121,13.9501367 410.969271,15.5136739 410.829088,17.0853215 C413.492564,16.9546797 416.472002,14.6219777 418.612099,13.1952198 C421.21691,11.4587355 423.665718,9.49998481 426.039819,7.4640765 C428.090929,5.7050149 430.039868,3.82758653 432.033411,2.00188883 C432.754101,1.34166533 433.452159,0.636067908 434.213278,0.0302054441 C434.523526,1.40654785 434.156809,2.52577135 433.779326,3.85389026 C433.373499,5.28130573 433.333729,6.78719398 433.004804,8.23411805 C431.105523,16.5862083 421.889481,21.9473458 414.409686,24.4196768 C413.101897,24.8519347 411.784881,25.2730135 410.446331,25.5908501 C409.525474,25.8096095 409.064056,26.274747 408.971114,27.2078716 C408.515409,31.7761711 408.028724,36.3416209 407.573019,40.9099203 C407.283645,43.8096868 406.997127,46.7103301 406.767297,49.6151381 C406.456609,53.5383387 406.203269,57.4661424 405.922464,61.391535 C405.771734,63.4949562 405.698786,65.6082413 405.439733,67.6982914 C405.116741,70.3023602 405.338002,73.0763072 406.506266,75.4613974 C406.58251,75.6170278 406.671498,75.7801109 406.825743,75.8598989 C407.008772,75.9548115 407.230692,75.9059304 407.428222,75.8471854 C409.174577,75.327906 410.602114,74.1902699 411.662275,72.7286596 C413.499815,70.1960493 415.058087,67.4609003 416.718091,64.8011553 C417.308705,63.855098 416.836302,62.9476195 416.482988,62.0831037 C414.541739,57.3350622 414.474065,52.3336281 415.047101,47.4168043 C415.716815,41.6705364 418.73053,35.2539619 422.706629,31.0324332 C425.481285,28.086416 430.662782,26.6212986 434.613173,27.2668358 C435.443944,27.4027384 436.266365,27.8121997 437.003315,28.2464304 C438.132908,28.9114762 439.253054,29.6264991 440.256307,30.4642728 C442.617665,32.4366138 444.066735,34.8269648 443.53193,38.0879691 C442.71632,43.0613458 440.493827,46.851055 435.631148,49.056184 C433.000629,50.2490579 430.519962,51.0107699 427.663349,50.1668587 C426.887948,52.1214447 426.836973,53.9721309 427.022638,55.8771782 C427.458128,60.3433315 428.057092,64.3737198 430.086889,68.4220822 C430.306392,68.8598201 430.680579,69.2817756 431.170341,69.3150937 C431.422582,69.3321911 431.668891,69.2429777 431.903115,69.148065 C436.738769,67.1871223 440.322004,62.8652011 442.837607,58.4553817 C446.029297,52.8603602 448.903487,47.118257 450.526358,40.8566553 C452.42542,33.5295335 454.185397,26.1664633 456.010632,18.8202713 C456.263094,17.80429 456.33758,16.8744533 455.666547,15.9132713 C454.76129,14.6167169 454.776671,13.0941696 455.395629,11.7180464 C456.245076,9.82965817 457.755229,4.85080143 459.756462,3.99768395 C460.316974,3.75875845 460.936812,3.69519112 461.513144,3.49681719 C461.981592,3.33570688 462.418401,3.08691748 462.896077,2.95561805 C463.988758,2.65531719 465.178995,3.01370544 466.115013,3.65091318 C468.083946,4.99130716 469.080168,6.70258367 468.281477,9.04821834 C467.252736,12.0694203 466.271455,15.1066238 465.209097,18.3213774 C465.812455,18.6151023 466.356268,18.9320622 466.936995,19.1534519 C469.172012,20.0061309 471.428563,20.8029146 473.658527,21.668088 C476.269929,22.681439 477.78162,24.4696539 477.795243,27.4110679 C477.811063,30.830333 478.361028,34.2879576 477.275819,37.6254619 C476.605665,39.6867971 475.632514,41.6477398 474.87513,43.6834289 C473.217763,48.1377456 473.079778,52.6519032 474.536538,57.1866653 C474.992462,58.6055321 475.410814,58.9325751 476.785837,58.439161 C478.483853,57.8295722 480.17286,57.0746553 481.690044,56.1082126 C485.275037,53.8248301 487.301099,50.261333 489.126334,46.5685092 C489.610163,45.5889146 490.115745,44.6077857 490.728331,43.7066639 C491.850674,42.0552284 495.029619,41.7913143 496.566798,43.0545507 C498.210103,44.4048086 498.528701,46.4021381 498.197139,48.4027556 C497.869094,50.3829877 497.368566,52.7367327 496.231062,54.4190751" id="path-17"></path>
        <filter x="-50%" y="-50%" width="200%" height="200%" filterUnits="objectBoundingBox" id="filter-18">
            <feMorphology radius="1.5" operator="dilate" in="SourceAlpha" result="shadowSpreadOuter1"></feMorphology>
            <feOffset dx="1" dy="1" in="shadowSpreadOuter1" result="shadowOffsetOuter1"></feOffset>
            <feMorphology radius="2" operator="erode" in="SourceAlpha" result="shadowInner"></feMorphology>
            <feOffset dx="1" dy="1" in="shadowInner" result="shadowInner"></feOffset>
            <feComposite in="shadowOffsetOuter1" in2="shadowInner" operator="out" result="shadowOffsetOuter1"></feComposite>
            <feGaussianBlur stdDeviation="8.5" in="shadowOffsetOuter1" result="shadowBlurOuter1"></feGaussianBlur>
            <feColorMatrix values="0 0 0 0 0.929411765   0 0 0 0 0.0352941176   0 0 0 0 0.0509803922  0 0 0 1 0" type="matrix" in="shadowBlurOuter1"></feColorMatrix>
        </filter>
        <filter x="-50%" y="-50%" width="200%" height="200%" filterUnits="objectBoundingBox" id="filter-19">
            <feGaussianBlur stdDeviation="1.5" in="SourceAlpha" result="shadowBlurInner1"></feGaussianBlur>
            <feOffset dx="0" dy="1" in="shadowBlurInner1" result="shadowOffsetInner1"></feOffset>
            <feComposite in="shadowOffsetInner1" in2="SourceAlpha" operator="arithmetic" k2="-1" k3="1" result="shadowInnerInner1"></feComposite>
            <feColorMatrix values="0 0 0 0 0.929411765   0 0 0 0 0.0352941176   0 0 0 0 0.0509803922  0 0 0 1 0" type="matrix" in="shadowInnerInner1"></feColorMatrix>
        </filter>
        <path d="M127.527377,164.160583 C128.998639,164.208587 129.604853,163.494879 130.04298,162.498626 C131.054143,160.198584 131.478207,157.791355 131.375597,155.293159 C131.35736,154.851695 131.169278,154.417245 131.00866,153.775434 C128.373748,156.873355 127.052776,160.106521 127.527377,164.160583 M190.558521,160.25974 C190.526002,160.239574 190.490407,160.222915 190.451516,160.21064 C189.298193,159.847649 187.774197,167.847707 187.552058,168.958821 C187.099649,171.221818 186.152425,174.951028 187.762332,176.95318 C187.852858,177.065848 187.959423,177.178735 188.100485,177.210738 C188.23122,177.24011 188.366569,177.194079 188.488954,177.139717 C190.770114,176.127462 190.561817,172.159546 190.723752,170.117719 C190.958416,167.159207 191.188685,164.007583 190.903266,161.04666 C190.874702,160.752278 190.795602,160.40748 190.558521,160.25974 M91.4078483,149.145101 C91.4140005,149.152993 91.4205922,149.160664 91.4274036,149.168117 C91.6664617,149.425674 92.0881093,149.183899 92.3394718,148.938398 C93.9673961,147.350091 95.3549439,145.560342 96.6075821,143.668008 C99.1394448,139.843228 100.052612,135.674964 99.1330729,131.157299 C98.836008,129.697442 98.0381955,128.429164 96.9382645,127.432911 C96.8290624,127.334053 96.7020628,127.232564 96.5548487,127.237167 C96.4091726,127.241551 96.2898633,127.348081 96.1843965,127.448474 C95.0253601,128.551696 94.1291119,129.671358 93.6973571,131.253089 C92.8815273,134.242726 92.2168667,137.287382 91.7273249,140.347163 C91.2878798,143.093053 91.2733781,145.931225 91.3063365,148.705391 C91.3080943,148.85861 91.3153451,149.025858 91.4078483,149.145101 M174.261481,136.324885 C175.051603,135.374005 175.987401,134.599142 176.464858,133.605299 C177.726066,130.979968 178.797213,128.263232 179.928125,125.576087 C181.287329,122.346428 182.509425,119.052763 184.014964,115.893248 C185.410422,112.964766 185.515669,112.798834 183.351402,110.386782 C183.156728,110.169776 182.940082,109.971402 182.726951,109.771275 C180.855354,108.01309 179.321691,108.148773 177.441305,109.936331 C175.888746,111.412408 175.399644,113.440864 174.337725,115.164634 C173.103983,117.167444 172.444595,119.407644 172.164888,121.751306 C172.070408,122.543487 171.93418,123.330845 171.804543,124.118422 C171.326427,127.020381 171.318517,129.909407 172.165548,132.747359 C172.536439,133.99021 173.064213,135.181769 174.261481,136.324885 M166.401786,137.236528 C166.032213,138.55851 165.808096,139.678829 165.403806,140.73054 C164.809457,142.275884 164.107883,143.781991 163.40543,145.283057 C163.192079,145.738769 162.798776,146.106583 162.530934,146.541252 C159.900855,150.811662 154.495242,151.943599 150.123203,149.48968 C146.479324,147.444346 144.342522,144.267733 142.418412,140.808793 C142.136069,140.301351 141.882289,139.778126 141.604121,139.268272 C141.582368,139.228159 141.473166,139.235392 141.155008,139.167003 C140.750279,139.788428 140.273261,140.486792 139.834695,141.208391 C139.6086,141.58015 139.551033,142.112143 139.245839,142.367947 C137.38413,143.927758 137.705803,145.766607 138.394194,147.724919 C138.899995,149.163733 139.30033,150.64003 139.733183,152.103832 C141.2563,157.255197 140.524184,162.174871 138.098667,166.87973 C137.80314,167.452932 137.1543,167.910179 136.571156,168.257169 C135.21393,169.064693 134.082139,170.163531 132.391594,170.530907 C127.01762,171.698134 123.20895,167.422902 121.811734,162.689766 C119.986719,156.507295 123.301893,151.932419 126.850851,147.046722 C127.945289,145.540176 128.092723,144.27694 127.305896,142.685783 C125.72719,139.493388 124.231099,136.260441 122.67854,133.054894 C121.992127,131.637781 121.251002,130.246971 120.321576,128.426315 C119.926735,129.401745 119.571443,129.953465 119.484653,130.544422 C118.653882,136.206299 116.519058,141.506061 114.964741,146.966495 C114.607692,148.220526 114.499149,149.560919 114.025427,150.763 C112.290278,155.166243 110.696411,159.652124 108.571254,163.866858 C106.828196,167.323606 103.95774,170.06818 100.857675,172.403074 C98.489945,174.186248 95.6614568,174.470109 92.9237141,173.36053 C89.2710466,171.880288 86.1802097,169.576081 84.0699945,166.164488 C80.1242172,159.785397 79.0735041,152.862256 80.4753339,145.573932 C81.4970436,140.262114 83.0449889,135.102419 85.3333991,130.163018 C86.1129747,128.480457 87.3144175,127.358164 88.7386589,126.345033 C91.2575581,124.552872 94.2326012,124.076994 97.1676548,123.589937 C97.9448134,123.461048 99.0539728,123.735046 99.6274486,124.249283 C102.148106,126.510527 104.279634,129.073387 104.757091,132.616498 C104.901668,133.689909 105.120951,134.753457 105.283766,135.824676 C105.594014,137.866064 104.925838,139.713243 104.107811,141.524474 C103.837552,142.122664 103.441612,142.679865 103.263417,143.301729 C101.4718,149.560043 97.0041813,153.077508 90.9165487,155.252388 C90.8264625,159.496275 91.5007909,163.600752 93.6551704,167.612947 C97.3774898,165.592821 100.372088,163.195894 102.235555,159.670318 C104.694031,155.018723 106.806443,150.208868 108.318134,145.152634 C109.967371,139.635866 111.718121,134.148252 113.29419,128.611099 C114.271736,125.17649 115.059661,121.684451 115.824295,118.194604 C116.116966,116.858156 116.217599,115.456167 116.21672,114.08399 C116.213863,109.402584 117.526266,105.032001 119.226699,100.74274 C119.331287,100.479046 119.477182,100.193431 119.687017,100.015662 C121.100492,98.8175269 125.18843,99.0742074 126.681005,100.329553 C127.662726,101.155051 127.99209,102.063626 127.475083,103.217702 C125.825186,106.900442 125.630732,110.807422 125.503512,114.758242 C125.435838,116.858156 125.896816,118.838826 126.4949,120.760533 C127.727324,124.721874 129.406883,128.515528 131.47601,132.128345 C132.263276,133.503153 132.979352,134.918293 133.846157,136.535315 C134.347344,136.0202 134.736034,135.725379 134.990472,135.342222 C136.443937,133.153533 137.903114,130.966597 139.272645,128.725739 C139.629914,128.1407 139.832937,127.366275 139.837112,126.677117 C139.867653,121.62176 140.377849,116.631944 141.555122,111.706133 C142.121787,109.335071 143.011224,108.836835 145.314795,109.760753 C147.634845,110.691248 149.267164,112.472229 150.852242,114.276664 C151.236976,114.714621 151.293445,115.47743 151.40001,116.107842 C151.4712,116.528483 151.444614,117.003046 151.323547,117.412945 C150.441361,120.397103 150.733372,123.469378 150.642407,126.505705 C150.542213,129.842551 150.459158,133.192769 150.649218,136.521067 C150.768088,138.604541 151.343322,140.673329 151.841872,142.717567 C152.016112,143.431713 152.573109,144.052919 153.057597,144.894419 C155.781497,142.990468 157.51401,140.723526 158.15494,137.76348 C158.818282,134.699753 159.174013,131.568733 159.864821,128.51224 C160.892243,123.965861 161.95614,119.418385 163.266126,114.947848 C164.416373,111.022894 166.680834,107.574914 169.865932,105.079348 C173.308105,102.382778 177.4769,101.845305 181.733365,103.048919 C183.324596,103.498932 184.838045,104.222504 186.660863,104.927005 C186.809395,103.402705 187.006706,101.929477 187.084708,100.449892 C187.204676,98.1741817 187.628301,95.9833006 188.571131,93.897196 C188.937408,93.0868221 189.473092,92.5879281 190.415701,92.6359324 C191.363145,92.6843751 191.933325,93.0344338 192.398697,93.9969309 C192.949322,95.1358822 193.82975,96.1838665 194.771701,97.0501358 C196.032249,98.2092533 196.819954,99.5325499 196.85489,101.213577 C196.9575,106.16898 197.017485,111.125478 197.056156,116.081758 C197.074173,118.374566 196.935308,120.671758 197.287963,123.159432 C198.487648,122.647167 198.726486,121.720399 199.071671,120.885256 C201.522895,114.951574 203.890625,108.981944 206.447097,103.093636 C208.156538,99.1561874 210.122615,95.3289954 212.001463,91.465855 C212.284905,90.8832275 212.719296,90.3733736 213.126662,89.7659768 C215.805739,89.6028937 218.380008,89.9761874 220.592175,91.5228464 C221.420309,92.1017476 222.231744,93.1201401 222.451686,94.0754037 C223.266857,97.6152275 223.864282,101.207001 224.474232,104.791103 C224.691758,106.069245 224.712631,107.380705 224.858966,109.096803 C226.339896,107.512223 227.198352,105.956139 228.16623,104.483349 C230.570434,100.824501 232.968046,97.1599539 236.116011,94.0666358 C236.635875,93.555686 237.211328,93.0973436 237.702408,92.5614052 C238.80893,91.3540642 239.979612,91.2589324 241.433516,92.004643 C242.704611,92.656537 244.150605,92.7773149 245.411593,93.6964109 C247.162122,94.9723607 247.851392,96.6200699 247.834253,98.5450642 C247.802174,102.117548 247.103456,105.579557 246.072518,109.036743 C244.481947,114.3707 242.905218,120.983018 244.483924,126.505047 C244.541272,126.705174 244.609605,126.910563 244.752645,127.062028 C246.303666,128.703381 251.753444,124.646031 252.879962,123.661834 C256.576573,120.431955 259.117005,116.556759 259.96843,111.64673 C260.502136,108.569414 263.663284,109.799332 265.784486,110.526192 C266.236894,110.681384 266.692599,110.858495 267.059755,111.164495 C267.682888,111.684213 267.963694,112.495683 268.217254,113.265505 C266.441017,116.246594 265.987949,119.595716 264.473841,122.633358 C263.057729,125.474599 261.06155,128.003483 258.55935,129.97144 C253.6892,133.802139 246.818476,135.975046 241.139747,132.781335 C240.238665,132.27455 239.489191,131.303066 238.95197,130.380682 C235.884643,125.114018 234.026669,119.483706 234.390091,113.311975 C234.505445,111.354321 234.958293,109.41727 235.238,107.468164 C235.373569,106.523642 235.45201,105.575173 235.5388,104.62517 C232.886309,106.154951 231.100405,110.23422 229.598381,112.834344 C227.749197,116.034849 226.130281,119.377834 224.914336,122.87053 C223.303331,127.481573 222.249102,132.231149 221.384714,137.026756 C221.102151,138.594458 219.861158,139.841036 218.29146,140.12665 C216.55741,140.442295 215.305431,139.190676 214.242852,137.968868 C210.880878,134.103316 211.736038,130.280289 211.859302,125.66267 C212.029368,119.290812 213.644328,113.121273 214.430495,106.837094 C214.56123,105.79196 214.88598,104.770937 215.21095,103.34396 C213.974351,104.214174 213.814613,105.218319 213.470308,106.104097 C211.99597,109.897313 210.594799,113.720779 209.030375,117.476513 C208.247943,119.355037 207.116811,121.085822 206.241437,122.929713 C204.932769,125.68722 203.691117,128.477169 202.457375,131.269309 C201.336351,133.806523 200.301018,136.381877 199.155385,138.907692 C198.503468,140.345629 198.24068,141.754632 198.500172,143.348856 C199.391806,148.824196 199.789065,154.343375 199.824879,159.894338 C199.840699,162.362504 200.197529,164.831109 200.16523,167.296425 C200.123482,170.503945 199.801589,173.695026 198.872382,176.804126 C197.881873,180.118176 194.46321,183.47475 190.82878,183.457434 C187.247742,183.440556 183.637041,180.177579 182.416043,176.971812 C180.971148,173.178377 181.332152,168.725813 182.362431,164.875825 C184.036717,158.618169 185.881727,152.399311 188.486977,146.439544 C188.713071,145.922238 188.889069,145.291606 188.815023,144.750845 C188.394693,141.684707 187.891089,138.629968 186.983635,135.44393 C186.673167,136.121031 186.335014,136.787173 186.057065,137.477207 C185.227833,139.534597 183.697685,141.020977 181.886292,142.136912 C179.00595,143.911756 175.919947,143.47906 173.092337,142.105348 C171.157461,141.165428 169.511299,139.631921 167.74451,138.351587 C167.353185,138.068164 166.998113,137.734546 166.401786,137.236528" id="path-20"></path>
        <filter x="-50%" y="-50%" width="200%" height="200%" filterUnits="objectBoundingBox" id="filter-21">
            <feMorphology radius="1.5" operator="dilate" in="SourceAlpha" result="shadowSpreadOuter1"></feMorphology>
            <feOffset dx="1" dy="1" in="shadowSpreadOuter1" result="shadowOffsetOuter1"></feOffset>
            <feMorphology radius="2" operator="erode" in="SourceAlpha" result="shadowInner"></feMorphology>
            <feOffset dx="1" dy="1" in="shadowInner" result="shadowInner"></feOffset>
            <feComposite in="shadowOffsetOuter1" in2="shadowInner" operator="out" result="shadowOffsetOuter1"></feComposite>
            <feGaussianBlur stdDeviation="8.5" in="shadowOffsetOuter1" result="shadowBlurOuter1"></feGaussianBlur>
            <feColorMatrix values="0 0 0 0 0.929411765   0 0 0 0 0.0352941176   0 0 0 0 0.0509803922  0 0 0 1 0" type="matrix" in="shadowBlurOuter1"></feColorMatrix>
        </filter>
        <filter x="-50%" y="-50%" width="200%" height="200%" filterUnits="objectBoundingBox" id="filter-22">
            <feGaussianBlur stdDeviation="1.5" in="SourceAlpha" result="shadowBlurInner1"></feGaussianBlur>
            <feOffset dx="0" dy="1" in="shadowBlurInner1" result="shadowOffsetInner1"></feOffset>
            <feComposite in="shadowOffsetInner1" in2="SourceAlpha" operator="arithmetic" k2="-1" k3="1" result="shadowInnerInner1"></feComposite>
            <feColorMatrix values="0 0 0 0 0.929411765   0 0 0 0 0.0352941176   0 0 0 0 0.0509803922  0 0 0 1 0" type="matrix" in="shadowInnerInner1"></feColorMatrix>
        </filter>
        <path d="M33.60153,189.409704 C33.6149331,189.049781 33.6235023,188.68942 33.6322912,188.329497 C33.6463534,187.74402 33.6564607,187.136404 33.4176223,186.601562 C32.7584547,185.123731 30.2775675,185.199793 28.9333051,185.333942 C26.8589046,185.541083 24.4122942,186.368774 22.8885184,187.822712 C21.0527366,189.57454 20.2230643,192.222668 20.3911521,194.751552 C20.5961532,197.832814 22.2363819,200.673616 24.1165477,203.048623 C24.3545072,203.349144 24.6142192,203.654705 24.9681922,203.803321 C25.5320002,204.040493 26.1784239,203.821515 26.7308064,203.558258 C29.5135923,202.231893 31.6793973,199.79573 32.4994018,196.817271 C33.0605732,194.779171 33.3833456,192.594866 33.5430838,190.488814 C33.5701097,190.129549 33.588127,189.769626 33.60153,189.409704 M42.5728011,181.837081 C44.8805469,182.64329 47.1645627,183.540247 49.4927426,184.285957 C51.5231986,184.936317 53.7703009,186.122177 55.9481907,185.978602 C57.6095128,185.869003 59.1132938,184.926891 60.3134183,183.775884 C63.4932428,180.726844 65.7122207,176.98492 66.7543647,172.707496 C68.1155458,167.119708 68.1777273,161.426924 68.4563354,155.758033 C68.5870703,153.099165 68.4170051,150.330917 67.8052976,147.748768 C66.2689976,141.262927 64.1343932,134.974583 59.6404082,129.799764 C58.2717565,128.223952 57.043947,126.459848 54.8335383,125.696164 C53.2691138,128.709913 52.0856883,131.367247 51.4302559,134.689626 C50.6792443,138.495556 49.815515,142.281758 49.0067164,146.068399 C48.0199425,150.703115 46.9652743,155.325118 46.0846264,159.979781 C45.2784644,164.240546 44.655551,168.535944 43.9689181,172.818848 C43.50816,175.69275 43.0770643,178.571254 42.5728011,181.837081 M14.0347989,130.077707 C13.4679147,131.189258 12.8849909,132.293795 12.4033591,133.444364 C11.7345237,135.041658 11.4297685,136.656487 11.2309196,138.36338 C10.8732113,141.435655 10.6102034,144.461679 10.8013621,147.556532 C10.9966954,150.717144 12.5431026,153.229368 14.773506,155.114469 C16.6246684,156.678664 19.9701637,156.867612 22.2423144,157.367164 C21.8011116,158.104106 21.6200602,158.992734 21.7376118,159.843221 C21.7815563,160.159523 21.8650508,160.483059 21.7885874,160.793662 C21.5150328,161.905214 18.9502117,162.433261 18.0227629,162.415287 C13.9948094,162.337472 10.435524,160.816678 7.66372426,157.875045 C3.03680712,152.964797 0.336636895,146.528056 0.030343682,139.783781 C-0.169164379,135.388867 0.777839745,130.900136 3.03966352,127.12336 C6.87184424,120.72476 14.2624314,116.269128 21.2373036,114.044929 C29.5083189,111.407323 37.6382724,111.965838 45.6410066,115.056307 C47.8450433,115.907452 49.9447119,117.040046 52.0507524,118.124198 C52.7947329,118.507136 53.3372278,118.453214 54.0150718,118.018106 C55.0750133,117.337717 56.1931813,116.744348 57.3043182,116.146815 C60.2024584,114.58832 63.3660235,114.508532 66.5407944,114.569688 C68.7953673,114.613089 70.2973906,115.781413 71.3709549,118.460886 C70.481518,118.366631 69.6641502,118.483025 69.0574963,118.179655 C66.7611761,117.031936 64.4415653,117.318427 62.1790823,118.029505 C60.2011401,118.651149 58.215947,119.536489 56.379506,120.494602 C58.3361352,121.909085 60.3244044,123.281482 62.257743,124.727967 C63.1994738,125.428304 64.1477963,126.151218 64.9554963,126.99491 C68.9588409,131.176326 70.9293126,136.308401 72.3931041,141.838321 C73.5798255,146.321791 75.0240617,151.178116 74.8779462,155.835848 C74.7713808,159.228152 75.4112128,162.58385 75.4848199,165.969358 C75.557548,169.319576 75.0104389,172.899294 74.2798615,176.166655 C73.349776,180.325274 70.6476283,183.906964 68.1304869,187.259593 C67.5671183,188.010126 66.9896875,188.750138 66.4124764,189.48993 C66.2090133,189.750775 66.0046714,190.012497 65.7660527,190.241997 C63.5736613,192.349145 59.5591108,193.207085 56.6381195,193.036549 C51.8334468,192.755757 47.2399275,191.833592 42.8601982,189.841085 C42.5211663,189.68677 42.0962229,189.720526 41.4425484,189.629778 C41.4049759,189.624517 40.5104854,194.290579 40.3971086,194.734454 C39.5990763,197.861967 37.8977648,200.71899 35.8095218,203.16151 C33.9289166,205.361598 31.7853036,208.163383 28.6834805,208.506646 C27.2783549,208.662277 25.8776238,208.262899 24.5219357,207.862863 C22.2282522,207.186199 20.5078247,206.260966 19.2193718,204.193712 C14.7486774,197.020467 16.9208544,187.023079 23.6155803,181.99578 C24.8299867,181.083698 26.5073486,180.683662 27.9810276,180.281215 C29.4415233,179.882275 30.9402507,179.666366 32.4488656,179.536381 C33.7814828,179.421303 34.2114798,178.706718 34.326175,177.573028 C34.4936035,175.921811 34.5674303,174.257662 34.8122012,172.618283 C35.7093283,166.607005 36.4232068,160.554737 37.652115,154.609437 C39.1367801,147.427863 41.0224389,140.321692 43.6193396,133.438884 C45.0112818,129.749787 46.6651333,126.179933 49.0869151,123.018444 C49.3231168,122.710033 49.5013118,122.356248 49.6929099,122.016053 C49.7245499,121.959281 49.685659,121.863272 49.6606106,121.550477 C49.2864232,121.288317 48.8318172,120.835893 48.2833898,120.60727 C44.5672226,119.058419 40.9110396,117.397558 36.9782259,116.358999 C31.7543227,114.979368 27.4609444,116.857016 23.5657033,119.872738 C21.721572,121.300592 20.0160857,122.895255 18.3382844,124.5114 C17.5492608,125.271358 16.6316995,125.965558 15.9239732,126.800262 C15.2500842,127.595293 14.8016305,128.550118 14.339554,129.475132 C14.2389211,129.676356 14.1371896,129.877141 14.0347989,130.077707" id="path-23"></path>
        <filter x="-50%" y="-50%" width="200%" height="200%" filterUnits="objectBoundingBox" id="filter-24">
            <feMorphology radius="1.5" operator="dilate" in="SourceAlpha" result="shadowSpreadOuter1"></feMorphology>
            <feOffset dx="1" dy="1" in="shadowSpreadOuter1" result="shadowOffsetOuter1"></feOffset>
            <feMorphology radius="2" operator="erode" in="SourceAlpha" result="shadowInner"></feMorphology>
            <feOffset dx="1" dy="1" in="shadowInner" result="shadowInner"></feOffset>
            <feComposite in="shadowOffsetOuter1" in2="shadowInner" operator="out" result="shadowOffsetOuter1"></feComposite>
            <feGaussianBlur stdDeviation="8.5" in="shadowOffsetOuter1" result="shadowBlurOuter1"></feGaussianBlur>
            <feColorMatrix values="0 0 0 0 0.929411765   0 0 0 0 0.0352941176   0 0 0 0 0.0509803922  0 0 0 1 0" type="matrix" in="shadowBlurOuter1"></feColorMatrix>
        </filter>
        <filter x="-50%" y="-50%" width="200%" height="200%" filterUnits="objectBoundingBox" id="filter-25">
            <feGaussianBlur stdDeviation="1.5" in="SourceAlpha" result="shadowBlurInner1"></feGaussianBlur>
            <feOffset dx="0" dy="1" in="shadowBlurInner1" result="shadowOffsetInner1"></feOffset>
            <feComposite in="shadowOffsetInner1" in2="SourceAlpha" operator="arithmetic" k2="-1" k3="1" result="shadowInnerInner1"></feComposite>
            <feColorMatrix values="0 0 0 0 0.929411765   0 0 0 0 0.0352941176   0 0 0 0 0.0509803922  0 0 0 1 0" type="matrix" in="shadowInnerInner1"></feColorMatrix>
        </filter>
        <path d="M156.370486,95.3993579 C156.432008,97.5369739 155.066432,99.0402318 152.909416,100.064762 C150.923344,101.00775 149.060317,100.664048 147.322531,99.5827461 C144.864276,98.0534037 144.421535,96.5622017 143.183838,94.2139367 C142.934013,93.7400312 142.513464,93.3825198 142.179486,92.9631946 C140.420607,90.7543393 142.901274,87.8238851 145.313388,88.0553579 C148.504199,88.3611387 151.665787,88.8758149 154.326187,90.927067 C155.731093,92.0103421 156.431349,93.3226788 156.370486,95.3993579" id="path-26"></path>
        <filter x="-50%" y="-50%" width="200%" height="200%" filterUnits="objectBoundingBox" id="filter-27">
            <feMorphology radius="1.5" operator="dilate" in="SourceAlpha" result="shadowSpreadOuter1"></feMorphology>
            <feOffset dx="1" dy="1" in="shadowSpreadOuter1" result="shadowOffsetOuter1"></feOffset>
            <feMorphology radius="2" operator="erode" in="SourceAlpha" result="shadowInner"></feMorphology>
            <feOffset dx="1" dy="1" in="shadowInner" result="shadowInner"></feOffset>
            <feComposite in="shadowOffsetOuter1" in2="shadowInner" operator="out" result="shadowOffsetOuter1"></feComposite>
            <feGaussianBlur stdDeviation="8.5" in="shadowOffsetOuter1" result="shadowBlurOuter1"></feGaussianBlur>
            <feColorMatrix values="0 0 0 0 0.929411765   0 0 0 0 0.0352941176   0 0 0 0 0.0509803922  0 0 0 1 0" type="matrix" in="shadowBlurOuter1"></feColorMatrix>
        </filter>
        <filter x="-50%" y="-50%" width="200%" height="200%" filterUnits="objectBoundingBox" id="filter-28">
            <feGaussianBlur stdDeviation="1.5" in="SourceAlpha" result="shadowBlurInner1"></feGaussianBlur>
            <feOffset dx="0" dy="1" in="shadowBlurInner1" result="shadowOffsetInner1"></feOffset>
            <feComposite in="shadowOffsetInner1" in2="SourceAlpha" operator="arithmetic" k2="-1" k3="1" result="shadowInnerInner1"></feComposite>
            <feColorMatrix values="0 0 0 0 0.929411765   0 0 0 0 0.0352941176   0 0 0 0 0.0509803922  0 0 0 1 0" type="matrix" in="shadowInnerInner1"></feColorMatrix>
        </filter>
        <path d="M514.07886,56.2951006 C511.957659,56.2937854 509.716489,54.490665 509.001951,52.204433 C508.829029,51.6513971 508.72598,51.0709616 508.501203,50.5407223 C507.512013,48.20539 507.961125,47.0072553 510.33303,46.5638183 C512.803371,46.102188 515.115511,47.0333398 517.177167,48.2406808 C518.569329,49.0560963 519.318144,52.426261 518.807728,53.8267152 C518.226342,55.4213785 516.54964,56.296635 514.07886,56.2951006" id="path-29"></path>
        <filter x="-50%" y="-50%" width="200%" height="200%" filterUnits="objectBoundingBox" id="filter-30">
            <feMorphology radius="1.5" operator="dilate" in="SourceAlpha" result="shadowSpreadOuter1"></feMorphology>
            <feOffset dx="1" dy="1" in="shadowSpreadOuter1" result="shadowOffsetOuter1"></feOffset>
            <feMorphology radius="2" operator="erode" in="SourceAlpha" result="shadowInner"></feMorphology>
            <feOffset dx="1" dy="1" in="shadowInner" result="shadowInner"></feOffset>
            <feComposite in="shadowOffsetOuter1" in2="shadowInner" operator="out" result="shadowOffsetOuter1"></feComposite>
            <feGaussianBlur stdDeviation="8.5" in="shadowOffsetOuter1" result="shadowBlurOuter1"></feGaussianBlur>
            <feColorMatrix values="0 0 0 0 0.929411765   0 0 0 0 0.0352941176   0 0 0 0 0.0509803922  0 0 0 1 0" type="matrix" in="shadowBlurOuter1"></feColorMatrix>
        </filter>
        <filter x="-50%" y="-50%" width="200%" height="200%" filterUnits="objectBoundingBox" id="filter-31">
            <feGaussianBlur stdDeviation="1.5" in="SourceAlpha" result="shadowBlurInner1"></feGaussianBlur>
            <feOffset dx="0" dy="1" in="shadowBlurInner1" result="shadowOffsetInner1"></feOffset>
            <feComposite in="shadowOffsetInner1" in2="SourceAlpha" operator="arithmetic" k2="-1" k3="1" result="shadowInnerInner1"></feComposite>
            <feColorMatrix values="0 0 0 0 0.929411765   0 0 0 0 0.0352941176   0 0 0 0 0.0509803922  0 0 0 1 0" type="matrix" in="shadowInnerInner1"></feColorMatrix>
        </filter>
        <linearGradient x1="0.25781251%" y1="49.7500002%" x2="101.257813%" y2="49.7500002%" id="linearGradient-32">
            <stop stop-color="#000000" offset="0%"></stop>
            <stop stop-color="#000000" stop-opacity="0" offset="100%"></stop>
        </linearGradient>
    </defs>
    <g id="Page-1" stroke="none" stroke-width="1" fill="none" fill-rule="evenodd">
        <g id="Custom-Preset">
            <g id="Group-3" transform="translate(0.000000, -3.000000)">
                <g id="Group-2">
                    <g id="Rectangle">
                        <use fill="black" fill-opacity="1" filter="url(#filter-2)" xlink:href="#path-1"></use>
                        <use fill="#030303" fill-rule="evenodd" xlink:href="#path-1"></use>
                        <use fill="black" fill-opacity="1" filter="url(#filter-3)" xlink:href="#path-1"></use>
                    </g>
                    <g id="Group" transform="translate(107.000000, 150.000000)">
                        <g id="Fill-2">
                            <use fill="black" fill-opacity="1" filter="url(#filter-6)" xlink:href="#path-5"></use>
                            <use fill="black" fill-opacity="1" filter="url(#filter-7)" xlink:href="#path-5"></use>
                            <use stroke="url(#linearGradient-4)" stroke-width="1" xlink:href="#path-5"></use>
                        </g>
                        <g id="Fill-4">
                            <use fill="black" fill-opacity="1" filter="url(#filter-9)" xlink:href="#path-8"></use>
                            <use fill="black" fill-opacity="1" filter="url(#filter-10)" xlink:href="#path-8"></use>
                            <use stroke="url(#linearGradient-4)" stroke-width="1" xlink:href="#path-8"></use>
                        </g>
                        <g id="Fill-6">
                            <use fill="black" fill-opacity="1" filter="url(#filter-12)" xlink:href="#path-11"></use>
                            <use fill="black" fill-opacity="1" filter="url(#filter-13)" xlink:href="#path-11"></use>
                            <use stroke="url(#linearGradient-4)" stroke-width="1" xlink:href="#path-11"></use>
                        </g>
                        <g id="Fill-8">
                            <use fill="black" fill-opacity="1" filter="url(#filter-15)" xlink:href="#path-14"></use>
                            <use fill="black" fill-opacity="1" filter="url(#filter-16)" xlink:href="#path-14"></use>
                            <use stroke="url(#linearGradient-4)" stroke-width="1" xlink:href="#path-14"></use>
                        </g>
                        <g id="Fill-10">
                            <use fill="black" fill-opacity="1" filter="url(#filter-18)" xlink:href="#path-17"></use>
                            <use fill="black" fill-opacity="1" filter="url(#filter-19)" xlink:href="#path-17"></use>
                            <use stroke="url(#linearGradient-4)" stroke-width="1" xlink:href="#path-17"></use>
                        </g>
                        <g id="Fill-12">
                            <use fill="black" fill-opacity="1" filter="url(#filter-21)" xlink:href="#path-20"></use>
                            <use fill="black" fill-opacity="1" filter="url(#filter-22)" xlink:href="#path-20"></use>
                            <use stroke="url(#linearGradient-4)" stroke-width="1" xlink:href="#path-20"></use>
                        </g>
                        <g id="Fill-14">
                            <use fill="black" fill-opacity="1" filter="url(#filter-24)" xlink:href="#path-23"></use>
                            <use fill="black" fill-opacity="1" filter="url(#filter-25)" xlink:href="#path-23"></use>
                            <use stroke="url(#linearGradient-4)" stroke-width="1" xlink:href="#path-23"></use>
                        </g>
                        <g id="Fill-16">
                            <use fill="black" fill-opacity="1" filter="url(#filter-27)" xlink:href="#path-26"></use>
                            <use fill="black" fill-opacity="1" filter="url(#filter-28)" xlink:href="#path-26"></use>
                            <use stroke="url(#linearGradient-4)" stroke-width="1" xlink:href="#path-26"></use>
                        </g>
                        <g id="Fill-18">
                            <use fill="black" fill-opacity="1" filter="url(#filter-30)" xlink:href="#path-29"></use>
                            <use fill="black" fill-opacity="1" filter="url(#filter-31)" xlink:href="#path-29"></use>
                            <use stroke="url(#linearGradient-4)" stroke-width="1" xlink:href="#path-29"></use>
                        </g>
                    </g>
                    <rect id="Rectangle-3" fill="url(#linearGradient-32)" x="0" y="3" width="145" height="600"></rect>
                    <rect id="Rectangle-3" fill="url(#linearGradient-32)" transform="translate(719.000000, 300.585937) rotate(-180.000000) translate(-719.000000, -300.585937) " x="634" y="0.5859375" width="170" height="600"></rect>
                </g>
            </g>
        </g>
    </g>
</svg>