<?xml version="1.0" encoding="utf-8"?>
<!-- Generator: Adobe Illustrator 16.0.4, SVG Export Plug-In . SVG Version: 6.00 Build 0)  -->
<!DOCTYPE svg PUBLIC "-//W3C//DTD SVG 1.1//EN" "http://www.w3.org/Graphics/SVG/1.1/DTD/svg11.dtd">
<svg version="1.1" id="Layer_1" xmlns="http://www.w3.org/2000/svg" xmlns:xlink="http://www.w3.org/1999/xlink" x="0px" y="0px"
	 width="800px" height="600px" viewBox="0 0 800 600" enable-background="new 0 0 800 600" xml:space="preserve">
<rect x="-26.724" y="-42.714" fill="#D8252F" width="867.087" height="702.07"/>
<title>ps-cont</title>
<desc>Created with Sketch.</desc>
<g>
	<g>
		<defs>
			<path id="SVGID_1_" d="M474.139,281.439L474.139,281.439l4.609-2.104l2.156-4.615v-0.003l0.012,0.029l2.107,4.584l4.6,2.116
				h-0.025l-4.59,2.154l-2.092,4.57l-0.012,0.029v-0.005l-2.143-4.601l-4.617-2.151l-0.006-0.003V281.439L474.139,281.439z
				 M425.363,251.123l7.232-3.303l3.383-7.242l0.002-0.007l0.018,0.044l3.311,7.192l7.217,3.315h-0.012v0.004l0.004,0.004
				l-7.227,3.386L436,261.689l-0.02,0.045l-0.002-0.006l-3.361-7.221l-7.246-3.376l-0.008-0.005V251.123z M398.327,206.178
				L398.327,206.178l4.607-2.104l2.156-4.615l0.002-0.003l0.01,0.028l2.109,4.585l4.598,2.116h-0.023l-4.592,2.154l-2.092,4.57
				l-0.01,0.028l-0.002-0.004l-2.141-4.601l-4.619-2.151l-0.006-0.003L398.327,206.178L398.327,206.178z M305.144,285.298v-0.003
				l5.55-2.533l2.597-5.559l0.002-0.003l0.012,0.033l2.542,5.523l5.538,2.551h-0.031v-0.001l-5.528,2.592l-2.52,5.505l-0.013,0.035
				l-0.002-0.005l-2.579-5.541l-5.562-2.591L305.144,285.298z M386.637,372.187l-0.003,0.006L386.637,372.187l-2.9-6.248
				l-6.252-2.922l0.03-0.004l0.079-0.004l6.181-2.857l2.852-6.266l0.002-0.004l0.014,0.043l2.865,6.236l6.216,2.875l0.046-0.021
				l0.019-0.002v0.037h-0.035l-0.03-0.014l-6.219,2.908l-2.859,6.209L386.637,372.187L386.637,372.187z M496.389,383.353
				c2.297,0,4.396-0.846,6.002-2.242c-10.01,15.377-27.586,9.48-27.586,9.48c-15.227-5.076-13.164-22.09-13.164-22.09l-14.525,9.527
				c0,0,1.262,2.611-1.432,4.188l5.014,3.568l-5.537,14.574l-8.293-5.158v-12.191c0-7.266,2.861-9.682,2.861-9.682l10.791-11.773
				l-1.691-1.846c-12.148-1.352-18.59-12.684-18.59-12.684l7.367,22.695l-23.291,16.312c1.361,6.615-4.982,7.066-4.982,7.066h-2.086
				l0.215,7.445h-18.013l5.015-11.699c6.994,0.469,11.376-6.826,11.376-6.826l18.988-15.766l-18.838-22.635v-10.51
				c0,0-17.369,7.945-38.872,2.729v6.062l-28.157,47.285l-2.445,1.311v10.049H319.77c0,0,2.579-8.234,9.457-15.326l17.343-29.734
				l4.826-26.125l-29.476,0.059c0,0-1.541,9.885,2.776,12.863l6.466,3.486l0.215,16.936c0,0-10.712-3.18-14.383-14.475l-9.938-34.09
				l32.137,0.117c-0.252-1.93-0.391-3.174-0.391-4.662c0-6.98,2.905-13.579,7.566-18.065l9.26-39.617l-1.318,0.309
				c-2.798,0.818-5.171,0.68-7.109-0.058l-9.888,2.431c-1.422,2.028-3.772,3.358-6.438,3.358c-4.342,0-7.862-3.521-7.862-7.863
				c0-3.663,2.506-6.731,5.896-7.605c0.549-0.164,1.058-0.23,1.058-0.23s8.077-9.51,8.604-10.381l-3.859-0.031
				c-1.838,0-2.868,1.542-2.868,1.542c-2.496,4.25-6.302,1.773-6.302,1.773c2.363-0.465,2.869-2.974,2.869-2.974
				c0.493-2.797,1.734-4.162,2.894-4.833c-10.227-6.893-25.698-17.562-34-24.923c0,0,20.189,8.297,40.866,20.293v-2.106
				c0,0,0.06-3.397,3.952-3.397h5.158c0,0,3.827,0.244,4.314-2.736c0,0,0.414-3.107-3.814-3.753c0,0,4.441-0.717,6.447,2.364
				c0,0,2.601,3.455-0.061,7.351c0,0,4.664-0.928,4.403-5.817c0,0,0.066-3.261-3.977-4.886c0,0,10.041-1.662,10.155,9.465
				l5.364,0.043c14.381,0.026,23.569,8.039,25.623,19.616c0,0,1.333,8.499,6.712,10.003c0,0-7.243-0.176-10.594-5.854l0.882,3.418
				c1.058,3.01,3.404,7.401,8.938,11.366c0,0,4.953,2.695,3.836,7.964c0,0-2.68-6.461-11.09-4.98
				c2.213,0.875,6.512,3.454,6.592,10.343c0,0-0.43,5.981,4.98,8.739c0,0-5.381,1.064-8.865-2.286c0,0-4.426-3.016-6.002,2.716
				l20.17,11.934l17.039-0.108c0,0,19.779-0.95,26.527,12.315c3.484-1.094,7.191-1.688,11.037-1.688
				c20.322,0,36.797,16.475,36.797,36.795c0,9.77-3.809,18.646-10.02,25.234c-0.277,0.314-0.438,0.48-0.438,0.48
				c-0.611,0.602-5.012,4.547-5.012,8.938C487.227,379.251,491.33,383.353,496.389,383.353z"/>
		</defs>
		<use xlink:href="#SVGID_1_"  overflow="visible" fill="#FFFFFF"/>
		<clipPath id="SVGID_2_">
			<use xlink:href="#SVGID_1_"  overflow="visible"/>
		</clipPath>
	</g>
	<g>
		<defs>
			<path id="SVGID_3_" d="M356.3,297.931l0.088-0.123c-0.029-0.007-0.06-0.015-0.088-0.021V297.931"/>
		</defs>
		<use xlink:href="#SVGID_3_"  overflow="visible" fill="#FFFFFF"/>
		<clipPath id="SVGID_4_">
			<use xlink:href="#SVGID_3_"  overflow="visible"/>
		</clipPath>
		<rect x="351.3" y="292.786" clip-path="url(#SVGID_4_)" fill="#FFFFFF" width="10.088" height="10.145"/>
	</g>
	<g>
		<defs>
			<path id="SVGID_5_" d="M456.193,309.726c0,0,3.391,6.041,1.699,14.502c-1.17,5.852-3.215,11.479-3.215,11.479
				c-5.367,15.066,6.146,22.814,6.146,22.814s-1.014-8.27,4.238-21.301c3.002-7.447,4.812-11.82,3.742-17.875
				C466.787,307.905,456.193,309.726,456.193,309.726"/>
		</defs>
		<use xlink:href="#SVGID_5_"  overflow="visible" fill="#D8252F"/>
		<clipPath id="SVGID_6_">
			<use xlink:href="#SVGID_5_"  overflow="visible"/>
		</clipPath>
		<rect x="448.252" y="304.62" clip-path="url(#SVGID_6_)" fill="#D8252F" width="25.863" height="58.9"/>
	</g>
	<g>
		<defs>
			<polyline id="SVGID_7_" points="382.794,348.985 382.793,348.983 382.79,348.993 382.794,348.985 			"/>
		</defs>
		<use xlink:href="#SVGID_7_"  overflow="visible" fill="#FFFFFF"/>
		<clipPath id="SVGID_8_">
			<use xlink:href="#SVGID_7_"  overflow="visible"/>
		</clipPath>
		<rect x="377.79" y="343.983" clip-path="url(#SVGID_8_)" fill="#FFFFFF" width="10.004" height="10.01"/>
	</g>
	<g>
		<defs>
			<polyline id="SVGID_9_" points="395.623,336.177 395.623,336.124 395.597,336.128 395.533,336.159 395.574,336.177 
				395.623,336.177 			"/>
		</defs>
		<use xlink:href="#SVGID_9_"  overflow="visible" fill="#FFFFFF"/>
		<clipPath id="SVGID_10_">
			<use xlink:href="#SVGID_9_"  overflow="visible"/>
		</clipPath>
		<rect x="390.533" y="331.124" clip-path="url(#SVGID_10_)" fill="#FFFFFF" width="10.09" height="10.053"/>
	</g>
</g>
</svg>
