<svg xmlns="http://www.w3.org/2000/svg" width="800" height="600" viewBox="0 0 800 600"><path fill="#303233" d="M-13.638-144.949h827.275v889.898h-827.275v-889.898z"/><path fill="#F2F2F2" d="M231.387 252.383c26.3 0 47.617 21.322 47.617 47.617 0 26.297-21.317 47.617-47.617 47.617s-47.614-21.32-47.614-47.617c0-26.298 21.314-47.617 47.614-47.617zm0 11.856c-19.747 0-35.759 16.005-35.759 35.761s16.006 35.76 35.759 35.76c19.747 0 35.763-16.004 35.763-35.76s-16.017-35.761-35.763-35.761zm0 8.368c15.125 0 27.388 12.268 27.388 27.393 0 15.124-12.263 27.385-27.388 27.385s-27.388-12.261-27.388-27.385c0-15.125 12.263-27.393 27.388-27.393zm-6.158 8.721c-8.433 1.12-14.394 8.563-13.326 16.628.341 2.571 1.349 4.896 2.849 6.83 1.613-4.318 4.471-8.79 8.423-12.796 3.875-3.915 8.211-6.796 12.431-8.47-2.955-1.836-6.601-2.692-10.377-2.192zm15.469 23.468c-2.861.373-4.873 3.01-4.493 5.871.376 2.864 3.003 4.876 5.871 4.499 2.865-.38 4.88-3.006 4.5-5.871-.38-2.867-3.01-4.879-5.878-4.499zm91.614 25.965h34.713v13.312h-50.842v-86.706h16.129v73.394zm68.168-49.168c3.881 0 7.452.619 10.706 1.855 3.254 1.242 6.062 3.048 8.426 5.425 2.359 2.377 4.191 5.296 5.518 8.753 1.312 3.462 1.982 7.408 1.982 11.847 0 1.116-.055 2.047-.148 2.79-.104.74-.283 1.316-.541 1.738-.258.419-.615.718-1.049.895-.438.188-.998.271-1.68.271h-38.02c.438 6.315 2.137 10.95 5.095 13.918 2.958 2.954 6.878 4.438 11.75 4.438 2.404 0 4.465-.283 6.207-.844 1.734-.56 3.256-1.175 4.557-1.856 1.301-.677 2.439-1.301 3.418-1.854.982-.554 1.926-.84 2.846-.84.605 0 1.121.112 1.568.357.438.234.807.579 1.135 1.023l4.32 5.395c-1.635 1.918-3.482 3.53-5.518 4.834-2.033 1.301-4.17 2.337-6.389 3.109-2.225.772-4.475 1.326-6.775 1.651-2.299.325-4.531.479-6.682.479-4.281 0-8.259-.715-11.935-2.128-3.679-1.419-6.875-3.511-9.595-6.295-2.713-2.774-4.857-6.212-6.408-10.312-1.568-4.092-2.343-8.849-2.343-14.236 0-4.194.682-8.146 2.041-11.845 1.355-3.693 3.302-6.917 5.839-9.653 2.542-2.739 5.639-4.908 9.295-6.513 3.657-1.601 7.786-2.402 12.38-2.402zm.302 10.614c-4.312 0-7.699 1.221-10.132 3.653-2.437 2.438-3.998 5.9-4.677 10.377h27.818c0-1.918-.256-3.727-.775-5.427-.518-1.704-1.318-3.19-2.404-4.466-1.074-1.279-2.439-2.288-4.074-3.028-1.642-.742-3.561-1.109-5.756-1.109zm38.372 51.866v-61.519h9.059c1.914 0 3.176.894 3.777 2.689l1.021 4.861c1.242-1.282 2.553-2.437 3.93-3.484 1.377-1.031 2.84-1.931 4.371-2.692 1.545-.755 3.193-1.335 4.951-1.733 1.756-.398 3.674-.603 5.754-.603 3.361 0 6.334.569 8.936 1.71 2.6 1.14 4.764 2.739 6.512 4.796 1.734 2.061 3.055 4.518 3.955 7.376.891 2.858 1.346 6.003 1.346 9.446v39.152h-14.812v-39.152c0-3.764-.869-6.667-2.607-8.728-1.734-2.057-4.346-3.088-7.82-3.088-2.561 0-4.957.579-7.197 1.733-2.244 1.167-4.359 2.739-6.361 4.739v44.492h-14.812v.005zm111.467 0c-1.916 0-3.184-.898-3.775-2.694l-1.197-5.941c-1.285 1.442-2.621 2.739-4.018 3.895-1.41 1.168-2.912 2.16-4.531 3-1.615.843-3.357 1.49-5.215 1.95-1.857.464-3.871.688-6.025.688-3.359 0-6.438-.694-9.23-2.098-2.807-1.397-5.209-3.429-7.23-6.087-2.014-2.662-3.572-5.945-4.672-9.865-1.102-3.914-1.648-8.392-1.648-13.429 0-4.558.617-8.793 1.85-12.712 1.236-3.915 3.02-7.312 5.338-10.19 2.32-2.877 5.098-5.129 8.332-6.746 3.232-1.619 6.875-2.43 10.912-2.43 3.443 0 6.385.553 8.818 1.65 2.438 1.098 4.617 2.569 6.535 4.411v-32.502h14.805v89.106l-9.049-.006zm-19.726-10.853c3.082 0 5.695-.641 7.859-1.922 2.156-1.28 4.193-3.096 6.111-5.455v-27.579c-1.684-2.038-3.504-3.481-5.484-4.318-1.986-.84-4.107-1.258-6.389-1.258-2.24 0-4.268.418-6.086 1.258-1.822.837-3.357 2.11-4.613 3.8-1.268 1.704-2.232 3.867-2.916 6.484-.676 2.62-1.018 5.703-1.018 9.263 0 3.599.291 6.65.869 9.142.58 2.501 1.41 4.538 2.492 6.115s2.4 2.717 3.955 3.415c1.555.704 3.3 1.055 5.22 1.055zm81.306-38.674c-.396.639-.814 1.09-1.26 1.347-.439.261-1 .39-1.68.39-.721 0-1.49-.204-2.309-.604l-2.842-1.344c-1.08-.499-2.311-.949-3.688-1.349-1.379-.399-3.006-.604-4.887-.604-2.922 0-5.215.62-6.895 1.853-1.68 1.242-2.516 2.864-2.516 4.861 0 1.315.424 2.429 1.287 3.33.861.898 1.992 1.689 3.418 2.369 1.416.683 3.025 1.294 4.828 1.831 1.799.541 3.637 1.13 5.514 1.771 1.877.638 3.721 1.368 5.52 2.186 1.797.82 3.406 1.86 4.828 3.119 1.416 1.258 2.555 2.768 3.414 4.521.859 1.765 1.291 3.886 1.291 6.36 0 2.961-.541 5.69-1.615 8.182-1.078 2.505-2.666 4.661-4.738 6.479-2.082 1.818-4.646 3.234-7.711 4.255-3.055 1.023-6.561 1.532-10.52 1.532-2.121 0-4.188-.189-6.205-.569-2.021-.383-3.959-.908-5.816-1.59-1.857-.68-3.582-1.475-5.16-2.401-1.574-.921-2.957-1.919-4.168-2.997l3.422-5.636c.434-.676.959-1.2 1.559-1.558.598-.36 1.357-.541 2.277-.541.914 0 1.791.258 2.605.775.82.519 1.773 1.079 2.848 1.684 1.082.599 2.35 1.159 3.805 1.674 1.461.521 3.314.785 5.549.785 1.758 0 3.27-.209 4.531-.631 1.256-.418 2.293-.965 3.109-1.647.824-.68 1.426-1.471 1.803-2.369.377-.901.572-1.835.572-2.794 0-1.441-.43-2.616-1.297-3.534-.855-.917-1.992-1.719-3.408-2.404-1.43-.679-3.045-1.29-4.863-1.831-1.818-.534-3.68-1.133-5.572-1.764-1.898-.638-3.762-1.397-5.574-2.253-1.822-.863-3.438-1.951-4.859-3.271-1.426-1.313-2.557-2.938-3.418-4.857-.857-1.915-1.295-4.232-1.295-6.953 0-2.522.496-4.914 1.504-7.199 1-2.277 2.465-4.265 4.402-5.966 1.938-1.699 4.355-3.061 7.258-4.076 2.896-1.022 6.252-1.529 10.043-1.529 4.236 0 8.092.699 11.574 2.099 3.477 1.402 6.377 3.238 8.697 5.521l-3.362 5.347z"/></svg>