<?xml version="1.0" encoding="utf-8"?>
<!-- Generator: Adobe Illustrator 16.0.4, SVG Export Plug-In . SVG Version: 6.00 Build 0)  -->
<!DOCTYPE svg PUBLIC "-//W3C//DTD SVG 1.1//EN" "http://www.w3.org/Graphics/SVG/1.1/DTD/svg11.dtd">
<svg version="1.1" id="Layer_1" xmlns="http://www.w3.org/2000/svg" xmlns:xlink="http://www.w3.org/1999/xlink" x="0px" y="0px"
	 width="220px" height="220px" viewBox="0 0 220 220" enable-background="new 0 0 220 220" xml:space="preserve">
<g>
	<g>
		<polygon fill="#FFFFFF" points="26.479,71.609 21.948,85.471 8.887,89.738 21.415,94.803 26.479,107.593 31.278,94.537 
			44.07,89.604 31.278,84.938 		"/>
		<path fill="#FFFFFF" d="M45.937,62.013c0,0,5.334-3.198,7.999-7.728c0,0,2.396,5.596,7.727,7.728c0,0-6.663,4.267-7.867,7.999
			C53.796,70.012,51.533,64.683,45.937,62.013z"/>
		<path fill="#FFFFFF" d="M1.48,46.326c0,0,4.055-2.43,6.081-5.877c0,0,1.82,4.258,5.873,5.877c0,0-5.063,3.24-5.976,6.078
			C7.458,52.404,5.735,48.354,1.48,46.326z"/>
	</g>
	<path fill="#7FD2EF" d="M191.384,176.62"/>
	<path fill="#7FD2EF" d="M86.093,176.62"/>
	<g>
		<path fill="#FFFFFF" d="M67.43,189.354c1.26,0.431,2.604,0.655,4.003,0.641l135.287-1.649c1.399-0.01,2.74-0.273,3.988-0.733
			c2.384-0.881,4.419-2.506,5.804-4.591c1.287-1.928,2.036-4.257,2.007-6.753l-0.876-71.278c-0.02-1.955-0.45-3.864-1.253-5.606
			l-4.297-5.424l-3.445-3.137L145.04,32.866c-4.551-3.883-11.275-3.805-15.724,0.186L67.132,92.54l-3.367,3.228l-4.16,5.522
			c-0.751,1.762-1.146,3.68-1.118,5.638l0.863,71.272c0.03,2.501,0.827,4.811,2.161,6.71
			C61.511,184.91,63.427,188.717,67.43,189.354z"/>
		<path fill="#314D5C" d="M69.38,106.585c0.017,1.703,0.396,3.362,1.086,4.87l3.731,4.707l2.993,2.731l55.252,50.347
			c3.949,3.367,9.788,3.298,13.644-0.167l54.027-51.673l2.922-2.794l3.606-4.811c0.655-1.522,0.998-3.198,0.979-4.894L69.38,106.585
			z"/>
		<path fill="#7FD2EF" d="M207.621,104.902 M203.036,114.606 M200.114,117.4 M191.148,121.766V66.909H85.855v57.132l0.022,2.766
			l46.566,42.434c3.949,3.367,9.788,3.298,13.644-0.167l45.189-43.222L191.148,121.766z"/>
	</g>
</g>
</svg>
