<svg xmlns="http://www.w3.org/2000/svg" viewBox="0 0 800 600" enable-background="new 0 0 800 600"><style type="text/css">.st0{fill:#F7482B;} .st1{fill:none;stroke:#DBDCC5;stroke-width:1.5;stroke-miterlimit:10;}</style><path class="st0" d="M-23.8-95.3h847.6v790.6h-847.6z"/><path class="st1" d="M297.6 448.8c10.3 5.6 24 2.1 34.4-1.6 15.9-5.6 30.7-16.6 41.5-29.5 1-1.5 2.9-2.2 4.7-1.6 2.6.6 5.2.9 7.7 1.5 3 .7 5.9 1.6 8.9 2.4-.1.5-.3.9-.6 1.4l-2.8 2.8c-18.8 19-34.6 51.1-24.3 78.2 7.3 19.3 27.9 28.2 47.5 26.1 12.1-1.3 24.8-4.9 34.3-12.9 11.2-9.5 14.8-24.3 14-38.5l-.2-2.5c-.2-2.4-.7-4.8-1.2-7.2-.9-3.5-2.4-6.7-4.4-9.7-4.2-6.4-10.1-10.9-17.2-14-8.8-3.8-17.2-3.3-25.5 1.1s-14.1 13.5-15.2 22.9c-1.1 9 1.1 21.2 8.1 27.4 8.8 7.9 22.3 7.2 30.2-1.6 1.5-1.6 2.7-3.5 3.6-5.5.7-1.5 1.1-3.1 1-4.7-.1-1.6-1-3.1-2.5-3.9-.4-.2-.8-.3-1.2-.2-1 .3-1.7 1.3-1.7 2.3 0 1 .2 2 .5 3 1.4 8.4-9 14.3-16.2 13.4-4.9-.6-10.6-3.6-13.5-7.7-3.2-4.7-4.5-11.3-5-16.9-1-10.9 4.5-21.3 14.1-26.6 12.6-6.8 27.1-1.1 35.6 9.3 11.9 14.6 9.5 34.7.4 50.2-8.6 14.8-25.4 19.2-41.5 19.4-17.8.2-34.4-8.3-40.7-25.7-5.2-14.3-2.3-30.4 3.3-44.1 1.3-3.1 2.7-6 4.3-8.9 2.2-3.7 4.6-7.2 7.4-10.5 3.6-4.9 7.8-9.4 12.6-13.3 1.3-1 3-1.3 4.5-.8 3.2 1 6.4 1.9 9.6 2.7 6.1 1.5 12.3 3 18.5 4.2 6.9 1.3 19.4-.8 23.4-7.5 1.2-2.1 1.2-4.7.1-6.8-2.5-5.1-9.9-7.3-15.1-8.2-6.2-1.1-12.6-.5-18.7.7-7.1 1.4-13.4 4.9-19.3 9-1 .8-2.4 1.2-3.6.8l-15.3-3.8c-1.2-.3-2.3-.8-3.5-1.2l20.3-34.5c.7 1.9 1.2 3.2 1.7 4.5.8 2.2 2.4 3.9 4.5 4.8 4.6 2 9 2 13.1-1.2 2.2-1.7 4.4-3.6 6.6-5.5.6.7 1 1.2 1.4 1.8 4.9 7.2 12.6 9.6 20.6 6.2 4.8-2.1 8.6-5.5 12-9.4 1.4-1.6 2.4-3.8 4.9-4.6 1.1 5.4 4.2 11.3 10.7 10.2 3.8-.6 6.9-3.2 9.7-5.8 8.3-7.8 15.3-16.9 22.2-25.9l7.2 18.4c-15 10.1-29.5 22-37.8 38.1-4.4 8.5-6.8 18.9-2.3 27.3 2 3.6 4.9 6.6 8.4 8.8 8.3 5.5 19.6 7.2 28.5 2.6 9.1-4.7 14.1-14.9 16.3-24.9 3.4-15.2 1.8-31.1-4.5-45.4-.7-1.6-1.2-3.2-1.5-4.9-.2-1.5 4.3-4.7 7.4-7 20.7-15.1 36.9-37.3 48-60.4 9.6-20 14.9-43.1 8.9-64.4-2.2-7.9-6.1-15.5-12.4-20.7-6.3-5.2-15.2-7.6-22.9-4.7-1.6.5-2.9 1.5-3.8 2.9-.8 1.4-.5 3.5 1 4.3 1.5.7 3.4-.4 4.9-1.2 7.3-3.9 16.8-1 22.5 5s8.1 14.4 9.1 22.5c3 23.5-4.2 47.5-16.6 67.7-12.4 20.2-29.9 36.8-48.6 51.4l-6.9-17.3c-.5-1.1-.8-2.4-.9-3.6.2-1.5.9-3 1.9-4.2 4.4-6.5 8.3-13.4 11.6-20.6.9-1.6 1.3-3.4 1.4-5.2-.2-4.3-5.1-7.3-9.4-6.6-4.2.8-7.7 4.1-9.9 7.8-4.4 7.3-5.4 16.2-2.9 24.3.6 2 1.4 4 1 6-.5 1.5-1.3 2.8-2.4 3.9-5.3 6.6-10.6 13.1-16.1 19.5-2.5 2.7-5.3 5.2-8.2 7.3-4.2 3.2-8.6-.3-9.1-4.8-.3-2.2-.3-4.5 0-6.7 1.1-6.5 5.6-12.3 8.6-18.1 4.3-8.3 8.7-16.5 12.6-24.9 2.6-5.5 4.7-11.1 7-16.7 2.1-5.1 9.2-22.7-2.2-21.8-3 .2-5.8 1.7-7.7 4-5.7 6.8-9.8 14.8-12.1 23.3-3.4 12.7-6.1 25.5-8 38.5-.6 4.2-1.1 8.7-2.7 12.5-2.6 5.9-6.8 10.9-11.7 15.2-2 1.6-4.2 3.1-6.5 4.4-5.1 3.2-14.6.1-16.8-7.3-.9-2.7-1.2-5.6-.8-8.5.8-4.7 2.5-9.1 3.9-13.7.3-.6.7-1.2 1.1-1.7 1.7 1 3.4 2.7 4.8 3.1 4.7 1.3 6.3.9 9.6.6 10.9-1.2 20.9-24.2 7.9-28.5-4.3-1.4-9.1 1.1-12.4 3.8-5.9 4.7-9.9 11.4-13.1 18.1-3.4 7-6.4 14.1-6.5 22 0 .9-.2 1.9-.7 2.7-1.8 3.3-4.4 6-7.6 8-4.3 2.6-10.6.1-11.4-4.7-.7-4.3-1.1-8.8 1.1-13 3-5.8 6.1-11.6 9.3-17.3 1.8-3.6 3.8-7.1 6.1-10.5 5.6-7.7 11.6-15.1 17.3-22.8 3.5-5 7.5-9.6 12.1-13.7 3.1-2.7 6.7-4.6 10.7-5.6 1.6-.6 3.5.1 4.3 1.7 1.2 2 1.4 4.4-.5 5.9-1.7 1.4-4.2.5-5.8 1.8-.8.8-1.2 2-1 3.1 0 .8.4 1.6.9 2.1.7.5 1.5.7 2.3.4.8-.2 1.5-.6 2.2-1.1 3.4-2.1 6.7-4.4 7.6-8.6.8-4.1-1.6-8.1-5.6-9.3-2.3-.8-4.8-.7-7.1.2-3.2 1.5-6.7 2.8-9.3 5.1-14.8 12.8-24.7 29.6-35.6 45.5-.5.7-1.1 1.3-2.1 2.6.1-1.7.2-2.5.3-3.3.2-3.8.7-7.6.4-11.4-.4-6.2-6.4-9.5-12-6.6-1.8.9-3.5 2.1-4.7 3.8-5.9 8.7-9.7 18.8-13.6 28.5-2 5-4.1 9.9-6.6 14.7-1.9 3.5-5.2 11.1-10.3 9.8-2-.7-3.4-2.4-3.7-4.4-.2-2-.1-4 .5-6 1.3-6.1 2.9-12.2 4.8-18.1 1.7-5.4 4-10.7 5.1-16.2.1-.5-.1-1.1-.6-1.5-.6-.2-1.3-.1-1.9.3-.9 1.5-1.7 3.1-2.4 4.8-3.1 8.8-5.6 17.8-8.3 26.8-1 2.9-1.6 6-1.7 9.1.1 3.1 1.3 6.3 3.8 8.1 3 2.1 7.2 1.6 10.3-.3 3.1-1.9 5.2-5.1 6.8-8.4 3.2-6.6 6.6-13.1 9.3-19.9 2.9-7.2 5.2-14.5 8.9-21.4.9-2 2.3-3.8 4.1-5.2 3.8-2.6 7.7-.7 8.1 3.7.4 4.3-.8 8.6-1.3 12.8-1.2 9.5-4.8 18.2-9 26.6-6.3 12.9-14 24.9-21.1 37.3-.8 1.8-2.8 2.7-4.7 2.2-8.3-1.1-16.6-1.8-24.8-3-11-1.5-22.2-.4-32.6 3.2-11.5 4-28.3 12.8-23.9 27.7 1.2 4.5 4.1 8.1 8 10.3zM264.4 271.1c-7.6-4.6-13.9-11.1-18.3-18.8-5-8.6-6.2-19.3-4.5-29 2.9-16.4 14.6-30.6 28.9-38.6 13-7.4 33.5-5.6 39.6 10.1 4.1 10.7 3 25.7-6.5 33.4-8.4 6.7-22.4 5.2-25.4-6.3-1.7-6.8 1.8-13.9 8.2-16.8 1.9-1 4.1-1.1 6.1-.3 1.9.8 3.1 2.7 2.8 4.8-.4 1.8-2.3 2.9-2.3 4.9.1 1.6 1.3 2.9 2.9 3.2 2.3.3 4.5-.9 5.5-2.9s1.1-4.4.4-6.5c-4-12.7-20.6-8.6-26 .5-3.7 6.1-3 13.9.8 19.7 5.6 8.5 17 10.3 25.8 5.9 15.4-7.8 18.1-32.2 9.3-45.7-5-7.6-13.7-12.1-22.5-12.9-10-.9-19.4 3.2-27.2 9.1-1.6 1.2-3.1 2.5-4.6 3.8-7.3 6.3-13 14.2-16.7 23-2.7 6.6-4.1 13.8-4 20.9.3 20.1 12.9 37.5 30.8 46.1 9.6 4.5 20.7 5 30.7 1.3 19.4-7.1 27.3-27.3 33.2-45.4 2.7-8.3 6.5-16.3 9.7-24.5.1-.7.8-1.2 1.6-1h.1c3.4.1 6.8.2 10.2 0 7.9-.4 14.8-3.8 20.7-8.9 6.2-5.5 10.8-12.6 13.3-20.5 1.7-5.2 2.9-10.5 3.7-16 2.2-16.2-3.1-29.3-16.9-38.6-1.8-1.2-2.2-2-.8-3.8 3.1-3.9 6.1-8 9.7-11.4 6.7-6.1 15-8.5 24-8.4 10.2.2 17.6 8.9 16 18.7-.8 5.1-2.8 9.9-6 14-2 2.6-4.7 4.7-7.9 5.3-2.4.4-4.9 0-7.2-1-4.3-2.1-3.8-7.4.4-9.1.9-.4 2-.5 2.9-.1 2 .8 1.1 3.4 2.8 4.6 1.4.9 3.3.8 4.6-.2 3.4-2.3 2.6-7-.2-9.4-3.8-3.1-9.5-4.4-13.8-1.5-4 2.8-5.9 7.8-4.7 12.5 1.7 6.3 8.7 10 14.9 9.2 8.3-1.1 14.1-8.9 17-16.1 1.1-2.6 1.8-5.4 2.2-8.3.9-8-4.1-16.3-10.6-20.6-7.7-5.1-17.4-3.8-25.6-.6-6.2 2.3-11.6 6.1-16 11.1-2.4 2.8-4.2 6.3-6.7 9-.6.7-1.4 1.1-2.3 1.3-.7 0-1.3-.1-2-.3-3.1-.9-6.4-1.4-9.6-1.7-18.8-1-39.6 9.4-48.1 26.6-3.9 7.9-5.8 18.4-.7 26.2 4.3 6.7 13.8 10.6 21.4 7.4 5.6-2.5 9.2-8 9.3-14.2.1-2.6-.9-5.4-3.1-6.8-1.1-.7-2.4-1-3.7-.9-1.3 0-2.5.5-3.2 1.5-.9 1.5 0 3.8 1.7 4.4l2.6.6c2.9 1.1.7 6.2-.4 7.9-5.7 8.4-17.6 4.1-21.5-3.6-3.9-7.7-1.6-16.1 2.9-22.8 5.2-7.6 12.4-13.6 20.8-17.4 4.6-2 9.3-3.4 14.2-4.3 5-.9 10.8-.6 15.4 1.7.4.2.8.5 1 .8.1.4.1.8 0 1.3-.5 1.7-1.1 3.3-1.9 4.9-4.4 10.5-8.4 21-11.8 31.9-2.7 8.5-5.1 17.1-7.4 25.7-2.2 8.2-3.9 16.8-7.2 24.6-3.6 10.2-7.2 20.7-11.6 30.6s-9.2 19.5-18.1 25.9c-1.1.8-2.1 1.4-3.2 2.1-8 4.7-16.9 6.5-26 4.1-4.3-1.4-8.2-3.1-11.9-5.4zM321.3 299.9c-1.3 2.4-2.2 4-3.1 5.7-3 5.8-6.6 11.4-9 17.5-5.3 13.5-10 27.3-15.1 40.9-5.5 14.9-10.6 29.8-17 44.4-4.3 10-10.6 18.6-17.7 26.7-1.6 1.6-3.3 3.1-5.1 4.4-7.1 5.3-19.4 10.5-28.4 9.6-5-.5-9.7-3.1-13.4-6.5-5.2-4.7-9.6-10.6-11.9-17.2-2-5.8-2.1-12-2.5-18-.3-6.9.1-13.8 1.2-20.7 1.2-8 4.7-14.7 9.3-20.9 2.6-3.3 5.4-6.3 8.5-9.2 8.5-8.3 23.6-12.7 35.4-5.2 6.7 4.2 11.8 9.4 13 17.4 1.3 8.8 1.9 19-3 27-4.7 7.7-14.6 15.7-24 11.9-2.6-1.2-4.8-3-6.4-5.4-4.5-6.2-4-15.1-.1-21.6 1.4-2.3 3.9-4.3 6.6-4.3.6 0 1.2.1 1.7.4.7.7 1.2 1.5 1.5 2.4 2.1 4.1 7.2-1.5 6.3-4.7-.5-1.5-1.6-2.8-3-3.5-2.6-1.3-5.6-1.5-8.3-.5-9 2.9-14.4 11.2-14.5 20.6-.1 8.8 5.4 18.2 13.9 21.3s18.1-.7 24.2-6.8c9.1-9.1 10.2-21.4 9.8-33.6-.5-13.3-8.3-21.3-19.6-26.6-2.1-1.1-4.4-1.8-6.8-2.2-8.3-.6-16.1.7-23.3 5.2-9.4 6-17 14.6-21.7 24.8-5.5 11.7-5.6 25.4-5.1 38.1.7 15.9 11.7 38.3 28.9 41.7 7.3 1.5 15.3-1.5 22-4 18.7-6.9 28.6-24.9 36.9-41.7 1.5-3.1 2.8-6.3 4.1-9.5.6-1.5 1.6-1.9 3.1-1.5 2.3.5 4.6.9 7 1.2 6.6.6 13.2-.8 18.9-4.1 7.4-4 13.9-9.3 19.3-15.7 3.4-4 6.7-8 8.6-13 4.7-11.8 5.8-24.8 3.4-37.3-1.9-9.1-5.6-17.2-12.7-23.5-1.9-1.7-3.5-3.5-5.5-5.5 1.3-2.1 2.8-4.2 4.4-6.1 4-4.5 8.9-8 14.3-10.5 2.4-1.2 5.1-1.5 7.6-.9 2.2.5 4.3 1.3 6.4 2.2 4.9 2.3 7.4 7.8 6.3 13.6-2.6-.3-5.1-.6-7.7-.7-6-.4-11.7 2.5-14.9 7.5-2.3 3.1-1.8 7.5 1.2 10 1.2 1 2.4 1.9 3.8 2.5 5.6 2.5 14.5 1 18.4-5.9 1.1-1.9 2.2-3.9 3.2-5.8 6.4 1.7 8.9 7.8 7.1 13.6-1 .1-2.1.4-3.1.6-2 .6-3.3 2.6-3 4.7.4 1.9 2.4 3.1 4.7 2.8 1.8-.1 3.4-1.2 4.1-2.9 3.9-7.8 2.1-16.4-5.1-21.5-3-2.1-4.4-4.2-4.4-8-.1-5.5-2-10.5-7.1-13.7-5.5-3.6-12.2-4.7-18.5-3.2-8.2 1.9-14 7.3-18.9 13.8-1.3 1.7-2.4 3.4-3.5 5-3.4-1-6.3-2.3-9.3-2.8-16.7-2.9-32.5.4-47.3 8.3-6.2 3.4-11.3 8.5-14.7 14.8-3 5.3-3.6 11.6-1.6 17.3 1.5 5 5.3 8.9 10.3 10.5 5.5 2 11.4 2.9 17.2 1.5 11.1-2.8 12.9-15.6 8.7-22.1-1.4-2.2-3.6-3.9-6.6-3.7-1.7.1-3.1 1.4-3.4 3.1-.2 1.4.9 2.6 2.9 3 .5.1.9.1 1.4 0 1.7-.5 2.5.5 3 1.8 1.3 3.2.9 9.6-2.9 12.5-5.9 4.3-12.4 2.8-18.8.4-3.6-1.4-6-3.4-7.4-7.1-1.8-4.2-1.8-9 0-13.3 2.5-5.7 6.6-10.6 11.9-13.9 5.9-3.6 12.4-6.1 19.2-7.5 8.9-2 17.8-3.2 26.9-1.2 2.9.6 5.6 1.7 8.8 2.8zM524.7 234c.3 0 .6.2.6.4v.1c0 .6-.1 1.1-.2 1.7-.2.7-.5 1.3-.8 2-3.3 6.2-6.3 12.6-9 19.2-2.6 6.3-5.9 13.1-5.3 20.2.4 4.9 4 9 8.8 10.2 5.7 1.6 11.7-.5 16.6-3.6 6.6-4.2 10.9-10.5 13.5-17.9 1.2-3.3 1.1-6.9-.4-10-.6-1.6-1.9-2.8-3.5-3.2-1.4-.4-2.8 0-3.8 1s-1.2 2.6-.6 3.8c.8 1.5 2.8 2.2 4.2 3 .4.2.7.4.9.8.1.3.1.6 0 .9-1.3 5.1-3.7 10-7.1 14.1-4.1 5-10.2 7.8-16.7 7.5-9.4-.2-7.9-9.8-5.8-16.2 3.2-9.7 8.1-19 12.1-28.3.8-1.7 1.4-3.5 1.9-5.4.4-2-1-4-3-4.4-.2 0-.4 0-.5-.1-1.3 0-2.6.1-3.9.4l-8 1.9c-1 .2-2 .3-2.9.3-.3 0-.5-.2-.6-.5v-.1c.4-1.5.6-3.1.8-4.7.1-1.7 0-3.3-.2-5-.4-3.2-3.3-5.6-6.6-5.2-.2 0-.4.1-.5.1-5.1 1.3-8.5 6.1-8.1 11.3.4 3.4 2.3 6.7 5.8 7.7.7.3 1.4.6 2.1 1 .2.1.3.4.2.7-1.5 3.6-2.8 7.2-4.5 10.5-4.1 7.8-9.2 15.1-15.1 21.6-3 3.4-6.4 6.4-10.2 8.9-5.7 3.5-11 2.2-12.8-4.5-1.4-5-.3-9.6.9-14.4.3-1.7 1.8-2.9 3.5-2.8 2.3 0 4.5-.3 6.7-.8 7.2-2 12-7.2 15.6-13.4 1.3-2.4 2.1-5.1 2.4-7.8.6-3.3-1-5.5-4.1-6.7-3.5-1.3-7.1-1.5-10.2.9-2.2 1.5-4.2 3.2-5.9 5.1-3.5 4-6.2 8.5-8.2 13.4-.4 1-.9 2-1.4 3.1-.1.3-.4.4-.7.3-3-1.9-4.6-5.6-5.5-8.9-1-4 .7-7.7 1.2-11.6.2-1.2 0-2.5-1.5-2.9-3.5-1-4.3 6.9-4.8 9.1-2.1 9-5.6 17.4-9 26l-4.7 11.8c-1.8 4.7-3.6 9.2-8.1 11.8-4.2 2.4-7.2-2.1-7.6-5.8-.6-5.1.7-11.3 2.1-16.1 3.3-11.2 7.2-22.2 10.9-33.3.5-1.6 1.7-3.4-.4-4.4-1.9-.9-3 .8-3.9 2.2l-.4.7c-1.9 3.2-4.6 5.8-7.8 7.7-2.8 1.7-5.6 3.4-9 3.8-.2 0-.5-.1-.6-.3-.9-2.2-1.6-4.1-2.5-6.1-2.9-6.9-8.1-9.1-15-6.5-4.6 1.7-8.6 4.9-11.4 8.9l-10.3 14c-1.7 2.5-4.1 4.4-6.9 5.5-3.4 1.4-8 1.5-11-1.6-2.6-2.7-2.1-7.8 2.3-8.4 1.6-.2 3.7.1 4.5-1.7.8-1.7-.7-3.9-2.2-4.5-2.1-.9-4.5-.1-6.3 1.2-3.8 2.9-5.3 7.9-3.9 12.4 2.3 6.9 10.5 9.1 16.9 6.9 3.7-1.2 6.9-3.4 9.3-6.5.4-.4 1-.5 1.4-.1.3.2.4.6.4.9 0 .1 0 .2-.1.3-2.1 7.7-2.9 16.1-.3 23.7.7 2.4 2 4.6 3.6 6.5 1.7 1.9 4.1 3 6.6 3.1 2.7 0 5.2-1.4 7.3-3.1 7.7-6.2 13.3-19.5 15.2-29 .7-3.5.6-9 3.9-11.3s7.8-2.4 11.3-4.4c.2-.2.6-.1.7.2.1.1.1.3.1.4-.5 1.7-.9 3.9-1.3 4.9-.7 2-1.4 4-2.1 6.1-1.5 4.9-2.8 9.9-4 14.9-1.4 6.2-2.8 12.7.3 18.7.8 1.7 2 3.1 3.5 4.1 2.8 1.6 6.6.9 9.2-.9s4.5-4.8 6.1-7.6c3.1-5.7 5.8-11.7 8.1-17.8.5-1.2 6.8-16.1 6.5-16.5.5.3 1 .7 1.4 1.2 1.6 2.4 3.1 4.8 5.6 6.3 1.1.7.9 1.8.7 2.9l-1.5 6.3c-.9 4.2-.7 8.6.7 12.6.8 2.6 2.5 4.9 4.8 6.4 4 2.3 10.3 1.3 14.1-1.3 10-6.8 16.6-16.6 23-26.6 3.3-5.1 6-10.5 8-16.2.5-1.4 1.7-2.4 3.2-2.5 2.7-.5 5.3-1.2 8-1.8 1.6-.3 3.2-.5 5.2-.9zM398.4 178.7c.1-.2.2-.3.3-.4.2-.1.5-.1.7 0 1.8.4 3.6.6 5.4.6 5.8-.2 11.3-2.7 15.4-6.8 3.6-3.8 8.2-11.8 5.2-17-.8-1.3-2.1-2.4-3.5-3-9.1-4.1-18.6 4.5-22.7 11.9-3.5 6.4-5.3 13.7-6.8 20.8-.9 4.9-2 11.4.8 15.9 2.6 4 7.5 5.7 12 4.3 11.6-3.4 17.2-16.8 22.7-26.3 3.9-6.7 7.6-13.7 12.1-20.1 1.1-1.7 2.4-3.2 4-4.4 1.1-.8 2.5-1.4 3.7-.9 1 .4 1.6 1.3 1.8 2.4.9 4.4-1.8 9.5-3.7 13.3-3.1 6.2-5.8 12.7-8.6 19.1-1.8 4-3.5 8.1-5.2 12.1-.4.9-.8 2.1-.2 2.9.7.7 1.9.8 2.7.1 1.4-1.1 2.2-3.4 2.9-5l3-6.2 6.1-12.5c3.1-6.4 7.4-12.5 11.5-18.4 1.6-2.2 3.3-4.4 5.1-6.4 1.8-2.1 4.3-3.5 7.1-4 2.6-.5 3.8.3 4.3 2.9.3 1 .4 2.1.2 3.2-.9 3.5-2 6.9-3.3 10.2-3 6.9-7 13.5-9.3 20.7-1.4 4.3-2.8 10.9 1.6 14 2 1.2 4.4 1.4 6.6.6 7-2.2 12.6-9 16.7-14.7 4.4-6 8.1-12.4 12.6-18.3.8-1 1.6-2 2.4-2.9.1-.1.2-.2.3-.2.2 0 .4.2.5.4.9 1.7 1.7 3.5 2.5 5.3.6 1.6 1.9 3.7 1.4 5.4-.2.7-.6 1.3-1.1 1.9l-8.2 10.8c-3.3 4.4-7.8 9.9-6.3 15.7 1.5 6.2 9 10 15 9.3 10.5-1.2 13.7-13.3 11.3-22.1-.7-2.6-1.5-5.2-2.3-7.7-.8-2.2-2.4-4.7-2.1-7.2.2-1.7 1.6-3.1 2.9-4.2 2.5-2 4.9-4.4 6.9-6.9 2.6-3.1 4.9-6.3 7.3-9.5 4.7-6.2 8.2-13.1 10.4-20.6.6-2 1-4 1.4-6 2.4-13.4-6.2-28.7-18.5-34.5-6.9-3.2-14.7-3.4-22.1-2.6-12.9 1.4-25.1 10.8-28.9 23.2-2 6.4-1.1 14.7 4.4 19.1 2.5 2 6.2 3.5 9.4 2.9 2.7-.5 6-2.2 6.6-5 .3-1.6-.5-3.3-2-3.9-3.3-1.3-4.4 2.8-6.8 3.9-2.9 1.3-5.6-2-7-4.2-1.6-2.7-2.1-5.9-1.3-9 1.6-6.5 4.7-12.8 10.2-16.9 6.2-4.6 14.6-6.8 22.2-6.7 8 .1 15.7 2.4 21.2 8.5 5.3 5.9 10.6 14 9.4 22.3-.9 6.5-2.9 12.8-5.8 18.7-4.3 8.2-10.4 15.1-16.4 22.1-1.6 1.7-3.3 3.2-5.2 4.5-.1.2-.3.2-.5.1-.1-.1-.2-.2-.2-.3-.9-2-2-3.9-2.7-6-.6-1.8-2.1-4.3-1.5-6.2.5-1.7 2-3.4 2.9-4.9 2.5-4.2 4.7-8.5 6.8-12.9.5-1.2.8-2.5.8-3.8.4-2.3-.8-4.6-2.9-5.7-3.7-2-7.5-2.3-11.3-.2-4.6 2.6-6.3 6.6-5.3 12.9.7 4.3 1.7 8.7 2.9 12.9.5 1.7.1 3.6-.9 5-4.6 6.2-8.8 12.7-13.5 18.8-2.6 3.3-5.3 6.5-8.2 9.5-2.5 2.7-4.9 5.3-8.6 6.5-.9.3-1.8.4-2.7.1-.6-.3-1.2-.9-1.4-1.5-1.6-3.3.3-6.8 1.6-9.8 1.5-3.5 3.1-6.9 4.6-10.3 2.5-5.5 5.2-10.9 6.5-16.8 1.1-4.8 1.9-12.2-4.6-13.2-2.7-.4-5.4.5-7.7 1.8s-4.4 2.8-6.2 4.7l-4.3 5.2c-.1.2-.3.3-.5.4-.2.1-.5 0-.6-.1-.1-.1-.1-.3-.1-.4-.5-4.4-1.2-9.8-7-9.2-1.9.2-3.6 1-5.1 2.2-3.1 2.3-4.8 5.2-6.7 8.5l-6.5 10.9-8.5 14.2c-3.4 5.7-6.8 11.8-13 14.9-1.5.8-3.1 1.2-4.8 1.2-3.8-.1-6.2-3.4-6.4-6.9-.4-5.3 1.2-10.4 2.6-15.4.1-.6.1-.7.1-.7zM494.3 67.5c.9-1.4-.4-3-1.6-3.9-6.6-5.2-14.8-7.6-22.9-9.2-17.5-3.4-37.3-2.2-53.8 4.8-11.7 5-22 13.1-32.3 20.4-6.2 4.4-12.4 8.8-18.9 12.9-5.9 3.6-12.2 7.8-19.2 8.9-10.8 1.6-23.3-3.5-28.9-13.1-6-10.2-4.1-24.7 2.4-34.2s18.5-16.8 30.1-13c10.7 3.5 13.4 17.6 6.4 25.9-2.2 2.5-6 3.1-8.8 1.2-1.5-.9-2.5-2.6-2.6-4.4-.1-1.1.8-2.1 1.9-2.2.3 0 .5 0 .8.1 2 .5 5.6 1.5 6.1-1.6.1-1.5-.7-2.9-2-3.7-1.3-.7-2.8-1-4.2-.9-1.7-.1-3.3.3-4.7 1.3-1.8 1.4-2.3 3.8-2.4 6 0 6 4.9 11 10.9 11 2.5 0 4.8-.8 6.8-2.3 4.2-3.1 6.9-7.9 7.3-13.1.4-2.2.4-4.5 0-6.7-1.9-8.8-9.7-16.3-18.8-16.3-12.8 0-25.1 7.9-31.5 18.8-6.8 11.6-8.2 30.4 1.8 40.8 6.1 6.2 14.3 9.8 23 10.1 9.4.3 16.7-3.8 24.4-8.5 9.8-5.9 19.3-12.6 28.5-19.1 8.7-6.2 17.1-11.8 27.2-15.6 16.3-6 34-7.2 51-3.5 6.8 1.4 13.7 3.6 19 8.2.7.7 1.5 1.3 2.4 1.7.9.2 1.9-.1 2.6-.8zM244.1 283.4c.1-.2.1-.4 0-.6-.1-.3-.4-.5-.6-.6-12-6.5-21.2-17.3-25.8-30.2-5-14.1-3.3-28.6.9-42.6 3.7-12.9 9.8-25.1 18-35.8 8.5-10.9 20.7-21.5 34.7-24 1.5-.3 3.8-.5 4.5-2.1.2-.5-.1-1.1-.6-1.3-.1 0-.1 0-.2-.1-3.3-.7-7 .6-10.1 1.6-7.5 2.4-14 6.8-19.9 11.7-6.1 5.2-11.4 11.3-15.7 18.1-4.5 6.7-8.3 14-11.2 21.5-5.8 15.9-10.6 33.5-6 50.3 3.4 12.4 10.7 23.3 20.8 31.2 2.3 1.8 4.9 3.1 7.7 3.9 1.2.6 2.8.3 3.5-1zM205.7 464.3c.3-.3.2-.8-.1-1.1l-1.4-1c-18.6-15.1-23.2-41.1-23.6-63.9-.4-23 11.9-49.9 31.6-62.4 6-3.8 11.8-7.4 18.8-9.3.7-.1 1.4-.4 2-.8-2-4.5-12 1.4-14.7 2.8-5.2 2.5-10 5.7-14.4 9.4-28 23.6-33.3 65.2-22.2 98.5l.2.6c3.1 9.3 8.4 17.7 15.4 24.6 1.5 1.4 3.1 2.5 4.9 3.5 1 .6 2.2.7 3.5-.9zM344.3 463.6c-.2.1-.4.2-.5.4-4.7 5.4-6.5 13.1-7.4 20.1-.8 6.6-.5 13.2.9 19.7 2.8 13.1 9.5 25.4 18.5 35.3 8 9 17.9 16 29 20.7 8 3.2 17.4 6.5 26 4.2.7-.1 1.4-.5 1.8-1.2.4-.6.2-1.4-.4-1.7l-.2-.1c-.3 0-.6 0-.9.1-4.8 1.3-9.8.3-14.5-.9-22.7-6-43.5-25.6-51.8-47.3-1.3-3.1-2.2-6.3-2.9-9.5-2.4-12.6-1.2-25.6 3.5-37.5.3-.8 0-1.6-.6-2.1-.1-.2-.3-.3-.5-.2zM620.9 281c-.3.2-.5.6-.4.9.1 15.3-3.7 28.9-10.5 42.6-7.1 13.3-17 25-28 35.3-4.2 4-8.7 7.7-13.6 10.9-5.1 3.3-10.6 5.2-16.1 7.6-.6.2-1.1.5-1.5.9-.4.4-.6 1-.4 1.6.4.6 1.1 1 1.9.9 1.8 0 3.6-.4 5.3-1.1 13-4.9 23.9-14.1 33.5-24 8.4-8.6 16.1-18 21.9-28.5 5.9-10.5 9.9-22.1 10.7-34.1.3-3.9.7-9.2-1.9-12.5-.2-.3-.5-.5-.9-.5zM289.9 41.1c0-.1 0-.2-.1-.3-.4-.5-1.1-.5-1.6-.1-11 6.8-15.7 17.3-17.4 28.4-1.8 11.5-.9 23.7 3.7 34.7 3.6 8.7 10.3 19.2 20.8 22.1 1 .3 2.3.1 2.7-.9.2-.6.1-1.3-.4-1.7-.4-.5-.9-.8-1.5-1.1-16.8-10.3-24.6-30.6-21.6-49.8.9-5.8 2.7-11.4 5.4-16.6 1.3-2.5 2.8-4.9 4.6-7.2 1.6-2.1 4.6-4.2 5.2-6.9.2-.3.2-.4.2-.6zM498.7 81c.1-1.1-2.1-1.7-7.7-1.4-2.3.2-4.6.7-6.8 1.4-4.4 1.2-8.7 3-12.7 5.2-8 4.4-14.8 10.5-20.2 17.9-2.1 2.9-4 6-5.6 9.2-1.5 3-5.8 10.6-2.9 13.9.7.8 2 1 2.8.3.1-.1.2-.2.3-.4.5-.9.7-1.8.7-2.8.8-8.3 6.4-17.1 11.7-23.2 9.7-11.1 24.7-17.6 39.2-19.2.5-.2 1-.5 1.2-.9zM228.7 308.8c.1-.1.2-.3.2-.4-.1-.3-.2-.5-.5-.6-3.5-2.3-7.6-4.3-10.9-7.1-2.6-2.3-4.7-5-6.4-8-.9-1.6-2.4-6.8-4.6-6.9-1 .1-1.8.8-1.9 1.8-.1 1 .1 1.9.6 2.8 3.6 8.5 10.8 17.1 20.1 19.3 1.2.3 2.5 0 3.4-.9zM325 461.8c-.1-.4-.6-.7-1-.6-.1 0-.1 0-.2.1l-1.7.7-8.7 3.2c-3.3 1.2-6.9 1.4-10.3.6-2.6-.6-6.2-3.3-8.9-2.8-.2 0-.4.1-.6.3-.2.5 0 1 .4 1.3 4.1 4.3 9.6 5.6 15.4 4.8 5.4-.8 10.5-3.3 15-6.4.5-.2.7-.7.6-1.2zM575.5 389.8c0-.1.1-.2.1-.2.2-1.2-1.9-.9-2.5-.8-4.6 1.1-9.4 2.6-14.2 3.4-2.5.4-5 .6-7.5.6-1.8-.1-4-1.2-5.6.1-.1.1-.3.2-.3.4 0 .3.1.5.3.7 1.4 1.3 3.2 2 5 2 4.3.1 8.6-.5 12.7-1.6 3.6-.9 7.7-1.7 11-3.5.5-.4.8-.7 1-1.1zM515.1 375.1c-2.3 1.5-4.8 3.1-7.2 4.8-8.5 6-16.9 12-22.8 20.8-3.8 5.5-7.2 11.3-9.2 17.7-1 3.2-1.5 6.5-1.4 9.8.1 5.9 3.1 10.3 7.8 13.7 5.5 4 11.5 6.1 18.4 5.6 4.1-.3 7.8-1.5 10.7-4.3 5.6-5.5 9.5-12 10.9-20 1.7-8.9 1.9-18 .8-27-1-7.3-3.9-13.9-7-20.5 0 .1-.4-.9-1-.6zm-215 71c2.2 1.7 5 2.5 7.7 2.2 11.1-.4 22-3.1 31.9-8.1 11.4-5.8 20.7-14.1 29.3-23.1.7-.9 1.3-1.8 1.9-2.7-.6-.2-1.2-.4-1.8-.5-5.6-.7-11.3-1.5-17-2.1-8.9-1.1-17.9-1-26.7.3-5.7.8-11.2 2.5-16.3 4.9-4.3 2.1-8.3 4.7-12 7.7-6.5 5-5.4 16.2.6 20.1l2.4 1.3zm103.3-27.8c.3.3.7.6 1.1.9 9.4 2.8 18.8 6.1 28.6 7.3 5.6.7 10.9-1.1 15.7-3.9 3.8-2.3 3.7-6.6-.2-8.9-1.9-1.2-4-2.2-6.1-2.8-11.4-3.2-22.3-1.4-32.8 3.9-2.1 1-4.1 2.3-6.3 3.5zm67.6-66.3c.2 0 .5-.1.6-.3 4-6.3 7.2-13.4 10.2-20.2 2.8-6.3 5.6-12.7 8.3-19.1 2.5-6 6.4-12.5 6.2-19.2 0-.9-.3-2-1.1-2.2-.4-.1-.9-.1-1.3.1-2 .7-3.8 1.9-5.2 3.5-5.3 6.4-8.5 14-10.7 22-1.5 5.6-2.7 11.3-3.9 17.1-1.2 5.9-2.2 11.8-3.3 17.7 0 .1-.1.3 0 .4l.2.2zm-26.5 1.5c3.5 0 6.1-1.1 8.2-3.9 2.5-3.2 4.2-7 4.9-10.9.4-2.2.2-4.1-1.6-5.5-1.7-1.4-3.8-1.3-5.7-.5-5.3 2.2-8.7 6.6-12.1 11-1.9 2.5-2.7 5.4.1 7.6 1.8 1.5 3.9 2.3 6.2 2.2zm63-11.5c.2.2.4.3.7.2.2-.1.4-.3.5-.5 4.6-7 8.6-14.3 12-21.9 1-1.8.3-4.1-1.5-5.1-.8-.4-1.7-.6-2.6-.4-2.1.3-3.8 1.8-5.1 3.4-2.8 3.4-4.6 7.5-5.2 11.9-.5 3.4-.7 9.1 1.1 12.1 0 .2 0 .3.1.3zM343.8 203.2c.7 3.7 7.6 2.7 10.7 2.2 5.2-.9 10.1-3.2 14.3-6.6 6.6-5.4 11.2-13 14.2-21 3.2-8.5 4.9-17.9 3.3-26.9-1.7-9-7-17.6-15.1-21.8-.8-.8-2-.8-2.8 0-.2.2-.3.4-.4.7-2.3 3.9-4.2 8-5.8 12.2-7.6 19.2-13.3 39.2-18.3 59.3-.2.7-.2 1.3-.1 1.9zM288.1 392c1.4.7 2.9 1.2 4.4 1.7 5.6 1.3 11.5.8 16.8-1.6 12.1-5.2 21.2-13.9 27.8-25.3 2.5-4.3 3.5-9 4.4-13.9 1.9-10.3 1.6-20.2-1.7-30.3-2.5-7.5-7-13.1-12.7-18.2-.6-.4-1.3-.8-2-1.1-.3.1-.6.3-.8.5-5.9 8.7-10.7 18.1-14.4 27.9-4.7 12.4-9.1 24.8-13.6 37.3-2.6 7.5-5.3 15-8.2 23zm71.4-92.1c-4.5 0-8 1.2-10.5 3.8-3.6 3.8-2.5 8.2 2.7 9.3 7.9 1.8 13.1-2 14.8-9.5.4-1.9-.1-2.6-2-3-1.6-.4-3.3-.5-5-.6zM403 236.1c.1-.3.1-.5.1-.8-.1-.9-.7-1.7-1.6-2.1-5-2.5-10.7 2.9-13.2 6.7-4 6.2-6.8 13.2-8 20.5-1.3 7.1-2.4 15 2 21.3.8 1.3 1.9 2.2 3.3 2.8 1.5.3 3 .1 4.3-.7 2.4-1.3 4.1-3.6 5.6-6 2.8-4.7 5.1-9.7 6.7-14.9.9-2.6 1.6-5.3 2.4-8 .6-2.3 2.1-5.3 1.4-7.8-.4-1.4-1.5-2.4-2.2-3.6-1.2-2-1.5-4.3-.9-6.5 0-.4.1-.6.1-.9zM465.8 251.6c-.1.4 0 .8.4.9h.2c2.6.4 5.2.1 7.6-.7 5.1-2 8.7-5.8 11.3-10.5 1.1-1.8 1.8-3.8 2-5.9.3-7-9.1-2.6-11.6-.2-3.1 3-5.5 6.6-7.3 10.5l-2.6 5.9zM505.2 232.4h.4c.6-.2 1-.7 1.2-1.3.7-2.3 1.6-4.7.9-7.1-.2-.9-.9-1.7-1.8-2.1-.7-.2-1.4-.1-2 .2-1.3.6-2.4 1.7-2.9 3s-.6 2.8-.2 4.2c.1.7.5 1.3.9 1.9.8.7 1.8 1.1 2.9 1.2h.6zM508.9 181.9c-.4-.2-.9.1-1.7 1l-6.6 8.8c-3.3 4.4-9 11.6-3.8 16.7 1.4 1.3 3.2 2.2 5 2.7 1.7.6 3.6.7 5.4.3 2.7-.7 4.7-3.1 5.6-5.7 1.6-4.5 1.3-9.3.1-13.9-.6-2.3-1.4-4.6-2.3-6.8-.6-1.2-1-2.8-1.7-3.1zM404.9 175.2c8.7-.6 15.6-5.8 17-15.1.4-2.5-.7-4.1-3.3-4.6-2.6-.5-5.3.1-7.5 1.5-5.7 3.3-8.9 8.5-10.5 14.6-.6 2.1 0 2.8 2.1 3.3.7.2 1.5.3 2.2.3zM504.3 155.6c0 .2.2.3.4.2 0 0 .1 0 .1-.1.7-.7 1.5-1.4 2.1-2.2.9-1.3 1.6-2.6 2.3-4 .9-2 1.7-4 2.5-6.1.6-1.6 1.9-3.6 1.3-5.3-1.3-3.8-8-2.7-9.9-.2-.7 1-1.1 2.2-1.2 3.5-.2 2.6 0 5.2.6 7.8.5 2.2 1.2 4.3 1.8 6.4z"/></svg>