<?xml version="1.0" encoding="UTF-8"?>
<svg width="800px" height="600px" viewBox="0 0 800 600" version="1.1" xmlns="http://www.w3.org/2000/svg" xmlns:xlink="http://www.w3.org/1999/xlink">
    <!-- Generator: Sketch 42 (36781) - http://www.bohemiancoding.com/sketch -->
    <title>Group-2</title>
    <desc>Created with Sketch.</desc>
    <defs>
        <rect id="path-1" x="-5.68434189e-14" y="0" width="800" height="600"></rect>
    </defs>
    <g id="Page-1" stroke="none" stroke-width="1" fill="none" fill-rule="evenodd">
        <g id="ps-cont">
            <g id="Page-1">
                <g id="ps-cont">
                    <g id="Page-1">
                        <g id="Group-2">
                            <g id="Group">
                                <mask id="mask-2" fill="white">
                                    <use xlink:href="#path-1"></use>
                                </mask>
                                <use id="Mask" fill="#009FD6" fill-rule="nonzero" xlink:href="#path-1"></use>
                                <g mask="url(#mask-2)">
                                    <g transform="translate(-324.000000, 154.000000)">
                                        <g id="Group-2" stroke="none" stroke-width="1" fill-rule="evenodd" transform="translate(620.211429, 43.576419)">
                                            <path d="M14.3565363,155.112741 C5.62467694,140.000275 0.703083977,122.660708 0.703083977,104.048513 C0.703083977,46.9392989 47.6963578,0.647428959 105.644147,0.647428959 C163.591933,0.647428959 210.58521,46.9392989 210.58521,104.048513 C210.58521,161.157727 163.591933,207.449597 105.644147,207.449597 C82.6237925,207.449597 61.1910488,200.131982 43.8860941,187.723852" id="Shape" stroke="#FFFFFF" stroke-width="2"></path>
                                            <ellipse id="Oval" stroke="#FFFFFF" stroke-width="2" cx="105.009102" cy="41.7077667" rx="29.2120354" ry="27.3615175"></ellipse>
                                            <polygon id="Shape" stroke="#FFFFFF" stroke-width="2" points="105.009102 19.5777814 123.266624 50.2799495 88.8154734 50.2799495"></polygon>
                                            <ellipse id="Oval" stroke="#FFFFFF" stroke-width="2" cx="41.3459156" cy="100.707863" rx="29.2120354" ry="27.3615175"></ellipse>
                                            <rect id="Rectangle-path" stroke="#FFFFFF" stroke-width="2" x="26.1048554" y="85.1181608" width="30.958407" height="28.9523034"></rect>
                                            <ellipse id="Oval" stroke="#FFFFFF" stroke-width="2" cx="172.482554" cy="99.1170768" rx="29.2120354" ry="27.3615175"></ellipse>
                                            <ellipse id="Oval" stroke="#FFFFFF" stroke-width="2" cx="172.958838" cy="98.1626053" rx="18.7338053" ry="19.4075881"></ellipse>
                                            <ellipse id="Oval" stroke="#FFFFFF" stroke-width="2" cx="108.501845" cy="163.06667" rx="29.2120354" ry="27.3615175"></ellipse>
                                            <path d="M123.266624,147.476968 L94.3721116,177.7019" id="Shape" stroke="#FFFFFF" stroke-width="2"></path>
                                            <path d="M92.3082172,149.54499 L123.266624,177.7019" id="Shape" stroke="#FFFFFF" stroke-width="2"></path>
                                        </g>
                                        <path d="M590.749912,25.7707316 L651.237877,25.7707316 C651.237877,25.7707316 654.095575,26.407046 661.874867,17.9758808 C669.654158,9.54471546 752.686193,4.61327914 769.673628,21.7937669 C786.502302,39.1333334 811.90407,75.0850948 811.90407,75.0850948 C811.90407,75.0850948 826.668849,101.173984 840.798583,147.465854 C854.928319,193.757724 884.457877,332.792411 884.457877,332.792411 C884.457877,332.792411 897.158761,406.127641 895.729912,454.96477 C894.301063,503.801896 888.744425,512.073985 888.744425,512.073985 C888.744425,512.073985 886.68053,545.321408 843.656284,573.478319 C800.632035,601.63523 759.830442,573.478319 759.830442,573.478319 C759.830442,573.478319 726.014337,545.957724 706.327965,495.847966 C706.327965,495.847966 689.499291,459.896206 676.798407,418.853929 C664.097523,377.970733 665.526372,382.106776 665.526372,382.106776 C665.526372,382.106776 659.652214,361.426558 645.046193,358.085908 C635.838053,356.017886 606.94354,397.537399 532.325842,353.790785 L385.789379,354.108942" id="Shape" stroke="#FFFFFF" stroke-width="2"></path>
                                        <path d="M666.002656,15.7487805 L666.002656,10.3401084 C730.142123,-15.7487805 771.737523,16.703252 771.737523,16.703252 L771.737523,24.3390244" id="Shape" stroke="#FFFFFF" stroke-width="2"></path>
                                        <path d="M643.458583,69.99458 C643.458583,77.6303524 637.266902,83.8344175 629.646372,83.8344175 L629.646372,83.8344175 C622.025842,83.8344175 615.834158,77.6303524 615.834158,69.99458 L615.834158,49.4734417 C615.834158,41.8376693 622.025842,35.6336043 629.646372,35.6336043 L629.646372,35.6336043 C637.266902,35.6336043 643.458583,41.8376693 643.458583,49.4734417 L643.458583,69.99458 Z" id="Shape" stroke="#FFFFFF" stroke-width="2"></path>
                                        <ellipse id="Oval" stroke="#FFFFFF" stroke-width="2" cx="592.337523" cy="263.275068" rx="79.2217698" ry="76.5168022"></ellipse>
                                        <ellipse id="Oval" stroke="#FFFFFF" stroke-width="2" cx="592.813807" cy="253.094038" rx="51.1210621" ry="51.2233062"></ellipse>
                                        <ellipse id="Oval" stroke="#FFFFFF" stroke-width="2" cx="593.448849" cy="250.707859" rx="34.2923894" ry="34.3609755"></ellipse>
                                        <path d="M306.091327,25.7707316 L245.603363,25.7707316 C245.603363,25.7707316 242.745664,26.407046 234.966372,17.9758808 C227.18708,9.54471546 144.155044,4.61327914 127.167611,21.7937669 C110.180177,38.9742546 84.9371681,75.0850948 84.9371681,75.0850948 C84.9371681,75.0850948 70.1723894,101.173984 56.0426548,147.465854 C41.9129204,193.757724 12.3833628,332.792411 12.3833628,332.792411 C12.3833628,332.792411 -0.317522123,406.127641 1.11132743,454.96477 C2.54017699,503.642819 8.09681417,512.073985 8.09681417,512.073985 C8.09681417,512.073985 10.160708,545.321408 53.1849558,573.478319 C96.2092035,601.63523 137.010796,573.478319 137.010796,573.478319 C137.010796,573.478319 170.826903,545.957724 190.513274,495.847966 C190.513274,495.847966 207.341947,459.896206 220.042832,418.853929 C232.743717,377.970733 231.314867,382.106776 231.314867,382.106776 C231.314867,382.106776 237.189027,361.426558 251.795044,358.085908 C261.003186,356.017886 289.897698,397.537399 364.515397,353.790785 L511.051859,354.108942" id="Shape" stroke="#FFFFFF" stroke-width="2"></path>
                                        <ellipse id="Oval" stroke="#FFFFFF" stroke-width="2" cx="304.662477" cy="263.275068" rx="79.2217698" ry="76.5168022"></ellipse>
                                        <ellipse id="Oval" stroke="#FFFFFF" stroke-width="2" cx="304.186193" cy="253.094038" rx="51.1210621" ry="51.2233062"></ellipse>
                                        <ellipse id="Oval" stroke="#FFFFFF" stroke-width="2" cx="303.551151" cy="250.707859" rx="34.2923894" ry="34.3609755"></ellipse>
                                        <path d="M318.157168,179.281572 L582.335575,179.281572 C599.958053,171.168564 597.100354,156.374255 597.100354,156.374255 L597.100354,52.9731708 L597.100354,35.6336043 C597.259116,30.3840108 593.448849,29.2704607 593.448849,29.2704607 C593.448849,29.2704607 591.384955,24.9753387 587.574691,24.1799458 L347.210442,24.1799458" id="Shape" stroke="#FFFFFF" stroke-width="2"></path>
                                        <path d="M578.842832,179.281572 L314.823186,179.281572 C297.200709,171.168564 300.058407,156.374255 300.058407,156.374255 L300.058407,52.9731708 L300.058407,35.6336043 C299.899646,30.3840108 303.709912,29.2704607 303.709912,29.2704607 C303.709912,29.2704607 305.773807,24.9753387 309.58407,24.1799458 L549.948319,24.1799458" id="Shape" stroke="#FFFFFF" stroke-width="2"></path>
                                        <ellipse id="Oval" stroke="#FFFFFF" stroke-width="2" cx="480.093452" cy="199.007317" rx="3.17522123" ry="3.3406504"></ellipse>
                                        <ellipse id="Oval" stroke="#FFFFFF" stroke-width="2" cx="472.631681" cy="210.620054" rx="3.17522123" ry="3.3406504"></ellipse>
                                        <ellipse id="Oval" stroke="#FFFFFF" stroke-width="2" cx="464.693628" cy="223.028184" rx="3.17522123" ry="3.3406504"></ellipse>
                                        <ellipse id="Oval" stroke="#FFFFFF" stroke-width="2" cx="456.12053" cy="210.620054" rx="3.17522123" ry="3.3406504"></ellipse>
                                        <ellipse id="Oval" stroke="#FFFFFF" stroke-width="2" cx="464.693628" cy="199.007317" rx="3.17522123" ry="3.3406504"></ellipse>
                                        <ellipse id="Oval" stroke="#FFFFFF" stroke-width="2" cx="447.864955" cy="223.028184" rx="3.17522123" ry="3.3406504"></ellipse>
                                        <ellipse id="Oval" stroke="#FFFFFF" stroke-width="2" cx="439.133098" cy="210.620054" rx="3.17522123" ry="3.3406504"></ellipse>
                                        <ellipse id="Oval" stroke="#FFFFFF" stroke-width="2" cx="447.864955" cy="199.007317" rx="3.17522123" ry="3.3406504"></ellipse>
                                        <ellipse id="Oval" stroke="#FFFFFF" stroke-width="2" cx="423.415751" cy="210.620054" rx="3.17522123" ry="3.3406504"></ellipse>
                                        <ellipse id="Oval" stroke="#FFFFFF" stroke-width="2" cx="432.147611" cy="199.007317" rx="3.17522123" ry="3.3406504"></ellipse>
                                        <ellipse id="Oval" stroke="#FFFFFF" stroke-width="2" cx="415.953982" cy="199.007317" rx="3.17522123" ry="3.3406504"></ellipse>
                                        <ellipse id="Oval" stroke="#FFFFFF" stroke-width="2" cx="430.877523" cy="223.028184" rx="3.17522123" ry="3.3406504"></ellipse>
                                        <ellipse id="Oval" stroke="#FFFFFF" stroke-width="2" cx="447.864955" cy="274.092411" rx="23.020354" ry="23.0663957"></ellipse>
                                        <ellipse id="Oval" stroke="#FFFFFF" stroke-width="2" cx="477.553274" cy="342.496206" rx="10.319469" ry="4.13604337"></ellipse>
                                        <path d="M453.10407,342.018969 L413.096284,342.018969" id="Shape" stroke="#FFFFFF" stroke-width="2"></path>
                                        <path d="M718.870088,522.573172 C718.870088,522.573172 825.398761,572.842006 895.729912,445.897291" id="Shape" stroke="#FFFFFF" stroke-width="2"></path>
                                    </g>
                                </g>
                            </g>
                        </g>
                    </g>
                </g>
            </g>
        </g>
    </g>
</svg>