<?xml version="1.0" encoding="UTF-8"?>
<svg width="1125px" height="741px" viewBox="0 0 1125 741" version="1.1" xmlns="http://www.w3.org/2000/svg" xmlns:xlink="http://www.w3.org/1999/xlink">
    <!-- Generator: Sketch 42 (36781) - http://www.bohemiancoding.com/sketch -->
    <title>ps-cont</title>
    <desc>Created with Sketch.</desc>
    <defs></defs>
    <g id="Page-1" stroke="none" stroke-width="1" fill="none" fill-rule="evenodd">
        <g id="ps-cont" transform="translate(1.000000, 0.000000)">
            <g id="Page-1">
                <g id="Group-2">
                    <rect id="Rectangle" fill="#009FD6" fill-rule="nonzero" x="324" y="0" width="800" height="600"></rect>
                    <g id="Group" transform="translate(0.000000, 154.000000)" stroke="#FFFFFF" stroke-width="2">
                        <g id="Group-2" transform="translate(620.211429, 43.576419)">
                            <path d="M14.3565363,155.112741 C5.62467694,140.000275 0.703083977,122.660708 0.703083977,104.048513 C0.703083977,46.9392989 47.6963578,0.647428959 105.644147,0.647428959 C163.591933,0.647428959 210.58521,46.9392989 210.58521,104.048513 C210.58521,161.157727 163.591933,207.449597 105.644147,207.449597 C82.6237925,207.449597 61.1910488,200.131982 43.8860941,187.723852" id="Shape"></path>
                            <ellipse id="Oval" cx="105.009102" cy="41.7077667" rx="29.2120354" ry="27.3615175"></ellipse>
                            <polygon id="Shape" points="105.009102 19.5777814 123.266624 50.2799495 88.8154734 50.2799495"></polygon>
                            <ellipse id="Oval" cx="41.3459156" cy="100.707863" rx="29.2120354" ry="27.3615175"></ellipse>
                            <rect id="Rectangle-path" x="26.1048554" y="85.1181608" width="30.958407" height="28.9523034"></rect>
                            <ellipse id="Oval" cx="172.482554" cy="99.1170768" rx="29.2120354" ry="27.3615175"></ellipse>
                            <ellipse id="Oval" cx="172.958838" cy="98.1626053" rx="18.7338053" ry="19.4075881"></ellipse>
                            <ellipse id="Oval" cx="108.501845" cy="163.06667" rx="29.2120354" ry="27.3615175"></ellipse>
                            <path d="M123.266624,147.476968 L94.3721116,177.7019" id="Shape"></path>
                            <path d="M92.3082172,149.54499 L123.266624,177.7019" id="Shape"></path>
                        </g>
                        <path d="M590.749912,25.7707316 L651.237877,25.7707316 C651.237877,25.7707316 654.095575,26.407046 661.874867,17.9758808 C669.654158,9.54471546 752.686193,4.61327914 769.673628,21.7937669 C786.502302,39.1333334 811.90407,75.0850948 811.90407,75.0850948 C811.90407,75.0850948 826.668849,101.173984 840.798583,147.465854 C854.928319,193.757724 884.457877,332.792411 884.457877,332.792411 C884.457877,332.792411 897.158761,406.127641 895.729912,454.96477 C894.301063,503.801896 888.744425,512.073985 888.744425,512.073985 C888.744425,512.073985 886.68053,545.321408 843.656284,573.478319 C800.632035,601.63523 759.830442,573.478319 759.830442,573.478319 C759.830442,573.478319 726.014337,545.957724 706.327965,495.847966 C706.327965,495.847966 689.499291,459.896206 676.798407,418.853929 C664.097523,377.970733 665.526372,382.106776 665.526372,382.106776 C665.526372,382.106776 659.652214,361.426558 645.046193,358.085908 C635.838053,356.017886 606.94354,397.537399 532.325842,353.790785 L385.789379,354.108942" id="Shape"></path>
                        <path d="M666.002656,15.7487805 L666.002656,10.3401084 C730.142123,-15.7487805 771.737523,16.703252 771.737523,16.703252 L771.737523,24.3390244" id="Shape"></path>
                        <path d="M643.458583,69.99458 C643.458583,77.6303524 637.266902,83.8344175 629.646372,83.8344175 L629.646372,83.8344175 C622.025842,83.8344175 615.834158,77.6303524 615.834158,69.99458 L615.834158,49.4734417 C615.834158,41.8376693 622.025842,35.6336043 629.646372,35.6336043 L629.646372,35.6336043 C637.266902,35.6336043 643.458583,41.8376693 643.458583,49.4734417 L643.458583,69.99458 Z" id="Shape"></path>
                        <ellipse id="Oval" cx="592.337523" cy="263.275068" rx="79.2217698" ry="76.5168022"></ellipse>
                        <ellipse id="Oval" cx="592.813807" cy="253.094038" rx="51.1210621" ry="51.2233062"></ellipse>
                        <ellipse id="Oval" cx="593.448849" cy="250.707859" rx="34.2923894" ry="34.3609755"></ellipse>
                        <path d="M262.273274,198.68916 C271.005133,183.576694 275.926726,166.237127 275.926726,147.624932 C275.926726,90.5157181 228.933451,44.2238482 170.985664,44.2238482 C113.037876,44.2238482 66.0446018,90.5157181 66.0446018,147.624932 C66.0446018,204.734146 113.037876,251.026016 170.985664,251.026016 C194.006018,251.026016 215.438761,243.708401 232.743717,231.300271" id="Shape"></path>
                        <path d="M306.091327,25.7707316 L245.603363,25.7707316 C245.603363,25.7707316 242.745664,26.407046 234.966372,17.9758808 C227.18708,9.54471546 144.155044,4.61327914 127.167611,21.7937669 C110.180177,38.9742546 84.9371681,75.0850948 84.9371681,75.0850948 C84.9371681,75.0850948 70.1723894,101.173984 56.0426548,147.465854 C41.9129204,193.757724 12.3833628,332.792411 12.3833628,332.792411 C12.3833628,332.792411 -0.317522123,406.127641 1.11132743,454.96477 C2.54017699,503.642819 8.09681417,512.073985 8.09681417,512.073985 C8.09681417,512.073985 10.160708,545.321408 53.1849558,573.478319 C96.2092035,601.63523 137.010796,573.478319 137.010796,573.478319 C137.010796,573.478319 170.826903,545.957724 190.513274,495.847966 C190.513274,495.847966 207.341947,459.896206 220.042832,418.853929 C232.743717,377.970733 231.314867,382.106776 231.314867,382.106776 C231.314867,382.106776 237.189027,361.426558 251.795044,358.085908 C261.003186,356.017886 289.897698,397.537399 364.515397,353.790785 L511.051859,354.108942" id="Shape"></path>
                        <path d="M230.997345,15.7487805 L230.997345,10.3401084 C166.857876,-15.7487805 125.262478,16.703252 125.262478,16.703252 L125.262478,24.3390244" id="Shape"></path>
                        <path d="M253.541416,69.99458 C253.541416,77.6303524 259.733098,83.8344175 267.353628,83.8344175 L267.353628,83.8344175 C274.974158,83.8344175 281.165842,77.6303524 281.165842,69.99458 L281.165842,49.4734417 C281.165842,41.8376693 274.974158,35.6336043 267.353628,35.6336043 L267.353628,35.6336043 C259.733098,35.6336043 253.541416,41.8376693 253.541416,49.4734417 L253.541416,69.99458 Z" id="Shape"></path>
                        <ellipse id="Oval" cx="304.662477" cy="263.275068" rx="79.2217698" ry="76.5168022"></ellipse>
                        <ellipse id="Oval" cx="304.186193" cy="253.094038" rx="51.1210621" ry="51.2233062"></ellipse>
                        <ellipse id="Oval" cx="303.551151" cy="250.707859" rx="34.2923894" ry="34.3609755"></ellipse>
                        <path d="M318.157168,179.281572 L582.335575,179.281572 C599.958053,171.168564 597.100354,156.374255 597.100354,156.374255 L597.100354,52.9731708 L597.100354,35.6336043 C597.259116,30.3840108 593.448849,29.2704607 593.448849,29.2704607 C593.448849,29.2704607 591.384955,24.9753387 587.574691,24.1799458 L347.210442,24.1799458" id="Shape"></path>
                        <path d="M578.842832,179.281572 L314.823186,179.281572 C297.200709,171.168564 300.058407,156.374255 300.058407,156.374255 L300.058407,52.9731708 L300.058407,35.6336043 C299.899646,30.3840108 303.709912,29.2704607 303.709912,29.2704607 C303.709912,29.2704607 305.773807,24.9753387 309.58407,24.1799458 L549.948319,24.1799458" id="Shape"></path>
                        <ellipse id="Oval" cx="480.093452" cy="199.007317" rx="3.17522123" ry="3.3406504"></ellipse>
                        <ellipse id="Oval" cx="472.631681" cy="210.620054" rx="3.17522123" ry="3.3406504"></ellipse>
                        <ellipse id="Oval" cx="464.693628" cy="223.028184" rx="3.17522123" ry="3.3406504"></ellipse>
                        <ellipse id="Oval" cx="456.12053" cy="210.620054" rx="3.17522123" ry="3.3406504"></ellipse>
                        <ellipse id="Oval" cx="464.693628" cy="199.007317" rx="3.17522123" ry="3.3406504"></ellipse>
                        <ellipse id="Oval" cx="447.864955" cy="223.028184" rx="3.17522123" ry="3.3406504"></ellipse>
                        <ellipse id="Oval" cx="439.133098" cy="210.620054" rx="3.17522123" ry="3.3406504"></ellipse>
                        <ellipse id="Oval" cx="447.864955" cy="199.007317" rx="3.17522123" ry="3.3406504"></ellipse>
                        <ellipse id="Oval" cx="423.415751" cy="210.620054" rx="3.17522123" ry="3.3406504"></ellipse>
                        <ellipse id="Oval" cx="432.147611" cy="199.007317" rx="3.17522123" ry="3.3406504"></ellipse>
                        <ellipse id="Oval" cx="415.953982" cy="199.007317" rx="3.17522123" ry="3.3406504"></ellipse>
                        <ellipse id="Oval" cx="430.877523" cy="223.028184" rx="3.17522123" ry="3.3406504"></ellipse>
                        <ellipse id="Oval" cx="447.864955" cy="274.092411" rx="23.020354" ry="23.0663957"></ellipse>
                        <ellipse id="Oval" cx="477.553274" cy="342.496206" rx="10.319469" ry="4.13604337"></ellipse>
                        <path d="M453.10407,342.018969 L413.096284,342.018969" id="Shape"></path>
                        <path d="M163.841416,136.012195 L149.235398,117.081843 C149.235398,117.081843 145.742655,113.423035 145.742655,107.855285 L145.742655,88.2886178 C145.742655,88.2886178 144.790088,78.902981 156.855929,77.4712736 L178.129912,77.4712736 C190.195752,78.902981 189.243186,88.2886178 189.243186,88.2886178 L189.243186,107.855285 C189.243186,113.582114 185.750442,117.081843 185.750442,117.081843 L171.144425,136.012195 C170.985664,136.012195 167.016637,138.716531 163.841416,136.012195 Z" id="Shape"></path>
                        <path d="M170.985664,158.124119 L185.591681,177.054471 C185.591681,177.054471 189.084425,180.713279 189.084425,186.28103 L189.084425,205.847697 C189.084425,205.847697 190.036991,215.233333 177.971151,216.665041 L156.697168,216.665041 C144.631327,215.233333 145.583894,205.847697 145.583894,205.847697 L145.583894,186.28103 C145.583894,180.713279 149.076637,177.054471 149.076637,177.054471 L163.682655,158.124119 C163.841416,158.124119 167.969204,155.419783 170.985664,158.124119 Z" id="Shape"></path>
                        <path d="M155.744602,150.647425 L136.852035,165.282656 C136.852035,165.282656 133.200531,168.782385 127.643894,168.782385 L108.116283,168.782385 C108.116283,168.782385 98.7493807,169.736856 97.3205309,157.646883 L97.3205309,136.330352 C98.7493807,124.240379 108.116283,125.194851 108.116283,125.194851 L127.643894,125.194851 C133.200531,125.194851 136.852035,128.69458 136.852035,128.69458 L155.744602,143.32981 C155.744602,143.32981 158.44354,147.465854 155.744602,150.647425 Z" id="Shape"></path>
                        <path d="M180.035044,143.32981 L198.927611,128.69458 C198.927611,128.69458 202.579115,125.194851 208.135752,125.194851 L227.663363,125.194851 C227.663363,125.194851 237.030266,124.240379 238.459115,136.330352 L238.459115,157.646883 C237.030266,169.736856 227.663363,168.782385 227.663363,168.782385 L208.135752,168.782385 C202.579115,168.782385 198.927611,165.282656 198.927611,165.282656 L180.035044,150.647425 C180.035044,150.647425 177.336106,146.511382 180.035044,143.32981 Z" id="Shape"></path>
                        <polygon id="Shape" points="155.42708 67.4493224 182.257699 67.4493224 168.92177 55.0411923"></polygon>
                        <polygon id="Shape" points="182.41646 227.641463 155.42708 227.641463 168.92177 240.049594"></polygon>
                        <polygon id="Shape" points="86.842301 161.146613 86.842301 134.103252 74.4589379 147.624932"></polygon>
                        <polygon id="Shape" points="250.842478 133.944173 250.842478 160.987534 263.384603 147.465854"></polygon>
                        <path d="M718.870088,522.573172 C718.870088,522.573172 825.398761,572.842006 895.729912,445.897291" id="Shape"></path>
                        <path d="M177.336106,524.641193 C177.336106,524.641193 70.8074337,574.910028 0.476283186,447.965313" id="Shape"></path>
                    </g>
                </g>
            </g>
        </g>
    </g>
</svg>