<?xml version="1.0" encoding="UTF-8"?>
<svg width="800px" height="600px" viewBox="0 0 800 600" version="1.1" xmlns="http://www.w3.org/2000/svg" xmlns:xlink="http://www.w3.org/1999/xlink">
    <!-- Generator: Sketch 42 (36781) - http://www.bohemiancoding.com/sketch -->
    <title>Group 2</title>
    <desc>Created with Sketch.</desc>
    <defs></defs>
    <g id="Page-1" stroke="none" stroke-width="1" fill="none" fill-rule="evenodd">
        <g id="Group-2">
            <rect id="Rectangle" fill="#009FD6" x="0" y="0" width="800" height="600"></rect>
            <g id="Group" transform="translate(225.000000, 185.000000)" stroke="#FFFFFF" stroke-width="2">
                <path d="M247.60177,77.5124661 C244.19469,71.6168022 242.274336,64.8523035 242.274336,57.5913279 C242.274336,35.3119241 260.610619,17.2525745 283.221239,17.2525745 C305.831858,17.2525745 324.168142,35.3119241 324.168142,57.5913279 C324.168142,79.8707317 305.831858,97.9300813 283.221239,97.9300813 C274.238938,97.9300813 265.876106,95.0753388 259.123894,90.2346883" id="Shape" fill-rule="nonzero"></path>
                <ellipse id="Oval" fill-rule="nonzero" cx="282.973451" cy="32.2710027" rx="11.3982301" ry="10.6742547"></ellipse>
                <polygon id="Shape" fill-rule="nonzero" points="282.973451 24.6376694 290.097345 36.6151762 276.654867 36.6151762"></polygon>
                <ellipse id="Oval" fill-rule="nonzero" cx="258.132743" cy="56.2880759" rx="11.3982301" ry="10.6742547"></ellipse>
                <rect id="Rectangle-path" fill-rule="nonzero" x="252.185841" y="50.2062331" width="12.079646" height="11.2948509"></rect>
                <ellipse id="Oval" fill-rule="nonzero" cx="309.300885" cy="55.6674797" rx="11.3982301" ry="10.6742547"></ellipse>
                <ellipse id="Oval" fill-rule="nonzero" cx="309.486726" cy="55.295122" rx="7.30973451" ry="7.57127371"></ellipse>
                <ellipse id="Oval" fill-rule="nonzero" cx="284.336283" cy="80.6154472" rx="11.3982301" ry="10.6742547"></ellipse>
                <path d="M290.097345,74.5336043 L278.823009,86.3249322" id="Shape" fill-rule="nonzero"></path>
                <path d="M278.017699,75.3403794 L290.097345,86.3249322" id="Shape" fill-rule="nonzero"></path>
                <path d="M230.504425,10.0536585 L254.106195,10.0536585 C254.106195,10.0536585 255.221239,10.301897 258.256637,7.01273713 C261.292035,3.72357724 293.690265,1.799729 300.318584,8.50216802 C306.884956,15.2666667 316.79646,29.2921409 316.79646,29.2921409 C316.79646,29.2921409 322.557522,39.4699187 328.070796,57.5292683 C333.584071,75.5886179 345.106195,129.828726 345.106195,129.828726 C345.106195,129.828726 350.061947,158.438211 349.504425,177.490515 C348.946903,196.542818 346.778761,199.769919 346.778761,199.769919 C346.778761,199.769919 345.973451,212.740379 329.185841,223.724932 C312.39823,234.709485 296.477876,223.724932 296.477876,223.724932 C296.477876,223.724932 283.283186,212.988618 275.60177,193.439837 C275.60177,193.439837 269.035398,179.414363 264.079646,163.402981 C259.123894,147.453659 259.681416,149.067209 259.681416,149.067209 C259.681416,149.067209 257.389381,140.999458 251.690265,139.696206 C248.097345,138.889431 236.823009,155.086992 207.707965,138.020596 L150.530973,138.144715" id="Shape" fill-rule="nonzero"></path>
                <path d="M259.867257,6.14390244 L259.867257,4.03387534 C284.893805,-6.14390244 301.123894,6.51626016 301.123894,6.51626016 L301.123894,9.49512195" id="Shape" fill-rule="nonzero"></path>
                <path d="M251.070796,27.3062331 C251.070796,30.2850949 248.654867,32.7054201 245.681416,32.7054201 L245.681416,32.7054201 C242.707965,32.7054201 240.292035,30.2850949 240.292035,27.3062331 L240.292035,19.300542 C240.292035,16.3216802 242.707965,13.901355 245.681416,13.901355 L245.681416,13.901355 C248.654867,13.901355 251.070796,16.3216802 251.070796,19.300542 L251.070796,27.3062331 Z" id="Shape" fill-rule="nonzero"></path>
                <ellipse id="Oval" fill-rule="nonzero" cx="231.123894" cy="102.708672" rx="30.9115044" ry="29.8506775"></ellipse>
                <ellipse id="Oval" fill-rule="nonzero" cx="231.309735" cy="98.7368564" rx="19.9469027" ry="19.9831978"></ellipse>
                <ellipse id="Oval" fill-rule="nonzero" cx="231.557522" cy="97.8059621" rx="13.380531" ry="13.404878"></ellipse>
                <path d="M102.336283,77.5124661 C105.743363,71.6168022 107.663717,64.8523035 107.663717,57.5913279 C107.663717,35.3119241 89.3274336,17.2525745 66.7168142,17.2525745 C44.1061947,17.2525745 25.7699115,35.3119241 25.7699115,57.5913279 C25.7699115,79.8707317 44.1061947,97.9300813 66.7168142,97.9300813 C75.699115,97.9300813 84.0619469,95.0753388 90.8141593,90.2346883" id="Shape"></path>
                <path d="M119.433628,10.0536585 L95.8318584,10.0536585 C95.8318584,10.0536585 94.7168142,10.301897 91.6814159,7.01273713 C88.6460177,3.72357724 56.2477876,1.799729 49.619469,8.50216802 C42.9911504,15.204607 33.1415929,29.2921409 33.1415929,29.2921409 C33.1415929,29.2921409 27.380531,39.4699187 21.8672566,57.5292683 C16.3539823,75.5886179 4.83185841,129.828726 4.83185841,129.828726 C4.83185841,129.828726 -0.123893805,158.438211 0.433628319,177.490515 C0.991150442,196.480759 3.15929204,199.769919 3.15929204,199.769919 C3.15929204,199.769919 3.96460177,212.740379 20.7522124,223.724932 C37.539823,234.709485 53.460177,223.724932 53.460177,223.724932 C53.460177,223.724932 66.6548673,212.988618 74.3362832,193.439837 C74.3362832,193.439837 80.9026549,179.414363 85.8584071,163.402981 C90.8141593,147.453659 90.2566372,149.067209 90.2566372,149.067209 C90.2566372,149.067209 92.5486726,140.999458 98.2477876,139.696206 C101.840708,138.889431 113.115044,155.086992 142.230088,138.020596 L199.40708,138.144715" id="Shape"></path>
                <path d="M90.1327434,6.14390244 L90.1327434,4.03387534 C65.1061947,-6.14390244 48.8761062,6.51626016 48.8761062,6.51626016 L48.8761062,9.49512195" id="Shape"></path>
                <path d="M98.9292035,27.3062331 C98.9292035,30.2850949 101.345133,32.7054201 104.318584,32.7054201 L104.318584,32.7054201 C107.292035,32.7054201 109.707965,30.2850949 109.707965,27.3062331 L109.707965,19.300542 C109.707965,16.3216802 107.292035,13.901355 104.318584,13.901355 L104.318584,13.901355 C101.345133,13.901355 98.9292035,16.3216802 98.9292035,19.300542 L98.9292035,27.3062331 Z" id="Shape" fill-rule="nonzero"></path>
                <ellipse id="Oval" fill-rule="nonzero" cx="118.876106" cy="102.708672" rx="30.9115044" ry="29.8506775"></ellipse>
                <ellipse id="Oval" fill-rule="nonzero" cx="118.690265" cy="98.7368564" rx="19.9469027" ry="19.9831978"></ellipse>
                <ellipse id="Oval" fill-rule="nonzero" cx="118.442478" cy="97.8059621" rx="13.380531" ry="13.404878"></ellipse>
                <path d="M124.141593,69.9411924 L227.221239,69.9411924 C234.097345,66.7761518 232.982301,61.004607 232.982301,61.004607 L232.982301,20.6658537 L232.982301,13.901355 C233.044248,11.8533875 231.557522,11.4189702 231.557522,11.4189702 C231.557522,11.4189702 230.752212,9.74336043 229.265487,9.43306233 L135.477876,9.43306233" id="Shape" fill-rule="nonzero"></path>
                <path d="M225.858407,69.9411924 L122.840708,69.9411924 C115.964602,66.7761518 117.079646,61.004607 117.079646,61.004607 L117.079646,20.6658537 L117.079646,13.901355 C117.017699,11.8533875 118.504425,11.4189702 118.504425,11.4189702 C118.504425,11.4189702 119.309735,9.74336043 120.79646,9.43306233 L214.584071,9.43306233" id="Shape" fill-rule="nonzero"></path>
                <ellipse id="Oval" fill-rule="nonzero" cx="187.327434" cy="77.6365854" rx="1.23893805" ry="1.30325203"></ellipse>
                <ellipse id="Oval" fill-rule="nonzero" cx="184.415929" cy="82.1669377" rx="1.23893805" ry="1.30325203"></ellipse>
                <ellipse id="Oval" fill-rule="nonzero" cx="181.318584" cy="87.0075881" rx="1.23893805" ry="1.30325203"></ellipse>
                <ellipse id="Oval" fill-rule="nonzero" cx="177.973451" cy="82.1669377" rx="1.23893805" ry="1.30325203"></ellipse>
                <ellipse id="Oval" fill-rule="nonzero" cx="181.318584" cy="77.6365854" rx="1.23893805" ry="1.30325203"></ellipse>
                <ellipse id="Oval" fill-rule="nonzero" cx="174.752212" cy="87.0075881" rx="1.23893805" ry="1.30325203"></ellipse>
                <ellipse id="Oval" fill-rule="nonzero" cx="171.345133" cy="82.1669377" rx="1.23893805" ry="1.30325203"></ellipse>
                <ellipse id="Oval" fill-rule="nonzero" cx="174.752212" cy="77.6365854" rx="1.23893805" ry="1.30325203"></ellipse>
                <ellipse id="Oval" fill-rule="nonzero" cx="165.212389" cy="82.1669377" rx="1.23893805" ry="1.30325203"></ellipse>
                <ellipse id="Oval" fill-rule="nonzero" cx="168.619469" cy="77.6365854" rx="1.23893805" ry="1.30325203"></ellipse>
                <ellipse id="Oval" fill-rule="nonzero" cx="162.300885" cy="77.6365854" rx="1.23893805" ry="1.30325203"></ellipse>
                <ellipse id="Oval" fill-rule="nonzero" cx="168.123894" cy="87.0075881" rx="1.23893805" ry="1.30325203"></ellipse>
                <ellipse id="Oval" fill-rule="nonzero" cx="174.752212" cy="106.928726" rx="8.98230088" ry="8.99864499"></ellipse>
                <ellipse id="Oval" fill-rule="nonzero" cx="186.336283" cy="133.614363" rx="4.02654867" ry="1.61355014"></ellipse>
                <path d="M176.79646,133.428184 L161.185841,133.428184" id="Shape" fill-rule="nonzero"></path>
                <path d="M63.9292035,53.0609756 L58.2300885,45.6758808 C58.2300885,45.6758808 56.8672566,44.2485095 56.8672566,42.0764228 L56.8672566,34.4430894 C56.8672566,34.4430894 56.4955752,30.7815718 61.2035398,30.2230352 L69.5044248,30.2230352 C74.2123894,30.7815718 73.840708,34.4430894 73.840708,34.4430894 L73.840708,42.0764228 C73.840708,44.3105691 72.4778761,45.6758808 72.4778761,45.6758808 L66.7787611,53.0609756 C66.7168142,53.0609756 65.1681416,54.1159892 63.9292035,53.0609756 Z" id="Shape" fill-rule="nonzero"></path>
                <path d="M66.7168142,61.6872629 L72.4159292,69.0723577 C72.4159292,69.0723577 73.7787611,70.499729 73.7787611,72.6718157 L73.7787611,80.3051491 C73.7787611,80.3051491 74.1504425,83.9666667 69.4424779,84.5252033 L61.1415929,84.5252033 C56.4336283,83.9666667 56.8053097,80.3051491 56.8053097,80.3051491 L56.8053097,72.6718157 C56.8053097,70.499729 58.1681416,69.0723577 58.1681416,69.0723577 L63.8672566,61.6872629 C63.9292035,61.6872629 65.539823,60.6322493 66.7168142,61.6872629 Z" id="Shape" fill-rule="nonzero"></path>
                <path d="M60.7699115,58.7704607 L53.3982301,64.4799458 C53.3982301,64.4799458 51.9734513,65.8452575 49.8053097,65.8452575 L42.1858407,65.8452575 C42.1858407,65.8452575 38.5309735,66.2176152 37.9734513,61.501084 L37.9734513,53.1850949 C38.5309735,48.4685637 42.1858407,48.8409214 42.1858407,48.8409214 L49.8053097,48.8409214 C51.9734513,48.8409214 53.3982301,50.2062331 53.3982301,50.2062331 L60.7699115,55.9157182 C60.7699115,55.9157182 61.8230088,57.5292683 60.7699115,58.7704607 Z" id="Shape" fill-rule="nonzero"></path>
                <path d="M70.2477876,55.9157182 L77.619469,50.2062331 C77.619469,50.2062331 79.0442478,48.8409214 81.2123894,48.8409214 L88.8318584,48.8409214 C88.8318584,48.8409214 92.4867257,48.4685637 93.0442478,53.1850949 L93.0442478,61.501084 C92.4867257,66.2176152 88.8318584,65.8452575 88.8318584,65.8452575 L81.2123894,65.8452575 C79.0442478,65.8452575 77.619469,64.4799458 77.619469,64.4799458 L70.2477876,58.7704607 C70.2477876,58.7704607 69.1946903,57.1569106 70.2477876,55.9157182 Z" id="Shape" fill-rule="nonzero"></path>
                <polygon id="Shape" fill-rule="nonzero" points="60.6460177 26.3132791 71.1150442 26.3132791 65.9115044 21.4726287"></polygon>
                <polygon id="Shape" fill-rule="nonzero" points="71.1769912 88.8073171 60.6460177 88.8073171 65.9115044 93.6479675"></polygon>
                <polygon id="Shape" fill-rule="nonzero" points="33.8849558 62.8663957 33.8849558 52.3162602 29.0530973 57.5913279"></polygon>
                <polygon id="Shape" fill-rule="nonzero" points="97.8761062 52.2542005 97.8761062 62.804336 102.769912 57.5292683"></polygon>
                <path d="M280.495575,203.865854 C280.495575,203.865854 322.061947,223.476694 349.504425,173.953117" id="Shape" fill-rule="nonzero"></path>
                <path d="M69.1946903,204.672629 C69.1946903,204.672629 27.6283186,224.283469 0.185840708,174.759892" id="Shape" fill-rule="nonzero"></path>
            </g>
        </g>
    </g>
</svg>