<?xml version="1.0" encoding="utf-8"?>
<!-- Generator: Adobe Illustrator 16.2.1, SVG Export Plug-In . SVG Version: 6.00 Build 0)  -->
<!DOCTYPE svg PUBLIC "-//W3C//DTD SVG 1.1//EN" "http://www.w3.org/Graphics/SVG/1.1/DTD/svg11.dtd">
<svg version="1.1" id="Layer_1" xmlns="http://www.w3.org/2000/svg" xmlns:xlink="http://www.w3.org/1999/xlink" x="0px" y="0px"
	 viewBox="0 0 724.504 176.844" enable-background="new 0 0 724.504 176.844"
	 xml:space="preserve">
<g opacity="0.99">
	<polygon fill="#FFFFFF" points="208.246,85.809 208.245,85.806 208.245,85.809 	"/>
	<path fill="#FFFFFF" d="M693.708,129.821l0.245,0.002c14.616,0,24.903-10.123,25.013-24.619c0.057-7.175-2.016-13.743-5.833-18.49
		c-4.041-5.023-9.697-7.705-16.354-7.755l-0.137-0.001c-8.987,0-17.332,6.821-25.515,20.852l-0.651,1.117l-0.418-1.225
		c-2.064-6.014-3.907-11.023-5.007-14.016c-0.768-2.094-1.112-3.031-1.191-3.333c-0.391-1.52-1.69-2.462-3.391-2.462
		c-1.047,0-2.156,0.354-3.209,1.022c-1.041,0.663-1.623,1.475-1.832,2.557l-0.052,0.162c-8.188,25.537-14.942,37.939-20.659,37.94
		c-0.832-0.005-1.484-0.279-1.97-0.817c-1.495-1.657-1.13-5.596-0.619-11.05c0.373-3.999,0.798-8.538,0.622-13.351
		c-0.34-9.246-5.397-14.803-13.536-14.866c-10.342,0-17.043,11.011-20.131,17.573l-0.92,1.96l-0.205-2.155
		c-0.771-8.126-3.497-17.826-12.105-17.893c-10.039,0-17.688,11.785-22.354,21.672l-1.25,2.65l0.12-2.928
		c0.558-13.189,1.014-20.972,1.354-23.134c0.342-2.166,0.164-3.621-0.546-4.452c-0.672-0.783-1.936-1.071-3.795-0.952
		c-3.213,0.204-4.857,2.159-7.331,8.716c-4.062,10.771-14.404,35.827-22.66,35.827c-1.637-0.011-2.935-0.571-3.883-1.657
		c-3.464-3.974-2.077-14.701-0.161-29.549l0.144-1.123c0.905-7.03-0.643-8.53-4.456-9.233c-0.413-0.077-0.803-0.114-1.16-0.114
		c-3.051,0-4.478,2.92-7.326,11.035c-5.067,14.441-11.583,29.632-19.208,29.632c-0.277,0-0.556-0.021-0.833-0.067
		c-4.04-0.685-3.953-6.681-3.84-14.27c0.062-4.104,0.128-8.756-0.504-12.959c-1.14-7.537-5.582-12.247-11.593-12.294
		c-12.005-0.001-20.097,15.37-23.86,24.53l-0.854,2.073l-0.285-2.224c-0.503-3.971-1.168-10.269-1.458-17.715l-0.008-0.22
		l0.136-0.172c22.463-28.274,32.541-48.677,32.674-66.159c0.087-11.168-5.066-17.876-13.782-17.943
		c-6.37,0-21.525,5.308-26.792,54.479c-0.976,9.118-1.514,18.466-1.594,27.788l-0.001,0.181l-0.104,0.149
		C430.368,97.416,408.436,123,386.963,123c-19.4,0-34.879-15.693-34.879-43.399c0-37.141,26.291-59.945,46.074-59.945l0.162,0.001
		c4.299,0.032,7.985,1.233,10.663,3.473c2.779,2.325,4.229,5.583,4.2,9.423c-0.037,5.13-1.707,7.761-3.321,10.309
		c-0.415,0.656-0.828,1.306-1.206,1.997c-0.382,0.696-0.73,1.708-0.223,2.574c0.519,0.885,1.847,1.443,3.466,1.455
		c4.709,0,11.832-6.816,11.909-17.087c0.083-10.75-8.974-21.828-25.13-21.828c-24.45,0-57.375,26.859-57.375,70.392
		c0,30.793,19.305,52.075,45.458,52.075c18.561,0,36.92-13.286,53.177-35.481l0.994-1.346l0.073,1.672
		c0.344,8.123,0.935,14.527,1.365,19.202c0.278,3.006,0.479,5.175,0.471,6.372c-0.021,2.629,0.409,4.447,1.313,5.565
		c0.904,1.12,2.342,1.649,4.521,1.667c3.65,0,4.381-2.492,5.826-8.632l0.417-1.753c1.797-7.441,8.434-31.732,18.416-31.732
		c1.631,0.013,2.888,0.501,3.782,1.447c2.205,2.339,1.964,7.136,1.685,12.693c-0.175,3.468-0.355,7.054-0.008,10.542
		c0.938,9.421,5.01,14.027,12.439,14.084c7.628,0.001,15.588-8.216,19.787-15.85l0.793-1.441l0.309,1.615
		c0.776,4.086,4.243,17.501,15.101,17.501c9.841,0,18.277-10.364,27.534-31.686l1.209-2.787l-0.076,3.037
		c-0.196,8.081-0.632,17.951-0.635,25.577c-0.003,5.902,0.593,8.154,3.318,8.154c0.194,0,0.403,0.029,0.616,0.029
		c2.618,0,4.396-1.564,5.281-4.651c6.961-24.266,12.979-35.566,18.94-35.566c5.839,0.045,6.387,10.718,6.855,29.578l0.029,1.321
		c0.143,6.599,0.378,9.515,4.479,9.547c3.107,0,3.883-2.44,5.49-8.455c0.306-1.15,0.644-2.407,1.033-3.764
		c5.621-19.504,10.28-27.459,16.084-27.459c4.966,0.039,5.242,5.158,5.333,6.84c0.194,3.605-0.178,7.377-0.537,11.019
		c-0.333,3.385-0.677,6.883-0.548,10.142c0.306,7.63,4.482,11.859,11.762,11.917c9.451,0.001,17.981-11.051,25.452-32.844
		l0.519-1.518l0.592,1.491c1.355,3.421,3.121,8.06,4.757,13.592l0.062,0.211l-0.091,0.201
		c-7.233,16.062-12.338,33.954-12.409,43.511c-0.095,12.592,5.603,20.773,14.514,20.842l0.153,0.001
		c4.85,0,16.153-1.945,16.372-19.963c0.086-7.387-1.655-17.828-5.183-31.039l-0.403-1.511l1.303,0.865
		C683.528,128.184,688.604,129.783,693.708,129.821z M450.144,68.724c0.203-4.514,0.582-8.911,1.122-13.065
		c3.494-26.786,10.797-45.493,17.759-45.493h0.03c3.318,0.025,4.979,2.534,4.941,7.457c-0.092,12.094-7.753,29.408-22.773,51.463
		l-1.174,1.726L450.144,68.724z M672.104,165.024c-1.108,1.473-2.65,2.221-4.582,2.221c-2.218-0.017-3.886-0.794-5.019-2.307
		c-3.176-4.246-2.281-14.219,2.9-32.335c0.618-2.158,1.29-4.335,2-6.465l0.604-1.806l0.528,1.829
		C674.575,147.064,675.776,160.139,672.104,165.024z M673.98,111.469l-0.11-0.201l-0.219-0.696l0.103-0.208
		c6.886-14.187,14.774-22.319,21.64-22.319h0.071c7.752,0.06,13.112,7.034,13.036,16.957c-0.051,6.627-2.97,10.439-5.407,12.47
		c-2.783,2.32-6.49,3.646-10.17,3.646C683.853,121.053,677.625,115.834,673.98,111.469z"/>
	<path fill="#FFFFFF" d="M695.394,88.642v-0.004V88.642z"/>
	<path fill="#FFFFFF" d="M234.858,127.479c10.627-0.854,19.059-15.306,22.19-21.48l0.807-1.593l0.305,1.76
		c1.502,8.688,6.227,23.282,21.009,23.394l0.123,0.001c6.392,0,13.646-3.91,20.976-11.304l0.538-0.545l0.392,0.656
		c4.934,8.252,11.554,12.636,18.6,12.276c10.376-0.537,16.673-7.895,17.228-12.999c0.142-1.3-0.204-2.522-0.946-3.353
		c-0.934-1.042-2.288-1.159-3.285-0.209l-0.472,0.45c-2.417,2.321-6.918,6.642-11.819,6.896
		c-6.004,0.295-10.444-3.297-13.314-10.703l-0.119-0.309l0.202-0.265c16.509-21.595,28.096-54.545,26.952-76.642
		c-0.527-10.229-3.502-22.422-14.672-22.422c-0.273,0-0.551,0.007-0.833,0.023c-4.279,0.22-8.171,2.258-11.566,6.058
		c-10.364,11.595-15.789,40.137-13.82,72.714c0.409,6.77,1.583,13.093,3.493,18.796l0.107,0.315l-0.218,0.257
		c-6.125,7.16-12.171,11.104-17.02,11.104c-11.671,0-11.277-19.564-10.355-35.795c0.2-3.498,0.495-5.726-0.54-6.993
		c-0.74-0.907-1.978-1.355-3.781-1.369l-0.212,0c-4.15,0-5.018,0.853-7.146,7.015c-4.419,12.805-13.146,34.291-21.922,34.291
		c-2.434-0.021-4.291-0.852-5.56-2.473c-4.258-5.436-1.026-18.99,1.571-29.882c0.468-1.959,0.917-3.839,1.299-5.578
		c0.569-2.583,0.395-4.47-0.52-5.608c-0.912-1.135-2.741-1.599-5.154-1.407c-3.76,0.301-6.163,1.874-7.324,9.022l-0.232,1.488
		l-0.875-1.06c-1.641-2.422-4.842-5.312-10.783-5.312c-0.521,0-1.06,0.021-1.617,0.067c-6.34,0.521-13.561,4.936-18.845,11.53
		c-6.169,7.697-9.116,17.442-8.296,27.433c0.044,0.529,0.12,1.037,0.195,1.542l0.044,0.281l-0.192,0.209
		c-3.691,4.021-7.451,6.062-11.178,6.062c-5.751-0.046-9.051-4.322-9.051-11.44c0-11.983,8.122-48.109,8.122-61.187
		c0-13.918-6.203-21.496-16.971-21.579l-0.163-0.001c-15.724,0-27.982,17.845-39.71,54.557c-1.074,3.363-2.243,7.249-3.246,10.604
		l-1.646,5.521l0.489-5.739c1.089-12.789,1.837-25.231,2.225-36.983c0.583-17.743-1.815-29.161-7.333-34.908
		c-2.977-3.1-6.916-4.626-12.045-4.665l-0.136,0c-19.243,0-28.461,32.454-35.173,55.355c-2.026,6.912-6.021,22.505-8.686,33.165
		l1.579-2.569c1.186-13.421,4.614-47.044,4.389-65.284c-0.241-19.568-6.758-28.342-21.129-28.452l-0.177,0
		c-7.677,0-13.003,3.816-16.12,7.017C8.488,22.368,5.37,29.876,5.544,36.359c0.104,3.942,2.524,7.45,4.357,7.45
		c1.194,0,1.854-1.594,2.143-2.543c4.446-14.7,10.198-21.845,17.585-21.845c3.064,0.024,5.342,0.927,7.05,2.759
		c5.77,6.19,4.72,22.904,2.817,53.246c-0.614,9.778-1.308,20.858-1.896,33.461c-0.101,2.162-0.235,4.252-0.363,6.237
		c-0.561,8.754-1.005,15.668,2.314,16.183c4.319,0.673,7.131-1.079,8.568-5.355c2.134-6.344,6.918-23.681,16.177-55.363
		c8.883-30.401,15.595-41.463,24.183-41.463c9.92,0,10.659,17.034,8.84,52.979c-0.386,7.619-0.906,16.251-1.303,25.646
		c-0.056,1.319-0.119,2.597-0.179,3.829c-0.382,7.775-0.684,13.915,1.537,16.269c0.693,0.73,1.637,1.093,2.883,1.102
		c4.3,0,5.593-3.772,7.735-10.021c0.379-1.105,0.781-2.281,1.229-3.516c14.737-40.648,25.632-75.916,40.256-75.916
		c4.389,0,7.798,3.562,7.798,10.511c0,16.04-7.841,47.035-7.841,62.747c0,5.627,1.62,10.684,4.682,14.235
		c3.142,3.644,7.538,5.591,12.712,5.629h0.114c4.892,0,9.992-2.377,15.157-7.065l0.484-0.439l0.389,0.524
		c3.4,4.576,8.889,7.032,14.812,6.574c9.09-0.708,16.716-8.802,19.553-16.432l0.555-1.493l0.555,1.493
		C220.551,121.446,225.112,128.271,234.858,127.479z M318.609,21.264l0.156-0.003c1.038,0,1.949,0.52,2.709,1.548
		c3.608,4.88,3.663,22.688-2.545,42.95c-3.547,11.581-8.316,22.52-13.792,31.634l-0.873,1.452l-0.222-1.681
		c-0.645-4.897-0.962-9.999-1.187-14.345C301.272,52.194,310.538,21.684,318.609,21.264z M217.763,92.843
		c-3.181,12.804-9.281,28.248-20.279,29.133c-0.307,0.022-0.607,0.037-0.896,0.037c-4.561,0-7.119-2.986-7.602-8.877
		c-0.604-7.372,2.574-16.008,8.098-22.004c3.515-3.816,7.481-5.919,11.163-5.919h0.075c4.652,0.037,7.912,3.771,9.411,7.252
		l0.079,0.185L217.763,92.843z"/>
	<path fill="#FFFFFF" d="M469.024,10.76v-0.002V10.76z"/>
	<path fill="#FFFFFF" d="M268.772,45.921c-4.061,0-7.341,3.198-7.371,7.13c-0.031,3.961,3.227,7.208,7.26,7.239l0.058,0.59l0,0
		v-0.59c4.002,0.001,7.281-3.195,7.311-7.126C276.061,49.201,272.805,45.954,268.772,45.921z"/>
	<path fill="#FFFFFF" d="M524.024,45.921c-4.06,0-7.341,3.198-7.369,7.13c-0.032,3.961,3.225,7.208,7.26,7.239l0.057,0.59l0,0v-0.59
		c4.002,0.001,7.28-3.195,7.311-7.126C531.312,49.201,528.058,45.954,524.024,45.921z"/>
</g>
</svg>
