<?xml version="1.0" encoding="UTF-8" standalone="no"?>
<!-- Created with Inkscape (http://www.inkscape.org/) -->

<svg
   xmlns:dc="http://purl.org/dc/elements/1.1/"
   xmlns:cc="http://creativecommons.org/ns#"
   xmlns:rdf="http://www.w3.org/1999/02/22-rdf-syntax-ns#"
   xmlns:svg="http://www.w3.org/2000/svg"
   xmlns="http://www.w3.org/2000/svg"
   xmlns:sodipodi="http://sodipodi.sourceforge.net/DTD/sodipodi-0.dtd"
   xmlns:inkscape="http://www.inkscape.org/namespaces/inkscape"
   width="600"
   height="600"
   viewBox="0 0 600 600.00001"
   id="svg2"
   version="1.1"
   inkscape:version="0.91 r13725"
   sodipodi:docname="yaranaika.svg">
  <defs
     id="defs4" />
  <sodipodi:namedview
     id="base"
     pagecolor="#ffffff"
     bordercolor="#666666"
     borderopacity="1.0"
     inkscape:pageopacity="0.0"
     inkscape:pageshadow="2"
     inkscape:zoom="0.60498047"
     inkscape:cx="233.35785"
     inkscape:cy="382.97945"
     inkscape:document-units="px"
     inkscape:current-layer="layer1"
     showgrid="false"
     inkscape:window-width="1920"
     inkscape:window-height="1025"
     inkscape:window-x="0"
     inkscape:window-y="27"
     inkscape:window-maximized="1"
     units="px" />
  <metadata
     id="metadata7">
    <rdf:RDF>
      <cc:Work
         rdf:about="">
        <dc:format>image/svg+xml</dc:format>
        <dc:type
           rdf:resource="http://purl.org/dc/dcmitype/StillImage" />
        <dc:title></dc:title>
      </cc:Work>
    </rdf:RDF>
  </metadata>
  <g
     inkscape:label="Layer 1"
     inkscape:groupmode="layer"
     id="layer1"
     transform="translate(0,-452.36216)">
    <path
       style="fill:#000000"
       d="m 264.84485,1035.0538 c 0.57573,-11.7012 5.93703,-32.027 7.32275,-27.7621 1.11253,3.4237 -4.67263,37.625 -6.46244,38.2065 -0.76805,0.2496 -1.15529,-4.4504 -0.86041,-10.4444 z m 25.12967,-93.56254 c -5.04666,-1.56736 -15.41954,-2.07114 -23.05079,-1.11936 -16.30434,2.03344 -34.83472,-3.48384 -28.54194,-8.49818 5.84048,-4.65385 3.35608,-9.34826 -8.01346,-15.14131 -12.9778,-6.61249 -15.65798,-14.98786 -2.97736,-9.30356 15.78748,7.07685 93.91783,10.13357 113.99168,4.45972 25.97955,-7.34308 26.32084,-4.34723 1.09966,9.65361 -37.42816,20.77723 -43.01168,22.89852 -52.50806,19.94919 z m 55.08758,-90.70964 c -17.94781,-2.86996 -41.30455,-6.20047 -51.90379,-7.40104 -19.21471,-2.17655 -90.85051,4.09566 -107.10792,9.37806 -10.85306,3.52634 -13.28386,-3.69584 -6.29489,-18.70229 4.71654,-10.12706 5.89428,-10.89125 8.76637,-5.68855 1.82487,3.30554 3.60632,5.88839 3.9588,5.73967 0.35248,-0.14849 6.57069,-4.87189 13.81809,-10.49608 18.12917,-14.06855 35.74364,-19.33459 52.19223,-15.60331 7.63679,1.73229 29.15882,2.55481 47.82676,1.82746 34.61102,-1.34811 47.93058,3.435 70.22423,25.21784 3.97723,3.88604 8.96535,5.2669 11.52893,3.19151 7.28223,-5.8958 12.26395,1.80635 5.63343,8.70969 -8.88372,9.24933 -12.80431,9.55776 -48.64237,3.82697 z m 20.7965,-12.10325 c -5.36074,-16.3758 -24.08916,-23.66384 -56.64025,-22.04121 -16.74405,0.83483 -40.37298,0.0315 -52.50867,-1.78805 -19.45449,-2.91448 -23.63619,-2.26711 -35.34644,5.47176 -30.03425,19.84872 -26.08321,25.05918 14.87962,19.62276 27.52464,-3.65284 92.77428,-1.26285 115.95646,4.24774 17.84298,4.24139 16.96804,4.59449 13.65928,-5.513 z m -36.13427,-85.88249 c -0.72227,-2.22304 -5.5107,-2.67808 -10.64086,-1.01122 -5.58506,1.81466 -10.02058,0.8978 -11.05491,-2.2853 -2.02392,-6.2291 -22.11542,1.09613 -32.41323,11.81769 -9.23168,9.61163 -9.57271,9.45504 -16.5022,-7.57775 l -6.29948,-15.48414 -17.37037,6.32673 c -20.6543,7.52274 -26.44598,2.73362 -24.56101,-20.30921 1.29206,-15.7948 9.83002,-29.16656 24.49406,-38.36148 8.79826,-5.51684 14.66646,-1.53853 8.48639,5.7532 -5.96309,7.03583 5.01078,29.29955 17.60487,35.71657 14.24405,7.25769 15.44074,7.02281 30.59953,-6.00499 17.09046,-14.68791 21.68329,-15.17961 23.66748,-2.53386 1.32394,8.43641 2.16402,9.2895 3.8412,3.90809 1.65007,-5.29012 3.4105,-3.04319 7.59935,9.69936 3.9888,12.13409 6.20069,15.11472 8.24259,11.1073 1.53866,-3.01984 -0.31814,-12.96545 -4.13863,-22.1674 -8.28937,-19.96552 -4.52923,-23.75145 5.443,-5.48023 4.70738,8.62489 6.32376,16.58097 4.85033,23.874 -2.35959,11.67966 -9.67187,19.71056 -11.84811,13.01264 z M 285.69256,737.8845 c 0.60145,-2.46418 -1.52392,-3.62983 -4.72314,-2.59033 -3.19923,1.03943 -5.2712,3.56896 -4.60447,5.62096 0.66676,2.05212 2.79216,3.21777 4.72315,2.59037 1.93095,-0.62749 4.00287,-3.15689 4.60446,-5.621 z m 15.57731,-9.18638 c -0.66673,-2.05201 -2.89119,-3.18548 -4.94333,-2.51871 -2.05205,0.66668 -3.18547,2.89126 -2.51872,4.94332 0.66675,2.05207 2.89123,3.18556 4.94332,2.51873 2.05211,-0.66667 3.1855,-2.89121 2.51873,-4.94334 z M 520.96141,605.04108 c -3.41574,-0.0388 -12.27032,-0.71964 -19.67705,-1.51272 -7.40668,-0.7931 -15.20558,-0.87703 -17.33075,-0.18628 -2.12525,0.6906 -16.99525,-2.6084 -33.04454,-7.3309 -16.04917,-4.72251 -32.7434,-8.60998 -37.09829,-8.63884 -11.92565,-0.0788 -31.34419,-7.84774 -29.35826,-11.74532 4.48636,-8.80495 23.73354,-8.51697 68.06899,1.01852 26.47727,5.69458 55.02211,11.53803 63.43282,12.98547 14.75825,2.53978 21.73947,8.8967 14.64537,13.33583 -1.8854,1.17967 -6.22264,2.11315 -9.63829,2.07438 z m -273.24833,53.92617 c -1.42517,-9.4661 -1.72849,-22.59601 -0.67387,-29.17759 1.05447,-6.58163 1.12049,-11.70756 0.14655,-11.39107 -0.97403,0.31629 -1.23342,-5.99674 -0.57625,-14.02935 0.75744,-9.26031 -0.43023,-15.00139 -3.24553,-15.6886 -2.44214,-0.59612 -3.50682,1.97083 -2.36584,5.70422 1.96205,6.42056 1.69309,6.52323 -4.96692,1.89565 -6.60072,-4.58625 -7.30786,-4.22748 -11.30204,5.73469 -2.34346,5.84489 -2.55276,7.75187 -0.46513,4.2377 5.00501,-8.42531 8.10309,-9.13671 13.07026,-3.00142 2.44001,3.01387 2.23531,4.61235 -0.50513,3.94341 -2.95926,-0.72229 -2.62168,2.04387 0.94326,7.72915 3.3959,5.41582 3.99135,9.36105 1.53342,10.15967 -2.21017,0.71801 -3.88029,-1.33581 -3.71144,-4.56421 0.169,-3.22845 -2.18911,-6.47931 -5.24017,-7.22392 -3.87034,-0.94474 -4.21714,0.28841 -1.14726,4.08053 2.61387,3.22849 2.56172,6.05724 -0.12871,6.96887 -2.82643,0.95788 -2.7913,2.10903 0.0936,3.06331 8.90135,2.94455 8.19689,8.71203 -2.91147,23.83746 -12.15402,16.54895 -18.46458,13.12025 -7.0956,-3.85521 3.81899,-5.70222 6.24546,-12.32652 5.39211,-14.72042 -0.85354,-2.39393 -3.56566,0.68406 -6.02753,6.83976 -5.8081,14.52356 -7.5103,8.86326 -3.01814,-10.03658 1.93426,-8.13824 2.25895,-15.86283 0.7216,-17.16579 -1.5374,-1.30304 -0.18399,-7.00937 3.00818,-12.68081 6.59605,-11.72005 25.13655,-19.27003 30.63704,-12.47595 2.01667,2.49096 3.12553,17.78257 2.46414,33.98162 -0.66145,16.19891 0.098,33.45491 1.68733,38.34651 1.5894,4.89173 1.40139,10.65017 -0.41859,12.79658 -2.34859,2.77103 -4.05903,-1.08811 -5.89887,-13.30836 z M 575.34594,556.60068 c -3.6757,-0.83886 -42.54696,-4.69554 -86.38056,-8.57024 -62.23653,-5.5016 -84.01855,-5.78576 -99.41968,-1.29716 -13.5666,3.95398 -16.09003,4.04861 -8.08516,0.30349 6.40036,-2.9946 11.19281,-6.81177 10.64988,-8.48251 -1.58844,-4.8891 -13.5351,-8.42175 -15.49202,-4.58112 -0.98472,1.93264 -1.63058,0.45802 -1.43523,-3.27713 0.19506,-3.73503 -2.11009,-7.3927 -5.12282,-8.12815 -3.78829,-0.92468 -4.03071,-0.0214 -0.78594,2.93184 3.65371,3.32429 3.33281,3.64299 -1.45029,1.44031 -8.22685,-3.7885 -20.16131,-26.92043 -21.5626,-41.79353 -0.96866,-10.28131 -0.13455,-9.36657 5.80438,6.36387 3.8146,10.10417 6.58762,14.77174 6.1622,10.37259 -1.79776,-18.59278 -1.00505,-20.02353 7.53049,-13.59346 18.53841,13.96541 58.91966,21.16849 124.79833,22.26088 38.56928,0.63958 85.13361,5.12579 77.99601,7.51453 -2.39443,0.80113 -2.11789,5.04845 0.65675,10.09115 2.63533,4.78906 5.89072,7.4103 7.23436,5.82502 1.34357,-1.58534 3.963,2.29195 5.82088,8.61616 3.88517,13.22583 2.44498,16.14098 -6.91898,14.00374 z m -72.01287,19.57633 c -0.70594,-2.17322 0.73234,-3.45909 3.19639,-2.85763 2.46415,0.60147 4.72089,1.83404 5.01498,2.73893 0.29374,0.90497 -1.1444,2.19092 -3.19648,2.85764 -2.0521,0.66663 -4.30872,-0.56577 -5.01489,-2.73894 z m -35.53679,-7.63973 c -13.73277,-3.95557 -34.87555,-9.1176 -46.98379,-11.47128 -12.1083,-2.35359 -19.64228,-5.08396 -16.74216,-6.06733 6.27455,-2.1274 49.39622,6.13145 66.846,12.80296 6.77683,2.59098 16.13458,5.68311 20.79478,6.87143 4.6602,1.18822 6.80381,2.812 4.76356,3.60833 -2.04024,0.79622 -14.94546,-1.78857 -28.67839,-5.74411 z m -83.63879,-10.75857 c -1.75463,-1.48706 0.45563,-2.91682 4.91154,-3.17725 9.45216,-0.55256 11.37715,1.62492 3.65484,4.13407 -2.95693,0.9607 -6.81181,0.53014 -8.56638,-0.95682 z m -49.63392,-11.0566 c 7.08192,-12.5425 6.97622,-15.31959 -1.60166,-42.09288 l -9.18396,-28.6644 10.14987,26.60788 c 5.58232,14.63432 11.77794,26.0788 13.76791,25.43223 2.06589,-0.67119 0.59666,-7.71507 -3.42455,-16.41822 l -7.04281,-15.24253 10.5618,15.13039 c 19.06313,27.30928 19.91989,30.652 8.78391,34.27018 -7.97165,2.59022 -8.0378,2.46612 -2.65793,-4.98646 3.03448,-4.20357 3.82498,-8.50506 1.75664,-9.55894 -2.06821,-1.05377 -7.26968,2.92388 -11.55868,8.83918 -12.78799,17.6371 -17.6607,21.04699 -9.55066,6.68357 z m -144.69191,49.71372 c 0.69641,-2.85309 6.09471,-6.75629 11.99616,-8.67379 5.9015,-1.91749 14.32092,-6.37526 18.70991,-9.9062 12.03949,-9.68581 2.61062,-23.89163 -17.60292,-26.52111 -12.59235,-1.6381 -14.3041,-2.77446 -8.78146,-5.8293 3.77308,-2.087 8.09132,-2.12665 9.59635,-0.088 1.50489,2.03864 5.76741,2.72178 9.47214,1.51803 9.06024,-2.94387 22.25342,20.21744 17.18381,30.16708 -4.47538,8.78351 -42.41113,26.85955 -40.57399,19.33318 z m -32.80879,5.69578 c -4.98592,-1.43783 -3.58909,-2.27441 5.17948,-3.10199 14.7158,-1.38881 18.38768,-0.22069 8.81722,2.80442 -3.94327,1.24656 -10.24187,1.38041 -13.9967,0.2975 z M 183.39836,575.398 c -9.06915,0.0214 -28.0613,1.55046 -42.20477,3.40674 -60.230378,7.90505 -63.317561,7.86153 -68.855381,-0.97021 -2.883624,-4.5988 -9.588258,-9.6907 -14.899081,-11.31523 -15.257264,-4.66705 -4.714209,-5.67406 34.665027,-3.31094 20.065915,1.20417 36.195935,1.30448 35.844495,0.22307 -0.35146,-1.08149 2.00105,-0.98253 5.22762,0.21998 6.03602,2.24924 30.06881,0.27359 47.53341,-3.90715 13.57248,-3.24912 28.51357,-0.0795 30.65238,6.50307 2.12358,6.5358 -5.73709,9.10822 -27.96361,9.15099 z m 47.20653,-27.70437 c -7.26336,-8.10596 -13.06097,-17.51373 -12.88356,-20.90618 0.25938,-4.95885 -3.63926,-4.88092 -19.88413,0.39736 -11.99109,3.8962 -23.87502,5.29528 -29.22903,3.44092 -4.96235,-1.7185 -12.05448,-2.19851 -15.76064,-1.06648 -3.70605,1.13202 -21.02082,2.11484 -38.47717,2.18399 -39.978455,0.1583 -74.491898,5.63088 -81.191287,12.87372 -6.736338,7.28296 -11.399262,4.44571 -7.754284,-4.71828 2.455281,-6.17307 2.06969,-6.64434 -2.44569,-2.98865 -8.78911,7.1157 -7.369226,1.14506 3.447515,-14.49613 14.884789,-21.52373 42.998786,-28.7704 96.403526,-24.84909 52.73547,3.87232 81.11044,2.88743 100.76038,-3.49722 12.68523,-4.12164 15.92722,-3.8945 15.66621,1.09717 -0.43387,8.29703 4.29637,6.46636 10.29491,-3.98431 2.64922,-4.6155 5.40709,-6.5748 6.12865,-4.3541 1.99995,6.15518 -18.1168,35.70058 -26.06635,38.28351 -5.20071,1.68983 -5.77818,3.74147 -2.23634,7.94527 9.17262,10.88718 18.43704,25.44438 17.43927,27.40267 -0.55318,1.0857 -6.94858,-4.65805 -14.21198,-12.76407 z m -89.4482,5.60696 c -5.8014,-0.39887 -25.27629,-0.35149 -43.277428,0.1056 -18.001211,0.45703 -28.456294,-0.65633 -23.233581,-2.47404 8.822286,-3.0705 79.617549,-4.02865 85.259439,-1.15404 4.15914,2.11911 -7.4471,4.29986 -18.74843,3.52263 z m 116.19192,-48.64465 c -0.56792,-1.74811 2.7575,-9.86178 7.39005,-18.0304 4.63249,-8.16856 7.10994,-10.71302 5.50542,-5.65422 -4.3745,13.79186 -11.72391,27.29021 -12.89547,23.68462 z m 56.47911,-35.73605 c -1.99434,-1.6903 -0.69998,-2.80243 3.03435,-2.60714 7.26967,0.38017 9.32118,2.67021 3.95436,4.41407 -1.93095,0.62739 -5.07585,-0.18669 -6.98871,-1.80693 z"
       id="path4201"
       inkscape:connector-curvature="0" />
  </g>
</svg>